<?xml version="1.0" encoding="UTF-8"?>
<svg id="_레이어_2" data-name="레이어 2" xmlns="http://www.w3.org/2000/svg" viewBox="0 0 108.31 124.45">
  <g id="_레이어_1-2" data-name="레이어 1">
    <g>
      <g>
        <path d="M30.91,15.38s0,.08,0,.11c0,.04,0,.08,0,.12-2.82,0-5.45.76-7.72,2.08-2.27-1.32-4.9-2.07-7.72-2.08,0-.04,0-.08,0-.12,0-.04,0-.08,0-.11,2.82,0,5.45-.76,7.72-2.08,2.27,1.32,4.9,2.07,7.72,2.08Z"/>
        <path d="M15.44,15.38s0,.08,0,.11c0,.04,0,.08,0,.12-2.81,0-5.45.76-7.71,2.08C5.45,16.37,2.82,15.62,0,15.62c0-.04,0-.08,0-.12,0-.04,0-.08,0-.11,2.81,0,5.45-.76,7.72-2.08,2.26,1.32,4.9,2.07,7.71,2.08Z"/>
        <path d="M15.47,15.62c.02,2.79.78,5.42,2.1,7.67-1.32,2.25-2.09,4.87-2.1,7.67h-.04c-.02-2.79-.78-5.41-2.1-7.67,1.32-2.25,2.09-4.88,2.1-7.67h.04Z"/>
        <path d="M15.47.04c.02,2.79.78,5.42,2.1,7.67-1.32,2.25-2.09,4.88-2.1,7.67h-.04c-.02-2.79-.78-5.42-2.1-7.67,1.32-2.25,2.09-4.88,2.1-7.67h.04Z"/>
      </g>
      <g>
        <path d="M46.42,15.34s0,.08,0,.11c0,.04,0,.08,0,.12-2.82,0-5.45.76-7.72,2.08-2.27-1.32-4.9-2.07-7.72-2.08,0-.04,0-.08,0-.12,0-.04,0-.08,0-.11,2.82,0,5.45-.76,7.72-2.08,2.27,1.32,4.9,2.07,7.72,2.08Z"/>
        <path d="M30.95,15.34s0,.08,0,.11c0,.04,0,.08,0,.12-2.81,0-5.45.76-7.71,2.08-2.27-1.32-4.91-2.07-7.72-2.08,0-.04,0-.08,0-.12,0-.04,0-.08,0-.11,2.81,0,5.45-.76,7.72-2.08,2.26,1.32,4.9,2.07,7.71,2.08Z"/>
        <path d="M30.99,15.58c.02,2.79.78,5.42,2.1,7.67-1.32,2.25-2.09,4.87-2.1,7.67h-.04c-.02-2.79-.78-5.41-2.1-7.67,1.32-2.25,2.09-4.88,2.1-7.67h.04Z"/>
        <path d="M30.99,0c.02,2.79.78,5.42,2.1,7.67-1.32,2.25-2.09,4.88-2.1,7.67h-.04c-.02-2.79-.78-5.42-2.1-7.67,1.32-2.25,2.09-4.88,2.1-7.67h.04Z"/>
      </g>
      <g>
        <path d="M108.3,15.38s0,.08,0,.11c0,.04,0,.08,0,.12-2.82,0-5.45.76-7.72,2.08-2.27-1.32-4.9-2.07-7.72-2.08,0-.04,0-.08,0-.12,0-.04,0-.08,0-.11,2.82,0,5.45-.76,7.72-2.08,2.27,1.32,4.9,2.07,7.72,2.08Z"/>
        <path d="M92.83,15.38s0,.08,0,.11c0,.04,0,.08,0,.12-2.81,0-5.45.76-7.71,2.08-2.27-1.32-4.91-2.07-7.72-2.08,0-.04,0-.08,0-.12,0-.04,0-.08,0-.11,2.81,0,5.45-.76,7.72-2.08,2.26,1.32,4.9,2.07,7.71,2.08Z"/>
        <path d="M92.86,15.62c.02,2.79.78,5.42,2.1,7.67-1.32,2.25-2.09,4.87-2.1,7.67h-.04c-.02-2.79-.78-5.41-2.1-7.67,1.32-2.25,2.09-4.88,2.1-7.67h.04Z"/>
        <path d="M92.86.04c.02,2.79.78,5.42,2.1,7.67-1.32,2.25-2.09,4.88-2.1,7.67h-.04c-.02-2.79-.78-5.42-2.1-7.67,1.32-2.25,2.09-4.88,2.1-7.67h.04Z"/>
      </g>
      <g>
        <path d="M92.84,15.46s0,.08,0,.11c0,.04,0,.08,0,.12-2.82,0-5.45.76-7.72,2.08-2.27-1.32-4.9-2.07-7.72-2.08,0-.04,0-.08,0-.12,0-.04,0-.08,0-.11,2.82,0,5.45-.76,7.72-2.08,2.27,1.32,4.9,2.07,7.72,2.08Z"/>
        <path d="M77.37,15.46s0,.08,0,.11c0,.04,0,.08,0,.12-2.81,0-5.45.76-7.71,2.08-2.27-1.32-4.91-2.07-7.72-2.08,0-.04,0-.08,0-.12,0-.04,0-.08,0-.11,2.81,0,5.45-.76,7.72-2.08,2.26,1.32,4.9,2.07,7.71,2.08Z"/>
        <path d="M77.4,15.69c.02,2.79.78,5.42,2.1,7.67-1.32,2.25-2.09,4.87-2.1,7.67h-.04c-.02-2.79-.78-5.41-2.1-7.67,1.32-2.25,2.09-4.88,2.1-7.67h.04Z"/>
        <path d="M77.4.11c.02,2.79.78,5.42,2.1,7.67-1.32,2.25-2.09,4.88-2.1,7.67h-.04c-.02-2.79-.78-5.42-2.1-7.67,1.32-2.25,2.09-4.88,2.1-7.67h.04Z"/>
      </g>
      <g>
        <path d="M61.88,15.46s0,.08,0,.11c0,.04,0,.08,0,.12-2.82,0-5.45.76-7.72,2.08-2.27-1.32-4.9-2.07-7.72-2.08,0-.04,0-.08,0-.12,0-.04,0-.08,0-.11,2.82,0,5.45-.76,7.72-2.08,2.27,1.32,4.9,2.07,7.72,2.08Z"/>
        <path d="M46.4,15.46s0,.08,0,.11c0,.04,0,.08,0,.12-2.81,0-5.45.76-7.71,2.08-2.27-1.32-4.91-2.07-7.72-2.08,0-.04,0-.08,0-.12,0-.04,0-.08,0-.11,2.81,0,5.45-.76,7.72-2.08,2.26,1.32,4.9,2.07,7.71,2.08Z"/>
        <path d="M46.44,15.69c.02,2.79.78,5.42,2.1,7.67-1.32,2.25-2.09,4.87-2.1,7.67h-.04c-.02-2.79-.78-5.41-2.1-7.67,1.32-2.25,2.09-4.88,2.1-7.67h.04Z"/>
        <path d="M46.44.11c.02,2.79.78,5.42,2.1,7.67-1.32,2.25-2.09,4.88-2.1,7.67h-.04c-.02-2.79-.78-5.42-2.1-7.67,1.32-2.25,2.09-4.88,2.1-7.67h.04Z"/>
      </g>
      <g>
        <path d="M30.91,108.67s0,.08,0,.11c0,.04,0,.08,0,.12-2.82,0-5.45.76-7.72,2.08-2.27-1.32-4.9-2.07-7.72-2.08,0-.04,0-.08,0-.12,0-.04,0-.08,0-.11,2.82,0,5.45-.76,7.72-2.08,2.27,1.32,4.9,2.07,7.72,2.08Z"/>
        <path d="M15.44,108.67s0,.08,0,.11c0,.04,0,.08,0,.12-2.81,0-5.45.76-7.71,2.08-2.27-1.32-4.91-2.07-7.72-2.08,0-.04,0-.08,0-.12,0-.04,0-.08,0-.11,2.81,0,5.45-.76,7.72-2.08,2.26,1.32,4.9,2.07,7.71,2.08Z"/>
        <path d="M15.47,108.91c.02,2.79.78,5.42,2.1,7.67-1.32,2.25-2.09,4.87-2.1,7.67h-.04c-.02-2.79-.78-5.41-2.1-7.67,1.32-2.25,2.09-4.88,2.1-7.67h.04Z"/>
        <path d="M15.47,93.33c.02,2.79.78,5.42,2.1,7.67-1.32,2.25-2.09,4.88-2.1,7.67h-.04c-.02-2.79-.78-5.42-2.1-7.67,1.32-2.25,2.09-4.88,2.1-7.67h.04Z"/>
      </g>
      <g>
        <path d="M46.42,108.64s0,.08,0,.11c0,.04,0,.08,0,.12-2.82,0-5.45.76-7.72,2.08-2.27-1.32-4.9-2.07-7.72-2.08,0-.04,0-.08,0-.12,0-.04,0-.08,0-.11,2.82,0,5.45-.76,7.72-2.08,2.27,1.32,4.9,2.07,7.72,2.08Z"/>
        <path d="M30.95,108.64s0,.08,0,.11c0,.04,0,.08,0,.12-2.81,0-5.45.76-7.71,2.08-2.27-1.32-4.91-2.07-7.72-2.08,0-.04,0-.08,0-.12,0-.04,0-.08,0-.11,2.81,0,5.45-.76,7.72-2.08,2.26,1.32,4.9,2.07,7.71,2.08Z"/>
        <path d="M30.99,108.87c.02,2.79.78,5.42,2.1,7.67-1.32,2.25-2.09,4.87-2.1,7.67h-.04c-.02-2.79-.78-5.41-2.1-7.67,1.32-2.25,2.09-4.88,2.1-7.67h.04Z"/>
        <path d="M30.99,93.29c.02,2.79.78,5.42,2.1,7.67-1.32,2.25-2.09,4.88-2.1,7.67h-.04c-.02-2.79-.78-5.42-2.1-7.67,1.32-2.25,2.09-4.88,2.1-7.67h.04Z"/>
      </g>
      <g>
        <path d="M61.88,108.75s0,.08,0,.11c0,.04,0,.08,0,.12-2.82,0-5.45.76-7.72,2.08-2.27-1.32-4.9-2.07-7.72-2.08,0-.04,0-.08,0-.12,0-.04,0-.08,0-.11,2.82,0,5.45-.76,7.72-2.08,2.27,1.32,4.9,2.07,7.72,2.08Z"/>
        <path d="M46.4,108.75s0,.08,0,.11c0,.04,0,.08,0,.12-2.81,0-5.45.76-7.71,2.08-2.27-1.32-4.91-2.07-7.72-2.08,0-.04,0-.08,0-.12,0-.04,0-.08,0-.11,2.81,0,5.45-.76,7.72-2.08,2.26,1.32,4.9,2.07,7.71,2.08Z"/>
        <path d="M46.44,108.98c.02,2.79.78,5.42,2.1,7.67-1.32,2.25-2.09,4.87-2.1,7.67h-.04c-.02-2.79-.78-5.41-2.1-7.67,1.32-2.25,2.09-4.88,2.1-7.67h.04Z"/>
        <path d="M46.44,93.4c.02,2.79.78,5.42,2.1,7.67-1.32,2.25-2.09,4.88-2.1,7.67h-.04c-.02-2.79-.78-5.42-2.1-7.67,1.32-2.25,2.09-4.88,2.1-7.67h.04Z"/>
      </g>
      <g>
        <path d="M92.84,46.5s0,.08,0,.11c0,.04,0,.08,0,.12-2.82,0-5.45.76-7.72,2.08-2.27-1.32-4.9-2.07-7.72-2.08,0-.04,0-.08,0-.12,0-.04,0-.08,0-.11,2.82,0,5.45-.76,7.72-2.08,2.27,1.32,4.9,2.07,7.72,2.08Z"/>
        <path d="M77.37,46.5s0,.08,0,.11c0,.04,0,.08,0,.12-2.81,0-5.45.76-7.71,2.08-2.27-1.32-4.91-2.07-7.72-2.08,0-.04,0-.08,0-.12,0-.04,0-.08,0-.11,2.81,0,5.45-.76,7.72-2.08,2.26,1.32,4.9,2.07,7.71,2.08Z"/>
        <path d="M77.4,46.74c.02,2.79.78,5.42,2.1,7.67-1.32,2.25-2.09,4.87-2.1,7.67h-.04c-.02-2.79-.78-5.41-2.1-7.67,1.32-2.25,2.09-4.88,2.1-7.67h.04Z"/>
        <path d="M77.4,31.16c.02,2.79.78,5.42,2.1,7.67-1.32,2.25-2.09,4.88-2.1,7.67h-.04c-.02-2.79-.78-5.42-2.1-7.67,1.32-2.25,2.09-4.88,2.1-7.67h.04Z"/>
      </g>
      <g>
        <path d="M92.84,31.03s0,.08,0,.11c0,.04,0,.08,0,.12-2.82,0-5.45.76-7.72,2.08-2.27-1.32-4.9-2.07-7.72-2.08,0-.04,0-.08,0-.12,0-.04,0-.08,0-.11,2.82,0,5.45-.76,7.72-2.08,2.27,1.32,4.9,2.07,7.72,2.08Z"/>
        <path d="M77.37,31.03s0,.08,0,.11c0,.04,0,.08,0,.12-2.81,0-5.45.76-7.71,2.08-2.27-1.32-4.91-2.07-7.72-2.08,0-.04,0-.08,0-.12,0-.04,0-.08,0-.11,2.81,0,5.45-.76,7.72-2.08,2.26,1.32,4.9,2.07,7.71,2.08Z"/>
        <path d="M77.4,31.27c.02,2.79.78,5.42,2.1,7.67-1.32,2.25-2.09,4.87-2.1,7.67h-.04c-.02-2.79-.78-5.41-2.1-7.67,1.32-2.25,2.09-4.88,2.1-7.67h.04Z"/>
        <path d="M77.4,15.69c.02,2.79.78,5.42,2.1,7.67-1.32,2.25-2.09,4.88-2.1,7.67h-.04c-.02-2.79-.78-5.42-2.1-7.67,1.32-2.25,2.09-4.88,2.1-7.67h.04Z"/>
      </g>
      <g>
        <path d="M92.84,62.08s0,.08,0,.11c0,.04,0,.08,0,.12-2.82,0-5.45.76-7.72,2.08-2.27-1.32-4.9-2.07-7.72-2.08,0-.04,0-.08,0-.12,0-.04,0-.08,0-.11,2.82,0,5.45-.76,7.72-2.08,2.27,1.32,4.9,2.07,7.72,2.08Z"/>
        <path d="M77.37,62.08s0,.08,0,.11c0,.04,0,.08,0,.12-2.81,0-5.45.76-7.71,2.08-2.27-1.32-4.91-2.07-7.72-2.08,0-.04,0-.08,0-.12,0-.04,0-.08,0-.11,2.81,0,5.45-.76,7.72-2.08,2.26,1.32,4.9,2.07,7.71,2.08Z"/>
        <path d="M77.4,62.32c.02,2.79.78,5.42,2.1,7.67-1.32,2.25-2.09,4.87-2.1,7.67h-.04c-.02-2.79-.78-5.41-2.1-7.67,1.32-2.25,2.09-4.88,2.1-7.67h.04Z"/>
        <path d="M77.4,46.74c.02,2.79.78,5.42,2.1,7.67-1.32,2.25-2.09,4.88-2.1,7.67h-.04c-.02-2.79-.78-5.42-2.1-7.67,1.32-2.25,2.09-4.88,2.1-7.67h.04Z"/>
      </g>
      <g>
        <path d="M92.84,77.78s0,.08,0,.11c0,.04,0,.08,0,.12-2.82,0-5.45.76-7.72,2.08-2.27-1.32-4.9-2.07-7.72-2.08,0-.04,0-.08,0-.12,0-.04,0-.08,0-.11,2.82,0,5.45-.76,7.72-2.08,2.27,1.32,4.9,2.07,7.72,2.08Z"/>
        <path d="M77.37,77.78s0,.08,0,.11c0,.04,0,.08,0,.12-2.81,0-5.45.76-7.71,2.08-2.27-1.32-4.91-2.07-7.72-2.08,0-.04,0-.08,0-.12,0-.04,0-.08,0-.11,2.81,0,5.45-.76,7.72-2.08,2.26,1.32,4.9,2.07,7.71,2.08Z"/>
        <path d="M77.4,78.02c.02,2.79.78,5.42,2.1,7.67-1.32,2.25-2.09,4.87-2.1,7.67h-.04c-.02-2.79-.78-5.41-2.1-7.67,1.32-2.25,2.09-4.88,2.1-7.67h.04Z"/>
        <path d="M77.4,62.44c.02,2.79.78,5.42,2.1,7.67-1.32,2.25-2.09,4.88-2.1,7.67h-.04c-.02-2.79-.78-5.42-2.1-7.67,1.32-2.25,2.09-4.88,2.1-7.67h.04Z"/>
      </g>
      <g>
        <path d="M92.84,93.4s0,.08,0,.11c0,.04,0,.08,0,.12-2.82,0-5.45.76-7.72,2.08-2.27-1.32-4.9-2.07-7.72-2.08,0-.04,0-.08,0-.12,0-.04,0-.08,0-.11,2.82,0,5.45-.76,7.72-2.08,2.27,1.32,4.9,2.07,7.72,2.08Z"/>
        <path d="M77.37,93.4s0,.08,0,.11c0,.04,0,.08,0,.12-2.81,0-5.45.76-7.71,2.08-2.27-1.32-4.91-2.07-7.72-2.08,0-.04,0-.08,0-.12,0-.04,0-.08,0-.11,2.81,0,5.45-.76,7.72-2.08,2.26,1.32,4.9,2.07,7.71,2.08Z"/>
        <path d="M77.4,93.64c.02,2.79.78,5.42,2.1,7.67-1.32,2.25-2.09,4.87-2.1,7.67h-.04c-.02-2.79-.78-5.41-2.1-7.67,1.32-2.25,2.09-4.88,2.1-7.67h.04Z"/>
        <path d="M77.4,78.06c.02,2.79.78,5.42,2.1,7.67-1.32,2.25-2.09,4.88-2.1,7.67h-.04c-.02-2.79-.78-5.42-2.1-7.67,1.32-2.25,2.09-4.88,2.1-7.67h.04Z"/>
      </g>
      <g>
        <path d="M30.97,77.78s0,.08,0,.11c0,.04,0,.08,0,.12-2.82,0-5.45.76-7.72,2.08-2.27-1.32-4.9-2.07-7.72-2.08,0-.04,0-.08,0-.12,0-.04,0-.08,0-.11,2.82,0,5.45-.76,7.72-2.08,2.27,1.32,4.9,2.07,7.72,2.08Z"/>
        <path d="M15.49,77.78s0,.08,0,.11c0,.04,0,.08,0,.12-2.81,0-5.45.76-7.71,2.08-2.27-1.32-4.91-2.07-7.72-2.08,0-.04,0-.08,0-.12,0-.04,0-.08,0-.11,2.81,0,5.45-.76,7.72-2.08,2.26,1.32,4.9,2.07,7.71,2.08Z"/>
        <path d="M15.53,78.02c.02,2.79.78,5.42,2.1,7.67-1.32,2.25-2.09,4.87-2.1,7.67h-.04c-.02-2.79-.78-5.41-2.1-7.67,1.32-2.25,2.09-4.88,2.1-7.67h.04Z"/>
        <path d="M15.53,62.44c.02,2.79.78,5.42,2.1,7.67-1.32,2.25-2.09,4.88-2.1,7.67h-.04c-.02-2.79-.78-5.42-2.1-7.67,1.32-2.25,2.09-4.88,2.1-7.67h.04Z"/>
      </g>
      <g>
        <path d="M30.97,93.4s0,.08,0,.11c0,.04,0,.08,0,.12-2.82,0-5.45.76-7.72,2.08-2.27-1.32-4.9-2.07-7.72-2.08,0-.04,0-.08,0-.12,0-.04,0-.08,0-.11,2.82,0,5.45-.76,7.72-2.08,2.27,1.32,4.9,2.07,7.72,2.08Z"/>
        <path d="M15.49,93.4s0,.08,0,.11c0,.04,0,.08,0,.12-2.81,0-5.45.76-7.71,2.08-2.27-1.32-4.91-2.07-7.72-2.08,0-.04,0-.08,0-.12,0-.04,0-.08,0-.11,2.81,0,5.45-.76,7.72-2.08,2.26,1.32,4.9,2.07,7.71,2.08Z"/>
        <path d="M15.53,93.64c.02,2.79.78,5.42,2.1,7.67-1.32,2.25-2.09,4.87-2.1,7.67h-.04c-.02-2.79-.78-5.41-2.1-7.67,1.32-2.25,2.09-4.88,2.1-7.67h.04Z"/>
        <path d="M15.53,78.06c.02,2.79.78,5.42,2.1,7.67-1.32,2.25-2.09,4.88-2.1,7.67h-.04c-.02-2.79-.78-5.42-2.1-7.67,1.32-2.25,2.09-4.88,2.1-7.67h.04Z"/>
      </g>
      <g>
        <path d="M92.84,108.87s0,.08,0,.11c0,.04,0,.08,0,.12-2.82,0-5.45.76-7.72,2.08-2.27-1.32-4.9-2.07-7.72-2.08,0-.04,0-.08,0-.12,0-.04,0-.08,0-.11,2.82,0,5.45-.76,7.72-2.08,2.27,1.32,4.9,2.07,7.72,2.08Z"/>
        <path d="M77.37,108.87s0,.08,0,.11c0,.04,0,.08,0,.12-2.81,0-5.45.76-7.71,2.08-2.27-1.32-4.91-2.07-7.72-2.08,0-.04,0-.08,0-.12,0-.04,0-.08,0-.11,2.81,0,5.45-.76,7.72-2.08,2.26,1.32,4.9,2.07,7.71,2.08Z"/>
        <path d="M77.4,109.11c.02,2.79.78,5.42,2.1,7.67-1.32,2.25-2.09,4.87-2.1,7.67h-.04c-.02-2.79-.78-5.41-2.1-7.67,1.32-2.25,2.09-4.88,2.1-7.67h.04Z"/>
        <path d="M77.4,93.53c.02,2.79.78,5.42,2.1,7.67-1.32,2.25-2.09,4.88-2.1,7.67h-.04c-.02-2.79-.78-5.42-2.1-7.67,1.32-2.25,2.09-4.88,2.1-7.67h.04Z"/>
      </g>
    </g>
  </g>
</svg>