<?xml version="1.0" encoding="UTF-8"?>
<svg id="_레이어_2" data-name="레이어 2" xmlns="http://www.w3.org/2000/svg" viewBox="0 0 123.66 124.57">
  <g id="_레이어_1-2" data-name="레이어 1">
    <g>
      <g>
        <path d="M30.91,15.58s0,.08,0,.11c0,.04,0,.08,0,.12-2.82,0-5.45.76-7.72,2.08-2.27-1.32-4.9-2.07-7.72-2.08,0-.04,0-.08,0-.12,0-.04,0-.08,0-.11,2.82,0,5.45-.76,7.72-2.08,2.27,1.32,4.9,2.07,7.72,2.08Z"/>
        <path d="M15.44,15.58s0,.08,0,.11c0,.04,0,.08,0,.12-2.81,0-5.45.76-7.71,2.08C5.45,16.57,2.82,15.82,0,15.81c0-.04,0-.08,0-.12,0-.04,0-.08,0-.11,2.81,0,5.45-.76,7.72-2.08,2.26,1.32,4.9,2.07,7.71,2.08Z"/>
        <path d="M15.47,15.81c.02,2.79.78,5.42,2.1,7.67-1.32,2.25-2.09,4.87-2.1,7.67h-.04c-.02-2.79-.78-5.41-2.1-7.67,1.32-2.25,2.09-4.88,2.1-7.67h.04Z"/>
        <path d="M15.47.23c.02,2.79.78,5.42,2.1,7.67-1.32,2.25-2.09,4.88-2.1,7.67h-.04c-.02-2.79-.78-5.42-2.1-7.67,1.32-2.25,2.09-4.88,2.1-7.67h.04Z"/>
      </g>
      <g>
        <path d="M30.91,46.62s0,.08,0,.11c0,.04,0,.08,0,.12-2.82,0-5.45.76-7.72,2.08-2.27-1.32-4.9-2.07-7.72-2.08,0-.04,0-.08,0-.12,0-.04,0-.08,0-.11,2.82,0,5.45-.76,7.72-2.08,2.27,1.32,4.9,2.07,7.72,2.08Z"/>
        <path d="M15.44,46.62s0,.08,0,.11c0,.04,0,.08,0,.12-2.81,0-5.45.76-7.71,2.08-2.27-1.32-4.91-2.07-7.72-2.08,0-.04,0-.08,0-.12,0-.04,0-.08,0-.11,2.81,0,5.45-.76,7.72-2.08,2.26,1.32,4.9,2.07,7.71,2.08Z"/>
        <path d="M15.47,46.86c.02,2.79.78,5.42,2.1,7.67-1.32,2.25-2.09,4.87-2.1,7.67h-.04c-.02-2.79-.78-5.41-2.1-7.67,1.32-2.25,2.09-4.88,2.1-7.67h.04Z"/>
        <path d="M15.47,31.28c.02,2.79.78,5.42,2.1,7.67-1.32,2.25-2.09,4.88-2.1,7.67h-.04c-.02-2.79-.78-5.42-2.1-7.67,1.32-2.25,2.09-4.88,2.1-7.67h.04Z"/>
      </g>
      <g>
        <path d="M30.91,31.15s0,.08,0,.11c0,.04,0,.08,0,.12-2.82,0-5.45.76-7.72,2.08-2.27-1.32-4.9-2.07-7.72-2.08,0-.04,0-.08,0-.12,0-.04,0-.08,0-.11,2.82,0,5.45-.76,7.72-2.08,2.27,1.32,4.9,2.07,7.72,2.08Z"/>
        <path d="M15.44,31.15s0,.08,0,.11c0,.04,0,.08,0,.12-2.81,0-5.45.76-7.71,2.08-2.27-1.32-4.91-2.07-7.72-2.08,0-.04,0-.08,0-.12,0-.04,0-.08,0-.11,2.81,0,5.45-.76,7.72-2.08,2.26,1.32,4.9,2.07,7.71,2.08Z"/>
        <path d="M15.47,31.39c.02,2.79.78,5.42,2.1,7.67-1.32,2.25-2.09,4.87-2.1,7.67h-.04c-.02-2.79-.78-5.41-2.1-7.67,1.32-2.25,2.09-4.88,2.1-7.67h.04Z"/>
        <path d="M15.47,15.81c.02,2.79.78,5.42,2.1,7.67-1.32,2.25-2.09,4.88-2.1,7.67h-.04c-.02-2.79-.78-5.42-2.1-7.67,1.32-2.25,2.09-4.88,2.1-7.67h.04Z"/>
      </g>
      <g>
        <path d="M30.91,62.2s0,.08,0,.11c0,.04,0,.08,0,.12-2.82,0-5.45.76-7.72,2.08-2.27-1.32-4.9-2.07-7.72-2.08,0-.04,0-.08,0-.12,0-.04,0-.08,0-.11,2.82,0,5.45-.76,7.72-2.08,2.27,1.32,4.9,2.07,7.72,2.08Z"/>
        <path d="M15.44,62.2s0,.08,0,.11c0,.04,0,.08,0,.12-2.81,0-5.45.76-7.71,2.08-2.27-1.32-4.91-2.07-7.72-2.08,0-.04,0-.08,0-.12,0-.04,0-.08,0-.11,2.81,0,5.45-.76,7.72-2.08,2.26,1.32,4.9,2.07,7.71,2.08Z"/>
        <path d="M15.47,62.44c.02,2.79.78,5.42,2.1,7.67-1.32,2.25-2.09,4.87-2.1,7.67h-.04c-.02-2.79-.78-5.41-2.1-7.67,1.32-2.25,2.09-4.88,2.1-7.67h.04Z"/>
        <path d="M15.47,46.86c.02,2.79.78,5.42,2.1,7.67-1.32,2.25-2.09,4.88-2.1,7.67h-.04c-.02-2.79-.78-5.42-2.1-7.67,1.32-2.25,2.09-4.88,2.1-7.67h.04Z"/>
      </g>
      <g>
        <path d="M30.91,77.9s0,.08,0,.11c0,.04,0,.08,0,.12-2.82,0-5.45.76-7.72,2.08-2.27-1.32-4.9-2.07-7.72-2.08,0-.04,0-.08,0-.12,0-.04,0-.08,0-.11,2.82,0,5.45-.76,7.72-2.08,2.27,1.32,4.9,2.07,7.72,2.08Z"/>
        <path d="M15.44,77.9s0,.08,0,.11c0,.04,0,.08,0,.12-2.81,0-5.45.76-7.71,2.08-2.27-1.32-4.91-2.07-7.72-2.08,0-.04,0-.08,0-.12,0-.04,0-.08,0-.11,2.81,0,5.45-.76,7.72-2.08,2.26,1.32,4.9,2.07,7.71,2.08Z"/>
        <path d="M15.47,78.14c.02,2.79.78,5.42,2.1,7.67-1.32,2.25-2.09,4.87-2.1,7.67h-.04c-.02-2.79-.78-5.41-2.1-7.67,1.32-2.25,2.09-4.88,2.1-7.67h.04Z"/>
        <path d="M15.47,62.56c.02,2.79.78,5.42,2.1,7.67-1.32,2.25-2.09,4.88-2.1,7.67h-.04c-.02-2.79-.78-5.42-2.1-7.67,1.32-2.25,2.09-4.88,2.1-7.67h.04Z"/>
      </g>
      <g>
        <path d="M30.91,93.52s0,.08,0,.11c0,.04,0,.08,0,.12-2.82,0-5.45.76-7.72,2.08-2.27-1.32-4.9-2.07-7.72-2.08,0-.04,0-.08,0-.12,0-.04,0-.08,0-.11,2.82,0,5.45-.76,7.72-2.08,2.27,1.32,4.9,2.07,7.72,2.08Z"/>
        <path d="M15.44,93.52s0,.08,0,.11c0,.04,0,.08,0,.12-2.81,0-5.45.76-7.71,2.08-2.27-1.32-4.91-2.07-7.72-2.08,0-.04,0-.08,0-.12,0-.04,0-.08,0-.11,2.81,0,5.45-.76,7.72-2.08,2.26,1.32,4.9,2.07,7.71,2.08Z"/>
        <path d="M15.47,93.76c.02,2.79.78,5.42,2.1,7.67-1.32,2.25-2.09,4.87-2.1,7.67h-.04c-.02-2.79-.78-5.41-2.1-7.67,1.32-2.25,2.09-4.88,2.1-7.67h.04Z"/>
        <path d="M15.47,78.18c.02,2.79.78,5.42,2.1,7.67-1.32,2.25-2.09,4.88-2.1,7.67h-.04c-.02-2.79-.78-5.42-2.1-7.67,1.32-2.25,2.09-4.88,2.1-7.67h.04Z"/>
      </g>
      <g>
        <path d="M30.91,108.99s0,.08,0,.11c0,.04,0,.08,0,.12-2.82,0-5.45.76-7.72,2.08-2.27-1.32-4.9-2.07-7.72-2.08,0-.04,0-.08,0-.12,0-.04,0-.08,0-.11,2.82,0,5.45-.76,7.72-2.08,2.27,1.32,4.9,2.07,7.72,2.08Z"/>
        <path d="M15.44,108.99s0,.08,0,.11c0,.04,0,.08,0,.12-2.81,0-5.45.76-7.71,2.08-2.27-1.32-4.91-2.07-7.72-2.08,0-.04,0-.08,0-.12,0-.04,0-.08,0-.11,2.81,0,5.45-.76,7.72-2.08,2.26,1.32,4.9,2.07,7.71,2.08Z"/>
        <path d="M15.47,109.23c.02,2.79.78,5.42,2.1,7.67-1.32,2.25-2.09,4.87-2.1,7.67h-.04c-.02-2.79-.78-5.41-2.1-7.67,1.32-2.25,2.09-4.88,2.1-7.67h.04Z"/>
        <path d="M15.47,93.65c.02,2.79.78,5.42,2.1,7.67-1.32,2.25-2.09,4.88-2.1,7.67h-.04c-.02-2.79-.78-5.42-2.1-7.67,1.32-2.25,2.09-4.88,2.1-7.67h.04Z"/>
      </g>
      <g>
        <path d="M123.66,15.58s0,.08,0,.11c0,.04,0,.08,0,.12-2.82,0-5.45.76-7.72,2.08-2.27-1.32-4.9-2.07-7.72-2.08,0-.04,0-.08,0-.12,0-.04,0-.08,0-.11,2.82,0,5.45-.76,7.72-2.08,2.27,1.32,4.9,2.07,7.72,2.08Z"/>
        <path d="M108.18,15.58s0,.08,0,.11c0,.04,0,.08,0,.12-2.81,0-5.45.76-7.71,2.08-2.27-1.32-4.91-2.07-7.72-2.08,0-.04,0-.08,0-.12,0-.04,0-.08,0-.11,2.81,0,5.45-.76,7.72-2.08,2.26,1.32,4.9,2.07,7.71,2.08Z"/>
        <path d="M108.22,15.81c.02,2.79.78,5.42,2.1,7.67-1.32,2.25-2.09,4.87-2.1,7.67h-.04c-.02-2.79-.78-5.41-2.1-7.67,1.32-2.25,2.09-4.88,2.1-7.67h.04Z"/>
        <path d="M108.22.23c.02,2.79.78,5.42,2.1,7.67-1.32,2.25-2.09,4.88-2.1,7.67h-.04c-.02-2.79-.78-5.42-2.1-7.67,1.32-2.25,2.09-4.88,2.1-7.67h.04Z"/>
      </g>
      <g>
        <path d="M123.66,46.62s0,.08,0,.11c0,.04,0,.08,0,.12-2.82,0-5.45.76-7.72,2.08-2.27-1.32-4.9-2.07-7.72-2.08,0-.04,0-.08,0-.12,0-.04,0-.08,0-.11,2.82,0,5.45-.76,7.72-2.08,2.27,1.32,4.9,2.07,7.72,2.08Z"/>
        <path d="M108.18,46.62s0,.08,0,.11c0,.04,0,.08,0,.12-2.81,0-5.45.76-7.71,2.08-2.27-1.32-4.91-2.07-7.72-2.08,0-.04,0-.08,0-.12,0-.04,0-.08,0-.11,2.81,0,5.45-.76,7.72-2.08,2.26,1.32,4.9,2.07,7.71,2.08Z"/>
        <path d="M108.22,46.86c.02,2.79.78,5.42,2.1,7.67-1.32,2.25-2.09,4.87-2.1,7.67h-.04c-.02-2.79-.78-5.41-2.1-7.67,1.32-2.25,2.09-4.88,2.1-7.67h.04Z"/>
        <path d="M108.22,31.28c.02,2.79.78,5.42,2.1,7.67-1.32,2.25-2.09,4.88-2.1,7.67h-.04c-.02-2.79-.78-5.42-2.1-7.67,1.32-2.25,2.09-4.88,2.1-7.67h.04Z"/>
      </g>
      <g>
        <path d="M123.66,31.15s0,.08,0,.11c0,.04,0,.08,0,.12-2.82,0-5.45.76-7.72,2.08-2.27-1.32-4.9-2.07-7.72-2.08,0-.04,0-.08,0-.12,0-.04,0-.08,0-.11,2.82,0,5.45-.76,7.72-2.08,2.27,1.32,4.9,2.07,7.72,2.08Z"/>
        <path d="M108.18,31.15s0,.08,0,.11c0,.04,0,.08,0,.12-2.81,0-5.45.76-7.71,2.08-2.27-1.32-4.91-2.07-7.72-2.08,0-.04,0-.08,0-.12,0-.04,0-.08,0-.11,2.81,0,5.45-.76,7.72-2.08,2.26,1.32,4.9,2.07,7.71,2.08Z"/>
        <path d="M108.22,31.39c.02,2.79.78,5.42,2.1,7.67-1.32,2.25-2.09,4.87-2.1,7.67h-.04c-.02-2.79-.78-5.41-2.1-7.67,1.32-2.25,2.09-4.88,2.1-7.67h.04Z"/>
        <path d="M108.22,15.81c.02,2.79.78,5.42,2.1,7.67-1.32,2.25-2.09,4.88-2.1,7.67h-.04c-.02-2.79-.78-5.42-2.1-7.67,1.32-2.25,2.09-4.88,2.1-7.67h.04Z"/>
      </g>
      <g>
        <path d="M77.27,46.62s0,.08,0,.11c0,.04,0,.08,0,.12-2.82,0-5.45.76-7.72,2.08-2.27-1.32-4.9-2.07-7.72-2.08,0-.04,0-.08,0-.12,0-.04,0-.08,0-.11,2.82,0,5.45-.76,7.72-2.08,2.27,1.32,4.9,2.07,7.72,2.08Z"/>
        <path d="M61.8,46.62s0,.08,0,.11c0,.04,0,.08,0,.12-2.81,0-5.45.76-7.71,2.08-2.27-1.32-4.91-2.07-7.72-2.08,0-.04,0-.08,0-.12,0-.04,0-.08,0-.11,2.81,0,5.45-.76,7.72-2.08,2.26,1.32,4.9,2.07,7.71,2.08Z"/>
        <path d="M61.83,46.86c.02,2.79.78,5.42,2.1,7.67-1.32,2.25-2.09,4.87-2.1,7.67h-.04c-.02-2.79-.78-5.41-2.1-7.67,1.32-2.25,2.09-4.88,2.1-7.67h.04Z"/>
        <path d="M61.83,31.28c.02,2.79.78,5.42,2.1,7.67-1.32,2.25-2.09,4.88-2.1,7.67h-.04c-.02-2.79-.78-5.42-2.1-7.67,1.32-2.25,2.09-4.88,2.1-7.67h.04Z"/>
      </g>
      <g>
        <path d="M77.27,31.15s0,.08,0,.11c0,.04,0,.08,0,.12-2.82,0-5.45.76-7.72,2.08-2.27-1.32-4.9-2.07-7.72-2.08,0-.04,0-.08,0-.12,0-.04,0-.08,0-.11,2.82,0,5.45-.76,7.72-2.08,2.27,1.32,4.9,2.07,7.72,2.08Z"/>
        <path d="M61.8,31.15s0,.08,0,.11c0,.04,0,.08,0,.12-2.81,0-5.45.76-7.71,2.08-2.27-1.32-4.91-2.07-7.72-2.08,0-.04,0-.08,0-.12,0-.04,0-.08,0-.11,2.81,0,5.45-.76,7.72-2.08,2.26,1.32,4.9,2.07,7.71,2.08Z"/>
        <path d="M61.83,31.39c.02,2.79.78,5.42,2.1,7.67-1.32,2.25-2.09,4.87-2.1,7.67h-.04c-.02-2.79-.78-5.41-2.1-7.67,1.32-2.25,2.09-4.88,2.1-7.67h.04Z"/>
        <path d="M61.83,15.81c.02,2.79.78,5.42,2.1,7.67-1.32,2.25-2.09,4.88-2.1,7.67h-.04c-.02-2.79-.78-5.42-2.1-7.67,1.32-2.25,2.09-4.88,2.1-7.67h.04Z"/>
      </g>
      <g>
        <path d="M92.71,15.34s0,.08,0,.11c0,.04,0,.08,0,.12-2.82,0-5.45.76-7.72,2.08-2.27-1.32-4.9-2.07-7.72-2.08,0-.04,0-.08,0-.12,0-.04,0-.08,0-.11,2.82,0,5.45-.76,7.72-2.08,2.27,1.32,4.9,2.07,7.72,2.08Z"/>
        <path d="M77.24,15.34s0,.08,0,.11c0,.04,0,.08,0,.12-2.81,0-5.45.76-7.71,2.08-2.27-1.32-4.91-2.07-7.72-2.08,0-.04,0-.08,0-.12,0-.04,0-.08,0-.11,2.81,0,5.45-.76,7.72-2.08,2.26,1.32,4.9,2.07,7.71,2.08Z"/>
        <path d="M77.27,15.58c.02,2.79.78,5.42,2.1,7.67-1.32,2.25-2.09,4.87-2.1,7.67h-.04c-.02-2.79-.78-5.41-2.1-7.67,1.32-2.25,2.09-4.88,2.1-7.67h.04Z"/>
        <path d="M77.27,0c.02,2.79.78,5.42,2.1,7.67-1.32,2.25-2.09,4.88-2.1,7.67h-.04c-.02-2.79-.78-5.42-2.1-7.67,1.32-2.25,2.09-4.88,2.1-7.67h.04Z"/>
      </g>
      <g>
        <path d="M61.81,15.34s0,.08,0,.11c0,.04,0,.08,0,.12-2.82,0-5.45.76-7.72,2.08-2.27-1.32-4.9-2.07-7.72-2.08,0-.04,0-.08,0-.12,0-.04,0-.08,0-.11,2.82,0,5.45-.76,7.72-2.08,2.27,1.32,4.9,2.07,7.72,2.08Z"/>
        <path d="M46.34,15.34s0,.08,0,.11c0,.04,0,.08,0,.12-2.81,0-5.45.76-7.71,2.08-2.27-1.32-4.91-2.07-7.72-2.08,0-.04,0-.08,0-.12,0-.04,0-.08,0-.11,2.81,0,5.45-.76,7.72-2.08,2.26,1.32,4.9,2.07,7.71,2.08Z"/>
        <path d="M46.37,15.58c.02,2.79.78,5.42,2.1,7.67-1.32,2.25-2.09,4.87-2.1,7.67h-.04c-.02-2.79-.78-5.41-2.1-7.67,1.32-2.25,2.09-4.88,2.1-7.67h.04Z"/>
        <path d="M46.37,0c.02,2.79.78,5.42,2.1,7.67-1.32,2.25-2.09,4.88-2.1,7.67h-.04c-.02-2.79-.78-5.42-2.1-7.67,1.32-2.25,2.09-4.88,2.1-7.67h.04Z"/>
      </g>
      <g>
        <path d="M123.66,62.2s0,.08,0,.11c0,.04,0,.08,0,.12-2.82,0-5.45.76-7.72,2.08-2.27-1.32-4.9-2.07-7.72-2.08,0-.04,0-.08,0-.12,0-.04,0-.08,0-.11,2.82,0,5.45-.76,7.72-2.08,2.27,1.32,4.9,2.07,7.72,2.08Z"/>
        <path d="M108.18,62.2s0,.08,0,.11c0,.04,0,.08,0,.12-2.81,0-5.45.76-7.71,2.08-2.27-1.32-4.91-2.07-7.72-2.08,0-.04,0-.08,0-.12,0-.04,0-.08,0-.11,2.81,0,5.45-.76,7.72-2.08,2.26,1.32,4.9,2.07,7.71,2.08Z"/>
        <path d="M108.22,62.44c.02,2.79.78,5.42,2.1,7.67-1.32,2.25-2.09,4.87-2.1,7.67h-.04c-.02-2.79-.78-5.41-2.1-7.67,1.32-2.25,2.09-4.88,2.1-7.67h.04Z"/>
        <path d="M108.22,46.86c.02,2.79.78,5.42,2.1,7.67-1.32,2.25-2.09,4.88-2.1,7.67h-.04c-.02-2.79-.78-5.42-2.1-7.67,1.32-2.25,2.09-4.88,2.1-7.67h.04Z"/>
      </g>
      <g>
        <path d="M123.66,77.9s0,.08,0,.11c0,.04,0,.08,0,.12-2.82,0-5.45.76-7.72,2.08-2.27-1.32-4.9-2.07-7.72-2.08,0-.04,0-.08,0-.12,0-.04,0-.08,0-.11,2.82,0,5.45-.76,7.72-2.08,2.27,1.32,4.9,2.07,7.72,2.08Z"/>
        <path d="M108.18,77.9s0,.08,0,.11c0,.04,0,.08,0,.12-2.81,0-5.45.76-7.71,2.08-2.27-1.32-4.91-2.07-7.72-2.08,0-.04,0-.08,0-.12,0-.04,0-.08,0-.11,2.81,0,5.45-.76,7.72-2.08,2.26,1.32,4.9,2.07,7.71,2.08Z"/>
        <path d="M108.22,78.14c.02,2.79.78,5.42,2.1,7.67-1.32,2.25-2.09,4.87-2.1,7.67h-.04c-.02-2.79-.78-5.41-2.1-7.67,1.32-2.25,2.09-4.88,2.1-7.67h.04Z"/>
        <path d="M108.22,62.56c.02,2.79.78,5.42,2.1,7.67-1.32,2.25-2.09,4.88-2.1,7.67h-.04c-.02-2.79-.78-5.42-2.1-7.67,1.32-2.25,2.09-4.88,2.1-7.67h.04Z"/>
      </g>
      <g>
        <path d="M123.66,93.52s0,.08,0,.11c0,.04,0,.08,0,.12-2.82,0-5.45.76-7.72,2.08-2.27-1.32-4.9-2.07-7.72-2.08,0-.04,0-.08,0-.12,0-.04,0-.08,0-.11,2.82,0,5.45-.76,7.72-2.08,2.27,1.32,4.9,2.07,7.72,2.08Z"/>
        <path d="M108.18,93.52s0,.08,0,.11c0,.04,0,.08,0,.12-2.81,0-5.45.76-7.71,2.08-2.27-1.32-4.91-2.07-7.72-2.08,0-.04,0-.08,0-.12,0-.04,0-.08,0-.11,2.81,0,5.45-.76,7.72-2.08,2.26,1.32,4.9,2.07,7.71,2.08Z"/>
        <path d="M108.22,93.76c.02,2.79.78,5.42,2.1,7.67-1.32,2.25-2.09,4.87-2.1,7.67h-.04c-.02-2.79-.78-5.41-2.1-7.67,1.32-2.25,2.09-4.88,2.1-7.67h.04Z"/>
        <path d="M108.22,78.18c.02,2.79.78,5.42,2.1,7.67-1.32,2.25-2.09,4.88-2.1,7.67h-.04c-.02-2.79-.78-5.42-2.1-7.67,1.32-2.25,2.09-4.88,2.1-7.67h.04Z"/>
      </g>
      <g>
        <path d="M123.66,108.99s0,.08,0,.11c0,.04,0,.08,0,.12-2.82,0-5.45.76-7.72,2.08-2.27-1.32-4.9-2.07-7.72-2.08,0-.04,0-.08,0-.12,0-.04,0-.08,0-.11,2.82,0,5.45-.76,7.72-2.08,2.27,1.32,4.9,2.07,7.72,2.08Z"/>
        <path d="M108.18,108.99s0,.08,0,.11c0,.04,0,.08,0,.12-2.81,0-5.45.76-7.71,2.08-2.27-1.32-4.91-2.07-7.72-2.08,0-.04,0-.08,0-.12,0-.04,0-.08,0-.11,2.81,0,5.45-.76,7.72-2.08,2.26,1.32,4.9,2.07,7.71,2.08Z"/>
        <path d="M108.22,109.23c.02,2.79.78,5.42,2.1,7.67-1.32,2.25-2.09,4.87-2.1,7.67h-.04c-.02-2.79-.78-5.41-2.1-7.67,1.32-2.25,2.09-4.88,2.1-7.67h.04Z"/>
        <path d="M108.22,93.65c.02,2.79.78,5.42,2.1,7.67-1.32,2.25-2.09,4.88-2.1,7.67h-.04c-.02-2.79-.78-5.42-2.1-7.67,1.32-2.25,2.09-4.88,2.1-7.67h.04Z"/>
      </g>
    </g>
  </g>
</svg>