<?xml version="1.0" encoding="UTF-8"?>
<svg id="_레이어_2" data-name="레이어 2" xmlns="http://www.w3.org/2000/svg" viewBox="0 0 108.29 124.53">
  <g id="_레이어_1-2" data-name="레이어 1">
    <g>
      <g>
        <path d="M30.91,46.68s0,.08,0,.11c0,.04,0,.08,0,.12-2.82,0-5.45.76-7.72,2.08-2.27-1.32-4.9-2.07-7.72-2.08,0-.04,0-.08,0-.12,0-.04,0-.08,0-.11,2.82,0,5.45-.76,7.72-2.08,2.27,1.32,4.9,2.07,7.72,2.08Z"/>
        <path d="M15.44,46.68s0,.08,0,.11c0,.04,0,.08,0,.12-2.81,0-5.45.76-7.71,2.08-2.27-1.32-4.91-2.07-7.72-2.08,0-.04,0-.08,0-.12,0-.04,0-.08,0-.11,2.81,0,5.45-.76,7.72-2.08,2.26,1.32,4.9,2.07,7.71,2.08Z"/>
        <path d="M15.47,46.92c.02,2.79.78,5.42,2.1,7.67-1.32,2.25-2.09,4.87-2.1,7.67h-.04c-.02-2.79-.78-5.41-2.1-7.67,1.32-2.25,2.09-4.88,2.1-7.67h.04Z"/>
        <path d="M15.47,31.34c.02,2.79.78,5.42,2.1,7.67-1.32,2.25-2.09,4.88-2.1,7.67h-.04c-.02-2.79-.78-5.42-2.1-7.67,1.32-2.25,2.09-4.88,2.1-7.67h.04Z"/>
      </g>
      <g>
        <path d="M30.91,31.21s0,.08,0,.11c0,.04,0,.08,0,.12-2.82,0-5.45.76-7.72,2.08-2.27-1.32-4.9-2.07-7.72-2.08,0-.04,0-.08,0-.12,0-.04,0-.08,0-.11,2.82,0,5.45-.76,7.72-2.08,2.27,1.32,4.9,2.07,7.72,2.08Z"/>
        <path d="M15.44,31.21s0,.08,0,.11c0,.04,0,.08,0,.12-2.81,0-5.45.76-7.71,2.08-2.27-1.32-4.91-2.07-7.72-2.08,0-.04,0-.08,0-.12,0-.04,0-.08,0-.11,2.81,0,5.45-.76,7.72-2.08,2.26,1.32,4.9,2.07,7.71,2.08Z"/>
        <path d="M15.47,31.45c.02,2.79.78,5.42,2.1,7.67-1.32,2.25-2.09,4.87-2.1,7.67h-.04c-.02-2.79-.78-5.41-2.1-7.67,1.32-2.25,2.09-4.88,2.1-7.67h.04Z"/>
        <path d="M15.47,15.87c.02,2.79.78,5.42,2.1,7.67-1.32,2.25-2.09,4.88-2.1,7.67h-.04c-.02-2.79-.78-5.42-2.1-7.67,1.32-2.25,2.09-4.88,2.1-7.67h.04Z"/>
      </g>
      <g>
        <path d="M30.91,62.26s0,.08,0,.11c0,.04,0,.08,0,.12-2.82,0-5.45.76-7.72,2.08-2.27-1.32-4.9-2.07-7.72-2.08,0-.04,0-.08,0-.12,0-.04,0-.08,0-.11,2.82,0,5.45-.76,7.72-2.08,2.27,1.32,4.9,2.07,7.72,2.08Z"/>
        <path d="M15.44,62.26s0,.08,0,.11c0,.04,0,.08,0,.12-2.81,0-5.45.76-7.71,2.08-2.27-1.32-4.91-2.07-7.72-2.08,0-.04,0-.08,0-.12,0-.04,0-.08,0-.11,2.81,0,5.45-.76,7.72-2.08,2.26,1.32,4.9,2.07,7.71,2.08Z"/>
        <path d="M15.47,62.5c.02,2.79.78,5.42,2.1,7.67-1.32,2.25-2.09,4.87-2.1,7.67h-.04c-.02-2.79-.78-5.41-2.1-7.67,1.32-2.25,2.09-4.88,2.1-7.67h.04Z"/>
        <path d="M15.47,46.92c.02,2.79.78,5.42,2.1,7.67-1.32,2.25-2.09,4.88-2.1,7.67h-.04c-.02-2.79-.78-5.42-2.1-7.67,1.32-2.25,2.09-4.88,2.1-7.67h.04Z"/>
      </g>
      <g>
        <path d="M30.91,77.96s0,.08,0,.11c0,.04,0,.08,0,.12-2.82,0-5.45.76-7.72,2.08-2.27-1.32-4.9-2.07-7.72-2.08,0-.04,0-.08,0-.12,0-.04,0-.08,0-.11,2.82,0,5.45-.76,7.72-2.08,2.27,1.32,4.9,2.07,7.72,2.08Z"/>
        <path d="M15.44,77.96s0,.08,0,.11c0,.04,0,.08,0,.12-2.81,0-5.45.76-7.71,2.08-2.27-1.32-4.91-2.07-7.72-2.08,0-.04,0-.08,0-.12,0-.04,0-.08,0-.11,2.81,0,5.45-.76,7.72-2.08,2.26,1.32,4.9,2.07,7.71,2.08Z"/>
        <path d="M15.47,78.2c.02,2.79.78,5.42,2.1,7.67-1.32,2.25-2.09,4.87-2.1,7.67h-.04c-.02-2.79-.78-5.41-2.1-7.67,1.32-2.25,2.09-4.88,2.1-7.67h.04Z"/>
        <path d="M15.47,62.62c.02,2.79.78,5.42,2.1,7.67-1.32,2.25-2.09,4.88-2.1,7.67h-.04c-.02-2.79-.78-5.42-2.1-7.67,1.32-2.25,2.09-4.88,2.1-7.67h.04Z"/>
      </g>
      <g>
        <path d="M30.91,93.58s0,.08,0,.11c0,.04,0,.08,0,.12-2.82,0-5.45.76-7.72,2.08-2.27-1.32-4.9-2.07-7.72-2.08,0-.04,0-.08,0-.12,0-.04,0-.08,0-.11,2.82,0,5.45-.76,7.72-2.08,2.27,1.32,4.9,2.07,7.72,2.08Z"/>
        <path d="M15.44,93.58s0,.08,0,.11c0,.04,0,.08,0,.12-2.81,0-5.45.76-7.71,2.08-2.27-1.32-4.91-2.07-7.72-2.08,0-.04,0-.08,0-.12,0-.04,0-.08,0-.11,2.81,0,5.45-.76,7.72-2.08,2.26,1.32,4.9,2.07,7.71,2.08Z"/>
        <path d="M15.47,93.82c.02,2.79.78,5.42,2.1,7.67-1.32,2.25-2.09,4.87-2.1,7.67h-.04c-.02-2.79-.78-5.41-2.1-7.67,1.32-2.25,2.09-4.88,2.1-7.67h.04Z"/>
        <path d="M15.47,78.24c.02,2.79.78,5.42,2.1,7.67-1.32,2.25-2.09,4.88-2.1,7.67h-.04c-.02-2.79-.78-5.42-2.1-7.67,1.32-2.25,2.09-4.88,2.1-7.67h.04Z"/>
      </g>
      <g>
        <path d="M46.37,108.95s0,.08,0,.11c0,.04,0,.08,0,.12-2.82,0-5.45.76-7.72,2.08-2.27-1.32-4.9-2.07-7.72-2.08,0-.04,0-.08,0-.12,0-.04,0-.08,0-.11,2.82,0,5.45-.76,7.72-2.08,2.27,1.32,4.9,2.07,7.72,2.08Z"/>
        <path d="M30.89,108.95s0,.08,0,.11c0,.04,0,.08,0,.12-2.81,0-5.45.76-7.71,2.08-2.27-1.32-4.91-2.07-7.72-2.08,0-.04,0-.08,0-.12,0-.04,0-.08,0-.11,2.81,0,5.45-.76,7.72-2.08,2.26,1.32,4.9,2.07,7.71,2.08Z"/>
        <path d="M30.93,109.19c.02,2.79.78,5.42,2.1,7.67-1.32,2.25-2.09,4.87-2.1,7.67h-.04c-.02-2.79-.78-5.41-2.1-7.67,1.32-2.25,2.09-4.88,2.1-7.67h.04Z"/>
        <path d="M30.93,93.61c.02,2.79.78,5.42,2.1,7.67-1.32,2.25-2.09,4.88-2.1,7.67h-.04c-.02-2.79-.78-5.42-2.1-7.67,1.32-2.25,2.09-4.88,2.1-7.67h.04Z"/>
      </g>
      <g>
        <path d="M61.87,108.95s0,.08,0,.11c0,.04,0,.08,0,.12-2.82,0-5.45.76-7.72,2.08-2.27-1.32-4.9-2.07-7.72-2.08,0-.04,0-.08,0-.12,0-.04,0-.08,0-.11,2.82,0,5.45-.76,7.72-2.08,2.27,1.32,4.9,2.07,7.72,2.08Z"/>
        <path d="M46.39,108.95s0,.08,0,.11c0,.04,0,.08,0,.12-2.81,0-5.45.76-7.71,2.08-2.27-1.32-4.91-2.07-7.72-2.08,0-.04,0-.08,0-.12,0-.04,0-.08,0-.11,2.81,0,5.45-.76,7.72-2.08,2.26,1.32,4.9,2.07,7.71,2.08Z"/>
        <path d="M46.43,109.19c.02,2.79.78,5.42,2.1,7.67-1.32,2.25-2.09,4.87-2.1,7.67h-.04c-.02-2.79-.78-5.41-2.1-7.67,1.32-2.25,2.09-4.88,2.1-7.67h.04Z"/>
        <path d="M46.43,93.61c.02,2.79.78,5.42,2.1,7.67-1.32,2.25-2.09,4.88-2.1,7.67h-.04c-.02-2.79-.78-5.42-2.1-7.67,1.32-2.25,2.09-4.88,2.1-7.67h.04Z"/>
      </g>
      <g>
        <path d="M77.33,108.95s0,.08,0,.11c0,.04,0,.08,0,.12-2.82,0-5.45.76-7.72,2.08-2.27-1.32-4.9-2.07-7.72-2.08,0-.04,0-.08,0-.12,0-.04,0-.08,0-.11,2.82,0,5.45-.76,7.72-2.08,2.27,1.32,4.9,2.07,7.72,2.08Z"/>
        <path d="M61.85,108.95s0,.08,0,.11c0,.04,0,.08,0,.12-2.81,0-5.45.76-7.71,2.08-2.27-1.32-4.91-2.07-7.72-2.08,0-.04,0-.08,0-.12,0-.04,0-.08,0-.11,2.81,0,5.45-.76,7.72-2.08,2.26,1.32,4.9,2.07,7.71,2.08Z"/>
        <path d="M61.89,109.19c.02,2.79.78,5.42,2.1,7.67-1.32,2.25-2.09,4.87-2.1,7.67h-.04c-.02-2.79-.78-5.41-2.1-7.67,1.32-2.25,2.09-4.88,2.1-7.67h.04Z"/>
        <path d="M61.89,93.61c.02,2.79.78,5.42,2.1,7.67-1.32,2.25-2.09,4.88-2.1,7.67h-.04c-.02-2.79-.78-5.42-2.1-7.67,1.32-2.25,2.09-4.88,2.1-7.67h.04Z"/>
      </g>
      <g>
        <path d="M92.79,108.95s0,.08,0,.11c0,.04,0,.08,0,.12-2.82,0-5.45.76-7.72,2.08-2.27-1.32-4.9-2.07-7.72-2.08,0-.04,0-.08,0-.12,0-.04,0-.08,0-.11,2.82,0,5.45-.76,7.72-2.08,2.27,1.32,4.9,2.07,7.72,2.08Z"/>
        <path d="M77.31,108.95s0,.08,0,.11c0,.04,0,.08,0,.12-2.81,0-5.45.76-7.71,2.08-2.27-1.32-4.91-2.07-7.72-2.08,0-.04,0-.08,0-.12,0-.04,0-.08,0-.11,2.81,0,5.45-.76,7.72-2.08,2.26,1.32,4.9,2.07,7.71,2.08Z"/>
        <path d="M77.35,109.19c.02,2.79.78,5.42,2.1,7.67-1.32,2.25-2.09,4.87-2.1,7.67h-.04c-.02-2.79-.78-5.41-2.1-7.67,1.32-2.25,2.09-4.88,2.1-7.67h.04Z"/>
        <path d="M77.35,93.61c.02,2.79.78,5.42,2.1,7.67-1.32,2.25-2.09,4.88-2.1,7.67h-.04c-.02-2.79-.78-5.42-2.1-7.67,1.32-2.25,2.09-4.88,2.1-7.67h.04Z"/>
      </g>
      <g>
        <path d="M46.37,15.34s0,.08,0,.11c0,.04,0,.08,0,.12-2.82,0-5.45.76-7.72,2.08-2.27-1.32-4.9-2.07-7.72-2.08,0-.04,0-.08,0-.12,0-.04,0-.08,0-.11,2.82,0,5.45-.76,7.72-2.08,2.27,1.32,4.9,2.07,7.72,2.08Z"/>
        <path d="M30.89,15.34s0,.08,0,.11c0,.04,0,.08,0,.12-2.81,0-5.45.76-7.71,2.08-2.27-1.32-4.91-2.07-7.72-2.08,0-.04,0-.08,0-.12,0-.04,0-.08,0-.11,2.81,0,5.45-.76,7.72-2.08,2.26,1.32,4.9,2.07,7.71,2.08Z"/>
        <path d="M30.93,15.58c.02,2.79.78,5.42,2.1,7.67-1.32,2.25-2.09,4.87-2.1,7.67h-.04c-.02-2.79-.78-5.41-2.1-7.67,1.32-2.25,2.09-4.88,2.1-7.67h.04Z"/>
        <path d="M30.93,0c.02,2.79.78,5.42,2.1,7.67-1.32,2.25-2.09,4.88-2.1,7.67h-.04c-.02-2.79-.78-5.42-2.1-7.67,1.32-2.25,2.09-4.88,2.1-7.67h.04Z"/>
      </g>
      <g>
        <path d="M61.87,15.34s0,.08,0,.11c0,.04,0,.08,0,.12-2.82,0-5.45.76-7.72,2.08-2.27-1.32-4.9-2.07-7.72-2.08,0-.04,0-.08,0-.12,0-.04,0-.08,0-.11,2.82,0,5.45-.76,7.72-2.08,2.27,1.32,4.9,2.07,7.72,2.08Z"/>
        <path d="M46.39,15.34s0,.08,0,.11c0,.04,0,.08,0,.12-2.81,0-5.45.76-7.71,2.08-2.27-1.32-4.91-2.07-7.72-2.08,0-.04,0-.08,0-.12,0-.04,0-.08,0-.11,2.81,0,5.45-.76,7.72-2.08,2.26,1.32,4.9,2.07,7.71,2.08Z"/>
        <path d="M46.43,15.58c.02,2.79.78,5.42,2.1,7.67-1.32,2.25-2.09,4.87-2.1,7.67h-.04c-.02-2.79-.78-5.41-2.1-7.67,1.32-2.25,2.09-4.88,2.1-7.67h.04Z"/>
        <path d="M46.43,0c.02,2.79.78,5.42,2.1,7.67-1.32,2.25-2.09,4.88-2.1,7.67h-.04c-.02-2.79-.78-5.42-2.1-7.67,1.32-2.25,2.09-4.88,2.1-7.67h.04Z"/>
      </g>
      <g>
        <path d="M77.33,15.34s0,.08,0,.11c0,.04,0,.08,0,.12-2.82,0-5.45.76-7.72,2.08-2.27-1.32-4.9-2.07-7.72-2.08,0-.04,0-.08,0-.12,0-.04,0-.08,0-.11,2.82,0,5.45-.76,7.72-2.08,2.27,1.32,4.9,2.07,7.72,2.08Z"/>
        <path d="M61.85,15.34s0,.08,0,.11c0,.04,0,.08,0,.12-2.81,0-5.45.76-7.71,2.08-2.27-1.32-4.91-2.07-7.72-2.08,0-.04,0-.08,0-.12,0-.04,0-.08,0-.11,2.81,0,5.45-.76,7.72-2.08,2.26,1.32,4.9,2.07,7.71,2.08Z"/>
        <path d="M61.89,15.58c.02,2.79.78,5.42,2.1,7.67-1.32,2.25-2.09,4.87-2.1,7.67h-.04c-.02-2.79-.78-5.41-2.1-7.67,1.32-2.25,2.09-4.88,2.1-7.67h.04Z"/>
        <path d="M61.89,0c.02,2.79.78,5.42,2.1,7.67-1.32,2.25-2.09,4.88-2.1,7.67h-.04c-.02-2.79-.78-5.42-2.1-7.67,1.32-2.25,2.09-4.88,2.1-7.67h.04Z"/>
      </g>
      <g>
        <path d="M92.79,15.34s0,.08,0,.11c0,.04,0,.08,0,.12-2.82,0-5.45.76-7.72,2.08-2.27-1.32-4.9-2.07-7.72-2.08,0-.04,0-.08,0-.12,0-.04,0-.08,0-.11,2.82,0,5.45-.76,7.72-2.08,2.27,1.32,4.9,2.07,7.72,2.08Z"/>
        <path d="M77.31,15.34s0,.08,0,.11c0,.04,0,.08,0,.12-2.81,0-5.45.76-7.71,2.08-2.27-1.32-4.91-2.07-7.72-2.08,0-.04,0-.08,0-.12,0-.04,0-.08,0-.11,2.81,0,5.45-.76,7.72-2.08,2.26,1.32,4.9,2.07,7.71,2.08Z"/>
        <path d="M77.35,15.58c.02,2.79.78,5.42,2.1,7.67-1.32,2.25-2.09,4.87-2.1,7.67h-.04c-.02-2.79-.78-5.41-2.1-7.67,1.32-2.25,2.09-4.88,2.1-7.67h.04Z"/>
        <path d="M77.35,0c.02,2.79.78,5.42,2.1,7.67-1.32,2.25-2.09,4.88-2.1,7.67h-.04c-.02-2.79-.78-5.42-2.1-7.67,1.32-2.25,2.09-4.88,2.1-7.67h.04Z"/>
      </g>
      <g>
        <path d="M108.28,46.68s0,.08,0,.11c0,.04,0,.08,0,.12-2.82,0-5.45.76-7.72,2.08-2.27-1.32-4.9-2.07-7.72-2.08,0-.04,0-.08,0-.12,0-.04,0-.08,0-.11,2.82,0,5.45-.76,7.72-2.08,2.27,1.32,4.9,2.07,7.72,2.08Z"/>
        <path d="M92.81,46.68s0,.08,0,.11c0,.04,0,.08,0,.12-2.81,0-5.45.76-7.71,2.08-2.27-1.32-4.91-2.07-7.72-2.08,0-.04,0-.08,0-.12,0-.04,0-.08,0-.11,2.81,0,5.45-.76,7.72-2.08,2.26,1.32,4.9,2.07,7.71,2.08Z"/>
        <path d="M92.84,46.92c.02,2.79.78,5.42,2.1,7.67-1.32,2.25-2.09,4.87-2.1,7.67h-.04c-.02-2.79-.78-5.41-2.1-7.67,1.32-2.25,2.09-4.88,2.1-7.67h.04Z"/>
        <path d="M92.84,31.34c.02,2.79.78,5.42,2.1,7.67-1.32,2.25-2.09,4.88-2.1,7.67h-.04c-.02-2.79-.78-5.42-2.1-7.67,1.32-2.25,2.09-4.88,2.1-7.67h.04Z"/>
      </g>
      <g>
        <path d="M108.28,31.21s0,.08,0,.11c0,.04,0,.08,0,.12-2.82,0-5.45.76-7.72,2.08-2.27-1.32-4.9-2.07-7.72-2.08,0-.04,0-.08,0-.12,0-.04,0-.08,0-.11,2.82,0,5.45-.76,7.72-2.08,2.27,1.32,4.9,2.07,7.72,2.08Z"/>
        <path d="M92.81,31.21s0,.08,0,.11c0,.04,0,.08,0,.12-2.81,0-5.45.76-7.71,2.08-2.27-1.32-4.91-2.07-7.72-2.08,0-.04,0-.08,0-.12,0-.04,0-.08,0-.11,2.81,0,5.45-.76,7.72-2.08,2.26,1.32,4.9,2.07,7.71,2.08Z"/>
        <path d="M92.84,31.45c.02,2.79.78,5.42,2.1,7.67-1.32,2.25-2.09,4.87-2.1,7.67h-.04c-.02-2.79-.78-5.41-2.1-7.67,1.32-2.25,2.09-4.88,2.1-7.67h.04Z"/>
        <path d="M92.84,15.87c.02,2.79.78,5.42,2.1,7.67-1.32,2.25-2.09,4.88-2.1,7.67h-.04c-.02-2.79-.78-5.42-2.1-7.67,1.32-2.25,2.09-4.88,2.1-7.67h.04Z"/>
      </g>
      <g>
        <path d="M108.28,62.26s0,.08,0,.11c0,.04,0,.08,0,.12-2.82,0-5.45.76-7.72,2.08-2.27-1.32-4.9-2.07-7.72-2.08,0-.04,0-.08,0-.12,0-.04,0-.08,0-.11,2.82,0,5.45-.76,7.72-2.08,2.27,1.32,4.9,2.07,7.72,2.08Z"/>
        <path d="M92.81,62.26s0,.08,0,.11c0,.04,0,.08,0,.12-2.81,0-5.45.76-7.71,2.08-2.27-1.32-4.91-2.07-7.72-2.08,0-.04,0-.08,0-.12,0-.04,0-.08,0-.11,2.81,0,5.45-.76,7.72-2.08,2.26,1.32,4.9,2.07,7.71,2.08Z"/>
        <path d="M92.84,62.5c.02,2.79.78,5.42,2.1,7.67-1.32,2.25-2.09,4.87-2.1,7.67h-.04c-.02-2.79-.78-5.41-2.1-7.67,1.32-2.25,2.09-4.88,2.1-7.67h.04Z"/>
        <path d="M92.84,46.92c.02,2.79.78,5.42,2.1,7.67-1.32,2.25-2.09,4.88-2.1,7.67h-.04c-.02-2.79-.78-5.42-2.1-7.67,1.32-2.25,2.09-4.88,2.1-7.67h.04Z"/>
      </g>
      <g>
        <path d="M108.28,77.96s0,.08,0,.11c0,.04,0,.08,0,.12-2.82,0-5.45.76-7.72,2.08-2.27-1.32-4.9-2.07-7.72-2.08,0-.04,0-.08,0-.12,0-.04,0-.08,0-.11,2.82,0,5.45-.76,7.72-2.08,2.27,1.32,4.9,2.07,7.72,2.08Z"/>
        <path d="M92.81,77.96s0,.08,0,.11c0,.04,0,.08,0,.12-2.81,0-5.45.76-7.71,2.08-2.27-1.32-4.91-2.07-7.72-2.08,0-.04,0-.08,0-.12,0-.04,0-.08,0-.11,2.81,0,5.45-.76,7.72-2.08,2.26,1.32,4.9,2.07,7.71,2.08Z"/>
        <path d="M92.84,78.2c.02,2.79.78,5.42,2.1,7.67-1.32,2.25-2.09,4.87-2.1,7.67h-.04c-.02-2.79-.78-5.41-2.1-7.67,1.32-2.25,2.09-4.88,2.1-7.67h.04Z"/>
        <path d="M92.84,62.62c.02,2.79.78,5.42,2.1,7.67-1.32,2.25-2.09,4.88-2.1,7.67h-.04c-.02-2.79-.78-5.42-2.1-7.67,1.32-2.25,2.09-4.88,2.1-7.67h.04Z"/>
      </g>
      <g>
        <path d="M92.83,93.42s0,.08,0,.11c0,.04,0,.08,0,.12-2.82,0-5.45.76-7.72,2.08-2.27-1.32-4.9-2.07-7.72-2.08,0-.04,0-.08,0-.12,0-.04,0-.08,0-.11,2.82,0,5.45-.76,7.72-2.08,2.27,1.32,4.9,2.07,7.72,2.08Z"/>
        <path d="M77.35,93.42s0,.08,0,.11c0,.04,0,.08,0,.12-2.81,0-5.45.76-7.71,2.08-2.27-1.32-4.91-2.07-7.72-2.08,0-.04,0-.08,0-.12,0-.04,0-.08,0-.11,2.81,0,5.45-.76,7.72-2.08,2.26,1.32,4.9,2.07,7.71,2.08Z"/>
        <path d="M77.39,93.66c.02,2.79.78,5.42,2.1,7.67-1.32,2.25-2.09,4.87-2.1,7.67h-.04c-.02-2.79-.78-5.41-2.1-7.67,1.32-2.25,2.09-4.88,2.1-7.67h.04Z"/>
        <path d="M77.39,78.08c.02,2.79.78,5.42,2.1,7.67-1.32,2.25-2.09,4.88-2.1,7.67h-.04c-.02-2.79-.78-5.42-2.1-7.67,1.32-2.25,2.09-4.88,2.1-7.67h.04Z"/>
      </g>
      <g>
        <path d="M108.21,108.96s0,.08,0,.11c0,.04,0,.08,0,.12-2.82,0-5.45.76-7.72,2.08-2.27-1.32-4.9-2.07-7.72-2.08,0-.04,0-.08,0-.12,0-.04,0-.08,0-.11,2.82,0,5.45-.76,7.72-2.08,2.27,1.32,4.9,2.07,7.72,2.08Z"/>
        <path d="M92.74,108.96s0,.08,0,.11c0,.04,0,.08,0,.12-2.81,0-5.45.76-7.71,2.08-2.27-1.32-4.91-2.07-7.72-2.08,0-.04,0-.08,0-.12,0-.04,0-.08,0-.11,2.81,0,5.45-.76,7.72-2.08,2.26,1.32,4.9,2.07,7.71,2.08Z"/>
        <path d="M92.77,109.19c.02,2.79.78,5.42,2.1,7.67-1.32,2.25-2.09,4.87-2.1,7.67h-.04c-.02-2.79-.78-5.41-2.1-7.67,1.32-2.25,2.09-4.88,2.1-7.67h.04Z"/>
        <path d="M92.77,93.61c.02,2.79.78,5.42,2.1,7.67-1.32,2.25-2.09,4.88-2.1,7.67h-.04c-.02-2.79-.78-5.42-2.1-7.67,1.32-2.25,2.09-4.88,2.1-7.67h.04Z"/>
      </g>
    </g>
  </g>
</svg>