<?xml version="1.0" encoding="UTF-8"?>
<svg id="_레이어_2" data-name="레이어 2" xmlns="http://www.w3.org/2000/svg" viewBox="0 0 123.82 124.45">
  <g id="_레이어_1-2" data-name="레이어 1">
    <g>
      <g>
        <path d="M30.91,15.38s0,.08,0,.11c0,.04,0,.08,0,.12-2.82,0-5.45.76-7.72,2.08-2.27-1.32-4.9-2.07-7.72-2.08,0-.04,0-.08,0-.12,0-.04,0-.08,0-.11,2.82,0,5.45-.76,7.72-2.08,2.27,1.32,4.9,2.07,7.72,2.08Z"/>
        <path d="M15.44,15.38s0,.08,0,.11c0,.04,0,.08,0,.12-2.81,0-5.45.76-7.71,2.08C5.45,16.37,2.82,15.62,0,15.62c0-.04,0-.08,0-.12,0-.04,0-.08,0-.11,2.81,0,5.45-.76,7.72-2.08,2.26,1.32,4.9,2.07,7.71,2.08Z"/>
        <path d="M15.47,15.62c.02,2.79.78,5.42,2.1,7.67-1.32,2.25-2.09,4.87-2.1,7.67h-.04c-.02-2.79-.78-5.41-2.1-7.67,1.32-2.25,2.09-4.88,2.1-7.67h.04Z"/>
        <path d="M15.47.04c.02,2.79.78,5.42,2.1,7.67-1.32,2.25-2.09,4.88-2.1,7.67h-.04c-.02-2.79-.78-5.42-2.1-7.67,1.32-2.25,2.09-4.88,2.1-7.67h.04Z"/>
      </g>
      <g>
        <path d="M46.42,15.34s0,.08,0,.11c0,.04,0,.08,0,.12-2.82,0-5.45.76-7.72,2.08-2.27-1.32-4.9-2.07-7.72-2.08,0-.04,0-.08,0-.12,0-.04,0-.08,0-.11,2.82,0,5.45-.76,7.72-2.08,2.27,1.32,4.9,2.07,7.72,2.08Z"/>
        <path d="M30.95,15.34s0,.08,0,.11c0,.04,0,.08,0,.12-2.81,0-5.45.76-7.71,2.08-2.27-1.32-4.91-2.07-7.72-2.08,0-.04,0-.08,0-.12,0-.04,0-.08,0-.11,2.81,0,5.45-.76,7.72-2.08,2.26,1.32,4.9,2.07,7.71,2.08Z"/>
        <path d="M30.99,15.58c.02,2.79.78,5.42,2.1,7.67-1.32,2.25-2.09,4.87-2.1,7.67h-.04c-.02-2.79-.78-5.41-2.1-7.67,1.32-2.25,2.09-4.88,2.1-7.67h.04Z"/>
        <path d="M30.99,0c.02,2.79.78,5.42,2.1,7.67-1.32,2.25-2.09,4.88-2.1,7.67h-.04c-.02-2.79-.78-5.42-2.1-7.67,1.32-2.25,2.09-4.88,2.1-7.67h.04Z"/>
      </g>
      <g>
        <path d="M108.3,15.38s0,.08,0,.11c0,.04,0,.08,0,.12-2.82,0-5.45.76-7.72,2.08-2.27-1.32-4.9-2.07-7.72-2.08,0-.04,0-.08,0-.12,0-.04,0-.08,0-.11,2.82,0,5.45-.76,7.72-2.08,2.27,1.32,4.9,2.07,7.72,2.08Z"/>
        <path d="M92.83,15.38s0,.08,0,.11c0,.04,0,.08,0,.12-2.81,0-5.45.76-7.71,2.08-2.27-1.32-4.91-2.07-7.72-2.08,0-.04,0-.08,0-.12,0-.04,0-.08,0-.11,2.81,0,5.45-.76,7.72-2.08,2.26,1.32,4.9,2.07,7.71,2.08Z"/>
        <path d="M92.86,15.62c.02,2.79.78,5.42,2.1,7.67-1.32,2.25-2.09,4.87-2.1,7.67h-.04c-.02-2.79-.78-5.41-2.1-7.67,1.32-2.25,2.09-4.88,2.1-7.67h.04Z"/>
        <path d="M92.86.04c.02,2.79.78,5.42,2.1,7.67-1.32,2.25-2.09,4.88-2.1,7.67h-.04c-.02-2.79-.78-5.42-2.1-7.67,1.32-2.25,2.09-4.88,2.1-7.67h.04Z"/>
      </g>
      <g>
        <path d="M123.81,15.34s0,.08,0,.11c0,.04,0,.08,0,.12-2.82,0-5.45.76-7.72,2.08-2.27-1.32-4.9-2.07-7.72-2.08,0-.04,0-.08,0-.12,0-.04,0-.08,0-.11,2.82,0,5.45-.76,7.72-2.08,2.27,1.32,4.9,2.07,7.72,2.08Z"/>
        <path d="M108.34,15.34s0,.08,0,.11c0,.04,0,.08,0,.12-2.81,0-5.45.76-7.71,2.08-2.27-1.32-4.91-2.07-7.72-2.08,0-.04,0-.08,0-.12,0-.04,0-.08,0-.11,2.81,0,5.45-.76,7.72-2.08,2.26,1.32,4.9,2.07,7.71,2.08Z"/>
        <path d="M108.37,15.58c.02,2.79.78,5.42,2.1,7.67-1.32,2.25-2.09,4.87-2.1,7.67h-.04c-.02-2.79-.78-5.41-2.1-7.67,1.32-2.25,2.09-4.88,2.1-7.67h.04Z"/>
        <path d="M108.37,0c.02,2.79.78,5.42,2.1,7.67-1.32,2.25-2.09,4.88-2.1,7.67h-.04c-.02-2.79-.78-5.42-2.1-7.67,1.32-2.25,2.09-4.88,2.1-7.67h.04Z"/>
      </g>
      <g>
        <path d="M77.37,15.46s0,.08,0,.11c0,.04,0,.08,0,.12-2.82,0-5.45.76-7.72,2.08-2.27-1.32-4.9-2.07-7.72-2.08,0-.04,0-.08,0-.12,0-.04,0-.08,0-.11,2.82,0,5.45-.76,7.72-2.08,2.27,1.32,4.9,2.07,7.72,2.08Z"/>
        <path d="M61.89,15.46s0,.08,0,.11c0,.04,0,.08,0,.12-2.81,0-5.45.76-7.71,2.08-2.27-1.32-4.91-2.07-7.72-2.08,0-.04,0-.08,0-.12,0-.04,0-.08,0-.11,2.81,0,5.45-.76,7.72-2.08,2.26,1.32,4.9,2.07,7.71,2.08Z"/>
        <path d="M61.93,15.69c.02,2.79.78,5.42,2.1,7.67-1.32,2.25-2.09,4.87-2.1,7.67h-.04c-.02-2.79-.78-5.41-2.1-7.67,1.32-2.25,2.09-4.88,2.1-7.67h.04Z"/>
        <path d="M61.93.11c.02,2.79.78,5.42,2.1,7.67-1.32,2.25-2.09,4.88-2.1,7.67h-.04c-.02-2.79-.78-5.42-2.1-7.67,1.32-2.25,2.09-4.88,2.1-7.67h.04Z"/>
      </g>
      <g>
        <path d="M77.37,46.5s0,.08,0,.11c0,.04,0,.08,0,.12-2.82,0-5.45.76-7.72,2.08-2.27-1.32-4.9-2.07-7.72-2.08,0-.04,0-.08,0-.12,0-.04,0-.08,0-.11,2.82,0,5.45-.76,7.72-2.08,2.27,1.32,4.9,2.07,7.72,2.08Z"/>
        <path d="M61.89,46.5s0,.08,0,.11c0,.04,0,.08,0,.12-2.81,0-5.45.76-7.71,2.08-2.27-1.32-4.91-2.07-7.72-2.08,0-.04,0-.08,0-.12,0-.04,0-.08,0-.11,2.81,0,5.45-.76,7.72-2.08,2.26,1.32,4.9,2.07,7.71,2.08Z"/>
        <path d="M61.93,46.74c.02,2.79.78,5.42,2.1,7.67-1.32,2.25-2.09,4.87-2.1,7.67h-.04c-.02-2.79-.78-5.41-2.1-7.67,1.32-2.25,2.09-4.88,2.1-7.67h.04Z"/>
        <path d="M61.93,31.16c.02,2.79.78,5.42,2.1,7.67-1.32,2.25-2.09,4.88-2.1,7.67h-.04c-.02-2.79-.78-5.42-2.1-7.67,1.32-2.25,2.09-4.88,2.1-7.67h.04Z"/>
      </g>
      <g>
        <path d="M77.37,31.03s0,.08,0,.11c0,.04,0,.08,0,.12-2.82,0-5.45.76-7.72,2.08-2.27-1.32-4.9-2.07-7.72-2.08,0-.04,0-.08,0-.12,0-.04,0-.08,0-.11,2.82,0,5.45-.76,7.72-2.08,2.27,1.32,4.9,2.07,7.72,2.08Z"/>
        <path d="M61.89,31.03s0,.08,0,.11c0,.04,0,.08,0,.12-2.81,0-5.45.76-7.71,2.08-2.27-1.32-4.91-2.07-7.72-2.08,0-.04,0-.08,0-.12,0-.04,0-.08,0-.11,2.81,0,5.45-.76,7.72-2.08,2.26,1.32,4.9,2.07,7.71,2.08Z"/>
        <path d="M61.93,31.27c.02,2.79.78,5.42,2.1,7.67-1.32,2.25-2.09,4.87-2.1,7.67h-.04c-.02-2.79-.78-5.41-2.1-7.67,1.32-2.25,2.09-4.88,2.1-7.67h.04Z"/>
        <path d="M61.93,15.69c.02,2.79.78,5.42,2.1,7.67-1.32,2.25-2.09,4.88-2.1,7.67h-.04c-.02-2.79-.78-5.42-2.1-7.67,1.32-2.25,2.09-4.88,2.1-7.67h.04Z"/>
      </g>
      <g>
        <path d="M77.37,62.08s0,.08,0,.11c0,.04,0,.08,0,.12-2.82,0-5.45.76-7.72,2.08-2.27-1.32-4.9-2.07-7.72-2.08,0-.04,0-.08,0-.12,0-.04,0-.08,0-.11,2.82,0,5.45-.76,7.72-2.08,2.27,1.32,4.9,2.07,7.72,2.08Z"/>
        <path d="M61.89,62.08s0,.08,0,.11c0,.04,0,.08,0,.12-2.81,0-5.45.76-7.71,2.08-2.27-1.32-4.91-2.07-7.72-2.08,0-.04,0-.08,0-.12,0-.04,0-.08,0-.11,2.81,0,5.45-.76,7.72-2.08,2.26,1.32,4.9,2.07,7.71,2.08Z"/>
        <path d="M61.93,62.32c.02,2.79.78,5.42,2.1,7.67-1.32,2.25-2.09,4.87-2.1,7.67h-.04c-.02-2.79-.78-5.41-2.1-7.67,1.32-2.25,2.09-4.88,2.1-7.67h.04Z"/>
        <path d="M61.93,46.74c.02,2.79.78,5.42,2.1,7.67-1.32,2.25-2.09,4.88-2.1,7.67h-.04c-.02-2.79-.78-5.42-2.1-7.67,1.32-2.25,2.09-4.88,2.1-7.67h.04Z"/>
      </g>
      <g>
        <path d="M77.37,77.78s0,.08,0,.11c0,.04,0,.08,0,.12-2.82,0-5.45.76-7.72,2.08-2.27-1.32-4.9-2.07-7.72-2.08,0-.04,0-.08,0-.12,0-.04,0-.08,0-.11,2.82,0,5.45-.76,7.72-2.08,2.27,1.32,4.9,2.07,7.72,2.08Z"/>
        <path d="M61.89,77.78s0,.08,0,.11c0,.04,0,.08,0,.12-2.81,0-5.45.76-7.71,2.08-2.27-1.32-4.91-2.07-7.72-2.08,0-.04,0-.08,0-.12,0-.04,0-.08,0-.11,2.81,0,5.45-.76,7.72-2.08,2.26,1.32,4.9,2.07,7.71,2.08Z"/>
        <path d="M61.93,78.02c.02,2.79.78,5.42,2.1,7.67-1.32,2.25-2.09,4.87-2.1,7.67h-.04c-.02-2.79-.78-5.41-2.1-7.67,1.32-2.25,2.09-4.88,2.1-7.67h.04Z"/>
        <path d="M61.93,62.44c.02,2.79.78,5.42,2.1,7.67-1.32,2.25-2.09,4.88-2.1,7.67h-.04c-.02-2.79-.78-5.42-2.1-7.67,1.32-2.25,2.09-4.88,2.1-7.67h.04Z"/>
      </g>
      <g>
        <path d="M77.37,93.4s0,.08,0,.11c0,.04,0,.08,0,.12-2.82,0-5.45.76-7.72,2.08-2.27-1.32-4.9-2.07-7.72-2.08,0-.04,0-.08,0-.12,0-.04,0-.08,0-.11,2.82,0,5.45-.76,7.72-2.08,2.27,1.32,4.9,2.07,7.72,2.08Z"/>
        <path d="M61.89,93.4s0,.08,0,.11c0,.04,0,.08,0,.12-2.81,0-5.45.76-7.71,2.08-2.27-1.32-4.91-2.07-7.72-2.08,0-.04,0-.08,0-.12,0-.04,0-.08,0-.11,2.81,0,5.45-.76,7.72-2.08,2.26,1.32,4.9,2.07,7.71,2.08Z"/>
        <path d="M61.93,93.64c.02,2.79.78,5.42,2.1,7.67-1.32,2.25-2.09,4.87-2.1,7.67h-.04c-.02-2.79-.78-5.41-2.1-7.67,1.32-2.25,2.09-4.88,2.1-7.67h.04Z"/>
        <path d="M61.93,78.06c.02,2.79.78,5.42,2.1,7.67-1.32,2.25-2.09,4.88-2.1,7.67h-.04c-.02-2.79-.78-5.42-2.1-7.67,1.32-2.25,2.09-4.88,2.1-7.67h.04Z"/>
      </g>
      <g>
        <path d="M77.37,108.87s0,.08,0,.11c0,.04,0,.08,0,.12-2.82,0-5.45.76-7.72,2.08-2.27-1.32-4.9-2.07-7.72-2.08,0-.04,0-.08,0-.12,0-.04,0-.08,0-.11,2.82,0,5.45-.76,7.72-2.08,2.27,1.32,4.9,2.07,7.72,2.08Z"/>
        <path d="M61.89,108.87s0,.08,0,.11c0,.04,0,.08,0,.12-2.81,0-5.45.76-7.71,2.08-2.27-1.32-4.91-2.07-7.72-2.08,0-.04,0-.08,0-.12,0-.04,0-.08,0-.11,2.81,0,5.45-.76,7.72-2.08,2.26,1.32,4.9,2.07,7.71,2.08Z"/>
        <path d="M61.93,109.11c.02,2.79.78,5.42,2.1,7.67-1.32,2.25-2.09,4.87-2.1,7.67h-.04c-.02-2.79-.78-5.41-2.1-7.67,1.32-2.25,2.09-4.88,2.1-7.67h.04Z"/>
        <path d="M61.93,93.53c.02,2.79.78,5.42,2.1,7.67-1.32,2.25-2.09,4.88-2.1,7.67h-.04c-.02-2.79-.78-5.42-2.1-7.67,1.32-2.25,2.09-4.88,2.1-7.67h.04Z"/>
      </g>
    </g>
  </g>
</svg>