<?xml version="1.0" encoding="UTF-8"?>
<svg id="_레이어_2" data-name="레이어 2" xmlns="http://www.w3.org/2000/svg" viewBox="0 0 123.77 124.47">
  <g id="_레이어_1-2" data-name="레이어 1">
    <g>
      <g>
        <path d="M46.43,93.1s0,.08,0,.11c0,.04,0,.08,0,.12-2.82,0-5.45.76-7.72,2.08-2.27-1.32-4.9-2.07-7.72-2.08,0-.04,0-.08,0-.12,0-.04,0-.08,0-.11,2.82,0,5.45-.76,7.72-2.08,2.27,1.32,4.9,2.07,7.72,2.08Z"/>
        <path d="M30.96,93.1s0,.08,0,.11c0,.04,0,.08,0,.12-2.81,0-5.45.76-7.71,2.08-2.27-1.32-4.91-2.07-7.72-2.08,0-.04,0-.08,0-.12,0-.04,0-.08,0-.11,2.81,0,5.45-.76,7.72-2.08,2.26,1.32,4.9,2.07,7.71,2.08Z"/>
        <path d="M31,93.34c.02,2.79.78,5.42,2.1,7.67-1.32,2.25-2.09,4.87-2.1,7.67h-.04c-.02-2.79-.78-5.41-2.1-7.67,1.32-2.25,2.09-4.88,2.1-7.67h.04Z"/>
        <path d="M31,77.76c.02,2.79.78,5.42,2.1,7.67-1.32,2.25-2.09,4.88-2.1,7.67h-.04c-.02-2.79-.78-5.42-2.1-7.67,1.32-2.25,2.09-4.88,2.1-7.67h.04Z"/>
      </g>
      <g>
        <path d="M61.92,77.69s0,.08,0,.11c0,.04,0,.08,0,.12-2.82,0-5.45.76-7.72,2.08-2.27-1.32-4.9-2.07-7.72-2.08,0-.04,0-.08,0-.12,0-.04,0-.08,0-.11,2.82,0,5.45-.76,7.72-2.08,2.27,1.32,4.9,2.07,7.72,2.08Z"/>
        <path d="M46.44,77.69s0,.08,0,.11c0,.04,0,.08,0,.12-2.81,0-5.45.76-7.71,2.08-2.27-1.32-4.91-2.07-7.72-2.08,0-.04,0-.08,0-.12,0-.04,0-.08,0-.11,2.81,0,5.45-.76,7.72-2.08,2.26,1.32,4.9,2.07,7.71,2.08Z"/>
        <path d="M46.48,77.93c.02,2.79.78,5.42,2.1,7.67-1.32,2.25-2.09,4.87-2.1,7.67h-.04c-.02-2.79-.78-5.41-2.1-7.67,1.32-2.25,2.09-4.88,2.1-7.67h.04Z"/>
        <path d="M46.48,62.35c.02,2.79.78,5.42,2.1,7.67-1.32,2.25-2.09,4.88-2.1,7.67h-.04c-.02-2.79-.78-5.42-2.1-7.67,1.32-2.25,2.09-4.88,2.1-7.67h.04Z"/>
      </g>
      <g>
        <path d="M77.38,62.07s0,.08,0,.11c0,.04,0,.08,0,.12-2.82,0-5.45.76-7.72,2.08-2.27-1.32-4.9-2.07-7.72-2.08,0-.04,0-.08,0-.12,0-.04,0-.08,0-.11,2.82,0,5.45-.76,7.72-2.08,2.27,1.32,4.9,2.07,7.72,2.08Z"/>
        <path d="M61.9,62.07s0,.08,0,.11c0,.04,0,.08,0,.12-2.81,0-5.45.76-7.71,2.08-2.27-1.32-4.91-2.07-7.72-2.08,0-.04,0-.08,0-.12,0-.04,0-.08,0-.11,2.81,0,5.45-.76,7.72-2.08,2.26,1.32,4.9,2.07,7.71,2.08Z"/>
        <path d="M61.94,62.3c.02,2.79.78,5.42,2.1,7.67-1.32,2.25-2.09,4.87-2.1,7.67h-.04c-.02-2.79-.78-5.41-2.1-7.67,1.32-2.25,2.09-4.88,2.1-7.67h.04Z"/>
        <path d="M61.94,46.73c.02,2.79.78,5.42,2.1,7.67-1.32,2.25-2.09,4.88-2.1,7.67h-.04c-.02-2.79-.78-5.42-2.1-7.67,1.32-2.25,2.09-4.88,2.1-7.67h.04Z"/>
      </g>
      <g>
        <path d="M92.82,46.5s0,.08,0,.11c0,.04,0,.08,0,.12-2.82,0-5.45.76-7.72,2.08-2.27-1.32-4.9-2.07-7.72-2.08,0-.04,0-.08,0-.12,0-.04,0-.08,0-.11,2.82,0,5.45-.76,7.72-2.08,2.27,1.32,4.9,2.07,7.72,2.08Z"/>
        <path d="M77.35,46.5s0,.08,0,.11c0,.04,0,.08,0,.12-2.81,0-5.45.76-7.71,2.08-2.27-1.32-4.91-2.07-7.72-2.08,0-.04,0-.08,0-.12,0-.04,0-.08,0-.11,2.81,0,5.45-.76,7.72-2.08,2.26,1.32,4.9,2.07,7.71,2.08Z"/>
        <path d="M77.39,46.73c.02,2.79.78,5.42,2.1,7.67-1.32,2.25-2.09,4.87-2.1,7.67h-.04c-.02-2.79-.78-5.41-2.1-7.67,1.32-2.25,2.09-4.88,2.1-7.67h.04Z"/>
        <path d="M77.39,31.15c.02,2.79.78,5.42,2.1,7.67-1.32,2.25-2.09,4.88-2.1,7.67h-.04c-.02-2.79-.78-5.42-2.1-7.67,1.32-2.25,2.09-4.88,2.1-7.67h.04Z"/>
      </g>
      <g>
        <path d="M108.31,30.8s0,.08,0,.11c0,.04,0,.08,0,.12-2.82,0-5.45.76-7.72,2.08-2.27-1.32-4.9-2.07-7.72-2.08,0-.04,0-.08,0-.12,0-.04,0-.08,0-.11,2.82,0,5.45-.76,7.72-2.08,2.27,1.32,4.9,2.07,7.72,2.08Z"/>
        <path d="M92.83,30.8s0,.08,0,.11c0,.04,0,.08,0,.12-2.81,0-5.45.76-7.71,2.08-2.27-1.32-4.91-2.07-7.72-2.08,0-.04,0-.08,0-.12,0-.04,0-.08,0-.11,2.81,0,5.45-.76,7.72-2.08,2.26,1.32,4.9,2.07,7.71,2.08Z"/>
        <path d="M92.87,31.04c.02,2.79.78,5.42,2.1,7.67-1.32,2.25-2.09,4.87-2.1,7.67h-.04c-.02-2.79-.78-5.41-2.1-7.67,1.32-2.25,2.09-4.88,2.1-7.67h.04Z"/>
        <path d="M92.87,15.46c.02,2.79.78,5.42,2.1,7.67-1.32,2.25-2.09,4.88-2.1,7.67h-.04c-.02-2.79-.78-5.42-2.1-7.67,1.32-2.25,2.09-4.88,2.1-7.67h.04Z"/>
      </g>
      <g>
        <path d="M123.77,15.34s0,.08,0,.11c0,.04,0,.08,0,.12-2.82,0-5.45.76-7.72,2.08-2.27-1.32-4.9-2.07-7.72-2.08,0-.04,0-.08,0-.12,0-.04,0-.08,0-.11,2.82,0,5.45-.76,7.72-2.08,2.27,1.32,4.9,2.07,7.72,2.08Z"/>
        <path d="M108.29,15.34s0,.08,0,.11c0,.04,0,.08,0,.12-2.81,0-5.45.76-7.71,2.08-2.27-1.32-4.91-2.07-7.72-2.08,0-.04,0-.08,0-.12,0-.04,0-.08,0-.11,2.81,0,5.45-.76,7.72-2.08,2.26,1.32,4.9,2.07,7.71,2.08Z"/>
        <path d="M108.33,15.58c.02,2.79.78,5.42,2.1,7.67-1.32,2.25-2.09,4.87-2.1,7.67h-.04c-.02-2.79-.78-5.41-2.1-7.67,1.32-2.25,2.09-4.88,2.1-7.67h.04Z"/>
        <path d="M108.33,0c.02,2.79.78,5.42,2.1,7.67-1.32,2.25-2.09,4.88-2.1,7.67h-.04c-.02-2.79-.78-5.42-2.1-7.67,1.32-2.25,2.09-4.88,2.1-7.67h.04Z"/>
      </g>
      <g>
        <path d="M30.91,108.9s0,.08,0,.11c0,.04,0,.08,0,.12-2.82,0-5.45.76-7.72,2.08-2.27-1.32-4.9-2.07-7.72-2.08,0-.04,0-.08,0-.12,0-.04,0-.08,0-.11,2.82,0,5.45-.76,7.72-2.08,2.27,1.32,4.9,2.07,7.72,2.08Z"/>
        <path d="M15.44,108.9s0,.08,0,.11c0,.04,0,.08,0,.12-2.81,0-5.45.76-7.71,2.08-2.27-1.32-4.91-2.07-7.72-2.08,0-.04,0-.08,0-.12,0-.04,0-.08,0-.11,2.81,0,5.45-.76,7.72-2.08,2.26,1.32,4.9,2.07,7.71,2.08Z"/>
        <path d="M15.47,109.13c.02,2.79.78,5.42,2.1,7.67-1.32,2.25-2.09,4.87-2.1,7.67h-.04c-.02-2.79-.78-5.41-2.1-7.67,1.32-2.25,2.09-4.88,2.1-7.67h.04Z"/>
        <path d="M15.47,93.55c.02,2.79.78,5.42,2.1,7.67-1.32,2.25-2.09,4.88-2.1,7.67h-.04c-.02-2.79-.78-5.42-2.1-7.67,1.32-2.25,2.09-4.88,2.1-7.67h.04Z"/>
      </g>
      <g>
        <path d="M46.43,31.37s0-.08,0-.11c0-.04,0-.08,0-.12-2.82,0-5.45-.76-7.72-2.08-2.27,1.32-4.9,2.07-7.72,2.08,0,.04,0,.08,0,.12,0,.04,0,.08,0,.11,2.82,0,5.45.76,7.72,2.08,2.27-1.32,4.9-2.07,7.72-2.08Z"/>
        <path d="M30.96,31.37s0-.08,0-.11c0-.04,0-.08,0-.12-2.81,0-5.45-.76-7.71-2.08-2.27,1.32-4.91,2.07-7.72,2.08,0,.04,0,.08,0,.12,0,.04,0,.08,0,.11,2.81,0,5.45.76,7.72,2.08,2.26-1.32,4.9-2.07,7.71-2.08Z"/>
        <path d="M31,31.13c.02-2.79.78-5.42,2.1-7.67-1.32-2.25-2.09-4.87-2.1-7.67h-.04c-.02,2.79-.78,5.41-2.1,7.67,1.32,2.25,2.09,4.88,2.1,7.67h.04Z"/>
        <path d="M31,46.71c.02-2.79.78-5.42,2.1-7.67-1.32-2.25-2.09-4.88-2.1-7.67h-.04c-.02,2.79-.78,5.42-2.1,7.67,1.32,2.25,2.09,4.88,2.1,7.67h.04Z"/>
      </g>
      <g>
        <path d="M61.92,46.78s0-.08,0-.11c0-.04,0-.08,0-.12-2.82,0-5.45-.76-7.72-2.08-2.27,1.32-4.9,2.07-7.72,2.08,0,.04,0,.08,0,.12,0,.04,0,.08,0,.11,2.82,0,5.45.76,7.72,2.08,2.27-1.32,4.9-2.07,7.72-2.08Z"/>
        <path d="M46.44,46.78s0-.08,0-.11c0-.04,0-.08,0-.12-2.81,0-5.45-.76-7.71-2.08-2.27,1.32-4.91,2.07-7.72,2.08,0,.04,0,.08,0,.12,0,.04,0,.08,0,.11,2.81,0,5.45.76,7.72,2.08,2.26-1.32,4.9-2.07,7.71-2.08Z"/>
        <path d="M46.48,46.54c.02-2.79.78-5.42,2.1-7.67-1.32-2.25-2.09-4.87-2.1-7.67h-.04c-.02,2.79-.78,5.41-2.1,7.67,1.32,2.25,2.09,4.88,2.1,7.67h.04Z"/>
        <path d="M46.48,62.12c.02-2.79.78-5.42,2.1-7.67-1.32-2.25-2.09-4.88-2.1-7.67h-.04c-.02,2.79-.78,5.42-2.1,7.67,1.32,2.25,2.09,4.88,2.1,7.67h.04Z"/>
      </g>
      <g>
        <path d="M92.82,77.97s0-.08,0-.11c0-.04,0-.08,0-.12-2.82,0-5.45-.76-7.72-2.08-2.27,1.32-4.9,2.07-7.72,2.08,0,.04,0,.08,0,.12,0,.04,0,.08,0,.11,2.82,0,5.45.76,7.72,2.08,2.27-1.32,4.9-2.07,7.72-2.08Z"/>
        <path d="M77.35,77.97s0-.08,0-.11c0-.04,0-.08,0-.12-2.81,0-5.45-.76-7.71-2.08-2.27,1.32-4.91,2.07-7.72,2.08,0,.04,0,.08,0,.12,0,.04,0,.08,0,.11,2.81,0,5.45.76,7.72,2.08,2.26-1.32,4.9-2.07,7.71-2.08Z"/>
        <path d="M77.39,77.74c.02-2.79.78-5.42,2.1-7.67-1.32-2.25-2.09-4.87-2.1-7.67h-.04c-.02,2.79-.78,5.41-2.1,7.67,1.32,2.25,2.09,4.88,2.1,7.67h.04Z"/>
        <path d="M77.39,93.32c.02-2.79.78-5.42,2.1-7.67-1.32-2.25-2.09-4.88-2.1-7.67h-.04c-.02,2.79-.78,5.42-2.1,7.67,1.32,2.25,2.09,4.88,2.1,7.67h.04Z"/>
      </g>
      <g>
        <path d="M108.31,93.67s0-.08,0-.11c0-.04,0-.08,0-.12-2.82,0-5.45-.76-7.72-2.08-2.27,1.32-4.9,2.07-7.72,2.08,0,.04,0,.08,0,.12,0,.04,0,.08,0,.11,2.82,0,5.45.76,7.72,2.08,2.27-1.32,4.9-2.07,7.72-2.08Z"/>
        <path d="M92.83,93.67s0-.08,0-.11c0-.04,0-.08,0-.12-2.81,0-5.45-.76-7.71-2.08-2.27,1.32-4.91,2.07-7.72,2.08,0,.04,0,.08,0,.12,0,.04,0,.08,0,.11,2.81,0,5.45.76,7.72,2.08,2.26-1.32,4.9-2.07,7.71-2.08Z"/>
        <path d="M92.87,93.43c.02-2.79.78-5.42,2.1-7.67-1.32-2.25-2.09-4.87-2.1-7.67h-.04c-.02,2.79-.78,5.41-2.1,7.67,1.32,2.25,2.09,4.88,2.1,7.67h.04Z"/>
        <path d="M92.87,109.01c.02-2.79.78-5.42,2.1-7.67-1.32-2.25-2.09-4.88-2.1-7.67h-.04c-.02,2.79-.78,5.42-2.1,7.67,1.32,2.25,2.09,4.88,2.1,7.67h.04Z"/>
      </g>
      <g>
        <path d="M123.77,109.13s0-.08,0-.11c0-.04,0-.08,0-.12-2.82,0-5.45-.76-7.72-2.08-2.27,1.32-4.9,2.07-7.72,2.08,0,.04,0,.08,0,.12,0,.04,0,.08,0,.11,2.82,0,5.45.76,7.72,2.08,2.27-1.32,4.9-2.07,7.72-2.08Z"/>
        <path d="M108.29,109.13s0-.08,0-.11c0-.04,0-.08,0-.12-2.81,0-5.45-.76-7.71-2.08-2.27,1.32-4.91,2.07-7.72,2.08,0,.04,0,.08,0,.12,0,.04,0,.08,0,.11,2.81,0,5.45.76,7.72,2.08,2.26-1.32,4.9-2.07,7.71-2.08Z"/>
        <path d="M108.33,108.89c.02-2.79.78-5.42,2.1-7.67-1.32-2.25-2.09-4.87-2.1-7.67h-.04c-.02,2.79-.78,5.41-2.1,7.67,1.32,2.25,2.09,4.88,2.1,7.67h.04Z"/>
        <path d="M108.33,124.47c.02-2.79.78-5.42,2.1-7.67-1.32-2.25-2.09-4.88-2.1-7.67h-.04c-.02,2.79-.78,5.42-2.1,7.67,1.32,2.25,2.09,4.88,2.1,7.67h.04Z"/>
      </g>
      <g>
        <path d="M30.91,15.57s0-.08,0-.11c0-.04,0-.08,0-.12-2.82,0-5.45-.76-7.72-2.08-2.27,1.32-4.9,2.07-7.72,2.08,0,.04,0,.08,0,.12,0,.04,0,.08,0,.11,2.82,0,5.45.76,7.72,2.08,2.27-1.32,4.9-2.07,7.72-2.08Z"/>
        <path d="M15.44,15.57s0-.08,0-.11c0-.04,0-.08,0-.12-2.81,0-5.45-.76-7.71-2.08C5.45,14.58,2.82,15.33,0,15.34c0,.04,0,.08,0,.12,0,.04,0,.08,0,.11,2.81,0,5.45.76,7.72,2.08,2.26-1.32,4.9-2.07,7.71-2.08Z"/>
        <path d="M15.47,15.34c.02-2.79.78-5.42,2.1-7.67-1.32-2.25-2.09-4.87-2.1-7.67h-.04c-.02,2.79-.78,5.41-2.1,7.67,1.32,2.25,2.09,4.88,2.1,7.67h.04Z"/>
        <path d="M15.47,30.92c.02-2.79.78-5.42,2.1-7.67-1.32-2.25-2.09-4.88-2.1-7.67h-.04c-.02,2.79-.78,5.42-2.1,7.67,1.32,2.25,2.09,4.88,2.1,7.67h.04Z"/>
      </g>
    </g>
  </g>
</svg>