<?xml version="1.0" encoding="UTF-8"?>
<svg id="_레이어_2" data-name="레이어 2" xmlns="http://www.w3.org/2000/svg" viewBox="0 0 123.71 124.6">
  <g id="_레이어_1-2" data-name="레이어 1">
    <g>
      <g>
        <path d="M77.34,15.46s0,.08,0,.11c0,.04,0,.08,0,.12-2.82,0-5.45.76-7.72,2.08-2.27-1.32-4.9-2.07-7.72-2.08,0-.04,0-.08,0-.12,0-.04,0-.08,0-.11,2.82,0,5.45-.76,7.72-2.08,2.27,1.32,4.9,2.07,7.72,2.08Z"/>
        <path d="M61.87,15.46s0,.08,0,.11c0,.04,0,.08,0,.12-2.81,0-5.45.76-7.71,2.08-2.27-1.32-4.91-2.07-7.72-2.08,0-.04,0-.08,0-.12,0-.04,0-.08,0-.11,2.81,0,5.45-.76,7.72-2.08,2.26,1.32,4.9,2.07,7.71,2.08Z"/>
        <path d="M61.9,15.69c.02,2.79.78,5.42,2.1,7.67-1.32,2.25-2.09,4.87-2.1,7.67h-.04c-.02-2.79-.78-5.41-2.1-7.67,1.32-2.25,2.09-4.88,2.1-7.67h.04Z"/>
        <path d="M61.9.11c.02,2.79.78,5.42,2.1,7.67-1.32,2.25-2.09,4.88-2.1,7.67h-.04c-.02-2.79-.78-5.42-2.1-7.67,1.32-2.25,2.09-4.88,2.1-7.67h.04Z"/>
      </g>
      <g>
        <path d="M61.81,15.37s0,.08,0,.11c0,.04,0,.08,0,.12-2.82,0-5.45.76-7.72,2.08-2.27-1.32-4.9-2.07-7.72-2.08,0-.04,0-.08,0-.12,0-.04,0-.08,0-.11,2.82,0,5.45-.76,7.72-2.08,2.27,1.32,4.9,2.07,7.72,2.08Z"/>
        <path d="M46.34,15.37s0,.08,0,.11c0,.04,0,.08,0,.12-2.81,0-5.45.76-7.71,2.08-2.27-1.32-4.91-2.07-7.72-2.08,0-.04,0-.08,0-.12,0-.04,0-.08,0-.11,2.81,0,5.45-.76,7.72-2.08,2.26,1.32,4.9,2.07,7.71,2.08Z"/>
        <path d="M46.38,15.6c.02,2.79.78,5.42,2.1,7.67-1.32,2.25-2.09,4.87-2.1,7.67h-.04c-.02-2.79-.78-5.41-2.1-7.67,1.32-2.25,2.09-4.88,2.1-7.67h.04Z"/>
        <path d="M46.38.03c.02,2.79.78,5.42,2.1,7.67-1.32,2.25-2.09,4.88-2.1,7.67h-.04c-.02-2.79-.78-5.42-2.1-7.67,1.32-2.25,2.09-4.88,2.1-7.67h.04Z"/>
      </g>
      <g>
        <path d="M108.28,15.5s0,.08,0,.11c0,.04,0,.08,0,.12-2.82,0-5.45.76-7.72,2.08-2.27-1.32-4.9-2.07-7.72-2.08,0-.04,0-.08,0-.12,0-.04,0-.08,0-.11,2.82,0,5.45-.76,7.72-2.08,2.27,1.32,4.9,2.07,7.72,2.08Z"/>
        <path d="M92.81,15.5s0,.08,0,.11c0,.04,0,.08,0,.12-2.81,0-5.45.76-7.71,2.08-2.27-1.32-4.91-2.07-7.72-2.08,0-.04,0-.08,0-.12,0-.04,0-.08,0-.11,2.81,0,5.45-.76,7.72-2.08,2.26,1.32,4.9,2.07,7.71,2.08Z"/>
        <path d="M92.85,15.74c.02,2.79.78,5.42,2.1,7.67-1.32,2.25-2.09,4.87-2.1,7.67h-.04c-.02-2.79-.78-5.41-2.1-7.67,1.32-2.25,2.09-4.88,2.1-7.67h.04Z"/>
        <path d="M92.85.16c.02,2.79.78,5.42,2.1,7.67-1.32,2.25-2.09,4.88-2.1,7.67h-.04c-.02-2.79-.78-5.42-2.1-7.67,1.32-2.25,2.09-4.88,2.1-7.67h.04Z"/>
      </g>
      <g>
        <path d="M123.7,15.5s0,.08,0,.11c0,.04,0,.08,0,.12-2.82,0-5.45.76-7.72,2.08-2.27-1.32-4.9-2.07-7.72-2.08,0-.04,0-.08,0-.12,0-.04,0-.08,0-.11,2.82,0,5.45-.76,7.72-2.08,2.27,1.32,4.9,2.07,7.72,2.08Z"/>
        <path d="M108.23,15.5s0,.08,0,.11c0,.04,0,.08,0,.12-2.81,0-5.45.76-7.71,2.08-2.27-1.32-4.91-2.07-7.72-2.08,0-.04,0-.08,0-.12,0-.04,0-.08,0-.11,2.81,0,5.45-.76,7.72-2.08,2.26,1.32,4.9,2.07,7.71,2.08Z"/>
        <path d="M108.26,15.74c.02,2.79.78,5.42,2.1,7.67-1.32,2.25-2.09,4.87-2.1,7.67h-.04c-.02-2.79-.78-5.41-2.1-7.67,1.32-2.25,2.09-4.88,2.1-7.67h.04Z"/>
        <path d="M108.26.16c.02,2.79.78,5.42,2.1,7.67-1.32,2.25-2.09,4.88-2.1,7.67h-.04c-.02-2.79-.78-5.42-2.1-7.67,1.32-2.25,2.09-4.88,2.1-7.67h.04Z"/>
      </g>
      <g>
        <path d="M30.91,15.34s0,.08,0,.11c0,.04,0,.08,0,.12-2.82,0-5.45.76-7.72,2.08-2.27-1.32-4.9-2.07-7.72-2.08,0-.04,0-.08,0-.12,0-.04,0-.08,0-.11,2.82,0,5.45-.76,7.72-2.08,2.27,1.32,4.9,2.07,7.72,2.08Z"/>
        <path d="M15.44,15.34s0,.08,0,.11c0,.04,0,.08,0,.12-2.81,0-5.45.76-7.71,2.08C5.45,16.34,2.82,15.58,0,15.58c0-.04,0-.08,0-.12,0-.04,0-.08,0-.11,2.81,0,5.45-.76,7.72-2.08,2.26,1.32,4.9,2.07,7.71,2.08Z"/>
        <path d="M15.47,15.58c.02,2.79.78,5.42,2.1,7.67-1.32,2.25-2.09,4.87-2.1,7.67h-.04c-.02-2.79-.78-5.41-2.1-7.67,1.32-2.25,2.09-4.88,2.1-7.67h.04Z"/>
        <path d="M15.47,0c.02,2.79.78,5.42,2.1,7.67-1.32,2.25-2.09,4.88-2.1,7.67h-.04c-.02-2.79-.78-5.42-2.1-7.67,1.32-2.25,2.09-4.88,2.1-7.67h.04Z"/>
      </g>
      <g>
        <path d="M77.34,108.98s0,.08,0,.11c0,.04,0,.08,0,.12-2.82,0-5.45.76-7.72,2.08-2.27-1.32-4.9-2.07-7.72-2.08,0-.04,0-.08,0-.12,0-.04,0-.08,0-.11,2.82,0,5.45-.76,7.72-2.08,2.27,1.32,4.9,2.07,7.72,2.08Z"/>
        <path d="M61.87,108.98s0,.08,0,.11c0,.04,0,.08,0,.12-2.81,0-5.45.76-7.71,2.08-2.27-1.32-4.91-2.07-7.72-2.08,0-.04,0-.08,0-.12,0-.04,0-.08,0-.11,2.81,0,5.45-.76,7.72-2.08,2.26,1.32,4.9,2.07,7.71,2.08Z"/>
        <path d="M61.9,109.21c.02,2.79.78,5.42,2.1,7.67-1.32,2.25-2.09,4.87-2.1,7.67h-.04c-.02-2.79-.78-5.41-2.1-7.67,1.32-2.25,2.09-4.88,2.1-7.67h.04Z"/>
        <path d="M61.9,93.64c.02,2.79.78,5.42,2.1,7.67-1.32,2.25-2.09,4.88-2.1,7.67h-.04c-.02-2.79-.78-5.42-2.1-7.67,1.32-2.25,2.09-4.88,2.1-7.67h.04Z"/>
      </g>
      <g>
        <path d="M61.81,108.89s0,.08,0,.11c0,.04,0,.08,0,.12-2.82,0-5.45.76-7.72,2.08-2.27-1.32-4.9-2.07-7.72-2.08,0-.04,0-.08,0-.12,0-.04,0-.08,0-.11,2.82,0,5.45-.76,7.72-2.08,2.27,1.32,4.9,2.07,7.72,2.08Z"/>
        <path d="M46.34,108.89s0,.08,0,.11c0,.04,0,.08,0,.12-2.81,0-5.45.76-7.71,2.08-2.27-1.32-4.91-2.07-7.72-2.08,0-.04,0-.08,0-.12,0-.04,0-.08,0-.11,2.81,0,5.45-.76,7.72-2.08,2.26,1.32,4.9,2.07,7.71,2.08Z"/>
        <path d="M46.38,109.13c.02,2.79.78,5.42,2.1,7.67-1.32,2.25-2.09,4.87-2.1,7.67h-.04c-.02-2.79-.78-5.41-2.1-7.67,1.32-2.25,2.09-4.88,2.1-7.67h.04Z"/>
        <path d="M46.38,93.55c.02,2.79.78,5.42,2.1,7.67-1.32,2.25-2.09,4.88-2.1,7.67h-.04c-.02-2.79-.78-5.42-2.1-7.67,1.32-2.25,2.09-4.88,2.1-7.67h.04Z"/>
      </g>
      <g>
        <path d="M108.28,109.03s0,.08,0,.11c0,.04,0,.08,0,.12-2.82,0-5.45.76-7.72,2.08-2.27-1.32-4.9-2.07-7.72-2.08,0-.04,0-.08,0-.12,0-.04,0-.08,0-.11,2.82,0,5.45-.76,7.72-2.08,2.27,1.32,4.9,2.07,7.72,2.08Z"/>
        <path d="M92.81,109.03s0,.08,0,.11c0,.04,0,.08,0,.12-2.81,0-5.45.76-7.71,2.08-2.27-1.32-4.91-2.07-7.72-2.08,0-.04,0-.08,0-.12,0-.04,0-.08,0-.11,2.81,0,5.45-.76,7.72-2.08,2.26,1.32,4.9,2.07,7.71,2.08Z"/>
        <path d="M92.85,109.26c.02,2.79.78,5.42,2.1,7.67-1.32,2.25-2.09,4.87-2.1,7.67h-.04c-.02-2.79-.78-5.41-2.1-7.67,1.32-2.25,2.09-4.88,2.1-7.67h.04Z"/>
        <path d="M92.85,93.68c.02,2.79.78,5.42,2.1,7.67-1.32,2.25-2.09,4.88-2.1,7.67h-.04c-.02-2.79-.78-5.42-2.1-7.67,1.32-2.25,2.09-4.88,2.1-7.67h.04Z"/>
      </g>
      <g>
        <path d="M123.7,109.03s0,.08,0,.11c0,.04,0,.08,0,.12-2.82,0-5.45.76-7.72,2.08-2.27-1.32-4.9-2.07-7.72-2.08,0-.04,0-.08,0-.12,0-.04,0-.08,0-.11,2.82,0,5.45-.76,7.72-2.08,2.27,1.32,4.9,2.07,7.72,2.08Z"/>
        <path d="M108.23,109.03s0,.08,0,.11c0,.04,0,.08,0,.12-2.81,0-5.45.76-7.71,2.08-2.27-1.32-4.91-2.07-7.72-2.08,0-.04,0-.08,0-.12,0-.04,0-.08,0-.11,2.81,0,5.45-.76,7.72-2.08,2.26,1.32,4.9,2.07,7.71,2.08Z"/>
        <path d="M108.26,109.26c.02,2.79.78,5.42,2.1,7.67-1.32,2.25-2.09,4.87-2.1,7.67h-.04c-.02-2.79-.78-5.41-2.1-7.67,1.32-2.25,2.09-4.88,2.1-7.67h.04Z"/>
        <path d="M108.26,93.68c.02,2.79.78,5.42,2.1,7.67-1.32,2.25-2.09,4.88-2.1,7.67h-.04c-.02-2.79-.78-5.42-2.1-7.67,1.32-2.25,2.09-4.88,2.1-7.67h.04Z"/>
      </g>
      <g>
        <path d="M30.91,108.87s0,.08,0,.11c0,.04,0,.08,0,.12-2.82,0-5.45.76-7.72,2.08-2.27-1.32-4.9-2.07-7.72-2.08,0-.04,0-.08,0-.12,0-.04,0-.08,0-.11,2.82,0,5.45-.76,7.72-2.08,2.27,1.32,4.9,2.07,7.72,2.08Z"/>
        <path d="M15.44,108.87s0,.08,0,.11c0,.04,0,.08,0,.12-2.81,0-5.45.76-7.71,2.08-2.27-1.32-4.91-2.07-7.72-2.08,0-.04,0-.08,0-.12,0-.04,0-.08,0-.11,2.81,0,5.45-.76,7.72-2.08,2.26,1.32,4.9,2.07,7.71,2.08Z"/>
        <path d="M15.47,109.1c.02,2.79.78,5.42,2.1,7.67-1.32,2.25-2.09,4.87-2.1,7.67h-.04c-.02-2.79-.78-5.41-2.1-7.67,1.32-2.25,2.09-4.88,2.1-7.67h.04Z"/>
        <path d="M15.47,93.52c.02,2.79.78,5.42,2.1,7.67-1.32,2.25-2.09,4.88-2.1,7.67h-.04c-.02-2.79-.78-5.42-2.1-7.67,1.32-2.25,2.09-4.88,2.1-7.67h.04Z"/>
      </g>
      <g>
        <path d="M46.35,93.37s0,.08,0,.11c0,.04,0,.08,0,.12-2.82,0-5.45.76-7.72,2.08-2.27-1.32-4.9-2.07-7.72-2.08,0-.04,0-.08,0-.12,0-.04,0-.08,0-.11,2.82,0,5.45-.76,7.72-2.08,2.27,1.32,4.9,2.07,7.72,2.08Z"/>
        <path d="M30.88,93.37s0,.08,0,.11c0,.04,0,.08,0,.12-2.81,0-5.45.76-7.71,2.08-2.27-1.32-4.91-2.07-7.72-2.08,0-.04,0-.08,0-.12,0-.04,0-.08,0-.11,2.81,0,5.45-.76,7.72-2.08,2.26,1.32,4.9,2.07,7.71,2.08Z"/>
        <path d="M30.92,93.61c.02,2.79.78,5.42,2.1,7.67-1.32,2.25-2.09,4.87-2.1,7.67h-.04c-.02-2.79-.78-5.41-2.1-7.67,1.32-2.25,2.09-4.88,2.1-7.67h.04Z"/>
        <path d="M30.92,78.03c.02,2.79.78,5.42,2.1,7.67-1.32,2.25-2.09,4.88-2.1,7.67h-.04c-.02-2.79-.78-5.42-2.1-7.67,1.32-2.25,2.09-4.88,2.1-7.67h.04Z"/>
      </g>
      <g>
        <path d="M61.8,77.8s0,.08,0,.11c0,.04,0,.08,0,.12-2.82,0-5.45.76-7.72,2.08-2.27-1.32-4.9-2.07-7.72-2.08,0-.04,0-.08,0-.12,0-.04,0-.08,0-.11,2.82,0,5.45-.76,7.72-2.08,2.27,1.32,4.9,2.07,7.72,2.08Z"/>
        <path d="M46.32,77.8s0,.08,0,.11c0,.04,0,.08,0,.12-2.81,0-5.45.76-7.71,2.08-2.27-1.32-4.91-2.07-7.72-2.08,0-.04,0-.08,0-.12,0-.04,0-.08,0-.11,2.81,0,5.45-.76,7.72-2.08,2.26,1.32,4.9,2.07,7.71,2.08Z"/>
        <path d="M46.36,78.03c.02,2.79.78,5.42,2.1,7.67-1.32,2.25-2.09,4.87-2.1,7.67h-.04c-.02-2.79-.78-5.41-2.1-7.67,1.32-2.25,2.09-4.88,2.1-7.67h.04Z"/>
        <path d="M46.36,62.45c.02,2.79.78,5.42,2.1,7.67-1.32,2.25-2.09,4.88-2.1,7.67h-.04c-.02-2.79-.78-5.42-2.1-7.67,1.32-2.25,2.09-4.88,2.1-7.67h.04Z"/>
      </g>
      <g>
        <path d="M77.36,62.22s0,.08,0,.11c0,.04,0,.08,0,.12-2.82,0-5.45.76-7.72,2.08-2.27-1.32-4.9-2.07-7.72-2.08,0-.04,0-.08,0-.12,0-.04,0-.08,0-.11,2.82,0,5.45-.76,7.72-2.08,2.27,1.32,4.9,2.07,7.72,2.08Z"/>
        <path d="M61.88,62.22s0,.08,0,.11c0,.04,0,.08,0,.12-2.81,0-5.45.76-7.71,2.08-2.27-1.32-4.91-2.07-7.72-2.08,0-.04,0-.08,0-.12,0-.04,0-.08,0-.11,2.81,0,5.45-.76,7.72-2.08,2.26,1.32,4.9,2.07,7.71,2.08Z"/>
        <path d="M61.92,62.46c.02,2.79.78,5.42,2.1,7.67-1.32,2.25-2.09,4.87-2.1,7.67h-.04c-.02-2.79-.78-5.41-2.1-7.67,1.32-2.25,2.09-4.88,2.1-7.67h.04Z"/>
        <path d="M61.92,46.88c.02,2.79.78,5.42,2.1,7.67-1.32,2.25-2.09,4.88-2.1,7.67h-.04c-.02-2.79-.78-5.42-2.1-7.67,1.32-2.25,2.09-4.88,2.1-7.67h.04Z"/>
      </g>
      <g>
        <path d="M92.8,46.88s0,.08,0,.11c0,.04,0,.08,0,.12-2.82,0-5.45.76-7.72,2.08-2.27-1.32-4.9-2.07-7.72-2.08,0-.04,0-.08,0-.12,0-.04,0-.08,0-.11,2.82,0,5.45-.76,7.72-2.08,2.27,1.32,4.9,2.07,7.72,2.08Z"/>
        <path d="M77.32,46.88s0,.08,0,.11c0,.04,0,.08,0,.12-2.81,0-5.45.76-7.71,2.08-2.27-1.32-4.91-2.07-7.72-2.08,0-.04,0-.08,0-.12,0-.04,0-.08,0-.11,2.81,0,5.45-.76,7.72-2.08,2.26,1.32,4.9,2.07,7.71,2.08Z"/>
        <path d="M77.36,47.11c.02,2.79.78,5.42,2.1,7.67-1.32,2.25-2.09,4.87-2.1,7.67h-.04c-.02-2.79-.78-5.41-2.1-7.67,1.32-2.25,2.09-4.88,2.1-7.67h.04Z"/>
        <path d="M77.36,31.54c.02,2.79.78,5.42,2.1,7.67-1.32,2.25-2.09,4.88-2.1,7.67h-.04c-.02-2.79-.78-5.42-2.1-7.67,1.32-2.25,2.09-4.88,2.1-7.67h.04Z"/>
      </g>
      <g>
        <path d="M108.33,31.42s0,.08,0,.11c0,.04,0,.08,0,.12-2.82,0-5.45.76-7.72,2.08-2.27-1.32-4.9-2.07-7.72-2.08,0-.04,0-.08,0-.12,0-.04,0-.08,0-.11,2.82,0,5.45-.76,7.72-2.08,2.27,1.32,4.9,2.07,7.72,2.08Z"/>
        <path d="M92.85,31.42s0,.08,0,.11c0,.04,0,.08,0,.12-2.81,0-5.45.76-7.71,2.08-2.27-1.32-4.91-2.07-7.72-2.08,0-.04,0-.08,0-.12,0-.04,0-.08,0-.11,2.81,0,5.45-.76,7.72-2.08,2.26,1.32,4.9,2.07,7.71,2.08Z"/>
        <path d="M92.89,31.65c.02,2.79.78,5.42,2.1,7.67-1.32,2.25-2.09,4.87-2.1,7.67h-.04c-.02-2.79-.78-5.41-2.1-7.67,1.32-2.25,2.09-4.88,2.1-7.67h.04Z"/>
        <path d="M92.89,16.08c.02,2.79.78,5.42,2.1,7.67-1.32,2.25-2.09,4.88-2.1,7.67h-.04c-.02-2.79-.78-5.42-2.1-7.67,1.32-2.25,2.09-4.88,2.1-7.67h.04Z"/>
      </g>
    </g>
  </g>
</svg>