<?xml version="1.0" encoding="UTF-8"?>
<svg id="_레이어_2" data-name="레이어 2" xmlns="http://www.w3.org/2000/svg" viewBox="0 0 90.39 101.28">
  <defs>
    <style>
      .cls-1 {
        fill: none;
        stroke: #000;
        stroke-miterlimit: 10;
        stroke-width: 5px;
      }
    </style>
  </defs>
  <g id="_레이어_1-2" data-name="레이어 1">
    <g>
      <path d="M6.59,53.18c.88,0,1.59.71,1.59,1.59s-.71,1.59-1.59,1.59-1.59-.71-1.59-1.59.71-1.59,1.59-1.59M6.59,48.18c-3.64,0-6.59,2.95-6.59,6.59s2.95,6.59,6.59,6.59,6.59-2.95,6.59-6.59-2.95-6.59-6.59-6.59h0Z"/>
      <path d="M83.8,53.18c.88,0,1.59.71,1.59,1.59s-.71,1.59-1.59,1.59-1.59-.71-1.59-1.59.71-1.59,1.59-1.59M83.8,48.18c-3.64,0-6.59,2.95-6.59,6.59s2.95,6.59,6.59,6.59,6.59-2.95,6.59-6.59-2.95-6.59-6.59-6.59h0Z"/>
      <path d="M6.59,5c.88,0,1.59.71,1.59,1.59s-.71,1.59-1.59,1.59-1.59-.71-1.59-1.59.71-1.59,1.59-1.59M6.59,0C2.95,0,0,2.95,0,6.59s2.95,6.59,6.59,6.59,6.59-2.95,6.59-6.59S10.23,0,6.59,0h0Z"/>
      <path d="M83.8,5c.88,0,1.59.71,1.59,1.59s-.71,1.59-1.59,1.59-1.59-.71-1.59-1.59.71-1.59,1.59-1.59M83.8,0c-3.64,0-6.59,2.95-6.59,6.59s2.95,6.59,6.59,6.59,6.59-2.95,6.59-6.59-2.95-6.59-6.59-6.59h0Z"/>
      <line class="cls-1" x1="12.54" y1="6.59" x2="78.23" y2="6.59"/>
      <line class="cls-1" x1="12.04" y1="54.77" x2="78.23" y2="54.77"/>
      <line class="cls-1" x1="6.59" y1="12.55" x2="6.59" y2="49.11"/>
      <line class="cls-1" x1="83.8" y1="12.55" x2="83.8" y2="49.11"/>
      <line class="cls-1" x1="6.59" y1="60.22" x2="6.59" y2="101.28"/>
      <line class="cls-1" x1="83.8" y1="60.22" x2="83.8" y2="101.28"/>
    </g>
  </g>
</svg>