<?xml version="1.0" encoding="UTF-8"?>
<svg id="_레이어_2" data-name="레이어 2" xmlns="http://www.w3.org/2000/svg" viewBox="0 0 86.69 103.45">
  <defs>
    <style>
      .cls-1 {
        fill: none;
        stroke: #000;
        stroke-miterlimit: 10;
        stroke-width: 5px;
      }
    </style>
  </defs>
  <g id="_레이어_1-2" data-name="레이어 1">
    <g>
      <path d="M6.32,51.21c.73,0,1.32.59,1.32,1.32s-.59,1.32-1.32,1.32-1.32-.59-1.32-1.32.59-1.32,1.32-1.32M6.32,46.21c-3.49,0-6.32,2.83-6.32,6.32s2.83,6.32,6.32,6.32,6.32-2.83,6.32-6.32-2.83-6.32-6.32-6.32h0Z"/>
      <path d="M6.32,5c.73,0,1.32.59,1.32,1.32s-.59,1.32-1.32,1.32-1.32-.59-1.32-1.32.59-1.32,1.32-1.32M6.32,0C2.83,0,0,2.83,0,6.32s2.83,6.32,6.32,6.32,6.32-2.83,6.32-6.32S9.81,0,6.32,0h0Z"/>
      <path d="M6.32,95.81c.73,0,1.32.59,1.32,1.32s-.59,1.32-1.32,1.32-1.32-.59-1.32-1.32.59-1.32,1.32-1.32M6.32,90.81c-3.49,0-6.32,2.83-6.32,6.32s2.83,6.32,6.32,6.32,6.32-2.83,6.32-6.32-2.83-6.32-6.32-6.32h0Z"/>
      <line class="cls-1" x1="11.44" y1="6.32" x2="74.05" y2="6.32"/>
      <line class="cls-1" x1="11.44" y1="52.33" x2="75.06" y2="52.33"/>
      <line class="cls-1" x1="11.44" y1="97.13" x2="75.09" y2="97.13"/>
      <line class="cls-1" x1="6.32" y1="11.06" x2="6.32" y2="46.99"/>
      <line class="cls-1" x1="6.32" y1="57.97" x2="6.32" y2="92.15"/>
      <path d="M80.37,51.21c.73,0,1.32.59,1.32,1.32s-.59,1.32-1.32,1.32-1.32-.59-1.32-1.32.59-1.32,1.32-1.32M80.37,46.21c-3.49,0-6.32,2.83-6.32,6.32s2.83,6.32,6.32,6.32,6.32-2.83,6.32-6.32-2.83-6.32-6.32-6.32h0Z"/>
      <path d="M80.37,5c.73,0,1.32.59,1.32,1.32s-.59,1.32-1.32,1.32-1.32-.59-1.32-1.32.59-1.32,1.32-1.32M80.37,0c-3.49,0-6.32,2.83-6.32,6.32s2.83,6.32,6.32,6.32,6.32-2.83,6.32-6.32-2.83-6.32-6.32-6.32h0Z"/>
      <path d="M80.37,95.81c.73,0,1.32.59,1.32,1.32s-.59,1.32-1.32,1.32-1.32-.59-1.32-1.32.59-1.32,1.32-1.32M80.37,90.81c-3.49,0-6.32,2.83-6.32,6.32s2.83,6.32,6.32,6.32,6.32-2.83,6.32-6.32-2.83-6.32-6.32-6.32h0Z"/>
      <line class="cls-1" x1="80.37" y1="12.64" x2="80.37" y2="46.99"/>
      <line class="cls-1" x1="80.37" y1="57.97" x2="80.37" y2="91.85"/>
    </g>
  </g>
</svg>