<?xml version="1.0" encoding="UTF-8"?>
<svg id="_레이어_2" data-name="레이어 2" xmlns="http://www.w3.org/2000/svg" viewBox="0 0 84.49 109.21">
  <defs>
    <style>
      .cls-1 {
        fill: none;
        stroke: #000;
        stroke-miterlimit: 10;
        stroke-width: 5px;
      }
    </style>
  </defs>
  <g id="_레이어_1-2" data-name="레이어 1">
    <g>
      <path d="M6.87,5c1.03,0,1.87.84,1.87,1.87s-.84,1.87-1.87,1.87-1.87-.84-1.87-1.87.84-1.87,1.87-1.87M6.87,0C3.07,0,0,3.07,0,6.87s3.07,6.87,6.87,6.87,6.87-3.07,6.87-6.87S10.66,0,6.87,0h0Z"/>
      <line class="cls-1" x1="12.34" y1="6.87" x2="84.49" y2="6.87"/>
      <path d="M6.87,100.47c1.03,0,1.87.84,1.87,1.87s-.84,1.87-1.87,1.87-1.87-.84-1.87-1.87.84-1.87,1.87-1.87M6.87,95.47c-3.79,0-6.87,3.07-6.87,6.87s3.07,6.87,6.87,6.87,6.87-3.08,6.87-6.87-3.07-6.87-6.87-6.87h0Z"/>
      <line class="cls-1" x1="12.34" y1="102.34" x2="84.49" y2="102.34"/>
      <line class="cls-1" x1="6.87" y1="12.72" x2="6.87" y2="96.63"/>
    </g>
  </g>
</svg>