<?xml version="1.0" encoding="UTF-8"?>
<svg id="_레이어_2" data-name="레이어 2" xmlns="http://www.w3.org/2000/svg" viewBox="0 0 92.18 108.36">
  <defs>
    <style>
      .cls-1 {
        fill: none;
        stroke: #000;
        stroke-miterlimit: 10;
        stroke-width: 5px;
      }
    </style>
  </defs>
  <g id="_레이어_1-2" data-name="레이어 1">
    <g>
      <path d="M6.81,5c1,0,1.81.81,1.81,1.81s-.81,1.81-1.81,1.81-1.81-.81-1.81-1.81.81-1.81,1.81-1.81M6.81,0C3.05,0,0,3.05,0,6.81s3.05,6.81,6.81,6.81,6.81-3.05,6.81-6.81S10.58,0,6.81,0h0Z"/>
      <line class="cls-1" x1="12.83" y1="6.81" x2="61.72" y2="6.81"/>
      <path d="M6.81,99.73c1,0,1.81.81,1.81,1.81s-.81,1.81-1.81,1.81-1.81-.81-1.81-1.81.81-1.81,1.81-1.81M6.81,94.73c-3.76,0-6.81,3.05-6.81,6.81s3.05,6.81,6.81,6.81,6.81-3.05,6.81-6.81-3.05-6.81-6.81-6.81h0Z"/>
      <path d="M68.11,5c1,0,1.81.81,1.81,1.81s-.81,1.81-1.81,1.81-1.81-.81-1.81-1.81.81-1.81,1.81-1.81M68.11,0c-3.76,0-6.81,3.05-6.81,6.81s3.05,6.81,6.81,6.81,6.81-3.05,6.81-6.81-3.05-6.81-6.81-6.81h0Z"/>
      <path d="M85.37,20.23c1,0,1.81.81,1.81,1.81s-.81,1.81-1.81,1.81-1.81-.81-1.81-1.81.81-1.81,1.81-1.81M85.37,15.23c-3.76,0-6.81,3.05-6.81,6.81s3.05,6.81,6.81,6.81,6.81-3.05,6.81-6.81-3.05-6.81-6.81-6.81h0Z"/>
      <path d="M85.37,82.36c1,0,1.81.81,1.81,1.81s-.81,1.81-1.81,1.81-1.81-.81-1.81-1.81.81-1.81,1.81-1.81M85.37,77.36c-3.76,0-6.81,3.05-6.81,6.81s3.05,6.81,6.81,6.81,6.81-3.05,6.81-6.81-3.05-6.81-6.81-6.81h0Z"/>
      <path d="M68.11,99.73c1,0,1.81.81,1.81,1.81s-.81,1.81-1.81,1.81-1.81-.81-1.81-1.81.81-1.81,1.81-1.81M68.11,94.73c-3.76,0-6.81,3.05-6.81,6.81s3.05,6.81,6.81,6.81,6.81-3.05,6.81-6.81-3.05-6.81-6.81-6.81h0Z"/>
      <line class="cls-1" x1="13.63" y1="101.54" x2="61.72" y2="101.54"/>
      <line class="cls-1" x1="6.81" y1="12.76" x2="6.81" y2="94.73"/>
      <line class="cls-1" x1="85.37" y1="27.66" x2="85.37" y2="78.04"/>
      <line class="cls-1" x1="72.88" y1="9.88" x2="81.83" y2="17.17"/>
      <line class="cls-1" x1="83.03" y1="88.98" x2="73.03" y2="99.22"/>
    </g>
  </g>
</svg>