<?xml version="1.0" encoding="UTF-8"?>
<svg id="_레이어_2" data-name="레이어 2" xmlns="http://www.w3.org/2000/svg" viewBox="0 0 86.13 111.34">
  <defs>
    <style>
      .cls-1 {
        fill: none;
        stroke: #000;
        stroke-miterlimit: 10;
        stroke-width: 5px;
      }
    </style>
  </defs>
  <g id="_레이어_1-2" data-name="레이어 1">
    <g>
      <path d="M7,53.67c1.1,0,2,.9,2,2s-.9,2-2,2-2-.9-2-2,.9-2,2-2M7,48.67c-3.87,0-7,3.13-7,7s3.13,7,7,7,7-3.13,7-7-3.13-7-7-7h0Z"/>
      <line class="cls-1" x1="7" y1="13.25" x2="7" y2="49.64"/>
      <line class="cls-1" x1="7" y1="61.92" x2="7" y2="98.08"/>
      <path d="M7,5c1.1,0,2,.9,2,2s-.9,2-2,2-2-.9-2-2,.9-2,2-2M7,0C3.13,0,0,3.14,0,7s3.13,7,7,7,7-3.14,7-7S10.87,0,7,0h0Z"/>
      <line class="cls-1" x1="12.82" y1="7" x2="86.13" y2="7"/>
      <path d="M7,102.33c1.1,0,2,.9,2,2s-.9,2-2,2-2-.9-2-2,.9-2,2-2M7,97.33c-3.87,0-7,3.14-7,7s3.13,7,7,7,7-3.14,7-7-3.13-7-7-7h0Z"/>
      <line class="cls-1" x1="12.82" y1="104.33" x2="86.13" y2="104.33"/>
      <line class="cls-1" x1="12.82" y1="55.67" x2="86.13" y2="55.67"/>
    </g>
  </g>
</svg>