<?xml version="1.0" encoding="UTF-8"?>
<svg id="_레이어_2" data-name="레이어 2" xmlns="http://www.w3.org/2000/svg" viewBox="0 0 87.19 103.49">
  <defs>
    <style>
      .cls-1 {
        fill: none;
        stroke: #000;
        stroke-miterlimit: 10;
        stroke-width: 5px;
      }
    </style>
  </defs>
  <g id="_레이어_1-2" data-name="레이어 1">
    <g>
      <path d="M6.66,51.31c.92,0,1.66.75,1.66,1.66s-.75,1.66-1.66,1.66-1.66-.75-1.66-1.66.75-1.66,1.66-1.66M6.66,46.31c-3.68,0-6.66,2.98-6.66,6.66s2.98,6.66,6.66,6.66,6.66-2.98,6.66-6.66-2.98-6.66-6.66-6.66h0Z"/>
      <path d="M6.66,5c.92,0,1.66.75,1.66,1.66s-.75,1.66-1.66,1.66-1.66-.75-1.66-1.66.75-1.66,1.66-1.66M6.66,0C2.98,0,0,2.98,0,6.66s2.98,6.66,6.66,6.66,6.66-2.98,6.66-6.66S10.34,0,6.66,0h0Z"/>
      <line class="cls-1" x1="6.66" y1="12.08" x2="6.66" y2="47.43"/>
      <line class="cls-1" x1="6.66" y1="59.33" x2="6.66" y2="103.49"/>
      <line class="cls-1" x1="11.78" y1="6.66" x2="87.19" y2="6.66"/>
      <line class="cls-1" x1="11.78" y1="52.98" x2="87.19" y2="52.98"/>
    </g>
  </g>
</svg>