<?xml version="1.0" encoding="UTF-8"?>
<svg id="_레이어_2" data-name="레이어 2" xmlns="http://www.w3.org/2000/svg" viewBox="0 0 89.25 106.35">
  <defs>
    <style>
      .cls-1 {
        fill: none;
        stroke: #000;
        stroke-miterlimit: 10;
        stroke-width: 5px;
      }
    </style>
  </defs>
  <g id="_레이어_1-2" data-name="레이어 1">
    <g>
      <path d="M6.69,5c.93,0,1.69.76,1.69,1.69s-.76,1.69-1.69,1.69-1.69-.76-1.69-1.69.76-1.69,1.69-1.69M6.69,0C2.99,0,0,2.99,0,6.69s2.99,6.69,6.69,6.69,6.69-2.99,6.69-6.69S10.38,0,6.69,0h0Z"/>
      <line class="cls-1" x1="12" y1="6.69" x2="87.75" y2="6.69"/>
      <path d="M6.69,97.98c.93,0,1.69.76,1.69,1.69s-.76,1.69-1.69,1.69-1.69-.76-1.69-1.69.76-1.69,1.69-1.69M6.69,92.98c-3.69,0-6.69,2.99-6.69,6.69s2.99,6.69,6.69,6.69,6.69-2.99,6.69-6.69-2.99-6.69-6.69-6.69h0Z"/>
      <path d="M82.56,97.98c.93,0,1.69.76,1.69,1.69s-.76,1.69-1.69,1.69-1.69-.76-1.69-1.69.76-1.69,1.69-1.69M82.56,92.98c-3.69,0-6.69,2.99-6.69,6.69s2.99,6.69,6.69,6.69,6.69-2.99,6.69-6.69-2.99-6.69-6.69-6.69h0Z"/>
      <path d="M82.56,68.24c.93,0,1.69.76,1.69,1.69s-.76,1.69-1.69,1.69-1.69-.76-1.69-1.69.76-1.69,1.69-1.69M82.56,63.24c-3.69,0-6.69,2.99-6.69,6.69s2.99,6.69,6.69,6.69,6.69-2.99,6.69-6.69-2.99-6.69-6.69-6.69h0Z"/>
      <line class="cls-1" x1="12" y1="99.66" x2="77.25" y2="99.66"/>
      <line class="cls-1" x1="6.69" y1="12.44" x2="6.69" y2="94.04"/>
      <line class="cls-1" x1="82.56" y1="94.41" x2="82.56" y2="75.7"/>
      <line class="cls-1" x1="77.25" y1="69.92" x2="47.47" y2="69.92"/>
    </g>
  </g>
</svg>