<?xml version="1.0" encoding="UTF-8"?>
<svg id="_레이어_2" data-name="레이어 2" xmlns="http://www.w3.org/2000/svg" viewBox="0 0 93.24 106.43">
  <defs>
    <style>
      .cls-1 {
        fill: none;
        stroke: #000;
        stroke-miterlimit: 10;
        stroke-width: 5px;
      }
    </style>
  </defs>
  <g id="_레이어_1-2" data-name="레이어 1">
    <g>
      <path d="M6.85,50.08c1.02,0,1.85.83,1.85,1.85s-.83,1.85-1.85,1.85-1.85-.83-1.85-1.85.83-1.85,1.85-1.85M6.85,45.08c-3.79,0-6.85,3.07-6.85,6.85s3.07,6.85,6.85,6.85,6.85-3.07,6.85-6.85-3.07-6.85-6.85-6.85h0Z"/>
      <path d="M86.39,50.08c1.02,0,1.85.83,1.85,1.85s-.83,1.85-1.85,1.85-1.85-.83-1.85-1.85.83-1.85,1.85-1.85M86.39,45.08c-3.79,0-6.85,3.07-6.85,6.85s3.07,6.85,6.85,6.85,6.85-3.07,6.85-6.85-3.07-6.85-6.85-6.85h0Z"/>
      <line class="cls-1" x1="6.85" x2="6.85" y2="46.43"/>
      <line class="cls-1" x1="6.85" y1="57.68" x2="6.85" y2="106.43"/>
      <line class="cls-1" x1="86.39" x2="86.39" y2="46.43"/>
      <line class="cls-1" x1="86.39" y1="57.68" x2="86.39" y2="106.43"/>
      <line class="cls-1" x1="12.54" y1="51.93" x2="80.5" y2="51.93"/>
    </g>
  </g>
</svg>