<?xml version="1.0" encoding="UTF-8"?>
<svg id="_레이어_2" data-name="레이어 2" xmlns="http://www.w3.org/2000/svg" viewBox="0 0 105.77 107.72">
  <defs>
    <style>
      .cls-1 {
        fill: none;
        stroke: #000;
        stroke-miterlimit: 10;
        stroke-width: 5px;
      }
    </style>
  </defs>
  <g id="_레이어_1-2" data-name="레이어 1">
    <g>
      <path d="M51.61,99.09c1,0,1.81.81,1.81,1.81s-.81,1.81-1.81,1.81-1.81-.81-1.81-1.81.81-1.81,1.81-1.81M51.61,94.09c-3.76,0-6.81,3.05-6.81,6.81s3.05,6.81,6.81,6.81,6.81-3.05,6.81-6.81-3.05-6.81-6.81-6.81h0Z"/>
      <path d="M51.61,5c1,0,1.81.81,1.81,1.81s-.81,1.81-1.81,1.81-1.81-.81-1.81-1.81.81-1.81,1.81-1.81M51.61,0c-3.76,0-6.81,3.05-6.81,6.81s3.05,6.81,6.81,6.81,6.81-3.05,6.81-6.81-3.05-6.81-6.81-6.81h0Z"/>
      <line class="cls-1" y1="100.9" x2="46.1" y2="100.9"/>
      <line class="cls-1" x1="57.42" y1="100.9" x2="105.77" y2="100.9"/>
      <line class="cls-1" y1="6.81" x2="46.1" y2="6.81"/>
      <line class="cls-1" x1="57.42" y1="6.81" x2="105.77" y2="6.81"/>
      <line class="cls-1" x1="51.61" y1="94.97" x2="51.61" y2="12.26"/>
    </g>
  </g>
</svg>