<?xml version="1.0" encoding="UTF-8"?>
<svg id="_레이어_2" data-name="레이어 2" xmlns="http://www.w3.org/2000/svg" viewBox="0 0 91.3 107.16">
  <defs>
    <style>
      .cls-1 {
        fill: none;
        stroke: #000;
        stroke-miterlimit: 10;
        stroke-width: 5px;
      }
    </style>
  </defs>
  <g id="_레이어_1-2" data-name="레이어 1">
    <g>
      <path d="M69.19,5c.98,0,1.78.8,1.78,1.78s-.8,1.78-1.78,1.78-1.78-.8-1.78-1.78.8-1.78,1.78-1.78M69.19,0c-3.74,0-6.78,3.03-6.78,6.78s3.03,6.78,6.78,6.78,6.78-3.03,6.78-6.78-3.03-6.78-6.78-6.78h0Z"/>
      <path d="M69.19,98.61c.98,0,1.78.8,1.78,1.78s-.8,1.78-1.78,1.78-1.78-.8-1.78-1.78.8-1.78,1.78-1.78M69.19,93.61c-3.74,0-6.78,3.03-6.78,6.78s3.03,6.78,6.78,6.78,6.78-3.03,6.78-6.78-3.03-6.78-6.78-6.78h0Z"/>
      <path d="M6.78,98.61c.98,0,1.78.8,1.78,1.78s-.8,1.78-1.78,1.78-1.78-.8-1.78-1.78.8-1.78,1.78-1.78M6.78,93.61c-3.74,0-6.78,3.03-6.78,6.78s3.03,6.78,6.78,6.78,6.78-3.03,6.78-6.78-3.03-6.78-6.78-6.78h0Z"/>
      <line class="cls-1" x1="5.33" y1="6.78" x2="63.61" y2="6.78"/>
      <line class="cls-1" x1="11.75" y1="100.38" x2="63.18" y2="100.38"/>
      <line class="cls-1" x1="6.78" y1="64.9" x2="6.78" y2="95.58"/>
      <line class="cls-1" x1="75.04" y1="6.78" x2="91.3" y2="6.78"/>
      <line class="cls-1" x1="69.19" y1="94.99" x2="69.19" y2="12.25"/>
    </g>
  </g>
</svg>