<?xml version="1.0" encoding="UTF-8"?>
<svg id="_레이어_2" data-name="레이어 2" xmlns="http://www.w3.org/2000/svg" viewBox="0 0 90.08 104.29">
  <defs>
    <style>
      .cls-1 {
        fill: none;
        stroke: #000;
        stroke-miterlimit: 10;
        stroke-width: 5px;
      }
    </style>
  </defs>
  <g id="_레이어_1-2" data-name="레이어 1">
    <g>
      <path d="M6.7,49.06c.94,0,1.7.76,1.7,1.7s-.76,1.7-1.7,1.7-1.7-.76-1.7-1.7.76-1.7,1.7-1.7M6.7,44.06c-3.7,0-6.7,3-6.7,6.7s3,6.7,6.7,6.7,6.7-3,6.7-6.7-3-6.7-6.7-6.7h0Z"/>
      <path d="M43.38,49.06c.94,0,1.7.76,1.7,1.7s-.76,1.7-1.7,1.7-1.7-.76-1.7-1.7.76-1.7,1.7-1.7M43.38,44.06c-3.7,0-6.7,3-6.7,6.7s3,6.7,6.7,6.7,6.7-3,6.7-6.7-3-6.7-6.7-6.7h0Z"/>
      <path d="M83.38,49.06c.94,0,1.7.76,1.7,1.7s-.76,1.7-1.7,1.7-1.7-.76-1.7-1.7.76-1.7,1.7-1.7M83.38,44.06c-3.7,0-6.7,3-6.7,6.7s3,6.7,6.7,6.7,6.7-3,6.7-6.7-3-6.7-6.7-6.7h0Z"/>
      <line class="cls-1" x1="6.7" x2="6.7" y2="45.15"/>
      <line class="cls-1" x1="6.7" y1="56.52" x2="6.7" y2="104.04"/>
      <line class="cls-1" x1="12.05" y1="50.76" x2="38.32" y2="50.76"/>
      <line class="cls-1" x1="49.02" y1="50.76" x2="77.9" y2="50.76"/>
      <line class="cls-1" x1="83.38" y1="56.52" x2="83.38" y2="104.29"/>
      <line class="cls-1" x1="45.24" y1="45.01" x2="85.63" y2="3.04"/>
    </g>
  </g>
</svg>