<?xml version="1.0" encoding="UTF-8"?>
<svg id="_레이어_2" data-name="레이어 2" xmlns="http://www.w3.org/2000/svg" viewBox="0 0 91.18 107.72">
  <defs>
    <style>
      .cls-1 {
        fill: none;
        stroke: #000;
        stroke-miterlimit: 10;
        stroke-width: 5px;
      }
    </style>
  </defs>
  <g id="_레이어_1-2" data-name="레이어 1">
    <g>
      <path d="M6.69,21.6c.93,0,1.69.76,1.69,1.69s-.76,1.69-1.69,1.69-1.69-.76-1.69-1.69.76-1.69,1.69-1.69M6.69,16.6c-3.7,0-6.69,3-6.69,6.69s3,6.69,6.69,6.69,6.69-3,6.69-6.69-3-6.69-6.69-6.69h0Z"/>
      <path d="M22.03,5.95c.93,0,1.69.76,1.69,1.69s-.76,1.69-1.69,1.69-1.69-.76-1.69-1.69.76-1.69,1.69-1.69M22.03.95c-3.7,0-6.69,3-6.69,6.69s3,6.69,6.69,6.69,6.69-3,6.69-6.69S25.73.95,22.03.95h0Z"/>
      <path d="M69.2,99.33c.93,0,1.69.76,1.69,1.69s-.76,1.69-1.69,1.69-1.69-.76-1.69-1.69.76-1.69,1.69-1.69M69.2,94.33c-3.7,0-6.69,3-6.69,6.69s3,6.69,6.69,6.69,6.69-3,6.69-6.69-3-6.69-6.69-6.69h0Z"/>
      <path d="M84.49,83.04c.93,0,1.69.76,1.69,1.69s-.76,1.69-1.69,1.69-1.69-.76-1.69-1.69.76-1.69,1.69-1.69M84.49,78.04c-3.7,0-6.69,3-6.69,6.69s3,6.69,6.69,6.69,6.69-3,6.69-6.69-3-6.69-6.69-6.69h0Z"/>
      <path d="M7.19,83.54c.93,0,1.69.76,1.69,1.69s-.76,1.69-1.69,1.69-1.69-.76-1.69-1.69.76-1.69,1.69-1.69M7.19,78.54c-3.7,0-6.69,3-6.69,6.69s3,6.69,6.69,6.69,6.69-3,6.69-6.69-3-6.69-6.69-6.69h0Z"/>
      <path d="M23.48,98.83c.93,0,1.69.76,1.69,1.69s-.76,1.69-1.69,1.69-1.69-.76-1.69-1.69.76-1.69,1.69-1.69M23.48,93.83c-3.7,0-6.69,3-6.69,6.69s3,6.69,6.69,6.69,6.69-3,6.69-6.69-3-6.69-6.69-6.69h0Z"/>
      <path d="M67.75,5c.93,0,1.69.76,1.69,1.69s-.76,1.69-1.69,1.69-1.69-.76-1.69-1.69.76-1.69,1.69-1.69M67.75,0c-3.7,0-6.69,3-6.69,6.69s3,6.69,6.69,6.69,6.69-3,6.69-6.69-3-6.69-6.69-6.69h0Z"/>
      <path d="M84.04,21.6c.93,0,1.69.76,1.69,1.69s-.76,1.69-1.69,1.69-1.69-.76-1.69-1.69.76-1.69,1.69-1.69M84.04,16.6c-3.7,0-6.69,3-6.69,6.69s3,6.69,6.69,6.69,6.69-3,6.69-6.69-3-6.69-6.69-6.69h0Z"/>
      <line class="cls-1" x1="28.73" y1="7.64" x2="61.05" y2="7.64"/>
      <line class="cls-1" x1="30.18" y1="100.52" x2="62.5" y2="100.52"/>
      <line class="cls-1" x1="6.69" y1="29.99" x2="6.69" y2="78.54"/>
      <line class="cls-1" x1="84.49" y1="29.99" x2="84.49" y2="78.54"/>
      <line class="cls-1" x1="11.34" y1="90.48" x2="17.7" y2="97.16"/>
      <line class="cls-1" x1="82.12" y1="90.99" x2="75.17" y2="98"/>
      <line class="cls-1" x1="9.91" y1="17.43" x2="16.36" y2="11.2"/>
      <line class="cls-1" x1="73.5" y1="10.11" x2="80.82" y2="17.43"/>
    </g>
  </g>
</svg>