<?xml version="1.0" encoding="UTF-8"?>
<svg id="_레이어_2" data-name="레이어 2" xmlns="http://www.w3.org/2000/svg" viewBox="0 0 89.21 104.76">
  <defs>
    <style>
      .cls-1 {
        fill: none;
        stroke: #000;
        stroke-miterlimit: 10;
        stroke-width: 5px;
      }
    </style>
  </defs>
  <g id="_레이어_1-2" data-name="레이어 1">
    <g>
      <path d="M6.72,5c.95,0,1.72.77,1.72,1.72s-.77,1.72-1.72,1.72-1.72-.77-1.72-1.72.77-1.72,1.72-1.72M6.72,0C3.01,0,0,3.01,0,6.72s3.01,6.72,6.72,6.72,6.72-3.01,6.72-6.72S10.43,0,6.72,0h0Z"/>
      <path d="M6.72,49.36c.95,0,1.72.77,1.72,1.72s-.77,1.72-1.72,1.72-1.72-.77-1.72-1.72.77-1.72,1.72-1.72M6.72,44.36c-3.71,0-6.72,3.01-6.72,6.72s3.01,6.72,6.72,6.72,6.72-3.01,6.72-6.72-3.01-6.72-6.72-6.72h0Z"/>
      <line class="cls-1" x1="13.44" y1="6.72" x2="75.77" y2="6.72"/>
      <line class="cls-1" x1="13.44" y1="51.07" x2="75.77" y2="51.07"/>
      <line class="cls-1" x1="6.72" y1="13.44" x2="6.72" y2="44.36"/>
      <line class="cls-1" x1="6.72" y1="57.41" x2="6.72" y2="104.76"/>
      <path d="M82.49,5c.95,0,1.72.77,1.72,1.72s-.77,1.72-1.72,1.72-1.72-.77-1.72-1.72.77-1.72,1.72-1.72M82.49,0c-3.71,0-6.72,3.01-6.72,6.72s3.01,6.72,6.72,6.72,6.72-3.01,6.72-6.72-3.01-6.72-6.72-6.72h0Z"/>
      <path d="M82.49,49.36c.95,0,1.72.77,1.72,1.72s-.77,1.72-1.72,1.72-1.72-.77-1.72-1.72.77-1.72,1.72-1.72M82.49,44.36c-3.71,0-6.72,3.01-6.72,6.72s3.01,6.72,6.72,6.72,6.72-3.01,6.72-6.72-3.01-6.72-6.72-6.72h0Z"/>
      <line class="cls-1" x1="82.49" y1="13.44" x2="82.49" y2="44.36"/>
    </g>
  </g>
</svg>