<?xml version="1.0" encoding="UTF-8"?>
<svg id="_레이어_2" data-name="레이어 2" xmlns="http://www.w3.org/2000/svg" viewBox="0 0 90.08 105.78">
  <defs>
    <style>
      .cls-1 {
        fill: none;
        stroke: #000;
        stroke-miterlimit: 10;
        stroke-width: 5px;
      }
    </style>
  </defs>
  <g id="_레이어_1-2" data-name="레이어 1">
    <g>
      <path d="M6.66,20.58c.92,0,1.66.75,1.66,1.66s-.75,1.66-1.66,1.66-1.66-.75-1.66-1.66.75-1.66,1.66-1.66M6.66,15.58c-3.68,0-6.66,2.98-6.66,6.66s2.98,6.66,6.66,6.66,6.66-2.98,6.66-6.66-2.98-6.66-6.66-6.66h0Z"/>
      <path d="M21.93,5c.92,0,1.66.75,1.66,1.66s-.75,1.66-1.66,1.66-1.66-.75-1.66-1.66.75-1.66,1.66-1.66M21.93,0c-3.68,0-6.66,2.98-6.66,6.66s2.98,6.66,6.66,6.66,6.66-2.98,6.66-6.66S25.61,0,21.93,0h0Z"/>
      <path d="M82.7,20.58c.92,0,1.66.75,1.66,1.66s-.75,1.66-1.66,1.66-1.66-.75-1.66-1.66.75-1.66,1.66-1.66M82.7,15.58c-3.68,0-6.66,2.98-6.66,6.66s2.98,6.66,6.66,6.66,6.66-2.98,6.66-6.66-2.98-6.66-6.66-6.66h0Z"/>
      <path d="M67.44,5c.92,0,1.66.75,1.66,1.66s-.75,1.66-1.66,1.66-1.66-.75-1.66-1.66.75-1.66,1.66-1.66M67.44,0c-3.68,0-6.66,2.98-6.66,6.66s2.98,6.66,6.66,6.66,6.66-2.98,6.66-6.66-2.98-6.66-6.66-6.66h0Z"/>
      <path d="M7.16,82.23c.92,0,1.66.75,1.66,1.66s-.75,1.66-1.66,1.66-1.66-.75-1.66-1.66.75-1.66,1.66-1.66M7.16,77.23c-3.68,0-6.66,2.98-6.66,6.66s2.98,6.66,6.66,6.66,6.66-2.98,6.66-6.66-2.98-6.66-6.66-6.66h0Z"/>
      <path d="M23.38,97.45c.92,0,1.66.75,1.66,1.66s-.75,1.66-1.66,1.66-1.66-.75-1.66-1.66.75-1.66,1.66-1.66M23.38,92.45c-3.68,0-6.66,2.98-6.66,6.66s2.98,6.66,6.66,6.66,6.66-2.98,6.66-6.66-2.98-6.66-6.66-6.66h0Z"/>
      <path d="M83.42,66.79c.92,0,1.66.75,1.66,1.66s-.75,1.66-1.66,1.66-1.66-.75-1.66-1.66.75-1.66,1.66-1.66M83.42,61.79c-3.68,0-6.66,2.98-6.66,6.66s2.98,6.66,6.66,6.66,6.66-2.98,6.66-6.66-2.98-6.66-6.66-6.66h0Z"/>
      <path d="M74.74,87.46c.92,0,1.66.75,1.66,1.66s-.75,1.66-1.66,1.66-1.66-.75-1.66-1.66.75-1.66,1.66-1.66M74.74,82.46c-3.68,0-6.66,2.98-6.66,6.66s2.98,6.66,6.66,6.66,6.66-2.98,6.66-6.66-2.98-6.66-6.66-6.66h0Z"/>
      <path d="M54.77,97.45c.92,0,1.66.75,1.66,1.66s-.75,1.66-1.66,1.66-1.66-.75-1.66-1.66.75-1.66,1.66-1.66M54.77,92.45c-3.68,0-6.66,2.98-6.66,6.66s2.98,6.66,6.66,6.66,6.66-2.98,6.66-6.66-2.98-6.66-6.66-6.66h0Z"/>
      <line class="cls-1" x1="27.55" y1="6.66" x2="61.77" y2="6.66"/>
      <line class="cls-1" x1="29.42" y1="99.11" x2="49.07" y2="99.11"/>
      <line class="cls-1" x1="6.66" y1="28.12" x2="6.66" y2="77.94"/>
      <line class="cls-1" x1="10.63" y1="88.49" x2="18.37" y2="95.95"/>
      <line class="cls-1" x1="8.84" y1="17.42" x2="16.92" y2="9.57"/>
      <line class="cls-1" x1="71.86" y1="10.02" x2="79.38" y2="17.7"/>
      <line class="cls-1" x1="83.42" y1="28.12" x2="83.42" y2="62.17"/>
      <line class="cls-1" x1="60.22" y1="99.29" x2="71.98" y2="93.41"/>
      <line class="cls-1" x1="78.67" y1="85.35" x2="82.42" y2="73.82"/>
      <line class="cls-1" x1="71.35" y1="85.35" x2="62.95" y2="76"/>
      <line class="cls-1" x1="77.62" y1="92.45" x2="88.16" y2="103.56"/>
    </g>
  </g>
</svg>