<?xml version="1.0" encoding="UTF-8"?>
<svg id="_레이어_2" data-name="레이어 2" xmlns="http://www.w3.org/2000/svg" viewBox="0 0 89.84 105.98">
  <defs>
    <style>
      .cls-1 {
        fill: none;
        stroke: #000;
        stroke-miterlimit: 10;
        stroke-width: 5px;
      }
    </style>
  </defs>
  <g id="_레이어_1-2" data-name="레이어 1">
    <g>
      <path d="M6.77,5c.97,0,1.77.79,1.77,1.77s-.79,1.77-1.77,1.77-1.77-.79-1.77-1.77.79-1.77,1.77-1.77M6.77,0C3.03,0,0,3.03,0,6.77s3.03,6.77,6.77,6.77,6.77-3.03,6.77-6.77S10.5,0,6.77,0h0Z"/>
      <path d="M6.77,51.24c.97,0,1.77.79,1.77,1.77s-.79,1.77-1.77,1.77-1.77-.79-1.77-1.77.79-1.77,1.77-1.77M6.77,46.24c-3.74,0-6.77,3.03-6.77,6.77s3.03,6.77,6.77,6.77,6.77-3.03,6.77-6.77-3.03-6.77-6.77-6.77h0Z"/>
      <path d="M36.27,51.24c.97,0,1.77.79,1.77,1.77s-.79,1.77-1.77,1.77-1.77-.79-1.77-1.77.79-1.77,1.77-1.77M36.27,46.24c-3.74,0-6.77,3.03-6.77,6.77s3.03,6.77,6.77,6.77,6.77-3.03,6.77-6.77-3.03-6.77-6.77-6.77h0Z"/>
      <line class="cls-1" x1="12.45" y1="6.77" x2="77.36" y2="6.77"/>
      <line class="cls-1" x1="6.77" y1="12.17" x2="6.77" y2="47.09"/>
      <line class="cls-1" x1="6.77" y1="59" x2="6.77" y2="105.51"/>
      <path d="M83.08,5c.97,0,1.77.79,1.77,1.77s-.79,1.77-1.77,1.77-1.77-.79-1.77-1.77.79-1.77,1.77-1.77M83.08,0c-3.74,0-6.77,3.03-6.77,6.77s3.03,6.77,6.77,6.77,6.77-3.03,6.77-6.77-3.03-6.77-6.77-6.77h0Z"/>
      <path d="M83.08,51.24c.97,0,1.77.79,1.77,1.77s-.79,1.77-1.77,1.77-1.77-.79-1.77-1.77.79-1.77,1.77-1.77M83.08,46.24c-3.74,0-6.77,3.03-6.77,6.77s3.03,6.77,6.77,6.77,6.77-3.03,6.77-6.77-3.03-6.77-6.77-6.77h0Z"/>
      <line class="cls-1" x1="83.08" y1="12.53" x2="83.08" y2="47.37"/>
      <line class="cls-1" x1="12.72" y1="53.01" x2="30.45" y2="53.01"/>
      <line class="cls-1" x1="42.27" y1="53.01" x2="76.92" y2="53.01"/>
      <line class="cls-1" x1="40.79" y1="56.74" x2="86.64" y2="104.24"/>
    </g>
  </g>
</svg>