<?xml version="1.0" encoding="UTF-8"?>
<svg id="_레이어_2" data-name="레이어 2" xmlns="http://www.w3.org/2000/svg" viewBox="0 0 90.01 104.24">
  <defs>
    <style>
      .cls-1 {
        fill: none;
        stroke: #000;
        stroke-miterlimit: 10;
        stroke-width: 5px;
      }
    </style>
  </defs>
  <g id="_레이어_1-2" data-name="레이어 1">
    <g>
      <path d="M6.65,5c.91,0,1.65.74,1.65,1.65s-.74,1.65-1.65,1.65-1.65-.74-1.65-1.65.74-1.65,1.65-1.65M6.65,0C2.98,0,0,2.98,0,6.65s2.98,6.65,6.65,6.65,6.65-2.98,6.65-6.65S10.33,0,6.65,0h0Z"/>
      <path d="M6.65,50.47c.91,0,1.65.74,1.65,1.65s-.74,1.65-1.65,1.65-1.65-.74-1.65-1.65.74-1.65,1.65-1.65M6.65,45.47c-3.67,0-6.65,2.98-6.65,6.65s2.98,6.65,6.65,6.65,6.65-2.98,6.65-6.65-2.98-6.65-6.65-6.65h0Z"/>
      <line class="cls-1" x1="6.65" y1="12.06" x2="6.65" y2="46.69"/>
      <path d="M83.36,50.47c.91,0,1.65.74,1.65,1.65s-.74,1.65-1.65,1.65-1.65-.74-1.65-1.65.74-1.65,1.65-1.65M83.36,45.47c-3.67,0-6.65,2.98-6.65,6.65s2.98,6.65,6.65,6.65,6.65-2.98,6.65-6.65-2.98-6.65-6.65-6.65h0Z"/>
      <path d="M83.36,95.93c.91,0,1.65.74,1.65,1.65s-.74,1.65-1.65,1.65-1.65-.74-1.65-1.65.74-1.65,1.65-1.65M83.36,90.93c-3.67,0-6.65,2.98-6.65,6.65s2.98,6.65,6.65,6.65,6.65-2.98,6.65-6.65-2.98-6.65-6.65-6.65h0Z"/>
      <line class="cls-1" x1="83.36" y1="58.09" x2="83.36" y2="92.11"/>
      <line class="cls-1" x1="11.81" y1="6.65" x2="81.84" y2="6.65"/>
      <line class="cls-1" x1="8.17" y1="97.58" x2="77.81" y2="97.58"/>
      <line class="cls-1" x1="12.44" y1="52.12" x2="77.81" y2="52.12"/>
    </g>
  </g>
</svg>