<?xml version="1.0" encoding="UTF-8"?>
<svg id="_레이어_2" data-name="레이어 2" xmlns="http://www.w3.org/2000/svg" viewBox="0 0 92.25 102.39">
  <defs>
    <style>
      .cls-1 {
        fill: none;
        stroke: #000;
        stroke-miterlimit: 10;
        stroke-width: 5px;
      }
    </style>
  </defs>
  <g id="_레이어_1-2" data-name="레이어 1">
    <g>
      <path d="M6.84,93.72c1.01,0,1.84.82,1.84,1.84s-.82,1.84-1.84,1.84-1.84-.82-1.84-1.84.82-1.84,1.84-1.84M6.84,88.72c-3.78,0-6.84,3.06-6.84,6.84s3.06,6.84,6.84,6.84,6.84-3.06,6.84-6.84-3.06-6.84-6.84-6.84h0Z"/>
      <path d="M85.41,93.72c1.01,0,1.84.82,1.84,1.84s-.82,1.84-1.84,1.84-1.84-.82-1.84-1.84.82-1.84,1.84-1.84M85.41,88.72c-3.78,0-6.84,3.06-6.84,6.84s3.06,6.84,6.84,6.84,6.84-3.06,6.84-6.84-3.06-6.84-6.84-6.84h0Z"/>
      <line class="cls-1" x1="6.84" x2="6.84" y2="89.7"/>
      <line class="cls-1" x1="85.41" x2="85.41" y2="89.7"/>
      <line class="cls-1" x1="13.55" y1="95.56" x2="78.77" y2="95.56"/>
    </g>
  </g>
</svg>