<?xml version="1.0" encoding="UTF-8"?>
<svg id="_레이어_2" data-name="레이어 2" xmlns="http://www.w3.org/2000/svg" viewBox="0 0 106.56 99.7">
  <defs>
    <style>
      .cls-1 {
        fill: none;
        stroke: #000;
        stroke-miterlimit: 10;
        stroke-width: 5px;
      }
    </style>
  </defs>
  <g id="_레이어_1-2" data-name="레이어 1">
    <g>
      <path d="M53.28,48.17c.93,0,1.68.75,1.68,1.68s-.75,1.68-1.68,1.68-1.68-.75-1.68-1.68.75-1.68,1.68-1.68M53.28,43.17c-3.69,0-6.68,2.99-6.68,6.68s2.99,6.68,6.68,6.68,6.68-2.99,6.68-6.68-2.99-6.68-6.68-6.68h0Z"/>
      <path d="M6.68,48.17c.93,0,1.68.75,1.68,1.68s-.75,1.68-1.68,1.68-1.68-.75-1.68-1.68.75-1.68,1.68-1.68M6.68,43.17c-3.69,0-6.68,2.99-6.68,6.68s2.99,6.68,6.68,6.68,6.68-2.99,6.68-6.68-2.99-6.68-6.68-6.68h0Z"/>
      <path d="M99.87,48.17c.93,0,1.68.75,1.68,1.68s-.75,1.68-1.68,1.68-1.68-.75-1.68-1.68.75-1.68,1.68-1.68M99.87,43.17c-3.69,0-6.68,2.99-6.68,6.68s2.99,6.68,6.68,6.68,6.68-2.99,6.68-6.68-2.99-6.68-6.68-6.68h0Z"/>
      <line class="cls-1" x1="12.96" y1="49.85" x2="47.32" y2="49.85"/>
      <line class="cls-1" x1="59.64" y1="49.85" x2="94.02" y2="49.85"/>
      <line class="cls-1" x1="6.68" y1="43.82" x2="6.68"/>
      <line class="cls-1" x1="99.87" y1="43.82" x2="99.87"/>
      <line class="cls-1" x1="53.28" y1="99.7" x2="53.28" y2="56.24"/>
    </g>
  </g>
</svg>