<?xml version="1.0" encoding="UTF-8"?>
<svg id="_레이어_2" data-name="레이어 2" xmlns="http://www.w3.org/2000/svg" viewBox="0 0 104.78 105.51">
  <defs>
    <style>
      .cls-1 {
        fill: none;
        stroke: #000;
        stroke-miterlimit: 10;
        stroke-width: 5px;
      }
    </style>
  </defs>
  <g id="_레이어_1-2" data-name="레이어 1">
    <g>
      <path d="M6.57,97.38c.86,0,1.57.7,1.57,1.57s-.7,1.57-1.57,1.57-1.57-.7-1.57-1.57.7-1.57,1.57-1.57M6.57,92.38c-3.63,0-6.57,2.94-6.57,6.57s2.94,6.57,6.57,6.57,6.57-2.94,6.57-6.57-2.94-6.57-6.57-6.57h0Z"/>
      <path d="M98.21,5c.86,0,1.57.7,1.57,1.57s-.7,1.57-1.57,1.57-1.57-.7-1.57-1.57.7-1.57,1.57-1.57M98.21,0c-3.63,0-6.57,2.94-6.57,6.57s2.94,6.57,6.57,6.57,6.57-2.94,6.57-6.57-2.94-6.57-6.57-6.57h0Z"/>
      <line class="cls-1" x1="92.37" y1="6.57" x2="5.11" y2="6.57"/>
      <line class="cls-1" x1="101.68" y1="98.95" x2="11.99" y2="98.95"/>
      <line class="cls-1" x1="9.71" y1="94.88" x2="94.77" y2="10.7"/>
    </g>
  </g>
</svg>