<?xml version="1.0" encoding="UTF-8"?>
<svg id="_레이어_2" data-name="레이어 2" xmlns="http://www.w3.org/2000/svg" viewBox="0 0 77.42 124.31">
  <g id="_레이어_1-2" data-name="레이어 1">
    <g>
      <g>
        <path d="M17.64,116.64c-1.32-2.25-2.09-4.88-2.1-7.67,2.82,0,5.45.76,7.72,2.08-2.32,1.34-4.26,3.27-5.62,5.59Z"/>
        <path d="M15.54,108.73c.02-2.79.78-5.42,2.1-7.67,1.35,2.32,3.29,4.25,5.62,5.59-2.27,1.32-4.9,2.07-7.72,2.08Z"/>
        <path d="M54.19,122.23c2.32-1.34,4.26-3.27,5.62-5.59,1.32,2.25,2.09,4.88,2.1,7.67-2.82,0-5.45-.76-7.72-2.08Z"/>
        <path d="M59.81,116.63c-1.35-2.32-3.29-4.25-5.62-5.59,2.27-1.32,4.9-2.07,7.72-2.08-.02,2.79-.78,5.41-2.1,7.67Z"/>
        <path d="M61.95,124.31c.02-2.79.78-5.42,2.1-7.67,1.35,2.32,3.29,4.25,5.61,5.59-2.26,1.32-4.9,2.07-7.71,2.08Z"/>
        <path d="M64.05,116.63c-1.32-2.25-2.09-4.87-2.1-7.67,2.81,0,5.45.76,7.71,2.08-2.32,1.34-4.26,3.27-5.61,5.59Z"/>
        <path d="M75.27,116.64c-1.35-2.32-3.29-4.25-5.62-5.59,2.27-1.32,4.91-2.07,7.72-2.08-.02,2.79-.78,5.42-2.1,7.67Z"/>
        <path d="M69.66,106.65c2.33-1.34,4.27-3.27,5.62-5.59,1.32,2.25,2.09,4.88,2.1,7.67-2.81,0-5.45-.76-7.72-2.08Z"/>
        <path d="M48.57,101.02c-1.32-2.25-2.09-4.88-2.1-7.67,2.82,0,5.45.76,7.72,2.08-2.32,1.34-4.26,3.27-5.62,5.59Z"/>
        <path d="M46.47,93.11c.02-2.79.78-5.42,2.1-7.67,1.35,2.32,3.29,4.25,5.62,5.59-2.27,1.32-4.9,2.07-7.72,2.08Z"/>
        <path d="M75.27,101.02c-1.35-2.32-3.29-4.25-5.62-5.59,2.27-1.32,4.91-2.07,7.72-2.08-.02,2.79-.78,5.42-2.1,7.67Z"/>
        <path d="M69.66,91.03c2.33-1.34,4.27-3.27,5.62-5.59,1.32,2.25,2.09,4.88,2.1,7.67-2.81,0-5.45-.76-7.72-2.08Z"/>
      </g>
      <g>
        <path d="M38.61,95.41c2.25-1.32,4.88-2.09,7.67-2.1,0,2.82-.76,5.45-2.08,7.72-1.34-2.32-3.27-4.26-5.59-5.62Z"/>
        <path d="M46.51,93.31c2.79.02,5.42.78,7.67,2.1-2.32,1.35-4.25,3.29-5.59,5.62-1.32-2.27-2.07-4.9-2.08-7.72Z"/>
        <path d="M33.01,116.5c1.34,2.32,3.27,4.26,5.59,5.62-2.25,1.32-4.88,2.09-7.67,2.1,0-2.82.76-5.45,2.08-7.72Z"/>
        <path d="M7.68,106.64c2.32-1.35,4.25-3.29,5.59-5.62,1.32,2.27,2.07,4.9,2.08,7.72-2.79-.02-5.41-.78-7.67-2.1Z"/>
        <path d="M30.93,93.37c2.79.02,5.42.78,7.67,2.1-2.32,1.35-4.25,3.29-5.59,5.61-1.32-2.26-2.07-4.9-2.08-7.71Z"/>
        <path d="M7.68,110.89c2.25-1.32,4.87-2.09,7.67-2.1,0,2.81-.76,5.45-2.08,7.71-1.34-2.32-3.27-4.26-5.59-5.61Z"/>
        <path d="M38.61,122.11c2.32-1.35,4.25-3.29,5.59-5.62,1.32,2.27,2.07,4.91,2.08,7.72-2.79-.02-5.42-.78-7.67-2.1Z"/>
        <path d="M48.59,116.5c1.34,2.33,3.27,4.27,5.59,5.62-2.25,1.32-4.88,2.09-7.67,2.1,0-2.81.76-5.45,2.08-7.72Z"/>
        <path d="M54.23,95.41c2.25-1.32,4.88-2.09,7.67-2.1,0,2.82-.76,5.45-2.08,7.72-1.34-2.32-3.27-4.26-5.59-5.62Z"/>
        <path d="M62.13,93.31c2.79.02,5.42.78,7.67,2.1-2.32,1.35-4.25,3.29-5.59,5.62-1.32-2.27-2.07-4.9-2.08-7.72Z"/>
        <path d="M54.23,122.11c2.32-1.35,4.25-3.29,5.59-5.62,1.32,2.27,2.07,4.91,2.08,7.72-2.79-.02-5.42-.78-7.67-2.1Z"/>
        <path d="M64.21,116.5c1.34,2.33,3.27,4.27,5.59,5.62-2.25,1.32-4.88,2.09-7.67,2.1,0-2.81.76-5.45,2.08-7.72Z"/>
      </g>
      <g>
        <path d="M38.61,48.69c2.25-1.32,4.88-2.09,7.67-2.1,0,2.82-.76,5.45-2.08,7.72-1.34-2.32-3.27-4.26-5.59-5.62Z"/>
        <path d="M46.51,46.58c2.79.02,5.42.78,7.67,2.1-2.32,1.35-4.25,3.29-5.59,5.62-1.32-2.27-2.07-4.9-2.08-7.72Z"/>
        <path d="M54.17,59.92c2.32-1.35,4.25-3.29,5.59-5.62,1.32,2.27,2.07,4.9,2.08,7.72-2.79-.02-5.41-.78-7.67-2.1Z"/>
        <path d="M54.17,64.16c2.25-1.32,4.87-2.09,7.67-2.1,0,2.81-.76,5.45-2.08,7.71-1.34-2.32-3.27-4.26-5.59-5.61Z"/>
        <path d="M38.61,75.39c2.32-1.35,4.25-3.29,5.59-5.62,1.32,2.27,2.07,4.91,2.08,7.72-2.79-.02-5.42-.78-7.67-2.1Z"/>
        <path d="M48.59,69.77c1.34,2.33,3.27,4.27,5.59,5.62-2.25,1.32-4.88,2.09-7.67,2.1,0-2.81.76-5.45,2.08-7.72Z"/>
        <path d="M54.23,48.69c2.25-1.32,4.88-2.09,7.67-2.1,0,2.82-.76,5.45-2.08,7.72-1.34-2.32-3.27-4.26-5.59-5.62Z"/>
        <path d="M62.13,46.58c2.79.02,5.42.78,7.67,2.1-2.32,1.35-4.25,3.29-5.59,5.62-1.32-2.27-2.07-4.9-2.08-7.72Z"/>
        <path d="M54.23,75.39c2.32-1.35,4.25-3.29,5.59-5.62,1.32,2.27,2.07,4.91,2.08,7.72-2.79-.02-5.42-.78-7.67-2.1Z"/>
        <path d="M64.21,69.77c1.34,2.33,3.27,4.27,5.59,5.62-2.25,1.32-4.88,2.09-7.67,2.1,0-2.81.76-5.45,2.08-7.72Z"/>
      </g>
      <g>
        <path d="M48.61,100.94c-1.32-2.25-2.09-4.88-2.1-7.67,2.82,0,5.45.76,7.72,2.08-2.32,1.34-4.26,3.27-5.62,5.59Z"/>
        <path d="M46.51,93.03c.02-2.79.78-5.42,2.1-7.67,1.35,2.32,3.29,4.25,5.62,5.59-2.27,1.32-4.9,2.07-7.72,2.08Z"/>
        <path d="M54.23,106.53c2.32-1.34,4.26-3.27,5.62-5.59,1.32,2.25,2.09,4.88,2.1,7.67-2.82,0-5.45-.76-7.72-2.08Z"/>
        <path d="M59.84,85.36c-1.35-2.32-3.29-4.25-5.62-5.59,2.27-1.32,4.9-2.07,7.72-2.08-.02,2.79-.78,5.41-2.1,7.67Z"/>
        <path d="M61.98,108.61c.02-2.79.78-5.42,2.1-7.67,1.35,2.32,3.29,4.25,5.61,5.59-2.26,1.32-4.9,2.07-7.71,2.08Z"/>
        <path d="M64.09,85.36c-1.32-2.25-2.09-4.87-2.1-7.67,2.81,0,5.45.76,7.71,2.08-2.32,1.34-4.26,3.27-5.61,5.59Z"/>
        <path d="M75.31,100.94c-1.35-2.32-3.29-4.25-5.62-5.59,2.27-1.32,4.91-2.07,7.72-2.08-.02,2.79-.78,5.42-2.1,7.67Z"/>
        <path d="M69.7,90.95c2.33-1.34,4.27-3.27,5.62-5.59,1.32,2.25,2.09,4.88,2.1,7.67-2.81,0-5.45-.76-7.72-2.08Z"/>
        <path d="M48.61,85.32c-1.32-2.25-2.09-4.88-2.1-7.67,2.82,0,5.45.76,7.72,2.08-2.32,1.34-4.26,3.27-5.62,5.59Z"/>
        <path d="M46.51,77.41c.02-2.79.78-5.42,2.1-7.67,1.35,2.32,3.29,4.25,5.62,5.59-2.27,1.32-4.9,2.07-7.72,2.08Z"/>
        <path d="M30.91,46.58c2.79.02,5.42.78,7.67,2.1-2.32,1.35-4.25,3.29-5.59,5.62-1.32-2.27-2.07-4.9-2.08-7.72Z"/>
        <path d="M30.91,77.41c.02-2.79.78-5.42,2.1-7.67,1.35,2.32,3.29,4.25,5.62,5.59-2.27,1.32-4.9,2.07-7.72,2.08Z"/>
        <path d="M75.31,85.32c-1.35-2.32-3.29-4.25-5.62-5.59,2.27-1.32,4.91-2.07,7.72-2.08-.02,2.79-.78,5.42-2.1,7.67Z"/>
        <path d="M69.7,75.33c2.33-1.34,4.27-3.27,5.62-5.59,1.32,2.25,2.09,4.88,2.1,7.67-2.81,0-5.45-.76-7.72-2.08Z"/>
      </g>
      <g>
        <path d="M64.18,69.74c-1.32-2.25-2.09-4.88-2.1-7.67,2.82,0,5.45.76,7.72,2.08-2.32,1.34-4.26,3.27-5.62,5.59Z"/>
        <path d="M62.08,61.83c.02-2.79.78-5.42,2.1-7.67,1.35,2.32,3.29,4.25,5.62,5.59-2.27,1.32-4.9,2.07-7.72,2.08Z"/>
        <path d="M54.23,75.33c2.32-1.34,4.26-3.27,5.62-5.59,1.32,2.25,2.09,4.88,2.1,7.67-2.82,0-5.45-.76-7.72-2.08Z"/>
        <path d="M59.84,54.16c-1.35-2.32-3.29-4.25-5.62-5.59,2.27-1.32,4.9-2.07,7.72-2.08-.02,2.79-.78,5.41-2.1,7.67Z"/>
        <path d="M61.98,77.41c.02-2.79.78-5.42,2.1-7.67,1.35,2.32,3.29,4.25,5.61,5.59-2.26,1.32-4.9,2.07-7.71,2.08Z"/>
        <path d="M64.09,54.16c-1.32-2.25-2.09-4.87-2.1-7.67,2.81,0,5.45.76,7.71,2.08-2.32,1.34-4.26,3.27-5.61,5.59Z"/>
        <path d="M75.31,69.74c-1.35-2.32-3.29-4.25-5.62-5.59,2.27-1.32,4.91-2.07,7.72-2.08-.02,2.79-.78,5.42-2.1,7.67Z"/>
        <path d="M69.7,59.75c2.33-1.34,4.27-3.27,5.62-5.59,1.32,2.25,2.09,4.88,2.1,7.67-2.81,0-5.45-.76-7.72-2.08Z"/>
      </g>
      <g>
        <path d="M23.23,48.57c-2.32,1.34-4.26,3.27-5.62,5.59-1.32-2.25-2.09-4.88-2.1-7.67,2.82,0,5.45.76,7.72,2.08Z"/>
        <path d="M17.61,54.17c1.35,2.32,3.29,4.25,5.62,5.59-2.27,1.32-4.9,2.07-7.72,2.08.02-2.79.78-5.41,2.1-7.67Z"/>
        <path d="M15.47,46.49c-.02,2.79-.78,5.42-2.1,7.67-1.35-2.32-3.29-4.25-5.61-5.59,2.26-1.32,4.9-2.07,7.71-2.08Z"/>
        <path d="M13.37,54.17c1.32,2.25,2.09,4.87,2.1,7.67-2.81,0-5.45-.76-7.71-2.08,2.32-1.34,4.26-3.27,5.61-5.59Z"/>
        <path d="M2.14,54.16c1.35,2.32,3.29,4.25,5.62,5.59-2.27,1.32-4.91,2.07-7.72,2.08.02-2.79.78-5.42,2.1-7.67Z"/>
        <path d="M7.76,64.15c-2.33,1.34-4.27,3.27-5.62,5.59C.82,67.49.05,64.87.04,62.07c2.81,0,5.45.76,7.72,2.08Z"/>
        <path d="M30.95,77.69c-.02,2.79-.78,5.42-2.1,7.67-1.35-2.32-3.29-4.25-5.62-5.59,2.27-1.32,4.9-2.07,7.72-2.08Z"/>
        <path d="M2.14,69.78c1.35,2.32,3.29,4.25,5.62,5.59-2.27,1.32-4.91,2.07-7.72,2.08.02-2.79.78-5.42,2.1-7.67Z"/>
        <path d="M7.76,79.77c-2.33,1.34-4.27,3.27-5.62,5.59-1.32-2.25-2.09-4.88-2.1-7.67,2.81,0,5.45.76,7.72,2.08Z"/>
      </g>
      <g>
        <path d="M28.84,69.74c1.32,2.25,2.09,4.88,2.1,7.67-2.82,0-5.45-.76-7.72-2.08,2.32-1.34,4.26-3.27,5.62-5.59Z"/>
        <path d="M30.91,77.77c-.02,2.79-.78,5.42-2.1,7.67-1.35-2.32-3.29-4.25-5.62-5.59,2.27-1.32,4.9-2.07,7.72-2.08Z"/>
        <path d="M23.19,64.27c-2.32,1.34-4.26,3.27-5.62,5.59-1.32-2.25-2.09-4.88-2.1-7.67,2.82,0,5.45.76,7.72,2.08Z"/>
        <path d="M17.57,85.44c1.35,2.32,3.29,4.25,5.62,5.59-2.27,1.32-4.9,2.07-7.72,2.08.02-2.79.78-5.41,2.1-7.67Z"/>
        <path d="M15.43,62.19c-.02,2.79-.78,5.42-2.1,7.67-1.35-2.32-3.29-4.25-5.61-5.59,2.26-1.32,4.9-2.07,7.71-2.08Z"/>
        <path d="M13.33,85.44c1.32,2.25,2.09,4.87,2.1,7.67-2.81,0-5.45-.76-7.71-2.08,2.32-1.34,4.26-3.27,5.61-5.59Z"/>
        <path d="M2.1,69.87c1.35,2.32,3.29,4.25,5.62,5.59-2.27,1.32-4.91,2.07-7.72,2.08.02-2.79.78-5.42,2.1-7.67Z"/>
        <path d="M7.72,79.85c-2.33,1.34-4.27,3.27-5.62,5.59-1.32-2.25-2.09-4.88-2.1-7.67,2.81,0,5.45.76,7.72,2.08Z"/>
        <path d="M28.8,85.48c1.32,2.25,2.09,4.88,2.1,7.67-2.82,0-5.45-.76-7.72-2.08,2.32-1.34,4.26-3.27,5.62-5.59Z"/>
        <path d="M30.91,93.39c-.02,2.79-.78,5.42-2.1,7.67-1.35-2.32-3.29-4.25-5.62-5.59,2.27-1.32,4.9-2.07,7.72-2.08Z"/>
        <path d="M2.1,85.48c1.35,2.32,3.29,4.25,5.62,5.59-2.27,1.32-4.91,2.07-7.72,2.08.02-2.79.78-5.42,2.1-7.67Z"/>
        <path d="M7.72,95.47c-2.33,1.34-4.27,3.27-5.62,5.59-1.32-2.25-2.09-4.88-2.1-7.67,2.81,0,5.45.76,7.72,2.08Z"/>
      </g>
      <g>
        <path d="M28.84,7.67c1.32,2.25,2.09,4.88,2.1,7.67-2.82,0-5.45-.76-7.72-2.08,2.32-1.34,4.26-3.27,5.62-5.59Z"/>
        <path d="M30.95,15.58c-.02,2.79-.78,5.42-2.1,7.67-1.35-2.32-3.29-4.25-5.62-5.59,2.27-1.32,4.9-2.07,7.72-2.08Z"/>
        <path d="M23.23,2.08c-2.32,1.34-4.26,3.27-5.62,5.59-1.32-2.25-2.09-4.88-2.1-7.67,2.82,0,5.45.76,7.72,2.08Z"/>
        <path d="M17.61,7.68c1.35,2.32,3.29,4.25,5.62,5.59-2.27,1.32-4.9,2.07-7.72,2.08.02-2.79.78-5.41,2.1-7.67Z"/>
        <path d="M15.47,0c-.02,2.79-.78,5.42-2.1,7.67-1.35-2.32-3.29-4.25-5.61-5.59C10.02.76,12.66,0,15.47,0Z"/>
        <path d="M13.37,7.68c1.32,2.25,2.09,4.87,2.1,7.67-2.81,0-5.45-.76-7.71-2.08,2.32-1.34,4.26-3.27,5.61-5.59Z"/>
        <path d="M2.14,7.67c1.35,2.32,3.29,4.25,5.62,5.59-2.27,1.32-4.91,2.07-7.72,2.08.02-2.79.78-5.42,2.1-7.67Z"/>
        <path d="M7.76,17.66c-2.33,1.34-4.27,3.27-5.62,5.59C.82,21,.05,18.37.04,15.58c2.81,0,5.45.76,7.72,2.08Z"/>
        <path d="M28.84,23.29c1.32,2.25,2.09,4.88,2.1,7.67-2.82,0-5.45-.76-7.72-2.08,2.32-1.34,4.26-3.27,5.62-5.59Z"/>
        <path d="M30.95,31.2c-.02,2.79-.78,5.42-2.1,7.67-1.35-2.32-3.29-4.25-5.62-5.59,2.27-1.32,4.9-2.07,7.72-2.08Z"/>
        <path d="M2.14,23.29c1.35,2.32,3.29,4.25,5.62,5.59-2.27,1.32-4.91,2.07-7.72,2.08.02-2.79.78-5.42,2.1-7.67Z"/>
        <path d="M7.76,33.28c-2.33,1.34-4.27,3.27-5.62,5.59C.82,36.62.05,33.99.04,31.2c2.81,0,5.45.76,7.72,2.08Z"/>
      </g>
      <g>
        <path d="M28.8,23.37c1.32,2.25,2.09,4.88,2.1,7.67-2.82,0-5.45-.76-7.72-2.08,2.32-1.34,4.26-3.27,5.62-5.59Z"/>
        <path d="M30.91,31.28c-.02,2.79-.78,5.42-2.1,7.67-1.35-2.32-3.29-4.25-5.62-5.59,2.27-1.32,4.9-2.07,7.72-2.08Z"/>
        <path d="M23.19,17.78c-2.32,1.34-4.26,3.27-5.62,5.59-1.32-2.25-2.09-4.88-2.1-7.67,2.82,0,5.45.76,7.72,2.08Z"/>
        <path d="M17.57,38.95c1.35,2.32,3.29,4.25,5.62,5.59-2.27,1.32-4.9,2.07-7.72,2.08.02-2.79.78-5.41,2.1-7.67Z"/>
        <path d="M15.43,15.7c-.02,2.79-.78,5.42-2.1,7.67-1.35-2.32-3.29-4.25-5.61-5.59,2.26-1.32,4.9-2.07,7.71-2.08Z"/>
        <path d="M13.33,38.95c1.32,2.25,2.09,4.87,2.1,7.67-2.81,0-5.45-.76-7.71-2.08,2.32-1.34,4.26-3.27,5.61-5.59Z"/>
        <path d="M2.1,23.37c1.35,2.32,3.29,4.25,5.62,5.59-2.27,1.32-4.91,2.07-7.72,2.08.02-2.79.78-5.42,2.1-7.67Z"/>
        <path d="M7.72,33.36c-2.33,1.34-4.27,3.27-5.62,5.59C.78,36.7.02,34.07,0,31.28c2.81,0,5.45.76,7.72,2.08Z"/>
        <path d="M28.8,38.99c1.32,2.25,2.09,4.88,2.1,7.67-2.82,0-5.45-.76-7.72-2.08,2.32-1.34,4.26-3.27,5.62-5.59Z"/>
        <path d="M30.91,46.49c-.02,2.79-.78,5.42-2.1,7.67-1.35-2.32-3.29-4.25-5.62-5.59,2.27-1.32,4.9-2.07,7.72-2.08Z"/>
        <path d="M2.1,38.99c1.35,2.32,3.29,4.25,5.62,5.59-2.27,1.32-4.91,2.07-7.72,2.08.02-2.79.78-5.42,2.1-7.67Z"/>
        <path d="M7.72,48.98c-2.33,1.34-4.27,3.27-5.62,5.59C.78,52.32.02,49.69,0,46.9c2.81,0,5.45.76,7.72,2.08Z"/>
      </g>
      <g>
        <path d="M28.8,116.53c1.32,2.25,2.09,4.88,2.1,7.67-2.82,0-5.45-.76-7.72-2.08,2.32-1.34,4.26-3.27,5.62-5.59Z"/>
        <path d="M23.19,95.47c-2.32,1.34-4.26,3.27-5.62,5.59-1.32-2.25-2.09-4.88-2.1-7.67,2.82,0,5.45.76,7.72,2.08Z"/>
        <path d="M17.57,116.64c1.35,2.32,3.29,4.25,5.62,5.59-2.27,1.32-4.9,2.07-7.72,2.08.02-2.79.78-5.41,2.1-7.67Z"/>
        <path d="M15.43,93.39c-.02,2.79-.78,5.42-2.1,7.67-1.35-2.32-3.29-4.25-5.61-5.59,2.26-1.32,4.9-2.07,7.71-2.08Z"/>
        <path d="M13.33,116.64c1.32,2.25,2.09,4.87,2.1,7.67-2.81,0-5.45-.76-7.71-2.08,2.32-1.34,4.26-3.27,5.61-5.59Z"/>
        <path d="M2.1,101.06c1.35,2.32,3.29,4.25,5.62,5.59-2.27,1.32-4.91,2.07-7.72,2.08.02-2.79.78-5.42,2.1-7.67Z"/>
        <path d="M7.72,111.05c-2.33,1.34-4.27,3.27-5.62,5.59-1.32-2.25-2.09-4.88-2.1-7.67,2.81,0,5.45.76,7.72,2.08Z"/>
      </g>
    </g>
  </g>
</svg>