<?xml version="1.0" encoding="UTF-8"?>
<svg id="_레이어_2" data-name="레이어 2" xmlns="http://www.w3.org/2000/svg" viewBox="0 0 77.33 77.82">
  <g id="_레이어_1-2" data-name="레이어 1">
    <g>
      <g>
        <path d="M23.23,2.08c-2.32,1.34-4.26,3.27-5.62,5.59-1.32-2.25-2.09-4.88-2.1-7.67,2.82,0,5.45.76,7.72,2.08Z"/>
        <path d="M17.61,7.68c1.35,2.32,3.29,4.25,5.62,5.59-2.27,1.32-4.9,2.07-7.72,2.08.02-2.79.78-5.41,2.1-7.67Z"/>
        <path d="M15.47,0c-.02,2.79-.78,5.42-2.1,7.67-1.35-2.32-3.29-4.25-5.61-5.59C10.02.76,12.66,0,15.47,0Z"/>
        <path d="M13.37,7.68c1.32,2.25,2.09,4.87,2.1,7.67-2.81,0-5.45-.76-7.71-2.08,2.32-1.34,4.26-3.27,5.61-5.59Z"/>
        <path d="M2.14,7.67c1.35,2.32,3.29,4.25,5.62,5.59-2.27,1.32-4.91,2.07-7.72,2.08.02-2.79.78-5.42,2.1-7.67Z"/>
        <path d="M7.76,17.66c-2.33,1.34-4.27,3.27-5.62,5.59C.82,21,.05,18.37.04,15.58c2.81,0,5.45.76,7.72,2.08Z"/>
        <path d="M28.84,23.29c1.32,2.25,2.09,4.88,2.1,7.67-2.82,0-5.45-.76-7.72-2.08,2.32-1.34,4.26-3.27,5.62-5.59Z"/>
        <path d="M30.95,31.2c-.02,2.79-.78,5.42-2.1,7.67-1.35-2.32-3.29-4.25-5.62-5.59,2.27-1.32,4.9-2.07,7.72-2.08Z"/>
        <path d="M2.14,23.29c1.35,2.32,3.29,4.25,5.62,5.59-2.27,1.32-4.91,2.07-7.72,2.08.02-2.79.78-5.42,2.1-7.67Z"/>
        <path d="M7.76,33.28c-2.33,1.34-4.27,3.27-5.62,5.59C.82,36.62.05,33.99.04,31.2c2.81,0,5.45.76,7.72,2.08Z"/>
      </g>
      <g>
        <path d="M38.81,28.9c-2.25,1.32-4.88,2.09-7.67,2.1,0-2.82.76-5.45,2.08-7.72,1.34,2.32,3.27,4.26,5.59,5.62Z"/>
        <path d="M30.9,31c-2.79-.02-5.42-.78-7.67-2.1,2.32-1.35,4.25-3.29,5.59-5.62,1.32,2.27,2.07,4.9,2.08,7.72Z"/>
        <path d="M44.41,23.28c-1.34-2.32-3.27-4.26-5.59-5.62,2.25-1.32,4.88-2.09,7.67-2.1,0,2.82-.76,5.45-2.08,7.72Z"/>
        <path d="M54.04,17.67c-2.32,1.35-4.25,3.29-5.59,5.62-1.32-2.27-2.07-4.9-2.08-7.72,2.79.02,5.41.78,7.67,2.1Z"/>
        <path d="M46.48,15.53c-2.79-.02-5.42-.78-7.67-2.1,2.32-1.35,4.25-3.29,5.59-5.61,1.32,2.26,2.07,4.9,2.08,7.71Z"/>
        <path d="M54.04,13.42c-2.25,1.32-4.87,2.09-7.67,2.1,0-2.81.76-5.45,2.08-7.71,1.34,2.32,3.27,4.26,5.59,5.61Z"/>
        <path d="M38.81,2.2c-2.32,1.35-4.25,3.29-5.59,5.62-1.32-2.27-2.07-4.91-2.08-7.72,2.79.02,5.42.78,7.67,2.1Z"/>
        <path d="M28.83,7.81c-1.34-2.33-3.27-4.27-5.59-5.62C25.49.87,28.11.11,30.9.09c0,2.81-.76,5.45-2.08,7.72Z"/>
        <path d="M23.19,28.9c-2.25,1.32-4.88,2.09-7.67,2.1,0-2.82.76-5.45,2.08-7.72,1.34,2.32,3.27,4.26,5.59,5.62Z"/>
        <path d="M15.29,31c-2.79-.02-5.42-.78-7.67-2.1,2.32-1.35,4.25-3.29,5.59-5.62,1.32,2.27,2.07,4.9,2.08,7.72Z"/>
        <path d="M23.19,2.2c-2.32,1.35-4.25,3.29-5.59,5.62-1.32-2.27-2.07-4.91-2.08-7.72,2.79.02,5.42.78,7.67,2.1Z"/>
        <path d="M13.21,7.81c-1.34-2.33-3.27-4.27-5.59-5.62C9.87.87,12.49.11,15.29.09c0,2.81-.76,5.45-2.08,7.72Z"/>
      </g>
      <g>
        <path d="M69.66,28.9c-2.25,1.32-4.88,2.09-7.67,2.1,0-2.82.76-5.45,2.08-7.72,1.34,2.32,3.27,4.26,5.59,5.62Z"/>
        <path d="M61.75,31c-2.79-.02-5.42-.78-7.67-2.1,2.32-1.35,4.25-3.29,5.59-5.62,1.32,2.27,2.07,4.9,2.08,7.72Z"/>
        <path d="M75.25,23.28c-1.34-2.32-3.27-4.26-5.59-5.62,2.25-1.32,4.88-2.09,7.67-2.1,0,2.82-.76,5.45-2.08,7.72Z"/>
        <path d="M69.66,17.67c-2.32,1.35-4.25,3.29-5.59,5.62-1.32-2.27-2.07-4.9-2.08-7.72,2.79.02,5.41.78,7.67,2.1Z"/>
        <path d="M77.33,15.53c-2.79-.02-5.42-.78-7.67-2.1,2.32-1.35,4.25-3.29,5.59-5.61,1.32,2.26,2.07,4.9,2.08,7.71Z"/>
        <path d="M69.66,13.42c-2.25,1.32-4.87,2.09-7.67,2.1,0-2.81.76-5.45,2.08-7.71,1.34,2.32,3.27,4.26,5.59,5.61Z"/>
        <path d="M69.66,2.2c-2.32,1.35-4.25,3.29-5.59,5.62-1.32-2.27-2.07-4.91-2.08-7.72,2.79.02,5.42.78,7.67,2.1Z"/>
        <path d="M59.68,7.81c-1.34-2.33-3.27-4.27-5.59-5.62C56.34.87,58.96.11,61.75.09c0,2.81-.76,5.45-2.08,7.72Z"/>
        <path d="M54.04,28.9c-2.25,1.32-4.88,2.09-7.67,2.1,0-2.82.76-5.45,2.08-7.72,1.34,2.32,3.27,4.26,5.59,5.62Z"/>
        <path d="M46.13,31c-2.79-.02-5.42-.78-7.67-2.1,2.32-1.35,4.25-3.29,5.59-5.62,1.32,2.27,2.07,4.9,2.08,7.72Z"/>
        <path d="M54.04,2.2c-2.32,1.35-4.25,3.29-5.59,5.62-1.32-2.27-2.07-4.91-2.08-7.72,2.79.02,5.42.78,7.67,2.1Z"/>
        <path d="M44.06,7.81c-1.34-2.33-3.27-4.27-5.59-5.62C40.72.87,43.34.11,46.13.09c0,2.81-.76,5.45-2.08,7.72Z"/>
      </g>
      <g>
        <path d="M38.75,75.7c-2.25,1.32-4.88,2.09-7.67,2.1,0-2.82.76-5.45,2.08-7.72,1.34,2.32,3.27,4.26,5.59,5.62Z"/>
        <path d="M30.85,77.81c-2.79-.02-5.42-.78-7.67-2.1,2.32-1.35,4.25-3.29,5.59-5.62,1.32,2.27,2.07,4.9,2.08,7.72Z"/>
        <path d="M44.35,70.09c-1.34-2.32-3.27-4.26-5.59-5.62,2.25-1.32,4.88-2.09,7.67-2.1,0,2.82-.76,5.45-2.08,7.72Z"/>
        <path d="M53.98,64.47c-2.32,1.35-4.25,3.29-5.59,5.62-1.32-2.27-2.07-4.9-2.08-7.72,2.79.02,5.41.78,7.67,2.1Z"/>
        <path d="M46.43,62.33c-2.79-.02-5.42-.78-7.67-2.1,2.32-1.35,4.25-3.29,5.59-5.61,1.32,2.26,2.07,4.9,2.08,7.71Z"/>
        <path d="M53.98,60.23c-2.25,1.32-4.87,2.09-7.67,2.1,0-2.81.76-5.45,2.08-7.71,1.34,2.32,3.27,4.26,5.59,5.61Z"/>
        <path d="M13.36,70.2c-1.34-2.32-3.27-4.26-5.59-5.62,2.25-1.32,4.88-2.09,7.67-2.1,0,2.82-.76,5.45-2.08,7.72Z"/>
        <path d="M22.99,64.59c-2.32,1.35-4.25,3.29-5.59,5.62-1.32-2.27-2.07-4.9-2.08-7.72,2.79.02,5.41.78,7.67,2.1Z"/>
        <path d="M15.43,62.45c-2.79-.02-5.42-.78-7.67-2.1,2.32-1.35,4.25-3.29,5.59-5.61,1.32,2.26,2.07,4.9,2.08,7.71Z"/>
        <path d="M22.99,60.34c-2.25,1.32-4.87,2.09-7.67,2.1,0-2.81.76-5.45,2.08-7.71,1.34,2.32,3.27,4.26,5.59,5.61Z"/>
        <path d="M38.75,49c-2.32,1.35-4.25,3.29-5.59,5.62-1.32-2.27-2.07-4.91-2.08-7.72,2.79.02,5.42.78,7.67,2.1Z"/>
        <path d="M28.77,54.62c-1.34-2.33-3.27-4.27-5.59-5.62,2.25-1.32,4.88-2.09,7.67-2.1,0,2.81-.76,5.45-2.08,7.72Z"/>
        <path d="M23.13,75.7c-2.25,1.32-4.88,2.09-7.67,2.1,0-2.82.76-5.45,2.08-7.72,1.34,2.32,3.27,4.26,5.59,5.62Z"/>
        <path d="M15.23,77.81c-2.79-.02-5.42-.78-7.67-2.1,2.32-1.35,4.25-3.29,5.59-5.62,1.32,2.27,2.07,4.9,2.08,7.72Z"/>
        <path d="M23.13,49c-2.32,1.35-4.25,3.29-5.59,5.62-1.32-2.27-2.07-4.91-2.08-7.72,2.79.02,5.42.78,7.67,2.1Z"/>
        <path d="M13.15,54.62c-1.34-2.33-3.27-4.27-5.59-5.62,2.25-1.32,4.88-2.09,7.67-2.1,0,2.81-.76,5.45-2.08,7.72Z"/>
      </g>
      <g>
        <path d="M69.66,75.51c-2.25,1.32-4.88,2.09-7.67,2.1,0-2.82.76-5.45,2.08-7.72,1.34,2.32,3.27,4.26,5.59,5.62Z"/>
        <path d="M61.75,77.61c-2.79-.02-5.42-.78-7.67-2.1,2.32-1.35,4.25-3.29,5.59-5.62,1.32,2.27,2.07,4.9,2.08,7.72Z"/>
        <path d="M75.25,69.89c-1.34-2.32-3.27-4.26-5.59-5.62,2.25-1.32,4.88-2.09,7.67-2.1,0,2.82-.76,5.45-2.08,7.72Z"/>
        <path d="M69.66,64.28c-2.32,1.35-4.25,3.29-5.59,5.62-1.32-2.27-2.07-4.9-2.08-7.72,2.79.02,5.41.78,7.67,2.1Z"/>
        <path d="M77.33,62.14c-2.79-.02-5.42-.78-7.67-2.1,2.32-1.35,4.25-3.29,5.59-5.61,1.32,2.26,2.07,4.9,2.08,7.71Z"/>
        <path d="M69.66,60.03c-2.25,1.32-4.87,2.09-7.67,2.1,0-2.81.76-5.45,2.08-7.71,1.34,2.32,3.27,4.26,5.59,5.61Z"/>
        <path d="M69.66,48.81c-2.32,1.35-4.25,3.29-5.59,5.62-1.32-2.27-2.07-4.91-2.08-7.72,2.79.02,5.42.78,7.67,2.1Z"/>
        <path d="M59.68,54.42c-1.34-2.33-3.27-4.27-5.59-5.62,2.25-1.32,4.88-2.09,7.67-2.1,0,2.81-.76,5.45-2.08,7.72Z"/>
        <path d="M54.04,75.51c-2.25,1.32-4.88,2.09-7.67,2.1,0-2.82.76-5.45,2.08-7.72,1.34,2.32,3.27,4.26,5.59,5.62Z"/>
        <path d="M46.13,77.61c-2.79-.02-5.42-.78-7.67-2.1,2.32-1.35,4.25-3.29,5.59-5.62,1.32,2.27,2.07,4.9,2.08,7.72Z"/>
        <path d="M54.04,48.81c-2.32,1.35-4.25,3.29-5.59,5.62-1.32-2.27-2.07-4.91-2.08-7.72,2.79.02,5.42.78,7.67,2.1Z"/>
        <path d="M44.06,54.42c-1.34-2.33-3.27-4.27-5.59-5.62,2.25-1.32,4.88-2.09,7.67-2.1,0,2.81-.76,5.45-2.08,7.72Z"/>
      </g>
      <g>
        <path d="M28.8,23.37c1.32,2.25,2.09,4.88,2.1,7.67-2.82,0-5.45-.76-7.72-2.08,2.32-1.34,4.26-3.27,5.62-5.59Z"/>
        <path d="M30.91,31.28c-.02,2.79-.78,5.42-2.1,7.67-1.35-2.32-3.29-4.25-5.62-5.59,2.27-1.32,4.9-2.07,7.72-2.08Z"/>
        <path d="M23.19,17.78c-2.32,1.34-4.26,3.27-5.62,5.59-1.32-2.25-2.09-4.88-2.1-7.67,2.82,0,5.45.76,7.72,2.08Z"/>
        <path d="M17.57,38.95c1.35,2.32,3.29,4.25,5.62,5.59-2.27,1.32-4.9,2.07-7.72,2.08.02-2.79.78-5.41,2.1-7.67Z"/>
        <path d="M15.43,15.7c-.02,2.79-.78,5.42-2.1,7.67-1.35-2.32-3.29-4.25-5.61-5.59,2.26-1.32,4.9-2.07,7.71-2.08Z"/>
        <path d="M13.33,38.95c1.32,2.25,2.09,4.87,2.1,7.67-2.81,0-5.45-.76-7.71-2.08,2.32-1.34,4.26-3.27,5.61-5.59Z"/>
        <path d="M2.1,23.37c1.35,2.32,3.29,4.25,5.62,5.59-2.27,1.32-4.91,2.07-7.72,2.08.02-2.79.78-5.42,2.1-7.67Z"/>
        <path d="M7.72,33.36c-2.33,1.34-4.27,3.27-5.62,5.59C.78,36.7.02,34.07,0,31.28c2.81,0,5.45.76,7.72,2.08Z"/>
        <path d="M28.8,38.99c1.32,2.25,2.09,4.88,2.1,7.67-2.82,0-5.45-.76-7.72-2.08,2.32-1.34,4.26-3.27,5.62-5.59Z"/>
        <path d="M30.91,46.9c-.02,2.79-.78,5.42-2.1,7.67-1.35-2.32-3.29-4.25-5.62-5.59,2.27-1.32,4.9-2.07,7.72-2.08Z"/>
        <path d="M2.1,38.99c1.35,2.32,3.29,4.25,5.62,5.59-2.27,1.32-4.91,2.07-7.72,2.08.02-2.79.78-5.42,2.1-7.67Z"/>
        <path d="M7.72,48.98c-2.33,1.34-4.27,3.27-5.62,5.59C.78,52.32.02,49.69,0,46.9c2.81,0,5.45.76,7.72,2.08Z"/>
      </g>
      <g>
        <path d="M23.19,48.98c-2.32,1.34-4.26,3.27-5.62,5.59-1.32-2.25-2.09-4.88-2.1-7.67,2.82,0,5.45.76,7.72,2.08Z"/>
        <path d="M17.57,70.15c1.35,2.32,3.29,4.25,5.62,5.59-2.27,1.32-4.9,2.07-7.72,2.08.02-2.79.78-5.41,2.1-7.67Z"/>
        <path d="M15.43,46.9c-.02,2.79-.78,5.42-2.1,7.67-1.35-2.32-3.29-4.25-5.61-5.59,2.26-1.32,4.9-2.07,7.71-2.08Z"/>
        <path d="M13.33,70.15c1.32,2.25,2.09,4.87,2.1,7.67-2.81,0-5.45-.76-7.71-2.08,2.32-1.34,4.26-3.27,5.61-5.59Z"/>
        <path d="M2.1,54.57c1.35,2.32,3.29,4.25,5.62,5.59-2.27,1.32-4.91,2.07-7.72,2.08.02-2.79.78-5.42,2.1-7.67Z"/>
        <path d="M7.72,64.56c-2.33,1.34-4.27,3.27-5.62,5.59-1.32-2.25-2.09-4.88-2.1-7.67,2.81,0,5.45.76,7.72,2.08Z"/>
      </g>
    </g>
  </g>
</svg>