<?xml version="1.0" encoding="UTF-8"?>
<svg id="_레이어_2" data-name="레이어 2" xmlns="http://www.w3.org/2000/svg" viewBox="0 0 77.56 93.19">
  <g id="_레이어_1-2" data-name="레이어 1">
    <g>
      <g>
        <path d="M2.12,7.61c1.34,2.32,3.27,4.26,5.59,5.62-2.25,1.32-4.88,2.09-7.67,2.1,0-2.82.76-5.45,2.08-7.72Z"/>
        <path d="M.04,15.37c2.79.02,5.42.78,7.67,2.1-2.32,1.35-4.25,3.29-5.59,5.61C.8,20.82.04,18.18.04,15.37Z"/>
        <path d="M2.12,23.14c1.35,2.32,3.29,4.25,5.62,5.59-2.27,1.32-4.91,2.07-7.72,2.08.02-2.79.78-5.42,2.1-7.67Z"/>
        <path d="M7.73,33.13c-2.33,1.34-4.27,3.27-5.62,5.59C.79,36.47.03,33.84.01,31.05c2.81,0,5.45.76,7.72,2.08Z"/>
        <path d="M23.05,33.15c2.25-1.32,4.88-2.09,7.67-2.1,0,2.82-.76,5.45-2.08,7.72-1.34-2.32-3.27-4.26-5.59-5.62Z"/>
        <path d="M30.96,31.04c2.79.02,5.42.78,7.67,2.1-2.32,1.35-4.25,3.29-5.59,5.62-1.32-2.27-2.07-4.9-2.08-7.72Z"/>
        <path d="M2.12,38.76c1.35,2.32,3.29,4.25,5.62,5.59-2.27,1.32-4.91,2.07-7.72,2.08.02-2.79.78-5.42,2.1-7.67Z"/>
        <path d="M7.73,48.74c-2.33,1.34-4.27,3.27-5.62,5.59C.79,52.08.03,49.46.01,46.67c2.81,0,5.45.76,7.72,2.08Z"/>
      </g>
      <g>
        <path d="M38.76,28.8c-2.25,1.32-4.88,2.09-7.67,2.1,0-2.82.76-5.45,2.08-7.72,1.34,2.32,3.27,4.26,5.59,5.62Z"/>
        <path d="M30.85,30.91c-2.79-.02-5.42-.78-7.67-2.1,2.32-1.35,4.25-3.29,5.59-5.62,1.32,2.27,2.07,4.9,2.08,7.72Z"/>
        <path d="M59.82,23.19c-1.34-2.32-3.27-4.26-5.59-5.62,2.25-1.32,4.88-2.09,7.67-2.1,0,2.82-.76,5.45-2.08,7.72Z"/>
        <path d="M69.45,17.57c-2.32,1.35-4.25,3.29-5.59,5.62-1.32-2.27-2.07-4.9-2.08-7.72,2.79.02,5.41.78,7.67,2.1Z"/>
        <path d="M61.9,15.43c-2.79-.02-5.42-.78-7.67-2.1,2.32-1.35,4.25-3.29,5.59-5.61,1.32,2.26,2.07,4.9,2.08,7.71Z"/>
        <path d="M69.45,13.33c-2.25,1.32-4.87,2.09-7.67,2.1,0-2.81.76-5.45,2.08-7.71,1.34,2.32,3.27,4.26,5.59,5.61Z"/>
        <path d="M38.76,2.1c-2.32,1.35-4.25,3.29-5.59,5.62-1.32-2.27-2.07-4.91-2.08-7.72,2.79.02,5.42.78,7.67,2.1Z"/>
        <path d="M28.78,7.72c-1.34-2.33-3.27-4.27-5.59-5.62C25.44.78,28.06.02,30.85,0c0,2.81-.76,5.45-2.08,7.72Z"/>
        <path d="M23.09,13.18c-2.25,1.32-4.88,2.09-7.67,2.1,0-2.82.76-5.45,2.08-7.72,1.34,2.32,3.27,4.26,5.59,5.62Z"/>
        <path d="M15.19,15.28c-2.79-.02-5.42-.78-7.67-2.1,2.32-1.35,4.25-3.29,5.59-5.62,1.32,2.27,2.07,4.9,2.08,7.72Z"/>
        <path d="M23.14,2.1c-2.32,1.35-4.25,3.29-5.59,5.62C16.23,5.45,15.47,2.81,15.47,0c2.79.02,5.42.78,7.67,2.1Z"/>
        <path d="M13.16,7.72c-1.34-2.33-3.27-4.27-5.59-5.62C9.82.78,12.44.02,15.23,0c0,2.81-.76,5.45-2.08,7.72Z"/>
      </g>
      <g>
        <path d="M69.61,44.34c-2.25,1.32-4.88,2.09-7.67,2.1,0-2.82.76-5.45,2.08-7.72,1.34,2.32,3.27,4.26,5.59,5.62Z"/>
        <path d="M61.7,46.44c-2.79-.02-5.42-.78-7.67-2.1,2.32-1.35,4.25-3.29,5.59-5.62,1.32,2.27,2.07,4.9,2.08,7.72Z"/>
        <path d="M75.2,23.19c-1.34-2.32-3.27-4.26-5.59-5.62,2.25-1.32,4.88-2.09,7.67-2.1,0,2.82-.76,5.45-2.08,7.72Z"/>
        <path d="M77.28,15.43c-2.79-.02-5.42-.78-7.67-2.1,2.32-1.35,4.25-3.29,5.59-5.61,1.32,2.26,2.07,4.9,2.08,7.71Z"/>
        <path d="M69.61,2.1c-2.32,1.35-4.25,3.29-5.59,5.62-1.32-2.27-2.07-4.91-2.08-7.72,2.79.02,5.42.78,7.67,2.1Z"/>
        <path d="M59.63,7.72c-1.34-2.33-3.27-4.27-5.59-5.62C56.29.78,58.91.02,61.7,0c0,2.81-.76,5.45-2.08,7.72Z"/>
        <path d="M53.99,28.8c-2.25,1.32-4.88,2.09-7.67,2.1,0-2.82.76-5.45,2.08-7.72,1.34,2.32,3.27,4.26,5.59,5.62Z"/>
        <path d="M46.08,30.91c-2.79-.02-5.42-.78-7.67-2.1,2.32-1.35,4.25-3.29,5.59-5.62,1.32,2.27,2.07,4.9,2.08,7.72Z"/>
        <path d="M53.99,2.1c-2.32,1.35-4.25,3.29-5.59,5.62C47.08,5.45,46.32,2.81,46.32,0c2.79.02,5.42.78,7.67,2.1Z"/>
        <path d="M44.01,7.72c-1.34-2.33-3.27-4.27-5.59-5.62C40.67.78,43.29.02,46.08,0c0,2.81-.76,5.45-2.08,7.72Z"/>
      </g>
      <g>
        <path d="M69.61,59.84c-2.25,1.32-4.88,2.09-7.67,2.1,0-2.82.76-5.45,2.08-7.72,1.34,2.32,3.27,4.26,5.59,5.62Z"/>
        <path d="M61.7,61.94c-2.79-.02-5.42-.78-7.67-2.1,2.32-1.35,4.25-3.29,5.59-5.62,1.32,2.27,2.07,4.9,2.08,7.72Z"/>
        <path d="M75.2,54.22c-1.34-2.32-3.27-4.26-5.59-5.62,2.25-1.32,4.88-2.09,7.67-2.1,0,2.82-.76,5.45-2.08,7.72Z"/>
        <path d="M77.28,46.47c-2.79-.02-5.42-.78-7.67-2.1,2.32-1.35,4.25-3.29,5.59-5.61,1.32,2.26,2.07,4.9,2.08,7.71Z"/>
        <path d="M75.2,38.64c-1.34-2.32-3.27-4.26-5.59-5.62,2.25-1.32,4.88-2.09,7.67-2.1,0,2.82-.76,5.45-2.08,7.72Z"/>
        <path d="M77.28,30.89c-2.79-.02-5.42-.78-7.67-2.1,2.32-1.35,4.25-3.29,5.59-5.61,1.32,2.26,2.07,4.9,2.08,7.71Z"/>
        <path d="M69.61,48.67c-2.32,1.35-4.25,3.29-5.59,5.62-1.32-2.27-2.07-4.91-2.08-7.72,2.79.02,5.42.78,7.67,2.1Z"/>
        <path d="M59.63,54.29c-1.34-2.33-3.27-4.27-5.59-5.62,2.25-1.32,4.88-2.09,7.67-2.1,0,2.81-.76,5.45-2.08,7.72Z"/>
        <path d="M53.99,59.84c-2.25,1.32-4.88,2.09-7.67,2.1,0-2.82.76-5.45,2.08-7.72,1.34,2.32,3.27,4.26,5.59,5.62Z"/>
        <path d="M38.51,59.84c-2.25,1.32-4.88,2.09-7.67,2.1,0-2.82.76-5.45,2.08-7.72,1.34,2.32,3.27,4.26,5.59,5.62Z"/>
        <path d="M46.08,61.94c-2.79-.02-5.42-.78-7.67-2.1,2.32-1.35,4.25-3.29,5.59-5.62,1.32,2.27,2.07,4.9,2.08,7.72Z"/>
        <path d="M53.99,33.14c-2.32,1.35-4.25,3.29-5.59,5.62-1.32-2.27-2.07-4.91-2.08-7.72,2.79.02,5.42.78,7.67,2.1Z"/>
        <path d="M44.01,38.75c-1.34-2.33-3.27-4.27-5.59-5.62,2.25-1.32,4.88-2.09,7.67-2.1,0,2.81-.76,5.45-2.08,7.72Z"/>
      </g>
      <g>
        <path d="M38.98,91.07c-2.25,1.32-4.88,2.09-7.67,2.1,0-2.82.76-5.45,2.08-7.72,1.34,2.32,3.27,4.26,5.59,5.62Z"/>
        <path d="M31.07,93.17c-2.79-.02-5.42-.78-7.67-2.1,2.32-1.35,4.25-3.29,5.59-5.62,1.32,2.27,2.07,4.9,2.08,7.72Z"/>
        <path d="M44.57,85.45c-1.34-2.32-3.27-4.26-5.59-5.62,2.25-1.32,4.88-2.09,7.67-2.1,0,2.82-.76,5.45-2.08,7.72Z"/>
        <path d="M54.21,79.84c-2.32,1.35-4.25,3.29-5.59,5.62-1.32-2.27-2.07-4.9-2.08-7.72,2.79.02,5.41.78,7.67,2.1Z"/>
        <path d="M46.65,77.7c-2.79-.02-5.42-.78-7.67-2.1,2.32-1.35,4.25-3.29,5.59-5.61,1.32,2.26,2.07,4.9,2.08,7.71Z"/>
        <path d="M54.21,75.59c-2.25,1.32-4.87,2.09-7.67,2.1,0-2.81.76-5.45,2.08-7.71,1.34,2.32,3.27,4.26,5.59,5.61Z"/>
        <path d="M13.39,85.37c-1.34-2.32-3.27-4.26-5.59-5.62,2.25-1.32,4.88-2.09,7.67-2.1,0,2.82-.76,5.45-2.08,7.72Z"/>
        <path d="M23.02,79.76c-2.32,1.35-4.25,3.29-5.59,5.62-1.32-2.27-2.07-4.9-2.08-7.72,2.79.02,5.41.78,7.67,2.1Z"/>
        <path d="M15.47,77.62c-2.79-.02-5.42-.78-7.67-2.1,2.32-1.35,4.25-3.29,5.59-5.61,1.32,2.26,2.07,4.9,2.08,7.71Z"/>
        <path d="M23.02,75.51c-2.25,1.32-4.87,2.09-7.67,2.1,0-2.81.76-5.45,2.08-7.71,1.34,2.32,3.27,4.26,5.59,5.61Z"/>
        <path d="M38.98,64.37c-2.32,1.35-4.25,3.29-5.59,5.62-1.32-2.27-2.07-4.91-2.08-7.72,2.79.02,5.42.78,7.67,2.1Z"/>
        <path d="M28.99,69.98c-1.34-2.33-3.27-4.27-5.59-5.62,2.25-1.32,4.88-2.09,7.67-2.1,0,2.81-.76,5.45-2.08,7.72Z"/>
        <path d="M23.36,91.07c-2.25,1.32-4.88,2.09-7.67,2.1,0-2.82.76-5.45,2.08-7.72,1.34,2.32,3.27,4.26,5.59,5.62Z"/>
        <path d="M15.45,93.17c-2.79-.02-5.42-.78-7.67-2.1,2.32-1.35,4.25-3.29,5.59-5.62,1.32,2.27,2.07,4.9,2.08,7.72Z"/>
        <path d="M23.36,64.37c-2.32,1.35-4.25,3.29-5.59,5.62-1.32-2.27-2.07-4.91-2.08-7.72,2.79.02,5.42.78,7.67,2.1Z"/>
        <path d="M13.38,69.98c-1.34-2.33-3.27-4.27-5.59-5.62,2.25-1.32,4.88-2.09,7.67-2.1,0,2.81-.76,5.45-2.08,7.72Z"/>
      </g>
      <g>
        <path d="M69.89,90.87c-2.25,1.32-4.88,2.09-7.67,2.1,0-2.82.76-5.45,2.08-7.72,1.34,2.32,3.27,4.26,5.59,5.62Z"/>
        <path d="M61.98,92.98c-2.79-.02-5.42-.78-7.67-2.1,2.32-1.35,4.25-3.29,5.59-5.62,1.32,2.27,2.07,4.9,2.08,7.72Z"/>
        <path d="M75.48,85.26c-1.34-2.32-3.27-4.26-5.59-5.62,2.25-1.32,4.88-2.09,7.67-2.1,0,2.82-.76,5.45-2.08,7.72Z"/>
        <path d="M69.88,79.64c-2.32,1.35-4.25,3.29-5.59,5.62-1.32-2.27-2.07-4.9-2.08-7.72,2.79.02,5.41.78,7.67,2.1Z"/>
        <path d="M77.56,77.5c-2.79-.02-5.42-.78-7.67-2.1,2.32-1.35,4.25-3.29,5.59-5.61,1.32,2.26,2.07,4.9,2.08,7.71Z"/>
        <path d="M69.88,75.4c-2.25,1.32-4.87,2.09-7.67,2.1,0-2.81.76-5.45,2.08-7.71,1.34,2.32,3.27,4.26,5.59,5.61Z"/>
        <path d="M69.89,64.17c-2.32,1.35-4.25,3.29-5.59,5.62-1.32-2.27-2.07-4.91-2.08-7.72,2.79.02,5.42.78,7.67,2.1Z"/>
        <path d="M59.9,69.79c-1.34-2.33-3.27-4.27-5.59-5.62,2.25-1.32,4.88-2.09,7.67-2.1,0,2.81-.76,5.45-2.08,7.72Z"/>
        <path d="M54.27,90.87c-2.25,1.32-4.88,2.09-7.67,2.1,0-2.82.76-5.45,2.08-7.72,1.34,2.32,3.27,4.26,5.59,5.62Z"/>
        <path d="M46.36,92.98c-2.79-.02-5.42-.78-7.67-2.1,2.32-1.35,4.25-3.29,5.59-5.62,1.32,2.27,2.07,4.9,2.08,7.72Z"/>
        <path d="M54.27,64.17c-2.32,1.35-4.25,3.29-5.59,5.62-1.32-2.27-2.07-4.91-2.08-7.72,2.79.02,5.42.78,7.67,2.1Z"/>
        <path d="M44.28,69.79c-1.34-2.33-3.27-4.27-5.59-5.62,2.25-1.32,4.88-2.09,7.67-2.1,0,2.81-.76,5.45-2.08,7.72Z"/>
      </g>
      <g>
        <path d="M23.14,17.52c-2.32,1.34-4.26,3.27-5.62,5.59-1.32-2.25-2.09-4.88-2.1-7.67,2.82,0,5.45.76,7.72,2.08Z"/>
        <path d="M17.57,38.66c1.35,2.32,3.29,4.25,5.62,5.59-2.27,1.32-4.9,2.07-7.72,2.08.02-2.79.78-5.41,2.1-7.67Z"/>
        <path d="M15.39,15.44c-.02,2.79-.78,5.42-2.1,7.67-1.35-2.32-3.29-4.25-5.61-5.59,2.26-1.32,4.9-2.07,7.71-2.08Z"/>
        <path d="M13.33,38.66c1.32,2.25,2.09,4.87,2.1,7.67-2.81,0-5.45-.76-7.71-2.08,2.32-1.34,4.26-3.27,5.61-5.59Z"/>
        <path d="M2.1,38.74c1.35,2.32,3.29,4.25,5.62,5.59-2.27,1.32-4.91,2.07-7.72,2.08.02-2.79.78-5.42,2.1-7.67Z"/>
        <path d="M7.72,48.72c-2.33,1.34-4.27,3.27-5.62,5.59C.78,52.06.02,49.44,0,46.65c2.81,0,5.45.76,7.72,2.08Z"/>
        <path d="M28.8,54.36c1.32,2.25,2.09,4.88,2.1,7.67-2.82,0-5.45-.76-7.72-2.08,2.32-1.34,4.26-3.27,5.62-5.59Z"/>
        <path d="M30.91,62.27c-.02,2.79-.78,5.42-2.1,7.67-1.35-2.32-3.29-4.25-5.62-5.59,2.27-1.32,4.9-2.07,7.72-2.08Z"/>
        <path d="M2.1,54.36c1.35,2.32,3.29,4.25,5.62,5.59-2.27,1.32-4.91,2.07-7.72,2.08.02-2.79.78-5.42,2.1-7.67Z"/>
        <path d="M7.72,64.34c-2.33,1.34-4.27,3.27-5.62,5.59-1.32-2.25-2.09-4.88-2.1-7.67,2.81,0,5.45.76,7.72,2.08Z"/>
      </g>
      <g>
        <path d="M23.19,48.69c-2.32,1.34-4.26,3.27-5.62,5.59-1.32-2.25-2.09-4.88-2.1-7.67,2.82,0,5.45.76,7.72,2.08Z"/>
        <path d="M17.57,85.53c1.35,2.32,3.29,4.25,5.62,5.59-2.27,1.32-4.9,2.07-7.72,2.08.02-2.79.78-5.41,2.1-7.67Z"/>
        <path d="M15.43,46.61c-.02,2.79-.78,5.42-2.1,7.67-1.35-2.32-3.29-4.25-5.61-5.59,2.26-1.32,4.9-2.07,7.71-2.08Z"/>
        <path d="M13.33,85.53c1.32,2.25,2.09,4.87,2.1,7.67-2.81,0-5.45-.76-7.71-2.08,2.32-1.34,4.26-3.27,5.61-5.59Z"/>
        <path d="M2.1,69.95c1.35,2.32,3.29,4.25,5.62,5.59-2.27,1.32-4.91,2.07-7.72,2.08.02-2.79.78-5.42,2.1-7.67Z"/>
        <path d="M7.72,79.93c-2.33,1.34-4.27,3.27-5.62,5.59-1.32-2.25-2.09-4.88-2.1-7.67,2.81,0,5.45.76,7.72,2.08Z"/>
      </g>
    </g>
  </g>
</svg>