<?xml version="1.0" encoding="UTF-8"?>
<svg id="_레이어_2" data-name="레이어 2" xmlns="http://www.w3.org/2000/svg" viewBox="0 0 77.52 124.22">
  <g id="_레이어_1-2" data-name="레이어 1">
    <g>
      <g>
        <path d="M2.16,54.27C.84,56.53.07,59.15.06,61.95c2.82,0,5.45-.76,7.72-2.08-2.32-1.34-4.26-3.27-5.62-5.59Z"/>
        <path d="M.06,62.18c.02,2.79.78,5.42,2.1,7.67,1.35-2.32,3.29-4.25,5.62-5.59-2.27-1.32-4.9-2.07-7.72-2.08Z"/>
        <path d="M7.78,48.68c2.32,1.34,4.26,3.27,5.62,5.59,1.32-2.25,2.09-4.88,2.1-7.67-2.82,0-5.45.76-7.72,2.08Z"/>
        <path d="M13.39,54.28c-1.35,2.32-3.29,4.25-5.62,5.59,2.27,1.32,4.9,2.07,7.72,2.08-.02-2.79-.78-5.41-2.1-7.67Z"/>
        <path d="M15.53,46.6c.02,2.79.78,5.42,2.1,7.67,1.35-2.32,3.29-4.25,5.61-5.59-2.26-1.32-4.9-2.07-7.71-2.08Z"/>
        <path d="M17.64,54.28c-1.32,2.25-2.09,4.87-2.1,7.67,2.81,0,5.45-.76,7.71-2.08-2.32-1.34-4.26-3.27-5.61-5.59Z"/>
        <path d="M28.86,54.27c-1.35,2.32-3.29,4.25-5.62,5.59,2.27,1.32,4.91,2.07,7.72,2.08-.02-2.79-.78-5.42-2.1-7.67Z"/>
        <path d="M23.25,64.26c2.33,1.34,4.27,3.27,5.62,5.59,1.32-2.25,2.09-4.88,2.1-7.67-2.81,0-5.45.76-7.72,2.08Z"/>
        <path d="M2.16,69.89c-1.32,2.25-2.09,4.88-2.1,7.67,2.82,0,5.45-.76,7.72-2.08-2.32-1.34-4.26-3.27-5.62-5.59Z"/>
        <path d="M.06,77.8c.02,2.79.78,5.42,2.1,7.67,1.35-2.32,3.29-4.25,5.62-5.59-2.27-1.32-4.9-2.07-7.72-2.08Z"/>
        <path d="M28.86,69.89c-1.35,2.32-3.29,4.25-5.62,5.59,2.27,1.32,4.91,2.07,7.72,2.08-.02-2.79-.78-5.42-2.1-7.67Z"/>
        <path d="M23.25,79.88c2.33,1.34,4.27,3.27,5.62,5.59,1.32-2.25,2.09-4.88,2.1-7.67-2.81,0-5.45.76-7.72,2.08Z"/>
      </g>
      <g>
        <path d="M2.22,69.77c-1.32,2.25-2.09,4.88-2.1,7.67,2.82,0,5.45-.76,7.72-2.08-2.32-1.34-4.26-3.27-5.62-5.59Z"/>
        <path d="M.11,77.68c.02,2.79.78,5.42,2.1,7.67,1.35-2.32,3.29-4.25,5.62-5.59-2.27-1.32-4.9-2.07-7.72-2.08Z"/>
        <path d="M7.83,64.18c2.32,1.34,4.26,3.27,5.62,5.59,1.32-2.25,2.09-4.88,2.1-7.67-2.82,0-5.45.76-7.72,2.08Z"/>
        <path d="M13.45,85.35c-1.35,2.32-3.29,4.25-5.62,5.59,2.27,1.32,4.9,2.07,7.72,2.08-.02-2.79-.78-5.41-2.1-7.67Z"/>
        <path d="M15.59,62.1c.02,2.79.78,5.42,2.1,7.67,1.35-2.32,3.29-4.25,5.61-5.59-2.26-1.32-4.9-2.07-7.71-2.08Z"/>
        <path d="M17.69,85.35c-1.32,2.25-2.09,4.87-2.1,7.67,2.81,0,5.45-.76,7.71-2.08-2.32-1.34-4.26-3.27-5.61-5.59Z"/>
        <path d="M28.92,69.77c-1.35,2.32-3.29,4.25-5.62,5.59,2.27,1.32,4.91,2.07,7.72,2.08-.02-2.79-.78-5.42-2.1-7.67Z"/>
        <path d="M23.3,79.76c2.33,1.34,4.27,3.27,5.62,5.59,1.32-2.25,2.09-4.88,2.1-7.67-2.81,0-5.45.76-7.72,2.08Z"/>
        <path d="M2.22,85.39c-1.32,2.25-2.09,4.88-2.1,7.67,2.82,0,5.45-.76,7.72-2.08-2.32-1.34-4.26-3.27-5.62-5.59Z"/>
        <path d="M.11,93.3c.02,2.79.78,5.42,2.1,7.67,1.35-2.32,3.29-4.25,5.62-5.59-2.27-1.32-4.9-2.07-7.72-2.08Z"/>
        <path d="M28.92,85.39c-1.35,2.32-3.29,4.25-5.62,5.59,2.27,1.32,4.91,2.07,7.72,2.08-.02-2.79-.78-5.42-2.1-7.67Z"/>
        <path d="M23.3,95.38c2.33,1.34,4.27,3.27,5.62,5.59,1.32-2.25,2.09-4.88,2.1-7.67-2.81,0-5.45.76-7.72,2.08Z"/>
      </g>
      <g>
        <path d="M23.24,28.8c2.25,1.32,4.88,2.09,7.67,2.1,0-2.82-.76-5.45-2.08-7.72-1.34,2.32-3.27,4.26-5.59,5.62Z"/>
        <path d="M31.15,30.91c2.79-.02,5.42-.78,7.67-2.1-2.32-1.35-4.25-3.29-5.59-5.62-1.32,2.27-2.07,4.9-2.08,7.72Z"/>
        <path d="M17.65,23.19c1.34-2.32,3.27-4.26,5.59-5.62-2.25-1.32-4.88-2.09-7.67-2.1,0,2.82.76,5.45,2.08,7.72Z"/>
        <path d="M23.24,17.57c2.32,1.35,4.25,3.29,5.59,5.62,1.32-2.27,2.07-4.9,2.08-7.72-2.79.02-5.41.78-7.67,2.1Z"/>
        <path d="M15.57,15.43c2.79-.02,5.42-.78,7.67-2.1-2.32-1.35-4.25-3.29-5.59-5.61-1.32,2.26-2.07,4.9-2.08,7.71Z"/>
        <path d="M23.24,13.33c2.25,1.32,4.87,2.09,7.67,2.1,0-2.81-.76-5.45-2.08-7.71-1.34,2.32-3.27,4.26-5.59,5.61Z"/>
        <path d="M23.24,2.1c2.32,1.35,4.25,3.29,5.59,5.62C30.15,5.45,30.91,2.81,30.91,0c-2.79.02-5.42.78-7.67,2.1Z"/>
        <path d="M33.22,7.72c1.34-2.33,3.27-4.27,5.59-5.62C36.56.78,33.94.02,31.15,0c0,2.81.76,5.45,2.08,7.72Z"/>
        <path d="M38.86,28.8c2.25,1.32,4.88,2.09,7.67,2.1,0-2.82-.76-5.45-2.08-7.72-1.34,2.32-3.27,4.26-5.59,5.62Z"/>
        <path d="M46.77,30.91c2.79-.02,5.42-.78,7.67-2.1-2.32-1.35-4.25-3.29-5.59-5.62-1.32,2.27-2.07,4.9-2.08,7.72Z"/>
        <path d="M38.86,2.1c2.32,1.35,4.25,3.29,5.59,5.62C45.77,5.45,46.53,2.81,46.53,0c-2.79.02-5.42.78-7.67,2.1Z"/>
        <path d="M48.84,7.72c1.34-2.33,3.27-4.27,5.59-5.62C52.18.78,49.56.02,46.77,0c0,2.81.76,5.45,2.08,7.72Z"/>
      </g>
      <g>
        <path d="M69.85,2.1C67.6.78,64.97.02,62.18,0c0,2.82.76,5.45,2.08,7.72,1.34-2.32,3.27-4.26,5.59-5.62Z"/>
        <path d="M61.94,0c-2.79.02-5.42.78-7.67,2.1,2.32,1.35,4.25,3.29,5.59,5.62C61.19,5.45,61.94,2.82,61.94,0Z"/>
        <path d="M75.44,7.72c-1.34,2.32-3.27,4.26-5.59,5.62,2.25,1.32,4.88,2.09,7.67,2.1,0-2.82-.76-5.45-2.08-7.72Z"/>
        <path d="M69.85,13.33c-2.32-1.35-4.25-3.29-5.59-5.62-1.32,2.27-2.07,4.9-2.08,7.72,2.79-.02,5.41-.78,7.67-2.1Z"/>
        <path d="M77.52,15.47c-2.79.02-5.42.78-7.67,2.1,2.32,1.35,4.25,3.29,5.59,5.61,1.32-2.26,2.07-4.9,2.08-7.71Z"/>
        <path d="M69.85,17.58c-2.25-1.32-4.87-2.09-7.67-2.1,0,2.81.76,5.45,2.08,7.71,1.34-2.32,3.27-4.26,5.59-5.61Z"/>
        <path d="M69.85,28.8c-2.32-1.35-4.25-3.29-5.59-5.62-1.32,2.27-2.07,4.91-2.08,7.72,2.79-.02,5.42-.78,7.67-2.1Z"/>
        <path d="M59.87,23.19c-1.34,2.33-3.27,4.27-5.59,5.62,2.25,1.32,4.88,2.09,7.67,2.1,0-2.81-.76-5.45-2.08-7.72Z"/>
        <path d="M54.23,2.1C51.98.78,49.35.02,46.56,0c0,2.82.76,5.45,2.08,7.72,1.34-2.32,3.27-4.26,5.59-5.62Z"/>
        <path d="M46.32,0c-2.79.02-5.42.78-7.67,2.1,2.32,1.35,4.25,3.29,5.59,5.62,1.32-2.27,2.07-4.9,2.08-7.72Z"/>
        <path d="M54.23,28.8c-2.32-1.35-4.25-3.29-5.59-5.62-1.32,2.27-2.07,4.91-2.08,7.72,2.79-.02,5.42-.78,7.67-2.1Z"/>
        <path d="M44.25,23.19c-1.34,2.33-3.27,4.27-5.59,5.62,2.25,1.32,4.88,2.09,7.67,2.1,0-2.81-.76-5.45-2.08-7.72Z"/>
      </g>
      <g>
        <path d="M23.24,75.49c2.25,1.32,4.88,2.09,7.67,2.1,0-2.82-.76-5.45-2.08-7.72-1.34,2.32-3.27,4.26-5.59,5.62Z"/>
        <path d="M31.14,77.6c2.79-.02,5.42-.78,7.67-2.1-2.32-1.35-4.25-3.29-5.59-5.62-1.32,2.27-2.07,4.9-2.08,7.72Z"/>
        <path d="M17.64,69.88c1.34-2.32,3.27-4.26,5.59-5.62-2.25-1.32-4.88-2.09-7.67-2.1,0,2.82.76,5.45,2.08,7.72Z"/>
        <path d="M23.24,64.26c2.32,1.35,4.25,3.29,5.59,5.62,1.32-2.27,2.07-4.9,2.08-7.72-2.79.02-5.41.78-7.67,2.1Z"/>
        <path d="M15.56,62.12c2.79-.02,5.42-.78,7.67-2.1-2.32-1.35-4.25-3.29-5.59-5.61-1.32,2.26-2.07,4.9-2.08,7.71Z"/>
        <path d="M23.24,60.02c2.25,1.32,4.87,2.09,7.67,2.1,0-2.81-.76-5.45-2.08-7.71-1.34,2.32-3.27,4.26-5.59,5.61Z"/>
        <path d="M23.24,48.79c2.32,1.35,4.25,3.29,5.59,5.62,1.32-2.27,2.07-4.91,2.08-7.72-2.79.02-5.42.78-7.67,2.1Z"/>
        <path d="M33.22,54.41c1.34-2.33,3.27-4.27,5.59-5.62-2.25-1.32-4.88-2.09-7.67-2.1,0,2.81.76,5.45,2.08,7.72Z"/>
        <path d="M38.85,75.49c2.25,1.32,4.88,2.09,7.67,2.1,0-2.82-.76-5.45-2.08-7.72-1.34,2.32-3.27,4.26-5.59,5.62Z"/>
        <path d="M46.76,77.6c2.79-.02,5.42-.78,7.67-2.1-2.32-1.35-4.25-3.29-5.59-5.62-1.32,2.27-2.07,4.9-2.08,7.72Z"/>
        <path d="M38.85,48.79c2.32,1.35,4.25,3.29,5.59,5.62,1.32-2.27,2.07-4.91,2.08-7.72-2.79.02-5.42.78-7.67,2.1Z"/>
        <path d="M48.84,54.41c1.34-2.33,3.27-4.27,5.59-5.62-2.25-1.32-4.88-2.09-7.67-2.1,0,2.81.76,5.45,2.08,7.72Z"/>
      </g>
      <g>
        <path d="M69.85,48.71c-2.25-1.32-4.88-2.09-7.67-2.1,0,2.82.76,5.45,2.08,7.72,1.34-2.32,3.27-4.26,5.59-5.62Z"/>
        <path d="M61.94,46.61c-2.79.02-5.42.78-7.67,2.1,2.32,1.35,4.25,3.29,5.59,5.62,1.32-2.27,2.07-4.9,2.08-7.72Z"/>
        <path d="M75.44,54.33c-1.34,2.32-3.27,4.26-5.59,5.62,2.25,1.32,4.88,2.09,7.67,2.1,0-2.82-.76-5.45-2.08-7.72Z"/>
        <path d="M69.85,59.94c-2.32-1.35-4.25-3.29-5.59-5.62-1.32,2.27-2.07,4.9-2.08,7.72,2.79-.02,5.41-.78,7.67-2.1Z"/>
        <path d="M77.52,62.08c-2.79.02-5.42.78-7.67,2.1,2.32,1.35,4.25,3.29,5.59,5.61,1.32-2.26,2.07-4.9,2.08-7.71Z"/>
        <path d="M69.85,64.19c-2.25-1.32-4.87-2.09-7.67-2.1,0,2.81.76,5.45,2.08,7.71,1.34-2.32,3.27-4.26,5.59-5.61Z"/>
        <path d="M69.85,75.41c-2.32-1.35-4.25-3.29-5.59-5.62-1.32,2.27-2.07,4.91-2.08,7.72,2.79-.02,5.42-.78,7.67-2.1Z"/>
        <path d="M59.87,69.8c-1.34,2.33-3.27,4.27-5.59,5.62,2.25,1.32,4.88,2.09,7.67,2.1,0-2.81-.76-5.45-2.08-7.72Z"/>
        <path d="M54.23,48.71c-2.25-1.32-4.88-2.09-7.67-2.1,0,2.82.76,5.45,2.08,7.72,1.34-2.32,3.27-4.26,5.59-5.62Z"/>
        <path d="M46.32,46.61c-2.79.02-5.42.78-7.67,2.1,2.32,1.35,4.25,3.29,5.59,5.62,1.32-2.27,2.07-4.9,2.08-7.72Z"/>
        <path d="M54.23,75.41c-2.32-1.35-4.25-3.29-5.59-5.62-1.32,2.27-2.07,4.91-2.08,7.72,2.79-.02,5.42-.78,7.67-2.1Z"/>
        <path d="M44.25,69.8c-1.34,2.33-3.27,4.27-5.59,5.62,2.25,1.32,4.88,2.09,7.67,2.1,0-2.81-.76-5.45-2.08-7.72Z"/>
      </g>
      <g>
        <path d="M2.1,23.17C.78,25.42.02,28.05,0,30.84c2.82,0,5.45-.76,7.72-2.08-2.32-1.34-4.26-3.27-5.62-5.59Z"/>
        <path d="M0,31.07c.02,2.79.78,5.42,2.1,7.67,1.35-2.32,3.29-4.25,5.62-5.59C5.45,31.83,2.82,31.08,0,31.07Z"/>
        <path d="M7.72,17.57c2.32,1.34,4.26,3.27,5.62,5.59,1.32-2.25,2.09-4.88,2.1-7.67-2.82,0-5.45.76-7.72,2.08Z"/>
        <path d="M13.33,38.75c-1.35,2.32-3.29,4.25-5.62,5.59,2.27,1.32,4.9,2.07,7.72,2.08-.02-2.79-.78-5.41-2.1-7.67Z"/>
        <path d="M15.47,15.5c.02,2.79.78,5.42,2.1,7.67,1.35-2.32,3.29-4.25,5.61-5.59-2.26-1.32-4.9-2.07-7.71-2.08Z"/>
        <path d="M17.58,38.75c-1.32,2.25-2.09,4.87-2.1,7.67,2.81,0,5.45-.76,7.71-2.08-2.32-1.34-4.26-3.27-5.61-5.59Z"/>
        <path d="M28.8,23.17c-1.35,2.32-3.29,4.25-5.62,5.59,2.27,1.32,4.91,2.07,7.72,2.08-.02-2.79-.78-5.42-2.1-7.67Z"/>
        <path d="M23.19,33.15c2.33,1.34,4.27,3.27,5.62,5.59,1.32-2.25,2.09-4.88,2.1-7.67-2.81,0-5.45.76-7.72,2.08Z"/>
        <path d="M2.1,38.79C.78,41.04.02,43.66,0,46.46c2.82,0,5.45-.76,7.72-2.08-2.32-1.34-4.26-3.27-5.62-5.59Z"/>
        <path d="M0,46.69c.02,2.79.78,5.42,2.1,7.67,1.35-2.32,3.29-4.25,5.62-5.59-2.27-1.32-4.9-2.07-7.72-2.08Z"/>
        <path d="M28.8,38.79c-1.35,2.32-3.29,4.25-5.62,5.59,2.27,1.32,4.91,2.07,7.72,2.08-.02-2.79-.78-5.42-2.1-7.67Z"/>
        <path d="M23.19,48.77c2.33,1.34,4.27,3.27,5.62,5.59,1.32-2.25,2.09-4.88,2.1-7.67-2.81,0-5.45.76-7.72,2.08Z"/>
      </g>
      <g>
        <path d="M2.22,100.97c-1.32,2.25-2.09,4.88-2.1,7.67,2.82,0,5.45-.76,7.72-2.08-2.32-1.34-4.26-3.27-5.62-5.59Z"/>
        <path d="M.11,108.88c.02,2.79.78,5.42,2.1,7.67,1.35-2.32,3.29-4.25,5.62-5.59-2.27-1.32-4.9-2.07-7.72-2.08Z"/>
        <path d="M7.83,95.38c2.32,1.34,4.26,3.27,5.62,5.59,1.32-2.25,2.09-4.88,2.1-7.67-2.82,0-5.45.76-7.72,2.08Z"/>
        <path d="M13.45,116.55c-1.35,2.32-3.29,4.25-5.62,5.59,2.27,1.32,4.9,2.07,7.72,2.08-.02-2.79-.78-5.41-2.1-7.67Z"/>
        <path d="M15.59,93.3c.02,2.79.78,5.42,2.1,7.67,1.35-2.32,3.29-4.25,5.61-5.59-2.26-1.32-4.9-2.07-7.71-2.08Z"/>
        <path d="M17.69,116.55c-1.32,2.25-2.09,4.87-2.1,7.67,2.81,0,5.45-.76,7.71-2.08-2.32-1.34-4.26-3.27-5.61-5.59Z"/>
        <path d="M28.92,100.97c-1.35,2.32-3.29,4.25-5.62,5.59,2.27,1.32,4.91,2.07,7.72,2.08-.02-2.79-.78-5.42-2.1-7.67Z"/>
        <path d="M23.3,110.96c2.33,1.34,4.27,3.27,5.62,5.59,1.32-2.25,2.09-4.88,2.1-7.67-2.81,0-5.45.76-7.72,2.08Z"/>
      </g>
    </g>
  </g>
</svg>