<?xml version="1.0" encoding="UTF-8"?>
<svg id="_레이어_2" data-name="레이어 2" xmlns="http://www.w3.org/2000/svg" viewBox="0 0 77.42 108.9">
  <g id="_레이어_1-2" data-name="레이어 1">
    <g>
      <g>
        <path d="M2.25,7.61c1.34,2.32,3.27,4.26,5.59,5.62-2.25,1.32-4.88,2.09-7.67,2.1,0-2.82.76-5.45,2.08-7.72Z"/>
        <path d="M.04,15.51c2.79.02,5.42.78,7.67,2.1-2.32,1.35-4.25,3.29-5.59,5.61C.8,20.96.04,18.32.04,15.51Z"/>
        <path d="M2.12,23.38c1.35,2.32,3.29,4.25,5.62,5.59-2.27,1.32-4.91,2.07-7.72,2.08.02-2.79.78-5.42,2.1-7.67Z"/>
        <path d="M7.73,33.36c-2.33,1.34-4.27,3.27-5.62,5.59C.79,36.7.03,34.08.01,31.29c2.81,0,5.45.76,7.72,2.08Z"/>
        <path d="M23.19,33.15c2.25-1.32,4.88-2.09,7.67-2.1,0,2.82-.76,5.45-2.08,7.72-1.34-2.32-3.27-4.26-5.59-5.62Z"/>
        <path d="M31.09,31.04c2.79.02,5.42.78,7.67,2.1-2.32,1.35-4.25,3.29-5.59,5.62-1.32-2.27-2.07-4.9-2.08-7.72Z"/>
      </g>
      <g>
        <path d="M38.9,28.8c-2.25,1.32-4.88,2.09-7.67,2.1,0-2.82.76-5.45,2.08-7.72,1.34,2.32,3.27,4.26,5.59,5.62Z"/>
        <path d="M30.99,30.91c-2.79-.02-5.42-.78-7.67-2.1,2.32-1.35,4.25-3.29,5.59-5.62,1.32,2.27,2.07,4.9,2.08,7.72Z"/>
        <path d="M59.96,23.19c-1.34-2.32-3.27-4.26-5.59-5.62,2.25-1.32,4.88-2.09,7.67-2.1,0,2.82-.76,5.45-2.08,7.72Z"/>
        <path d="M69.59,17.57c-2.32,1.35-4.25,3.29-5.59,5.62-1.32-2.27-2.07-4.9-2.08-7.72,2.79.02,5.41.78,7.67,2.1Z"/>
        <path d="M62.03,15.43c-2.79-.02-5.42-.78-7.67-2.1,2.32-1.35,4.25-3.29,5.59-5.61,1.32,2.26,2.07,4.9,2.08,7.71Z"/>
        <path d="M69.59,13.33c-2.25,1.32-4.87,2.09-7.67,2.1,0-2.81.76-5.45,2.08-7.71,1.34,2.32,3.27,4.26,5.59,5.61Z"/>
        <path d="M38.9,2.1c-2.32,1.35-4.25,3.29-5.59,5.62-1.32-2.27-2.07-4.91-2.08-7.72,2.79.02,5.42.78,7.67,2.1Z"/>
        <path d="M28.91,7.72c-1.34-2.33-3.27-4.27-5.59-5.62C25.57.78,28.2.02,30.99,0c0,2.81-.76,5.45-2.08,7.72Z"/>
        <path d="M23.26,13.33c-2.25,1.32-4.88,2.09-7.67,2.1,0-2.82.76-5.45,2.08-7.72,1.34,2.32,3.27,4.26,5.59,5.62Z"/>
        <path d="M15.35,15.44c-2.79-.02-5.42-.78-7.67-2.1,2.32-1.35,4.25-3.29,5.59-5.62,1.32,2.27,2.07,4.9,2.08,7.72Z"/>
        <path d="M23.28,2.1c-2.32,1.35-4.25,3.29-5.59,5.62C16.37,5.45,15.61,2.81,15.61,0c2.79.02,5.42.78,7.67,2.1Z"/>
        <path d="M13.3,7.72c-1.34-2.33-3.27-4.27-5.59-5.62C9.96.78,12.58.02,15.37,0c0,2.81-.76,5.45-2.08,7.72Z"/>
      </g>
      <g>
        <path d="M69.75,44.34c-2.25,1.32-4.88,2.09-7.67,2.1,0-2.82.76-5.45,2.08-7.72,1.34,2.32,3.27,4.26,5.59,5.62Z"/>
        <path d="M61.84,46.44c-2.79-.02-5.42-.78-7.67-2.1,2.32-1.35,4.25-3.29,5.59-5.62,1.32,2.27,2.07,4.9,2.08,7.72Z"/>
        <path d="M75.34,23.19c-1.34-2.32-3.27-4.26-5.59-5.62,2.25-1.32,4.88-2.09,7.67-2.1,0,2.82-.76,5.45-2.08,7.72Z"/>
        <path d="M77.42,15.43c-2.79-.02-5.42-.78-7.67-2.1,2.32-1.35,4.25-3.29,5.59-5.61,1.32,2.26,2.07,4.9,2.08,7.71Z"/>
        <path d="M69.75,2.1c-2.32,1.35-4.25,3.29-5.59,5.62-1.32-2.27-2.07-4.91-2.08-7.72,2.79.02,5.42.78,7.67,2.1Z"/>
        <path d="M59.76,7.72c-1.34-2.33-3.27-4.27-5.59-5.62C56.42.78,59.05.02,61.84,0c0,2.81-.76,5.45-2.08,7.72Z"/>
        <path d="M54.13,28.8c-2.25,1.32-4.88,2.09-7.67,2.1,0-2.82.76-5.45,2.08-7.72,1.34,2.32,3.27,4.26,5.59,5.62Z"/>
        <path d="M46.22,30.91c-2.79-.02-5.42-.78-7.67-2.1,2.32-1.35,4.25-3.29,5.59-5.62,1.32,2.27,2.07,4.9,2.08,7.72Z"/>
        <path d="M54.13,2.1c-2.32,1.35-4.25,3.29-5.59,5.62C47.21,5.45,46.46,2.81,46.46,0c2.79.02,5.42.78,7.67,2.1Z"/>
        <path d="M44.14,7.72c-1.34-2.33-3.27-4.27-5.59-5.62C40.8.78,43.43.02,46.22,0c0,2.81-.76,5.45-2.08,7.72Z"/>
      </g>
      <g>
        <path d="M69.75,59.84c-2.25,1.32-4.88,2.09-7.67,2.1,0-2.82.76-5.45,2.08-7.72,1.34,2.32,3.27,4.26,5.59,5.62Z"/>
        <path d="M61.84,61.94c-2.79-.02-5.42-.78-7.67-2.1,2.32-1.35,4.25-3.29,5.59-5.62,1.32,2.27,2.07,4.9,2.08,7.72Z"/>
        <path d="M75.34,54.22c-1.34-2.32-3.27-4.26-5.59-5.62,2.25-1.32,4.88-2.09,7.67-2.1,0,2.82-.76,5.45-2.08,7.72Z"/>
        <path d="M77.42,46.47c-2.79-.02-5.42-.78-7.67-2.1,2.32-1.35,4.25-3.29,5.59-5.61,1.32,2.26,2.07,4.9,2.08,7.71Z"/>
        <path d="M75.34,38.64c-1.34-2.32-3.27-4.26-5.59-5.62,2.25-1.32,4.88-2.09,7.67-2.1,0,2.82-.76,5.45-2.08,7.72Z"/>
        <path d="M77.42,30.89c-2.79-.02-5.42-.78-7.67-2.1,2.32-1.35,4.25-3.29,5.59-5.61,1.32,2.26,2.07,4.9,2.08,7.71Z"/>
        <path d="M69.75,48.67c-2.32,1.35-4.25,3.29-5.59,5.62-1.32-2.27-2.07-4.91-2.08-7.72,2.79.02,5.42.78,7.67,2.1Z"/>
        <path d="M59.76,54.29c-1.34-2.33-3.27-4.27-5.59-5.62,2.25-1.32,4.88-2.09,7.67-2.1,0,2.81-.76,5.45-2.08,7.72Z"/>
        <path d="M23.28,48.96c-2.32,1.35-4.25,3.29-5.59,5.62-1.32-2.27-2.07-4.91-2.08-7.72,2.79.02,5.42.78,7.67,2.1Z"/>
        <path d="M13.3,54.58c-1.34-2.33-3.27-4.27-5.59-5.62,2.25-1.32,4.88-2.09,7.67-2.1,0,2.81-.76,5.45-2.08,7.72Z"/>
        <path d="M54.13,59.84c-2.25,1.32-4.88,2.09-7.67,2.1,0-2.82.76-5.45,2.08-7.72,1.34,2.32,3.27,4.26,5.59,5.62Z"/>
        <path d="M23.16,60.06c-2.25,1.32-4.88,2.09-7.67,2.1,0-2.82.76-5.45,2.08-7.72,1.34,2.32,3.27,4.26,5.59,5.62Z"/>
        <path d="M46.22,61.94c-2.79-.02-5.42-.78-7.67-2.1,2.32-1.35,4.25-3.29,5.59-5.62,1.32,2.27,2.07,4.9,2.08,7.72Z"/>
        <path d="M54.13,33.14c-2.32,1.35-4.25,3.29-5.59,5.62-1.32-2.27-2.07-4.91-2.08-7.72,2.79.02,5.42.78,7.67,2.1Z"/>
        <path d="M44.14,38.75c-1.34-2.33-3.27-4.27-5.59-5.62,2.25-1.32,4.88-2.09,7.67-2.1,0,2.81-.76,5.45-2.08,7.72Z"/>
      </g>
      <g>
        <path d="M38.98,106.7c-2.25,1.32-4.88,2.09-7.67,2.1,0-2.82.76-5.45,2.08-7.72,1.34,2.32,3.27,4.26,5.59,5.62Z"/>
        <path d="M31.07,108.8c-2.79-.02-5.42-.78-7.67-2.1,2.32-1.35,4.25-3.29,5.59-5.62,1.32,2.27,2.07,4.9,2.08,7.72Z"/>
        <path d="M44.57,101.08c-1.34-2.32-3.27-4.26-5.59-5.62,2.25-1.32,4.88-2.09,7.67-2.1,0,2.82-.76,5.45-2.08,7.72Z"/>
        <path d="M54.21,95.47c-2.32,1.35-4.25,3.29-5.59,5.62-1.32-2.27-2.07-4.9-2.08-7.72,2.79.02,5.41.78,7.67,2.1Z"/>
        <path d="M46.65,93.33c-2.79-.02-5.42-.78-7.67-2.1,2.32-1.35,4.25-3.29,5.59-5.61,1.32,2.26,2.07,4.9,2.08,7.71Z"/>
        <path d="M54.21,91.22c-2.25,1.32-4.87,2.09-7.67,2.1,0-2.81.76-5.45,2.08-7.71,1.34,2.32,3.27,4.26,5.59,5.61Z"/>
        <path d="M13.39,101c-1.34-2.32-3.27-4.26-5.59-5.62,2.25-1.32,4.88-2.09,7.67-2.1,0,2.82-.76,5.45-2.08,7.72Z"/>
        <path d="M23.02,95.39c-2.32,1.35-4.25,3.29-5.59,5.62-1.32-2.27-2.07-4.9-2.08-7.72,2.79.02,5.41.78,7.67,2.1Z"/>
        <path d="M15.47,93.25c-2.79-.02-5.42-.78-7.67-2.1,2.32-1.35,4.25-3.29,5.59-5.61,1.32,2.26,2.07,4.9,2.08,7.71Z"/>
        <path d="M23.02,91.14c-2.25,1.32-4.87,2.09-7.67,2.1,0-2.81.76-5.45,2.08-7.71,1.34,2.32,3.27,4.26,5.59,5.61Z"/>
        <path d="M7.67,95.4c-2.32,1.35-4.25,3.29-5.59,5.62C.76,98.75,0,96.11,0,93.3c2.79.02,5.41.78,7.67,2.1Z"/>
        <path d="M7.67,91.16c-2.25,1.32-4.87,2.09-7.67,2.1,0-2.81.76-5.45,2.08-7.71,1.34,2.32,3.27,4.26,5.59,5.61Z"/>
        <path d="M38.98,80c-2.32,1.35-4.25,3.29-5.59,5.62-1.32-2.27-2.07-4.91-2.08-7.72,2.79.02,5.42.78,7.67,2.1Z"/>
        <path d="M28.99,85.61c-1.34-2.33-3.27-4.27-5.59-5.62,2.25-1.32,4.88-2.09,7.67-2.1,0,2.81-.76,5.45-2.08,7.72Z"/>
        <path d="M23.36,106.7c-2.25,1.32-4.88,2.09-7.67,2.1,0-2.82.76-5.45,2.08-7.72,1.34,2.32,3.27,4.26,5.59,5.62Z"/>
        <path d="M15.45,108.8c-2.79-.02-5.42-.78-7.67-2.1,2.32-1.35,4.25-3.29,5.59-5.62,1.32,2.27,2.07,4.9,2.08,7.72Z"/>
        <path d="M23.02,80c-2.32,1.35-4.25,3.29-5.59,5.62-1.32-2.27-2.07-4.91-2.08-7.72,2.79.02,5.42.78,7.67,2.1Z"/>
        <path d="M13.38,85.61c-1.34-2.33-3.27-4.27-5.59-5.62,2.25-1.32,4.88-2.09,7.67-2.1,0,2.81-.76,5.45-2.08,7.72Z"/>
      </g>
      <g>
        <path d="M69.67,106.7c-2.25,1.32-4.88,2.09-7.67,2.1,0-2.82.76-5.45,2.08-7.72,1.34,2.32,3.27,4.26,5.59,5.62Z"/>
        <path d="M61.77,108.81c-2.79-.02-5.42-.78-7.67-2.1,2.32-1.35,4.25-3.29,5.59-5.62,1.32,2.27,2.07,4.9,2.08,7.72Z"/>
        <path d="M75.27,101.09c-1.34-2.32-3.27-4.26-5.59-5.62,2.25-1.32,4.88-2.09,7.67-2.1,0,2.82-.76,5.45-2.08,7.72Z"/>
        <path d="M69.67,95.47c-2.32,1.35-4.25,3.29-5.59,5.62-1.32-2.27-2.07-4.9-2.08-7.72,2.79.02,5.41.78,7.67,2.1Z"/>
        <path d="M77.34,93.33c-2.79-.02-5.42-.78-7.67-2.1,2.32-1.35,4.25-3.29,5.59-5.61,1.32,2.26,2.07,4.9,2.08,7.71Z"/>
        <path d="M75.27,85.59c-1.34-2.32-3.27-4.26-5.59-5.62,2.25-1.32,4.88-2.09,7.67-2.1,0,2.82-.76,5.45-2.08,7.72Z"/>
        <path d="M77.34,77.84c-2.79-.02-5.42-.78-7.67-2.1,2.32-1.35,4.25-3.29,5.59-5.61,1.32,2.26,2.07,4.9,2.08,7.71Z"/>
        <path d="M75.27,70.01c-1.34-2.32-3.27-4.26-5.59-5.62,2.25-1.32,4.88-2.09,7.67-2.1,0,2.82-.76,5.45-2.08,7.72Z"/>
        <path d="M77.34,62.25c-2.79-.02-5.42-.78-7.67-2.1,2.32-1.35,4.25-3.29,5.59-5.61,1.32,2.26,2.07,4.9,2.08,7.71Z"/>
        <path d="M69.67,91.23c-2.25,1.32-4.87,2.09-7.67,2.1,0-2.81.76-5.45,2.08-7.71,1.34,2.32,3.27,4.26,5.59,5.61Z"/>
        <path d="M69.67,80c-2.32,1.35-4.25,3.29-5.59,5.62-1.32-2.27-2.07-4.91-2.08-7.72,2.79.02,5.42.78,7.67,2.1Z"/>
        <path d="M59.69,85.62c-1.34-2.33-3.27-4.27-5.59-5.62,2.25-1.32,4.88-2.09,7.67-2.1,0,2.81-.76,5.45-2.08,7.72Z"/>
        <path d="M54.05,106.7c-2.25,1.32-4.88,2.09-7.67,2.1,0-2.82.76-5.45,2.08-7.72,1.34,2.32,3.27,4.26,5.59,5.62Z"/>
        <path d="M46.15,108.81c-2.79-.02-5.42-.78-7.67-2.1,2.32-1.35,4.25-3.29,5.59-5.62,1.32,2.27,2.07,4.9,2.08,7.72Z"/>
        <path d="M54.05,80c-2.32,1.35-4.25,3.29-5.59,5.62-1.32-2.27-2.07-4.91-2.08-7.72,2.79.02,5.42.78,7.67,2.1Z"/>
        <path d="M44.07,85.62c-1.34-2.33-3.27-4.27-5.59-5.62,2.25-1.32,4.88-2.09,7.67-2.1,0,2.81-.76,5.45-2.08,7.72Z"/>
      </g>
      <g>
        <path d="M23.28,17.79c-2.32,1.34-4.26,3.27-5.62,5.59-1.32-2.25-2.09-4.88-2.1-7.67,2.82,0,5.45.76,7.72,2.08Z"/>
        <path d="M17.69,38.89c1.35,2.32,3.29,4.25,5.62,5.59-2.27,1.32-4.9,2.07-7.72,2.08.02-2.79.78-5.41,2.1-7.67Z"/>
        <path d="M15.52,15.71c-.02,2.79-.78,5.42-2.1,7.67-1.35-2.32-3.29-4.25-5.61-5.59,2.26-1.32,4.9-2.07,7.71-2.08Z"/>
        <path d="M13.47,38.89c1.32,2.25,2.09,4.87,2.1,7.67-2.81,0-5.45-.76-7.71-2.08,2.32-1.34,4.26-3.27,5.61-5.59Z"/>
        <path d="M2.12,38.89c1.35,2.32,3.29,4.25,5.62,5.59-2.27,1.32-4.91,2.07-7.72,2.08.02-2.79.78-5.42,2.1-7.67Z"/>
        <path d="M7.73,48.82c-2.33,1.34-4.27,3.27-5.62,5.59C.79,52.16.03,49.54.01,46.74c2.81,0,5.45.76,7.72,2.08Z"/>
        <path d="M13.46,54.49c1.32,2.25,2.09,4.88,2.1,7.67-2.82,0-5.45-.76-7.72-2.08,2.32-1.34,4.26-3.27,5.62-5.59Z"/>
        <path d="M15.47,62.42c-.02,2.79-.78,5.42-2.1,7.67-1.35-2.32-3.29-4.25-5.62-5.59,2.27-1.32,4.9-2.07,7.72-2.08Z"/>
        <path d="M2.24,54.36c1.35,2.32,3.29,4.25,5.62,5.59-2.27,1.32-4.91,2.07-7.72,2.08.02-2.79.78-5.42,2.1-7.67Z"/>
        <path d="M7.86,64.34c-2.33,1.34-4.27,3.27-5.62,5.59-1.32-2.25-2.09-4.88-2.1-7.67,2.81,0,5.45.76,7.72,2.08Z"/>
      </g>
      <g>
        <path d="M69.64,64.4c-2.32,1.34-4.26,3.27-5.62,5.59-1.32-2.25-2.09-4.88-2.1-7.67,2.82,0,5.45.76,7.72,2.08Z"/>
        <path d="M23.19,64.5c-2.32,1.34-4.26,3.27-5.62,5.59-1.32-2.25-2.09-4.88-2.1-7.67,2.82,0,5.45.76,7.72,2.08Z"/>
        <path d="M38.58,60.06c-2.25,1.32-4.88,2.09-7.67,2.1,0-2.82.76-5.45,2.08-7.72,1.34,2.32,3.27,4.26,5.59,5.62Z"/>
        <path d="M28.87,54.49c1.32,2.25,2.09,4.88,2.1,7.67-2.82,0-5.45-.76-7.72-2.08,2.32-1.34,4.26-3.27,5.62-5.59Z"/>
        <path d="M30.88,62.42c-.02,2.79-.78,5.42-2.1,7.67-1.35-2.32-3.29-4.25-5.62-5.59,2.27-1.32,4.9-2.07,7.72-2.08Z"/>
        <path d="M38.6,64.5c-2.32,1.34-4.26,3.27-5.62,5.59-1.32-2.25-2.09-4.88-2.1-7.67,2.82,0,5.45.76,7.72,2.08Z"/>
        <path d="M46.46,62.42c-.02,2.79-.78,5.42-2.1,7.67-1.35-2.32-3.29-4.25-5.62-5.59,2.27-1.32,4.9-2.07,7.72-2.08Z"/>
        <path d="M54.18,64.5c-2.32,1.34-4.26,3.27-5.62,5.59-1.32-2.25-2.09-4.88-2.1-7.67,2.82,0,5.45.76,7.72,2.08Z"/>
        <path d="M64.03,101.23c1.35,2.32,3.29,4.25,5.62,5.59-2.27,1.32-4.9,2.07-7.72,2.08.02-2.79.78-5.41,2.1-7.67Z"/>
        <path d="M61.89,62.32c-.02,2.79-.78,5.42-2.1,7.67-1.35-2.32-3.29-4.25-5.61-5.59,2.26-1.32,4.9-2.07,7.71-2.08Z"/>
        <path d="M59.78,101.23c1.32,2.25,2.09,4.87,2.1,7.67-2.81,0-5.45-.76-7.71-2.08,2.32-1.34,4.26-3.27,5.61-5.59Z"/>
        <path d="M48.56,85.65c1.35,2.32,3.29,4.25,5.62,5.59-2.27,1.32-4.91,2.07-7.72,2.08.02-2.79.78-5.42,2.1-7.67Z"/>
        <path d="M54.17,95.64c-2.33,1.34-4.27,3.27-5.62,5.59-1.32-2.25-2.09-4.88-2.1-7.67,2.81,0,5.45.76,7.72,2.08Z"/>
      </g>
    </g>
  </g>
</svg>