<?xml version="1.0" encoding="UTF-8"?>
<svg id="_레이어_2" data-name="레이어 2" xmlns="http://www.w3.org/2000/svg" viewBox="0 0 77.28 124.31">
  <g id="_레이어_1-2" data-name="레이어 1">
    <g>
      <g>
        <path d="M2.1,54.16C.78,56.42.02,59.04,0,61.84c2.82,0,5.45-.76,7.72-2.08-2.32-1.34-4.26-3.27-5.62-5.59Z"/>
        <path d="M0,62.07c.02,2.79.78,5.42,2.1,7.67,1.35-2.32,3.29-4.25,5.62-5.59C5.45,62.83,2.82,62.08,0,62.07Z"/>
        <path d="M7.72,48.57c2.32,1.34,4.26,3.27,5.62,5.59,1.32-2.25,2.09-4.88,2.1-7.67-2.82,0-5.45.76-7.72,2.08Z"/>
        <path d="M13.33,54.17c-1.35,2.32-3.29,4.25-5.62,5.59,2.27,1.32,4.9,2.07,7.72,2.08-.02-2.79-.78-5.41-2.1-7.67Z"/>
        <path d="M15.47,46.49c.02,2.79.78,5.42,2.1,7.67,1.35-2.32,3.29-4.25,5.61-5.59-2.26-1.32-4.9-2.07-7.71-2.08Z"/>
        <path d="M17.58,54.17c-1.32,2.25-2.09,4.87-2.1,7.67,2.81,0,5.45-.76,7.71-2.08-2.32-1.34-4.26-3.27-5.61-5.59Z"/>
        <path d="M28.8,54.16c-1.35,2.32-3.29,4.25-5.62,5.59,2.27,1.32,4.91,2.07,7.72,2.08-.02-2.79-.78-5.42-2.1-7.67Z"/>
        <path d="M23.19,64.15c2.33,1.34,4.27,3.27,5.62,5.59,1.32-2.25,2.09-4.88,2.1-7.67-2.81,0-5.45.76-7.72,2.08Z"/>
        <path d="M2.1,69.78C.78,72.04.02,74.66,0,77.46c2.82,0,5.45-.76,7.72-2.08-2.32-1.34-4.26-3.27-5.62-5.59Z"/>
        <path d="M0,77.69c.02,2.79.78,5.42,2.1,7.67,1.35-2.32,3.29-4.25,5.62-5.59-2.27-1.32-4.9-2.07-7.72-2.08Z"/>
        <path d="M28.8,69.78c-1.35,2.32-3.29,4.25-5.62,5.59,2.27,1.32,4.91,2.07,7.72,2.08-.02-2.79-.78-5.42-2.1-7.67Z"/>
        <path d="M23.19,79.77c2.33,1.34,4.27,3.27,5.62,5.59,1.32-2.25,2.09-4.88,2.1-7.67-2.81,0-5.45.76-7.72,2.08Z"/>
      </g>
      <g>
        <path d="M2.14,69.87c-1.32,2.25-2.09,4.88-2.1,7.67,2.82,0,5.45-.76,7.72-2.08-2.32-1.34-4.26-3.27-5.62-5.59Z"/>
        <path d="M.04,77.77c.02,2.79.78,5.42,2.1,7.67,1.35-2.32,3.29-4.25,5.62-5.59-2.27-1.32-4.9-2.07-7.72-2.08Z"/>
        <path d="M7.76,64.27c2.32,1.34,4.26,3.27,5.62,5.59,1.32-2.25,2.09-4.88,2.1-7.67-2.82,0-5.45.76-7.72,2.08Z"/>
        <path d="M13.37,85.44c-1.35,2.32-3.29,4.25-5.62,5.59,2.27,1.32,4.9,2.07,7.72,2.08-.02-2.79-.78-5.41-2.1-7.67Z"/>
        <path d="M15.51,62.19c.02,2.79.78,5.42,2.1,7.67,1.35-2.32,3.29-4.25,5.61-5.59-2.26-1.32-4.9-2.07-7.71-2.08Z"/>
        <path d="M17.62,85.44c-1.32,2.25-2.09,4.87-2.1,7.67,2.81,0,5.45-.76,7.71-2.08-2.32-1.34-4.26-3.27-5.61-5.59Z"/>
        <path d="M28.84,69.87c-1.35,2.32-3.29,4.25-5.62,5.59,2.27,1.32,4.91,2.07,7.72,2.08-.02-2.79-.78-5.42-2.1-7.67Z"/>
        <path d="M23.23,79.85c2.33,1.34,4.27,3.27,5.62,5.59,1.32-2.25,2.09-4.88,2.1-7.67-2.81,0-5.45.76-7.72,2.08Z"/>
        <path d="M2.14,85.48c-1.32,2.25-2.09,4.88-2.1,7.67,2.82,0,5.45-.76,7.72-2.08-2.32-1.34-4.26-3.27-5.62-5.59Z"/>
        <path d="M.04,93.39c.02,2.79.78,5.42,2.1,7.67,1.35-2.32,3.29-4.25,5.62-5.59-2.27-1.32-4.9-2.07-7.72-2.08Z"/>
        <path d="M28.84,85.48c-1.35,2.32-3.29,4.25-5.62,5.59,2.27,1.32,4.91,2.07,7.72,2.08-.02-2.79-.78-5.42-2.1-7.67Z"/>
        <path d="M23.23,95.47c2.33,1.34,4.27,3.27,5.62,5.59,1.32-2.25,2.09-4.88,2.1-7.67-2.81,0-5.45.76-7.72,2.08Z"/>
      </g>
      <g>
        <path d="M2.1,7.67C.78,9.93.02,12.55,0,15.34c2.82,0,5.45-.76,7.72-2.08-2.32-1.34-4.26-3.27-5.62-5.59Z"/>
        <path d="M0,15.58c.02,2.79.78,5.42,2.1,7.67,1.35-2.32,3.29-4.25,5.62-5.59C5.45,16.34,2.82,15.58,0,15.58Z"/>
        <path d="M7.72,2.08c2.32,1.34,4.26,3.27,5.62,5.59,1.32-2.25,2.09-4.88,2.1-7.67-2.82,0-5.45.76-7.72,2.08Z"/>
        <path d="M13.33,7.68c-1.35,2.32-3.29,4.25-5.62,5.59,2.27,1.32,4.9,2.07,7.72,2.08-.02-2.79-.78-5.41-2.1-7.67Z"/>
        <path d="M15.47,0c.02,2.79.78,5.42,2.1,7.67,1.35-2.32,3.29-4.25,5.61-5.59C20.92.76,18.29,0,15.47,0Z"/>
        <path d="M17.58,7.68c-1.32,2.25-2.09,4.87-2.1,7.67,2.81,0,5.45-.76,7.71-2.08-2.32-1.34-4.26-3.27-5.61-5.59Z"/>
        <path d="M28.8,7.67c-1.35,2.32-3.29,4.25-5.62,5.59,2.27,1.32,4.91,2.07,7.72,2.08-.02-2.79-.78-5.42-2.1-7.67Z"/>
        <path d="M23.19,17.66c2.33,1.34,4.27,3.27,5.62,5.59,1.32-2.25,2.09-4.88,2.1-7.67-2.81,0-5.45.76-7.72,2.08Z"/>
        <path d="M2.1,23.29C.78,25.55.02,28.17,0,30.96c2.82,0,5.45-.76,7.72-2.08-2.32-1.34-4.26-3.27-5.62-5.59Z"/>
        <path d="M0,31.2c.02,2.79.78,5.42,2.1,7.67,1.35-2.32,3.29-4.25,5.62-5.59C5.45,31.96,2.82,31.2,0,31.2Z"/>
        <path d="M28.8,23.29c-1.35,2.32-3.29,4.25-5.62,5.59,2.27,1.32,4.91,2.07,7.72,2.08-.02-2.79-.78-5.42-2.1-7.67Z"/>
        <path d="M23.19,33.28c2.33,1.34,4.27,3.27,5.62,5.59,1.32-2.25,2.09-4.88,2.1-7.67-2.81,0-5.45.76-7.72,2.08Z"/>
      </g>
      <g>
        <path d="M2.14,23.37C.82,25.63.05,28.25.04,31.05c2.82,0,5.45-.76,7.72-2.08-2.32-1.34-4.26-3.27-5.62-5.59Z"/>
        <path d="M.04,31.28c.02,2.79.78,5.42,2.1,7.67,1.35-2.32,3.29-4.25,5.62-5.59-2.27-1.32-4.9-2.07-7.72-2.08Z"/>
        <path d="M7.76,17.78c2.32,1.34,4.26,3.27,5.62,5.59,1.32-2.25,2.09-4.88,2.1-7.67-2.82,0-5.45.76-7.72,2.08Z"/>
        <path d="M13.37,38.95c-1.35,2.32-3.29,4.25-5.62,5.59,2.27,1.32,4.9,2.07,7.72,2.08-.02-2.79-.78-5.41-2.1-7.67Z"/>
        <path d="M15.51,15.7c.02,2.79.78,5.42,2.1,7.67,1.35-2.32,3.29-4.25,5.61-5.59-2.26-1.32-4.9-2.07-7.71-2.08Z"/>
        <path d="M17.62,38.95c-1.32,2.25-2.09,4.87-2.1,7.67,2.81,0,5.45-.76,7.71-2.08-2.32-1.34-4.26-3.27-5.61-5.59Z"/>
        <path d="M28.84,23.37c-1.35,2.32-3.29,4.25-5.62,5.59,2.27,1.32,4.91,2.07,7.72,2.08-.02-2.79-.78-5.42-2.1-7.67Z"/>
        <path d="M23.23,33.36c2.33,1.34,4.27,3.27,5.62,5.59,1.32-2.25,2.09-4.88,2.1-7.67-2.81,0-5.45.76-7.72,2.08Z"/>
        <path d="M2.14,38.99C.82,41.25.05,43.87.04,46.67c2.82,0,5.45-.76,7.72-2.08-2.32-1.34-4.26-3.27-5.62-5.59Z"/>
        <path d="M.04,46.9c.02,2.79.78,5.42,2.1,7.67,1.35-2.32,3.29-4.25,5.62-5.59-2.27-1.32-4.9-2.07-7.72-2.08Z"/>
        <path d="M28.84,38.99c-1.35,2.32-3.29,4.25-5.62,5.59,2.27,1.32,4.91,2.07,7.72,2.08-.02-2.79-.78-5.42-2.1-7.67Z"/>
        <path d="M23.23,48.98c2.33,1.34,4.27,3.27,5.62,5.59,1.32-2.25,2.09-4.88,2.1-7.67-2.81,0-5.45.76-7.72,2.08Z"/>
      </g>
      <g>
        <path d="M2.14,101.06c-1.32,2.25-2.09,4.88-2.1,7.67,2.82,0,5.45-.76,7.72-2.08-2.32-1.34-4.26-3.27-5.62-5.59Z"/>
        <path d="M.04,108.97c.02,2.79.78,5.42,2.1,7.67,1.35-2.32,3.29-4.25,5.62-5.59-2.27-1.32-4.9-2.07-7.72-2.08Z"/>
        <path d="M7.76,95.47c2.32,1.34,4.26,3.27,5.62,5.59,1.32-2.25,2.09-4.88,2.1-7.67-2.82,0-5.45.76-7.72,2.08Z"/>
        <path d="M13.37,116.64c-1.35,2.32-3.29,4.25-5.62,5.59,2.27,1.32,4.9,2.07,7.72,2.08-.02-2.79-.78-5.41-2.1-7.67Z"/>
        <path d="M15.51,93.39c.02,2.79.78,5.42,2.1,7.67,1.35-2.32,3.29-4.25,5.61-5.59-2.26-1.32-4.9-2.07-7.71-2.08Z"/>
        <path d="M17.62,116.64c-1.32,2.25-2.09,4.87-2.1,7.67,2.81,0,5.45-.76,7.71-2.08-2.32-1.34-4.26-3.27-5.61-5.59Z"/>
        <path d="M28.84,101.06c-1.35,2.32-3.29,4.25-5.62,5.59,2.27,1.32,4.91,2.07,7.72,2.08-.02-2.79-.78-5.42-2.1-7.67Z"/>
        <path d="M23.23,111.05c2.33,1.34,4.27,3.27,5.62,5.59,1.32-2.25,2.09-4.88,2.1-7.67-2.81,0-5.45.76-7.72,2.08Z"/>
      </g>
      <g>
        <path d="M48.44,54.16c-1.32,2.25-2.09,4.88-2.1,7.67,2.82,0,5.45-.76,7.72-2.08-2.32-1.34-4.26-3.27-5.62-5.59Z"/>
        <path d="M46.33,62.07c.02,2.79.78,5.42,2.1,7.67,1.35-2.32,3.29-4.25,5.62-5.59-2.27-1.32-4.9-2.07-7.72-2.08Z"/>
        <path d="M54.05,48.57c2.32,1.34,4.26,3.27,5.62,5.59,1.32-2.25,2.09-4.88,2.1-7.67-2.82,0-5.45.76-7.72,2.08Z"/>
        <path d="M59.67,54.17c-1.35,2.32-3.29,4.25-5.62,5.59,2.27,1.32,4.9,2.07,7.72,2.08-.02-2.79-.78-5.41-2.1-7.67Z"/>
        <path d="M61.81,46.49c.02,2.79.78,5.42,2.1,7.67,1.35-2.32,3.29-4.25,5.61-5.59-2.26-1.32-4.9-2.07-7.71-2.08Z"/>
        <path d="M63.91,54.17c-1.32,2.25-2.09,4.87-2.1,7.67,2.81,0,5.45-.76,7.71-2.08-2.32-1.34-4.26-3.27-5.61-5.59Z"/>
        <path d="M75.14,54.16c-1.35,2.32-3.29,4.25-5.62,5.59,2.27,1.32,4.91,2.07,7.72,2.08-.02-2.79-.78-5.42-2.1-7.67Z"/>
        <path d="M69.52,64.15c2.33,1.34,4.27,3.27,5.62,5.59,1.32-2.25,2.09-4.88,2.1-7.67-2.81,0-5.45.76-7.72,2.08Z"/>
        <path d="M48.44,69.78c-1.32,2.25-2.09,4.88-2.1,7.67,2.82,0,5.45-.76,7.72-2.08-2.32-1.34-4.26-3.27-5.62-5.59Z"/>
        <path d="M46.33,77.69c.02,2.79.78,5.42,2.1,7.67,1.35-2.32,3.29-4.25,5.62-5.59-2.27-1.32-4.9-2.07-7.72-2.08Z"/>
        <path d="M75.14,69.78c-1.35,2.32-3.29,4.25-5.62,5.59,2.27,1.32,4.91,2.07,7.72,2.08-.02-2.79-.78-5.42-2.1-7.67Z"/>
        <path d="M69.52,79.77c2.33,1.34,4.27,3.27,5.62,5.59,1.32-2.25,2.09-4.88,2.1-7.67-2.81,0-5.45.76-7.72,2.08Z"/>
      </g>
      <g>
        <path d="M54.07,48.84c-2.25-1.32-4.88-2.09-7.67-2.1,0,2.82.76,5.45,2.08,7.72,1.34-2.32,3.27-4.26,5.59-5.62Z"/>
        <path d="M46.17,46.74c-2.79.02-5.42.78-7.67,2.1,2.32,1.35,4.25,3.29,5.59,5.62,1.32-2.27,2.07-4.9,2.08-7.72Z"/>
        <path d="M59.67,54.46c-1.34,2.32-3.27,4.26-5.59,5.62,2.25,1.32,4.88,2.09,7.67,2.1,0-2.82-.76-5.45-2.08-7.72Z"/>
        <path d="M54.07,60.07c-2.32-1.35-4.25-3.29-5.59-5.62-1.32,2.27-2.07,4.9-2.08,7.72,2.79-.02,5.41-.78,7.67-2.1Z"/>
        <path d="M61.75,62.21c-2.79.02-5.42.78-7.67,2.1,2.32,1.35,4.25,3.29,5.59,5.61,1.32-2.26,2.07-4.9,2.08-7.71Z"/>
        <path d="M54.07,64.32c-2.25-1.32-4.87-2.09-7.67-2.1,0,2.81.76,5.45,2.08,7.71,1.34-2.32,3.27-4.26,5.59-5.61Z"/>
        <path d="M54.07,75.54c-2.32-1.35-4.25-3.29-5.59-5.62-1.32,2.27-2.07,4.91-2.08,7.72,2.79-.02,5.42-.78,7.67-2.1Z"/>
        <path d="M44.09,69.93c-1.34,2.33-3.27,4.27-5.59,5.62,2.25,1.32,4.88,2.09,7.67,2.1,0-2.81-.76-5.45-2.08-7.72Z"/>
        <path d="M38.45,48.84c-2.25-1.32-4.88-2.09-7.67-2.1,0,2.82.76,5.45,2.08,7.72,1.34-2.32,3.27-4.26,5.59-5.62Z"/>
        <path d="M30.55,46.74c-2.79.02-5.42.78-7.67,2.1,2.32,1.35,4.25,3.29,5.59,5.62,1.32-2.27,2.07-4.9,2.08-7.72Z"/>
        <path d="M38.45,75.54c-2.32-1.35-4.25-3.29-5.59-5.62-1.32,2.27-2.07,4.91-2.08,7.72,2.79-.02,5.42-.78,7.67-2.1Z"/>
        <path d="M28.47,69.93c-1.34,2.33-3.27,4.27-5.59,5.62,2.25,1.32,4.88,2.09,7.67,2.1,0-2.81-.76-5.45-2.08-7.72Z"/>
      </g>
      <g>
        <path d="M48.48,69.87c-1.32,2.25-2.09,4.88-2.1,7.67,2.82,0,5.45-.76,7.72-2.08-2.32-1.34-4.26-3.27-5.62-5.59Z"/>
        <path d="M46.37,77.77c.02,2.79.78,5.42,2.1,7.67,1.35-2.32,3.29-4.25,5.62-5.59-2.27-1.32-4.9-2.07-7.72-2.08Z"/>
        <path d="M54.09,64.27c2.32,1.34,4.26,3.27,5.62,5.59,1.32-2.25,2.09-4.88,2.1-7.67-2.82,0-5.45.76-7.72,2.08Z"/>
        <path d="M59.71,85.44c-1.35,2.32-3.29,4.25-5.62,5.59,2.27,1.32,4.9,2.07,7.72,2.08-.02-2.79-.78-5.41-2.1-7.67Z"/>
        <path d="M61.85,62.19c.02,2.79.78,5.42,2.1,7.67,1.35-2.32,3.29-4.25,5.61-5.59-2.26-1.32-4.9-2.07-7.71-2.08Z"/>
        <path d="M63.95,85.44c-1.32,2.25-2.09,4.87-2.1,7.67,2.81,0,5.45-.76,7.71-2.08-2.32-1.34-4.26-3.27-5.61-5.59Z"/>
        <path d="M75.18,69.87c-1.35,2.32-3.29,4.25-5.62,5.59,2.27,1.32,4.91,2.07,7.72,2.08-.02-2.79-.78-5.42-2.1-7.67Z"/>
        <path d="M69.56,79.85c2.33,1.34,4.27,3.27,5.62,5.59,1.32-2.25,2.09-4.88,2.1-7.67-2.81,0-5.45.76-7.72,2.08Z"/>
        <path d="M48.48,85.48c-1.32,2.25-2.09,4.88-2.1,7.67,2.82,0,5.45-.76,7.72-2.08-2.32-1.34-4.26-3.27-5.62-5.59Z"/>
        <path d="M46.37,93.39c.02,2.79.78,5.42,2.1,7.67,1.35-2.32,3.29-4.25,5.62-5.59-2.27-1.32-4.9-2.07-7.72-2.08Z"/>
        <path d="M75.18,85.48c-1.35,2.32-3.29,4.25-5.62,5.59,2.27,1.32,4.91,2.07,7.72,2.08-.02-2.79-.78-5.42-2.1-7.67Z"/>
        <path d="M69.56,95.47c2.33,1.34,4.27,3.27,5.62,5.59,1.32-2.25,2.09-4.88,2.1-7.67-2.81,0-5.45.76-7.72,2.08Z"/>
      </g>
      <g>
        <path d="M48.48,101.06c-1.32,2.25-2.09,4.88-2.1,7.67,2.82,0,5.45-.76,7.72-2.08-2.32-1.34-4.26-3.27-5.62-5.59Z"/>
        <path d="M46.37,108.97c.02,2.79.78,5.42,2.1,7.67,1.35-2.32,3.29-4.25,5.62-5.59-2.27-1.32-4.9-2.07-7.72-2.08Z"/>
        <path d="M54.09,95.47c2.32,1.34,4.26,3.27,5.62,5.59,1.32-2.25,2.09-4.88,2.1-7.67-2.82,0-5.45.76-7.72,2.08Z"/>
        <path d="M59.71,116.64c-1.35,2.32-3.29,4.25-5.62,5.59,2.27,1.32,4.9,2.07,7.72,2.08-.02-2.79-.78-5.41-2.1-7.67Z"/>
        <path d="M61.85,93.39c.02,2.79.78,5.42,2.1,7.67,1.35-2.32,3.29-4.25,5.61-5.59-2.26-1.32-4.9-2.07-7.71-2.08Z"/>
        <path d="M63.95,116.64c-1.32,2.25-2.09,4.87-2.1,7.67,2.81,0,5.45-.76,7.71-2.08-2.32-1.34-4.26-3.27-5.61-5.59Z"/>
        <path d="M75.18,101.06c-1.35,2.32-3.29,4.25-5.62,5.59,2.27,1.32,4.91,2.07,7.72,2.08-.02-2.79-.78-5.42-2.1-7.67Z"/>
        <path d="M69.56,111.05c2.33,1.34,4.27,3.27,5.62,5.59,1.32-2.25,2.09-4.88,2.1-7.67-2.81,0-5.45.76-7.72,2.08Z"/>
      </g>
    </g>
  </g>
</svg>