<?xml version="1.0" encoding="UTF-8"?>
<svg id="_레이어_2" data-name="레이어 2" xmlns="http://www.w3.org/2000/svg" viewBox="0 0 62.07 108.85">
  <g id="_레이어_1-2" data-name="레이어 1">
    <g>
      <g>
        <path d="M33.23,54.16c-1.32,2.25-2.09,4.88-2.1,7.67,2.82,0,5.45-.76,7.72-2.08-2.32-1.34-4.26-3.27-5.62-5.59Z"/>
        <path d="M31.12,62.07c.02,2.79.78,5.42,2.1,7.67,1.35-2.32,3.29-4.25,5.62-5.59-2.27-1.32-4.9-2.07-7.72-2.08Z"/>
        <path d="M38.84,48.57c2.32,1.34,4.26,3.27,5.62,5.59,1.32-2.25,2.09-4.88,2.1-7.67-2.82,0-5.45.76-7.72,2.08Z"/>
        <path d="M44.46,54.17c-1.35,2.32-3.29,4.25-5.62,5.59,2.27,1.32,4.9,2.07,7.72,2.08-.02-2.79-.78-5.41-2.1-7.67Z"/>
        <path d="M46.6,46.49c.02,2.79.78,5.42,2.1,7.67,1.35-2.32,3.29-4.25,5.61-5.59-2.26-1.32-4.9-2.07-7.71-2.08Z"/>
        <path d="M48.7,54.17c-1.32,2.25-2.09,4.87-2.1,7.67,2.81,0,5.45-.76,7.71-2.08-2.32-1.34-4.26-3.27-5.61-5.59Z"/>
        <path d="M59.93,54.16c-1.35,2.32-3.29,4.25-5.62,5.59,2.27,1.32,4.91,2.07,7.72,2.08-.02-2.79-.78-5.42-2.1-7.67Z"/>
        <path d="M54.31,64.15c2.33,1.34,4.27,3.27,5.62,5.59,1.32-2.25,2.09-4.88,2.1-7.67-2.81,0-5.45.76-7.72,2.08Z"/>
        <path d="M33.23,69.78c-1.32,2.25-2.09,4.88-2.1,7.67,2.82,0,5.45-.76,7.72-2.08-2.32-1.34-4.26-3.27-5.62-5.59Z"/>
        <path d="M31.12,77.69c.02,2.79.78,5.42,2.1,7.67,1.35-2.32,3.29-4.25,5.62-5.59-2.27-1.32-4.9-2.07-7.72-2.08Z"/>
        <path d="M59.93,69.78c-1.35,2.32-3.29,4.25-5.62,5.59,2.27,1.32,4.91,2.07,7.72,2.08-.02-2.79-.78-5.42-2.1-7.67Z"/>
        <path d="M54.31,79.77c2.33,1.34,4.27,3.27,5.62,5.59,1.32-2.25,2.09-4.88,2.1-7.67-2.81,0-5.45.76-7.72,2.08Z"/>
      </g>
      <g>
        <path d="M33.27,69.87c-1.32,2.25-2.09,4.88-2.1,7.67,2.82,0,5.45-.76,7.72-2.08-2.32-1.34-4.26-3.27-5.62-5.59Z"/>
        <path d="M31.16,77.77c.02,2.79.78,5.42,2.1,7.67,1.35-2.32,3.29-4.25,5.62-5.59-2.27-1.32-4.9-2.07-7.72-2.08Z"/>
        <path d="M38.88,64.27c2.32,1.34,4.26,3.27,5.62,5.59,1.32-2.25,2.09-4.88,2.1-7.67-2.82,0-5.45.76-7.72,2.08Z"/>
        <path d="M44.5,85.44c-1.35,2.32-3.29,4.25-5.62,5.59,2.27,1.32,4.9,2.07,7.72,2.08-.02-2.79-.78-5.41-2.1-7.67Z"/>
        <path d="M46.64,62.19c.02,2.79.78,5.42,2.1,7.67,1.35-2.32,3.29-4.25,5.61-5.59-2.26-1.32-4.9-2.07-7.71-2.08Z"/>
        <path d="M48.74,85.44c-1.32,2.25-2.09,4.87-2.1,7.67,2.81,0,5.45-.76,7.71-2.08-2.32-1.34-4.26-3.27-5.61-5.59Z"/>
        <path d="M59.97,69.87c-1.35,2.32-3.29,4.25-5.62,5.59,2.27,1.32,4.91,2.07,7.72,2.08-.02-2.79-.78-5.42-2.1-7.67Z"/>
        <path d="M54.35,79.85c2.33,1.34,4.27,3.27,5.62,5.59,1.32-2.25,2.09-4.88,2.1-7.67-2.81,0-5.45.76-7.72,2.08Z"/>
        <path d="M33.27,85.48c-1.32,2.25-2.09,4.88-2.1,7.67,2.82,0,5.45-.76,7.72-2.08-2.32-1.34-4.26-3.27-5.62-5.59Z"/>
        <path d="M31.16,93.39c.02,2.79.78,5.42,2.1,7.67,1.35-2.32,3.29-4.25,5.62-5.59-2.27-1.32-4.9-2.07-7.72-2.08Z"/>
        <path d="M59.97,85.48c-1.35,2.32-3.29,4.25-5.62,5.59,2.27,1.32,4.91,2.07,7.72,2.08-.02-2.79-.78-5.42-2.1-7.67Z"/>
        <path d="M54.35,95.47c2.33,1.34,4.27,3.27,5.62,5.59,1.32-2.25,2.09-4.88,2.1-7.67-2.81,0-5.45.76-7.72,2.08Z"/>
      </g>
      <g>
        <path d="M59.97,101.08c1.32-2.25,2.09-4.88,2.1-7.67-2.82,0-5.45.76-7.72,2.08,2.32,1.34,4.26,3.27,5.62,5.59Z"/>
        <path d="M62.07,93.18c-.02-2.79-.78-5.42-2.1-7.67-1.35,2.32-3.29,4.25-5.62,5.59,2.27,1.32,4.9,2.07,7.72,2.08Z"/>
        <path d="M54.35,106.68c-2.32-1.34-4.26-3.27-5.62-5.59-1.32,2.25-2.09,4.88-2.1,7.67,2.82,0,5.45-.76,7.72-2.08Z"/>
        <path d="M48.74,101.06c1.35-2.32,3.29-4.25,5.62-5.59-2.27-1.32-4.9-2.07-7.72-2.08.02,2.79.78,5.41,2.1,7.67Z"/>
        <path d="M46.6,108.76c-.02-2.79-.78-5.42-2.1-7.67-1.35,2.32-3.29,4.25-5.61,5.59,2.26,1.32,4.9,2.07,7.71,2.08Z"/>
        <path d="M44.49,101.06c1.32-2.25,2.09-4.87,2.1-7.67-2.81,0-5.45.76-7.71,2.08,2.32,1.34,4.26,3.27,5.61,5.59Z"/>
        <path d="M33.27,101.08c1.35-2.32,3.29-4.25,5.62-5.59-2.27-1.32-4.91-2.07-7.72-2.08.02,2.79.78,5.42,2.1,7.67Z"/>
        <path d="M38.88,91.1c-2.33-1.34-4.27-3.27-5.62-5.59-1.32,2.25-2.09,4.88-2.1,7.67,2.81,0,5.45-.76,7.72-2.08Z"/>
        <path d="M59.97,85.46c1.32-2.25,2.09-4.88,2.1-7.67-2.82,0-5.45.76-7.72,2.08,2.32,1.34,4.26,3.27,5.62,5.59Z"/>
        <path d="M62.07,77.56c-.02-2.79-.78-5.42-2.1-7.67-1.35,2.32-3.29,4.25-5.62,5.59,2.27,1.32,4.9,2.07,7.72,2.08Z"/>
        <path d="M33.27,85.46c1.35-2.32,3.29-4.25,5.62-5.59-2.27-1.32-4.91-2.07-7.72-2.08.02,2.79.78,5.42,2.1,7.67Z"/>
        <path d="M38.88,75.48c-2.33-1.34-4.27-3.27-5.62-5.59-1.32,2.25-2.09,4.88-2.1,7.67,2.81,0,5.45-.76,7.72-2.08Z"/>
      </g>
      <g>
        <path d="M33.23,7.67c-1.32,2.25-2.09,4.88-2.1,7.67,2.82,0,5.45-.76,7.72-2.08-2.32-1.34-4.26-3.27-5.62-5.59Z"/>
        <path d="M31.12,15.58c.02,2.79.78,5.42,2.1,7.67,1.35-2.32,3.29-4.25,5.62-5.59-2.27-1.32-4.9-2.07-7.72-2.08Z"/>
        <path d="M38.84,2.08c2.32,1.34,4.26,3.27,5.62,5.59,1.32-2.25,2.09-4.88,2.1-7.67-2.82,0-5.45.76-7.72,2.08Z"/>
        <path d="M44.46,7.68c-1.35,2.32-3.29,4.25-5.62,5.59,2.27,1.32,4.9,2.07,7.72,2.08-.02-2.79-.78-5.41-2.1-7.67Z"/>
        <path d="M46.6,0c.02,2.79.78,5.42,2.1,7.67,1.35-2.32,3.29-4.25,5.61-5.59C52.05.76,49.41,0,46.6,0Z"/>
        <path d="M48.7,7.68c-1.32,2.25-2.09,4.87-2.1,7.67,2.81,0,5.45-.76,7.71-2.08-2.32-1.34-4.26-3.27-5.61-5.59Z"/>
        <path d="M44.46,22.98c-1.35,2.32-3.29,4.25-5.62,5.59,2.27,1.32,4.9,2.07,7.72,2.08-.02-2.79-.78-5.41-2.1-7.67Z"/>
        <path d="M48.7,22.98c-1.32,2.25-2.09,4.87-2.1,7.67,2.81,0,5.45-.76,7.71-2.08-2.32-1.34-4.26-3.27-5.61-5.59Z"/>
        <path d="M59.93,7.67c-1.35,2.32-3.29,4.25-5.62,5.59,2.27,1.32,4.91,2.07,7.72,2.08-.02-2.79-.78-5.42-2.1-7.67Z"/>
        <path d="M54.31,17.66c2.33,1.34,4.27,3.27,5.62,5.59,1.32-2.25,2.09-4.88,2.1-7.67-2.81,0-5.45.76-7.72,2.08Z"/>
      </g>
      <g>
        <path d="M38.88,17.66c2.32,1.34,4.26,3.27,5.62,5.59,1.32-2.25,2.09-4.88,2.1-7.67-2.82,0-5.45.76-7.72,2.08Z"/>
        <path d="M44.5,38.95c-1.35,2.32-3.29,4.25-5.62,5.59,2.27,1.32,4.9,2.07,7.72,2.08-.02-2.79-.78-5.41-2.1-7.67Z"/>
        <path d="M46.64,15.58c.02,2.79.78,5.42,2.1,7.67,1.35-2.32,3.29-4.25,5.61-5.59-2.26-1.32-4.9-2.07-7.71-2.08Z"/>
        <path d="M38.88,33.06c2.32,1.34,4.26,3.27,5.62,5.59,1.32-2.25,2.09-4.88,2.1-7.67-2.82,0-5.45.76-7.72,2.08Z"/>
        <path d="M46.64,30.98c.02,2.79.78,5.42,2.1,7.67,1.35-2.32,3.29-4.25,5.61-5.59-2.26-1.32-4.9-2.07-7.71-2.08Z"/>
        <path d="M48.74,38.95c-1.32,2.25-2.09,4.87-2.1,7.67,2.81,0,5.45-.76,7.71-2.08-2.32-1.34-4.26-3.27-5.61-5.59Z"/>
        <path d="M33.27,38.99c-1.32,2.25-2.09,4.88-2.1,7.67,2.82,0,5.45-.76,7.72-2.08-2.32-1.34-4.26-3.27-5.62-5.59Z"/>
        <path d="M31.16,46.9c.02,2.79.78,5.42,2.1,7.67,1.35-2.32,3.29-4.25,5.62-5.59-2.27-1.32-4.9-2.07-7.72-2.08Z"/>
        <path d="M59.97,38.99c-1.35,2.32-3.29,4.25-5.62,5.59,2.27,1.32,4.91,2.07,7.72,2.08-.02-2.79-.78-5.42-2.1-7.67Z"/>
        <path d="M54.35,48.98c2.33,1.34,4.27,3.27,5.62,5.59,1.32-2.25,2.09-4.88,2.1-7.67-2.81,0-5.45.76-7.72,2.08Z"/>
      </g>
      <g>
        <path d="M2.1,85.6C.78,87.86.02,90.48,0,93.28c2.82,0,5.45-.76,7.72-2.08-2.32-1.34-4.26-3.27-5.62-5.59Z"/>
        <path d="M0,93.51c.02,2.79.78,5.42,2.1,7.67,1.35-2.32,3.29-4.25,5.62-5.59-2.27-1.32-4.9-2.07-7.72-2.08Z"/>
        <path d="M7.72,80.01c2.32,1.34,4.26,3.27,5.62,5.59,1.32-2.25,2.09-4.88,2.1-7.67-2.82,0-5.45.76-7.72,2.08Z"/>
        <path d="M13.33,101.18c-1.35,2.32-3.29,4.25-5.62,5.59,2.27,1.32,4.9,2.07,7.72,2.08-.02-2.79-.78-5.41-2.1-7.67Z"/>
        <path d="M15.47,77.93c.02,2.79.78,5.42,2.1,7.67,1.35-2.32,3.29-4.25,5.61-5.59-2.26-1.32-4.9-2.07-7.71-2.08Z"/>
        <path d="M17.58,101.18c-1.32,2.25-2.09,4.87-2.1,7.67,2.81,0,5.45-.76,7.71-2.08-2.32-1.34-4.26-3.27-5.61-5.59Z"/>
        <path d="M28.8,85.6c-1.35,2.32-3.29,4.25-5.62,5.59,2.27,1.32,4.91,2.07,7.72,2.08-.02-2.79-.78-5.42-2.1-7.67Z"/>
        <path d="M23.19,95.59c2.33,1.34,4.27,3.27,5.62,5.59,1.32-2.25,2.09-4.88,2.1-7.67-2.81,0-5.45.76-7.72,2.08Z"/>
      </g>
    </g>
  </g>
</svg>