<?xml version="1.0" encoding="UTF-8"?>
<svg id="_레이어_2" data-name="레이어 2" xmlns="http://www.w3.org/2000/svg" viewBox="0 0 77.32 77.41">
  <g id="_레이어_1-2" data-name="레이어 1">
    <g>
      <g>
        <path d="M2.1,7.67C.78,9.93.02,12.55,0,15.34c2.82,0,5.45-.76,7.72-2.08-2.32-1.34-4.26-3.27-5.62-5.59Z"/>
        <path d="M0,15.58c.02,2.79.78,5.42,2.1,7.67,1.35-2.32,3.29-4.25,5.62-5.59C5.45,16.34,2.82,15.58,0,15.58Z"/>
        <path d="M7.72,2.08c2.32,1.34,4.26,3.27,5.62,5.59,1.32-2.25,2.09-4.88,2.1-7.67-2.82,0-5.45.76-7.72,2.08Z"/>
        <path d="M13.33,7.68c-1.35,2.32-3.29,4.25-5.62,5.59,2.27,1.32,4.9,2.07,7.72,2.08-.02-2.79-.78-5.41-2.1-7.67Z"/>
        <path d="M15.47,0c.02,2.79.78,5.42,2.1,7.67,1.35-2.32,3.29-4.25,5.61-5.59C20.92.76,18.29,0,15.47,0Z"/>
        <path d="M17.58,7.68c-1.32,2.25-2.09,4.87-2.1,7.67,2.81,0,5.45-.76,7.71-2.08-2.32-1.34-4.26-3.27-5.61-5.59Z"/>
        <path d="M28.8,7.67c-1.35,2.32-3.29,4.25-5.62,5.59,2.27,1.32,4.91,2.07,7.72,2.08-.02-2.79-.78-5.42-2.1-7.67Z"/>
        <path d="M23.19,17.66c2.33,1.34,4.27,3.27,5.62,5.59,1.32-2.25,2.09-4.88,2.1-7.67-2.81,0-5.45.76-7.72,2.08Z"/>
        <path d="M2.1,23.29C.78,25.55.02,28.17,0,30.96c2.82,0,5.45-.76,7.72-2.08-2.32-1.34-4.26-3.27-5.62-5.59Z"/>
        <path d="M0,31.2c.02,2.79.78,5.42,2.1,7.67,1.35-2.32,3.29-4.25,5.62-5.59-2.27-1.32-4.9-2.07-7.72-2.08Z"/>
        <path d="M28.8,23.29c-1.35,2.32-3.29,4.25-5.62,5.59,2.27,1.32,4.91,2.07,7.72,2.08-.02-2.79-.78-5.42-2.1-7.67Z"/>
        <path d="M23.19,33.28c2.33,1.34,4.27,3.27,5.62,5.59,1.32-2.25,2.09-4.88,2.1-7.67-2.81,0-5.45.76-7.72,2.08Z"/>
      </g>
      <g>
        <path d="M2.14,22.97C.82,25.22.05,27.84.04,30.64c2.82,0,5.45-.76,7.72-2.08-2.32-1.34-4.26-3.27-5.62-5.59Z"/>
        <path d="M.04,30.87c.02,2.79.78,5.42,2.1,7.67,1.35-2.32,3.29-4.25,5.62-5.59-2.27-1.32-4.9-2.07-7.72-2.08Z"/>
        <path d="M7.76,17.37c2.32,1.34,4.26,3.27,5.62,5.59,1.32-2.25,2.09-4.88,2.1-7.67-2.82,0-5.45.76-7.72,2.08Z"/>
        <path d="M13.37,38.55c-1.35,2.32-3.29,4.25-5.62,5.59,2.27,1.32,4.9,2.07,7.72,2.08-.02-2.79-.78-5.41-2.1-7.67Z"/>
        <path d="M15.51,15.29c.02,2.79.78,5.42,2.1,7.67,1.35-2.32,3.29-4.25,5.61-5.59-2.26-1.32-4.9-2.07-7.71-2.08Z"/>
        <path d="M17.62,38.55c-1.32,2.25-2.09,4.87-2.1,7.67,2.81,0,5.45-.76,7.71-2.08-2.32-1.34-4.26-3.27-5.61-5.59Z"/>
        <path d="M28.84,22.97c-1.35,2.32-3.29,4.25-5.62,5.59,2.27,1.32,4.91,2.07,7.72,2.08-.02-2.79-.78-5.42-2.1-7.67Z"/>
        <path d="M23.23,32.95c2.33,1.34,4.27,3.27,5.62,5.59,1.32-2.25,2.09-4.88,2.1-7.67-2.81,0-5.45.76-7.72,2.08Z"/>
        <path d="M2.14,38.59C.82,40.84.05,43.46.04,46.26c2.82,0,5.45-.76,7.72-2.08-2.32-1.34-4.26-3.27-5.62-5.59Z"/>
        <path d="M.04,46.49c.02,2.79.78,5.42,2.1,7.67,1.35-2.32,3.29-4.25,5.62-5.59-2.27-1.32-4.9-2.07-7.72-2.08Z"/>
        <path d="M28.84,38.59c-1.35,2.32-3.29,4.25-5.62,5.59,2.27,1.32,4.91,2.07,7.72,2.08-.02-2.79-.78-5.42-2.1-7.67Z"/>
        <path d="M23.23,48.57c2.33,1.34,4.27,3.27,5.62,5.59,1.32-2.25,2.09-4.88,2.1-7.67-2.81,0-5.45.76-7.72,2.08Z"/>
      </g>
      <g>
        <path d="M2.14,54.16C.82,56.42.05,59.04.04,61.84c2.82,0,5.45-.76,7.72-2.08-2.32-1.34-4.26-3.27-5.62-5.59Z"/>
        <path d="M.04,62.07c.02,2.79.78,5.42,2.1,7.67,1.35-2.32,3.29-4.25,5.62-5.59-2.27-1.32-4.9-2.07-7.72-2.08Z"/>
        <path d="M7.76,48.57c2.32,1.34,4.26,3.27,5.62,5.59,1.32-2.25,2.09-4.88,2.1-7.67-2.82,0-5.45.76-7.72,2.08Z"/>
        <path d="M13.37,69.74c-1.35,2.32-3.29,4.25-5.62,5.59,2.27,1.32,4.9,2.07,7.72,2.08-.02-2.79-.78-5.41-2.1-7.67Z"/>
        <path d="M15.51,46.49c.02,2.79.78,5.42,2.1,7.67,1.35-2.32,3.29-4.25,5.61-5.59-2.26-1.32-4.9-2.07-7.71-2.08Z"/>
        <path d="M17.62,69.74c-1.32,2.25-2.09,4.87-2.1,7.67,2.81,0,5.45-.76,7.71-2.08-2.32-1.34-4.26-3.27-5.61-5.59Z"/>
        <path d="M28.84,54.16c-1.35,2.32-3.29,4.25-5.62,5.59,2.27,1.32,4.91,2.07,7.72,2.08-.02-2.79-.78-5.42-2.1-7.67Z"/>
        <path d="M23.23,64.15c2.33,1.34,4.27,3.27,5.62,5.59,1.32-2.25,2.09-4.88,2.1-7.67-2.81,0-5.45.76-7.72,2.08Z"/>
      </g>
      <g>
        <path d="M48.48,7.67c-1.32,2.25-2.09,4.88-2.1,7.67,2.82,0,5.45-.76,7.72-2.08-2.32-1.34-4.26-3.27-5.62-5.59Z"/>
        <path d="M46.38,15.58c.02,2.79.78,5.42,2.1,7.67,1.35-2.32,3.29-4.25,5.62-5.59-2.27-1.32-4.9-2.07-7.72-2.08Z"/>
        <path d="M54.1,2.08c2.32,1.34,4.26,3.27,5.62,5.59,1.32-2.25,2.09-4.88,2.1-7.67-2.82,0-5.45.76-7.72,2.08Z"/>
        <path d="M59.71,7.68c-1.35,2.32-3.29,4.25-5.62,5.59,2.27,1.32,4.9,2.07,7.72,2.08-.02-2.79-.78-5.41-2.1-7.67Z"/>
        <path d="M61.85,0c.02,2.79.78,5.42,2.1,7.67,1.35-2.32,3.29-4.25,5.61-5.59-2.26-1.32-4.9-2.07-7.71-2.08Z"/>
        <path d="M63.96,7.68c-1.32,2.25-2.09,4.87-2.1,7.67,2.81,0,5.45-.76,7.71-2.08-2.32-1.34-4.26-3.27-5.61-5.59Z"/>
        <path d="M75.18,7.67c-1.35,2.32-3.29,4.25-5.62,5.59,2.27,1.32,4.91,2.07,7.72,2.08-.02-2.79-.78-5.42-2.1-7.67Z"/>
        <path d="M69.57,17.66c2.33,1.34,4.27,3.27,5.62,5.59,1.32-2.25,2.09-4.88,2.1-7.67-2.81,0-5.45.76-7.72,2.08Z"/>
        <path d="M48.48,23.29c-1.32,2.25-2.09,4.88-2.1,7.67,2.82,0,5.45-.76,7.72-2.08-2.32-1.34-4.26-3.27-5.62-5.59Z"/>
        <path d="M46.38,31.2c.02,2.79.78,5.42,2.1,7.67,1.35-2.32,3.29-4.25,5.62-5.59-2.27-1.32-4.9-2.07-7.72-2.08Z"/>
        <path d="M75.18,23.29c-1.35,2.32-3.29,4.25-5.62,5.59,2.27,1.32,4.91,2.07,7.72,2.08-.02-2.79-.78-5.42-2.1-7.67Z"/>
        <path d="M69.57,33.28c2.33,1.34,4.27,3.27,5.62,5.59,1.32-2.25,2.09-4.88,2.1-7.67-2.81,0-5.45.76-7.72,2.08Z"/>
      </g>
      <g>
        <path d="M48.52,22.97c-1.32,2.25-2.09,4.88-2.1,7.67,2.82,0,5.45-.76,7.72-2.08-2.32-1.34-4.26-3.27-5.62-5.59Z"/>
        <path d="M46.42,30.87c.02,2.79.78,5.42,2.1,7.67,1.35-2.32,3.29-4.25,5.62-5.59-2.27-1.32-4.9-2.07-7.72-2.08Z"/>
        <path d="M54.14,17.37c2.32,1.34,4.26,3.27,5.62,5.59,1.32-2.25,2.09-4.88,2.1-7.67-2.82,0-5.45.76-7.72,2.08Z"/>
        <path d="M59.75,38.55c-1.35,2.32-3.29,4.25-5.62,5.59,2.27,1.32,4.9,2.07,7.72,2.08-.02-2.79-.78-5.41-2.1-7.67Z"/>
        <path d="M61.89,15.29c.02,2.79.78,5.42,2.1,7.67,1.35-2.32,3.29-4.25,5.61-5.59-2.26-1.32-4.9-2.07-7.71-2.08Z"/>
        <path d="M63.99,38.55c-1.32,2.25-2.09,4.87-2.1,7.67,2.81,0,5.45-.76,7.71-2.08-2.32-1.34-4.26-3.27-5.61-5.59Z"/>
        <path d="M75.22,22.97c-1.35,2.32-3.29,4.25-5.62,5.59,2.27,1.32,4.91,2.07,7.72,2.08-.02-2.79-.78-5.42-2.1-7.67Z"/>
        <path d="M69.6,32.95c2.33,1.34,4.27,3.27,5.62,5.59,1.32-2.25,2.09-4.88,2.1-7.67-2.81,0-5.45.76-7.72,2.08Z"/>
        <path d="M48.52,38.59c-1.32,2.25-2.09,4.88-2.1,7.67,2.82,0,5.45-.76,7.72-2.08-2.32-1.34-4.26-3.27-5.62-5.59Z"/>
        <path d="M46.42,46.49c.02,2.79.78,5.42,2.1,7.67,1.35-2.32,3.29-4.25,5.62-5.59-2.27-1.32-4.9-2.07-7.72-2.08Z"/>
        <path d="M75.22,38.59c-1.35,2.32-3.29,4.25-5.62,5.59,2.27,1.32,4.91,2.07,7.72,2.08-.02-2.79-.78-5.42-2.1-7.67Z"/>
        <path d="M69.6,48.57c2.33,1.34,4.27,3.27,5.62,5.59,1.32-2.25,2.09-4.88,2.1-7.67-2.81,0-5.45.76-7.72,2.08Z"/>
      </g>
      <g>
        <path d="M48.52,54.16c-1.32,2.25-2.09,4.88-2.1,7.67,2.82,0,5.45-.76,7.72-2.08-2.32-1.34-4.26-3.27-5.62-5.59Z"/>
        <path d="M46.42,62.07c.02,2.79.78,5.42,2.1,7.67,1.35-2.32,3.29-4.25,5.62-5.59-2.27-1.32-4.9-2.07-7.72-2.08Z"/>
        <path d="M54.14,48.57c2.32,1.34,4.26,3.27,5.62,5.59,1.32-2.25,2.09-4.88,2.1-7.67-2.82,0-5.45.76-7.72,2.08Z"/>
        <path d="M59.75,69.74c-1.35,2.32-3.29,4.25-5.62,5.59,2.27,1.32,4.9,2.07,7.72,2.08-.02-2.79-.78-5.41-2.1-7.67Z"/>
        <path d="M61.89,46.49c.02,2.79.78,5.42,2.1,7.67,1.35-2.32,3.29-4.25,5.61-5.59-2.26-1.32-4.9-2.07-7.71-2.08Z"/>
        <path d="M63.99,69.74c-1.32,2.25-2.09,4.87-2.1,7.67,2.81,0,5.45-.76,7.71-2.08-2.32-1.34-4.26-3.27-5.61-5.59Z"/>
        <path d="M75.22,54.16c-1.35,2.32-3.29,4.25-5.62,5.59,2.27,1.32,4.91,2.07,7.72,2.08-.02-2.79-.78-5.42-2.1-7.67Z"/>
        <path d="M69.6,64.15c2.33,1.34,4.27,3.27,5.62,5.59,1.32-2.25,2.09-4.88,2.1-7.67-2.81,0-5.45.76-7.72,2.08Z"/>
      </g>
      <g>
        <path d="M33.07,7.73c-1.32,2.25-2.09,4.88-2.1,7.67,2.82,0,5.45-.76,7.72-2.08-2.32-1.34-4.26-3.27-5.62-5.59Z"/>
        <path d="M30.96,15.63c.02,2.79.78,5.42,2.1,7.67,1.35-2.32,3.29-4.25,5.62-5.59-2.27-1.32-4.9-2.07-7.72-2.08Z"/>
        <path d="M38.68,2.13c2.32,1.34,4.26,3.27,5.62,5.59,1.32-2.25,2.09-4.88,2.1-7.67-2.82,0-5.45.76-7.72,2.08Z"/>
        <path d="M44.3,23.31c-1.35,2.32-3.29,4.25-5.62,5.59,2.27,1.32,4.9,2.07,7.72,2.08-.02-2.79-.78-5.41-2.1-7.67Z"/>
        <path d="M46.44.05c.02,2.79.78,5.42,2.1,7.67,1.35-2.32,3.29-4.25,5.61-5.59C51.89.81,49.25.06,46.44.05Z"/>
        <path d="M48.54,23.31c-1.32,2.25-2.09,4.87-2.1,7.67,2.81,0,5.45-.76,7.71-2.08-2.32-1.34-4.26-3.27-5.61-5.59Z"/>
        <path d="M59.77,7.73c-1.35,2.32-3.29,4.25-5.62,5.59,2.27,1.32,4.91,2.07,7.72,2.08-.02-2.79-.78-5.42-2.1-7.67Z"/>
        <path d="M54.15,17.71c2.33,1.34,4.27,3.27,5.62,5.59,1.32-2.25,2.09-4.88,2.1-7.67-2.81,0-5.45.76-7.72,2.08Z"/>
        <path d="M44.35,7.73c-1.35,2.32-3.29,4.25-5.62,5.59,2.27,1.32,4.91,2.07,7.72,2.08-.02-2.79-.78-5.42-2.1-7.67Z"/>
        <path d="M38.74,17.71c2.33,1.34,4.27,3.27,5.62,5.59,1.32-2.25,2.09-4.88,2.1-7.67-2.81,0-5.45.76-7.72,2.08Z"/>
      </g>
    </g>
  </g>
</svg>