<?xml version="1.0" encoding="UTF-8"?>
<svg id="_레이어_2" data-name="레이어 2" xmlns="http://www.w3.org/2000/svg" viewBox="0 0 77.44 77.41">
  <g id="_레이어_1-2" data-name="레이어 1">
    <g>
      <g>
        <path d="M2.1,7.67C.78,9.93.02,12.55,0,15.34c2.82,0,5.45-.76,7.72-2.08-2.32-1.34-4.26-3.27-5.62-5.59Z"/>
        <path d="M0,15.58c.02,2.79.78,5.42,2.1,7.67,1.35-2.32,3.29-4.25,5.62-5.59C5.45,16.34,2.82,15.58,0,15.58Z"/>
        <path d="M7.72,2.08c2.32,1.34,4.26,3.27,5.62,5.59,1.32-2.25,2.09-4.88,2.1-7.67-2.82,0-5.45.76-7.72,2.08Z"/>
        <path d="M13.33,7.68c-1.35,2.32-3.29,4.25-5.62,5.59,2.27,1.32,4.9,2.07,7.72,2.08-.02-2.79-.78-5.41-2.1-7.67Z"/>
        <path d="M15.47,0c.02,2.79.78,5.42,2.1,7.67,1.35-2.32,3.29-4.25,5.61-5.59C20.92.76,18.29,0,15.47,0Z"/>
        <path d="M17.58,7.68c-1.32,2.25-2.09,4.87-2.1,7.67,2.81,0,5.45-.76,7.71-2.08-2.32-1.34-4.26-3.27-5.61-5.59Z"/>
        <path d="M2.1,23.29C.78,25.55.02,28.17,0,30.96c2.82,0,5.45-.76,7.72-2.08-2.32-1.34-4.26-3.27-5.62-5.59Z"/>
        <path d="M0,31.2c.02,2.79.78,5.42,2.1,7.67,1.35-2.32,3.29-4.25,5.62-5.59-2.27-1.32-4.9-2.07-7.72-2.08Z"/>
        <path d="M28.8,23.29c-1.35,2.32-3.29,4.25-5.62,5.59,2.27,1.32,4.91,2.07,7.72,2.08-.02-2.79-.78-5.42-2.1-7.67Z"/>
        <path d="M23.19,33.28c2.33,1.34,4.27,3.27,5.62,5.59,1.32-2.25,2.09-4.88,2.1-7.67-2.81,0-5.45.76-7.72,2.08Z"/>
      </g>
      <g>
        <path d="M2.14,22.97C.82,25.22.05,27.84.04,30.64c2.82,0,5.45-.76,7.72-2.08-2.32-1.34-4.26-3.27-5.62-5.59Z"/>
        <path d="M.04,30.87c.02,2.79.78,5.42,2.1,7.67,1.35-2.32,3.29-4.25,5.62-5.59-2.27-1.32-4.9-2.07-7.72-2.08Z"/>
        <path d="M7.76,17.37c2.32,1.34,4.26,3.27,5.62,5.59,1.32-2.25,2.09-4.88,2.1-7.67-2.82,0-5.45.76-7.72,2.08Z"/>
        <path d="M13.37,54.26c-1.35,2.32-3.29,4.25-5.62,5.59,2.27,1.32,4.9,2.07,7.72,2.08-.02-2.79-.78-5.41-2.1-7.67Z"/>
        <path d="M15.51,15.29c.02,2.79.78,5.42,2.1,7.67,1.35-2.32,3.29-4.25,5.61-5.59-2.26-1.32-4.9-2.07-7.71-2.08Z"/>
        <path d="M17.62,54.26c-1.32,2.25-2.09,4.87-2.1,7.67,2.81,0,5.45-.76,7.71-2.08-2.32-1.34-4.26-3.27-5.61-5.59Z"/>
        <path d="M28.84,22.97c-1.35,2.32-3.29,4.25-5.62,5.59,2.27,1.32,4.91,2.07,7.72,2.08-.02-2.79-.78-5.42-2.1-7.67Z"/>
        <path d="M23.23,32.95c2.33,1.34,4.27,3.27,5.62,5.59,1.32-2.25,2.09-4.88,2.1-7.67-2.81,0-5.45.76-7.72,2.08Z"/>
        <path d="M2.14,38.59C.82,40.84.05,43.46.04,46.26c2.82,0,5.45-.76,7.72-2.08-2.32-1.34-4.26-3.27-5.62-5.59Z"/>
        <path d="M.04,46.49c.02,2.79.78,5.42,2.1,7.67,1.35-2.32,3.29-4.25,5.62-5.59-2.27-1.32-4.9-2.07-7.72-2.08Z"/>
        <path d="M28.84,38.59c-1.35,2.32-3.29,4.25-5.62,5.59,2.27,1.32,4.91,2.07,7.72,2.08-.02-2.79-.78-5.42-2.1-7.67Z"/>
        <path d="M23.23,48.57c2.33,1.34,4.27,3.27,5.62,5.59,1.32-2.25,2.09-4.88,2.1-7.67-2.81,0-5.45.76-7.72,2.08Z"/>
      </g>
      <g>
        <path d="M2.14,54.16C.82,56.42.05,59.04.04,61.84c2.82,0,5.45-.76,7.72-2.08-2.32-1.34-4.26-3.27-5.62-5.59Z"/>
        <path d="M.04,62.07c.02,2.79.78,5.42,2.1,7.67,1.35-2.32,3.29-4.25,5.62-5.59-2.27-1.32-4.9-2.07-7.72-2.08Z"/>
        <path d="M7.76,64.29c2.32,1.34,4.26,3.27,5.62,5.59,1.32-2.25,2.09-4.88,2.1-7.67-2.82,0-5.45.76-7.72,2.08Z"/>
        <path d="M13.37,69.74c-1.35,2.32-3.29,4.25-5.62,5.59,2.27,1.32,4.9,2.07,7.72,2.08-.02-2.79-.78-5.41-2.1-7.67Z"/>
        <path d="M15.51,62.21c.02,2.79.78,5.42,2.1,7.67,1.35-2.32,3.29-4.25,5.61-5.59-2.26-1.32-4.9-2.07-7.71-2.08Z"/>
        <path d="M17.62,69.74c-1.32,2.25-2.09,4.87-2.1,7.67,2.81,0,5.45-.76,7.71-2.08-2.32-1.34-4.26-3.27-5.61-5.59Z"/>
      </g>
      <g>
        <path d="M75.33,54.16c1.32,2.25,2.09,4.88,2.1,7.67-2.82,0-5.45-.76-7.72-2.08,2.32-1.34,4.26-3.27,5.62-5.59Z"/>
        <path d="M77.44,62.07c-.02,2.79-.78,5.42-2.1,7.67-1.35-2.32-3.29-4.25-5.62-5.59,2.27-1.32,4.9-2.07,7.72-2.08Z"/>
        <path d="M69.72,64.28c-2.32,1.34-4.26,3.27-5.62,5.59-1.32-2.25-2.09-4.88-2.1-7.67,2.82,0,5.45.76,7.72,2.08Z"/>
        <path d="M64.1,69.74c1.35,2.32,3.29,4.25,5.62,5.59-2.27,1.32-4.9,2.07-7.72,2.08.02-2.79.78-5.41,2.1-7.67Z"/>
        <path d="M61.96,62.21c-.02,2.79-.78,5.42-2.1,7.67-1.35-2.32-3.29-4.25-5.61-5.59,2.26-1.32,4.9-2.07,7.71-2.08Z"/>
        <path d="M59.86,69.74c1.32,2.25,2.09,4.87,2.1,7.67-2.81,0-5.45-.76-7.71-2.08,2.32-1.34,4.26-3.27,5.61-5.59Z"/>
      </g>
      <g>
        <path d="M54.21,2.08c2.32,1.34,4.26,3.27,5.62,5.59,1.32-2.25,2.09-4.88,2.1-7.67-2.82,0-5.45.76-7.72,2.08Z"/>
        <path d="M59.82,7.68c-1.35,2.32-3.29,4.25-5.62,5.59,2.27,1.32,4.9,2.07,7.72,2.08-.02-2.79-.78-5.41-2.1-7.67Z"/>
        <path d="M61.96,0c.02,2.79.78,5.42,2.1,7.67,1.35-2.32,3.29-4.25,5.61-5.59-2.26-1.32-4.9-2.07-7.71-2.08Z"/>
        <path d="M64.07,7.68c-1.32,2.25-2.09,4.87-2.1,7.67,2.81,0,5.45-.76,7.71-2.08-2.32-1.34-4.26-3.27-5.61-5.59Z"/>
        <path d="M75.29,7.67c-1.35,2.32-3.29,4.25-5.62,5.59,2.27,1.32,4.91,2.07,7.72,2.08-.02-2.79-.78-5.42-2.1-7.67Z"/>
        <path d="M69.68,17.66c2.33,1.34,4.27,3.27,5.62,5.59,1.32-2.25,2.09-4.88,2.1-7.67-2.81,0-5.45.76-7.72,2.08Z"/>
        <path d="M48.59,23.29c-1.32,2.25-2.09,4.88-2.1,7.67,2.82,0,5.45-.76,7.72-2.08-2.32-1.34-4.26-3.27-5.62-5.59Z"/>
        <path d="M46.49,31.2c.02,2.79.78,5.42,2.1,7.67,1.35-2.32,3.29-4.25,5.62-5.59-2.27-1.32-4.9-2.07-7.72-2.08Z"/>
        <path d="M75.29,23.29c-1.35,2.32-3.29,4.25-5.62,5.59,2.27,1.32,4.91,2.07,7.72,2.08-.02-2.79-.78-5.42-2.1-7.67Z"/>
        <path d="M69.68,33.28c2.33,1.34,4.27,3.27,5.62,5.59,1.32-2.25,2.09-4.88,2.1-7.67-2.81,0-5.45.76-7.72,2.08Z"/>
      </g>
      <g>
        <path d="M54.27,2.13C52.02.81,49.39.04,46.6.03c0,2.82.76,5.45,2.08,7.72,1.34-2.32,3.27-4.26,5.59-5.62Z"/>
        <path d="M46.37.03c-2.79.02-5.42.78-7.67,2.1,2.32,1.35,4.25,3.29,5.59,5.62,1.32-2.27,2.07-4.9,2.08-7.72Z"/>
        <path d="M59.87,7.75c-1.34,2.32-3.27,4.26-5.59,5.62,2.25,1.32,4.88,2.09,7.67,2.1,0-2.82-.76-5.45-2.08-7.72Z"/>
        <path d="M61.94,15.5c-2.79.02-5.42.78-7.67,2.1,2.32,1.35,4.25,3.29,5.59,5.61,1.32-2.26,2.07-4.9,2.08-7.71Z"/>
        <path d="M54.27,28.83c-2.32-1.35-4.25-3.29-5.59-5.62-1.32,2.27-2.07,4.91-2.08,7.72,2.79-.02,5.42-.78,7.67-2.1Z"/>
        <path d="M44.29,23.22c-1.34,2.33-3.27,4.27-5.59,5.62,2.25,1.32,4.88,2.09,7.67,2.1,0-2.81-.76-5.45-2.08-7.72Z"/>
        <path d="M38.65,2.13C36.4.81,33.77.04,30.98.03c0,2.82.76,5.45,2.08,7.72,1.34-2.32,3.27-4.26,5.59-5.62Z"/>
        <path d="M30.75.03c-2.79.02-5.42.78-7.67,2.1,2.32,1.35,4.25,3.29,5.59,5.62,1.32-2.27,2.07-4.9,2.08-7.72Z"/>
        <path d="M38.65,28.83c-2.32-1.35-4.25-3.29-5.59-5.62-1.32,2.27-2.07,4.91-2.08,7.72,2.79-.02,5.42-.78,7.67-2.1Z"/>
        <path d="M28.67,23.22c-1.34,2.33-3.27,4.27-5.59,5.62,2.25,1.32,4.88,2.09,7.67,2.1,0-2.81-.76-5.45-2.08-7.72Z"/>
      </g>
      <g>
        <path d="M54.27,48.55c-2.25-1.32-4.88-2.09-7.67-2.1,0,2.82.76,5.45,2.08,7.72,1.34-2.32,3.27-4.26,5.59-5.62Z"/>
        <path d="M46.37,46.44c-2.79.02-5.42.78-7.67,2.1,2.32,1.35,4.25,3.29,5.59,5.62,1.32-2.27,2.07-4.9,2.08-7.72Z"/>
        <path d="M54.27,75.25c-2.32-1.35-4.25-3.29-5.59-5.62-1.32,2.27-2.07,4.91-2.08,7.72,2.79-.02,5.42-.78,7.67-2.1Z"/>
        <path d="M44.29,69.63c-1.34,2.33-3.27,4.27-5.59,5.62,2.25,1.32,4.88,2.09,7.67,2.1,0-2.81-.76-5.45-2.08-7.72Z"/>
        <path d="M38.65,48.55c-2.25-1.32-4.88-2.09-7.67-2.1,0,2.82.76,5.45,2.08,7.72,1.34-2.32,3.27-4.26,5.59-5.62Z"/>
        <path d="M30.75,46.44c-2.79.02-5.42.78-7.67,2.1,2.32,1.35,4.25,3.29,5.59,5.62,1.32-2.27,2.07-4.9,2.08-7.72Z"/>
        <path d="M38.65,75.25c-2.32-1.35-4.25-3.29-5.59-5.62-1.32,2.27-2.07,4.91-2.08,7.72,2.79-.02,5.42-.78,7.67-2.1Z"/>
        <path d="M28.67,69.63c-1.34,2.33-3.27,4.27-5.59,5.62,2.25,1.32,4.88,2.09,7.67,2.1,0-2.81-.76-5.45-2.08-7.72Z"/>
      </g>
      <g>
        <path d="M48.63,22.97c-1.32,2.25-2.09,4.88-2.1,7.67,2.82,0,5.45-.76,7.72-2.08-2.32-1.34-4.26-3.27-5.62-5.59Z"/>
        <path d="M46.53,30.87c.02,2.79.78,5.42,2.1,7.67,1.35-2.32,3.29-4.25,5.62-5.59-2.27-1.32-4.9-2.07-7.72-2.08Z"/>
        <path d="M54.25,17.37c2.32,1.34,4.26,3.27,5.62,5.59,1.32-2.25,2.09-4.88,2.1-7.67-2.82,0-5.45.76-7.72,2.08Z"/>
        <path d="M59.86,54.26c-1.35,2.32-3.29,4.25-5.62,5.59,2.27,1.32,4.9,2.07,7.72,2.08-.02-2.79-.78-5.41-2.1-7.67Z"/>
        <path d="M62,15.29c.02,2.79.78,5.42,2.1,7.67,1.35-2.32,3.29-4.25,5.61-5.59-2.26-1.32-4.9-2.07-7.71-2.08Z"/>
        <path d="M64.11,54.26c-1.32,2.25-2.09,4.87-2.1,7.67,2.81,0,5.45-.76,7.71-2.08-2.32-1.34-4.26-3.27-5.61-5.59Z"/>
        <path d="M75.33,22.97c-1.35,2.32-3.29,4.25-5.62,5.59,2.27,1.32,4.91,2.07,7.72,2.08-.02-2.79-.78-5.42-2.1-7.67Z"/>
        <path d="M69.72,32.95c2.33,1.34,4.27,3.27,5.62,5.59,1.32-2.25,2.09-4.88,2.1-7.67-2.81,0-5.45.76-7.72,2.08Z"/>
        <path d="M48.63,38.59c-1.32,2.25-2.09,4.88-2.1,7.67,2.82,0,5.45-.76,7.72-2.08-2.32-1.34-4.26-3.27-5.62-5.59Z"/>
        <path d="M46.53,46.49c.02,2.79.78,5.42,2.1,7.67,1.35-2.32,3.29-4.25,5.62-5.59-2.27-1.32-4.9-2.07-7.72-2.08Z"/>
        <path d="M75.33,38.59c-1.35,2.32-3.29,4.25-5.62,5.59,2.27,1.32,4.91,2.07,7.72,2.08-.02-2.79-.78-5.42-2.1-7.67Z"/>
        <path d="M69.72,48.57c2.33,1.34,4.27,3.27,5.62,5.59,1.32-2.25,2.09-4.88,2.1-7.67-2.81,0-5.45.76-7.72,2.08Z"/>
      </g>
    </g>
  </g>
</svg>