<?xml version="1.0" encoding="UTF-8"?>
<svg id="_레이어_2" data-name="레이어 2" xmlns="http://www.w3.org/2000/svg" viewBox="0 0 77.43 108.99">
  <g id="_레이어_1-2" data-name="레이어 1">
    <g>
      <g>
        <path d="M7.73,91.34c2.32-1.34,4.26-3.27,5.62-5.59,1.32,2.25,2.09,4.88,2.1,7.67-2.82,0-5.45-.76-7.72-2.08Z"/>
        <path d="M13.35,85.74c-1.35-2.32-3.29-4.25-5.62-5.59,2.27-1.32,4.9-2.07,7.72-2.08-.02,2.79-.78,5.41-2.1,7.67Z"/>
        <path d="M15.49,93.42c.02-2.79.78-5.42,2.1-7.67,1.35,2.32,3.29,4.25,5.61,5.59-2.26,1.32-4.9,2.07-7.71,2.08Z"/>
        <path d="M17.59,85.74c-1.32-2.25-2.09-4.87-2.1-7.67,2.81,0,5.45.76,7.71,2.08-2.32,1.34-4.26,3.27-5.61,5.59Z"/>
        <path d="M28.82,85.74c-1.35-2.32-3.29-4.25-5.62-5.59,2.27-1.32,4.91-2.07,7.72-2.08-.02,2.79-.78,5.42-2.1,7.67Z"/>
        <path d="M23.2,75.76c2.33-1.34,4.27-3.27,5.62-5.59,1.32,2.25,2.09,4.88,2.1,7.67-2.81,0-5.45-.76-7.72-2.08Z"/>
        <path d="M2.12,70.12C.79,67.87.03,65.25.02,62.45c2.82,0,5.45.76,7.72,2.08-2.32,1.34-4.26,3.27-5.62,5.59Z"/>
        <path d="M.02,62.22c.02-2.79.78-5.42,2.1-7.67,1.35,2.32,3.29,4.25,5.62,5.59-2.27,1.32-4.9,2.07-7.72,2.08Z"/>
        <path d="M28.82,70.12c-1.35-2.32-3.29-4.25-5.62-5.59,2.27-1.32,4.91-2.07,7.72-2.08-.02,2.79-.78,5.42-2.1,7.67Z"/>
        <path d="M23.2,60.14c2.33-1.34,4.27-3.27,5.62-5.59,1.32,2.25,2.09,4.88,2.1,7.67-2.81,0-5.45-.76-7.72-2.08Z"/>
      </g>
      <g>
        <path d="M7.72,106.92c2.32-1.34,4.26-3.27,5.62-5.59,1.32,2.25,2.09,4.88,2.1,7.67-2.82,0-5.45-.76-7.72-2.08Z"/>
        <path d="M13.33,101.32c-1.35-2.32-3.29-4.25-5.62-5.59,2.27-1.32,4.9-2.07,7.72-2.08-.02,2.79-.78,5.41-2.1,7.67Z"/>
        <path d="M15.47,108.99c.02-2.79.78-5.42,2.1-7.67,1.35,2.32,3.29,4.25,5.61,5.59-2.26,1.32-4.9,2.07-7.71,2.08Z"/>
        <path d="M17.58,101.32c-1.32-2.25-2.09-4.87-2.1-7.67,2.81,0,5.45.76,7.71,2.08-2.32,1.34-4.26,3.27-5.61,5.59Z"/>
        <path d="M28.8,101.32c-1.35-2.32-3.29-4.25-5.62-5.59,2.27-1.32,4.91-2.07,7.72-2.08-.02,2.79-.78,5.42-2.1,7.67Z"/>
        <path d="M23.19,91.34c2.33-1.34,4.27-3.27,5.62-5.59,1.32,2.25,2.09,4.88,2.1,7.67-2.81,0-5.45-.76-7.72-2.08Z"/>
        <path d="M2.1,85.7c-1.32-2.25-2.09-4.88-2.1-7.67,2.82,0,5.45.76,7.72,2.08-2.32,1.34-4.26,3.27-5.62,5.59Z"/>
        <path d="M0,77.8c.02-2.79.78-5.42,2.1-7.67,1.35,2.32,3.29,4.25,5.62,5.59-2.27,1.32-4.9,2.07-7.72,2.08Z"/>
        <path d="M2.1,101.34c-1.32-2.25-2.09-4.88-2.1-7.67,2.82,0,5.45.76,7.72,2.08-2.32,1.34-4.26,3.27-5.62,5.59Z"/>
        <path d="M0,93.43c.02-2.79.78-5.42,2.1-7.67,1.35,2.32,3.29,4.25,5.62,5.59-2.27,1.32-4.9,2.07-7.72,2.08Z"/>
        <path d="M28.8,85.7c-1.35-2.32-3.29-4.25-5.62-5.59,2.27-1.32,4.91-2.07,7.72-2.08-.02,2.79-.78,5.42-2.1,7.67Z"/>
        <path d="M23.19,75.72c2.33-1.34,4.27-3.27,5.62-5.59,1.32,2.25,2.09,4.88,2.1,7.67-2.81,0-5.45-.76-7.72-2.08Z"/>
      </g>
      <g>
        <path d="M38.62,33.19c2.25-1.32,4.88-2.09,7.67-2.1,0,2.82-.76,5.45-2.08,7.72-1.34-2.32-3.27-4.26-5.59-5.62Z"/>
        <path d="M46.52,31.08c2.79.02,5.42.78,7.67,2.1-2.32,1.35-4.25,3.29-5.59,5.62-1.32-2.27-2.07-4.9-2.08-7.72Z"/>
        <path d="M33.02,38.8c1.34,2.32,3.27,4.26,5.59,5.62-2.25,1.32-4.88,2.09-7.67,2.1,0-2.82.76-5.45,2.08-7.72Z"/>
        <path d="M23.39,44.42c2.32-1.35,4.25-3.29,5.59-5.62,1.32,2.27,2.07,4.9,2.08,7.72-2.79-.02-5.41-.78-7.67-2.1Z"/>
        <path d="M30.94,46.56c2.79.02,5.42.78,7.67,2.1-2.32,1.35-4.25,3.29-5.59,5.61-1.32-2.26-2.07-4.9-2.08-7.71Z"/>
        <path d="M23.39,48.66c2.25-1.32,4.87-2.09,7.67-2.1,0,2.81-.76,5.45-2.08,7.71-1.34-2.32-3.27-4.26-5.59-5.61Z"/>
        <path d="M38.62,59.89c2.32-1.35,4.25-3.29,5.59-5.62,1.32,2.27,2.07,4.91,2.08,7.72-2.79-.02-5.42-.78-7.67-2.1Z"/>
        <path d="M48.6,54.27c1.34,2.33,3.27,4.27,5.59,5.62-2.25,1.32-4.88,2.09-7.67,2.1,0-2.81.76-5.45,2.08-7.72Z"/>
        <path d="M54.24,33.19c2.25-1.32,4.88-2.09,7.67-2.1,0,2.82-.76,5.45-2.08,7.72-1.34-2.32-3.27-4.26-5.59-5.62Z"/>
        <path d="M62.14,31.08c2.79.02,5.42.78,7.67,2.1-2.32,1.35-4.25,3.29-5.59,5.62-1.32-2.27-2.07-4.9-2.08-7.72Z"/>
        <path d="M54.24,59.89c2.32-1.35,4.25-3.29,5.59-5.62,1.32,2.27,2.07,4.91,2.08,7.72-2.79-.02-5.42-.78-7.67-2.1Z"/>
        <path d="M64.22,54.27c1.34,2.33,3.27,4.27,5.59,5.62-2.25,1.32-4.88,2.09-7.67,2.1,0-2.81.76-5.45,2.08-7.72Z"/>
      </g>
      <g>
        <path d="M7.77,33.19c2.25-1.32,4.88-2.09,7.67-2.1,0,2.82-.76,5.45-2.08,7.72-1.34-2.32-3.27-4.26-5.59-5.62Z"/>
        <path d="M15.67,31.08c2.79.02,5.42.78,7.67,2.1-2.32,1.35-4.25,3.29-5.59,5.62-1.32-2.27-2.07-4.9-2.08-7.72Z"/>
        <path d="M2.17,38.8c1.34,2.32,3.27,4.26,5.59,5.62-2.25,1.32-4.88,2.09-7.67,2.1,0-2.82.76-5.45,2.08-7.72Z"/>
        <path d="M13.3,70.12c-1.35-2.32-3.29-4.25-5.62-5.59,2.27-1.32,4.9-2.07,7.72-2.08-.02,2.79-.78,5.41-2.1,7.67Z"/>
        <path d="M.09,46.56c2.79.02,5.42.78,7.67,2.1-2.32,1.35-4.25,3.29-5.59,5.61C.85,52.01.1,49.37.09,46.56Z"/>
        <path d="M17.55,70.12c-1.32-2.25-2.09-4.87-2.1-7.67,2.81,0,5.45.76,7.71,2.08-2.32,1.34-4.26,3.27-5.61,5.59Z"/>
        <path d="M7.77,59.89c2.32-1.35,4.25-3.29,5.59-5.62,1.32,2.27,2.07,4.91,2.08,7.72-2.79-.02-5.42-.78-7.67-2.1Z"/>
        <path d="M17.75,54.27c1.34,2.33,3.27,4.27,5.59,5.62-2.25,1.32-4.88,2.09-7.67,2.1,0-2.81.76-5.45,2.08-7.72Z"/>
        <path d="M23.39,33.19c2.25-1.32,4.88-2.09,7.67-2.1,0,2.82-.76,5.45-2.08,7.72-1.34-2.32-3.27-4.26-5.59-5.62Z"/>
        <path d="M31.29,31.08c2.79.02,5.42.78,7.67,2.1-2.32,1.35-4.25,3.29-5.59,5.62-1.32-2.27-2.07-4.9-2.08-7.72Z"/>
        <path d="M23.39,59.89c2.32-1.35,4.25-3.29,5.59-5.62,1.32,2.27,2.07,4.91,2.08,7.72-2.79-.02-5.42-.78-7.67-2.1Z"/>
        <path d="M33.37,54.27c1.34,2.33,3.27,4.27,5.59,5.62-2.25,1.32-4.88,2.09-7.67,2.1,0-2.81.76-5.45,2.08-7.72Z"/>
      </g>
      <g>
        <path d="M38.67,2.11C40.93.79,43.55.03,46.35.01c0,2.82-.76,5.45-2.08,7.72-1.34-2.32-3.27-4.26-5.59-5.62Z"/>
        <path d="M46.58.01c2.79.02,5.42.78,7.67,2.1-2.32,1.35-4.25,3.29-5.59,5.62-1.32-2.27-2.07-4.9-2.08-7.72Z"/>
        <path d="M33.08,7.73c1.34,2.32,3.27,4.26,5.59,5.62-2.25,1.32-4.88,2.09-7.67,2.1,0-2.82.76-5.45,2.08-7.72Z"/>
        <path d="M23.45,13.34c2.32-1.35,4.25-3.29,5.59-5.62,1.32,2.27,2.07,4.9,2.08,7.72-2.79-.02-5.41-.78-7.67-2.1Z"/>
        <path d="M31,15.49c2.79.02,5.42.78,7.67,2.1-2.32,1.35-4.25,3.29-5.59,5.61-1.32-2.26-2.07-4.9-2.08-7.71Z"/>
        <path d="M23.45,17.59c2.25-1.32,4.87-2.09,7.67-2.1,0,2.81-.76,5.45-2.08,7.71-1.34-2.32-3.27-4.26-5.59-5.61Z"/>
        <path d="M64.07,7.62c1.34,2.32,3.27,4.26,5.59,5.62-2.25,1.32-4.88,2.09-7.67,2.1,0-2.82.76-5.45,2.08-7.72Z"/>
        <path d="M54.44,13.23c2.32-1.35,4.25-3.29,5.59-5.62,1.32,2.27,2.07,4.9,2.08,7.72-2.79-.02-5.41-.78-7.67-2.1Z"/>
        <path d="M61.99,15.37c2.79.02,5.42.78,7.67,2.1-2.32,1.35-4.25,3.29-5.59,5.61-1.32-2.26-2.07-4.9-2.08-7.71Z"/>
        <path d="M54.44,17.48c2.25-1.32,4.87-2.09,7.67-2.1,0,2.81-.76,5.45-2.08,7.71-1.34-2.32-3.27-4.26-5.59-5.61Z"/>
        <path d="M38.67,28.81c2.32-1.35,4.25-3.29,5.59-5.62,1.32,2.27,2.07,4.91,2.08,7.72-2.79-.02-5.42-.78-7.67-2.1Z"/>
        <path d="M48.66,23.2c1.34,2.33,3.27,4.27,5.59,5.62-2.25,1.32-4.88,2.09-7.67,2.1,0-2.81.76-5.45,2.08-7.72Z"/>
        <path d="M54.29,2.11C56.55.79,59.17.03,61.97.01c0,2.82-.76,5.45-2.08,7.72-1.34-2.32-3.27-4.26-5.59-5.62Z"/>
        <path d="M62.2.01c2.79.02,5.42.78,7.67,2.1-2.32,1.35-4.25,3.29-5.59,5.62-1.32-2.27-2.07-4.9-2.08-7.72Z"/>
        <path d="M54.29,28.81c2.32-1.35,4.25-3.29,5.59-5.62,1.32,2.27,2.07,4.91,2.08,7.72-2.79-.02-5.42-.78-7.67-2.1Z"/>
        <path d="M64.28,23.2c1.34,2.33,3.27,4.27,5.59,5.62-2.25,1.32-4.88,2.09-7.67,2.1,0-2.81.76-5.45,2.08-7.72Z"/>
      </g>
      <g>
        <path d="M7.77,2.31C10.02.99,12.64.22,15.44.21c0,2.82-.76,5.45-2.08,7.72-1.34-2.32-3.27-4.26-5.59-5.62Z"/>
        <path d="M15.67.21c2.79.02,5.42.78,7.67,2.1-2.32,1.35-4.25,3.29-5.59,5.62-1.32-2.27-2.07-4.9-2.08-7.72Z"/>
        <path d="M2.17,7.93c1.34,2.32,3.27,4.26,5.59,5.62-2.25,1.32-4.88,2.09-7.67,2.1,0-2.82.76-5.45,2.08-7.72Z"/>
        <path d="M7.77,13.54c2.32-1.35,4.25-3.29,5.59-5.62,1.32,2.27,2.07,4.9,2.08,7.72-2.79-.02-5.41-.78-7.67-2.1Z"/>
        <path d="M.09,15.68c2.79.02,5.42.78,7.67,2.1-2.32,1.35-4.25,3.29-5.59,5.61C.85,21.13.1,18.49.09,15.68Z"/>
        <path d="M2.17,23.41c1.34,2.32,3.27,4.26,5.59,5.62-2.25,1.32-4.88,2.09-7.67,2.1,0-2.82.76-5.45,2.08-7.72Z"/>
        <path d="M.09,31.17c2.79.02,5.42.78,7.67,2.1-2.32,1.35-4.25,3.29-5.59,5.61C.85,36.62.1,33.98.09,31.17Z"/>
        <path d="M7.77,17.78c2.25-1.32,4.87-2.09,7.67-2.1,0,2.81-.76,5.45-2.08,7.71-1.34-2.32-3.27-4.26-5.59-5.61Z"/>
        <path d="M7.77,29.01c2.32-1.35,4.25-3.29,5.59-5.62,1.32,2.27,2.07,4.91,2.08,7.72-2.79-.02-5.42-.78-7.67-2.1Z"/>
        <path d="M17.75,23.39c1.34,2.33,3.27,4.27,5.59,5.62-2.25,1.32-4.88,2.09-7.67,2.1,0-2.81.76-5.45,2.08-7.72Z"/>
        <path d="M23.39,2.31C25.64.99,28.26.22,31.06.21c0,2.82-.76,5.45-2.08,7.72-1.34-2.32-3.27-4.26-5.59-5.62Z"/>
        <path d="M31.29.21c2.79.02,5.42.78,7.67,2.1-2.32,1.35-4.25,3.29-5.59,5.62-1.32-2.27-2.07-4.9-2.08-7.72Z"/>
        <path d="M23.39,29.01c2.32-1.35,4.25-3.29,5.59-5.62,1.32,2.27,2.07,4.91,2.08,7.72-2.79-.02-5.42-.78-7.67-2.1Z"/>
        <path d="M33.37,23.39c1.34,2.33,3.27,4.27,5.59,5.62-2.25,1.32-4.88,2.09-7.67,2.1,0-2.81.76-5.45,2.08-7.72Z"/>
      </g>
      <g>
        <path d="M48.62,54.44c-1.32-2.25-2.09-4.88-2.1-7.67,2.82,0,5.45.76,7.72,2.08-2.32,1.34-4.26,3.27-5.62,5.59Z"/>
        <path d="M46.52,46.54c.02-2.79.78-5.42,2.1-7.67,1.35,2.32,3.29,4.25,5.62,5.59-2.27,1.32-4.9,2.07-7.72,2.08Z"/>
        <path d="M54.24,60.04c2.32-1.34,4.26-3.27,5.62-5.59,1.32,2.25,2.09,4.88,2.1,7.67-2.82,0-5.45-.76-7.72-2.08Z"/>
        <path d="M59.85,38.86c-1.35-2.32-3.29-4.25-5.62-5.59,2.27-1.32,4.9-2.07,7.72-2.08-.02,2.79-.78,5.41-2.1,7.67Z"/>
        <path d="M61.99,62.12c.02-2.79.78-5.42,2.1-7.67,1.35,2.32,3.29,4.25,5.61,5.59-2.26,1.32-4.9,2.07-7.71,2.08Z"/>
        <path d="M64.1,38.86c-1.32-2.25-2.09-4.87-2.1-7.67,2.81,0,5.45.76,7.71,2.08-2.32,1.34-4.26,3.27-5.61,5.59Z"/>
        <path d="M75.32,54.44c-1.35-2.32-3.29-4.25-5.62-5.59,2.27-1.32,4.91-2.07,7.72-2.08-.02,2.79-.78,5.42-2.1,7.67Z"/>
        <path d="M69.71,44.46c2.33-1.34,4.27-3.27,5.62-5.59,1.32,2.25,2.09,4.88,2.1,7.67-2.81,0-5.45-.76-7.72-2.08Z"/>
        <path d="M48.62,38.82c-1.32-2.25-2.09-4.88-2.1-7.67,2.82,0,5.45.76,7.72,2.08-2.32,1.34-4.26,3.27-5.62,5.59Z"/>
        <path d="M46.52,30.92c.02-2.79.78-5.42,2.1-7.67,1.35,2.32,3.29,4.25,5.62,5.59-2.27,1.32-4.9,2.07-7.72,2.08Z"/>
        <path d="M75.32,38.82c-1.35-2.32-3.29-4.25-5.62-5.59,2.27-1.32,4.91-2.07,7.72-2.08-.02,2.79-.78,5.42-2.1,7.67Z"/>
        <path d="M69.71,28.84c2.33-1.34,4.27-3.27,5.62-5.59,1.32,2.25,2.09,4.88,2.1,7.67-2.81,0-5.45-.76-7.72-2.08Z"/>
      </g>
      <g>
        <path d="M54.24,28.84c2.32-1.34,4.26-3.27,5.62-5.59,1.32,2.25,2.09,4.88,2.1,7.67-2.82,0-5.45-.76-7.72-2.08Z"/>
        <path d="M59.85,7.67c-1.35-2.32-3.29-4.25-5.62-5.59C56.51.76,59.14,0,61.96,0c-.02,2.79-.78,5.41-2.1,7.67Z"/>
        <path d="M61.99,30.92c.02-2.79.78-5.42,2.1-7.67,1.35,2.32,3.29,4.25,5.61,5.59-2.26,1.32-4.9,2.07-7.71,2.08Z"/>
        <path d="M64.1,7.67c-1.32-2.25-2.09-4.87-2.1-7.67,2.81,0,5.45.76,7.71,2.08-2.32,1.34-4.26,3.27-5.61,5.59Z"/>
        <path d="M75.32,23.25c-1.35-2.32-3.29-4.25-5.62-5.59,2.27-1.32,4.91-2.07,7.72-2.08-.02,2.79-.78,5.42-2.1,7.67Z"/>
        <path d="M69.71,13.26c2.33-1.34,4.27-3.27,5.62-5.59,1.32,2.25,2.09,4.88,2.1,7.67-2.81,0-5.45-.76-7.72-2.08Z"/>
      </g>
    </g>
  </g>
</svg>