<?xml version="1.0" encoding="UTF-8"?>
<svg id="_레이어_2" data-name="레이어 2" xmlns="http://www.w3.org/2000/svg" viewBox="0 0 77.37 93.29">
  <g id="_레이어_1-2" data-name="레이어 1">
    <g>
      <g>
        <path d="M23.24,2.08c-2.32,1.34-4.26,3.27-5.62,5.59-1.32-2.25-2.09-4.88-2.1-7.67,2.82,0,5.45.76,7.72,2.08Z"/>
        <path d="M17.63,7.68c1.35,2.32,3.29,4.25,5.62,5.59-2.27,1.32-4.9,2.07-7.72,2.08.02-2.79.78-5.41,2.1-7.67Z"/>
        <path d="M15.49,0c-.02,2.79-.78,5.42-2.1,7.67-1.35-2.32-3.29-4.25-5.61-5.59C10.04.76,12.68,0,15.49,0Z"/>
        <path d="M13.38,7.68c1.32,2.25,2.09,4.87,2.1,7.67-2.81,0-5.45-.76-7.71-2.08,2.32-1.34,4.26-3.27,5.61-5.59Z"/>
        <path d="M2.16,7.67c1.35,2.32,3.29,4.25,5.62,5.59-2.27,1.32-4.91,2.07-7.72,2.08.02-2.79.78-5.42,2.1-7.67Z"/>
        <path d="M7.77,17.66c-2.33,1.34-4.27,3.27-5.62,5.59C.83,21,.07,18.37.05,15.58c2.81,0,5.45.76,7.72,2.08Z"/>
        <path d="M28.86,23.29c1.32,2.25,2.09,4.88,2.1,7.67-2.82,0-5.45-.76-7.72-2.08,2.32-1.34,4.26-3.27,5.62-5.59Z"/>
        <path d="M30.96,31.2c-.02,2.79-.78,5.42-2.1,7.67-1.35-2.32-3.29-4.25-5.62-5.59,2.27-1.32,4.9-2.07,7.72-2.08Z"/>
        <path d="M2.16,23.29c1.35,2.32,3.29,4.25,5.62,5.59-2.27,1.32-4.91,2.07-7.72,2.08.02-2.79.78-5.42,2.1-7.67Z"/>
        <path d="M7.77,33.28c-2.33,1.34-4.27,3.27-5.62,5.59C.83,36.62.07,33.99.05,31.2c2.81,0,5.45.76,7.72,2.08Z"/>
        <path d="M2.16,38.88c1.35,2.32,3.29,4.25,5.62,5.59-2.27,1.32-4.91,2.07-7.72,2.08.02-2.79.78-5.42,2.1-7.67Z"/>
        <path d="M7.77,48.86c-2.33,1.34-4.27,3.27-5.62,5.59C.83,52.2.07,49.58.05,46.78c2.81,0,5.45.76,7.72,2.08Z"/>
      </g>
      <g>
        <path d="M38.82,28.9c-2.25,1.32-4.88,2.09-7.67,2.1,0-2.82.76-5.45,2.08-7.72,1.34,2.32,3.27,4.26,5.59,5.62Z"/>
        <path d="M30.92,31c-2.79-.02-5.42-.78-7.67-2.1,2.32-1.35,4.25-3.29,5.59-5.62,1.32,2.27,2.07,4.9,2.08,7.72Z"/>
        <path d="M13.35,23.33c-1.34-2.32-3.27-4.26-5.59-5.62,2.25-1.32,4.88-2.09,7.67-2.1,0,2.82-.76,5.45-2.08,7.72Z"/>
        <path d="M38.82,2.2c-2.32,1.35-4.25,3.29-5.59,5.62-1.32-2.27-2.07-4.91-2.08-7.72,2.79.02,5.42.78,7.67,2.1Z"/>
        <path d="M28.84,7.81c-1.34-2.33-3.27-4.27-5.59-5.62C25.5.87,28.12.11,30.92.09c0,2.81-.76,5.45-2.08,7.72Z"/>
        <path d="M23.21,28.9c-2.25,1.32-4.88,2.09-7.67,2.1,0-2.82.76-5.45,2.08-7.72,1.34,2.32,3.27,4.26,5.59,5.62Z"/>
        <path d="M15.3,31c-2.79-.02-5.42-.78-7.67-2.1,2.32-1.35,4.25-3.29,5.59-5.62,1.32,2.27,2.07,4.9,2.08,7.72Z"/>
        <path d="M23.21,2.2c-2.32,1.35-4.25,3.29-5.59,5.62-1.32-2.27-2.07-4.91-2.08-7.72,2.79.02,5.42.78,7.67,2.1Z"/>
        <path d="M13.22,7.81c-1.34-2.33-3.27-4.27-5.59-5.62C9.88.87,12.51.11,15.3.09c0,2.81-.76,5.45-2.08,7.72Z"/>
      </g>
      <g>
        <path d="M69.67,28.9c-2.25,1.32-4.88,2.09-7.67,2.1,0-2.82.76-5.45,2.08-7.72,1.34,2.32,3.27,4.26,5.59,5.62Z"/>
        <path d="M61.77,31c-2.79-.02-5.42-.78-7.67-2.1,2.32-1.35,4.25-3.29,5.59-5.62,1.32,2.27,2.07,4.9,2.08,7.72Z"/>
        <path d="M75.27,23.28c-1.34-2.32-3.27-4.26-5.59-5.62,2.25-1.32,4.88-2.09,7.67-2.1,0,2.82-.76,5.45-2.08,7.72Z"/>
        <path d="M23.2,17.71c-2.32,1.35-4.25,3.29-5.59,5.62-1.32-2.27-2.07-4.9-2.08-7.72,2.79.02,5.41.78,7.67,2.1Z"/>
        <path d="M77.35,15.53c-2.79-.02-5.42-.78-7.67-2.1,2.32-1.35,4.25-3.29,5.59-5.61,1.32,2.26,2.07,4.9,2.08,7.71Z"/>
        <path d="M69.67,2.2c-2.32,1.35-4.25,3.29-5.59,5.62-1.32-2.27-2.07-4.91-2.08-7.72,2.79.02,5.42.78,7.67,2.1Z"/>
        <path d="M59.69,7.81c-1.34-2.33-3.27-4.27-5.59-5.62C56.35.87,58.97.11,61.77.09c0,2.81-.76,5.45-2.08,7.72Z"/>
        <path d="M54.06,28.9c-2.25,1.32-4.88,2.09-7.67,2.1,0-2.82.76-5.45,2.08-7.72,1.34,2.32,3.27,4.26,5.59,5.62Z"/>
        <path d="M46.15,31c-2.79-.02-5.42-.78-7.67-2.1,2.32-1.35,4.25-3.29,5.59-5.62,1.32,2.27,2.07,4.9,2.08,7.72Z"/>
        <path d="M54.06,2.2c-2.32,1.35-4.25,3.29-5.59,5.62-1.32-2.27-2.07-4.91-2.08-7.72,2.79.02,5.42.78,7.67,2.1Z"/>
        <path d="M44.07,7.81c-1.34-2.33-3.27-4.27-5.59-5.62C40.73.87,43.35.11,46.15.09c0,2.81-.76,5.45-2.08,7.72Z"/>
      </g>
      <g>
        <path d="M38.77,59.94c-2.25,1.32-4.88,2.09-7.67,2.1,0-2.82.76-5.45,2.08-7.72,1.34,2.32,3.27,4.26,5.59,5.62Z"/>
        <path d="M30.86,62.04c-2.79-.02-5.42-.78-7.67-2.1,2.32-1.35,4.25-3.29,5.59-5.62,1.32,2.27,2.07,4.9,2.08,7.72Z"/>
        <path d="M61.88,46.57c-2.79-.02-5.42-.78-7.67-2.1,2.32-1.35,4.25-3.29,5.59-5.61,1.32,2.26,2.07,4.9,2.08,7.71Z"/>
        <path d="M13.37,54.44c-1.34-2.32-3.27-4.26-5.59-5.62,2.25-1.32,4.88-2.09,7.67-2.1,0,2.82-.76,5.45-2.08,7.72Z"/>
        <path d="M23,48.82c-2.32,1.35-4.25,3.29-5.59,5.62-1.32-2.27-2.07-4.9-2.08-7.72,2.79.02,5.41.78,7.67,2.1Z"/>
        <path d="M15.45,46.68c-2.79-.02-5.42-.78-7.67-2.1,2.32-1.35,4.25-3.29,5.59-5.61,1.32,2.26,2.07,4.9,2.08,7.71Z"/>
        <path d="M23,44.58c-2.25,1.32-4.87,2.09-7.67,2.1,0-2.81.76-5.45,2.08-7.71,1.34,2.32,3.27,4.26,5.59,5.61Z"/>
        <path d="M38.77,33.24c-2.32,1.35-4.25,3.29-5.59,5.62-1.32-2.27-2.07-4.91-2.08-7.72,2.79.02,5.42.78,7.67,2.1Z"/>
        <path d="M28.78,38.85c-1.34-2.33-3.27-4.27-5.59-5.62,2.25-1.32,4.88-2.09,7.67-2.1,0,2.81-.76,5.45-2.08,7.72Z"/>
        <path d="M23.15,59.94c-2.25,1.32-4.88,2.09-7.67,2.1,0-2.82.76-5.45,2.08-7.72,1.34,2.32,3.27,4.26,5.59,5.62Z"/>
        <path d="M15.24,62.04c-2.79-.02-5.42-.78-7.67-2.1,2.32-1.35,4.25-3.29,5.59-5.62,1.32,2.27,2.07,4.9,2.08,7.72Z"/>
        <path d="M23.15,33.24c-2.32,1.35-4.25,3.29-5.59,5.62-1.32-2.27-2.07-4.91-2.08-7.72,2.79.02,5.42.78,7.67,2.1Z"/>
        <path d="M13.16,38.85c-1.34-2.33-3.27-4.27-5.59-5.62,2.25-1.32,4.88-2.09,7.67-2.1,0,2.81-.76,5.45-2.08,7.72Z"/>
      </g>
      <g>
        <path d="M75.29,54.27c-1.34-2.32-3.27-4.26-5.59-5.62,2.25-1.32,4.88-2.09,7.67-2.1,0,2.82-.76,5.45-2.08,7.72Z"/>
        <path d="M59.82,54.49c-1.34-2.32-3.27-4.26-5.59-5.62,2.25-1.32,4.88-2.09,7.67-2.1,0,2.82-.76,5.45-2.08,7.72Z"/>
        <path d="M69.7,48.66c-2.32,1.35-4.25,3.29-5.59,5.62-1.32-2.27-2.07-4.9-2.08-7.72,2.79.02,5.41.78,7.67,2.1Z"/>
        <path d="M77.37,46.52c-2.79-.02-5.42-.78-7.67-2.1,2.32-1.35,4.25-3.29,5.59-5.61,1.32,2.26,2.07,4.9,2.08,7.71Z"/>
        <path d="M69.7,44.41c-2.25,1.32-4.87,2.09-7.67,2.1,0-2.81.76-5.45,2.08-7.71,1.34,2.32,3.27,4.26,5.59,5.61Z"/>
        <path d="M61.82,61.99c-2.79-.02-5.42-.78-7.67-2.1,2.32-1.35,4.25-3.29,5.59-5.61,1.32,2.26,2.07,4.9,2.08,7.71Z"/>
        <path d="M59.76,69.91c-1.34-2.32-3.27-4.26-5.59-5.62,2.25-1.32,4.88-2.09,7.67-2.1,0,2.82-.76,5.45-2.08,7.72Z"/>
        <path d="M69.64,64.08c-2.32,1.35-4.25,3.29-5.59,5.62-1.32-2.27-2.07-4.9-2.08-7.72,2.79.02,5.41.78,7.67,2.1Z"/>
        <path d="M69.64,59.83c-2.25,1.32-4.87,2.09-7.67,2.1,0-2.81.76-5.45,2.08-7.71,1.34,2.32,3.27,4.26,5.59,5.61Z"/>
        <path d="M69.7,33.19c-2.32,1.35-4.25,3.29-5.59,5.62-1.32-2.27-2.07-4.91-2.08-7.72,2.79.02,5.42.78,7.67,2.1Z"/>
        <path d="M59.71,38.8c-1.34-2.33-3.27-4.27-5.59-5.62,2.25-1.32,4.88-2.09,7.67-2.1,0,2.81-.76,5.45-2.08,7.72Z"/>
        <path d="M54.08,59.89c-2.25,1.32-4.88,2.09-7.67,2.1,0-2.82.76-5.45,2.08-7.72,1.34,2.32,3.27,4.26,5.59,5.62Z"/>
        <path d="M46.17,61.99c-2.79-.02-5.42-.78-7.67-2.1,2.32-1.35,4.25-3.29,5.59-5.62,1.32,2.27,2.07,4.9,2.08,7.72Z"/>
        <path d="M54.08,33.19c-2.32,1.35-4.25,3.29-5.59,5.62-1.32-2.27-2.07-4.91-2.08-7.72,2.79.02,5.42.78,7.67,2.1Z"/>
        <path d="M44.1,38.8c-1.34-2.33-3.27-4.27-5.59-5.62,2.25-1.32,4.88-2.09,7.67-2.1,0,2.81-.76,5.45-2.08,7.72Z"/>
      </g>
      <g>
        <path d="M61.92,77.59c.02-2.79.78-5.42,2.1-7.67,1.35,2.32,3.29,4.25,5.62,5.59-2.27,1.32-4.9,2.07-7.72,2.08Z"/>
        <path d="M54.15,91.09c2.32-1.34,4.26-3.27,5.62-5.59,1.32,2.25,2.09,4.88,2.1,7.67-2.82,0-5.45-.76-7.72-2.08Z"/>
        <path d="M54.15,75.51c2.32-1.34,4.26-3.27,5.62-5.59,1.32,2.25,2.09,4.88,2.1,7.67-2.82,0-5.45-.76-7.72-2.08Z"/>
        <path d="M59.77,85.49c-1.35-2.32-3.29-4.25-5.62-5.59,2.27-1.32,4.9-2.07,7.72-2.08-.02,2.79-.78,5.41-2.1,7.67Z"/>
        <path d="M61.91,93.17c.02-2.79.78-5.42,2.1-7.67,1.35,2.32,3.29,4.25,5.61,5.59-2.26,1.32-4.9,2.07-7.71,2.08Z"/>
        <path d="M64.01,85.49c-1.32-2.25-2.09-4.87-2.1-7.67,2.81,0,5.45.76,7.71,2.08-2.32,1.34-4.26,3.27-5.61,5.59Z"/>
        <path d="M75.24,85.5c-1.35-2.32-3.29-4.25-5.62-5.59,2.27-1.32,4.91-2.07,7.72-2.08-.02,2.79-.78,5.42-2.1,7.67Z"/>
        <path d="M69.62,75.51c2.33-1.34,4.27-3.27,5.62-5.59,1.32,2.25,2.09,4.88,2.1,7.67-2.81,0-5.45-.76-7.72-2.08Z"/>
        <path d="M48.53,69.88c-1.32-2.25-2.09-4.88-2.1-7.67,2.82,0,5.45.76,7.72,2.08-2.32,1.34-4.26,3.27-5.62,5.59Z"/>
        <path d="M46.43,61.97c.02-2.79.78-5.42,2.1-7.67,1.35,2.32,3.29,4.25,5.62,5.59-2.27,1.32-4.9,2.07-7.72,2.08Z"/>
        <path d="M75.24,69.88c-1.35-2.32-3.29-4.25-5.62-5.59,2.27-1.32,4.91-2.07,7.72-2.08-.02,2.79-.78,5.42-2.1,7.67Z"/>
        <path d="M69.62,59.89c2.33-1.34,4.27-3.27,5.62-5.59,1.32,2.25,2.09,4.88,2.1,7.67-2.81,0-5.45-.76-7.72-2.08Z"/>
      </g>
      <g>
        <path d="M23.15,64.41c2.25-1.32,4.88-2.09,7.67-2.1,0,2.82-.76,5.45-2.08,7.72-1.34-2.32-3.27-4.26-5.59-5.62Z"/>
        <path d="M31.05,62.31c2.79.02,5.42.78,7.67,2.1-2.32,1.35-4.25,3.29-5.59,5.62-1.32-2.27-2.07-4.9-2.08-7.72Z"/>
        <path d="M23.15,91.11c2.32-1.35,4.25-3.29,5.59-5.62,1.32,2.27,2.07,4.91,2.08,7.72-2.79-.02-5.42-.78-7.67-2.1Z"/>
        <path d="M33.13,85.49c1.34,2.33,3.27,4.27,5.59,5.62-2.25,1.32-4.88,2.09-7.67,2.1,0-2.81.76-5.45,2.08-7.72Z"/>
        <path d="M38.53,64.48c2.25-1.32,4.88-2.09,7.67-2.1,0,2.82-.76,5.45-2.08,7.72-1.34-2.32-3.27-4.26-5.59-5.62Z"/>
        <path d="M46.44,62.37c2.79.02,5.42.78,7.67,2.1-2.32,1.35-4.25,3.29-5.59,5.62-1.32-2.27-2.07-4.9-2.08-7.72Z"/>
        <path d="M38.53,91.18c2.32-1.35,4.25-3.29,5.59-5.62,1.32,2.27,2.07,4.91,2.08,7.72-2.79-.02-5.42-.78-7.67-2.1Z"/>
        <path d="M48.52,85.56c1.34,2.33,3.27,4.27,5.59,5.62-2.25,1.32-4.88,2.09-7.67,2.1,0-2.81.76-5.45,2.08-7.72Z"/>
      </g>
      <g>
        <path d="M23.19,64.44c-2.32,1.34-4.26,3.27-5.62,5.59-1.32-2.25-2.09-4.88-2.1-7.67,2.82,0,5.45.76,7.72,2.08Z"/>
        <path d="M17.57,85.62c1.35,2.32,3.29,4.25,5.62,5.59-2.27,1.32-4.9,2.07-7.72,2.08.02-2.79.78-5.41,2.1-7.67Z"/>
        <path d="M15.43,62.37c-.02,2.79-.78,5.42-2.1,7.67-1.35-2.32-3.29-4.25-5.61-5.59,2.26-1.32,4.9-2.07,7.71-2.08Z"/>
        <path d="M13.33,85.62c1.32,2.25,2.09,4.87,2.1,7.67-2.81,0-5.45-.76-7.71-2.08,2.32-1.34,4.26-3.27,5.61-5.59Z"/>
        <path d="M2.1,70.04c1.35,2.32,3.29,4.25,5.62,5.59C5.45,76.95,2.81,77.71,0,77.71c.02-2.79.78-5.42,2.1-7.67Z"/>
        <path d="M7.72,80.02c-2.33,1.34-4.27,3.27-5.62,5.59-1.32-2.25-2.09-4.88-2.1-7.67,2.81,0,5.45.76,7.72,2.08Z"/>
      </g>
    </g>
  </g>
</svg>