<?xml version="1.0" encoding="UTF-8"?>
<svg id="_레이어_2" data-name="레이어 2" xmlns="http://www.w3.org/2000/svg" viewBox="0 0 61.95 108.72">
  <g id="_레이어_1-2" data-name="레이어 1">
    <g>
      <g>
        <path d="M17.62,38.78c-1.32,2.25-2.09,4.88-2.1,7.67,2.82,0,5.45-.76,7.72-2.08-2.32-1.34-4.26-3.27-5.62-5.59Z"/>
        <path d="M15.52,46.69c.02,2.79.78,5.42,2.1,7.67,1.35-2.32,3.29-4.25,5.62-5.59-2.27-1.32-4.9-2.07-7.72-2.08Z"/>
        <path d="M23.24,33.18c2.32,1.34,4.26,3.27,5.62,5.59,1.32-2.25,2.09-4.88,2.1-7.67-2.82,0-5.45.76-7.72,2.08Z"/>
        <path d="M28.86,38.78c-1.35,2.32-3.29,4.25-5.62,5.59,2.27,1.32,4.9,2.07,7.72,2.08-.02-2.79-.78-5.41-2.1-7.67Z"/>
        <path d="M31,31.11c.02,2.79.78,5.42,2.1,7.67,1.35-2.32,3.29-4.25,5.61-5.59-2.26-1.32-4.9-2.07-7.71-2.08Z"/>
        <path d="M33.1,38.78c-1.32,2.25-2.09,4.87-2.1,7.67,2.81,0,5.45-.76,7.71-2.08-2.32-1.34-4.26-3.27-5.61-5.59Z"/>
        <path d="M44.33,38.78c-1.35,2.32-3.29,4.25-5.62,5.59,2.27,1.32,4.91,2.07,7.72,2.08-.02-2.79-.78-5.42-2.1-7.67Z"/>
        <path d="M38.71,48.76c2.33,1.34,4.27,3.27,5.62,5.59,1.32-2.25,2.09-4.88,2.1-7.67-2.81,0-5.45.76-7.72,2.08Z"/>
        <path d="M17.62,54.4c-1.32,2.25-2.09,4.88-2.1,7.67,2.82,0,5.45-.76,7.72-2.08-2.32-1.34-4.26-3.27-5.62-5.59Z"/>
        <path d="M15.52,62.3c.02,2.79.78,5.42,2.1,7.67,1.35-2.32,3.29-4.25,5.62-5.59-2.27-1.32-4.9-2.07-7.72-2.08Z"/>
        <path d="M44.33,54.4c-1.35,2.32-3.29,4.25-5.62,5.59,2.27,1.32,4.91,2.07,7.72,2.08-.02-2.79-.78-5.42-2.1-7.67Z"/>
        <path d="M38.71,64.38c2.33,1.34,4.27,3.27,5.62,5.59,1.32-2.25,2.09-4.88,2.1-7.67-2.81,0-5.45.76-7.72,2.08Z"/>
      </g>
      <g>
        <path d="M54.27,33.21c-2.25-1.32-4.88-2.09-7.67-2.1,0,2.82.76,5.45,2.08,7.72,1.34-2.32,3.27-4.26,5.59-5.62Z"/>
        <path d="M46.37,31.11c-2.79.02-5.42.78-7.67,2.1,2.32,1.35,4.25,3.29,5.59,5.62,1.32-2.27,2.07-4.9,2.08-7.72Z"/>
        <path d="M59.87,38.83c-1.34,2.32-3.27,4.26-5.59,5.62,2.25,1.32,4.88,2.09,7.67,2.1,0-2.82-.76-5.45-2.08-7.72Z"/>
        <path d="M54.27,44.44c-2.32-1.35-4.25-3.29-5.59-5.62-1.32,2.27-2.07,4.9-2.08,7.72,2.79-.02,5.41-.78,7.67-2.1Z"/>
        <path d="M61.95,46.58c-2.79.02-5.42.78-7.67,2.1,2.32,1.35,4.25,3.29,5.59,5.61,1.32-2.26,2.07-4.9,2.08-7.71Z"/>
        <path d="M54.27,48.69c-2.25-1.32-4.87-2.09-7.67-2.1,0,2.81.76,5.45,2.08,7.71,1.34-2.32,3.27-4.26,5.59-5.61Z"/>
        <path d="M54.27,59.91c-2.32-1.35-4.25-3.29-5.59-5.62-1.32,2.27-2.07,4.91-2.08,7.72,2.79-.02,5.42-.78,7.67-2.1Z"/>
        <path d="M44.29,54.3c-1.34,2.33-3.27,4.27-5.59,5.62,2.25,1.32,4.88,2.09,7.67,2.1,0-2.81-.76-5.45-2.08-7.72Z"/>
        <path d="M38.65,33.21c-2.25-1.32-4.88-2.09-7.67-2.1,0,2.82.76,5.45,2.08,7.72,1.34-2.32,3.27-4.26,5.59-5.62Z"/>
        <path d="M30.75,31.11c-2.79.02-5.42.78-7.67,2.1,2.32,1.35,4.25,3.29,5.59,5.62,1.32-2.27,2.07-4.9,2.08-7.72Z"/>
        <path d="M38.65,59.91c-2.32-1.35-4.25-3.29-5.59-5.62-1.32,2.27-2.07,4.91-2.08,7.72,2.79-.02,5.42-.78,7.67-2.1Z"/>
        <path d="M28.67,54.3c-1.34,2.33-3.27,4.27-5.59,5.62,2.25,1.32,4.88,2.09,7.67,2.1,0-2.81-.76-5.45-2.08-7.72Z"/>
      </g>
      <g>
        <path d="M7.67,59.88c2.25,1.32,4.88,2.09,7.67,2.1,0-2.82-.76-5.45-2.08-7.72-1.34,2.32-3.27,4.26-5.59,5.62Z"/>
        <path d="M15.58,61.99c2.79-.02,5.42-.78,7.67-2.1-2.32-1.35-4.25-3.29-5.59-5.62-1.32,2.27-2.07,4.9-2.08,7.72Z"/>
        <path d="M2.08,54.27c1.34-2.32,3.27-4.26,5.59-5.62-2.25-1.32-4.88-2.09-7.67-2.1,0,2.82.76,5.45,2.08,7.72Z"/>
        <path d="M7.68,48.65c2.32,1.35,4.25,3.29,5.59,5.62,1.32-2.27,2.07-4.9,2.08-7.72-2.79.02-5.41.78-7.67,2.1Z"/>
        <path d="M0,46.51c2.79-.02,5.42-.78,7.67-2.1-2.32-1.35-4.25-3.29-5.59-5.61C.76,41.06,0,43.7,0,46.51Z"/>
        <path d="M7.68,44.41c2.25,1.32,4.87,2.09,7.67,2.1,0-2.81-.76-5.45-2.08-7.71-1.34,2.32-3.27,4.26-5.59,5.61Z"/>
        <path d="M7.67,33.18c2.32,1.35,4.25,3.29,5.59,5.62,1.32-2.27,2.07-4.91,2.08-7.72-2.79.02-5.42.78-7.67,2.1Z"/>
        <path d="M17.66,38.8c1.34-2.33,3.27-4.27,5.59-5.62-2.25-1.32-4.88-2.09-7.67-2.1,0,2.81.76,5.45,2.08,7.72Z"/>
        <path d="M23.29,59.88c2.25,1.32,4.88,2.09,7.67,2.1,0-2.82-.76-5.45-2.08-7.72-1.34,2.32-3.27,4.26-5.59,5.62Z"/>
        <path d="M31.2,61.99c2.79-.02,5.42-.78,7.67-2.1-2.32-1.35-4.25-3.29-5.59-5.62-1.32,2.27-2.07,4.9-2.08,7.72Z"/>
        <path d="M23.29,33.18c2.32,1.35,4.25,3.29,5.59,5.62,1.32-2.27,2.07-4.91,2.08-7.72-2.79.02-5.42.78-7.67,2.1Z"/>
        <path d="M33.28,38.8c1.34-2.33,3.27-4.27,5.59-5.62-2.25-1.32-4.88-2.09-7.67-2.1,0,2.81.76,5.45,2.08,7.72Z"/>
      </g>
      <g>
        <path d="M17.68,54.28c-1.32,2.25-2.09,4.88-2.1,7.67,2.82,0,5.45-.76,7.72-2.08-2.32-1.34-4.26-3.27-5.62-5.59Z"/>
        <path d="M15.58,62.18c.02,2.79.78,5.42,2.1,7.67,1.35-2.32,3.29-4.25,5.62-5.59-2.27-1.32-4.9-2.07-7.72-2.08Z"/>
        <path d="M23.29,48.68c2.32,1.34,4.26,3.27,5.62,5.59,1.32-2.25,2.09-4.88,2.1-7.67-2.82,0-5.45.76-7.72,2.08Z"/>
        <path d="M28.91,69.86c-1.35,2.32-3.29,4.25-5.62,5.59,2.27,1.32,4.9,2.07,7.72,2.08-.02-2.79-.78-5.41-2.1-7.67Z"/>
        <path d="M31.05,46.61c.02,2.79.78,5.42,2.1,7.67,1.35-2.32,3.29-4.25,5.61-5.59-2.26-1.32-4.9-2.07-7.71-2.08Z"/>
        <path d="M33.15,69.86c-1.32,2.25-2.09,4.87-2.1,7.67,2.81,0,5.45-.76,7.71-2.08-2.32-1.34-4.26-3.27-5.61-5.59Z"/>
        <path d="M44.38,54.28c-1.35,2.32-3.29,4.25-5.62,5.59,2.27,1.32,4.91,2.07,7.72,2.08-.02-2.79-.78-5.42-2.1-7.67Z"/>
        <path d="M38.76,64.26c2.33,1.34,4.27,3.27,5.62,5.59,1.32-2.25,2.09-4.88,2.1-7.67-2.81,0-5.45.76-7.72,2.08Z"/>
        <path d="M17.68,69.9c-1.32,2.25-2.09,4.88-2.1,7.67,2.82,0,5.45-.76,7.72-2.08-2.32-1.34-4.26-3.27-5.62-5.59Z"/>
        <path d="M15.58,77.8c.02,2.79.78,5.42,2.1,7.67,1.35-2.32,3.29-4.25,5.62-5.59-2.27-1.32-4.9-2.07-7.72-2.08Z"/>
        <path d="M44.38,69.9c-1.35,2.32-3.29,4.25-5.62,5.59,2.27,1.32,4.91,2.07,7.72,2.08-.02-2.79-.78-5.42-2.1-7.67Z"/>
        <path d="M38.76,79.88c2.33,1.34,4.27,3.27,5.62,5.59,1.32-2.25,2.09-4.88,2.1-7.67-2.81,0-5.45.76-7.72,2.08Z"/>
      </g>
      <g>
        <path d="M17.57,7.67c-1.32,2.25-2.09,4.88-2.1,7.67,2.82,0,5.45-.76,7.72-2.08-2.32-1.34-4.26-3.27-5.62-5.59Z"/>
        <path d="M15.46,15.58c.02,2.79.78,5.42,2.1,7.67,1.35-2.32,3.29-4.25,5.62-5.59-2.27-1.32-4.9-2.07-7.72-2.08Z"/>
        <path d="M23.18,2.08c2.32,1.34,4.26,3.27,5.62,5.59,1.32-2.25,2.09-4.88,2.1-7.67-2.82,0-5.45.76-7.72,2.08Z"/>
        <path d="M28.8,23.25c-1.35,2.32-3.29,4.25-5.62,5.59,2.27,1.32,4.9,2.07,7.72,2.08-.02-2.79-.78-5.41-2.1-7.67Z"/>
        <path d="M30.94,0c.02,2.79.78,5.42,2.1,7.67,1.35-2.32,3.29-4.25,5.61-5.59C36.39.76,33.75,0,30.94,0Z"/>
        <path d="M33.04,23.25c-1.32,2.25-2.09,4.87-2.1,7.67,2.81,0,5.45-.76,7.71-2.08-2.32-1.34-4.26-3.27-5.61-5.59Z"/>
        <path d="M44.27,7.67c-1.35,2.32-3.29,4.25-5.62,5.59,2.27,1.32,4.91,2.07,7.72,2.08-.02-2.79-.78-5.42-2.1-7.67Z"/>
        <path d="M38.65,17.66c2.33,1.34,4.27,3.27,5.62,5.59,1.32-2.25,2.09-4.88,2.1-7.67-2.81,0-5.45.76-7.72,2.08Z"/>
        <path d="M17.57,23.29c-1.32,2.25-2.09,4.88-2.1,7.67,2.82,0,5.45-.76,7.72-2.08-2.32-1.34-4.26-3.27-5.62-5.59Z"/>
        <path d="M15.46,31.2c.02,2.79.78,5.42,2.1,7.67,1.35-2.32,3.29-4.25,5.62-5.59-2.27-1.32-4.9-2.07-7.72-2.08Z"/>
        <path d="M44.27,23.29c-1.35,2.32-3.29,4.25-5.62,5.59,2.27,1.32,4.91,2.07,7.72,2.08-.02-2.79-.78-5.42-2.1-7.67Z"/>
        <path d="M38.65,33.28c2.33,1.34,4.27,3.27,5.62,5.59,1.32-2.25,2.09-4.88,2.1-7.67-2.81,0-5.45.76-7.72,2.08Z"/>
      </g>
      <g>
        <path d="M17.68,85.48c-1.32,2.25-2.09,4.88-2.1,7.67,2.82,0,5.45-.76,7.72-2.08-2.32-1.34-4.26-3.27-5.62-5.59Z"/>
        <path d="M15.58,93.38c.02,2.79.78,5.42,2.1,7.67,1.35-2.32,3.29-4.25,5.62-5.59-2.27-1.32-4.9-2.07-7.72-2.08Z"/>
        <path d="M23.29,79.88c2.32,1.34,4.26,3.27,5.62,5.59,1.32-2.25,2.09-4.88,2.1-7.67-2.82,0-5.45.76-7.72,2.08Z"/>
        <path d="M28.91,101.05c-1.35,2.32-3.29,4.25-5.62,5.59,2.27,1.32,4.9,2.07,7.72,2.08-.02-2.79-.78-5.41-2.1-7.67Z"/>
        <path d="M31.05,77.8c.02,2.79.78,5.42,2.1,7.67,1.35-2.32,3.29-4.25,5.61-5.59-2.26-1.32-4.9-2.07-7.71-2.08Z"/>
        <path d="M33.15,101.05c-1.32,2.25-2.09,4.87-2.1,7.67,2.81,0,5.45-.76,7.71-2.08-2.32-1.34-4.26-3.27-5.61-5.59Z"/>
        <path d="M44.38,85.48c-1.35,2.32-3.29,4.25-5.62,5.59,2.27,1.32,4.91,2.07,7.72,2.08-.02-2.79-.78-5.42-2.1-7.67Z"/>
        <path d="M38.76,95.46c2.33,1.34,4.27,3.27,5.62,5.59,1.32-2.25,2.09-4.88,2.1-7.67-2.81,0-5.45.76-7.72,2.08Z"/>
      </g>
    </g>
  </g>
</svg>