<?xml version="1.0" encoding="UTF-8"?>
<svg id="_레이어_2" data-name="레이어 2" xmlns="http://www.w3.org/2000/svg" viewBox="0 0 77.32 77.41">
  <g id="_레이어_1-2" data-name="레이어 1">
    <g>
      <g>
        <path d="M75.22,69.74c1.32-2.25,2.09-4.88,2.1-7.67-2.82,0-5.45.76-7.72,2.08,2.32,1.34,4.26,3.27,5.62,5.59Z"/>
        <path d="M77.32,61.83c-.02-2.79-.78-5.42-2.1-7.67-1.35,2.32-3.29,4.25-5.62,5.59,2.27,1.32,4.9,2.07,7.72,2.08Z"/>
        <path d="M69.6,75.33c-2.32-1.34-4.26-3.27-5.62-5.59-1.32,2.25-2.09,4.88-2.1,7.67,2.82,0,5.45-.76,7.72-2.08Z"/>
        <path d="M63.99,69.74c1.35-2.32,3.29-4.25,5.62-5.59-2.27-1.32-4.9-2.07-7.72-2.08.02,2.79.78,5.41,2.1,7.67Z"/>
        <path d="M61.85,77.41c-.02-2.79-.78-5.42-2.1-7.67-1.35,2.32-3.29,4.25-5.61,5.59,2.26,1.32,4.9,2.07,7.71,2.08Z"/>
        <path d="M59.75,69.74c1.32-2.25,2.09-4.87,2.1-7.67-2.81,0-5.45.76-7.71,2.08,2.32,1.34,4.26,3.27,5.61,5.59Z"/>
        <path d="M48.52,69.74c1.35-2.32,3.29-4.25,5.62-5.59-2.27-1.32-4.91-2.07-7.72-2.08.02,2.79.78,5.42,2.1,7.67Z"/>
        <path d="M54.14,59.75c-2.33-1.34-4.27-3.27-5.62-5.59-1.32,2.25-2.09,4.88-2.1,7.67,2.81,0,5.45-.76,7.72-2.08Z"/>
        <path d="M75.22,54.12c1.32-2.25,2.09-4.88,2.1-7.67-2.82,0-5.45.76-7.72,2.08,2.32,1.34,4.26,3.27,5.62,5.59Z"/>
        <path d="M77.32,46.21c-.02-2.79-.78-5.42-2.1-7.67-1.35,2.32-3.29,4.25-5.62,5.59,2.27,1.32,4.9,2.07,7.72,2.08Z"/>
        <path d="M48.52,54.12c1.35-2.32,3.29-4.25,5.62-5.59-2.27-1.32-4.91-2.07-7.72-2.08.02,2.79.78,5.42,2.1,7.67Z"/>
        <path d="M54.14,44.13c-2.33-1.34-4.27-3.27-5.62-5.59-1.32,2.25-2.09,4.88-2.1,7.67,2.81,0,5.45-.76,7.72-2.08Z"/>
      </g>
      <g>
        <path d="M75.18,54.44c1.32-2.25,2.09-4.88,2.1-7.67-2.82,0-5.45.76-7.72,2.08,2.32,1.34,4.26,3.27,5.62,5.59Z"/>
        <path d="M77.29,46.54c-.02-2.79-.78-5.42-2.1-7.67-1.35,2.32-3.29,4.25-5.62,5.59,2.27,1.32,4.9,2.07,7.72,2.08Z"/>
        <path d="M69.57,60.04c-2.32-1.34-4.26-3.27-5.62-5.59-1.32,2.25-2.09,4.88-2.1,7.67,2.82,0,5.45-.76,7.72-2.08Z"/>
        <path d="M63.95,38.86c1.35-2.32,3.29-4.25,5.62-5.59-2.27-1.32-4.9-2.07-7.72-2.08.02,2.79.78,5.41,2.1,7.67Z"/>
        <path d="M61.81,62.12c-.02-2.79-.78-5.42-2.1-7.67-1.35,2.32-3.29,4.25-5.61,5.59,2.26,1.32,4.9,2.07,7.71,2.08Z"/>
        <path d="M59.71,38.86c1.32-2.25,2.09-4.87,2.1-7.67-2.81,0-5.45.76-7.71,2.08,2.32,1.34,4.26,3.27,5.61,5.59Z"/>
        <path d="M48.48,54.44c1.35-2.32,3.29-4.25,5.62-5.59-2.27-1.32-4.91-2.07-7.72-2.08.02,2.79.78,5.42,2.1,7.67Z"/>
        <path d="M54.1,44.46c-2.33-1.34-4.27-3.27-5.62-5.59-1.32,2.25-2.09,4.88-2.1,7.67,2.81,0,5.45-.76,7.72-2.08Z"/>
        <path d="M75.18,38.82c1.32-2.25,2.09-4.88,2.1-7.67-2.82,0-5.45.76-7.72,2.08,2.32,1.34,4.26,3.27,5.62,5.59Z"/>
        <path d="M77.29,30.92c-.02-2.79-.78-5.42-2.1-7.67-1.35,2.32-3.29,4.25-5.62,5.59,2.27,1.32,4.9,2.07,7.72,2.08Z"/>
        <path d="M48.48,38.82c1.35-2.32,3.29-4.25,5.62-5.59-2.27-1.32-4.91-2.07-7.72-2.08.02,2.79.78,5.42,2.1,7.67Z"/>
        <path d="M54.1,28.84c-2.33-1.34-4.27-3.27-5.62-5.59-1.32,2.25-2.09,4.88-2.1,7.67,2.81,0,5.45-.76,7.72-2.08Z"/>
      </g>
      <g>
        <path d="M75.18,23.25c1.32-2.25,2.09-4.88,2.1-7.67-2.82,0-5.45.76-7.72,2.08,2.32,1.34,4.26,3.27,5.62,5.59Z"/>
        <path d="M77.29,15.34c-.02-2.79-.78-5.42-2.1-7.67-1.35,2.32-3.29,4.25-5.62,5.59,2.27,1.32,4.9,2.07,7.72,2.08Z"/>
        <path d="M69.57,28.84c-2.32-1.34-4.26-3.27-5.62-5.59-1.32,2.25-2.09,4.88-2.1,7.67,2.82,0,5.45-.76,7.72-2.08Z"/>
        <path d="M63.95,7.67c1.35-2.32,3.29-4.25,5.62-5.59C67.3.76,64.66,0,61.85,0c.02,2.79.78,5.41,2.1,7.67Z"/>
        <path d="M61.81,30.92c-.02-2.79-.78-5.42-2.1-7.67-1.35,2.32-3.29,4.25-5.61,5.59,2.26,1.32,4.9,2.07,7.71,2.08Z"/>
        <path d="M59.71,7.67C61.03,5.41,61.79,2.79,61.81,0c-2.81,0-5.45.76-7.71,2.08,2.32,1.34,4.26,3.27,5.61,5.59Z"/>
        <path d="M48.48,23.25c1.35-2.32,3.29-4.25,5.62-5.59-2.27-1.32-4.91-2.07-7.72-2.08.02,2.79.78,5.42,2.1,7.67Z"/>
        <path d="M54.1,13.26c-2.33-1.34-4.27-3.27-5.62-5.59-1.32,2.25-2.09,4.88-2.1,7.67,2.81,0,5.45-.76,7.72-2.08Z"/>
      </g>
      <g>
        <path d="M28.84,69.74c1.32-2.25,2.09-4.88,2.1-7.67-2.82,0-5.45.76-7.72,2.08,2.32,1.34,4.26,3.27,5.62,5.59Z"/>
        <path d="M30.95,61.83c-.02-2.79-.78-5.42-2.1-7.67-1.35,2.32-3.29,4.25-5.62,5.59,2.27,1.32,4.9,2.07,7.72,2.08Z"/>
        <path d="M23.23,75.33c-2.32-1.34-4.26-3.27-5.62-5.59-1.32,2.25-2.09,4.88-2.1,7.67,2.82,0,5.45-.76,7.72-2.08Z"/>
        <path d="M17.61,69.74c1.35-2.32,3.29-4.25,5.62-5.59-2.27-1.32-4.9-2.07-7.72-2.08.02,2.79.78,5.41,2.1,7.67Z"/>
        <path d="M15.47,77.41c-.02-2.79-.78-5.42-2.1-7.67-1.35,2.32-3.29,4.25-5.61,5.59,2.26,1.32,4.9,2.07,7.71,2.08Z"/>
        <path d="M13.37,69.74c1.32-2.25,2.09-4.87,2.1-7.67-2.81,0-5.45.76-7.71,2.08,2.32,1.34,4.26,3.27,5.61,5.59Z"/>
        <path d="M2.14,69.74c1.35-2.32,3.29-4.25,5.62-5.59-2.27-1.32-4.91-2.07-7.72-2.08.02,2.79.78,5.42,2.1,7.67Z"/>
        <path d="M7.76,59.75c-2.33-1.34-4.27-3.27-5.62-5.59C.82,56.41.05,59.04.04,61.83c2.81,0,5.45-.76,7.72-2.08Z"/>
        <path d="M28.84,54.12c1.32-2.25,2.09-4.88,2.1-7.67-2.82,0-5.45.76-7.72,2.08,2.32,1.34,4.26,3.27,5.62,5.59Z"/>
        <path d="M30.95,46.21c-.02-2.79-.78-5.42-2.1-7.67-1.35,2.32-3.29,4.25-5.62,5.59,2.27,1.32,4.9,2.07,7.72,2.08Z"/>
        <path d="M2.14,54.12c1.35-2.32,3.29-4.25,5.62-5.59-2.27-1.32-4.91-2.07-7.72-2.08.02,2.79.78,5.42,2.1,7.67Z"/>
        <path d="M7.76,44.13c-2.33-1.34-4.27-3.27-5.62-5.59C.82,40.79.05,43.42.04,46.21c2.81,0,5.45-.76,7.72-2.08Z"/>
      </g>
      <g>
        <path d="M28.8,54.44c1.32-2.25,2.09-4.88,2.1-7.67-2.82,0-5.45.76-7.72,2.08,2.32,1.34,4.26,3.27,5.62,5.59Z"/>
        <path d="M30.91,46.54c-.02-2.79-.78-5.42-2.1-7.67-1.35,2.32-3.29,4.25-5.62,5.59,2.27,1.32,4.9,2.07,7.72,2.08Z"/>
        <path d="M23.19,60.04c-2.32-1.34-4.26-3.27-5.62-5.59-1.32,2.25-2.09,4.88-2.1,7.67,2.82,0,5.45-.76,7.72-2.08Z"/>
        <path d="M17.57,38.86c1.35-2.32,3.29-4.25,5.62-5.59-2.27-1.32-4.9-2.07-7.72-2.08.02,2.79.78,5.41,2.1,7.67Z"/>
        <path d="M15.43,62.12c-.02-2.79-.78-5.42-2.1-7.67-1.35,2.32-3.29,4.25-5.61,5.59,2.26,1.32,4.9,2.07,7.71,2.08Z"/>
        <path d="M13.33,38.86c1.32-2.25,2.09-4.87,2.1-7.67-2.81,0-5.45.76-7.71,2.08,2.32,1.34,4.26,3.27,5.61,5.59Z"/>
        <path d="M2.1,54.44c1.35-2.32,3.29-4.25,5.62-5.59-2.27-1.32-4.91-2.07-7.72-2.08.02,2.79.78,5.42,2.1,7.67Z"/>
        <path d="M7.72,44.46c-2.33-1.34-4.27-3.27-5.62-5.59C.78,41.12.02,43.74,0,46.54c2.81,0,5.45-.76,7.72-2.08Z"/>
        <path d="M28.8,38.82c1.32-2.25,2.09-4.88,2.1-7.67-2.82,0-5.45.76-7.72,2.08,2.32,1.34,4.26,3.27,5.62,5.59Z"/>
        <path d="M30.91,30.92c-.02-2.79-.78-5.42-2.1-7.67-1.35,2.32-3.29,4.25-5.62,5.59,2.27,1.32,4.9,2.07,7.72,2.08Z"/>
        <path d="M2.1,38.82c1.35-2.32,3.29-4.25,5.62-5.59C5.45,31.91,2.81,31.16,0,31.15c.02,2.79.78,5.42,2.1,7.67Z"/>
        <path d="M7.72,28.84c-2.33-1.34-4.27-3.27-5.62-5.59C.78,25.5.02,28.12,0,30.92c2.81,0,5.45-.76,7.72-2.08Z"/>
      </g>
      <g>
        <path d="M28.8,23.25c1.32-2.25,2.09-4.88,2.1-7.67-2.82,0-5.45.76-7.72,2.08,2.32,1.34,4.26,3.27,5.62,5.59Z"/>
        <path d="M30.91,15.34c-.02-2.79-.78-5.42-2.1-7.67-1.35,2.32-3.29,4.25-5.62,5.59,2.27,1.32,4.9,2.07,7.72,2.08Z"/>
        <path d="M23.19,28.84c-2.32-1.34-4.26-3.27-5.62-5.59-1.32,2.25-2.09,4.88-2.1,7.67,2.82,0,5.45-.76,7.72-2.08Z"/>
        <path d="M17.57,7.67c1.35-2.32,3.29-4.25,5.62-5.59C20.92.76,18.29,0,15.47,0c.02,2.79.78,5.41,2.1,7.67Z"/>
        <path d="M15.43,30.92c-.02-2.79-.78-5.42-2.1-7.67-1.35,2.32-3.29,4.25-5.61,5.59,2.26,1.32,4.9,2.07,7.71,2.08Z"/>
        <path d="M13.33,7.67c1.32-2.25,2.09-4.87,2.1-7.67-2.81,0-5.45.76-7.71,2.08,2.32,1.34,4.26,3.27,5.61,5.59Z"/>
        <path d="M2.1,23.25c1.35-2.32,3.29-4.25,5.62-5.59C5.45,16.33,2.81,15.58,0,15.57c.02,2.79.78,5.42,2.1,7.67Z"/>
        <path d="M7.72,13.26c-2.33-1.34-4.27-3.27-5.62-5.59C.78,9.92.02,12.54,0,15.34c2.81,0,5.45-.76,7.72-2.08Z"/>
      </g>
      <g>
        <path d="M44.26,69.68c1.32-2.25,2.09-4.88,2.1-7.67-2.82,0-5.45.76-7.72,2.08,2.32,1.34,4.26,3.27,5.62,5.59Z"/>
        <path d="M46.36,61.78c-.02-2.79-.78-5.42-2.1-7.67-1.35,2.32-3.29,4.25-5.62,5.59,2.27,1.32,4.9,2.07,7.72,2.08Z"/>
        <path d="M38.64,75.28c-2.32-1.34-4.26-3.27-5.62-5.59-1.32,2.25-2.09,4.88-2.1,7.67,2.82,0,5.45-.76,7.72-2.08Z"/>
        <path d="M33.03,54.1c1.35-2.32,3.29-4.25,5.62-5.59-2.27-1.32-4.9-2.07-7.72-2.08.02,2.79.78,5.41,2.1,7.67Z"/>
        <path d="M30.89,77.36c-.02-2.79-.78-5.42-2.1-7.67-1.35,2.32-3.29,4.25-5.61,5.59,2.26,1.32,4.9,2.07,7.71,2.08Z"/>
        <path d="M28.78,54.1c1.32-2.25,2.09-4.87,2.1-7.67-2.81,0-5.45.76-7.71,2.08,2.32,1.34,4.26,3.27,5.61,5.59Z"/>
        <path d="M17.56,69.68c1.35-2.32,3.29-4.25,5.62-5.59-2.27-1.32-4.91-2.07-7.72-2.08.02,2.79.78,5.42,2.1,7.67Z"/>
        <path d="M23.17,59.7c-2.33-1.34-4.27-3.27-5.62-5.59-1.32,2.25-2.09,4.88-2.1,7.67,2.81,0,5.45-.76,7.72-2.08Z"/>
        <path d="M32.97,69.68c1.35-2.32,3.29-4.25,5.62-5.59-2.27-1.32-4.91-2.07-7.72-2.08.02,2.79.78,5.42,2.1,7.67Z"/>
        <path d="M38.59,59.7c-2.33-1.34-4.27-3.27-5.62-5.59-1.32,2.25-2.09,4.88-2.1,7.67,2.81,0,5.45-.76,7.72-2.08Z"/>
      </g>
    </g>
  </g>
</svg>