<?xml version="1.0" encoding="UTF-8"?>
<svg id="_레이어_2" data-name="레이어 2" xmlns="http://www.w3.org/2000/svg" viewBox="0 0 77.55 77.44">
  <g id="_레이어_1-2" data-name="레이어 1">
    <g>
      <g>
        <path d="M28.84,69.76c1.32-2.25,2.09-4.88,2.1-7.67-2.82,0-5.45.76-7.72,2.08,2.32,1.34,4.26,3.27,5.62,5.59Z"/>
        <path d="M30.95,61.86c-.02-2.79-.78-5.42-2.1-7.67-1.35,2.32-3.29,4.25-5.62,5.59,2.27,1.32,4.9,2.07,7.72,2.08Z"/>
        <path d="M23.23,75.36c-2.32-1.34-4.26-3.27-5.62-5.59-1.32,2.25-2.09,4.88-2.1,7.67,2.82,0,5.45-.76,7.72-2.08Z"/>
        <path d="M17.61,69.76c1.35-2.32,3.29-4.25,5.62-5.59-2.27-1.32-4.9-2.07-7.72-2.08.02,2.79.78,5.41,2.1,7.67Z"/>
        <path d="M15.47,77.44c-.02-2.79-.78-5.42-2.1-7.67-1.35,2.32-3.29,4.25-5.61,5.59,2.26,1.32,4.9,2.07,7.71,2.08Z"/>
        <path d="M13.37,69.76c1.32-2.25,2.09-4.87,2.1-7.67-2.81,0-5.45.76-7.71,2.08,2.32,1.34,4.26,3.27,5.61,5.59Z"/>
        <path d="M2.14,69.76c1.35-2.32,3.29-4.25,5.62-5.59-2.27-1.32-4.91-2.07-7.72-2.08.02,2.79.78,5.42,2.1,7.67Z"/>
        <path d="M7.76,59.78c-2.33-1.34-4.27-3.27-5.62-5.59C.82,56.44.05,59.06.04,61.86c2.81,0,5.45-.76,7.72-2.08Z"/>
        <path d="M28.84,54.14c1.32-2.25,2.09-4.88,2.1-7.67-2.82,0-5.45.76-7.72,2.08,2.32,1.34,4.26,3.27,5.62,5.59Z"/>
        <path d="M30.95,46.47c-.02-2.79-.78-5.42-2.1-7.67-1.35,2.32-3.29,4.25-5.62,5.59,2.27,1.32,4.9,2.07,7.72,2.08Z"/>
        <path d="M2.14,54.14c1.35-2.32,3.29-4.25,5.62-5.59-2.27-1.32-4.91-2.07-7.72-2.08.02,2.79.78,5.42,2.1,7.67Z"/>
        <path d="M7.76,44.16c-2.33-1.34-4.27-3.27-5.62-5.59C.82,40.82.05,43.44.04,46.24c2.81,0,5.45-.76,7.72-2.08Z"/>
      </g>
      <g>
        <path d="M48.75,7.67c-1.32,2.25-2.09,4.88-2.1,7.67,2.82,0,5.45-.76,7.72-2.08-2.32-1.34-4.26-3.27-5.62-5.59Z"/>
        <path d="M46.64,15.58c.02,2.79.78,5.42,2.1,7.67,1.35-2.32,3.29-4.25,5.62-5.59-2.27-1.32-4.9-2.07-7.72-2.08Z"/>
        <path d="M54.36,2.08c2.32,1.34,4.26,3.27,5.62,5.59,1.32-2.25,2.09-4.88,2.1-7.67-2.82,0-5.45.76-7.72,2.08Z"/>
        <path d="M59.98,23.27c-1.35,2.32-3.29,4.25-5.62,5.59,2.27,1.32,4.9,2.07,7.72,2.08-.02-2.79-.78-5.41-2.1-7.67Z"/>
        <path d="M62.12,0c.02,2.79.78,5.42,2.1,7.67,1.35-2.32,3.29-4.25,5.61-5.59C67.57.76,64.93,0,62.12,0Z"/>
        <path d="M64.22,23.27c-1.32,2.25-2.09,4.87-2.1,7.67,2.81,0,5.45-.76,7.71-2.08-2.32-1.34-4.26-3.27-5.61-5.59Z"/>
        <path d="M75.45,7.67c-1.35,2.32-3.29,4.25-5.62,5.59,2.27,1.32,4.91,2.07,7.72,2.08-.02-2.79-.78-5.42-2.1-7.67Z"/>
        <path d="M69.83,17.66c2.33,1.34,4.27,3.27,5.62,5.59,1.32-2.25,2.09-4.88,2.1-7.67-2.81,0-5.45.76-7.72,2.08Z"/>
      </g>
      <g>
        <path d="M33.05,23.15c-1.32,2.25-2.09,4.88-2.1,7.67,2.82,0,5.45-.76,7.72-2.08-2.32-1.34-4.26-3.27-5.62-5.59Z"/>
        <path d="M30.95,31.05c.02,2.79.78,5.42,2.1,7.67,1.35-2.32,3.29-4.25,5.62-5.59-2.27-1.32-4.9-2.07-7.72-2.08Z"/>
        <path d="M38.67,17.55c2.32,1.34,4.26,3.27,5.62,5.59,1.32-2.25,2.09-4.88,2.1-7.67-2.82,0-5.45.76-7.72,2.08Z"/>
        <path d="M44.28,38.75c-1.35,2.32-3.29,4.25-5.62,5.59,2.27,1.32,4.9,2.07,7.72,2.08-.02-2.79-.78-5.41-2.1-7.67Z"/>
        <path d="M46.42,15.47c.02,2.79.78,5.42,2.1,7.67,1.35-2.32,3.29-4.25,5.61-5.59-2.26-1.32-4.9-2.07-7.71-2.08Z"/>
        <path d="M48.53,38.75c-1.32,2.25-2.09,4.87-2.1,7.67,2.81,0,5.45-.76,7.71-2.08-2.32-1.34-4.26-3.27-5.61-5.59Z"/>
        <path d="M59.75,23.15c-1.35,2.32-3.29,4.25-5.62,5.59,2.27,1.32,4.91,2.07,7.72,2.08-.02-2.79-.78-5.42-2.1-7.67Z"/>
        <path d="M54.14,33.13c2.33,1.34,4.27,3.27,5.62,5.59,1.32-2.25,2.09-4.88,2.1-7.67-2.81,0-5.45.76-7.72,2.08Z"/>
      </g>
      <g>
        <path d="M17.6,38.84c-1.32,2.25-2.09,4.88-2.1,7.67,2.82,0,5.45-.76,7.72-2.08-2.32-1.34-4.26-3.27-5.62-5.59Z"/>
        <path d="M15.49,46.74c.02,2.79.78,5.42,2.1,7.67,1.35-2.32,3.29-4.25,5.62-5.59-2.27-1.32-4.9-2.07-7.72-2.08Z"/>
        <path d="M23.21,33.24c2.32,1.34,4.26,3.27,5.62,5.59,1.32-2.25,2.09-4.88,2.1-7.67-2.82,0-5.45.76-7.72,2.08Z"/>
        <path d="M28.83,54.44c-1.35,2.32-3.29,4.25-5.62,5.59,2.27,1.32,4.9,2.07,7.72,2.08-.02-2.79-.78-5.41-2.1-7.67Z"/>
        <path d="M30.97,31.16c.02,2.79.78,5.42,2.1,7.67,1.35-2.32,3.29-4.25,5.61-5.59-2.26-1.32-4.9-2.07-7.71-2.08Z"/>
        <path d="M33.07,54.44c-1.32,2.25-2.09,4.87-2.1,7.67,2.81,0,5.45-.76,7.71-2.08-2.32-1.34-4.26-3.27-5.61-5.59Z"/>
        <path d="M44.3,38.84c-1.35,2.32-3.29,4.25-5.62,5.59,2.27,1.32,4.91,2.07,7.72,2.08-.02-2.79-.78-5.42-2.1-7.67Z"/>
        <path d="M38.68,48.82c2.33,1.34,4.27,3.27,5.62,5.59,1.32-2.25,2.09-4.88,2.1-7.67-2.81,0-5.45.76-7.72,2.08Z"/>
      </g>
      <g>
        <path d="M33.07,38.8c-1.32,2.25-2.09,4.88-2.1,7.67,2.82,0,5.45-.76,7.72-2.08-2.32-1.34-4.26-3.27-5.62-5.59Z"/>
        <path d="M30.97,46.47c.02,2.79.78,5.42,2.1,7.67,1.35-2.32,3.29-4.25,5.62-5.59-2.27-1.32-4.9-2.07-7.72-2.08Z"/>
        <path d="M23.19,60.06c-2.32-1.34-4.26-3.27-5.62-5.59-1.32,2.25-2.09,4.88-2.1,7.67,2.82,0,5.45-.76,7.72-2.08Z"/>
        <path d="M17.57,38.89c1.35-2.32,3.29-4.25,5.62-5.59-2.27-1.32-4.9-2.07-7.72-2.08.02,2.79.78,5.41,2.1,7.67Z"/>
        <path d="M15.43,62.14c-.02-2.79-.78-5.42-2.1-7.67-1.35,2.32-3.29,4.25-5.61,5.59,2.26,1.32,4.9,2.07,7.71,2.08Z"/>
        <path d="M13.33,38.89c1.32-2.25,2.09-4.87,2.1-7.67-2.81,0-5.45.76-7.71,2.08,2.32,1.34,4.26,3.27,5.61,5.59Z"/>
        <path d="M2.1,54.47c1.35-2.32,3.29-4.25,5.62-5.59-2.27-1.32-4.91-2.07-7.72-2.08.02,2.79.78,5.42,2.1,7.67Z"/>
        <path d="M7.72,44.48c-2.33-1.34-4.27-3.27-5.62-5.59C.78,41.14.02,43.77,0,46.56c2.81,0,5.45-.76,7.72-2.08Z"/>
        <path d="M28.8,38.85c1.32-2.25,2.09-4.88,2.1-7.67-2.82,0-5.45.76-7.72,2.08,2.32,1.34,4.26,3.27,5.62,5.59Z"/>
        <path d="M30.91,30.94c-.02-2.79-.78-5.42-2.1-7.67-1.35,2.32-3.29,4.25-5.62,5.59,2.27,1.32,4.9,2.07,7.72,2.08Z"/>
        <path d="M2.1,38.85c1.35-2.32,3.29-4.25,5.62-5.59C5.45,31.94,2.81,31.18,0,31.18c.02,2.79.78,5.42,2.1,7.67Z"/>
        <path d="M7.72,28.87c-2.33-1.34-4.27-3.27-5.62-5.59C.78,25.53.02,28.15,0,30.94c2.81,0,5.45-.76,7.72-2.08Z"/>
      </g>
      <g>
        <path d="M28.8,23.27c1.32-2.25,2.09-4.88,2.1-7.67-2.82,0-5.45.76-7.72,2.08,2.32,1.34,4.26,3.27,5.62,5.59Z"/>
        <path d="M30.91,15.37c-.02-2.79-.78-5.42-2.1-7.67-1.35,2.32-3.29,4.25-5.62,5.59,2.27,1.32,4.9,2.07,7.72,2.08Z"/>
        <path d="M23.19,28.87c-2.32-1.34-4.26-3.27-5.62-5.59-1.32,2.25-2.09,4.88-2.1,7.67,2.82,0,5.45-.76,7.72-2.08Z"/>
        <path d="M17.57,7.69c1.35-2.32,3.29-4.25,5.62-5.59C20.92.78,18.29.03,15.47.03c.02,2.79.78,5.41,2.1,7.67Z"/>
        <path d="M15.43,30.94c-.02-2.79-.78-5.42-2.1-7.67-1.35,2.32-3.29,4.25-5.61,5.59,2.26,1.32,4.9,2.07,7.71,2.08Z"/>
        <path d="M13.33,7.69C14.65,5.44,15.42,2.82,15.43.03c-2.81,0-5.45.76-7.71,2.08,2.32,1.34,4.26,3.27,5.61,5.59Z"/>
        <path d="M2.1,23.27c1.35-2.32,3.29-4.25,5.62-5.59C5.45,16.36,2.81,15.6,0,15.6c.02,2.79.78,5.42,2.1,7.67Z"/>
        <path d="M7.72,13.29c-2.33-1.34-4.27-3.27-5.62-5.59C.78,9.95.02,12.57,0,15.37c2.81,0,5.45-.76,7.72-2.08Z"/>
      </g>
    </g>
  </g>
</svg>