<?xml version="1.0" encoding="UTF-8"?>
<svg id="_레이어_2" data-name="레이어 2" xmlns="http://www.w3.org/2000/svg" viewBox="0 0 77.51 108.75">
  <g id="_레이어_1-2" data-name="레이어 1">
    <g>
      <g>
        <path d="M75.41,69.74c1.32-2.25,2.09-4.88,2.1-7.67-2.82,0-5.45.76-7.72,2.08,2.32,1.34,4.26,3.27,5.62,5.59Z"/>
        <path d="M77.51,61.83c-.02-2.79-.78-5.42-2.1-7.67-1.35,2.32-3.29,4.25-5.62,5.59,2.27,1.32,4.9,2.07,7.72,2.08Z"/>
        <path d="M64.18,69.74c1.35-2.32,3.29-4.25,5.62-5.59-2.27-1.32-4.9-2.07-7.72-2.08.02,2.79.78,5.41,2.1,7.67Z"/>
        <path d="M59.94,69.74c1.32-2.25,2.09-4.87,2.1-7.67-2.81,0-5.45.76-7.71,2.08,2.32,1.34,4.26,3.27,5.61,5.59Z"/>
        <path d="M48.71,69.74c1.35-2.32,3.29-4.25,5.62-5.59-2.27-1.32-4.91-2.07-7.72-2.08.02,2.79.78,5.42,2.1,7.67Z"/>
        <path d="M54.33,59.75c-2.33-1.34-4.27-3.27-5.62-5.59-1.32,2.25-2.09,4.88-2.1,7.67,2.81,0,5.45-.76,7.72-2.08Z"/>
        <path d="M75.41,54.12c1.32-2.25,2.09-4.88,2.1-7.67-2.82,0-5.45.76-7.72,2.08,2.32,1.34,4.26,3.27,5.62,5.59Z"/>
        <path d="M77.51,46.21c-.02-2.79-.78-5.42-2.1-7.67-1.35,2.32-3.29,4.25-5.62,5.59,2.27,1.32,4.9,2.07,7.72,2.08Z"/>
        <path d="M48.71,54.12c1.35-2.32,3.29-4.25,5.62-5.59-2.27-1.32-4.91-2.07-7.72-2.08.02,2.79.78,5.42,2.1,7.67Z"/>
        <path d="M54.33,44.13c-2.33-1.34-4.27-3.27-5.62-5.59-1.32,2.25-2.09,4.88-2.1,7.67,2.81,0,5.45-.76,7.72-2.08Z"/>
      </g>
      <g>
        <path d="M75.37,54.44c1.32-2.25,2.09-4.88,2.1-7.67-2.82,0-5.45.76-7.72,2.08,2.32,1.34,4.26,3.27,5.62,5.59Z"/>
        <path d="M77.48,46.54c-.02-2.79-.78-5.42-2.1-7.67-1.35,2.32-3.29,4.25-5.62,5.59,2.27,1.32,4.9,2.07,7.72,2.08Z"/>
        <path d="M69.76,60.04c-2.32-1.34-4.26-3.27-5.62-5.59-1.32,2.25-2.09,4.88-2.1,7.67,2.82,0,5.45-.76,7.72-2.08Z"/>
        <path d="M64.14,38.86c1.35-2.32,3.29-4.25,5.62-5.59-2.27-1.32-4.9-2.07-7.72-2.08.02,2.79.78,5.41,2.1,7.67Z"/>
        <path d="M62,62.12c-.02-2.79-.78-5.42-2.1-7.67-1.35,2.32-3.29,4.25-5.61,5.59,2.26,1.32,4.9,2.07,7.71,2.08Z"/>
        <path d="M59.9,38.86c1.32-2.25,2.09-4.87,2.1-7.67-2.81,0-5.45.76-7.71,2.08,2.32,1.34,4.26,3.27,5.61,5.59Z"/>
        <path d="M48.67,54.44c1.35-2.32,3.29-4.25,5.62-5.59-2.27-1.32-4.91-2.07-7.72-2.08.02,2.79.78,5.42,2.1,7.67Z"/>
        <path d="M54.29,44.46c-2.33-1.34-4.27-3.27-5.62-5.59-1.32,2.25-2.09,4.88-2.1,7.67,2.81,0,5.45-.76,7.72-2.08Z"/>
        <path d="M75.37,38.82c1.32-2.25,2.09-4.88,2.1-7.67-2.82,0-5.45.76-7.72,2.08,2.32,1.34,4.26,3.27,5.62,5.59Z"/>
        <path d="M77.48,30.92c-.02-2.79-.78-5.42-2.1-7.67-1.35,2.32-3.29,4.25-5.62,5.59,2.27,1.32,4.9,2.07,7.72,2.08Z"/>
        <path d="M48.67,38.82c1.35-2.32,3.29-4.25,5.62-5.59-2.27-1.32-4.91-2.07-7.72-2.08.02,2.79.78,5.42,2.1,7.67Z"/>
        <path d="M54.29,28.84c-2.33-1.34-4.27-3.27-5.62-5.59-1.32,2.25-2.09,4.88-2.1,7.67,2.81,0,5.45-.76,7.72-2.08Z"/>
      </g>
      <g>
        <path d="M75.37,23.25c1.32-2.25,2.09-4.88,2.1-7.67-2.82,0-5.45.76-7.72,2.08,2.32,1.34,4.26,3.27,5.62,5.59Z"/>
        <path d="M77.48,15.34c-.02-2.79-.78-5.42-2.1-7.67-1.35,2.32-3.29,4.25-5.62,5.59,2.27,1.32,4.9,2.07,7.72,2.08Z"/>
        <path d="M69.76,28.84c-2.32-1.34-4.26-3.27-5.62-5.59-1.32,2.25-2.09,4.88-2.1,7.67,2.82,0,5.45-.76,7.72-2.08Z"/>
        <path d="M64.14,7.67c1.35-2.32,3.29-4.25,5.62-5.59C67.49.76,64.85,0,62.04,0c.02,2.79.78,5.41,2.1,7.67Z"/>
        <path d="M62,30.92c-.02-2.79-.78-5.42-2.1-7.67-1.35,2.32-3.29,4.25-5.61,5.59,2.26,1.32,4.9,2.07,7.71,2.08Z"/>
        <path d="M59.9,7.67c1.32-2.25,2.09-4.87,2.1-7.67-2.81,0-5.45.76-7.71,2.08,2.32,1.34,4.26,3.27,5.61,5.59Z"/>
        <path d="M48.67,23.25c1.35-2.32,3.29-4.25,5.62-5.59-2.27-1.32-4.91-2.07-7.72-2.08.02,2.79.78,5.42,2.1,7.67Z"/>
        <path d="M54.29,13.26c-2.33-1.34-4.27-3.27-5.62-5.59-1.32,2.25-2.09,4.88-2.1,7.67,2.81,0,5.45-.76,7.72-2.08Z"/>
      </g>
      <g>
        <path d="M75.22,85.62c1.32-2.25,2.09-4.88,2.1-7.67-2.82,0-5.45.76-7.72,2.08,2.32,1.34,4.26,3.27,5.62,5.59Z"/>
        <path d="M77.32,77.71c-.02-2.79-.78-5.42-2.1-7.67-1.35,2.32-3.29,4.25-5.62,5.59,2.27,1.32,4.9,2.07,7.72,2.08Z"/>
        <path d="M69.6,91.21c-2.32-1.34-4.26-3.27-5.62-5.59-1.32,2.25-2.09,4.88-2.1,7.67,2.82,0,5.45-.76,7.72-2.08Z"/>
        <path d="M63.99,70.04c1.35-2.32,3.29-4.25,5.62-5.59-2.27-1.32-4.9-2.07-7.72-2.08.02,2.79.78,5.41,2.1,7.67Z"/>
        <path d="M61.85,93.29c-.02-2.79-.78-5.42-2.1-7.67-1.35,2.32-3.29,4.25-5.61,5.59,2.26,1.32,4.9,2.07,7.71,2.08Z"/>
        <path d="M59.75,70.04c1.32-2.25,2.09-4.87,2.1-7.67-2.81,0-5.45.76-7.71,2.08,2.32,1.34,4.26,3.27,5.61,5.59Z"/>
        <path d="M48.52,85.62c1.35-2.32,3.29-4.25,5.62-5.59-2.27-1.32-4.91-2.07-7.72-2.08.02,2.79.78,5.42,2.1,7.67Z"/>
        <path d="M54.13,75.63c-2.33-1.34-4.27-3.27-5.62-5.59-1.32,2.25-2.09,4.88-2.1,7.67,2.81,0,5.45-.76,7.72-2.08Z"/>
      </g>
      <g>
        <path d="M59.92,101.07c1.32-2.25,2.09-4.88,2.1-7.67-2.82,0-5.45.76-7.72,2.08,2.32,1.34,4.26,3.27,5.62,5.59Z"/>
        <path d="M62.02,93.17c-.02-2.79-.78-5.42-2.1-7.67-1.35,2.32-3.29,4.25-5.62,5.59,2.27,1.32,4.9,2.07,7.72,2.08Z"/>
        <path d="M54.3,106.67c-2.32-1.34-4.26-3.27-5.62-5.59-1.32,2.25-2.09,4.88-2.1,7.67,2.82,0,5.45-.76,7.72-2.08Z"/>
        <path d="M48.69,85.49c1.35-2.32,3.29-4.25,5.62-5.59-2.27-1.32-4.9-2.07-7.72-2.08.02,2.79.78,5.41,2.1,7.67Z"/>
        <path d="M46.55,108.75c-.02-2.79-.78-5.42-2.1-7.67-1.35,2.32-3.29,4.25-5.61,5.59,2.26,1.32,4.9,2.07,7.71,2.08Z"/>
        <path d="M44.44,85.49c1.32-2.25,2.09-4.87,2.1-7.67-2.81,0-5.45.76-7.71,2.08,2.32,1.34,4.26,3.27,5.61,5.59Z"/>
        <path d="M33.22,101.07c1.35-2.32,3.29-4.25,5.62-5.59-2.27-1.32-4.91-2.07-7.72-2.08.02,2.79.78,5.42,2.1,7.67Z"/>
        <path d="M38.83,91.09c-2.33-1.34-4.27-3.27-5.62-5.59-1.32,2.25-2.09,4.88-2.1,7.67,2.81,0,5.45-.76,7.72-2.08Z"/>
      </g>
      <g>
        <path d="M28.8,101.07c1.32-2.25,2.09-4.88,2.1-7.67-2.82,0-5.45.76-7.72,2.08,2.32,1.34,4.26,3.27,5.62,5.59Z"/>
        <path d="M30.91,93.17c-.02-2.79-.78-5.42-2.1-7.67-1.35,2.32-3.29,4.25-5.62,5.59,2.27,1.32,4.9,2.07,7.72,2.08Z"/>
        <path d="M38.59,106.67c-2.32-1.34-4.26-3.27-5.62-5.59-1.32,2.25-2.09,4.88-2.1,7.67,2.82,0,5.45-.76,7.72-2.08Z"/>
        <path d="M32.97,85.49c1.35-2.32,3.29-4.25,5.62-5.59-2.27-1.32-4.9-2.07-7.72-2.08.02,2.79.78,5.41,2.1,7.67Z"/>
        <path d="M30.83,108.75c-.02-2.79-.78-5.42-2.1-7.67-1.35,2.32-3.29,4.25-5.61,5.59,2.26,1.32,4.9,2.07,7.71,2.08Z"/>
        <path d="M28.73,85.49c1.32-2.25,2.09-4.87,2.1-7.67-2.81,0-5.45.76-7.71,2.08,2.32,1.34,4.26,3.27,5.61,5.59Z"/>
        <path d="M17.5,101.07c1.35-2.32,3.29-4.25,5.62-5.59-2.27-1.32-4.91-2.07-7.72-2.08.02,2.79.78,5.42,2.1,7.67Z"/>
        <path d="M23.12,91.09c-2.33-1.34-4.27-3.27-5.62-5.59-1.32,2.25-2.09,4.88-2.1,7.67,2.81,0,5.45-.76,7.72-2.08Z"/>
      </g>
      <g>
        <path d="M28.8,54.44c1.32-2.25,2.09-4.88,2.1-7.67-2.82,0-5.45.76-7.72,2.08,2.32,1.34,4.26,3.27,5.62,5.59Z"/>
        <path d="M30.91,46.54c-.02-2.79-.78-5.42-2.1-7.67-1.35,2.32-3.29,4.25-5.62,5.59,2.27,1.32,4.9,2.07,7.72,2.08Z"/>
        <path d="M23.19,60.04c-2.32-1.34-4.26-3.27-5.62-5.59-1.32,2.25-2.09,4.88-2.1,7.67,2.82,0,5.45-.76,7.72-2.08Z"/>
        <path d="M17.57,38.86c1.35-2.32,3.29-4.25,5.62-5.59-2.27-1.32-4.9-2.07-7.72-2.08.02,2.79.78,5.41,2.1,7.67Z"/>
        <path d="M15.43,62.12c-.02-2.79-.78-5.42-2.1-7.67-1.35,2.32-3.29,4.25-5.61,5.59,2.26,1.32,4.9,2.07,7.71,2.08Z"/>
        <path d="M13.33,38.86c1.32-2.25,2.09-4.87,2.1-7.67-2.81,0-5.45.76-7.71,2.08,2.32,1.34,4.26,3.27,5.61,5.59Z"/>
        <path d="M2.1,54.44c1.35-2.32,3.29-4.25,5.62-5.59-2.27-1.32-4.91-2.07-7.72-2.08.02,2.79.78,5.42,2.1,7.67Z"/>
        <path d="M7.72,44.46c-2.33-1.34-4.27-3.27-5.62-5.59C.78,41.12.02,43.74,0,46.54c2.81,0,5.45-.76,7.72-2.08Z"/>
        <path d="M28.8,38.82c1.32-2.25,2.09-4.88,2.1-7.67-2.82,0-5.45.76-7.72,2.08,2.32,1.34,4.26,3.27,5.62,5.59Z"/>
        <path d="M30.91,30.92c-.02-2.79-.78-5.42-2.1-7.67-1.35,2.32-3.29,4.25-5.62,5.59,2.27,1.32,4.9,2.07,7.72,2.08Z"/>
        <path d="M2.1,38.82c1.35-2.32,3.29-4.25,5.62-5.59C5.45,31.91,2.81,31.16,0,31.15c.02,2.79.78,5.42,2.1,7.67Z"/>
        <path d="M7.72,28.84c-2.33-1.34-4.27-3.27-5.62-5.59C.78,25.5.02,28.12,0,30.92c2.81,0,5.45-.76,7.72-2.08Z"/>
      </g>
      <g>
        <path d="M44.41,54.44c1.32-2.25,2.09-4.88,2.1-7.67-2.82,0-5.45.76-7.72,2.08,2.32,1.34,4.26,3.27,5.62,5.59Z"/>
        <path d="M46.51,46.54c-.02-2.79-.78-5.42-2.1-7.67-1.35,2.32-3.29,4.25-5.62,5.59,2.27,1.32,4.9,2.07,7.72,2.08Z"/>
        <path d="M38.79,60.04c-2.32-1.34-4.26-3.27-5.62-5.59-1.32,2.25-2.09,4.88-2.1,7.67,2.82,0,5.45-.76,7.72-2.08Z"/>
        <path d="M33.18,38.86c1.35-2.32,3.29-4.25,5.62-5.59-2.27-1.32-4.9-2.07-7.72-2.08.02,2.79.78,5.41,2.1,7.67Z"/>
        <path d="M31.04,62.12c-.02-2.79-.78-5.42-2.1-7.67-1.35,2.32-3.29,4.25-5.61,5.59,2.26,1.32,4.9,2.07,7.71,2.08Z"/>
        <path d="M28.93,38.86c1.32-2.25,2.09-4.87,2.1-7.67-2.81,0-5.45.76-7.71,2.08,2.32,1.34,4.26,3.27,5.61,5.59Z"/>
        <path d="M33.18,54.44c1.35-2.32,3.29-4.25,5.62-5.59-2.27-1.32-4.91-2.07-7.72-2.08.02,2.79.78,5.42,2.1,7.67Z"/>
        <path d="M38.79,44.46c-2.33-1.34-4.27-3.27-5.62-5.59-1.32,2.25-2.09,4.88-2.1,7.67,2.81,0,5.45-.76,7.72-2.08Z"/>
        <path d="M44.41,38.82c1.32-2.25,2.09-4.88,2.1-7.67-2.82,0-5.45.76-7.72,2.08,2.32,1.34,4.26,3.27,5.62,5.59Z"/>
        <path d="M17.71,38.82c1.35-2.32,3.29-4.25,5.62-5.59-2.27-1.32-4.91-2.07-7.72-2.08.02,2.79.78,5.42,2.1,7.67Z"/>
        <path d="M23.32,28.84c-2.33-1.34-4.27-3.27-5.62-5.59-1.32,2.25-2.09,4.88-2.1,7.67,2.81,0,5.45-.76,7.72-2.08Z"/>
      </g>
      <g>
        <path d="M28.8,23.25c1.32-2.25,2.09-4.88,2.1-7.67-2.82,0-5.45.76-7.72,2.08,2.32,1.34,4.26,3.27,5.62,5.59Z"/>
        <path d="M30.91,15.34c-.02-2.79-.78-5.42-2.1-7.67-1.35,2.32-3.29,4.25-5.62,5.59,2.27,1.32,4.9,2.07,7.72,2.08Z"/>
        <path d="M23.19,28.84c-2.32-1.34-4.26-3.27-5.62-5.59-1.32,2.25-2.09,4.88-2.1,7.67,2.82,0,5.45-.76,7.72-2.08Z"/>
        <path d="M17.57,7.67c1.35-2.32,3.29-4.25,5.62-5.59C20.92.76,18.29,0,15.47,0c.02,2.79.78,5.41,2.1,7.67Z"/>
        <path d="M15.43,30.92c-.02-2.79-.78-5.42-2.1-7.67-1.35,2.32-3.29,4.25-5.61,5.59,2.26,1.32,4.9,2.07,7.71,2.08Z"/>
        <path d="M13.33,7.67c1.32-2.25,2.09-4.87,2.1-7.67-2.81,0-5.45.76-7.71,2.08,2.32,1.34,4.26,3.27,5.61,5.59Z"/>
        <path d="M2.1,23.25c1.35-2.32,3.29-4.25,5.62-5.59C5.45,16.33,2.81,15.58,0,15.57c.02,2.79.78,5.42,2.1,7.67Z"/>
        <path d="M7.72,13.26c-2.33-1.34-4.27-3.27-5.62-5.59C.78,9.92.02,12.54,0,15.34c2.81,0,5.45-.76,7.72-2.08Z"/>
      </g>
    </g>
  </g>
</svg>