<?xml version="1.0" encoding="UTF-8"?>
<svg id="_레이어_2" data-name="레이어 2" xmlns="http://www.w3.org/2000/svg" viewBox="0 0 108.29 124.44">
  <g id="_레이어_1-2" data-name="레이어 1">
    <g>
      <g>
        <path d="M28.8,7.67c1.32,2.25,2.09,4.88,2.1,7.67-2.82,0-5.45-.76-7.72-2.08,2.32-1.34,4.26-3.27,5.62-5.59Z"/>
        <path d="M30.91,15.58c-.02,2.79-.78,5.42-2.1,7.67-1.35-2.32-3.29-4.25-5.62-5.59,2.27-1.32,4.9-2.07,7.72-2.08Z"/>
        <path d="M23.19,2.08c-2.32,1.34-4.26,3.27-5.62,5.59-1.32-2.25-2.09-4.88-2.1-7.67,2.82,0,5.45.76,7.72,2.08Z"/>
        <path d="M17.57,23.25c1.35,2.32,3.29,4.25,5.62,5.59-2.27,1.32-4.9,2.07-7.72,2.08.02-2.79.78-5.41,2.1-7.67Z"/>
        <path d="M15.43,0c-.02,2.79-.78,5.42-2.1,7.67-1.35-2.32-3.29-4.25-5.61-5.59C9.98.76,12.62,0,15.43,0Z"/>
        <path d="M13.33,23.25c1.32,2.25,2.09,4.87,2.1,7.67-2.81,0-5.45-.76-7.71-2.08,2.32-1.34,4.26-3.27,5.61-5.59Z"/>
        <path d="M2.1,7.67c1.35,2.32,3.29,4.25,5.62,5.59-2.27,1.32-4.91,2.07-7.72,2.08.02-2.79.78-5.42,2.1-7.67Z"/>
        <path d="M7.72,17.66c-2.33,1.34-4.27,3.27-5.62,5.59C.78,21,.02,18.37,0,15.58c2.81,0,5.45.76,7.72,2.08Z"/>
        <path d="M28.8,23.29c1.32,2.25,2.09,4.88,2.1,7.67-2.82,0-5.45-.76-7.72-2.08,2.32-1.34,4.26-3.27,5.62-5.59Z"/>
        <path d="M30.91,31.2c-.02,2.79-.78,5.42-2.1,7.67-1.35-2.32-3.29-4.25-5.62-5.59,2.27-1.32,4.9-2.07,7.72-2.08Z"/>
        <path d="M2.1,23.29c1.35,2.32,3.29,4.25,5.62,5.59-2.27,1.32-4.91,2.07-7.72,2.08.02-2.79.78-5.42,2.1-7.67Z"/>
        <path d="M7.72,33.28c-2.33,1.34-4.27,3.27-5.62,5.59C.78,36.62.02,33.99,0,31.2c2.81,0,5.45.76,7.72,2.08Z"/>
      </g>
      <g>
        <path d="M28.8,38.8c1.32,2.25,2.09,4.88,2.1,7.67-2.82,0-5.45-.76-7.72-2.08,2.32-1.34,4.26-3.27,5.62-5.59Z"/>
        <path d="M30.91,46.71c-.02,2.79-.78,5.42-2.1,7.67-1.35-2.32-3.29-4.25-5.62-5.59,2.27-1.32,4.9-2.07,7.72-2.08Z"/>
        <path d="M23.19,33.21c-2.32,1.34-4.26,3.27-5.62,5.59-1.32-2.25-2.09-4.88-2.1-7.67,2.82,0,5.45.76,7.72,2.08Z"/>
        <path d="M17.57,54.38c1.35,2.32,3.29,4.25,5.62,5.59-2.27,1.32-4.9,2.07-7.72,2.08.02-2.79.78-5.41,2.1-7.67Z"/>
        <path d="M15.43,31.13c-.02,2.79-.78,5.42-2.1,7.67-1.35-2.32-3.29-4.25-5.61-5.59,2.26-1.32,4.9-2.07,7.71-2.08Z"/>
        <path d="M13.33,54.38c1.32,2.25,2.09,4.87,2.1,7.67-2.81,0-5.45-.76-7.71-2.08,2.32-1.34,4.26-3.27,5.61-5.59Z"/>
        <path d="M2.1,38.8c1.35,2.32,3.29,4.25,5.62,5.59-2.27,1.32-4.91,2.07-7.72,2.08.02-2.79.78-5.42,2.1-7.67Z"/>
        <path d="M7.72,48.79c-2.33,1.34-4.27,3.27-5.62,5.59C.78,52.13.02,49.5,0,46.71c2.81,0,5.45.76,7.72,2.08Z"/>
        <path d="M28.8,54.42c1.32,2.25,2.09,4.88,2.1,7.67-2.82,0-5.45-.76-7.72-2.08,2.32-1.34,4.26-3.27,5.62-5.59Z"/>
        <path d="M30.91,62.33c-.02,2.79-.78,5.42-2.1,7.67-1.35-2.32-3.29-4.25-5.62-5.59,2.27-1.32,4.9-2.07,7.72-2.08Z"/>
        <path d="M2.1,54.42c1.35,2.32,3.29,4.25,5.62,5.59-2.27,1.32-4.91,2.07-7.72,2.08.02-2.79.78-5.42,2.1-7.67Z"/>
        <path d="M7.72,64.41c-2.33,1.34-4.27,3.27-5.62,5.59-1.32-2.25-2.09-4.88-2.1-7.67,2.81,0,5.45.76,7.72,2.08Z"/>
      </g>
      <g>
        <path d="M28.8,70c1.32,2.25,2.09,4.88,2.1,7.67-2.82,0-5.45-.76-7.72-2.08,2.32-1.34,4.26-3.27,5.62-5.59Z"/>
        <path d="M30.91,77.91c-.02,2.79-.78,5.42-2.1,7.67-1.35-2.32-3.29-4.25-5.62-5.59,2.27-1.32,4.9-2.07,7.72-2.08Z"/>
        <path d="M23.19,64.41c-2.32,1.34-4.26,3.27-5.62,5.59-1.32-2.25-2.09-4.88-2.1-7.67,2.82,0,5.45.76,7.72,2.08Z"/>
        <path d="M17.57,85.58c1.35,2.32,3.29,4.25,5.62,5.59-2.27,1.32-4.9,2.07-7.72,2.08.02-2.79.78-5.41,2.1-7.67Z"/>
        <path d="M15.43,62.33c-.02,2.79-.78,5.42-2.1,7.67-1.35-2.32-3.29-4.25-5.61-5.59,2.26-1.32,4.9-2.07,7.71-2.08Z"/>
        <path d="M13.33,85.58c1.32,2.25,2.09,4.87,2.1,7.67-2.81,0-5.45-.76-7.71-2.08,2.32-1.34,4.26-3.27,5.61-5.59Z"/>
        <path d="M2.1,70c1.35,2.32,3.29,4.25,5.62,5.59-2.27,1.32-4.91,2.07-7.72,2.08.02-2.79.78-5.42,2.1-7.67Z"/>
        <path d="M7.72,79.98c-2.33,1.34-4.27,3.27-5.62,5.59-1.32-2.25-2.09-4.88-2.1-7.67,2.81,0,5.45.76,7.72,2.08Z"/>
        <path d="M28.8,85.62c1.32,2.25,2.09,4.88,2.1,7.67-2.82,0-5.45-.76-7.72-2.08,2.32-1.34,4.26-3.27,5.62-5.59Z"/>
        <path d="M30.91,93.53c-.02,2.79-.78,5.42-2.1,7.67-1.35-2.32-3.29-4.25-5.62-5.59,2.27-1.32,4.9-2.07,7.72-2.08Z"/>
        <path d="M2.1,85.62c1.35,2.32,3.29,4.25,5.62,5.59-2.27,1.32-4.91,2.07-7.72,2.08.02-2.79.78-5.42,2.1-7.67Z"/>
        <path d="M7.72,95.6c-2.33,1.34-4.27,3.27-5.62,5.59-1.32-2.25-2.09-4.88-2.1-7.67,2.81,0,5.45.76,7.72,2.08Z"/>
      </g>
      <g>
        <path d="M28.8,101.2c1.32,2.25,2.09,4.88,2.1,7.67-2.82,0-5.45-.76-7.72-2.08,2.32-1.34,4.26-3.27,5.62-5.59Z"/>
        <path d="M30.91,109.1c-.02,2.79-.78,5.42-2.1,7.67-1.35-2.32-3.29-4.25-5.62-5.59,2.27-1.32,4.9-2.07,7.72-2.08Z"/>
        <path d="M23.19,95.6c-2.32,1.34-4.26,3.27-5.62,5.59-1.32-2.25-2.09-4.88-2.1-7.67,2.82,0,5.45.76,7.72,2.08Z"/>
        <path d="M17.57,116.78c1.35,2.32,3.29,4.25,5.62,5.59-2.27,1.32-4.9,2.07-7.72,2.08.02-2.79.78-5.41,2.1-7.67Z"/>
        <path d="M15.43,93.53c-.02,2.79-.78,5.42-2.1,7.67-1.35-2.32-3.29-4.25-5.61-5.59,2.26-1.32,4.9-2.07,7.71-2.08Z"/>
        <path d="M13.33,116.78c1.32,2.25,2.09,4.87,2.1,7.67-2.81,0-5.45-.76-7.71-2.08,2.32-1.34,4.26-3.27,5.61-5.59Z"/>
        <path d="M2.1,101.2c1.35,2.32,3.29,4.25,5.62,5.59-2.27,1.32-4.91,2.07-7.72,2.08.02-2.79.78-5.42,2.1-7.67Z"/>
        <path d="M7.72,111.18c-2.33,1.34-4.27,3.27-5.62,5.59-1.32-2.25-2.09-4.88-2.1-7.67,2.81,0,5.45.76,7.72,2.08Z"/>
      </g>
      <g>
        <path d="M106.19,7.67c1.32,2.25,2.09,4.88,2.1,7.67-2.82,0-5.45-.76-7.72-2.08,2.32-1.34,4.26-3.27,5.62-5.59Z"/>
        <path d="M108.29,15.58c-.02,2.79-.78,5.42-2.1,7.67-1.35-2.32-3.29-4.25-5.62-5.59,2.27-1.32,4.9-2.07,7.72-2.08Z"/>
        <path d="M100.58,2.08c-2.32,1.34-4.26,3.27-5.62,5.59-1.32-2.25-2.09-4.88-2.1-7.67,2.82,0,5.45.76,7.72,2.08Z"/>
        <path d="M94.96,23.25c1.35,2.32,3.29,4.25,5.62,5.59-2.27,1.32-4.9,2.07-7.72,2.08.02-2.79.78-5.41,2.1-7.67Z"/>
        <path d="M92.82,0c-.02,2.79-.78,5.42-2.1,7.67-1.35-2.32-3.29-4.25-5.61-5.59,2.26-1.32,4.9-2.07,7.71-2.08Z"/>
        <path d="M90.72,23.25c1.32,2.25,2.09,4.87,2.1,7.67-2.81,0-5.45-.76-7.71-2.08,2.32-1.34,4.26-3.27,5.61-5.59Z"/>
        <path d="M79.49,7.67c1.35,2.32,3.29,4.25,5.62,5.59-2.27,1.32-4.91,2.07-7.72,2.08.02-2.79.78-5.42,2.1-7.67Z"/>
        <path d="M85.11,17.66c-2.33,1.34-4.27,3.27-5.62,5.59-1.32-2.25-2.09-4.88-2.1-7.67,2.81,0,5.45.76,7.72,2.08Z"/>
        <path d="M106.19,23.29c1.32,2.25,2.09,4.88,2.1,7.67-2.82,0-5.45-.76-7.72-2.08,2.32-1.34,4.26-3.27,5.62-5.59Z"/>
        <path d="M108.29,31.2c-.02,2.79-.78,5.42-2.1,7.67-1.35-2.32-3.29-4.25-5.62-5.59,2.27-1.32,4.9-2.07,7.72-2.08Z"/>
        <path d="M79.49,23.29c1.35,2.32,3.29,4.25,5.62,5.59-2.27,1.32-4.91,2.07-7.72,2.08.02-2.79.78-5.42,2.1-7.67Z"/>
        <path d="M85.11,33.28c-2.33,1.34-4.27,3.27-5.62,5.59-1.32-2.25-2.09-4.88-2.1-7.67,2.81,0,5.45.76,7.72,2.08Z"/>
      </g>
      <g>
        <path d="M106.19,38.8c1.32,2.25,2.09,4.88,2.1,7.67-2.82,0-5.45-.76-7.72-2.08,2.32-1.34,4.26-3.27,5.62-5.59Z"/>
        <path d="M108.29,46.71c-.02,2.79-.78,5.42-2.1,7.67-1.35-2.32-3.29-4.25-5.62-5.59,2.27-1.32,4.9-2.07,7.72-2.08Z"/>
        <path d="M100.58,33.21c-2.32,1.34-4.26,3.27-5.62,5.59-1.32-2.25-2.09-4.88-2.1-7.67,2.82,0,5.45.76,7.72,2.08Z"/>
        <path d="M94.96,54.38c1.35,2.32,3.29,4.25,5.62,5.59-2.27,1.32-4.9,2.07-7.72,2.08.02-2.79.78-5.41,2.1-7.67Z"/>
        <path d="M92.82,31.13c-.02,2.79-.78,5.42-2.1,7.67-1.35-2.32-3.29-4.25-5.61-5.59,2.26-1.32,4.9-2.07,7.71-2.08Z"/>
        <path d="M90.72,54.38c1.32,2.25,2.09,4.87,2.1,7.67-2.81,0-5.45-.76-7.71-2.08,2.32-1.34,4.26-3.27,5.61-5.59Z"/>
        <path d="M79.49,38.8c1.35,2.32,3.29,4.25,5.62,5.59-2.27,1.32-4.91,2.07-7.72,2.08.02-2.79.78-5.42,2.1-7.67Z"/>
        <path d="M85.11,48.79c-2.33,1.34-4.27,3.27-5.62,5.59-1.32-2.25-2.09-4.88-2.1-7.67,2.81,0,5.45.76,7.72,2.08Z"/>
        <path d="M106.19,54.42c1.32,2.25,2.09,4.88,2.1,7.67-2.82,0-5.45-.76-7.72-2.08,2.32-1.34,4.26-3.27,5.62-5.59Z"/>
        <path d="M108.29,62.33c-.02,2.79-.78,5.42-2.1,7.67-1.35-2.32-3.29-4.25-5.62-5.59,2.27-1.32,4.9-2.07,7.72-2.08Z"/>
        <path d="M79.49,54.42c1.35,2.32,3.29,4.25,5.62,5.59-2.27,1.32-4.91,2.07-7.72,2.08.02-2.79.78-5.42,2.1-7.67Z"/>
        <path d="M85.11,64.41c-2.33,1.34-4.27,3.27-5.62,5.59-1.32-2.25-2.09-4.88-2.1-7.67,2.81,0,5.45.76,7.72,2.08Z"/>
      </g>
      <g>
        <path d="M106.19,70c1.32,2.25,2.09,4.88,2.1,7.67-2.82,0-5.45-.76-7.72-2.08,2.32-1.34,4.26-3.27,5.62-5.59Z"/>
        <path d="M108.29,77.91c-.02,2.79-.78,5.42-2.1,7.67-1.35-2.32-3.29-4.25-5.62-5.59,2.27-1.32,4.9-2.07,7.72-2.08Z"/>
        <path d="M100.58,64.41c-2.32,1.34-4.26,3.27-5.62,5.59-1.32-2.25-2.09-4.88-2.1-7.67,2.82,0,5.45.76,7.72,2.08Z"/>
        <path d="M94.96,85.58c1.35,2.32,3.29,4.25,5.62,5.59-2.27,1.32-4.9,2.07-7.72,2.08.02-2.79.78-5.41,2.1-7.67Z"/>
        <path d="M92.82,62.33c-.02,2.79-.78,5.42-2.1,7.67-1.35-2.32-3.29-4.25-5.61-5.59,2.26-1.32,4.9-2.07,7.71-2.08Z"/>
        <path d="M90.72,85.58c1.32,2.25,2.09,4.87,2.1,7.67-2.81,0-5.45-.76-7.71-2.08,2.32-1.34,4.26-3.27,5.61-5.59Z"/>
        <path d="M79.49,70c1.35,2.32,3.29,4.25,5.62,5.59-2.27,1.32-4.91,2.07-7.72,2.08.02-2.79.78-5.42,2.1-7.67Z"/>
        <path d="M85.11,79.98c-2.33,1.34-4.27,3.27-5.62,5.59-1.32-2.25-2.09-4.88-2.1-7.67,2.81,0,5.45.76,7.72,2.08Z"/>
        <path d="M106.19,85.62c1.32,2.25,2.09,4.88,2.1,7.67-2.82,0-5.45-.76-7.72-2.08,2.32-1.34,4.26-3.27,5.62-5.59Z"/>
        <path d="M108.29,93.53c-.02,2.79-.78,5.42-2.1,7.67-1.35-2.32-3.29-4.25-5.62-5.59,2.27-1.32,4.9-2.07,7.72-2.08Z"/>
        <path d="M79.49,85.62c1.35,2.32,3.29,4.25,5.62,5.59-2.27,1.32-4.91,2.07-7.72,2.08.02-2.79.78-5.42,2.1-7.67Z"/>
        <path d="M85.11,95.6c-2.33,1.34-4.27,3.27-5.62,5.59-1.32-2.25-2.09-4.88-2.1-7.67,2.81,0,5.45.76,7.72,2.08Z"/>
      </g>
      <g>
        <path d="M106.19,101.2c1.32,2.25,2.09,4.88,2.1,7.67-2.82,0-5.45-.76-7.72-2.08,2.32-1.34,4.26-3.27,5.62-5.59Z"/>
        <path d="M108.29,109.1c-.02,2.79-.78,5.42-2.1,7.67-1.35-2.32-3.29-4.25-5.62-5.59,2.27-1.32,4.9-2.07,7.72-2.08Z"/>
        <path d="M100.58,95.6c-2.32,1.34-4.26,3.27-5.62,5.59-1.32-2.25-2.09-4.88-2.1-7.67,2.82,0,5.45.76,7.72,2.08Z"/>
        <path d="M94.96,116.78c1.35,2.32,3.29,4.25,5.62,5.59-2.27,1.32-4.9,2.07-7.72,2.08.02-2.79.78-5.41,2.1-7.67Z"/>
        <path d="M92.82,93.53c-.02,2.79-.78,5.42-2.1,7.67-1.35-2.32-3.29-4.25-5.61-5.59,2.26-1.32,4.9-2.07,7.71-2.08Z"/>
        <path d="M90.72,116.78c1.32,2.25,2.09,4.87,2.1,7.67-2.81,0-5.45-.76-7.71-2.08,2.32-1.34,4.26-3.27,5.61-5.59Z"/>
        <path d="M79.49,101.2c1.35,2.32,3.29,4.25,5.62,5.59-2.27,1.32-4.91,2.07-7.72,2.08.02-2.79.78-5.42,2.1-7.67Z"/>
        <path d="M85.11,111.18c-2.33,1.34-4.27,3.27-5.62,5.59-1.32-2.25-2.09-4.88-2.1-7.67,2.81,0,5.45.76,7.72,2.08Z"/>
      </g>
      <g>
        <path d="M54.18,48.77c-2.32,1.34-4.26,3.27-5.62,5.59-1.32-2.25-2.09-4.88-2.1-7.67,2.82,0,5.45.76,7.72,2.08Z"/>
        <path d="M48.56,69.94c1.35,2.32,3.29,4.25,5.62,5.59-2.27,1.32-4.9,2.07-7.72,2.08.02-2.79.78-5.41,2.1-7.67Z"/>
        <path d="M46.42,46.69c-.02,2.79-.78,5.42-2.1,7.67-1.35-2.32-3.29-4.25-5.61-5.59,2.26-1.32,4.9-2.07,7.71-2.08Z"/>
        <path d="M44.32,69.94c1.32,2.25,2.09,4.87,2.1,7.67-2.81,0-5.45-.76-7.71-2.08,2.32-1.34,4.26-3.27,5.61-5.59Z"/>
        <path d="M33.09,54.37c1.35,2.32,3.29,4.25,5.62,5.59-2.27,1.32-4.91,2.07-7.72,2.08.02-2.79.78-5.42,2.1-7.67Z"/>
        <path d="M38.71,64.35c-2.33,1.34-4.27,3.27-5.62,5.59-1.32-2.25-2.09-4.88-2.1-7.67,2.81,0,5.45.76,7.72,2.08Z"/>
      </g>
      <g>
        <path d="M75.26,54.37c1.32,2.25,2.09,4.88,2.1,7.67-2.82,0-5.45-.76-7.72-2.08,2.32-1.34,4.26-3.27,5.62-5.59Z"/>
        <path d="M77.37,62.27c-.02,2.79-.78,5.42-2.1,7.67-1.35-2.32-3.29-4.25-5.62-5.59,2.27-1.32,4.9-2.07,7.72-2.08Z"/>
        <path d="M69.65,48.77c-2.32,1.34-4.26,3.27-5.62,5.59-1.32-2.25-2.09-4.88-2.1-7.67,2.82,0,5.45.76,7.72,2.08Z"/>
        <path d="M64.03,69.94c1.35,2.32,3.29,4.25,5.62,5.59-2.27,1.32-4.9,2.07-7.72,2.08.02-2.79.78-5.41,2.1-7.67Z"/>
        <path d="M61.89,46.69c-.02,2.79-.78,5.42-2.1,7.67-1.35-2.32-3.29-4.25-5.61-5.59,2.26-1.32,4.9-2.07,7.71-2.08Z"/>
        <path d="M59.79,69.94c1.32,2.25,2.09,4.87,2.1,7.67-2.81,0-5.45-.76-7.71-2.08,2.32-1.34,4.26-3.27,5.61-5.59Z"/>
      </g>
    </g>
  </g>
</svg>