<?xml version="1.0" encoding="UTF-8"?>
<svg id="_레이어_2" data-name="레이어 2" xmlns="http://www.w3.org/2000/svg" viewBox="0 0 123.73 124.48">
  <g id="_레이어_1-2" data-name="레이어 1">
    <g>
      <g>
        <path d="M28.8,7.71c1.32,2.25,2.09,4.88,2.1,7.67-2.82,0-5.45-.76-7.72-2.08,2.32-1.34,4.26-3.27,5.62-5.59Z"/>
        <path d="M30.91,15.61c-.02,2.79-.78,5.42-2.1,7.67-1.35-2.32-3.29-4.25-5.62-5.59,2.27-1.32,4.9-2.07,7.72-2.08Z"/>
        <path d="M23.19,2.11c-2.32,1.34-4.26,3.27-5.62,5.59-1.32-2.25-2.09-4.88-2.1-7.67,2.82,0,5.45.76,7.72,2.08Z"/>
        <path d="M17.57,23.29c1.35,2.32,3.29,4.25,5.62,5.59-2.27,1.32-4.9,2.07-7.72,2.08.02-2.79.78-5.41,2.1-7.67Z"/>
        <path d="M15.43.04c-.02,2.79-.78,5.42-2.1,7.67-1.35-2.32-3.29-4.25-5.61-5.59C9.98.79,12.62.04,15.43.04Z"/>
        <path d="M13.33,23.29c1.32,2.25,2.09,4.87,2.1,7.67-2.81,0-5.45-.76-7.71-2.08,2.32-1.34,4.26-3.27,5.61-5.59Z"/>
        <path d="M2.1,7.71c1.35,2.32,3.29,4.25,5.62,5.59-2.27,1.32-4.91,2.07-7.72,2.08.02-2.79.78-5.42,2.1-7.67Z"/>
        <path d="M7.72,17.69c-2.33,1.34-4.27,3.27-5.62,5.59C.78,21.03.02,18.41,0,15.61c2.81,0,5.45.76,7.72,2.08Z"/>
        <path d="M28.8,23.33c1.32,2.25,2.09,4.88,2.1,7.67-2.82,0-5.45-.76-7.72-2.08,2.32-1.34,4.26-3.27,5.62-5.59Z"/>
        <path d="M30.91,31.23c-.02,2.79-.78,5.42-2.1,7.67-1.35-2.32-3.29-4.25-5.62-5.59,2.27-1.32,4.9-2.07,7.72-2.08Z"/>
        <path d="M2.1,23.33c1.35,2.32,3.29,4.25,5.62,5.59-2.27,1.32-4.91,2.07-7.72,2.08.02-2.79.78-5.42,2.1-7.67Z"/>
        <path d="M7.72,33.31c-2.33,1.34-4.27,3.27-5.62,5.59C.78,36.65.02,34.03,0,31.23c2.81,0,5.45.76,7.72,2.08Z"/>
      </g>
      <g>
        <path d="M54.39,28.8c-2.25,1.32-4.88,2.09-7.67,2.1,0-2.82.76-5.45,2.08-7.72,1.34,2.32,3.27,4.26,5.59,5.62Z"/>
        <path d="M46.48,30.91c-2.79-.02-5.42-.78-7.67-2.1,2.32-1.35,4.25-3.29,5.59-5.62,1.32,2.27,2.07,4.9,2.08,7.72Z"/>
        <path d="M59.98,23.19c-1.34-2.32-3.27-4.26-5.59-5.62,2.25-1.32,4.88-2.09,7.67-2.1,0,2.82-.76,5.45-2.08,7.72Z"/>
        <path d="M38.81,17.57c-2.32,1.35-4.25,3.29-5.59,5.62-1.32-2.27-2.07-4.9-2.08-7.72,2.79.02,5.41.78,7.67,2.1Z"/>
        <path d="M62.06,15.43c-2.79-.02-5.42-.78-7.67-2.1,2.32-1.35,4.25-3.29,5.59-5.61,1.32,2.26,2.07,4.9,2.08,7.71Z"/>
        <path d="M38.81,13.33c-2.25,1.32-4.87,2.09-7.67,2.1,0-2.81.76-5.45,2.08-7.71,1.34,2.32,3.27,4.26,5.59,5.61Z"/>
        <path d="M54.39,2.1c-2.32,1.35-4.25,3.29-5.59,5.62C47.47,5.45,46.72,2.81,46.71,0c2.79.02,5.42.78,7.67,2.1Z"/>
        <path d="M44.4,7.72c-1.34-2.33-3.27-4.27-5.59-5.62C41.06.78,43.69.02,46.48,0c0,2.81-.76,5.45-2.08,7.72Z"/>
        <path d="M38.77,28.8c-2.25,1.32-4.88,2.09-7.67,2.1,0-2.82.76-5.45,2.08-7.72,1.34,2.32,3.27,4.26,5.59,5.62Z"/>
        <path d="M30.86,30.91c-2.79-.02-5.42-.78-7.67-2.1,2.32-1.35,4.25-3.29,5.59-5.62,1.32,2.27,2.07,4.9,2.08,7.72Z"/>
        <path d="M38.77,2.1c-2.32,1.35-4.25,3.29-5.59,5.62C31.85,5.45,31.1,2.81,31.09,0c2.79.02,5.42.78,7.67,2.1Z"/>
        <path d="M28.78,7.72c-1.34-2.33-3.27-4.27-5.59-5.62C25.44.78,28.07.02,30.86,0c0,2.81-.76,5.45-2.08,7.72Z"/>
      </g>
      <g>
        <path d="M69.47,2.1c2.25-1.32,4.88-2.09,7.67-2.1,0,2.82-.76,5.45-2.08,7.72-1.34-2.32-3.27-4.26-5.59-5.62Z"/>
        <path d="M77.38,0c2.79.02,5.42.78,7.67,2.1-2.32,1.35-4.25,3.29-5.59,5.62C78.14,5.45,77.38,2.82,77.38,0Z"/>
        <path d="M63.88,7.72c1.34,2.32,3.27,4.26,5.59,5.62-2.25,1.32-4.88,2.09-7.67,2.1,0-2.82.76-5.45,2.08-7.72Z"/>
        <path d="M85.05,13.33c2.32-1.35,4.25-3.29,5.59-5.62,1.32,2.27,2.07,4.9,2.08,7.72-2.79-.02-5.41-.78-7.67-2.1Z"/>
        <path d="M61.8,15.47c2.79.02,5.42.78,7.67,2.1-2.32,1.35-4.25,3.29-5.59,5.61-1.32-2.26-2.07-4.9-2.08-7.71Z"/>
        <path d="M85.05,17.58c2.25-1.32,4.87-2.09,7.67-2.1,0,2.81-.76,5.45-2.08,7.71-1.34-2.32-3.27-4.26-5.59-5.61Z"/>
        <path d="M69.47,28.8c2.32-1.35,4.25-3.29,5.59-5.62,1.32,2.27,2.07,4.91,2.08,7.72-2.79-.02-5.42-.78-7.67-2.1Z"/>
        <path d="M79.46,23.19c1.34,2.33,3.27,4.27,5.59,5.62-2.25,1.32-4.88,2.09-7.67,2.1,0-2.81.76-5.45,2.08-7.72Z"/>
        <path d="M85.09,2.1C87.35.78,89.97.02,92.76,0c0,2.82-.76,5.45-2.08,7.72-1.34-2.32-3.27-4.26-5.59-5.62Z"/>
        <path d="M93,0c2.79.02,5.42.78,7.67,2.1-2.32,1.35-4.25,3.29-5.59,5.62C93.76,5.45,93,2.82,93,0Z"/>
        <path d="M85.09,28.8c2.32-1.35,4.25-3.29,5.59-5.62,1.32,2.27,2.07,4.91,2.08,7.72-2.79-.02-5.42-.78-7.67-2.1Z"/>
        <path d="M95.08,23.19c1.34,2.33,3.27,4.27,5.59,5.62-2.25,1.32-4.88,2.09-7.67,2.1,0-2.81.76-5.45,2.08-7.72Z"/>
      </g>
      <g>
        <path d="M28.8,38.84c1.32,2.25,2.09,4.88,2.1,7.67-2.82,0-5.45-.76-7.72-2.08,2.32-1.34,4.26-3.27,5.62-5.59Z"/>
        <path d="M30.91,46.74c-.02,2.79-.78,5.42-2.1,7.67-1.35-2.32-3.29-4.25-5.62-5.59,2.27-1.32,4.9-2.07,7.72-2.08Z"/>
        <path d="M23.19,33.24c-2.32,1.34-4.26,3.27-5.62,5.59-1.32-2.25-2.09-4.88-2.1-7.67,2.82,0,5.45.76,7.72,2.08Z"/>
        <path d="M17.57,54.42c1.35,2.32,3.29,4.25,5.62,5.59-2.27,1.32-4.9,2.07-7.72,2.08.02-2.79.78-5.41,2.1-7.67Z"/>
        <path d="M15.43,31.17c-.02,2.79-.78,5.42-2.1,7.67-1.35-2.32-3.29-4.25-5.61-5.59,2.26-1.32,4.9-2.07,7.71-2.08Z"/>
        <path d="M13.33,54.42c1.32,2.25,2.09,4.87,2.1,7.67-2.81,0-5.45-.76-7.71-2.08,2.32-1.34,4.26-3.27,5.61-5.59Z"/>
        <path d="M2.1,38.84c1.35,2.32,3.29,4.25,5.62,5.59-2.27,1.32-4.91,2.07-7.72,2.08.02-2.79.78-5.42,2.1-7.67Z"/>
        <path d="M7.72,48.82c-2.33,1.34-4.27,3.27-5.62,5.59C.78,52.16.02,49.54,0,46.74c2.81,0,5.45.76,7.72,2.08Z"/>
        <path d="M28.8,54.46c1.32,2.25,2.09,4.88,2.1,7.67-2.82,0-5.45-.76-7.72-2.08,2.32-1.34,4.26-3.27,5.62-5.59Z"/>
        <path d="M30.91,62.36c-.02,2.79-.78,5.42-2.1,7.67-1.35-2.32-3.29-4.25-5.62-5.59,2.27-1.32,4.9-2.07,7.72-2.08Z"/>
        <path d="M2.1,54.46c1.35,2.32,3.29,4.25,5.62,5.59-2.27,1.32-4.91,2.07-7.72,2.08.02-2.79.78-5.42,2.1-7.67Z"/>
        <path d="M7.72,64.44c-2.33,1.34-4.27,3.27-5.62,5.59-1.32-2.25-2.09-4.88-2.1-7.67,2.81,0,5.45.76,7.72,2.08Z"/>
      </g>
      <g>
        <path d="M75.17,23.31c1.32,2.25,2.09,4.88,2.1,7.67-2.82,0-5.45-.76-7.72-2.08,2.32-1.34,4.26-3.27,5.62-5.59Z"/>
        <path d="M77.28,31.21c-.02,2.79-.78,5.42-2.1,7.67-1.35-2.32-3.29-4.25-5.62-5.59,2.27-1.32,4.9-2.07,7.72-2.08Z"/>
        <path d="M69.56,17.71c-2.32,1.34-4.26,3.27-5.62,5.59-1.32-2.25-2.09-4.88-2.1-7.67,2.82,0,5.45.76,7.72,2.08Z"/>
        <path d="M63.94,38.89c1.35,2.32,3.29,4.25,5.62,5.59-2.27,1.32-4.9,2.07-7.72,2.08.02-2.79.78-5.41,2.1-7.67Z"/>
        <path d="M61.8,15.63c-.02,2.79-.78,5.42-2.1,7.67-1.35-2.32-3.29-4.25-5.61-5.59,2.26-1.32,4.9-2.07,7.71-2.08Z"/>
        <path d="M59.7,38.89c1.32,2.25,2.09,4.87,2.1,7.67-2.81,0-5.45-.76-7.71-2.08,2.32-1.34,4.26-3.27,5.61-5.59Z"/>
        <path d="M63.94,54.56c1.35,2.32,3.29,4.25,5.62,5.59-2.27,1.32-4.9,2.07-7.72,2.08.02-2.79.78-5.41,2.1-7.67Z"/>
        <path d="M59.7,54.56c1.32,2.25,2.09,4.87,2.1,7.67-2.81,0-5.45-.76-7.71-2.08,2.32-1.34,4.26-3.27,5.61-5.59Z"/>
        <path d="M48.47,23.31c1.35,2.32,3.29,4.25,5.62,5.59-2.27,1.32-4.91,2.07-7.72,2.08.02-2.79.78-5.42,2.1-7.67Z"/>
        <path d="M54.09,33.29c-2.33,1.34-4.27,3.27-5.62,5.59-1.32-2.25-2.09-4.88-2.1-7.67,2.81,0,5.45.76,7.72,2.08Z"/>
        <path d="M75.17,38.93c1.32,2.25,2.09,4.88,2.1,7.67-2.82,0-5.45-.76-7.72-2.08,2.32-1.34,4.26-3.27,5.62-5.59Z"/>
        <path d="M77.28,46.83c-.02,2.79-.78,5.42-2.1,7.67-1.35-2.32-3.29-4.25-5.62-5.59,2.27-1.32,4.9-2.07,7.72-2.08Z"/>
        <path d="M48.47,38.93c1.35,2.32,3.29,4.25,5.62,5.59-2.27,1.32-4.91,2.07-7.72,2.08.02-2.79.78-5.42,2.1-7.67Z"/>
        <path d="M54.09,48.91c-2.33,1.34-4.27,3.27-5.62,5.59-1.32-2.25-2.09-4.88-2.1-7.67,2.81,0,5.45.76,7.72,2.08Z"/>
      </g>
      <g>
        <path d="M28.8,70.04c1.32,2.25,2.09,4.88,2.1,7.67-2.82,0-5.45-.76-7.72-2.08,2.32-1.34,4.26-3.27,5.62-5.59Z"/>
        <path d="M30.91,77.94c-.02,2.79-.78,5.42-2.1,7.67-1.35-2.32-3.29-4.25-5.62-5.59,2.27-1.32,4.9-2.07,7.72-2.08Z"/>
        <path d="M23.19,64.44c-2.32,1.34-4.26,3.27-5.62,5.59-1.32-2.25-2.09-4.88-2.1-7.67,2.82,0,5.45.76,7.72,2.08Z"/>
        <path d="M17.57,85.62c1.35,2.32,3.29,4.25,5.62,5.59-2.27,1.32-4.9,2.07-7.72,2.08.02-2.79.78-5.41,2.1-7.67Z"/>
        <path d="M15.43,62.36c-.02,2.79-.78,5.42-2.1,7.67-1.35-2.32-3.29-4.25-5.61-5.59,2.26-1.32,4.9-2.07,7.71-2.08Z"/>
        <path d="M13.33,85.62c1.32,2.25,2.09,4.87,2.1,7.67-2.81,0-5.45-.76-7.71-2.08,2.32-1.34,4.26-3.27,5.61-5.59Z"/>
        <path d="M2.1,70.04c1.35,2.32,3.29,4.25,5.62,5.59-2.27,1.32-4.91,2.07-7.72,2.08.02-2.79.78-5.42,2.1-7.67Z"/>
        <path d="M7.72,80.02c-2.33,1.34-4.27,3.27-5.62,5.59-1.32-2.25-2.09-4.88-2.1-7.67,2.81,0,5.45.76,7.72,2.08Z"/>
        <path d="M28.8,85.66c1.32,2.25,2.09,4.88,2.1,7.67-2.82,0-5.45-.76-7.72-2.08,2.32-1.34,4.26-3.27,5.62-5.59Z"/>
        <path d="M30.91,93.56c-.02,2.79-.78,5.42-2.1,7.67-1.35-2.32-3.29-4.25-5.62-5.59,2.27-1.32,4.9-2.07,7.72-2.08Z"/>
        <path d="M2.1,85.66c1.35,2.32,3.29,4.25,5.62,5.59-2.27,1.32-4.91,2.07-7.72,2.08.02-2.79.78-5.42,2.1-7.67Z"/>
        <path d="M7.72,95.64c-2.33,1.34-4.27,3.27-5.62,5.59-1.32-2.25-2.09-4.88-2.1-7.67,2.81,0,5.45.76,7.72,2.08Z"/>
      </g>
      <g>
        <path d="M28.8,101.23c1.32,2.25,2.09,4.88,2.1,7.67-2.82,0-5.45-.76-7.72-2.08,2.32-1.34,4.26-3.27,5.62-5.59Z"/>
        <path d="M30.91,109.14c-.02,2.79-.78,5.42-2.1,7.67-1.35-2.32-3.29-4.25-5.62-5.59,2.27-1.32,4.9-2.07,7.72-2.08Z"/>
        <path d="M23.19,95.64c-2.32,1.34-4.26,3.27-5.62,5.59-1.32-2.25-2.09-4.88-2.1-7.67,2.82,0,5.45.76,7.72,2.08Z"/>
        <path d="M17.57,116.81c1.35,2.32,3.29,4.25,5.62,5.59-2.27,1.32-4.9,2.07-7.72,2.08.02-2.79.78-5.41,2.1-7.67Z"/>
        <path d="M15.43,93.56c-.02,2.79-.78,5.42-2.1,7.67-1.35-2.32-3.29-4.25-5.61-5.59,2.26-1.32,4.9-2.07,7.71-2.08Z"/>
        <path d="M13.33,116.81c1.32,2.25,2.09,4.87,2.1,7.67-2.81,0-5.45-.76-7.71-2.08,2.32-1.34,4.26-3.27,5.61-5.59Z"/>
        <path d="M2.1,101.23c1.35,2.32,3.29,4.25,5.62,5.59-2.27,1.32-4.91,2.07-7.72,2.08.02-2.79.78-5.42,2.1-7.67Z"/>
        <path d="M7.72,111.22c-2.33,1.34-4.27,3.27-5.62,5.59-1.32-2.25-2.09-4.88-2.1-7.67,2.81,0,5.45.76,7.72,2.08Z"/>
      </g>
      <g>
        <path d="M121.62,7.71c1.32,2.25,2.09,4.88,2.1,7.67-2.82,0-5.45-.76-7.72-2.08,2.32-1.34,4.26-3.27,5.62-5.59Z"/>
        <path d="M123.73,15.61c-.02,2.79-.78,5.42-2.1,7.67-1.35-2.32-3.29-4.25-5.62-5.59,2.27-1.32,4.9-2.07,7.72-2.08Z"/>
        <path d="M116.01,2.11c-2.32,1.34-4.26,3.27-5.62,5.59-1.32-2.25-2.09-4.88-2.1-7.67,2.82,0,5.45.76,7.72,2.08Z"/>
        <path d="M110.39,23.29c1.35,2.32,3.29,4.25,5.62,5.59-2.27,1.32-4.9,2.07-7.72,2.08.02-2.79.78-5.41,2.1-7.67Z"/>
        <path d="M108.25.04c-.02,2.79-.78,5.42-2.1,7.67-1.35-2.32-3.29-4.25-5.61-5.59,2.26-1.32,4.9-2.07,7.71-2.08Z"/>
        <path d="M106.15,23.29c1.32,2.25,2.09,4.87,2.1,7.67-2.81,0-5.45-.76-7.71-2.08,2.32-1.34,4.26-3.27,5.61-5.59Z"/>
        <path d="M94.92,7.71c1.35,2.32,3.29,4.25,5.62,5.59-2.27,1.32-4.91,2.07-7.72,2.08.02-2.79.78-5.42,2.1-7.67Z"/>
        <path d="M100.54,17.69c-2.33,1.34-4.27,3.27-5.62,5.59-1.32-2.25-2.09-4.88-2.1-7.67,2.81,0,5.45.76,7.72,2.08Z"/>
        <path d="M121.62,23.33c1.32,2.25,2.09,4.88,2.1,7.67-2.82,0-5.45-.76-7.72-2.08,2.32-1.34,4.26-3.27,5.62-5.59Z"/>
        <path d="M123.73,31.23c-.02,2.79-.78,5.42-2.1,7.67-1.35-2.32-3.29-4.25-5.62-5.59,2.27-1.32,4.9-2.07,7.72-2.08Z"/>
        <path d="M94.92,23.33c1.35,2.32,3.29,4.25,5.62,5.59-2.27,1.32-4.91,2.07-7.72,2.08.02-2.79.78-5.42,2.1-7.67Z"/>
        <path d="M100.54,33.31c-2.33,1.34-4.27,3.27-5.62,5.59-1.32-2.25-2.09-4.88-2.1-7.67,2.81,0,5.45.76,7.72,2.08Z"/>
      </g>
      <g>
        <path d="M121.62,38.84c1.32,2.25,2.09,4.88,2.1,7.67-2.82,0-5.45-.76-7.72-2.08,2.32-1.34,4.26-3.27,5.62-5.59Z"/>
        <path d="M123.73,46.74c-.02,2.79-.78,5.42-2.1,7.67-1.35-2.32-3.29-4.25-5.62-5.59,2.27-1.32,4.9-2.07,7.72-2.08Z"/>
        <path d="M116.01,33.24c-2.32,1.34-4.26,3.27-5.62,5.59-1.32-2.25-2.09-4.88-2.1-7.67,2.82,0,5.45.76,7.72,2.08Z"/>
        <path d="M110.39,54.42c1.35,2.32,3.29,4.25,5.62,5.59-2.27,1.32-4.9,2.07-7.72,2.08.02-2.79.78-5.41,2.1-7.67Z"/>
        <path d="M108.25,31.17c-.02,2.79-.78,5.42-2.1,7.67-1.35-2.32-3.29-4.25-5.61-5.59,2.26-1.32,4.9-2.07,7.71-2.08Z"/>
        <path d="M106.15,54.42c1.32,2.25,2.09,4.87,2.1,7.67-2.81,0-5.45-.76-7.71-2.08,2.32-1.34,4.26-3.27,5.61-5.59Z"/>
        <path d="M94.92,38.84c1.35,2.32,3.29,4.25,5.62,5.59-2.27,1.32-4.91,2.07-7.72,2.08.02-2.79.78-5.42,2.1-7.67Z"/>
        <path d="M100.54,48.82c-2.33,1.34-4.27,3.27-5.62,5.59-1.32-2.25-2.09-4.88-2.1-7.67,2.81,0,5.45.76,7.72,2.08Z"/>
        <path d="M121.62,54.46c1.32,2.25,2.09,4.88,2.1,7.67-2.82,0-5.45-.76-7.72-2.08,2.32-1.34,4.26-3.27,5.62-5.59Z"/>
        <path d="M123.73,62.36c-.02,2.79-.78,5.42-2.1,7.67-1.35-2.32-3.29-4.25-5.62-5.59,2.27-1.32,4.9-2.07,7.72-2.08Z"/>
        <path d="M94.92,54.46c1.35,2.32,3.29,4.25,5.62,5.59-2.27,1.32-4.91,2.07-7.72,2.08.02-2.79.78-5.42,2.1-7.67Z"/>
        <path d="M100.54,64.44c-2.33,1.34-4.27,3.27-5.62,5.59-1.32-2.25-2.09-4.88-2.1-7.67,2.81,0,5.45.76,7.72,2.08Z"/>
      </g>
      <g>
        <path d="M121.62,70.04c1.32,2.25,2.09,4.88,2.1,7.67-2.82,0-5.45-.76-7.72-2.08,2.32-1.34,4.26-3.27,5.62-5.59Z"/>
        <path d="M123.73,77.94c-.02,2.79-.78,5.42-2.1,7.67-1.35-2.32-3.29-4.25-5.62-5.59,2.27-1.32,4.9-2.07,7.72-2.08Z"/>
        <path d="M116.01,64.44c-2.32,1.34-4.26,3.27-5.62,5.59-1.32-2.25-2.09-4.88-2.1-7.67,2.82,0,5.45.76,7.72,2.08Z"/>
        <path d="M110.39,85.62c1.35,2.32,3.29,4.25,5.62,5.59-2.27,1.32-4.9,2.07-7.72,2.08.02-2.79.78-5.41,2.1-7.67Z"/>
        <path d="M108.25,62.36c-.02,2.79-.78,5.42-2.1,7.67-1.35-2.32-3.29-4.25-5.61-5.59,2.26-1.32,4.9-2.07,7.71-2.08Z"/>
        <path d="M106.15,85.62c1.32,2.25,2.09,4.87,2.1,7.67-2.81,0-5.45-.76-7.71-2.08,2.32-1.34,4.26-3.27,5.61-5.59Z"/>
        <path d="M94.92,70.04c1.35,2.32,3.29,4.25,5.62,5.59-2.27,1.32-4.91,2.07-7.72,2.08.02-2.79.78-5.42,2.1-7.67Z"/>
        <path d="M100.54,80.02c-2.33,1.34-4.27,3.27-5.62,5.59-1.32-2.25-2.09-4.88-2.1-7.67,2.81,0,5.45.76,7.72,2.08Z"/>
        <path d="M121.62,85.66c1.32,2.25,2.09,4.88,2.1,7.67-2.82,0-5.45-.76-7.72-2.08,2.32-1.34,4.26-3.27,5.62-5.59Z"/>
        <path d="M123.73,93.56c-.02,2.79-.78,5.42-2.1,7.67-1.35-2.32-3.29-4.25-5.62-5.59,2.27-1.32,4.9-2.07,7.72-2.08Z"/>
        <path d="M94.92,85.66c1.35,2.32,3.29,4.25,5.62,5.59-2.27,1.32-4.91,2.07-7.72,2.08.02-2.79.78-5.42,2.1-7.67Z"/>
        <path d="M100.54,95.64c-2.33,1.34-4.27,3.27-5.62,5.59-1.32-2.25-2.09-4.88-2.1-7.67,2.81,0,5.45.76,7.72,2.08Z"/>
      </g>
      <g>
        <path d="M121.62,101.23c1.32,2.25,2.09,4.88,2.1,7.67-2.82,0-5.45-.76-7.72-2.08,2.32-1.34,4.26-3.27,5.62-5.59Z"/>
        <path d="M123.73,109.14c-.02,2.79-.78,5.42-2.1,7.67-1.35-2.32-3.29-4.25-5.62-5.59,2.27-1.32,4.9-2.07,7.72-2.08Z"/>
        <path d="M116.01,95.64c-2.32,1.34-4.26,3.27-5.62,5.59-1.32-2.25-2.09-4.88-2.1-7.67,2.82,0,5.45.76,7.72,2.08Z"/>
        <path d="M110.39,116.81c1.35,2.32,3.29,4.25,5.62,5.59-2.27,1.32-4.9,2.07-7.72,2.08.02-2.79.78-5.41,2.1-7.67Z"/>
        <path d="M108.25,93.56c-.02,2.79-.78,5.42-2.1,7.67-1.35-2.32-3.29-4.25-5.61-5.59,2.26-1.32,4.9-2.07,7.71-2.08Z"/>
        <path d="M106.15,116.81c1.32,2.25,2.09,4.87,2.1,7.67-2.81,0-5.45-.76-7.71-2.08,2.32-1.34,4.26-3.27,5.61-5.59Z"/>
        <path d="M94.92,101.23c1.35,2.32,3.29,4.25,5.62,5.59-2.27,1.32-4.91,2.07-7.72,2.08.02-2.79.78-5.42,2.1-7.67Z"/>
        <path d="M100.54,111.22c-2.33,1.34-4.27,3.27-5.62,5.59-1.32-2.25-2.09-4.88-2.1-7.67,2.81,0,5.45.76,7.72,2.08Z"/>
      </g>
    </g>
  </g>
</svg>