<?xml version="1.0" encoding="UTF-8"?>
<svg id="_레이어_2" data-name="레이어 2" xmlns="http://www.w3.org/2000/svg" viewBox="0 0 108.34 124.37">
  <g id="_레이어_1-2" data-name="레이어 1">
    <g>
      <g>
        <path d="M54.18,2.08c-2.32,1.34-4.26,3.27-5.62,5.59-1.32-2.25-2.09-4.88-2.1-7.67,2.82,0,5.45.76,7.72,2.08Z"/>
        <path d="M48.56,23.25c1.35,2.32,3.29,4.25,5.62,5.59-2.27,1.32-4.9,2.07-7.72,2.08.02-2.79.78-5.41,2.1-7.67Z"/>
        <path d="M46.42,0c-.02,2.79-.78,5.42-2.1,7.67-1.35-2.32-3.29-4.25-5.61-5.59C40.97.76,43.61,0,46.42,0Z"/>
        <path d="M44.32,23.25c1.32,2.25,2.09,4.87,2.1,7.67-2.81,0-5.45-.76-7.71-2.08,2.32-1.34,4.26-3.27,5.61-5.59Z"/>
        <path d="M33.09,7.67c1.35,2.32,3.29,4.25,5.62,5.59-2.27,1.32-4.91,2.07-7.72,2.08.02-2.79.78-5.42,2.1-7.67Z"/>
        <path d="M38.71,17.66c-2.33,1.34-4.27,3.27-5.62,5.59-1.32-2.25-2.09-4.88-2.1-7.67,2.81,0,5.45.76,7.72,2.08Z"/>
      </g>
      <g>
        <path d="M75.26,7.67c1.32,2.25,2.09,4.88,2.1,7.67-2.82,0-5.45-.76-7.72-2.08,2.32-1.34,4.26-3.27,5.62-5.59Z"/>
        <path d="M77.37,15.58c-.02,2.79-.78,5.42-2.1,7.67-1.35-2.32-3.29-4.25-5.62-5.59,2.27-1.32,4.9-2.07,7.72-2.08Z"/>
        <path d="M69.65,2.08c-2.32,1.34-4.26,3.27-5.62,5.59-1.32-2.25-2.09-4.88-2.1-7.67,2.82,0,5.45.76,7.72,2.08Z"/>
        <path d="M64.03,23.25c1.35,2.32,3.29,4.25,5.62,5.59-2.27,1.32-4.9,2.07-7.72,2.08.02-2.79.78-5.41,2.1-7.67Z"/>
        <path d="M61.89,0c-.02,2.79-.78,5.42-2.1,7.67-1.35-2.32-3.29-4.25-5.61-5.59C56.44.76,59.08,0,61.89,0Z"/>
        <path d="M59.79,23.25c1.32,2.25,2.09,4.87,2.1,7.67-2.81,0-5.45-.76-7.71-2.08,2.32-1.34,4.26-3.27,5.61-5.59Z"/>
      </g>
      <g>
        <path d="M28.8,7.67c1.32,2.25,2.09,4.88,2.1,7.67-2.82,0-5.45-.76-7.72-2.08,2.32-1.34,4.26-3.27,5.62-5.59Z"/>
        <path d="M30.91,15.58c-.02,2.79-.78,5.42-2.1,7.67-1.35-2.32-3.29-4.25-5.62-5.59,2.27-1.32,4.9-2.07,7.72-2.08Z"/>
        <path d="M23.19,2.08c-2.32,1.34-4.26,3.27-5.62,5.59-1.32-2.25-2.09-4.88-2.1-7.67,2.82,0,5.45.76,7.72,2.08Z"/>
        <path d="M17.57,23.25c1.35,2.32,3.29,4.25,5.62,5.59-2.27,1.32-4.9,2.07-7.72,2.08.02-2.79.78-5.41,2.1-7.67Z"/>
        <path d="M15.43,0c-.02,2.79-.78,5.42-2.1,7.67-1.35-2.32-3.29-4.25-5.61-5.59C9.98.76,12.62,0,15.43,0Z"/>
        <path d="M13.33,23.25c1.32,2.25,2.09,4.87,2.1,7.67-2.81,0-5.45-.76-7.71-2.08,2.32-1.34,4.26-3.27,5.61-5.59Z"/>
        <path d="M2.1,7.67c1.35,2.32,3.29,4.25,5.62,5.59C5.45,14.59,2.81,15.34,0,15.34c.02-2.79.78-5.42,2.1-7.67Z"/>
        <path d="M7.72,17.66c-2.33,1.34-4.27,3.27-5.62,5.59C.78,21,.02,18.37,0,15.58c2.81,0,5.45.76,7.72,2.08Z"/>
        <path d="M28.8,23.29c1.32,2.25,2.09,4.88,2.1,7.67-2.82,0-5.45-.76-7.72-2.08,2.32-1.34,4.26-3.27,5.62-5.59Z"/>
        <path d="M30.91,31.2c-.02,2.79-.78,5.42-2.1,7.67-1.35-2.32-3.29-4.25-5.62-5.59,2.27-1.32,4.9-2.07,7.72-2.08Z"/>
        <path d="M2.1,23.29c1.35,2.32,3.29,4.25,5.62,5.59C5.45,30.21,2.81,30.96,0,30.96c.02-2.79.78-5.42,2.1-7.67Z"/>
        <path d="M7.72,33.28c-2.33,1.34-4.27,3.27-5.62,5.59C.78,36.62.02,33.99,0,31.2c2.81,0,5.45.76,7.72,2.08Z"/>
      </g>
      <g>
        <path d="M28.97,38.77c1.32,2.25,2.09,4.88,2.1,7.67-2.82,0-5.45-.76-7.72-2.08,2.32-1.34,4.26-3.27,5.62-5.59Z"/>
        <path d="M31.08,46.67c-.02,2.79-.78,5.42-2.1,7.67-1.35-2.32-3.29-4.25-5.62-5.59,2.27-1.32,4.9-2.07,7.72-2.08Z"/>
        <path d="M23.36,33.17c-2.32,1.34-4.26,3.27-5.62,5.59-1.32-2.25-2.09-4.88-2.1-7.67,2.82,0,5.45.76,7.72,2.08Z"/>
        <path d="M17.74,54.35c1.35,2.32,3.29,4.25,5.62,5.59-2.27,1.32-4.9,2.07-7.72,2.08.02-2.79.78-5.41,2.1-7.67Z"/>
        <path d="M15.6,31.09c-.02,2.79-.78,5.42-2.1,7.67-1.35-2.32-3.29-4.25-5.61-5.59,2.26-1.32,4.9-2.07,7.71-2.08Z"/>
        <path d="M13.5,54.35c1.32,2.25,2.09,4.87,2.1,7.67-2.81,0-5.45-.76-7.71-2.08,2.32-1.34,4.26-3.27,5.61-5.59Z"/>
        <path d="M17.74,69.96c1.35,2.32,3.29,4.25,5.62,5.59-2.27,1.32-4.9,2.07-7.72,2.08.02-2.79.78-5.41,2.1-7.67Z"/>
        <path d="M13.5,69.96c1.32,2.25,2.09,4.87,2.1,7.67-2.81,0-5.45-.76-7.71-2.08,2.32-1.34,4.26-3.27,5.61-5.59Z"/>
        <path d="M2.27,38.77c1.35,2.32,3.29,4.25,5.62,5.59-2.27,1.32-4.91,2.07-7.72,2.08.02-2.79.78-5.42,2.1-7.67Z"/>
        <path d="M7.89,48.75c-2.33,1.34-4.27,3.27-5.62,5.59-1.32-2.25-2.09-4.88-2.1-7.67,2.81,0,5.45.76,7.72,2.08Z"/>
        <path d="M28.97,54.39c1.32,2.25,2.09,4.88,2.1,7.67-2.82,0-5.45-.76-7.72-2.08,2.32-1.34,4.26-3.27,5.62-5.59Z"/>
        <path d="M31.08,62.29c-.02,2.79-.78,5.42-2.1,7.67-1.35-2.32-3.29-4.25-5.62-5.59,2.27-1.32,4.9-2.07,7.72-2.08Z"/>
        <path d="M2.27,54.39c1.35,2.32,3.29,4.25,5.62,5.59-2.27,1.32-4.91,2.07-7.72,2.08.02-2.79.78-5.42,2.1-7.67Z"/>
        <path d="M7.89,64.37c-2.33,1.34-4.27,3.27-5.62,5.59-1.32-2.25-2.09-4.88-2.1-7.67,2.81,0,5.45.76,7.72,2.08Z"/>
      </g>
      <g>
        <path d="M106.24,7.67c1.32,2.25,2.09,4.88,2.1,7.67-2.82,0-5.45-.76-7.72-2.08,2.32-1.34,4.26-3.27,5.62-5.59Z"/>
        <path d="M108.34,15.58c-.02,2.79-.78,5.42-2.1,7.67-1.35-2.32-3.29-4.25-5.62-5.59,2.27-1.32,4.9-2.07,7.72-2.08Z"/>
        <path d="M100.62,2.08c-2.32,1.34-4.26,3.27-5.62,5.59-1.32-2.25-2.09-4.88-2.1-7.67,2.82,0,5.45.76,7.72,2.08Z"/>
        <path d="M95.01,23.25c1.35,2.32,3.29,4.25,5.62,5.59-2.27,1.32-4.9,2.07-7.72,2.08.02-2.79.78-5.41,2.1-7.67Z"/>
        <path d="M92.87,0c-.02,2.79-.78,5.42-2.1,7.67-1.35-2.32-3.29-4.25-5.61-5.59,2.26-1.32,4.9-2.07,7.71-2.08Z"/>
        <path d="M90.76,23.25c1.32,2.25,2.09,4.87,2.1,7.67-2.81,0-5.45-.76-7.71-2.08,2.32-1.34,4.26-3.27,5.61-5.59Z"/>
        <path d="M79.54,7.67c1.35,2.32,3.29,4.25,5.62,5.59-2.27,1.32-4.91,2.07-7.72,2.08.02-2.79.78-5.42,2.1-7.67Z"/>
        <path d="M85.15,17.66c-2.33,1.34-4.27,3.27-5.62,5.59-1.32-2.25-2.09-4.88-2.1-7.67,2.81,0,5.45.76,7.72,2.08Z"/>
      </g>
      <g>
        <path d="M54.16,122.29c2.32-1.34,4.26-3.27,5.62-5.59,1.32,2.25,2.09,4.88,2.1,7.67-2.82,0-5.45-.76-7.72-2.08Z"/>
        <path d="M59.78,101.12c-1.35-2.32-3.29-4.25-5.62-5.59,2.27-1.32,4.9-2.07,7.72-2.08-.02,2.79-.78,5.41-2.1,7.67Z"/>
        <path d="M61.92,124.37c.02-2.79.78-5.42,2.1-7.67,1.35,2.32,3.29,4.25,5.61,5.59-2.26,1.32-4.9,2.07-7.71,2.08Z"/>
        <path d="M64.02,101.12c-1.32-2.25-2.09-4.87-2.1-7.67,2.81,0,5.45.76,7.71,2.08-2.32,1.34-4.26,3.27-5.61,5.59Z"/>
        <path d="M75.25,116.7c-1.35-2.32-3.29-4.25-5.62-5.59,2.27-1.32,4.91-2.07,7.72-2.08-.02,2.79-.78,5.42-2.1,7.67Z"/>
        <path d="M69.63,106.71c2.33-1.34,4.27-3.27,5.62-5.59,1.32,2.25,2.09,4.88,2.1,7.67-2.81,0-5.45-.76-7.72-2.08Z"/>
      </g>
      <g>
        <path d="M33.08,116.7c-1.32-2.25-2.09-4.88-2.1-7.67,2.82,0,5.45.76,7.72,2.08-2.32,1.34-4.26,3.27-5.62,5.59Z"/>
        <path d="M30.98,108.79c.02-2.79.78-5.42,2.1-7.67,1.35,2.32,3.29,4.25,5.62,5.59-2.27,1.32-4.9,2.07-7.72,2.08Z"/>
        <path d="M38.69,122.29c2.32-1.34,4.26-3.27,5.62-5.59,1.32,2.25,2.09,4.88,2.1,7.67-2.82,0-5.45-.76-7.72-2.08Z"/>
        <path d="M44.31,101.12c-1.35-2.32-3.29-4.25-5.62-5.59,2.27-1.32,4.9-2.07,7.72-2.08-.02,2.79-.78,5.41-2.1,7.67Z"/>
        <path d="M46.45,124.37c.02-2.79.78-5.42,2.1-7.67,1.35,2.32,3.29,4.25,5.61,5.59-2.26,1.32-4.9,2.07-7.71,2.08Z"/>
        <path d="M48.55,101.12c-1.32-2.25-2.09-4.87-2.1-7.67,2.81,0,5.45.76,7.71,2.08-2.32,1.34-4.26,3.27-5.61,5.59Z"/>
      </g>
      <g>
        <path d="M79.54,116.7c-1.32-2.25-2.09-4.88-2.1-7.67,2.82,0,5.45.76,7.72,2.08-2.32,1.34-4.26,3.27-5.62,5.59Z"/>
        <path d="M77.44,108.79c.02-2.79.78-5.42,2.1-7.67,1.35,2.32,3.29,4.25,5.62,5.59-2.27,1.32-4.9,2.07-7.72,2.08Z"/>
        <path d="M85.15,122.29c2.32-1.34,4.26-3.27,5.62-5.59,1.32,2.25,2.09,4.88,2.1,7.67-2.82,0-5.45-.76-7.72-2.08Z"/>
        <path d="M90.77,101.12c-1.35-2.32-3.29-4.25-5.62-5.59,2.27-1.32,4.9-2.07,7.72-2.08-.02,2.79-.78,5.41-2.1,7.67Z"/>
        <path d="M92.91,124.37c.02-2.79.78-5.42,2.1-7.67,1.35,2.32,3.29,4.25,5.61,5.59-2.26,1.32-4.9,2.07-7.71,2.08Z"/>
        <path d="M95.01,101.12c-1.32-2.25-2.09-4.87-2.1-7.67,2.81,0,5.45.76,7.71,2.08-2.32,1.34-4.26,3.27-5.61,5.59Z"/>
        <path d="M106.24,116.7c-1.35-2.32-3.29-4.25-5.62-5.59,2.27-1.32,4.91-2.07,7.72-2.08-.02,2.79-.78,5.42-2.1,7.67Z"/>
        <path d="M100.62,106.71c2.33-1.34,4.27-3.27,5.62-5.59,1.32,2.25,2.09,4.88,2.1,7.67-2.81,0-5.45-.76-7.72-2.08Z"/>
        <path d="M79.54,101.08c-1.32-2.25-2.09-4.88-2.1-7.67,2.82,0,5.45.76,7.72,2.08-2.32,1.34-4.26,3.27-5.62,5.59Z"/>
        <path d="M77.44,93.17c.02-2.79.78-5.42,2.1-7.67,1.35,2.32,3.29,4.25,5.62,5.59-2.27,1.32-4.9,2.07-7.72,2.08Z"/>
        <path d="M106.24,101.08c-1.35-2.32-3.29-4.25-5.62-5.59,2.27-1.32,4.91-2.07,7.72-2.08-.02,2.79-.78,5.42-2.1,7.67Z"/>
        <path d="M100.62,91.09c2.33-1.34,4.27-3.27,5.62-5.59,1.32,2.25,2.09,4.88,2.1,7.67-2.81,0-5.45-.76-7.72-2.08Z"/>
      </g>
      <g>
        <path d="M2.1,116.7c-1.32-2.25-2.09-4.88-2.1-7.67,2.82,0,5.45.76,7.72,2.08-2.32,1.34-4.26,3.27-5.62,5.59Z"/>
        <path d="M0,108.79c.02-2.79.78-5.42,2.1-7.67,1.35,2.32,3.29,4.25,5.62,5.59C5.45,108.03,2.82,108.78,0,108.79Z"/>
        <path d="M7.72,122.29c2.32-1.34,4.26-3.27,5.62-5.59,1.32,2.25,2.09,4.88,2.1,7.67-2.82,0-5.45-.76-7.72-2.08Z"/>
        <path d="M13.33,101.12c-1.35-2.32-3.29-4.25-5.62-5.59,2.27-1.32,4.9-2.07,7.72-2.08-.02,2.79-.78,5.41-2.1,7.67Z"/>
        <path d="M15.47,124.37c.02-2.79.78-5.42,2.1-7.67,1.35,2.32,3.29,4.25,5.61,5.59-2.26,1.32-4.9,2.07-7.71,2.08Z"/>
        <path d="M17.58,101.12c-1.32-2.25-2.09-4.87-2.1-7.67,2.81,0,5.45.76,7.71,2.08-2.32,1.34-4.26,3.27-5.61,5.59Z"/>
        <path d="M28.8,116.7c-1.35-2.32-3.29-4.25-5.62-5.59,2.27-1.32,4.91-2.07,7.72-2.08-.02,2.79-.78,5.42-2.1,7.67Z"/>
        <path d="M23.19,106.71c2.33-1.34,4.27-3.27,5.62-5.59,1.32,2.25,2.09,4.88,2.1,7.67-2.81,0-5.45-.76-7.72-2.08Z"/>
      </g>
      <g>
        <path d="M54.18,48.77c-2.32,1.34-4.26,3.27-5.62,5.59-1.32-2.25-2.09-4.88-2.1-7.67,2.82,0,5.45.76,7.72,2.08Z"/>
        <path d="M48.56,69.94c1.35,2.32,3.29,4.25,5.62,5.59-2.27,1.32-4.9,2.07-7.72,2.08.02-2.79.78-5.41,2.1-7.67Z"/>
        <path d="M46.42,46.69c-.02,2.79-.78,5.42-2.1,7.67-1.35-2.32-3.29-4.25-5.61-5.59,2.26-1.32,4.9-2.07,7.71-2.08Z"/>
        <path d="M44.32,69.94c1.32,2.25,2.09,4.87,2.1,7.67-2.81,0-5.45-.76-7.71-2.08,2.32-1.34,4.26-3.27,5.61-5.59Z"/>
        <path d="M33.09,54.37c1.35,2.32,3.29,4.25,5.62,5.59-2.27,1.32-4.91,2.07-7.72,2.08.02-2.79.78-5.42,2.1-7.67Z"/>
        <path d="M38.71,64.35c-2.33,1.34-4.27,3.27-5.62,5.59-1.32-2.25-2.09-4.88-2.1-7.67,2.81,0,5.45.76,7.72,2.08Z"/>
      </g>
      <g>
        <path d="M75.26,54.37c1.32,2.25,2.09,4.88,2.1,7.67-2.82,0-5.45-.76-7.72-2.08,2.32-1.34,4.26-3.27,5.62-5.59Z"/>
        <path d="M77.37,62.27c-.02,2.79-.78,5.42-2.1,7.67-1.35-2.32-3.29-4.25-5.62-5.59,2.27-1.32,4.9-2.07,7.72-2.08Z"/>
        <path d="M69.65,48.77c-2.32,1.34-4.26,3.27-5.62,5.59-1.32-2.25-2.09-4.88-2.1-7.67,2.82,0,5.45.76,7.72,2.08Z"/>
        <path d="M64.03,69.94c1.35,2.32,3.29,4.25,5.62,5.59-2.27,1.32-4.9,2.07-7.72,2.08.02-2.79.78-5.41,2.1-7.67Z"/>
        <path d="M61.89,46.69c-.02,2.79-.78,5.42-2.1,7.67-1.35-2.32-3.29-4.25-5.61-5.59,2.26-1.32,4.9-2.07,7.71-2.08Z"/>
        <path d="M59.79,69.94c1.32,2.25,2.09,4.87,2.1,7.67-2.81,0-5.45-.76-7.71-2.08,2.32-1.34,4.26-3.27,5.61-5.59Z"/>
      </g>
      <g>
        <path d="M106.24,54.37c1.32,2.25,2.09,4.88,2.1,7.67-2.82,0-5.45-.76-7.72-2.08,2.32-1.34,4.26-3.27,5.62-5.59Z"/>
        <path d="M108.34,62.27c-.02,2.79-.78,5.42-2.1,7.67-1.35-2.32-3.29-4.25-5.62-5.59,2.27-1.32,4.9-2.07,7.72-2.08Z"/>
        <path d="M100.62,48.77c-2.32,1.34-4.26,3.27-5.62,5.59-1.32-2.25-2.09-4.88-2.1-7.67,2.82,0,5.45.76,7.72,2.08Z"/>
        <path d="M95.01,69.94c1.35,2.32,3.29,4.25,5.62,5.59-2.27,1.32-4.9,2.07-7.72,2.08.02-2.79.78-5.41,2.1-7.67Z"/>
        <path d="M92.87,46.69c-.02,2.79-.78,5.42-2.1,7.67-1.35-2.32-3.29-4.25-5.61-5.59,2.26-1.32,4.9-2.07,7.71-2.08Z"/>
        <path d="M90.76,69.94c1.32,2.25,2.09,4.87,2.1,7.67-2.81,0-5.45-.76-7.71-2.08,2.32-1.34,4.26-3.27,5.61-5.59Z"/>
        <path d="M79.54,54.37c1.35,2.32,3.29,4.25,5.62,5.59-2.27,1.32-4.91,2.07-7.72,2.08.02-2.79.78-5.42,2.1-7.67Z"/>
        <path d="M85.15,64.35c-2.33,1.34-4.27,3.27-5.62,5.59-1.32-2.25-2.09-4.88-2.1-7.67,2.81,0,5.45.76,7.72,2.08Z"/>
        <path d="M106.24,69.9c1.32,2.25,2.09,4.88,2.1,7.67-2.82,0-5.45-.76-7.72-2.08,2.32-1.34,4.26-3.27,5.62-5.59Z"/>
        <path d="M108.34,77.81c-.02,2.79-.78,5.42-2.1,7.67-1.35-2.32-3.29-4.25-5.62-5.59,2.27-1.32,4.9-2.07,7.72-2.08Z"/>
        <path d="M79.54,69.9c1.35,2.32,3.29,4.25,5.62,5.59-2.27,1.32-4.91,2.07-7.72,2.08.02-2.79.78-5.42,2.1-7.67Z"/>
        <path d="M85.15,79.88c-2.33,1.34-4.27,3.27-5.62,5.59-1.32-2.25-2.09-4.88-2.1-7.67,2.81,0,5.45.76,7.72,2.08Z"/>
      </g>
    </g>
  </g>
</svg>