<?xml version="1.0" encoding="UTF-8"?>
<svg id="_레이어_2" data-name="레이어 2" xmlns="http://www.w3.org/2000/svg" viewBox="0 0 123.74 124.94">
  <g id="_레이어_1-2" data-name="레이어 1">
    <g>
      <g>
        <path d="M28.8,7.67c1.32,2.25,2.09,4.88,2.1,7.67-2.82,0-5.45-.76-7.72-2.08,2.32-1.34,4.26-3.27,5.62-5.59Z"/>
        <path d="M30.91,15.58c-.02,2.79-.78,5.42-2.1,7.67-1.35-2.32-3.29-4.25-5.62-5.59,2.27-1.32,4.9-2.07,7.72-2.08Z"/>
        <path d="M23.19,2.08c-2.32,1.34-4.26,3.27-5.62,5.59-1.32-2.25-2.09-4.88-2.1-7.67,2.82,0,5.45.76,7.72,2.08Z"/>
        <path d="M17.57,23.25c1.35,2.32,3.29,4.25,5.62,5.59-2.27,1.32-4.9,2.07-7.72,2.08.02-2.79.78-5.41,2.1-7.67Z"/>
        <path d="M15.43,0c-.02,2.79-.78,5.42-2.1,7.67-1.35-2.32-3.29-4.25-5.61-5.59C9.98.76,12.62,0,15.43,0Z"/>
        <path d="M13.33,23.25c1.32,2.25,2.09,4.87,2.1,7.67-2.81,0-5.45-.76-7.71-2.08,2.32-1.34,4.26-3.27,5.61-5.59Z"/>
        <path d="M2.1,7.67c1.35,2.32,3.29,4.25,5.62,5.59-2.27,1.32-4.91,2.07-7.72,2.08.02-2.79.78-5.42,2.1-7.67Z"/>
        <path d="M7.72,17.66c-2.33,1.34-4.27,3.27-5.62,5.59C.78,21,.02,18.37,0,15.58c2.81,0,5.45.76,7.72,2.08Z"/>
        <path d="M28.8,23.29c1.32,2.25,2.09,4.88,2.1,7.67-2.82,0-5.45-.76-7.72-2.08,2.32-1.34,4.26-3.27,5.62-5.59Z"/>
        <path d="M30.91,31.2c-.02,2.79-.78,5.42-2.1,7.67-1.35-2.32-3.29-4.25-5.62-5.59,2.27-1.32,4.9-2.07,7.72-2.08Z"/>
        <path d="M2.1,23.29c1.35,2.32,3.29,4.25,5.62,5.59-2.27,1.32-4.91,2.07-7.72,2.08.02-2.79.78-5.42,2.1-7.67Z"/>
        <path d="M7.72,33.28c-2.33,1.34-4.27,3.27-5.62,5.59C.78,36.62.02,33.99,0,31.2c2.81,0,5.45.76,7.72,2.08Z"/>
      </g>
      <g>
        <path d="M28.8,38.8c1.32,2.25,2.09,4.88,2.1,7.67-2.82,0-5.45-.76-7.72-2.08,2.32-1.34,4.26-3.27,5.62-5.59Z"/>
        <path d="M30.91,46.71c-.02,2.79-.78,5.42-2.1,7.67-1.35-2.32-3.29-4.25-5.62-5.59,2.27-1.32,4.9-2.07,7.72-2.08Z"/>
        <path d="M23.19,33.21c-2.32,1.34-4.26,3.27-5.62,5.59-1.32-2.25-2.09-4.88-2.1-7.67,2.82,0,5.45.76,7.72,2.08Z"/>
        <path d="M17.57,54.38c1.35,2.32,3.29,4.25,5.62,5.59-2.27,1.32-4.9,2.07-7.72,2.08.02-2.79.78-5.41,2.1-7.67Z"/>
        <path d="M15.43,31.13c-.02,2.79-.78,5.42-2.1,7.67-1.35-2.32-3.29-4.25-5.61-5.59,2.26-1.32,4.9-2.07,7.71-2.08Z"/>
        <path d="M13.33,54.38c1.32,2.25,2.09,4.87,2.1,7.67-2.81,0-5.45-.76-7.71-2.08,2.32-1.34,4.26-3.27,5.61-5.59Z"/>
        <path d="M2.1,38.8c1.35,2.32,3.29,4.25,5.62,5.59-2.27,1.32-4.91,2.07-7.72,2.08.02-2.79.78-5.42,2.1-7.67Z"/>
        <path d="M7.72,48.79c-2.33,1.34-4.27,3.27-5.62,5.59C.78,52.13.02,49.5,0,46.71c2.81,0,5.45.76,7.72,2.08Z"/>
        <path d="M28.8,54.42c1.32,2.25,2.09,4.88,2.1,7.67-2.82,0-5.45-.76-7.72-2.08,2.32-1.34,4.26-3.27,5.62-5.59Z"/>
        <path d="M30.91,62.33c-.02,2.79-.78,5.42-2.1,7.67-1.35-2.32-3.29-4.25-5.62-5.59,2.27-1.32,4.9-2.07,7.72-2.08Z"/>
        <path d="M2.1,54.42c1.35,2.32,3.29,4.25,5.62,5.59-2.27,1.32-4.91,2.07-7.72,2.08.02-2.79.78-5.42,2.1-7.67Z"/>
        <path d="M7.72,64.41c-2.33,1.34-4.27,3.27-5.62,5.59-1.32-2.25-2.09-4.88-2.1-7.67,2.81,0,5.45.76,7.72,2.08Z"/>
      </g>
      <g>
        <path d="M28.8,70c1.32,2.25,2.09,4.88,2.1,7.67-2.82,0-5.45-.76-7.72-2.08,2.32-1.34,4.26-3.27,5.62-5.59Z"/>
        <path d="M30.91,77.91c-.02,2.79-.78,5.42-2.1,7.67-1.35-2.32-3.29-4.25-5.62-5.59,2.27-1.32,4.9-2.07,7.72-2.08Z"/>
        <path d="M23.19,64.41c-2.32,1.34-4.26,3.27-5.62,5.59-1.32-2.25-2.09-4.88-2.1-7.67,2.82,0,5.45.76,7.72,2.08Z"/>
        <path d="M17.57,85.58c1.35,2.32,3.29,4.25,5.62,5.59-2.27,1.32-4.9,2.07-7.72,2.08.02-2.79.78-5.41,2.1-7.67Z"/>
        <path d="M15.43,62.33c-.02,2.79-.78,5.42-2.1,7.67-1.35-2.32-3.29-4.25-5.61-5.59,2.26-1.32,4.9-2.07,7.71-2.08Z"/>
        <path d="M13.33,85.58c1.32,2.25,2.09,4.87,2.1,7.67-2.81,0-5.45-.76-7.71-2.08,2.32-1.34,4.26-3.27,5.61-5.59Z"/>
        <path d="M2.1,70c1.35,2.32,3.29,4.25,5.62,5.59-2.27,1.32-4.91,2.07-7.72,2.08.02-2.79.78-5.42,2.1-7.67Z"/>
        <path d="M7.72,79.98c-2.33,1.34-4.27,3.27-5.62,5.59-1.32-2.25-2.09-4.88-2.1-7.67,2.81,0,5.45.76,7.72,2.08Z"/>
        <path d="M28.8,85.62c1.32,2.25,2.09,4.88,2.1,7.67-2.82,0-5.45-.76-7.72-2.08,2.32-1.34,4.26-3.27,5.62-5.59Z"/>
        <path d="M30.91,93.53c-.02,2.79-.78,5.42-2.1,7.67-1.35-2.32-3.29-4.25-5.62-5.59,2.27-1.32,4.9-2.07,7.72-2.08Z"/>
        <path d="M2.1,85.62c1.35,2.32,3.29,4.25,5.62,5.59-2.27,1.32-4.91,2.07-7.72,2.08.02-2.79.78-5.42,2.1-7.67Z"/>
        <path d="M7.72,95.6c-2.33,1.34-4.27,3.27-5.62,5.59-1.32-2.25-2.09-4.88-2.1-7.67,2.81,0,5.45.76,7.72,2.08Z"/>
      </g>
      <g>
        <path d="M28.8,101.2c1.32,2.25,2.09,4.88,2.1,7.67-2.82,0-5.45-.76-7.72-2.08,2.32-1.34,4.26-3.27,5.62-5.59Z"/>
        <path d="M30.91,109.1c-.02,2.79-.78,5.42-2.1,7.67-1.35-2.32-3.29-4.25-5.62-5.59,2.27-1.32,4.9-2.07,7.72-2.08Z"/>
        <path d="M23.19,95.6c-2.32,1.34-4.26,3.27-5.62,5.59-1.32-2.25-2.09-4.88-2.1-7.67,2.82,0,5.45.76,7.72,2.08Z"/>
        <path d="M17.57,116.78c1.35,2.32,3.29,4.25,5.62,5.59-2.27,1.32-4.9,2.07-7.72,2.08.02-2.79.78-5.41,2.1-7.67Z"/>
        <path d="M15.43,93.53c-.02,2.79-.78,5.42-2.1,7.67-1.35-2.32-3.29-4.25-5.61-5.59,2.26-1.32,4.9-2.07,7.71-2.08Z"/>
        <path d="M13.33,116.78c1.32,2.25,2.09,4.87,2.1,7.67-2.81,0-5.45-.76-7.71-2.08,2.32-1.34,4.26-3.27,5.61-5.59Z"/>
        <path d="M2.1,101.2c1.35,2.32,3.29,4.25,5.62,5.59-2.27,1.32-4.91,2.07-7.72,2.08.02-2.79.78-5.42,2.1-7.67Z"/>
        <path d="M7.72,111.18c-2.33,1.34-4.27,3.27-5.62,5.59-1.32-2.25-2.09-4.88-2.1-7.67,2.81,0,5.45.76,7.72,2.08Z"/>
      </g>
      <g>
        <path d="M28.89,101.69c1.32,2.25,2.09,4.88,2.1,7.67-2.82,0-5.45-.76-7.72-2.08,2.32-1.34,4.26-3.27,5.62-5.59Z"/>
        <path d="M31,109.6c-.02,2.79-.78,5.42-2.1,7.67-1.35-2.32-3.29-4.25-5.62-5.59,2.27-1.32,4.9-2.07,7.72-2.08Z"/>
        <path d="M23.28,96.1c-2.32,1.34-4.26,3.27-5.62,5.59-1.32-2.25-2.09-4.88-2.1-7.67,2.82,0,5.45.76,7.72,2.08Z"/>
        <path d="M17.66,117.27c1.35,2.32,3.29,4.25,5.62,5.59-2.27,1.32-4.9,2.07-7.72,2.08.02-2.79.78-5.41,2.1-7.67Z"/>
        <path d="M15.52,94.02c-.02,2.79-.78,5.42-2.1,7.67-1.35-2.32-3.29-4.25-5.61-5.59,2.26-1.32,4.9-2.07,7.71-2.08Z"/>
        <path d="M13.42,117.27c1.32,2.25,2.09,4.87,2.1,7.67-2.81,0-5.45-.76-7.71-2.08,2.32-1.34,4.26-3.27,5.61-5.59Z"/>
        <path d="M2.19,101.69c1.35,2.32,3.29,4.25,5.62,5.59-2.27,1.32-4.91,2.07-7.72,2.08.02-2.79.78-5.42,2.1-7.67Z"/>
        <path d="M7.81,111.68c-2.33,1.34-4.27,3.27-5.62,5.59-1.32-2.25-2.09-4.88-2.1-7.67,2.81,0,5.45.76,7.72,2.08Z"/>
      </g>
      <g>
        <path d="M106.25,7.9c1.32,2.25,2.09,4.88,2.1,7.67-2.82,0-5.45-.76-7.72-2.08,2.32-1.34,4.26-3.27,5.62-5.59Z"/>
        <path d="M108.35,15.81c-.02,2.79-.78,5.42-2.1,7.67-1.35-2.32-3.29-4.25-5.62-5.59,2.27-1.32,4.9-2.07,7.72-2.08Z"/>
        <path d="M116.02,2.1c-2.32,1.34-4.26,3.27-5.62,5.59-1.32-2.25-2.09-4.88-2.1-7.67,2.82,0,5.45.76,7.72,2.08Z"/>
        <path d="M95.01,23.48c1.35,2.32,3.29,4.25,5.62,5.59-2.27,1.32-4.9,2.07-7.72,2.08.02-2.79.78-5.41,2.1-7.67Z"/>
        <path d="M110.39,23.48c1.35,2.32,3.29,4.25,5.62,5.59-2.27,1.32-4.9,2.07-7.72,2.08.02-2.79.78-5.41,2.1-7.67Z"/>
        <path d="M95.01,39.05c1.35,2.32,3.29,4.25,5.62,5.59-2.27,1.32-4.9,2.07-7.72,2.08.02-2.79.78-5.41,2.1-7.67Z"/>
        <path d="M108.26.03c-.02,2.79-.78,5.42-2.1,7.67-1.35-2.32-3.29-4.25-5.61-5.59C102.81.79,105.45.03,108.26.03Z"/>
        <path d="M90.77,23.48c1.32,2.25,2.09,4.87,2.1,7.67-2.81,0-5.45-.76-7.71-2.08,2.32-1.34,4.26-3.27,5.61-5.59Z"/>
        <path d="M110.4,7.9c1.35,2.32,3.29,4.25,5.62,5.59-2.27,1.32-4.91,2.07-7.72,2.08.02-2.79.78-5.42,2.1-7.67Z"/>
        <path d="M116.02,17.88c-2.33,1.34-4.27,3.27-5.62,5.59-1.32-2.25-2.09-4.88-2.1-7.67,2.81,0,5.45.76,7.72,2.08Z"/>
        <path d="M106.25,23.52c1.32,2.25,2.09,4.88,2.1,7.67-2.82,0-5.45-.76-7.72-2.08,2.32-1.34,4.26-3.27,5.62-5.59Z"/>
        <path d="M108.35,31.43c-.02,2.79-.78,5.42-2.1,7.67-1.35-2.32-3.29-4.25-5.62-5.59,2.27-1.32,4.9-2.07,7.72-2.08Z"/>
        <path d="M121.63,7.9c1.32,2.25,2.09,4.88,2.1,7.67-2.82,0-5.45-.76-7.72-2.08,2.32-1.34,4.26-3.27,5.62-5.59Z"/>
        <path d="M123.74,15.81c-.02,2.79-.78,5.42-2.1,7.67-1.35-2.32-3.29-4.25-5.62-5.59,2.27-1.32,4.9-2.07,7.72-2.08Z"/>
        <path d="M79.55,23.52c1.35,2.32,3.29,4.25,5.62,5.59-2.27,1.32-4.91,2.07-7.72,2.08.02-2.79.78-5.42,2.1-7.67Z"/>
        <path d="M85.16,33.5c-2.33,1.34-4.27,3.27-5.62,5.59-1.32-2.25-2.09-4.88-2.1-7.67,2.81,0,5.45.76,7.72,2.08Z"/>
      </g>
      <g>
        <path d="M75.26,54.85c1.32,2.25,2.09,4.88,2.1,7.67-2.82,0-5.45-.76-7.72-2.08,2.32-1.34,4.26-3.27,5.62-5.59Z"/>
        <path d="M77.36,62.75c-.02,2.79-.78,5.42-2.1,7.67-1.35-2.32-3.29-4.25-5.62-5.59,2.27-1.32,4.9-2.07,7.72-2.08Z"/>
        <path d="M69.64,49.25c-2.32,1.34-4.26,3.27-5.62,5.59-1.32-2.25-2.09-4.88-2.1-7.67,2.82,0,5.45.76,7.72,2.08Z"/>
        <path d="M64.03,70.42c1.35,2.32,3.29,4.25,5.62,5.59-2.27,1.32-4.9,2.07-7.72,2.08.02-2.79.78-5.41,2.1-7.67Z"/>
        <path d="M61.89,47.17c-.02,2.79-.78,5.42-2.1,7.67-1.35-2.32-3.29-4.25-5.61-5.59,2.26-1.32,4.9-2.07,7.71-2.08Z"/>
        <path d="M59.79,70.42c1.32,2.25,2.09,4.87,2.1,7.67-2.81,0-5.45-.76-7.71-2.08,2.32-1.34,4.26-3.27,5.61-5.59Z"/>
        <path d="M48.56,54.85c1.35,2.32,3.29,4.25,5.62,5.59-2.27,1.32-4.91,2.07-7.72,2.08.02-2.79.78-5.42,2.1-7.67Z"/>
        <path d="M54.18,64.83c-2.33,1.34-4.27,3.27-5.62,5.59-1.32-2.25-2.09-4.88-2.1-7.67,2.81,0,5.45.76,7.72,2.08Z"/>
      </g>
      <g>
        <path d="M90.72,39.12c1.32,2.25,2.09,4.88,2.1,7.67-2.82,0-5.45-.76-7.72-2.08,2.32-1.34,4.26-3.27,5.62-5.59Z"/>
        <path d="M92.82,47.03c-.02,2.79-.78,5.42-2.1,7.67-1.35-2.32-3.29-4.25-5.62-5.59,2.27-1.32,4.9-2.07,7.72-2.08Z"/>
        <path d="M85.1,33.53c-2.32,1.34-4.26,3.27-5.62,5.59-1.32-2.25-2.09-4.88-2.1-7.67,2.82,0,5.45.76,7.72,2.08Z"/>
        <path d="M94.99,7.88c1.35,2.32,3.29,4.25,5.62,5.59-2.27,1.32-4.91,2.07-7.72,2.08.02-2.79.78-5.42,2.1-7.67Z"/>
        <path d="M100.54,17.88c-2.32,1.34-4.26,3.27-5.62,5.59-1.32-2.25-2.09-4.88-2.1-7.67,2.82,0,5.45.76,7.72,2.08Z"/>
        <path d="M79.49,54.7c1.35,2.32,3.29,4.25,5.62,5.59-2.27,1.32-4.9,2.07-7.72,2.08.02-2.79.78-5.41,2.1-7.67Z"/>
        <path d="M77.35,31.45c-.02,2.79-.78,5.42-2.1,7.67-1.35-2.32-3.29-4.25-5.61-5.59,2.26-1.32,4.9-2.07,7.71-2.08Z"/>
        <path d="M75.24,54.7c1.32,2.25,2.09,4.87,2.1,7.67-2.81,0-5.45-.76-7.71-2.08,2.32-1.34,4.26-3.27,5.61-5.59Z"/>
        <path d="M64.02,39.12c1.35,2.32,3.29,4.25,5.62,5.59-2.27,1.32-4.91,2.07-7.72,2.08.02-2.79.78-5.42,2.1-7.67Z"/>
        <path d="M69.63,49.1c-2.33,1.34-4.27,3.27-5.62,5.59-1.32-2.25-2.09-4.88-2.1-7.67,2.81,0,5.45.76,7.72,2.08Z"/>
      </g>
      <g>
        <path d="M59.85,70.54c1.32,2.25,2.09,4.88,2.1,7.67-2.82,0-5.45-.76-7.72-2.08,2.32-1.34,4.26-3.27,5.62-5.59Z"/>
        <path d="M61.96,78.45c-.02,2.79-.78,5.42-2.1,7.67-1.35-2.32-3.29-4.25-5.62-5.59,2.27-1.32,4.9-2.07,7.72-2.08Z"/>
        <path d="M46.48,94.02c-.02,2.79-.78,5.42-2.1,7.67-1.35-2.32-3.29-4.25-5.62-5.59,2.27-1.32,4.9-2.07,7.72-2.08Z"/>
        <path d="M54.24,64.95c-2.32,1.34-4.26,3.27-5.62,5.59-1.32-2.25-2.09-4.88-2.1-7.67,2.82,0,5.45.76,7.72,2.08Z"/>
        <path d="M48.62,86.12c1.35,2.32,3.29,4.25,5.62,5.59-2.27,1.32-4.9,2.07-7.72,2.08.02-2.79.78-5.41,2.1-7.67Z"/>
        <path d="M46.48,62.87c-.02,2.79-.78,5.42-2.1,7.67-1.35-2.32-3.29-4.25-5.61-5.59,2.26-1.32,4.9-2.07,7.71-2.08Z"/>
        <path d="M44.38,86.12c1.32,2.25,2.09,4.87,2.1,7.67-2.81,0-5.45-.76-7.71-2.08,2.32-1.34,4.26-3.27,5.61-5.59Z"/>
        <path d="M33.15,70.54c1.35,2.32,3.29,4.25,5.62,5.59-2.27,1.32-4.91,2.07-7.72,2.08.02-2.79.78-5.42,2.1-7.67Z"/>
        <path d="M33.15,101.69c1.35,2.32,3.29,4.25,5.62,5.59-2.27,1.32-4.91,2.07-7.72,2.08.02-2.79.78-5.42,2.1-7.67Z"/>
        <path d="M38.77,80.53c-2.33,1.34-4.27,3.27-5.62,5.59-1.32-2.25-2.09-4.88-2.1-7.67,2.81,0,5.45.76,7.72,2.08Z"/>
      </g>
    </g>
  </g>
</svg>