<?xml version="1.0" encoding="UTF-8"?>
<svg id="_레이어_2" data-name="레이어 2" xmlns="http://www.w3.org/2000/svg" viewBox="0 0 124.77 124.27">
  <g id="_레이어_1-2" data-name="레이어 1">
    <g>
      <g>
        <path d="M116.77,95.47c-2.25-1.32-4.88-2.09-7.67-2.1,0,2.82.76,5.45,2.08,7.72,1.34-2.32,3.27-4.26,5.59-5.62Z"/>
        <path d="M108.87,93.37c-2.79.02-5.42.78-7.67,2.1,2.32,1.35,4.25,3.29,5.59,5.62,1.32-2.27,2.07-4.9,2.08-7.72Z"/>
        <path d="M122.37,101.09c-1.34,2.32-3.27,4.26-5.59,5.62,2.25,1.32,4.88,2.09,7.67,2.1,0-2.82-.76-5.45-2.08-7.72Z"/>
        <path d="M101.19,106.7c-2.32-1.35-4.25-3.29-5.59-5.62-1.32,2.27-2.07,4.9-2.08,7.72,2.79-.02,5.41-.78,7.67-2.1Z"/>
        <path d="M124.44,108.84c-2.79.02-5.42.78-7.67,2.1,2.32,1.35,4.25,3.29,5.59,5.61,1.32-2.26,2.07-4.9,2.08-7.71Z"/>
        <path d="M101.19,110.94c-2.25-1.32-4.87-2.09-7.67-2.1,0,2.81.76,5.45,2.08,7.71,1.34-2.32,3.27-4.26,5.59-5.61Z"/>
        <path d="M116.77,122.17c-2.32-1.35-4.25-3.29-5.59-5.62-1.32,2.27-2.07,4.91-2.08,7.72,2.79-.02,5.42-.78,7.67-2.1Z"/>
        <path d="M106.79,116.55c-1.34,2.33-3.27,4.27-5.59,5.62,2.25,1.32,4.88,2.09,7.67,2.1,0-2.81-.76-5.45-2.08-7.72Z"/>
        <path d="M101.15,95.47c-2.25-1.32-4.88-2.09-7.67-2.1,0,2.82.76,5.45,2.08,7.72,1.34-2.32,3.27-4.26,5.59-5.62Z"/>
        <path d="M93.25,93.37c-2.79.02-5.42.78-7.67,2.1,2.32,1.35,4.25,3.29,5.59,5.62,1.32-2.27,2.07-4.9,2.08-7.72Z"/>
        <path d="M101.15,122.17c-2.32-1.35-4.25-3.29-5.59-5.62-1.32,2.27-2.07,4.91-2.08,7.72,2.79-.02,5.42-.78,7.67-2.1Z"/>
        <path d="M91.17,116.55c-1.34,2.33-3.27,4.27-5.59,5.62,2.25,1.32,4.88,2.09,7.67,2.1,0-2.81-.76-5.45-2.08-7.72Z"/>
      </g>
      <g>
        <path d="M85.64,95.47c-2.25-1.32-4.88-2.09-7.67-2.1,0,2.82.76,5.45,2.08,7.72,1.34-2.32,3.27-4.26,5.59-5.62Z"/>
        <path d="M77.74,93.37c-2.79.02-5.42.78-7.67,2.1,2.32,1.35,4.25,3.29,5.59,5.62,1.32-2.27,2.07-4.9,2.08-7.72Z"/>
        <path d="M91.24,101.09c-1.34,2.32-3.27,4.26-5.59,5.62,2.25,1.32,4.88,2.09,7.67,2.1,0-2.82-.76-5.45-2.08-7.72Z"/>
        <path d="M70.06,106.7c-2.32-1.35-4.25-3.29-5.59-5.62-1.32,2.27-2.07,4.9-2.08,7.72,2.79-.02,5.41-.78,7.67-2.1Z"/>
        <path d="M93.31,108.84c-2.79.02-5.42.78-7.67,2.1,2.32,1.35,4.25,3.29,5.59,5.61,1.32-2.26,2.07-4.9,2.08-7.71Z"/>
        <path d="M70.06,110.94c-2.25-1.32-4.87-2.09-7.67-2.1,0,2.81.76,5.45,2.08,7.71,1.34-2.32,3.27-4.26,5.59-5.61Z"/>
        <path d="M85.64,122.17c-2.32-1.35-4.25-3.29-5.59-5.62-1.32,2.27-2.07,4.91-2.08,7.72,2.79-.02,5.42-.78,7.67-2.1Z"/>
        <path d="M75.66,116.55c-1.34,2.33-3.27,4.27-5.59,5.62,2.25,1.32,4.88,2.09,7.67,2.1,0-2.81-.76-5.45-2.08-7.72Z"/>
        <path d="M70.02,95.47c-2.25-1.32-4.88-2.09-7.67-2.1,0,2.82.76,5.45,2.08,7.72,1.34-2.32,3.27-4.26,5.59-5.62Z"/>
        <path d="M62.12,93.37c-2.79.02-5.42.78-7.67,2.1,2.32,1.35,4.25,3.29,5.59,5.62,1.32-2.27,2.07-4.9,2.08-7.72Z"/>
        <path d="M70.02,122.17c-2.32-1.35-4.25-3.29-5.59-5.62-1.32,2.27-2.07,4.91-2.08,7.72,2.79-.02,5.42-.78,7.67-2.1Z"/>
        <path d="M60.04,116.55c-1.34,2.33-3.27,4.27-5.59,5.62,2.25,1.32,4.88,2.09,7.67,2.1,0-2.81-.76-5.45-2.08-7.72Z"/>
      </g>
      <g>
        <path d="M54.44,95.47c-2.25-1.32-4.88-2.09-7.67-2.1,0,2.82.76,5.45,2.08,7.72,1.34-2.32,3.27-4.26,5.59-5.62Z"/>
        <path d="M46.54,93.37c-2.79.02-5.42.78-7.67,2.1,2.32,1.35,4.25,3.29,5.59,5.62,1.32-2.27,2.07-4.9,2.08-7.72Z"/>
        <path d="M60.04,101.09c-1.34,2.32-3.27,4.26-5.59,5.62,2.25,1.32,4.88,2.09,7.67,2.1,0-2.82-.76-5.45-2.08-7.72Z"/>
        <path d="M38.87,106.7c-2.32-1.35-4.25-3.29-5.59-5.62-1.32,2.27-2.07,4.9-2.08,7.72,2.79-.02,5.41-.78,7.67-2.1Z"/>
        <path d="M62.12,108.84c-2.79.02-5.42.78-7.67,2.1,2.32,1.35,4.25,3.29,5.59,5.61,1.32-2.26,2.07-4.9,2.08-7.71Z"/>
        <path d="M38.87,110.94c-2.25-1.32-4.87-2.09-7.67-2.1,0,2.81.76,5.45,2.08,7.71,1.34-2.32,3.27-4.26,5.59-5.61Z"/>
        <path d="M54.44,122.17c-2.32-1.35-4.25-3.29-5.59-5.62-1.32,2.27-2.07,4.91-2.08,7.72,2.79-.02,5.42-.78,7.67-2.1Z"/>
        <path d="M44.46,116.55c-1.34,2.33-3.27,4.27-5.59,5.62,2.25,1.32,4.88,2.09,7.67,2.1,0-2.81-.76-5.45-2.08-7.72Z"/>
        <path d="M38.82,95.47c-2.25-1.32-4.88-2.09-7.67-2.1,0,2.82.76,5.45,2.08,7.72,1.34-2.32,3.27-4.26,5.59-5.62Z"/>
        <path d="M30.92,93.37c-2.79.02-5.42.78-7.67,2.1,2.32,1.35,4.25,3.29,5.59,5.62,1.32-2.27,2.07-4.9,2.08-7.72Z"/>
        <path d="M38.82,122.17c-2.32-1.35-4.25-3.29-5.59-5.62-1.32,2.27-2.07,4.91-2.08,7.72,2.79-.02,5.42-.78,7.67-2.1Z"/>
        <path d="M28.84,116.55c-1.34,2.33-3.27,4.27-5.59,5.62,2.25,1.32,4.88,2.09,7.67,2.1,0-2.81-.76-5.45-2.08-7.72Z"/>
      </g>
      <g>
        <path d="M23.25,95.47c-2.25-1.32-4.88-2.09-7.67-2.1,0,2.82.76,5.45,2.08,7.72,1.34-2.32,3.27-4.26,5.59-5.62Z"/>
        <path d="M15.34,93.37c-2.79.02-5.42.78-7.67,2.1,2.32,1.35,4.25,3.29,5.59,5.62,1.32-2.27,2.07-4.9,2.08-7.72Z"/>
        <path d="M28.84,101.09c-1.34,2.32-3.27,4.26-5.59,5.62,2.25,1.32,4.88,2.09,7.67,2.1,0-2.82-.76-5.45-2.08-7.72Z"/>
        <path d="M7.67,106.7c-2.32-1.35-4.25-3.29-5.59-5.62C.76,103.36,0,105.99,0,108.8c2.79-.02,5.41-.78,7.67-2.1Z"/>
        <path d="M30.92,108.84c-2.79.02-5.42.78-7.67,2.1,2.32,1.35,4.25,3.29,5.59,5.61,1.32-2.26,2.07-4.9,2.08-7.71Z"/>
        <path d="M7.67,110.94c-2.25-1.32-4.87-2.09-7.67-2.1,0,2.81.76,5.45,2.08,7.71,1.34-2.32,3.27-4.26,5.59-5.61Z"/>
        <path d="M23.25,122.17c-2.32-1.35-4.25-3.29-5.59-5.62-1.32,2.27-2.07,4.91-2.08,7.72,2.79-.02,5.42-.78,7.67-2.1Z"/>
        <path d="M13.26,116.55c-1.34,2.33-3.27,4.27-5.59,5.62,2.25,1.32,4.88,2.09,7.67,2.1,0-2.81-.76-5.45-2.08-7.72Z"/>
      </g>
      <g>
        <path d="M117.1,2.1C114.84.78,112.22.02,109.43,0c0,2.82.76,5.45,2.08,7.72,1.34-2.32,3.27-4.26,5.59-5.62Z"/>
        <path d="M109.19,0c-2.79.02-5.42.78-7.67,2.1,2.32,1.35,4.25,3.29,5.59,5.62C108.43,5.45,109.19,2.82,109.19,0Z"/>
        <path d="M122.69,7.72c-1.34,2.32-3.27,4.26-5.59,5.62,2.25,1.32,4.88,2.09,7.67,2.1,0-2.82-.76-5.45-2.08-7.72Z"/>
        <path d="M101.52,13.33c-2.32-1.35-4.25-3.29-5.59-5.62-1.32,2.27-2.07,4.9-2.08,7.72,2.79-.02,5.41-.78,7.67-2.1Z"/>
        <path d="M124.77,15.47c-2.79.02-5.42.78-7.67,2.1,2.32,1.35,4.25,3.29,5.59,5.61,1.32-2.26,2.07-4.9,2.08-7.71Z"/>
        <path d="M101.52,17.58c-2.25-1.32-4.87-2.09-7.67-2.1,0,2.81.76,5.45,2.08,7.71,1.34-2.32,3.27-4.26,5.59-5.61Z"/>
        <path d="M117.1,28.8c-2.32-1.35-4.25-3.29-5.59-5.62-1.32,2.27-2.07,4.91-2.08,7.72,2.79-.02,5.42-.78,7.67-2.1Z"/>
        <path d="M107.11,23.19c-1.34,2.33-3.27,4.27-5.59,5.62,2.25,1.32,4.88,2.09,7.67,2.1,0-2.81-.76-5.45-2.08-7.72Z"/>
        <path d="M101.48,2.1C99.22.78,96.6.02,93.81,0c0,2.82.76,5.45,2.08,7.72,1.34-2.32,3.27-4.26,5.59-5.62Z"/>
        <path d="M93.57,0c-2.79.02-5.42.78-7.67,2.1,2.32,1.35,4.25,3.29,5.59,5.62C92.81,5.45,93.57,2.82,93.57,0Z"/>
        <path d="M101.48,28.8c-2.32-1.35-4.25-3.29-5.59-5.62-1.32,2.27-2.07,4.91-2.08,7.72,2.79-.02,5.42-.78,7.67-2.1Z"/>
        <path d="M91.49,23.19c-1.34,2.33-3.27,4.27-5.59,5.62,2.25,1.32,4.88,2.09,7.67,2.1,0-2.81-.76-5.45-2.08-7.72Z"/>
      </g>
      <g>
        <path d="M85.97,2.1C83.71.78,81.09.02,78.3,0c0,2.82.76,5.45,2.08,7.72,1.34-2.32,3.27-4.26,5.59-5.62Z"/>
        <path d="M78.06,0c-2.79.02-5.42.78-7.67,2.1,2.32,1.35,4.25,3.29,5.59,5.62C77.3,5.45,78.06,2.82,78.06,0Z"/>
        <path d="M91.56,7.72c-1.34,2.32-3.27,4.26-5.59,5.62,2.25,1.32,4.88,2.09,7.67,2.1,0-2.82-.76-5.45-2.08-7.72Z"/>
        <path d="M70.39,13.33c-2.32-1.35-4.25-3.29-5.59-5.62-1.32,2.27-2.07,4.9-2.08,7.72,2.79-.02,5.41-.78,7.67-2.1Z"/>
        <path d="M93.64,15.47c-2.79.02-5.42.78-7.67,2.1,2.32,1.35,4.25,3.29,5.59,5.61,1.32-2.26,2.07-4.9,2.08-7.71Z"/>
        <path d="M70.39,17.58c-2.25-1.32-4.87-2.09-7.67-2.1,0,2.81.76,5.45,2.08,7.71,1.34-2.32,3.27-4.26,5.59-5.61Z"/>
        <path d="M85.97,28.8c-2.32-1.35-4.25-3.29-5.59-5.62-1.32,2.27-2.07,4.91-2.08,7.72,2.79-.02,5.42-.78,7.67-2.1Z"/>
        <path d="M75.98,23.19c-1.34,2.33-3.27,4.27-5.59,5.62,2.25,1.32,4.88,2.09,7.67,2.1,0-2.81-.76-5.45-2.08-7.72Z"/>
        <path d="M70.35,2.1C68.09.78,65.47.02,62.68,0c0,2.82.76,5.45,2.08,7.72,1.34-2.32,3.27-4.26,5.59-5.62Z"/>
        <path d="M62.44,0c-2.79.02-5.42.78-7.67,2.1,2.32,1.35,4.25,3.29,5.59,5.62C61.68,5.45,62.44,2.82,62.44,0Z"/>
        <path d="M70.35,28.8c-2.32-1.35-4.25-3.29-5.59-5.62-1.32,2.27-2.07,4.91-2.08,7.72,2.79-.02,5.42-.78,7.67-2.1Z"/>
        <path d="M60.36,23.19c-1.34,2.33-3.27,4.27-5.59,5.62,2.25,1.32,4.88,2.09,7.67,2.1,0-2.81-.76-5.45-2.08-7.72Z"/>
      </g>
      <g>
        <path d="M54.77,2.1C52.52.78,49.89.02,47.1,0c0,2.82.76,5.45,2.08,7.72,1.34-2.32,3.27-4.26,5.59-5.62Z"/>
        <path d="M46.86,0c-2.79.02-5.42.78-7.67,2.1,2.32,1.35,4.25,3.29,5.59,5.62C46.11,5.45,46.86,2.82,46.86,0Z"/>
        <path d="M60.36,7.72c-1.34,2.32-3.27,4.26-5.59,5.62,2.25,1.32,4.88,2.09,7.67,2.1,0-2.82-.76-5.45-2.08-7.72Z"/>
        <path d="M39.19,13.33c-2.32-1.35-4.25-3.29-5.59-5.62-1.32,2.27-2.07,4.9-2.08,7.72,2.79-.02,5.41-.78,7.67-2.1Z"/>
        <path d="M62.44,15.47c-2.79.02-5.42.78-7.67,2.1,2.32,1.35,4.25,3.29,5.59,5.61,1.32-2.26,2.07-4.9,2.08-7.71Z"/>
        <path d="M39.19,17.58c-2.25-1.32-4.87-2.09-7.67-2.1,0,2.81.76,5.45,2.08,7.71,1.34-2.32,3.27-4.26,5.59-5.61Z"/>
        <path d="M54.77,28.8c-2.32-1.35-4.25-3.29-5.59-5.62-1.32,2.27-2.07,4.91-2.08,7.72,2.79-.02,5.42-.78,7.67-2.1Z"/>
        <path d="M44.79,23.19c-1.34,2.33-3.27,4.27-5.59,5.62,2.25,1.32,4.88,2.09,7.67,2.1,0-2.81-.76-5.45-2.08-7.72Z"/>
        <path d="M39.15,2.1C36.9.78,34.27.02,31.48,0c0,2.82.76,5.45,2.08,7.72,1.34-2.32,3.27-4.26,5.59-5.62Z"/>
        <path d="M31.24,0c-2.79.02-5.42.78-7.67,2.1,2.32,1.35,4.25,3.29,5.59,5.62C30.49,5.45,31.24,2.82,31.24,0Z"/>
        <path d="M39.15,28.8c-2.32-1.35-4.25-3.29-5.59-5.62-1.32,2.27-2.07,4.91-2.08,7.72,2.79-.02,5.42-.78,7.67-2.1Z"/>
        <path d="M29.17,23.19c-1.34,2.33-3.27,4.27-5.59,5.62,2.25,1.32,4.88,2.09,7.67,2.1,0-2.81-.76-5.45-2.08-7.72Z"/>
      </g>
      <g>
        <path d="M23.57,2.1C21.32.78,18.69.02,15.9,0c0,2.82.76,5.45,2.08,7.72,1.34-2.32,3.27-4.26,5.59-5.62Z"/>
        <path d="M15.67,0c-2.79.02-5.42.78-7.67,2.1,2.32,1.35,4.25,3.29,5.59,5.62,1.32-2.27,2.07-4.9,2.08-7.72Z"/>
        <path d="M29.17,7.72c-1.34,2.32-3.27,4.26-5.59,5.62,2.25,1.32,4.88,2.09,7.67,2.1,0-2.82-.76-5.45-2.08-7.72Z"/>
        <path d="M7.99,13.33c-2.32-1.35-4.25-3.29-5.59-5.62C1.08,9.99.33,12.62.33,15.44c2.79-.02,5.41-.78,7.67-2.1Z"/>
        <path d="M31.24,15.47c-2.79.02-5.42.78-7.67,2.1,2.32,1.35,4.25,3.29,5.59,5.61,1.32-2.26,2.07-4.9,2.08-7.71Z"/>
        <path d="M7.99,17.58c-2.25-1.32-4.87-2.09-7.67-2.1,0,2.81.76,5.45,2.08,7.71,1.34-2.32,3.27-4.26,5.59-5.61Z"/>
        <path d="M23.57,28.8c-2.32-1.35-4.25-3.29-5.59-5.62-1.32,2.27-2.07,4.91-2.08,7.72,2.79-.02,5.42-.78,7.67-2.1Z"/>
        <path d="M13.59,23.19c-1.34,2.33-3.27,4.27-5.59,5.62,2.25,1.32,4.88,2.09,7.67,2.1,0-2.81-.76-5.45-2.08-7.72Z"/>
      </g>
      <g>
        <path d="M70.46,48.65c-2.25-1.32-4.88-2.09-7.67-2.1,0,2.82.76,5.45,2.08,7.72,1.34-2.32,3.27-4.26,5.59-5.62Z"/>
        <path d="M62.56,46.55c-2.79.02-5.42.78-7.67,2.1,2.32,1.35,4.25,3.29,5.59,5.62,1.32-2.27,2.07-4.9,2.08-7.72Z"/>
        <path d="M76.06,54.27c-1.34,2.32-3.27,4.26-5.59,5.62,2.25,1.32,4.88,2.09,7.67,2.1,0-2.82-.76-5.45-2.08-7.72Z"/>
        <path d="M54.89,59.89c-2.32-1.35-4.25-3.29-5.59-5.62-1.32,2.27-2.07,4.9-2.08,7.72,2.79-.02,5.41-.78,7.67-2.1Z"/>
        <path d="M78.14,62.03c-2.79.02-5.42.78-7.67,2.1,2.32,1.35,4.25,3.29,5.59,5.61,1.32-2.26,2.07-4.9,2.08-7.71Z"/>
        <path d="M54.89,64.13c-2.25-1.32-4.87-2.09-7.67-2.1,0,2.81.76,5.45,2.08,7.71,1.34-2.32,3.27-4.26,5.59-5.61Z"/>
        <path d="M70.46,75.36c-2.32-1.35-4.25-3.29-5.59-5.62-1.32,2.27-2.07,4.91-2.08,7.72,2.79-.02,5.42-.78,7.67-2.1Z"/>
        <path d="M60.48,69.74c-1.34,2.33-3.27,4.27-5.59,5.62,2.25,1.32,4.88,2.09,7.67,2.1,0-2.81-.76-5.45-2.08-7.72Z"/>
      </g>
      <g>
        <path d="M85.92,33.19c-2.25-1.32-4.88-2.09-7.67-2.1,0,2.82.76,5.45,2.08,7.72,1.34-2.32,3.27-4.26,5.59-5.62Z"/>
        <path d="M78.02,31.09c-2.79.02-5.42.78-7.67,2.1,2.32,1.35,4.25,3.29,5.59,5.62,1.32-2.27,2.07-4.9,2.08-7.72Z"/>
        <path d="M91.52,38.81c-1.34,2.32-3.27,4.26-5.59,5.62,2.25,1.32,4.88,2.09,7.67,2.1,0-2.82-.76-5.45-2.08-7.72Z"/>
        <path d="M70.34,44.42c-2.32-1.35-4.25-3.29-5.59-5.62-1.32,2.27-2.07,4.9-2.08,7.72,2.79-.02,5.41-.78,7.67-2.1Z"/>
        <path d="M93.6,46.56c-2.79.02-5.42.78-7.67,2.1,2.32,1.35,4.25,3.29,5.59,5.61,1.32-2.26,2.07-4.9,2.08-7.71Z"/>
        <path d="M70.34,48.67c-2.25-1.32-4.87-2.09-7.67-2.1,0,2.81.76,5.45,2.08,7.71,1.34-2.32,3.27-4.26,5.59-5.61Z"/>
        <path d="M85.92,59.89c-2.32-1.35-4.25-3.29-5.59-5.62-1.32,2.27-2.07,4.91-2.08,7.72,2.79-.02,5.42-.78,7.67-2.1Z"/>
        <path d="M108.94,31.09c-2.79.02-5.42.78-7.67,2.1,2.32,1.35,4.25,3.29,5.59,5.61,1.32-2.26,2.07-4.9,2.08-7.71Z"/>
        <path d="M101.27,44.42c-2.32-1.35-4.25-3.29-5.59-5.62-1.32,2.27-2.07,4.91-2.08,7.72,2.79-.02,5.42-.78,7.67-2.1Z"/>
        <path d="M75.94,54.28c-1.34,2.33-3.27,4.27-5.59,5.62,2.25,1.32,4.88,2.09,7.67,2.1,0-2.81-.76-5.45-2.08-7.72Z"/>
      </g>
      <g>
        <path d="M54.77,64.06c-2.25-1.32-4.88-2.09-7.67-2.1,0,2.82.76,5.45,2.08,7.72,1.34-2.32,3.27-4.26,5.59-5.62Z"/>
        <path d="M46.86,61.96c-2.79.02-5.42.78-7.67,2.1,2.32,1.35,4.25,3.29,5.59,5.62,1.32-2.27,2.07-4.9,2.08-7.72Z"/>
        <path d="M31.29,77.43c-2.79.02-5.42.78-7.67,2.1,2.32,1.35,4.25,3.29,5.59,5.62,1.32-2.27,2.07-4.9,2.08-7.72Z"/>
        <path d="M60.36,69.68c-1.34,2.32-3.27,4.26-5.59,5.62,2.25,1.32,4.88,2.09,7.67,2.1,0-2.82-.76-5.45-2.08-7.72Z"/>
        <path d="M39.19,75.29c-2.32-1.35-4.25-3.29-5.59-5.62-1.32,2.27-2.07,4.9-2.08,7.72,2.79-.02,5.41-.78,7.67-2.1Z"/>
        <path d="M62.44,77.43c-2.79.02-5.42.78-7.67,2.1,2.32,1.35,4.25,3.29,5.59,5.61,1.32-2.26,2.07-4.9,2.08-7.71Z"/>
        <path d="M39.19,79.54c-2.25-1.32-4.87-2.09-7.67-2.1,0,2.81.76,5.45,2.08,7.71,1.34-2.32,3.27-4.26,5.59-5.61Z"/>
        <path d="M54.77,90.76c-2.32-1.35-4.25-3.29-5.59-5.62-1.32,2.27-2.07,4.91-2.08,7.72,2.79-.02,5.42-.78,7.67-2.1Z"/>
        <path d="M23.62,90.76c-2.32-1.35-4.25-3.29-5.59-5.62-1.32,2.27-2.07,4.91-2.08,7.72,2.79-.02,5.42-.78,7.67-2.1Z"/>
        <path d="M44.78,85.15c-1.34,2.33-3.27,4.27-5.59,5.62,2.25,1.32,4.88,2.09,7.67,2.1,0-2.81-.76-5.45-2.08-7.72Z"/>
      </g>
    </g>
  </g>
</svg>