<?xml version="1.0" encoding="UTF-8"?>
<svg id="_레이어_2" data-name="레이어 2" xmlns="http://www.w3.org/2000/svg" viewBox="0 0 57.44 57.27">
  <defs>
    <style>
      .cls-1 {
        fill: none;
        stroke: #000;
        stroke-miterlimit: 10;
        stroke-width: 5px;
      }
    </style>
  </defs>
  <g id="_레이어_1-2" data-name="레이어 1">
    <g>
      <path d="M6.32,5c.73,0,1.32.59,1.32,1.32s-.59,1.32-1.32,1.32-1.32-.59-1.32-1.32.59-1.32,1.32-1.32M6.32,0C2.83,0,0,2.83,0,6.32s2.83,6.32,6.32,6.32,6.32-2.83,6.32-6.32S9.81,0,6.32,0h0Z"/>
      <path d="M51.12,27.32c.73,0,1.32.59,1.32,1.32s-.59,1.32-1.32,1.32-1.32-.59-1.32-1.32.59-1.32,1.32-1.32M51.12,22.32c-3.49,0-6.32,2.83-6.32,6.32s2.83,6.32,6.32,6.32,6.32-2.83,6.32-6.32-2.83-6.32-6.32-6.32h0Z"/>
      <path d="M6.32,49.63c.73,0,1.32.59,1.32,1.32s-.59,1.32-1.32,1.32-1.32-.59-1.32-1.32.59-1.32,1.32-1.32M6.32,44.63c-3.49,0-6.32,2.83-6.32,6.32s2.83,6.32,6.32,6.32,6.32-2.83,6.32-6.32-2.83-6.32-6.32-6.32h0Z"/>
      <line class="cls-1" x1="6.32" y1="11.81" x2="6.32" y2="45.66"/>
      <line class="cls-1" x1="51.12" y1="1.36" x2="51.12" y2="22.32"/>
      <line class="cls-1" x1="51.12" y1="34.95" x2="51.12" y2="55.92"/>
      <line class="cls-1" x1="11.58" y1="6.32" x2="29.26" y2="6.32"/>
      <line class="cls-1" x1="11.58" y1="50.95" x2="29.26" y2="50.95"/>
    </g>
  </g>
</svg>