<?xml version="1.0" encoding="UTF-8"?>
<svg id="_레이어_2" data-name="레이어 2" xmlns="http://www.w3.org/2000/svg" viewBox="0 0 55.52 100.3">
  <defs>
    <style>
      .cls-1 {
        fill: none;
        stroke: #000;
        stroke-miterlimit: 10;
        stroke-width: 5px;
      }
    </style>
  </defs>
  <g id="_레이어_1-2" data-name="레이어 1">
    <g>
      <path d="M6.32,20.96c.73,0,1.32.59,1.32,1.32s-.59,1.32-1.32,1.32-1.32-.59-1.32-1.32.59-1.32,1.32-1.32M6.32,15.96c-3.49,0-6.32,2.83-6.32,6.32s2.83,6.32,6.32,6.32,6.32-2.83,6.32-6.32-2.83-6.32-6.32-6.32h0Z"/>
      <path d="M20.19,5c.73,0,1.32.59,1.32,1.32s-.59,1.32-1.32,1.32-1.32-.59-1.32-1.32.59-1.32,1.32-1.32M20.19,0c-3.49,0-6.32,2.83-6.32,6.32s2.83,6.32,6.32,6.32,6.32-2.83,6.32-6.32S23.68,0,20.19,0h0Z"/>
      <path d="M6.32,50.81c.73,0,1.32.59,1.32,1.32s-.59,1.32-1.32,1.32-1.32-.59-1.32-1.32.59-1.32,1.32-1.32M6.32,45.81c-3.49,0-6.32,2.83-6.32,6.32s2.83,6.32,6.32,6.32,6.32-2.83,6.32-6.32-2.83-6.32-6.32-6.32h0Z"/>
      <line class="cls-1" x1="6.32" y1="58.3" x2="6.32" y2="100.3"/>
      <line class="cls-1" x1="6.32" y1="28.45" x2="6.32" y2="46.25"/>
      <line class="cls-1" x1="55.52" y1="51.98" x2="12.2" y2="51.98"/>
      <line class="cls-1" x1="55.52" y1="6.32" x2="25.59" y2="6.32"/>
      <line class="cls-1" x1="8.82" y1="17.57" x2="15.63" y2="8.93"/>
    </g>
  </g>
</svg>