<?xml version="1.0" encoding="UTF-8"?>
<svg id="_레이어_2" data-name="레이어 2" xmlns="http://www.w3.org/2000/svg" viewBox="0 0 56.82 85.85">
  <defs>
    <style>
      .cls-1 {
        fill: none;
        stroke: #000;
        stroke-miterlimit: 10;
        stroke-width: 5px;
      }
    </style>
  </defs>
  <g id="_레이어_1-2" data-name="레이어 1">
    <g>
      <path d="M6.32,5c.73,0,1.32.59,1.32,1.32s-.59,1.32-1.32,1.32-1.32-.59-1.32-1.32.59-1.32,1.32-1.32M6.32,0C2.83,0,0,2.83,0,6.32s2.83,6.32,6.32,6.32,6.32-2.83,6.32-6.32S9.81,0,6.32,0h0Z"/>
      <path d="M50.5,5c.73,0,1.32.59,1.32,1.32s-.59,1.32-1.32,1.32-1.32-.59-1.32-1.32.59-1.32,1.32-1.32M50.5,0c-3.49,0-6.32,2.83-6.32,6.32s2.83,6.32,6.32,6.32,6.32-2.83,6.32-6.32-2.83-6.32-6.32-6.32h0Z"/>
      <path d="M6.32,46.57c.73,0,1.32.59,1.32,1.32s-.59,1.32-1.32,1.32-1.32-.59-1.32-1.32.59-1.32,1.32-1.32M6.32,41.57c-3.49,0-6.32,2.83-6.32,6.32s2.83,6.32,6.32,6.32,6.32-2.83,6.32-6.32-2.83-6.32-6.32-6.32h0Z"/>
      <path d="M50.5,46.57c.73,0,1.32.59,1.32,1.32s-.59,1.32-1.32,1.32-1.32-.59-1.32-1.32.59-1.32,1.32-1.32M50.5,41.57c-3.49,0-6.32,2.83-6.32,6.32s2.83,6.32,6.32,6.32,6.32-2.83,6.32-6.32-2.83-6.32-6.32-6.32h0Z"/>
      <path d="M50.5,78.21c.73,0,1.32.59,1.32,1.32s-.59,1.32-1.32,1.32-1.32-.59-1.32-1.32.59-1.32,1.32-1.32M50.5,73.21c-3.49,0-6.32,2.83-6.32,6.32s2.83,6.32,6.32,6.32,6.32-2.83,6.32-6.32-2.83-6.32-6.32-6.32h0Z"/>
      <line class="cls-1" x1="44.96" y1="6.32" x2="11.86" y2="6.32"/>
      <line class="cls-1" x1="44.96" y1="47.88" x2="11.86" y2="47.88"/>
      <line class="cls-1" x1="46.3" y1="79.53" x2="1.46" y2="79.53"/>
      <line class="cls-1" x1="6.32" y1="11.42" x2="6.32" y2="42.78"/>
      <line class="cls-1" x1="50.5" y1="11.42" x2="50.5" y2="42.78"/>
      <line class="cls-1" x1="50.5" y1="53.18" x2="50.5" y2="74.06"/>
    </g>
  </g>
</svg>