<?xml version="1.0" encoding="UTF-8"?>
<svg id="_레이어_2" data-name="레이어 2" xmlns="http://www.w3.org/2000/svg" viewBox="0 0 55.26 100.62">
  <defs>
    <style>
      .cls-1 {
        fill: none;
        stroke: #000;
        stroke-miterlimit: 10;
        stroke-width: 5px;
      }
    </style>
  </defs>
  <g id="_레이어_1-2" data-name="레이어 1">
    <g>
      <path d="M24.51,61.71c.73,0,1.32.59,1.32,1.32s-.59,1.32-1.32,1.32-1.32-.59-1.32-1.32.59-1.32,1.32-1.32M24.51,56.71c-3.49,0-6.32,2.83-6.32,6.32s2.83,6.32,6.32,6.32,6.32-2.83,6.32-6.32-2.83-6.32-6.32-6.32h0Z"/>
      <path d="M6.32,61.71c.73,0,1.32.59,1.32,1.32s-.59,1.32-1.32,1.32-1.32-.59-1.32-1.32.59-1.32,1.32-1.32M6.32,56.71c-3.49,0-6.32,2.83-6.32,6.32s2.83,6.32,6.32,6.32,6.32-2.83,6.32-6.32-2.83-6.32-6.32-6.32h0Z"/>
      <line class="cls-1" x1="18.63" y1="63.03" x2="11.53" y2="63.03"/>
      <line class="cls-1" x1="6.32" x2="6.32" y2="56.91"/>
      <line class="cls-1" x1="6.32" y1="69.12" x2="6.32" y2="100.62"/>
      <line class="cls-1" x1="27.57" y1="58.85" x2="53.46" y2="31.73"/>
      <line class="cls-1" x1="26.69" y1="67.4" x2="52.93" y2="96.36"/>
    </g>
  </g>
</svg>