<?xml version="1.0" encoding="UTF-8"?>
<svg id="_레이어_2" data-name="레이어 2" xmlns="http://www.w3.org/2000/svg" viewBox="0 0 72.04 56.68">
  <defs>
    <style>
      .cls-1 {
        fill: none;
        stroke: #000;
        stroke-miterlimit: 10;
        stroke-width: 5px;
      }
    </style>
  </defs>
  <g id="_레이어_1-2" data-name="레이어 1">
    <g>
      <path d="M6.32,5c.73,0,1.32.59,1.32,1.32s-.59,1.32-1.32,1.32-1.32-.59-1.32-1.32.59-1.32,1.32-1.32M6.32,0C2.83,0,0,2.83,0,6.32s2.83,6.32,6.32,6.32,6.32-2.83,6.32-6.32S9.81,0,6.32,0h0Z"/>
      <path d="M23.14,5c.73,0,1.32.59,1.32,1.32s-.59,1.32-1.32,1.32-1.32-.59-1.32-1.32.59-1.32,1.32-1.32M23.14,0c-3.49,0-6.32,2.83-6.32,6.32s2.83,6.32,6.32,6.32,6.32-2.83,6.32-6.32S26.63,0,23.14,0h0Z"/>
      <path d="M35.89,35.88c.73,0,1.32.59,1.32,1.32s-.59,1.32-1.32,1.32-1.32-.59-1.32-1.32.59-1.32,1.32-1.32M35.89,30.88c-3.49,0-6.32,2.83-6.32,6.32s2.83,6.32,6.32,6.32,6.32-2.83,6.32-6.32-2.83-6.32-6.32-6.32h0Z"/>
      <line class="cls-1" x1="6.32" y1="11.79" x2="6.32" y2="56.68"/>
      <line class="cls-1" x1="12.11" y1="6.32" x2="17.63" y2="6.32"/>
      <line class="cls-1" x1="26.06" y1="11.15" x2="33.65" y2="32.31"/>
      <path d="M65.73,5c.73,0,1.32.59,1.32,1.32s-.59,1.32-1.32,1.32-1.32-.59-1.32-1.32.59-1.32,1.32-1.32M65.73,0c-3.49,0-6.32,2.83-6.32,6.32s2.83,6.32,6.32,6.32,6.32-2.83,6.32-6.32-2.83-6.32-6.32-6.32h0Z"/>
      <path d="M48.9,5c.73,0,1.32.59,1.32,1.32s-.59,1.32-1.32,1.32-1.32-.59-1.32-1.32.59-1.32,1.32-1.32M48.9,0c-3.49,0-6.32,2.83-6.32,6.32s2.83,6.32,6.32,6.32,6.32-2.83,6.32-6.32-2.83-6.32-6.32-6.32h0Z"/>
      <line class="cls-1" x1="65.73" y1="11.79" x2="65.73" y2="56.68"/>
      <line class="cls-1" x1="60.38" y1="6.32" x2="54.61" y2="6.32"/>
      <line class="cls-1" x1="45.98" y1="11.15" x2="38.24" y2="32.27"/>
    </g>
  </g>
</svg>