<?xml version="1.0" encoding="UTF-8"?>
<svg id="_레이어_2" data-name="레이어 2" xmlns="http://www.w3.org/2000/svg" viewBox="0 0 72.04 56.68">
  <defs>
    <style>
      .cls-1 {
        fill: none;
        stroke: #000;
        stroke-miterlimit: 10;
        stroke-width: 5px;
      }
    </style>
  </defs>
  <g id="_레이어_1-2" data-name="레이어 1">
    <g>
      <path d="M65.73,49.04c.73,0,1.32.59,1.32,1.32s-.59,1.32-1.32,1.32-1.32-.59-1.32-1.32.59-1.32,1.32-1.32M65.73,44.04c-3.49,0-6.32,2.83-6.32,6.32s2.83,6.32,6.32,6.32,6.32-2.83,6.32-6.32-2.83-6.32-6.32-6.32h0Z"/>
      <path d="M48.9,49.04c.73,0,1.32.59,1.32,1.32s-.59,1.32-1.32,1.32-1.32-.59-1.32-1.32.59-1.32,1.32-1.32M48.9,44.04c-3.49,0-6.32,2.83-6.32,6.32s2.83,6.32,6.32,6.32,6.32-2.83,6.32-6.32-2.83-6.32-6.32-6.32h0Z"/>
      <path d="M36.15,18.16c.73,0,1.32.59,1.32,1.32s-.59,1.32-1.32,1.32-1.32-.59-1.32-1.32.59-1.32,1.32-1.32M36.15,13.16c-3.49,0-6.32,2.83-6.32,6.32s2.83,6.32,6.32,6.32,6.32-2.83,6.32-6.32-2.83-6.32-6.32-6.32h0Z"/>
      <line class="cls-1" x1="65.73" y1="45.2" x2="65.73" y2="0"/>
      <line class="cls-1" x1="60.21" y1="50.36" x2="54.42" y2="50.36"/>
      <line class="cls-1" x1="46.1" y1="45.98" x2="38.72" y2="24.12"/>
      <path d="M6.32,49.04c.73,0,1.32.59,1.32,1.32s-.59,1.32-1.32,1.32-1.32-.59-1.32-1.32.59-1.32,1.32-1.32M6.32,44.04c-3.49,0-6.32,2.83-6.32,6.32s2.83,6.32,6.32,6.32,6.32-2.83,6.32-6.32-2.83-6.32-6.32-6.32h0Z"/>
      <path d="M23.14,49.04c.73,0,1.32.59,1.32,1.32s-.59,1.32-1.32,1.32-1.32-.59-1.32-1.32.59-1.32,1.32-1.32M23.14,44.04c-3.49,0-6.32,2.83-6.32,6.32s2.83,6.32,6.32,6.32,6.32-2.83,6.32-6.32-2.83-6.32-6.32-6.32h0Z"/>
      <line class="cls-1" x1="6.32" y1="45.2" x2="6.32" y2="0"/>
      <line class="cls-1" x1="12.01" y1="50.36" x2="17.44" y2="50.36"/>
      <line class="cls-1" x1="26.29" y1="45.73" x2="33.32" y2="24.12"/>
    </g>
  </g>
</svg>