<?xml version="1.0" encoding="UTF-8"?>
<svg id="_레이어_2" data-name="레이어 2" xmlns="http://www.w3.org/2000/svg" viewBox="0 0 73.17 57.8">
  <defs>
    <style>
      .cls-1 {
        fill: none;
        stroke: #000;
        stroke-miterlimit: 10;
        stroke-width: 5px;
      }
    </style>
  </defs>
  <g id="_레이어_1-2" data-name="레이어 1">
    <g>
      <path d="M52.99,5c.73,0,1.32.59,1.32,1.32s-.59,1.32-1.32,1.32-1.32-.59-1.32-1.32.59-1.32,1.32-1.32M52.99,0c-3.49,0-6.32,2.83-6.32,6.32s2.83,6.32,6.32,6.32,6.32-2.83,6.32-6.32-2.83-6.32-6.32-6.32h0Z"/>
      <path d="M19.81,5c.73,0,1.32.59,1.32,1.32s-.59,1.32-1.32,1.32-1.32-.59-1.32-1.32.59-1.32,1.32-1.32M19.81,0c-3.49,0-6.32,2.83-6.32,6.32s2.83,6.32,6.32,6.32,6.32-2.83,6.32-6.32S23.3,0,19.81,0h0Z"/>
      <path d="M35.43,20.5c.73,0,1.32.59,1.32,1.32s-.59,1.32-1.32,1.32-1.32-.59-1.32-1.32.59-1.32,1.32-1.32M35.43,15.5c-3.49,0-6.32,2.83-6.32,6.32s2.83,6.32,6.32,6.32,6.32-2.83,6.32-6.32-2.83-6.32-6.32-6.32h0Z"/>
      <line class="cls-1" x1="32.58" y1="24.66" x2="3.26" y2="56.09"/>
      <line class="cls-1" x1="38.59" y1="25.13" x2="67.43" y2="56.09"/>
      <line class="cls-1" x1="23.89" y1="7.89" x2="32.47" y2="18.03"/>
      <line class="cls-1" x1="38.59" y1="18.98" x2="49.42" y2="8.15"/>
      <line class="cls-1" x1="58.25" y1="6.32" x2="73.17" y2="6.32"/>
      <line class="cls-1" y1="6.32" x2="14.92" y2="6.32"/>
    </g>
  </g>
</svg>