<?xml version="1.0" encoding="UTF-8"?>
<svg id="_레이어_2" data-name="레이어 2" xmlns="http://www.w3.org/2000/svg" viewBox="0 0 73.12 73.49">
  <g id="_레이어_1-2" data-name="레이어 1">
    <g>
      <path d="M67.5,0c2.32,1.34,4.26,3.27,5.62,5.59-1.35,2.32-3.29,4.25-5.62,5.59-2.32-1.34-4.26-3.27-5.61-5.59,1.35-2.32,3.29-4.25,5.61-5.59Z"/>
      <path d="M67.5,15.58c2.32,1.34,4.26,3.27,5.62,5.59-1.35,2.32-3.29,4.25-5.62,5.59-2.32-1.34-4.26-3.27-5.61-5.59,1.35-2.32,3.29-4.25,5.61-5.59Z"/>
      <path d="M67.5,31.15c2.32,1.34,4.26,3.27,5.62,5.59-1.35,2.32-3.29,4.25-5.62,5.59-2.32-1.34-4.26-3.28-5.61-5.59,1.35-2.32,3.29-4.25,5.61-5.59Z"/>
      <path d="M67.5,46.73c2.33,1.34,4.27,3.27,5.62,5.59-1.36,2.32-3.3,4.25-5.62,5.59-2.32-1.34-4.26-3.27-5.62-5.59,1.35-2.32,3.29-4.25,5.62-5.59Z"/>
      <path d="M67.5,62.3c2.32,1.34,4.26,3.27,5.62,5.59-1.35,2.32-3.29,4.25-5.62,5.59-2.32-1.34-4.26-3.27-5.61-5.59,1.35-2.32,3.29-4.25,5.61-5.59Z"/>
      <path d="M52.03,0c2.32,1.34,4.26,3.27,5.61,5.59-1.35,2.32-3.29,4.25-5.61,5.59-2.33-1.34-4.27-3.27-5.62-5.59,1.35-2.32,3.29-4.25,5.62-5.59Z"/>
      <path d="M52.03,15.58c2.32,1.34,4.26,3.27,5.61,5.59-1.35,2.32-3.29,4.25-5.61,5.59-2.33-1.34-4.27-3.27-5.62-5.59,1.35-2.32,3.29-4.25,5.62-5.59Z"/>
      <path d="M52.03,31.15c2.32,1.34,4.26,3.28,5.61,5.59-1.35,2.32-3.29,4.25-5.61,5.59-2.33-1.34-4.26-3.27-5.62-5.59,1.35-2.32,3.29-4.25,5.62-5.59Z"/>
      <path d="M52.03,46.73c2.33,1.34,4.26,3.28,5.62,5.59-1.35,2.32-3.29,4.25-5.62,5.59-2.33-1.34-4.26-3.27-5.62-5.59,1.35-2.32,3.29-4.25,5.62-5.59Z"/>
      <path d="M52.03,62.3c2.32,1.34,4.26,3.27,5.61,5.59-1.35,2.32-3.29,4.25-5.61,5.59-2.33-1.34-4.26-3.27-5.62-5.59,1.35-2.32,3.29-4.25,5.62-5.59Z"/>
      <path d="M36.56,0c2.32,1.34,4.26,3.27,5.61,5.59-1.35,2.32-3.29,4.25-5.61,5.59-2.33-1.34-4.27-3.27-5.62-5.59,1.35-2.32,3.29-4.25,5.62-5.59Z"/>
      <path d="M36.56,15.58c2.32,1.34,4.26,3.27,5.61,5.59-1.35,2.32-3.29,4.25-5.61,5.59-2.33-1.34-4.27-3.27-5.62-5.59,1.35-2.32,3.29-4.25,5.62-5.59Z"/>
      <path d="M36.56,46.73c2.32,1.34,4.26,3.28,5.62,5.59-1.36,2.32-3.29,4.25-5.62,5.59-2.33-1.34-4.26-3.27-5.62-5.59,1.35-2.32,3.29-4.25,5.62-5.59Z"/>
      <path d="M36.56,62.3c2.32,1.34,4.26,3.27,5.61,5.59-1.35,2.32-3.29,4.25-5.61,5.59-2.33-1.34-4.26-3.27-5.62-5.59,1.35-2.32,3.29-4.25,5.62-5.59Z"/>
      <path d="M21.09,0c2.32,1.34,4.26,3.27,5.61,5.59-1.35,2.32-3.29,4.25-5.61,5.59-2.33-1.34-4.26-3.27-5.62-5.59C16.83,3.28,18.76,1.35,21.09,0Z"/>
      <path d="M21.09,15.58c2.32,1.34,4.26,3.27,5.61,5.59-1.35,2.32-3.29,4.25-5.61,5.59-2.33-1.34-4.26-3.27-5.62-5.59,1.35-2.32,3.29-4.25,5.62-5.59Z"/>
      <path d="M21.09,31.15c2.32,1.34,4.26,3.28,5.61,5.59-1.35,2.32-3.29,4.25-5.61,5.59-2.33-1.34-4.26-3.28-5.62-5.59,1.35-2.32,3.29-4.25,5.62-5.59Z"/>
      <path d="M21.09,46.73c2.33,1.34,4.26,3.28,5.62,5.59-1.35,2.32-3.29,4.25-5.62,5.59-2.33-1.34-4.26-3.27-5.62-5.59,1.35-2.32,3.29-4.25,5.62-5.59Z"/>
      <path d="M21.09,62.3c2.32,1.34,4.26,3.27,5.61,5.59-1.35,2.32-3.29,4.25-5.61,5.59-2.33-1.34-4.26-3.27-5.62-5.59,1.35-2.32,3.29-4.25,5.62-5.59Z"/>
      <path d="M5.63,0c2.33,1.34,4.27,3.27,5.62,5.59-1.35,2.32-3.29,4.26-5.62,5.6C3.3,9.85,1.36,7.92,0,5.59,1.36,3.27,3.3,1.34,5.63,0Z"/>
      <path d="M5.63,15.57c2.33,1.34,4.27,3.27,5.62,5.59-1.35,2.32-3.29,4.26-5.62,5.6C3.3,25.43,1.36,23.49,0,21.17c1.35-2.32,3.29-4.25,5.62-5.59Z"/>
      <path d="M5.63,31.15c2.33,1.34,4.27,3.28,5.62,5.6-1.35,2.32-3.29,4.26-5.62,5.6-2.33-1.34-4.27-3.28-5.62-5.6,1.35-2.32,3.29-4.26,5.62-5.6Z"/>
      <path d="M5.63,46.73c2.33,1.34,4.28,3.28,5.63,5.6-1.36,2.32-3.3,4.25-5.63,5.59-2.33-1.34-4.27-3.27-5.63-5.59,1.35-2.32,3.3-4.26,5.63-5.6Z"/>
      <path d="M5.63,62.3c2.33,1.34,4.27,3.28,5.62,5.6-1.35,2.32-3.29,4.25-5.62,5.59-2.33-1.34-4.27-3.27-5.62-5.59,1.35-2.32,3.29-4.26,5.62-5.6Z"/>
    </g>
  </g>
</svg>