<?xml version="1.0" encoding="UTF-8"?>
<svg id="_레이어_2" data-name="레이어 2" xmlns="http://www.w3.org/2000/svg" viewBox="0 0 73.11 104.65">
  <g id="_레이어_1-2" data-name="레이어 1">
    <g>
      <path d="M67.49,0c2.32,1.34,4.26,3.28,5.62,5.59-1.36,2.32-3.3,4.25-5.62,5.59-2.32-1.34-4.26-3.27-5.62-5.59,1.36-2.32,3.3-4.25,5.62-5.59Z"/>
      <path d="M67.49,15.58c2.32,1.34,4.26,3.27,5.62,5.59-1.35,2.32-3.29,4.25-5.62,5.59-2.32-1.34-4.26-3.27-5.62-5.59,1.35-2.32,3.29-4.25,5.62-5.59Z"/>
      <path d="M67.49,31.16c2.33,1.34,4.27,3.28,5.62,5.59-1.36,2.32-3.3,4.25-5.62,5.59-2.32-1.34-4.26-3.27-5.62-5.59,1.35-2.32,3.29-4.25,5.62-5.59Z"/>
      <path d="M67.49,46.73c2.33,1.34,4.27,3.28,5.62,5.6-1.36,2.32-3.3,4.25-5.62,5.59-2.32-1.34-4.26-3.27-5.62-5.59,1.35-2.32,3.29-4.26,5.62-5.6Z"/>
      <path d="M67.49,62.31c2.32,1.34,4.26,3.27,5.62,5.59-1.35,2.32-3.29,4.25-5.62,5.59-2.32-1.34-4.26-3.27-5.62-5.59,1.35-2.32,3.29-4.25,5.62-5.59Z"/>
      <path d="M67.49,77.88c2.32,1.34,4.26,3.27,5.62,5.59-1.36,2.32-3.3,4.25-5.62,5.59-2.32-1.34-4.26-3.28-5.62-5.59,1.36-2.32,3.3-4.25,5.62-5.59Z"/>
      <path d="M67.49,93.46c2.32,1.34,4.26,3.28,5.62,5.59-1.36,2.32-3.3,4.25-5.62,5.59-2.32-1.34-4.26-3.27-5.62-5.59,1.36-2.32,3.3-4.25,5.62-5.59Z"/>
      <path d="M52.03,0c2.33,1.35,4.27,3.28,5.63,5.6-1.36,2.32-3.3,4.26-5.63,5.6-2.33-1.34-4.27-3.28-5.63-5.6,1.36-2.32,3.3-4.25,5.63-5.6Z"/>
      <path d="M52.03,15.58c2.33,1.34,4.27,3.28,5.62,5.59-1.35,2.32-3.29,4.26-5.62,5.6-2.33-1.34-4.27-3.28-5.62-5.6,1.35-2.32,3.29-4.25,5.62-5.59Z"/>
      <path d="M52.03,31.15c2.33,1.34,4.28,3.28,5.63,5.6-1.36,2.32-3.3,4.25-5.63,5.6-2.33-1.35-4.27-3.28-5.63-5.6,1.35-2.32,3.29-4.26,5.63-5.6Z"/>
      <path d="M52.03,46.73c2.33,1.35,4.28,3.28,5.63,5.6-1.36,2.32-3.3,4.25-5.63,5.59-2.33-1.34-4.27-3.28-5.63-5.59,1.35-2.32,3.29-4.26,5.63-5.6Z"/>
      <path d="M52.03,62.3c2.33,1.34,4.27,3.28,5.62,5.6-1.35,2.32-3.29,4.25-5.62,5.59-2.33-1.34-4.27-3.28-5.62-5.59,1.35-2.32,3.29-4.26,5.62-5.6Z"/>
      <path d="M52.03,77.88c2.33,1.34,4.27,3.28,5.63,5.6-1.36,2.32-3.3,4.25-5.63,5.6-2.33-1.35-4.27-3.28-5.63-5.6,1.36-2.32,3.3-4.26,5.63-5.6Z"/>
      <path d="M52.03,93.45c2.33,1.35,4.27,3.28,5.63,5.6-1.36,2.32-3.3,4.26-5.63,5.6-2.33-1.34-4.27-3.28-5.63-5.6,1.36-2.32,3.3-4.25,5.63-5.6Z"/>
      <path d="M36.56,0c2.32,1.34,4.26,3.28,5.62,5.59-1.36,2.32-3.3,4.25-5.62,5.59-2.32-1.34-4.26-3.27-5.62-5.59,1.36-2.32,3.3-4.25,5.62-5.59Z"/>
      <path d="M36.56,15.58c2.32,1.34,4.26,3.27,5.62,5.59-1.35,2.32-3.29,4.25-5.62,5.59-2.32-1.34-4.26-3.27-5.62-5.59,1.35-2.32,3.29-4.25,5.62-5.59Z"/>
      <path d="M36.56,31.16c2.33,1.34,4.27,3.28,5.62,5.59-1.36,2.32-3.3,4.25-5.62,5.59-2.32-1.34-4.26-3.27-5.62-5.59,1.35-2.32,3.29-4.25,5.62-5.59Z"/>
      <path d="M36.56,46.73c2.33,1.34,4.27,3.28,5.62,5.6-1.36,2.32-3.3,4.25-5.62,5.59-2.32-1.34-4.26-3.27-5.62-5.59,1.35-2.32,3.29-4.26,5.62-5.6Z"/>
      <path d="M21.1,0c2.32,1.34,4.26,3.28,5.62,5.59-1.35,2.32-3.29,4.25-5.62,5.59-2.33-1.34-4.27-3.27-5.62-5.59C16.83,3.28,18.77,1.35,21.1,0Z"/>
      <path d="M21.1,15.58c2.32,1.34,4.26,3.27,5.61,5.59-1.35,2.32-3.29,4.25-5.61,5.59-2.33-1.34-4.27-3.27-5.62-5.59,1.35-2.32,3.29-4.25,5.62-5.59Z"/>
      <path d="M21.1,31.16c2.32,1.34,4.26,3.28,5.62,5.59-1.36,2.32-3.29,4.25-5.62,5.59-2.33-1.34-4.26-3.27-5.62-5.59,1.35-2.32,3.29-4.25,5.62-5.59Z"/>
      <path d="M21.1,46.73c2.32,1.35,4.26,3.28,5.62,5.6-1.36,2.32-3.29,4.25-5.62,5.59-2.33-1.34-4.26-3.27-5.62-5.59,1.35-2.32,3.29-4.26,5.62-5.6Z"/>
      <path d="M5.62,0c2.33,1.34,4.26,3.28,5.62,5.59-1.36,2.32-3.29,4.25-5.62,5.59C3.29,9.85,1.36,7.92,0,5.6,1.36,3.28,3.29,1.35,5.62,0Z"/>
      <path d="M5.62,15.58c2.33,1.34,4.26,3.27,5.62,5.59-1.35,2.32-3.29,4.25-5.62,5.59C3.29,25.43,1.36,23.5,0,21.17c1.35-2.32,3.29-4.25,5.62-5.59Z"/>
      <path d="M5.62,31.16c2.33,1.34,4.27,3.28,5.62,5.59-1.36,2.32-3.29,4.25-5.62,5.59-2.33-1.34-4.26-3.28-5.62-5.59,1.35-2.32,3.29-4.25,5.62-5.59Z"/>
      <path d="M5.62,46.73c2.33,1.35,4.27,3.28,5.62,5.6-1.36,2.32-3.29,4.25-5.62,5.59-2.33-1.34-4.26-3.27-5.62-5.59,1.35-2.32,3.29-4.25,5.62-5.6Z"/>
    </g>
  </g>
</svg>