<?xml version="1.0" encoding="UTF-8"?>
<svg id="_레이어_2" data-name="레이어 2" xmlns="http://www.w3.org/2000/svg" viewBox="0 0 92.82 109.02">
  <g id="_레이어_1-2" data-name="레이어 1">
    <g>
      <g>
        <path d="M87.2,0c1.35,2.32,3.29,4.25,5.62,5.59-2.27,1.32-4.91,2.07-7.72,2.08.02-2.8.78-5.42,2.1-7.67Z"/>
        <path d="M92.82,9.98c-2.33,1.34-4.26,3.27-5.62,5.59-1.32-2.25-2.09-4.87-2.1-7.67,2.81,0,5.45.76,7.72,2.08Z"/>
        <path d="M82.96,0c1.32,2.25,2.09,4.87,2.1,7.67-2.81,0-5.45-.76-7.72-2.08,2.33-1.34,4.26-3.27,5.62-5.59Z"/>
        <path d="M85.06,7.91c-.02,2.79-.78,5.41-2.1,7.67-1.35-2.32-3.29-4.25-5.62-5.59,2.27-1.32,4.91-2.07,7.72-2.08Z"/>
        <path d="M71.73,0c1.35,2.32,3.29,4.25,5.62,5.59-2.27,1.32-4.91,2.07-7.72,2.08.02-2.8.78-5.42,2.1-7.67Z"/>
        <path d="M77.34,9.98c-2.33,1.34-4.26,3.27-5.62,5.59-1.32-2.25-2.09-4.87-2.1-7.67,2.81,0,5.45.76,7.72,2.08Z"/>
        <path d="M67.48,0c1.32,2.25,2.09,4.87,2.1,7.67-2.81,0-5.45-.76-7.72-2.08,2.33-1.34,4.27-3.27,5.62-5.59Z"/>
        <path d="M69.59,7.91c-.02,2.79-.78,5.41-2.1,7.67-1.35-2.32-3.29-4.25-5.62-5.59,2.27-1.32,4.91-2.07,7.72-2.08Z"/>
        <path d="M56.26,0c1.35,2.32,3.29,4.25,5.61,5.59-2.26,1.32-4.9,2.07-7.71,2.08.02-2.8.78-5.42,2.1-7.67Z"/>
        <path d="M61.87,9.98c-2.32,1.34-4.26,3.27-5.61,5.59-1.32-2.25-2.09-4.87-2.1-7.67,2.81,0,5.45.76,7.71,2.08Z"/>
        <path d="M52.01,0c1.32,2.25,2.09,4.87,2.1,7.67-2.82,0-5.45-.76-7.72-2.08,2.32-1.34,4.26-3.27,5.62-5.59Z"/>
        <path d="M54.12,7.91c-.02,2.79-.78,5.41-2.1,7.67-1.35-2.32-3.29-4.25-5.62-5.59,2.27-1.32,4.9-2.07,7.72-2.08Z"/>
        <path d="M40.78,0c1.35,2.32,3.29,4.25,5.62,5.59-2.27,1.32-4.9,2.07-7.72,2.08.02-2.8.78-5.42,2.1-7.67Z"/>
        <path d="M46.4,9.98c-2.32,1.34-4.26,3.27-5.62,5.59-1.32-2.25-2.09-4.87-2.1-7.67,2.82,0,5.45.76,7.72,2.08Z"/>
        <path d="M36.54,0c1.32,2.25,2.09,4.87,2.1,7.67-2.81,0-5.45-.76-7.71-2.08,2.32-1.34,4.26-3.27,5.61-5.59Z"/>
        <path d="M38.64,7.91c-.02,2.79-.78,5.41-2.1,7.67-1.35-2.32-3.29-4.25-5.61-5.59,2.26-1.32,4.9-2.07,7.71-2.08Z"/>
        <path d="M25.31,0c1.35,2.32,3.29,4.25,5.62,5.59-2.27,1.32-4.91,2.07-7.72,2.08.02-2.8.78-5.42,2.1-7.67Z"/>
        <path d="M30.93,9.98c-2.33,1.34-4.26,3.27-5.62,5.59-1.32-2.25-2.09-4.87-2.1-7.67,2.81,0,5.45.76,7.72,2.08Z"/>
        <path d="M21.08,0c1.32,2.25,2.09,4.87,2.1,7.67-2.81,0-5.45-.75-7.72-2.07,2.33-1.34,4.27-3.28,5.62-5.6Z"/>
        <path d="M23.19,7.91c-.02,2.79-.78,5.41-2.1,7.67-1.35-2.32-3.29-4.25-5.62-5.59,2.28-1.32,4.91-2.07,7.72-2.07Z"/>
        <path d="M9.84,0c1.35,2.32,3.29,4.26,5.62,5.6-2.27,1.32-4.91,2.07-7.72,2.07.02-2.8.78-5.42,2.1-7.67Z"/>
        <path d="M15.46,9.98c-2.33,1.34-4.27,3.27-5.62,5.59-1.32-2.25-2.09-4.87-2.1-7.67,2.82,0,5.45.75,7.72,2.07Z"/>
        <path d="M9.84,15.57c1.35,2.32,3.29,4.26,5.62,5.6-2.27,1.32-4.91,2.07-7.72,2.07.02-2.79.78-5.42,2.1-7.67Z"/>
        <path d="M15.46,25.55c-2.33,1.34-4.27,3.28-5.62,5.6-1.32-2.25-2.09-4.88-2.1-7.67,2.82,0,5.45.75,7.72,2.07Z"/>
        <path d="M9.84,31.15c1.35,2.32,3.29,4.26,5.62,5.6-2.27,1.32-4.91,2.07-7.72,2.07.02-2.79.78-5.42,2.1-7.67Z"/>
        <path d="M15.46,41.13c-2.33,1.34-4.28,3.28-5.63,5.6-1.32-2.25-2.08-4.88-2.1-7.67,2.82,0,5.45.75,7.72,2.07Z"/>
        <path d="M9.84,46.73c1.36,2.32,3.3,4.25,5.63,5.59-2.27,1.32-4.91,2.07-7.72,2.07.02-2.79.78-5.41,2.1-7.67Z"/>
        <path d="M15.46,56.7c-2.33,1.34-4.27,3.28-5.62,5.6-1.32-2.25-2.09-4.88-2.1-7.67,2.82,0,5.45.75,7.72,2.07Z"/>
        <path d="M9.84,62.3c1.35,2.32,3.29,4.25,5.62,5.59-2.27,1.32-4.91,2.07-7.72,2.07.02-2.79.78-5.41,2.1-7.67Z"/>
        <path d="M15.46,72.28c-2.33,1.34-4.27,3.28-5.63,5.6-1.32-2.25-2.08-4.87-2.1-7.67,2.82,0,5.45.75,7.72,2.07Z"/>
        <path d="M9.84,77.88c1.36,2.32,3.3,4.26,5.63,5.6-2.27,1.32-4.91,2.07-7.72,2.07.02-2.8.78-5.42,2.1-7.67Z"/>
        <path d="M15.46,87.86c-2.33,1.34-4.27,3.27-5.62,5.59-1.32-2.25-2.09-4.87-2.1-7.67,2.82,0,5.45.75,7.72,2.07Z"/>
        <path d="M9.84,93.45c1.35,2.32,3.29,4.26,5.62,5.6-2.27,1.32-4.91,2.07-7.72,2.07.02-2.8.78-5.42,2.1-7.67Z"/>
        <path d="M15.46,103.43c-2.33,1.34-4.27,3.27-5.62,5.59-1.32-2.25-2.09-4.87-2.1-7.67,2.82,0,5.45.75,7.72,2.07Z"/>
        <path d="M5.61,0c1.32,2.25,2.09,4.87,2.1,7.67-2.81,0-5.45-.76-7.71-2.08C2.32,4.25,4.26,2.32,5.61,0Z"/>
        <path d="M7.71,7.91c-.02,2.79-.78,5.41-2.1,7.67-1.35-2.32-3.29-4.25-5.61-5.59,2.26-1.32,4.9-2.07,7.71-2.08Z"/>
        <path d="M5.61,15.57c1.32,2.25,2.09,4.88,2.1,7.67-2.81,0-5.45-.76-7.71-2.08,2.32-1.34,4.26-3.27,5.61-5.59Z"/>
        <path d="M7.71,23.48c-.02,2.79-.78,5.42-2.1,7.67-1.35-2.32-3.29-4.25-5.61-5.59,2.26-1.32,4.9-2.07,7.71-2.08Z"/>
        <path d="M5.61,31.15c1.32,2.25,2.09,4.88,2.1,7.67-2.81,0-5.45-.76-7.71-2.08,2.32-1.34,4.26-3.28,5.61-5.59Z"/>
        <path d="M7.71,39.06c-.02,2.79-.78,5.42-2.1,7.67-1.35-2.32-3.29-4.25-5.62-5.59,2.26-1.32,4.9-2.07,7.71-2.08Z"/>
        <path d="M5.62,46.73c1.32,2.25,2.08,4.87,2.1,7.67-2.81,0-5.45-.76-7.71-2.08,2.32-1.34,4.26-3.27,5.62-5.59Z"/>
        <path d="M7.71,54.63c-.02,2.79-.78,5.42-2.1,7.67-1.35-2.32-3.29-4.25-5.61-5.59,2.26-1.32,4.9-2.07,7.71-2.08Z"/>
        <path d="M5.61,62.3c1.32,2.25,2.09,4.87,2.1,7.67-2.81,0-5.45-.76-7.71-2.08,2.32-1.34,4.26-3.27,5.61-5.59Z"/>
        <path d="M7.71,70.21c-.02,2.8-.78,5.42-2.1,7.67-1.35-2.32-3.29-4.25-5.62-5.59,2.26-1.32,4.9-2.07,7.71-2.08Z"/>
        <path d="M5.62,77.88c1.32,2.25,2.08,4.87,2.1,7.67-2.81,0-5.45-.76-7.71-2.08,2.32-1.34,4.26-3.28,5.62-5.59Z"/>
        <path d="M7.71,85.78c-.02,2.79-.78,5.41-2.1,7.67-1.35-2.32-3.29-4.25-5.61-5.59,2.26-1.32,4.9-2.07,7.71-2.08Z"/>
        <path d="M5.61,93.45c1.32,2.25,2.09,4.87,2.1,7.67-2.81,0-5.45-.76-7.71-2.08,2.32-1.34,4.26-3.27,5.61-5.59Z"/>
        <path d="M7.71,101.36c-.02,2.79-.78,5.41-2.1,7.67-1.35-2.32-3.29-4.25-5.61-5.59,2.26-1.32,4.9-2.07,7.71-2.08Z"/>
      </g>
      <path d="M87.18,46.84c1.35,2.32,3.29,4.25,5.62,5.59-2.27,1.32-4.91,2.07-7.72,2.08.02-2.8.78-5.42,2.1-7.67Z"/>
      <path d="M92.79,56.83c-2.33,1.34-4.26,3.27-5.62,5.59-1.32-2.25-2.09-4.87-2.1-7.67,2.81,0,5.45.76,7.72,2.08Z"/>
      <path d="M82.93,46.84c1.32,2.25,2.09,4.87,2.1,7.67-2.81,0-5.45-.76-7.72-2.08,2.33-1.34,4.26-3.27,5.62-5.59Z"/>
      <path d="M85.04,54.75c-.02,2.79-.78,5.41-2.1,7.67-1.35-2.32-3.29-4.25-5.62-5.59,2.27-1.32,4.91-2.07,7.72-2.08Z"/>
      <path d="M71.7,46.84c1.35,2.32,3.29,4.25,5.62,5.59-2.27,1.32-4.91,2.07-7.72,2.08.02-2.8.78-5.42,2.1-7.67Z"/>
      <path d="M77.32,56.83c-2.33,1.34-4.26,3.27-5.62,5.59-1.32-2.25-2.09-4.87-2.1-7.67,2.81,0,5.45.76,7.72,2.08Z"/>
      <path d="M67.46,46.84c1.32,2.25,2.09,4.87,2.1,7.67-2.81,0-5.45-.76-7.72-2.08,2.33-1.34,4.27-3.27,5.62-5.59Z"/>
      <path d="M69.56,54.75c-.02,2.79-.78,5.41-2.1,7.67-1.35-2.32-3.29-4.25-5.62-5.59,2.27-1.32,4.91-2.07,7.72-2.08Z"/>
      <path d="M56.23,46.84c1.35,2.32,3.29,4.25,5.61,5.59-2.26,1.32-4.9,2.07-7.71,2.08.02-2.8.78-5.42,2.1-7.67Z"/>
      <path d="M61.84,56.83c-2.32,1.34-4.26,3.27-5.61,5.59-1.32-2.25-2.09-4.87-2.1-7.67,2.81,0,5.45.76,7.71,2.08Z"/>
      <path d="M51.99,46.84c1.32,2.25,2.09,4.87,2.1,7.67-2.82,0-5.45-.76-7.72-2.08,2.32-1.34,4.26-3.27,5.62-5.59Z"/>
      <path d="M54.09,54.75c-.02,2.79-.78,5.41-2.1,7.67-1.35-2.32-3.29-4.25-5.62-5.59,2.27-1.32,4.9-2.07,7.72-2.08Z"/>
      <path d="M40.76,46.84c1.35,2.32,3.29,4.25,5.62,5.59-2.27,1.32-4.9,2.07-7.72,2.08.02-2.8.78-5.42,2.1-7.67Z"/>
      <path d="M46.37,56.83c-2.32,1.34-4.26,3.27-5.62,5.59-1.32-2.25-2.09-4.87-2.1-7.67,2.82,0,5.45.76,7.72,2.08Z"/>
      <path d="M36.52,46.84c1.32,2.25,2.09,4.87,2.1,7.67-2.81,0-5.45-.76-7.71-2.08,2.32-1.34,4.26-3.27,5.61-5.59Z"/>
      <path d="M38.62,54.75c-.02,2.79-.78,5.41-2.1,7.67-1.35-2.32-3.29-4.25-5.61-5.59,2.26-1.32,4.9-2.07,7.71-2.08Z"/>
      <path d="M25.29,46.84c1.35,2.32,3.29,4.25,5.62,5.59-2.27,1.32-4.91,2.07-7.72,2.08.02-2.8.78-5.42,2.1-7.67Z"/>
      <path d="M30.91,56.83c-2.33,1.34-4.26,3.27-5.62,5.59-1.32-2.25-2.09-4.87-2.1-7.67,2.81,0,5.45.76,7.72,2.08Z"/>
      <path d="M21.06,46.84c1.32,2.25,2.09,4.87,2.1,7.67-2.81,0-5.45-.75-7.72-2.07,2.33-1.34,4.27-3.28,5.62-5.6Z"/>
      <path d="M23.17,54.75c-.02,2.79-.78,5.41-2.1,7.67-1.35-2.32-3.29-4.25-5.62-5.59,2.28-1.32,4.91-2.07,7.72-2.07Z"/>
    </g>
  </g>
</svg>