<?xml version="1.0" encoding="UTF-8"?>
<svg id="_레이어_2" data-name="레이어 2" xmlns="http://www.w3.org/2000/svg" viewBox="0 0 108.21 108.98">
  <g id="_레이어_1-2" data-name="레이어 1">
    <g>
      <path d="M56.22,0c1.35,2.32,3.29,4.26,5.62,5.6-2.27,1.32-4.91,2.07-7.72,2.07.02-2.8.78-5.42,2.1-7.67Z"/>
      <path d="M61.84,9.98c-2.33,1.34-4.27,3.27-5.62,5.59-1.32-2.25-2.09-4.87-2.1-7.67,2.82,0,5.45.75,7.72,2.07Z"/>
      <path d="M51.99,0c1.32,2.25,2.09,4.87,2.1,7.67-2.81,0-5.45-.76-7.71-2.08,2.32-1.34,4.26-3.27,5.61-5.59Z"/>
      <path d="M54.09,7.91c-.02,2.79-.78,5.41-2.1,7.67-1.35-2.32-3.29-4.25-5.61-5.59,2.26-1.32,4.9-2.07,7.71-2.08Z"/>
      <path d="M56.22,15.62c1.35,2.32,3.29,4.26,5.62,5.6-2.27,1.32-4.91,2.07-7.72,2.07.02-2.8.78-5.42,2.1-7.67Z"/>
      <path d="M61.84,25.6c-2.33,1.34-4.27,3.27-5.62,5.59-1.32-2.25-2.09-4.87-2.1-7.67,2.82,0,5.45.75,7.72,2.07Z"/>
      <path d="M51.99,15.62c1.32,2.25,2.09,4.87,2.1,7.67-2.81,0-5.45-.76-7.71-2.08,2.32-1.34,4.26-3.27,5.61-5.59Z"/>
      <path d="M54.09,23.53c-.02,2.79-.78,5.41-2.1,7.67-1.35-2.32-3.29-4.25-5.61-5.59,2.26-1.32,4.9-2.07,7.71-2.08Z"/>
      <path d="M56.22,31.15c1.35,2.32,3.29,4.26,5.62,5.6-2.27,1.32-4.91,2.07-7.72,2.07.02-2.8.78-5.42,2.1-7.67Z"/>
      <path d="M61.84,41.12c-2.33,1.34-4.27,3.27-5.62,5.59-1.32-2.25-2.09-4.87-2.1-7.67,2.82,0,5.45.75,7.72,2.07Z"/>
      <path d="M51.99,31.15c1.32,2.25,2.09,4.87,2.1,7.67-2.81,0-5.45-.76-7.71-2.08,2.32-1.34,4.26-3.27,5.61-5.59Z"/>
      <path d="M54.09,39.05c-.02,2.79-.78,5.41-2.1,7.67-1.35-2.32-3.29-4.25-5.61-5.59,2.26-1.32,4.9-2.07,7.71-2.08Z"/>
      <path d="M56.22,46.74c1.35,2.32,3.29,4.26,5.62,5.6-2.27,1.32-4.91,2.07-7.72,2.07.02-2.8.78-5.42,2.1-7.67Z"/>
      <path d="M61.84,56.72c-2.33,1.34-4.27,3.27-5.62,5.59-1.32-2.25-2.09-4.87-2.1-7.67,2.82,0,5.45.75,7.72,2.07Z"/>
      <path d="M51.99,46.74c1.32,2.25,2.09,4.87,2.1,7.67-2.81,0-5.45-.76-7.71-2.08,2.32-1.34,4.26-3.27,5.61-5.59Z"/>
      <path d="M54.09,54.64c-.02,2.79-.78,5.41-2.1,7.67-1.35-2.32-3.29-4.25-5.61-5.59,2.26-1.32,4.9-2.07,7.71-2.08Z"/>
      <path d="M56.22,62.33c1.35,2.32,3.29,4.26,5.62,5.6-2.27,1.32-4.91,2.07-7.72,2.07.02-2.8.78-5.42,2.1-7.67Z"/>
      <path d="M61.84,72.31c-2.33,1.34-4.27,3.27-5.62,5.59-1.32-2.25-2.09-4.87-2.1-7.67,2.82,0,5.45.75,7.72,2.07Z"/>
      <path d="M51.99,62.33c1.32,2.25,2.09,4.87,2.1,7.67-2.81,0-5.45-.76-7.71-2.08,2.32-1.34,4.26-3.27,5.61-5.59Z"/>
      <path d="M54.09,70.24c-.02,2.79-.78,5.41-2.1,7.67-1.35-2.32-3.29-4.25-5.61-5.59,2.26-1.32,4.9-2.07,7.71-2.08Z"/>
      <path d="M56.22,77.92c1.35,2.32,3.29,4.26,5.62,5.6-2.27,1.32-4.91,2.07-7.72,2.07.02-2.8.78-5.42,2.1-7.67Z"/>
      <path d="M61.84,87.9c-2.33,1.34-4.27,3.27-5.62,5.59-1.32-2.25-2.09-4.87-2.1-7.67,2.82,0,5.45.75,7.72,2.07Z"/>
      <path d="M51.99,77.92c1.32,2.25,2.09,4.87,2.1,7.67-2.81,0-5.45-.76-7.71-2.08,2.32-1.34,4.26-3.27,5.61-5.59Z"/>
      <path d="M54.09,85.83c-.02,2.79-.78,5.41-2.1,7.67-1.35-2.32-3.29-4.25-5.61-5.59,2.26-1.32,4.9-2.07,7.71-2.08Z"/>
      <path d="M56.22,93.41c1.35,2.32,3.29,4.26,5.62,5.6-2.27,1.32-4.91,2.07-7.72,2.07.02-2.8.78-5.42,2.1-7.67Z"/>
      <path d="M61.84,103.39c-2.33,1.34-4.27,3.27-5.62,5.59-1.32-2.25-2.09-4.87-2.1-7.67,2.82,0,5.45.75,7.72,2.07Z"/>
      <path d="M51.99,93.41c1.32,2.25,2.09,4.87,2.1,7.67-2.81,0-5.45-.76-7.71-2.08,2.32-1.34,4.26-3.27,5.61-5.59Z"/>
      <path d="M54.09,101.31c-.02,2.79-.78,5.41-2.1,7.67-1.35-2.32-3.29-4.25-5.61-5.59,2.26-1.32,4.9-2.07,7.71-2.08Z"/>
      <path d="M40.74,93.41c1.35,2.32,3.29,4.26,5.62,5.6-2.27,1.32-4.91,2.07-7.72,2.07.02-2.8.78-5.42,2.1-7.67Z"/>
      <path d="M46.36,103.39c-2.33,1.34-4.27,3.27-5.62,5.59-1.32-2.25-2.09-4.87-2.1-7.67,2.82,0,5.45.75,7.72,2.07Z"/>
      <path d="M36.51,93.41c1.32,2.25,2.09,4.87,2.1,7.67-2.81,0-5.45-.76-7.71-2.08,2.32-1.34,4.26-3.27,5.61-5.59Z"/>
      <path d="M38.61,101.31c-.02,2.79-.78,5.41-2.1,7.67-1.35-2.32-3.29-4.25-5.61-5.59,2.26-1.32,4.9-2.07,7.71-2.08Z"/>
      <path d="M25.25,93.41c1.35,2.32,3.29,4.26,5.62,5.6-2.27,1.32-4.91,2.07-7.72,2.07.02-2.8.78-5.42,2.1-7.67Z"/>
      <path d="M30.87,103.39c-2.33,1.34-4.27,3.27-5.62,5.59-1.32-2.25-2.09-4.87-2.1-7.67,2.82,0,5.45.75,7.72,2.07Z"/>
      <path d="M21.01,93.41c1.32,2.25,2.09,4.87,2.1,7.67-2.81,0-5.45-.76-7.71-2.08,2.32-1.34,4.26-3.27,5.61-5.59Z"/>
      <path d="M23.12,101.31c-.02,2.79-.78,5.41-2.1,7.67-1.35-2.32-3.29-4.25-5.61-5.59,2.26-1.32,4.9-2.07,7.71-2.08Z"/>
      <path d="M9.84,93.41c1.35,2.32,3.29,4.26,5.62,5.6-2.27,1.32-4.91,2.07-7.72,2.07.02-2.8.78-5.42,2.1-7.67Z"/>
      <path d="M15.46,103.39c-2.33,1.34-4.27,3.27-5.62,5.59-1.32-2.25-2.09-4.87-2.1-7.67,2.82,0,5.45.75,7.72,2.07Z"/>
      <path d="M5.61,93.41c1.32,2.25,2.09,4.87,2.1,7.67-2.81,0-5.45-.76-7.71-2.08,2.32-1.34,4.26-3.27,5.61-5.59Z"/>
      <path d="M7.71,101.31c-.02,2.79-.78,5.41-2.1,7.67-1.35-2.32-3.29-4.25-5.61-5.59,2.26-1.32,4.9-2.07,7.71-2.08Z"/>
      <path d="M71.71,93.41c1.35,2.32,3.29,4.26,5.62,5.6-2.27,1.32-4.91,2.07-7.72,2.07.02-2.8.78-5.42,2.1-7.67Z"/>
      <path d="M77.33,103.39c-2.33,1.34-4.27,3.27-5.62,5.59-1.32-2.25-2.09-4.87-2.1-7.67,2.82,0,5.45.75,7.72,2.07Z"/>
      <path d="M67.48,93.41c1.32,2.25,2.09,4.87,2.1,7.67-2.81,0-5.45-.76-7.71-2.08,2.32-1.34,4.26-3.27,5.61-5.59Z"/>
      <path d="M69.58,101.31c-.02,2.79-.78,5.41-2.1,7.67-1.35-2.32-3.29-4.25-5.61-5.59,2.26-1.32,4.9-2.07,7.71-2.08Z"/>
      <path d="M87.16,93.41c1.35,2.32,3.29,4.26,5.62,5.6-2.27,1.32-4.91,2.07-7.72,2.07.02-2.8.78-5.42,2.1-7.67Z"/>
      <path d="M92.78,103.39c-2.33,1.34-4.27,3.27-5.62,5.59-1.32-2.25-2.09-4.87-2.1-7.67,2.82,0,5.45.75,7.72,2.07Z"/>
      <path d="M82.93,93.41c1.32,2.25,2.09,4.87,2.1,7.67-2.81,0-5.45-.76-7.71-2.08,2.32-1.34,4.26-3.27,5.61-5.59Z"/>
      <path d="M85.03,101.31c-.02,2.79-.78,5.41-2.1,7.67-1.35-2.32-3.29-4.25-5.61-5.59,2.26-1.32,4.9-2.07,7.71-2.08Z"/>
      <path d="M102.59,93.41c1.35,2.32,3.29,4.26,5.62,5.6-2.27,1.32-4.91,2.07-7.72,2.07.02-2.8.78-5.42,2.1-7.67Z"/>
      <path d="M108.21,103.39c-2.33,1.34-4.27,3.27-5.62,5.59-1.32-2.25-2.09-4.87-2.1-7.67,2.82,0,5.45.75,7.72,2.07Z"/>
      <path d="M98.36,93.41c1.32,2.25,2.09,4.87,2.1,7.67-2.81,0-5.45-.76-7.71-2.08,2.32-1.34,4.26-3.27,5.61-5.59Z"/>
      <path d="M100.46,101.31c-.02,2.79-.78,5.41-2.1,7.67-1.35-2.32-3.29-4.25-5.61-5.59,2.26-1.32,4.9-2.07,7.71-2.08Z"/>
      <path d="M40.74.1c1.35,2.32,3.29,4.26,5.62,5.6-2.27,1.32-4.91,2.07-7.72,2.07.02-2.8.78-5.42,2.1-7.67Z"/>
      <path d="M46.36,10.08c-2.33,1.34-4.27,3.27-5.62,5.59-1.32-2.25-2.09-4.87-2.1-7.67,2.82,0,5.45.75,7.72,2.07Z"/>
      <path d="M36.51.1c1.32,2.25,2.09,4.87,2.1,7.67-2.81,0-5.45-.76-7.71-2.08,2.32-1.34,4.26-3.27,5.61-5.59Z"/>
      <path d="M38.61,8c-.02,2.79-.78,5.41-2.1,7.67-1.35-2.32-3.29-4.25-5.61-5.59,2.26-1.32,4.9-2.07,7.71-2.08Z"/>
      <path d="M25.25.1c1.35,2.32,3.29,4.26,5.62,5.6-2.27,1.32-4.91,2.07-7.72,2.07.02-2.8.78-5.42,2.1-7.67Z"/>
      <path d="M30.87,10.08c-2.33,1.34-4.27,3.27-5.62,5.59-1.32-2.25-2.09-4.87-2.1-7.67,2.82,0,5.45.75,7.72,2.07Z"/>
      <path d="M21.01.1c1.32,2.25,2.09,4.87,2.1,7.67-2.81,0-5.45-.76-7.71-2.08,2.32-1.34,4.26-3.27,5.61-5.59Z"/>
      <path d="M23.12,8c-.02,2.79-.78,5.41-2.1,7.67-1.35-2.32-3.29-4.25-5.61-5.59,2.26-1.32,4.9-2.07,7.71-2.08Z"/>
      <path d="M9.84.1c1.35,2.32,3.29,4.26,5.62,5.6-2.27,1.32-4.91,2.07-7.72,2.07.02-2.8.78-5.42,2.1-7.67Z"/>
      <path d="M15.46,10.08c-2.33,1.34-4.27,3.27-5.62,5.59-1.32-2.25-2.09-4.87-2.1-7.67,2.82,0,5.45.75,7.72,2.07Z"/>
      <path d="M5.61.1c1.32,2.25,2.09,4.87,2.1,7.67-2.81,0-5.45-.76-7.71-2.08C2.32,4.35,4.26,2.42,5.61.1Z"/>
      <path d="M7.71,8c-.02,2.79-.78,5.41-2.1,7.67-1.35-2.32-3.29-4.25-5.61-5.59,2.26-1.32,4.9-2.07,7.71-2.08Z"/>
      <path d="M71.71.1c1.35,2.32,3.29,4.26,5.62,5.6-2.27,1.32-4.91,2.07-7.72,2.07.02-2.8.78-5.42,2.1-7.67Z"/>
      <path d="M77.33,10.08c-2.33,1.34-4.27,3.27-5.62,5.59-1.32-2.25-2.09-4.87-2.1-7.67,2.82,0,5.45.75,7.72,2.07Z"/>
      <path d="M67.48.1c1.32,2.25,2.09,4.87,2.1,7.67-2.81,0-5.45-.76-7.71-2.08,2.32-1.34,4.26-3.27,5.61-5.59Z"/>
      <path d="M69.58,8c-.02,2.79-.78,5.41-2.1,7.67-1.35-2.32-3.29-4.25-5.61-5.59,2.26-1.32,4.9-2.07,7.71-2.08Z"/>
      <path d="M87.16.1c1.35,2.32,3.29,4.26,5.62,5.6-2.27,1.32-4.91,2.07-7.72,2.07.02-2.8.78-5.42,2.1-7.67Z"/>
      <path d="M92.78,10.08c-2.33,1.34-4.27,3.27-5.62,5.59-1.32-2.25-2.09-4.87-2.1-7.67,2.82,0,5.45.75,7.72,2.07Z"/>
      <path d="M82.93.1c1.32,2.25,2.09,4.87,2.1,7.67-2.81,0-5.45-.76-7.71-2.08,2.32-1.34,4.26-3.27,5.61-5.59Z"/>
      <path d="M85.03,8c-.02,2.79-.78,5.41-2.1,7.67-1.35-2.32-3.29-4.25-5.61-5.59,2.26-1.32,4.9-2.07,7.71-2.08Z"/>
      <path d="M102.59.1c1.35,2.32,3.29,4.26,5.62,5.6-2.27,1.32-4.91,2.07-7.72,2.07.02-2.8.78-5.42,2.1-7.67Z"/>
      <path d="M108.21,10.08c-2.33,1.34-4.27,3.27-5.62,5.59-1.32-2.25-2.09-4.87-2.1-7.67,2.82,0,5.45.75,7.72,2.07Z"/>
      <path d="M98.36.1c1.32,2.25,2.09,4.87,2.1,7.67-2.81,0-5.45-.76-7.71-2.08,2.32-1.34,4.26-3.27,5.61-5.59Z"/>
      <path d="M100.46,8c-.02,2.79-.78,5.41-2.1,7.67-1.35-2.32-3.29-4.25-5.61-5.59,2.26-1.32,4.9-2.07,7.71-2.08Z"/>
    </g>
  </g>
</svg>