<?xml version="1.0" encoding="UTF-8"?>
<svg id="_레이어_2" data-name="레이어 2" xmlns="http://www.w3.org/2000/svg" viewBox="0 0 92.78 109.15">
  <g id="_레이어_1-2" data-name="레이어 1">
    <g>
      <path d="M87.16.1c1.35,2.32,3.29,4.26,5.62,5.6-2.27,1.32-4.91,2.07-7.72,2.07.02-2.8.78-5.42,2.1-7.67Z"/>
      <path d="M92.78,10.08c-2.33,1.34-4.27,3.27-5.62,5.59-1.32-2.25-2.09-4.87-2.1-7.67,2.82,0,5.45.75,7.72,2.07Z"/>
      <g>
        <path d="M56.22,0c1.35,2.32,3.29,4.26,5.62,5.6-2.27,1.32-4.91,2.07-7.72,2.07.02-2.8.78-5.42,2.1-7.67Z"/>
        <path d="M61.84,9.98c-2.33,1.34-4.27,3.27-5.62,5.59-1.32-2.25-2.09-4.87-2.1-7.67,2.82,0,5.45.75,7.72,2.07Z"/>
        <path d="M51.99,0c1.32,2.25,2.09,4.87,2.1,7.67-2.81,0-5.45-.76-7.71-2.08,2.32-1.34,4.26-3.27,5.61-5.59Z"/>
        <path d="M54.09,7.91c-.02,2.79-.78,5.41-2.1,7.67-1.35-2.32-3.29-4.25-5.61-5.59,2.26-1.32,4.9-2.07,7.71-2.08Z"/>
        <path d="M40.74.1c1.35,2.32,3.29,4.26,5.62,5.6-2.27,1.32-4.91,2.07-7.72,2.07.02-2.8.78-5.42,2.1-7.67Z"/>
        <path d="M46.36,10.08c-2.33,1.34-4.27,3.27-5.62,5.59-1.32-2.25-2.09-4.87-2.1-7.67,2.82,0,5.45.75,7.72,2.07Z"/>
        <path d="M36.51.1c1.32,2.25,2.09,4.87,2.1,7.67-2.81,0-5.45-.76-7.71-2.08,2.32-1.34,4.26-3.27,5.61-5.59Z"/>
        <path d="M38.61,8c-.02,2.79-.78,5.41-2.1,7.67-1.35-2.32-3.29-4.25-5.61-5.59,2.26-1.32,4.9-2.07,7.71-2.08Z"/>
        <path d="M25.25.1c1.35,2.32,3.29,4.26,5.62,5.6-2.27,1.32-4.91,2.07-7.72,2.07.02-2.8.78-5.42,2.1-7.67Z"/>
        <path d="M30.87,10.08c-2.33,1.34-4.27,3.27-5.62,5.59-1.32-2.25-2.09-4.87-2.1-7.67,2.82,0,5.45.75,7.72,2.07Z"/>
        <path d="M21.01.1c1.32,2.25,2.09,4.87,2.1,7.67-2.81,0-5.45-.76-7.71-2.08,2.32-1.34,4.26-3.27,5.61-5.59Z"/>
        <path d="M23.12,8c-.02,2.79-.78,5.41-2.1,7.67-1.35-2.32-3.29-4.25-5.61-5.59,2.26-1.32,4.9-2.07,7.71-2.08Z"/>
        <path d="M9.84.1c1.35,2.32,3.29,4.26,5.62,5.6-2.27,1.32-4.91,2.07-7.72,2.07.02-2.8.78-5.42,2.1-7.67Z"/>
        <path d="M15.46,10.08c-2.33,1.34-4.27,3.27-5.62,5.59-1.32-2.25-2.09-4.87-2.1-7.67,2.82,0,5.45.75,7.72,2.07Z"/>
        <path d="M5.61.1c1.32,2.25,2.09,4.87,2.1,7.67-2.81,0-5.45-.76-7.71-2.08C2.32,4.35,4.26,2.42,5.61.1Z"/>
        <path d="M7.71,8c-.02,2.79-.78,5.41-2.1,7.67-1.35-2.32-3.29-4.25-5.61-5.59,2.26-1.32,4.9-2.07,7.71-2.08Z"/>
        <path d="M71.71.1c1.35,2.32,3.29,4.26,5.62,5.6-2.27,1.32-4.91,2.07-7.72,2.07.02-2.8.78-5.42,2.1-7.67Z"/>
        <path d="M77.33,10.08c-2.33,1.34-4.27,3.27-5.62,5.59-1.32-2.25-2.09-4.87-2.1-7.67,2.82,0,5.45.75,7.72,2.07Z"/>
        <path d="M67.48.1c1.32,2.25,2.09,4.87,2.1,7.67-2.81,0-5.45-.76-7.71-2.08,2.32-1.34,4.26-3.27,5.61-5.59Z"/>
        <path d="M69.58,8c-.02,2.79-.78,5.41-2.1,7.67-1.35-2.32-3.29-4.25-5.61-5.59,2.26-1.32,4.9-2.07,7.71-2.08Z"/>
        <path d="M82.93.1c1.32,2.25,2.09,4.87,2.1,7.67-2.81,0-5.45-.76-7.71-2.08,2.32-1.34,4.26-3.27,5.61-5.59Z"/>
        <path d="M85.03,8c-.02,2.79-.78,5.41-2.1,7.67-1.35-2.32-3.29-4.25-5.61-5.59,2.26-1.32,4.9-2.07,7.71-2.08Z"/>
        <path d="M56.22,93.48c1.35,2.32,3.29,4.26,5.62,5.6-2.27,1.32-4.91,2.07-7.72,2.07.02-2.8.78-5.42,2.1-7.67Z"/>
        <path d="M61.84,103.46c-2.33,1.34-4.27,3.27-5.62,5.59-1.32-2.25-2.09-4.87-2.1-7.67,2.82,0,5.45.75,7.72,2.07Z"/>
        <path d="M51.99,93.48c1.32,2.25,2.09,4.87,2.1,7.67-2.81,0-5.45-.76-7.71-2.08,2.32-1.34,4.26-3.27,5.61-5.59Z"/>
        <path d="M54.09,101.38c-.02,2.79-.78,5.41-2.1,7.67-1.35-2.32-3.29-4.25-5.61-5.59,2.26-1.32,4.9-2.07,7.71-2.08Z"/>
        <path d="M40.74,93.58c1.35,2.32,3.29,4.26,5.62,5.6-2.27,1.32-4.91,2.07-7.72,2.07.02-2.8.78-5.42,2.1-7.67Z"/>
        <path d="M46.36,103.55c-2.33,1.34-4.27,3.27-5.62,5.59-1.32-2.25-2.09-4.87-2.1-7.67,2.82,0,5.45.75,7.72,2.07Z"/>
        <path d="M36.51,93.58c1.32,2.25,2.09,4.87,2.1,7.67-2.81,0-5.45-.76-7.71-2.08,2.32-1.34,4.26-3.27,5.61-5.59Z"/>
        <path d="M38.61,101.48c-.02,2.79-.78,5.41-2.1,7.67-1.35-2.32-3.29-4.25-5.61-5.59,2.26-1.32,4.9-2.07,7.71-2.08Z"/>
        <path d="M25.25,93.58c1.35,2.32,3.29,4.26,5.62,5.6-2.27,1.32-4.91,2.07-7.72,2.07.02-2.8.78-5.42,2.1-7.67Z"/>
        <path d="M30.87,103.55c-2.33,1.34-4.27,3.27-5.62,5.59-1.32-2.25-2.09-4.87-2.1-7.67,2.82,0,5.45.75,7.72,2.07Z"/>
        <path d="M21.01,93.58c1.32,2.25,2.09,4.87,2.1,7.67-2.81,0-5.45-.76-7.71-2.08,2.32-1.34,4.26-3.27,5.61-5.59Z"/>
        <path d="M23.12,101.48c-.02,2.79-.78,5.41-2.1,7.67-1.35-2.32-3.29-4.25-5.61-5.59,2.26-1.32,4.9-2.07,7.71-2.08Z"/>
        <path d="M9.84,93.58c1.35,2.32,3.29,4.26,5.62,5.6-2.27,1.32-4.91,2.07-7.72,2.07.02-2.8.78-5.42,2.1-7.67Z"/>
        <path d="M15.46,103.55c-2.33,1.34-4.27,3.27-5.62,5.59-1.32-2.25-2.09-4.87-2.1-7.67,2.82,0,5.45.75,7.72,2.07Z"/>
        <path d="M5.61,93.58c1.32,2.25,2.09,4.87,2.1,7.67-2.81,0-5.45-.76-7.71-2.08,2.32-1.34,4.26-3.27,5.61-5.59Z"/>
        <path d="M7.71,101.48c-.02,2.79-.78,5.41-2.1,7.67-1.35-2.32-3.29-4.25-5.61-5.59,2.26-1.32,4.9-2.07,7.71-2.08Z"/>
        <path d="M9.84,77.94c1.35,2.32,3.29,4.26,5.62,5.6-2.27,1.32-4.91,2.07-7.72,2.07.02-2.8.78-5.42,2.1-7.67Z"/>
        <path d="M15.46,87.92c-2.33,1.34-4.27,3.27-5.62,5.59-1.32-2.25-2.09-4.87-2.1-7.67,2.82,0,5.45.75,7.72,2.07Z"/>
        <path d="M5.61,77.94c1.32,2.25,2.09,4.87,2.1,7.67-2.81,0-5.45-.76-7.71-2.08,2.32-1.34,4.26-3.27,5.61-5.59Z"/>
        <path d="M7.71,85.85c-.02,2.79-.78,5.41-2.1,7.67-1.35-2.32-3.29-4.25-5.61-5.59,2.26-1.32,4.9-2.07,7.71-2.08Z"/>
        <path d="M9.84,62.33c1.35,2.32,3.29,4.26,5.62,5.6-2.27,1.32-4.91,2.07-7.72,2.07.02-2.8.78-5.42,2.1-7.67Z"/>
        <path d="M15.46,72.31c-2.33,1.34-4.27,3.27-5.62,5.59-1.32-2.25-2.09-4.87-2.1-7.67,2.82,0,5.45.75,7.72,2.07Z"/>
        <path d="M5.61,62.33c1.32,2.25,2.09,4.87,2.1,7.67-2.81,0-5.45-.76-7.71-2.08,2.32-1.34,4.26-3.27,5.61-5.59Z"/>
        <path d="M7.71,70.24c-.02,2.79-.78,5.41-2.1,7.67-1.35-2.32-3.29-4.25-5.61-5.59,2.26-1.32,4.9-2.07,7.71-2.08Z"/>
        <path d="M71.71,77.94c1.35,2.32,3.29,4.26,5.62,5.6-2.27,1.32-4.91,2.07-7.72,2.07.02-2.8.78-5.42,2.1-7.67Z"/>
        <path d="M77.33,87.92c-2.33,1.34-4.27,3.27-5.62,5.59-1.32-2.25-2.09-4.87-2.1-7.67,2.82,0,5.45.75,7.72,2.07Z"/>
        <path d="M67.48,77.94c1.32,2.25,2.09,4.87,2.1,7.67-2.81,0-5.45-.76-7.71-2.08,2.32-1.34,4.26-3.27,5.61-5.59Z"/>
        <path d="M69.58,85.85c-.02,2.79-.78,5.41-2.1,7.67-1.35-2.32-3.29-4.25-5.61-5.59,2.26-1.32,4.9-2.07,7.71-2.08Z"/>
        <path d="M71.71,62.33c1.35,2.32,3.29,4.26,5.62,5.6-2.27,1.32-4.91,2.07-7.72,2.07.02-2.8.78-5.42,2.1-7.67Z"/>
        <path d="M67.48,62.33c1.32,2.25,2.09,4.87,2.1,7.67-2.81,0-5.45-.76-7.71-2.08,2.32-1.34,4.26-3.27,5.61-5.59Z"/>
        <path d="M69.58,70.24c-.02,2.79-.78,5.41-2.1,7.67-1.35-2.32-3.29-4.25-5.61-5.59,2.26-1.32,4.9-2.07,7.71-2.08Z"/>
        <path d="M71.71,46.73c1.35,2.32,3.29,4.26,5.62,5.6-2.27,1.32-4.91,2.07-7.72,2.07.02-2.8.78-5.42,2.1-7.67Z"/>
        <path d="M77.33,56.71c-2.33,1.34-4.27,3.27-5.62,5.59-1.32-2.25-2.09-4.87-2.1-7.67,2.82,0,5.45.75,7.72,2.07Z"/>
        <path d="M77.33,72.3c-2.33,1.34-4.27,3.27-5.62,5.59-1.32-2.25-2.09-4.87-2.1-7.67,2.82,0,5.45.75,7.72,2.07Z"/>
        <path d="M67.48,46.73c1.32,2.25,2.09,4.87,2.1,7.67-2.81,0-5.45-.76-7.71-2.08,2.32-1.34,4.26-3.27,5.61-5.59Z"/>
        <path d="M69.58,54.64c-.02,2.79-.78,5.41-2.1,7.67-1.35-2.32-3.29-4.25-5.61-5.59,2.26-1.32,4.9-2.07,7.71-2.08Z"/>
        <path d="M71.71,31.12c1.35,2.32,3.29,4.26,5.62,5.6-2.27,1.32-4.91,2.07-7.72,2.07.02-2.8.78-5.42,2.1-7.67Z"/>
        <path d="M77.33,41.1c-2.33,1.34-4.27,3.27-5.62,5.59-1.32-2.25-2.09-4.87-2.1-7.67,2.82,0,5.45.75,7.72,2.07Z"/>
        <path d="M67.48,31.12c1.32,2.25,2.09,4.87,2.1,7.67-2.81,0-5.45-.76-7.71-2.08,2.32-1.34,4.26-3.27,5.61-5.59Z"/>
        <path d="M69.58,39.03c-.02,2.79-.78,5.41-2.1,7.67-1.35-2.32-3.29-4.25-5.61-5.59,2.26-1.32,4.9-2.07,7.71-2.08Z"/>
        <path d="M71.71,15.66c1.35,2.32,3.29,4.26,5.62,5.6-2.27,1.32-4.91,2.07-7.72,2.07.02-2.8.78-5.42,2.1-7.67Z"/>
        <path d="M77.33,25.64c-2.33,1.34-4.27,3.27-5.62,5.59-1.32-2.25-2.09-4.87-2.1-7.67,2.82,0,5.45.75,7.72,2.07Z"/>
        <path d="M67.48,15.66c1.32,2.25,2.09,4.87,2.1,7.67-2.81,0-5.45-.76-7.71-2.08,2.32-1.34,4.26-3.27,5.61-5.59Z"/>
        <path d="M69.58,23.56c-.02,2.79-.78,5.41-2.1,7.67-1.35-2.32-3.29-4.25-5.61-5.59,2.26-1.32,4.9-2.07,7.71-2.08Z"/>
        <path d="M71.71,93.58c1.35,2.32,3.29,4.26,5.62,5.6-2.27,1.32-4.91,2.07-7.72,2.07.02-2.8.78-5.42,2.1-7.67Z"/>
        <path d="M77.33,103.55c-2.33,1.34-4.27,3.27-5.62,5.59-1.32-2.25-2.09-4.87-2.1-7.67,2.82,0,5.45.75,7.72,2.07Z"/>
        <path d="M67.48,93.58c1.32,2.25,2.09,4.87,2.1,7.67-2.81,0-5.45-.76-7.71-2.08,2.32-1.34,4.26-3.27,5.61-5.59Z"/>
        <path d="M69.58,101.48c-.02,2.79-.78,5.41-2.1,7.67-1.35-2.32-3.29-4.25-5.61-5.59,2.26-1.32,4.9-2.07,7.71-2.08Z"/>
      </g>
    </g>
  </g>
</svg>