<?xml version="1.0" encoding="UTF-8"?>
<svg id="_레이어_2" data-name="레이어 2" xmlns="http://www.w3.org/2000/svg" viewBox="0 0 92.87 109.11">
  <g id="_레이어_1-2" data-name="레이어 1">
    <g>
      <path d="M9.84.06c1.35,2.32,3.29,4.26,5.62,5.6-2.27,1.32-4.91,2.07-7.72,2.07.02-2.8.78-5.42,2.1-7.67Z"/>
      <path d="M15.46,10.04c-2.33,1.34-4.27,3.27-5.62,5.59-1.32-2.25-2.09-4.87-2.1-7.67,2.82,0,5.45.75,7.72,2.07Z"/>
      <path d="M5.61.06c1.32,2.25,2.09,4.87,2.1,7.67-2.81,0-5.45-.76-7.71-2.08C2.32,4.31,4.26,2.38,5.61.06Z"/>
      <path d="M7.71,7.97c-.02,2.79-.78,5.41-2.1,7.67-1.35-2.32-3.29-4.25-5.61-5.59,2.26-1.32,4.9-2.07,7.71-2.08Z"/>
      <path d="M9.84,77.9c1.35,2.32,3.29,4.26,5.62,5.6-2.27,1.32-4.91,2.07-7.72,2.07.02-2.8.78-5.42,2.1-7.67Z"/>
      <path d="M15.46,87.88c-2.33,1.34-4.27,3.27-5.62,5.59-1.32-2.25-2.09-4.87-2.1-7.67,2.82,0,5.45.75,7.72,2.07Z"/>
      <path d="M5.61,77.9c1.32,2.25,2.09,4.87,2.1,7.67-2.81,0-5.45-.76-7.71-2.08,2.32-1.34,4.26-3.27,5.61-5.59Z"/>
      <path d="M7.71,85.81c-.02,2.79-.78,5.41-2.1,7.67-1.35-2.32-3.29-4.25-5.61-5.59,2.26-1.32,4.9-2.07,7.71-2.08Z"/>
      <path d="M9.84,62.29c1.35,2.32,3.29,4.26,5.62,5.6-2.27,1.32-4.91,2.07-7.72,2.07.02-2.8.78-5.42,2.1-7.67Z"/>
      <path d="M5.61,62.29c1.32,2.25,2.09,4.87,2.1,7.67-2.81,0-5.45-.76-7.71-2.08,2.32-1.34,4.26-3.27,5.61-5.59Z"/>
      <path d="M7.71,70.2c-.02,2.79-.78,5.41-2.1,7.67-1.35-2.32-3.29-4.25-5.61-5.59,2.26-1.32,4.9-2.07,7.71-2.08Z"/>
      <path d="M9.84,46.69c1.35,2.32,3.29,4.26,5.62,5.6-2.27,1.32-4.91,2.07-7.72,2.07.02-2.8.78-5.42,2.1-7.67Z"/>
      <path d="M15.46,56.67c-2.33,1.34-4.27,3.27-5.62,5.59-1.32-2.25-2.09-4.87-2.1-7.67,2.82,0,5.45.75,7.72,2.07Z"/>
      <path d="M5.61,46.69c1.32,2.25,2.09,4.87,2.1,7.67-2.81,0-5.45-.76-7.71-2.08,2.32-1.34,4.26-3.27,5.61-5.59Z"/>
      <path d="M7.71,54.6c-.02,2.79-.78,5.41-2.1,7.67-1.35-2.32-3.29-4.25-5.61-5.59,2.26-1.32,4.9-2.07,7.71-2.08Z"/>
      <path d="M25.32,46.69c1.35,2.32,3.29,4.26,5.62,5.6-2.27,1.32-4.91,2.07-7.72,2.07.02-2.8.78-5.42,2.1-7.67Z"/>
      <path d="M30.94,56.67c-2.33,1.34-4.27,3.27-5.62,5.59-1.32-2.25-2.09-4.87-2.1-7.67,2.82,0,5.45.75,7.72,2.07Z"/>
      <path d="M21.08,46.69c1.32,2.25,2.09,4.87,2.1,7.67-2.81,0-5.45-.76-7.71-2.08,2.32-1.34,4.26-3.27,5.61-5.59Z"/>
      <path d="M23.19,54.6c-.02,2.79-.78,5.41-2.1,7.67-1.35-2.32-3.29-4.25-5.61-5.59,2.26-1.32,4.9-2.07,7.71-2.08Z"/>
      <path d="M40.79,46.69c1.35,2.32,3.29,4.26,5.62,5.6-2.27,1.32-4.91,2.07-7.72,2.07.02-2.8.78-5.42,2.1-7.67Z"/>
      <path d="M46.41,56.67c-2.33,1.34-4.27,3.27-5.62,5.59-1.32-2.25-2.09-4.87-2.1-7.67,2.82,0,5.45.75,7.72,2.07Z"/>
      <path d="M36.56,46.69c1.32,2.25,2.09,4.87,2.1,7.67-2.81,0-5.45-.76-7.71-2.08,2.32-1.34,4.26-3.27,5.61-5.59Z"/>
      <path d="M38.66,54.6c-.02,2.79-.78,5.41-2.1,7.67-1.35-2.32-3.29-4.25-5.61-5.59,2.26-1.32,4.9-2.07,7.71-2.08Z"/>
      <path d="M56.26,46.69c1.35,2.32,3.29,4.26,5.62,5.6-2.27,1.32-4.91,2.07-7.72,2.07.02-2.8.78-5.42,2.1-7.67Z"/>
      <path d="M61.89,56.67c-2.33,1.34-4.27,3.27-5.62,5.59-1.32-2.25-2.09-4.87-2.1-7.67,2.82,0,5.45.75,7.72,2.07Z"/>
      <path d="M52.03,46.69c1.32,2.25,2.09,4.87,2.1,7.67-2.81,0-5.45-.76-7.71-2.08,2.32-1.34,4.26-3.27,5.61-5.59Z"/>
      <path d="M54.13,54.6c-.02,2.79-.78,5.41-2.1,7.67-1.35-2.32-3.29-4.25-5.61-5.59,2.26-1.32,4.9-2.07,7.71-2.08Z"/>
      <path d="M71.74,46.69c1.35,2.32,3.29,4.26,5.62,5.6-2.27,1.32-4.91,2.07-7.72,2.07.02-2.8.78-5.42,2.1-7.67Z"/>
      <path d="M77.36,56.67c-2.33,1.34-4.27,3.27-5.62,5.59-1.32-2.25-2.09-4.87-2.1-7.67,2.82,0,5.45.75,7.72,2.07Z"/>
      <path d="M67.5,46.69c1.32,2.25,2.09,4.87,2.1,7.67-2.81,0-5.45-.76-7.71-2.08,2.32-1.34,4.26-3.27,5.61-5.59Z"/>
      <path d="M69.61,54.6c-.02,2.79-.78,5.41-2.1,7.67-1.35-2.32-3.29-4.25-5.61-5.59,2.26-1.32,4.9-2.07,7.71-2.08Z"/>
      <path d="M56.23,31.15c1.35,2.32,3.29,4.26,5.62,5.6-2.27,1.32-4.91,2.07-7.72,2.07.02-2.8.78-5.42,2.1-7.67Z"/>
      <path d="M61.85,41.13c-2.33,1.34-4.27,3.27-5.62,5.59-1.32-2.25-2.09-4.87-2.1-7.67,2.82,0,5.45.75,7.72,2.07Z"/>
      <path d="M52,31.15c1.32,2.25,2.09,4.87,2.1,7.67-2.81,0-5.45-.76-7.71-2.08,2.32-1.34,4.26-3.27,5.61-5.59Z"/>
      <path d="M54.1,39.06c-.02,2.79-.78,5.41-2.1,7.67-1.35-2.32-3.29-4.25-5.61-5.59,2.26-1.32,4.9-2.07,7.71-2.08Z"/>
      <path d="M71.75,15.69c1.35,2.32,3.29,4.26,5.62,5.6-2.27,1.32-4.91,2.07-7.72,2.07.02-2.8.78-5.42,2.1-7.67Z"/>
      <path d="M77.38,25.67c-2.33,1.34-4.27,3.27-5.62,5.59-1.32-2.25-2.09-4.87-2.1-7.67,2.82,0,5.45.75,7.72,2.07Z"/>
      <path d="M67.52,15.69c1.32,2.25,2.09,4.87,2.1,7.67-2.81,0-5.45-.76-7.71-2.08,2.32-1.34,4.26-3.27,5.61-5.59Z"/>
      <path d="M69.63,23.6c-.02,2.79-.78,5.41-2.1,7.67-1.35-2.32-3.29-4.25-5.61-5.59,2.26-1.32,4.9-2.07,7.71-2.08Z"/>
      <path d="M87.25,0c1.35,2.32,3.29,4.26,5.62,5.6-2.27,1.32-4.91,2.07-7.72,2.07.02-2.8.78-5.42,2.1-7.67Z"/>
      <path d="M92.87,9.98c-2.33,1.34-4.27,3.27-5.62,5.59-1.32-2.25-2.09-4.87-2.1-7.67,2.82,0,5.45.75,7.72,2.07Z"/>
      <path d="M83.01,0c1.32,2.25,2.09,4.87,2.1,7.67-2.81,0-5.45-.76-7.71-2.08,2.32-1.34,4.26-3.27,5.61-5.59Z"/>
      <path d="M85.12,7.91c-.02,2.79-.78,5.41-2.1,7.67-1.35-2.32-3.29-4.25-5.61-5.59,2.26-1.32,4.9-2.07,7.71-2.08Z"/>
      <path d="M9.84,31.08c1.35,2.32,3.29,4.26,5.62,5.6-2.27,1.32-4.91,2.07-7.72,2.07.02-2.8.78-5.42,2.1-7.67Z"/>
      <path d="M15.46,41.06c-2.33,1.34-4.27,3.27-5.62,5.59-1.32-2.25-2.09-4.87-2.1-7.67,2.82,0,5.45.75,7.72,2.07Z"/>
      <path d="M5.61,31.08c1.32,2.25,2.09,4.87,2.1,7.67-2.81,0-5.45-.76-7.71-2.08,2.32-1.34,4.26-3.27,5.61-5.59Z"/>
      <path d="M7.71,38.99c-.02,2.79-.78,5.41-2.1,7.67-1.35-2.32-3.29-4.25-5.61-5.59,2.26-1.32,4.9-2.07,7.71-2.08Z"/>
      <path d="M9.84,15.62c1.35,2.32,3.29,4.26,5.62,5.6-2.27,1.32-4.91,2.07-7.72,2.07.02-2.8.78-5.42,2.1-7.67Z"/>
      <path d="M15.46,25.6c-2.33,1.34-4.27,3.27-5.62,5.59-1.32-2.25-2.09-4.87-2.1-7.67,2.82,0,5.45.75,7.72,2.07Z"/>
      <path d="M5.61,15.62c1.32,2.25,2.09,4.87,2.1,7.67-2.81,0-5.45-.76-7.71-2.08,2.32-1.34,4.26-3.27,5.61-5.59Z"/>
      <path d="M7.71,23.52c-.02,2.79-.78,5.41-2.1,7.67-1.35-2.32-3.29-4.25-5.61-5.59,2.26-1.32,4.9-2.07,7.71-2.08Z"/>
      <path d="M9.84,93.54c1.35,2.32,3.29,4.26,5.62,5.6-2.27,1.32-4.91,2.07-7.72,2.07.02-2.8.78-5.42,2.1-7.67Z"/>
      <path d="M15.46,103.52c-2.33,1.34-4.27,3.27-5.62,5.59-1.32-2.25-2.09-4.87-2.1-7.67,2.82,0,5.45.75,7.72,2.07Z"/>
      <path d="M5.61,93.54c1.32,2.25,2.09,4.87,2.1,7.67-2.81,0-5.45-.76-7.71-2.08,2.32-1.34,4.26-3.27,5.61-5.59Z"/>
      <path d="M7.71,101.44c-.02,2.79-.78,5.41-2.1,7.67-1.35-2.32-3.29-4.25-5.61-5.59,2.26-1.32,4.9-2.07,7.71-2.08Z"/>
      <path d="M87.18,77.9c1.35,2.32,3.29,4.26,5.62,5.6-2.27,1.32-4.91,2.07-7.72,2.07.02-2.8.78-5.42,2.1-7.67Z"/>
      <path d="M92.8,87.88c-2.33,1.34-4.27,3.27-5.62,5.59-1.32-2.25-2.09-4.87-2.1-7.67,2.82,0,5.45.75,7.72,2.07Z"/>
      <path d="M82.94,77.9c1.32,2.25,2.09,4.87,2.1,7.67-2.81,0-5.45-.76-7.71-2.08,2.32-1.34,4.26-3.27,5.61-5.59Z"/>
      <path d="M85.05,85.81c-.02,2.79-.78,5.41-2.1,7.67-1.35-2.32-3.29-4.25-5.61-5.59,2.26-1.32,4.9-2.07,7.71-2.08Z"/>
      <path d="M87.18,62.29c1.35,2.32,3.29,4.26,5.62,5.6-2.27,1.32-4.91,2.07-7.72,2.07.02-2.8.78-5.42,2.1-7.67Z"/>
      <path d="M82.94,62.29c1.32,2.25,2.09,4.87,2.1,7.67-2.81,0-5.45-.76-7.71-2.08,2.32-1.34,4.26-3.27,5.61-5.59Z"/>
      <path d="M85.05,70.2c-.02,2.79-.78,5.41-2.1,7.67-1.35-2.32-3.29-4.25-5.61-5.59,2.26-1.32,4.9-2.07,7.71-2.08Z"/>
      <path d="M87.18,46.69c1.35,2.32,3.29,4.26,5.62,5.6-2.27,1.32-4.91,2.07-7.72,2.07.02-2.8.78-5.42,2.1-7.67Z"/>
      <path d="M92.8,56.67c-2.33,1.34-4.27,3.27-5.62,5.59-1.32-2.25-2.09-4.87-2.1-7.67,2.82,0,5.45.75,7.72,2.07Z"/>
      <path d="M92.8,72.27c-2.33,1.34-4.27,3.27-5.62,5.59-1.32-2.25-2.09-4.87-2.1-7.67,2.82,0,5.45.75,7.72,2.07Z"/>
      <path d="M82.94,46.69c1.32,2.25,2.09,4.87,2.1,7.67-2.81,0-5.45-.76-7.71-2.08,2.32-1.34,4.26-3.27,5.61-5.59Z"/>
      <path d="M85.05,54.6c-.02,2.79-.78,5.41-2.1,7.67-1.35-2.32-3.29-4.25-5.61-5.59,2.26-1.32,4.9-2.07,7.71-2.08Z"/>
      <path d="M87.18,93.54c1.35,2.32,3.29,4.26,5.62,5.6-2.27,1.32-4.91,2.07-7.72,2.07.02-2.8.78-5.42,2.1-7.67Z"/>
      <path d="M92.8,103.52c-2.33,1.34-4.27,3.27-5.62,5.59-1.32-2.25-2.09-4.87-2.1-7.67,2.82,0,5.45.75,7.72,2.07Z"/>
      <path d="M82.94,93.54c1.32,2.25,2.09,4.87,2.1,7.67-2.81,0-5.45-.76-7.71-2.08,2.32-1.34,4.26-3.27,5.61-5.59Z"/>
      <path d="M85.05,101.44c-.02,2.79-.78,5.41-2.1,7.67-1.35-2.32-3.29-4.25-5.61-5.59,2.26-1.32,4.9-2.07,7.71-2.08Z"/>
    </g>
  </g>
</svg>