<?xml version="1.0" encoding="UTF-8"?>
<svg id="_레이어_2" data-name="레이어 2" xmlns="http://www.w3.org/2000/svg" viewBox="0 0 92.86 109.24">
  <g id="_레이어_1-2" data-name="레이어 1">
    <g>
      <path d="M9.84,77.84c1.35,2.32,3.29,4.26,5.62,5.6-2.27,1.32-4.91,2.07-7.72,2.07.02-2.8.78-5.42,2.1-7.67Z"/>
      <path d="M15.46,87.82c-2.33,1.34-4.27,3.27-5.62,5.59-1.32-2.25-2.09-4.87-2.1-7.67,2.82,0,5.45.75,7.72,2.07Z"/>
      <path d="M5.61,77.84c1.32,2.25,2.09,4.87,2.1,7.67-2.81,0-5.45-.76-7.71-2.08,2.32-1.34,4.26-3.27,5.61-5.59Z"/>
      <path d="M7.71,85.75c-.02,2.79-.78,5.41-2.1,7.67-1.35-2.32-3.29-4.25-5.61-5.59,2.26-1.32,4.9-2.07,7.71-2.08Z"/>
      <path d="M9.84,62.24c1.35,2.32,3.29,4.26,5.62,5.6-2.27,1.32-4.91,2.07-7.72,2.07.02-2.8.78-5.42,2.1-7.67Z"/>
      <path d="M5.61,62.24c1.32,2.25,2.09,4.87,2.1,7.67-2.81,0-5.45-.76-7.71-2.08,2.32-1.34,4.26-3.27,5.61-5.59Z"/>
      <path d="M7.71,70.14c-.02,2.79-.78,5.41-2.1,7.67-1.35-2.32-3.29-4.25-5.61-5.59,2.26-1.32,4.9-2.07,7.71-2.08Z"/>
      <path d="M9.84,46.63c1.35,2.32,3.29,4.26,5.62,5.6-2.27,1.32-4.91,2.07-7.72,2.07.02-2.8.78-5.42,2.1-7.67Z"/>
      <path d="M15.46,56.61c-2.33,1.34-4.27,3.27-5.62,5.59-1.32-2.25-2.09-4.87-2.1-7.67,2.82,0,5.45.75,7.72,2.07Z"/>
      <path d="M5.61,46.63c1.32,2.25,2.09,4.87,2.1,7.67-2.81,0-5.45-.76-7.71-2.08,2.32-1.34,4.26-3.27,5.61-5.59Z"/>
      <path d="M7.71,54.54c-.02,2.79-.78,5.41-2.1,7.67-1.35-2.32-3.29-4.25-5.61-5.59,2.26-1.32,4.9-2.07,7.71-2.08Z"/>
      <path d="M9.84,31.03c1.35,2.32,3.29,4.26,5.62,5.6-2.27,1.32-4.91,2.07-7.72,2.07.02-2.8.78-5.42,2.1-7.67Z"/>
      <path d="M15.46,41c-2.33,1.34-4.27,3.27-5.62,5.59-1.32-2.25-2.09-4.87-2.1-7.67,2.82,0,5.45.75,7.72,2.07Z"/>
      <path d="M15.46,72.24c-2.33,1.34-4.27,3.27-5.62,5.59-1.32-2.25-2.09-4.87-2.1-7.67,2.82,0,5.45.75,7.72,2.07Z"/>
      <path d="M5.61,31.03c1.32,2.25,2.09,4.87,2.1,7.67-2.81,0-5.45-.76-7.71-2.08,2.32-1.34,4.26-3.27,5.61-5.59Z"/>
      <path d="M7.71,38.93c-.02,2.79-.78,5.41-2.1,7.67-1.35-2.32-3.29-4.25-5.61-5.59,2.26-1.32,4.9-2.07,7.71-2.08Z"/>
      <path d="M9.84,15.56c1.35,2.32,3.29,4.26,5.62,5.6-2.27,1.32-4.91,2.07-7.72,2.07.02-2.8.78-5.42,2.1-7.67Z"/>
      <path d="M15.46,25.54c-2.33,1.34-4.27,3.27-5.62,5.59-1.32-2.25-2.09-4.87-2.1-7.67,2.82,0,5.45.75,7.72,2.07Z"/>
      <path d="M5.61,15.56c1.32,2.25,2.09,4.87,2.1,7.67-2.81,0-5.45-.76-7.71-2.08,2.32-1.34,4.26-3.27,5.61-5.59Z"/>
      <path d="M7.71,23.47c-.02,2.79-.78,5.41-2.1,7.67-1.35-2.32-3.29-4.25-5.61-5.59,2.26-1.32,4.9-2.07,7.71-2.08Z"/>
      <path d="M87.24,77.84c1.35,2.32,3.29,4.26,5.62,5.6-2.27,1.32-4.91,2.07-7.72,2.07.02-2.8.78-5.42,2.1-7.67Z"/>
      <path d="M92.86,87.82c-2.33,1.34-4.27,3.27-5.62,5.59-1.32-2.25-2.09-4.87-2.1-7.67,2.82,0,5.45.75,7.72,2.07Z"/>
      <path d="M83.01,77.84c1.32,2.25,2.09,4.87,2.1,7.67-2.81,0-5.45-.76-7.71-2.08,2.32-1.34,4.26-3.27,5.61-5.59Z"/>
      <path d="M85.11,85.75c-.02,2.79-.78,5.41-2.1,7.67-1.35-2.32-3.29-4.25-5.61-5.59,2.26-1.32,4.9-2.07,7.71-2.08Z"/>
      <path d="M87.24,62.24c1.35,2.32,3.29,4.26,5.62,5.6-2.27,1.32-4.91,2.07-7.72,2.07.02-2.8.78-5.42,2.1-7.67Z"/>
      <path d="M83.01,62.24c1.32,2.25,2.09,4.87,2.1,7.67-2.81,0-5.45-.76-7.71-2.08,2.32-1.34,4.26-3.27,5.61-5.59Z"/>
      <path d="M85.11,70.14c-.02,2.79-.78,5.41-2.1,7.67-1.35-2.32-3.29-4.25-5.61-5.59,2.26-1.32,4.9-2.07,7.71-2.08Z"/>
      <path d="M87.24,46.63c1.35,2.32,3.29,4.26,5.62,5.6-2.27,1.32-4.91,2.07-7.72,2.07.02-2.8.78-5.42,2.1-7.67Z"/>
      <path d="M92.86,56.61c-2.33,1.34-4.27,3.27-5.62,5.59-1.32-2.25-2.09-4.87-2.1-7.67,2.82,0,5.45.75,7.72,2.07Z"/>
      <path d="M83.01,46.63c1.32,2.25,2.09,4.87,2.1,7.67-2.81,0-5.45-.76-7.71-2.08,2.32-1.34,4.26-3.27,5.61-5.59Z"/>
      <path d="M85.11,54.54c-.02,2.79-.78,5.41-2.1,7.67-1.35-2.32-3.29-4.25-5.61-5.59,2.26-1.32,4.9-2.07,7.71-2.08Z"/>
      <path d="M87.24,31.03c1.35,2.32,3.29,4.26,5.62,5.6-2.27,1.32-4.91,2.07-7.72,2.07.02-2.8.78-5.42,2.1-7.67Z"/>
      <path d="M92.86,41c-2.33,1.34-4.27,3.27-5.62,5.59-1.32-2.25-2.09-4.87-2.1-7.67,2.82,0,5.45.75,7.72,2.07Z"/>
      <path d="M92.86,72.24c-2.33,1.34-4.27,3.27-5.62,5.59-1.32-2.25-2.09-4.87-2.1-7.67,2.82,0,5.45.75,7.72,2.07Z"/>
      <path d="M83.01,31.03c1.32,2.25,2.09,4.87,2.1,7.67-2.81,0-5.45-.76-7.71-2.08,2.32-1.34,4.26-3.27,5.61-5.59Z"/>
      <path d="M85.11,38.93c-.02,2.79-.78,5.41-2.1,7.67-1.35-2.32-3.29-4.25-5.61-5.59,2.26-1.32,4.9-2.07,7.71-2.08Z"/>
      <path d="M87.24,15.56c1.35,2.32,3.29,4.26,5.62,5.6-2.27,1.32-4.91,2.07-7.72,2.07.02-2.8.78-5.42,2.1-7.67Z"/>
      <path d="M92.86,25.54c-2.33,1.34-4.27,3.27-5.62,5.59-1.32-2.25-2.09-4.87-2.1-7.67,2.82,0,5.45.75,7.72,2.07Z"/>
      <path d="M83.01,15.56c1.32,2.25,2.09,4.87,2.1,7.67-2.81,0-5.45-.76-7.71-2.08,2.32-1.34,4.26-3.27,5.61-5.59Z"/>
      <path d="M85.11,23.47c-.02,2.79-.78,5.41-2.1,7.67-1.35-2.32-3.29-4.25-5.61-5.59,2.26-1.32,4.9-2.07,7.71-2.08Z"/>
      <path d="M61.82,5.66c2.32-1.35,4.26-3.29,5.6-5.62,1.32,2.27,2.07,4.91,2.07,7.72-2.8-.02-5.42-.78-7.67-2.1Z"/>
      <path d="M71.8.04c1.34,2.33,3.27,4.27,5.59,5.62-2.25,1.32-4.87,2.09-7.67,2.1,0-2.82.75-5.45,2.07-7.72Z"/>
      <path d="M61.82,9.9c2.25-1.32,4.87-2.09,7.67-2.1,0,2.81-.76,5.45-2.08,7.71-1.34-2.32-3.27-4.26-5.59-5.61Z"/>
      <path d="M69.73,7.79c2.79.02,5.41.78,7.67,2.1-2.32,1.35-4.25,3.29-5.59,5.61-1.32-2.26-2.07-4.9-2.08-7.71Z"/>
      <path d="M46.35,5.66c2.32-1.35,4.26-3.29,5.6-5.62,1.32,2.27,2.07,4.91,2.07,7.72-2.8-.02-5.42-.78-7.67-2.1Z"/>
      <path d="M46.35,9.9c2.25-1.32,4.87-2.09,7.67-2.1,0,2.81-.76,5.45-2.08,7.71-1.34-2.32-3.27-4.26-5.59-5.61Z"/>
      <path d="M54.25,7.79c2.79.02,5.41.78,7.67,2.1-2.32,1.35-4.25,3.29-5.59,5.61-1.32-2.26-2.07-4.9-2.08-7.71Z"/>
      <path d="M30.89,5.66c2.32-1.35,4.26-3.29,5.6-5.62,1.32,2.27,2.07,4.91,2.07,7.72-2.8-.02-5.42-.78-7.67-2.1Z"/>
      <path d="M40.87.04c1.34,2.33,3.27,4.27,5.59,5.62-2.25,1.32-4.87,2.09-7.67,2.1,0-2.82.75-5.45,2.07-7.72Z"/>
      <path d="M30.89,9.9c2.25-1.32,4.87-2.09,7.67-2.1,0,2.81-.76,5.45-2.08,7.71-1.34-2.32-3.27-4.26-5.59-5.61Z"/>
      <path d="M38.8,7.79c2.79.02,5.41.78,7.67,2.1-2.32,1.35-4.25,3.29-5.59,5.61-1.32-2.26-2.07-4.9-2.08-7.71Z"/>
      <path d="M15.52,5.74c2.32-1.35,4.26-3.29,5.6-5.62,1.32,2.27,2.07,4.91,2.07,7.72-2.8-.02-5.42-.78-7.67-2.1Z"/>
      <path d="M25.29,0c1.34,2.33,3.27,4.27,5.59,5.62-2.25,1.32-4.87,2.09-7.67,2.1,0-2.82.75-5.45,2.07-7.72Z"/>
      <path d="M56.35.04c1.34,2.33,3.27,4.27,5.59,5.62-2.25,1.32-4.87,2.09-7.67,2.1,0-2.82.75-5.45,2.07-7.72Z"/>
      <path d="M15.52,9.98c2.25-1.32,4.87-2.09,7.67-2.1,0,2.81-.76,5.45-2.08,7.71-1.34-2.32-3.27-4.26-5.59-5.61Z"/>
      <path d="M23.22,7.75c2.79.02,5.41.78,7.67,2.1-2.32,1.35-4.25,3.29-5.59,5.61-1.32-2.26-2.07-4.9-2.08-7.71Z"/>
      <path d="M61.82,99.31c2.32-1.35,4.26-3.29,5.6-5.62,1.32,2.27,2.07,4.91,2.07,7.72-2.8-.02-5.42-.78-7.67-2.1Z"/>
      <path d="M71.8,93.69c1.34,2.33,3.27,4.27,5.59,5.62-2.25,1.32-4.87,2.09-7.67,2.1,0-2.82.75-5.45,2.07-7.72Z"/>
      <path d="M61.82,103.55c2.25-1.32,4.87-2.09,7.67-2.1,0,2.81-.76,5.45-2.08,7.71-1.34-2.32-3.27-4.26-5.59-5.61Z"/>
      <path d="M69.73,101.44c2.79.02,5.41.78,7.67,2.1-2.32,1.35-4.25,3.29-5.59,5.61-1.32-2.26-2.07-4.9-2.08-7.71Z"/>
      <path d="M46.35,99.31c2.32-1.35,4.26-3.29,5.6-5.62,1.32,2.27,2.07,4.91,2.07,7.72-2.8-.02-5.42-.78-7.67-2.1Z"/>
      <path d="M46.35,103.55c2.25-1.32,4.87-2.09,7.67-2.1,0,2.81-.76,5.45-2.08,7.71-1.34-2.32-3.27-4.26-5.59-5.61Z"/>
      <path d="M54.25,101.44c2.79.02,5.41.78,7.67,2.1-2.32,1.35-4.25,3.29-5.59,5.61-1.32-2.26-2.07-4.9-2.08-7.71Z"/>
      <path d="M30.89,99.31c2.32-1.35,4.26-3.29,5.6-5.62,1.32,2.27,2.07,4.91,2.07,7.72-2.8-.02-5.42-.78-7.67-2.1Z"/>
      <path d="M40.87,93.69c1.34,2.33,3.27,4.27,5.59,5.62-2.25,1.32-4.87,2.09-7.67,2.1,0-2.82.75-5.45,2.07-7.72Z"/>
      <path d="M30.89,103.55c2.25-1.32,4.87-2.09,7.67-2.1,0,2.81-.76,5.45-2.08,7.71-1.34-2.32-3.27-4.26-5.59-5.61Z"/>
      <path d="M38.8,101.44c2.79.02,5.41.78,7.67,2.1-2.32,1.35-4.25,3.29-5.59,5.61-1.32-2.26-2.07-4.9-2.08-7.71Z"/>
      <path d="M15.52,99.39c2.32-1.35,4.26-3.29,5.6-5.62,1.32,2.27,2.07,4.91,2.07,7.72-2.8-.02-5.42-.78-7.67-2.1Z"/>
      <path d="M25.29,93.65c1.34,2.33,3.27,4.27,5.59,5.62-2.25,1.32-4.87,2.09-7.67,2.1,0-2.82.75-5.45,2.07-7.72Z"/>
      <path d="M56.35,93.69c1.34,2.33,3.27,4.27,5.59,5.62-2.25,1.32-4.87,2.09-7.67,2.1,0-2.82.75-5.45,2.07-7.72Z"/>
      <path d="M15.52,103.63c2.25-1.32,4.87-2.09,7.67-2.1,0,2.81-.76,5.45-2.08,7.71-1.34-2.32-3.27-4.26-5.59-5.61Z"/>
      <path d="M23.22,101.4c2.79.02,5.41.78,7.67,2.1-2.32,1.35-4.25,3.29-5.59,5.61-1.32-2.26-2.07-4.9-2.08-7.71Z"/>
    </g>
  </g>
</svg>