<?xml version="1.0" encoding="UTF-8"?>
<svg id="_레이어_2" data-name="레이어 2" xmlns="http://www.w3.org/2000/svg" viewBox="0 0 108.34 109.72">
  <g id="_레이어_1-2" data-name="레이어 1">
    <g>
      <path d="M102.73,0c1.35,2.32,3.29,4.25,5.62,5.59-2.27,1.32-4.91,2.07-7.72,2.08.02-2.8.78-5.42,2.1-7.67Z"/>
      <path d="M108.34,9.98c-2.33,1.34-4.26,3.27-5.62,5.59-1.32-2.25-2.09-4.87-2.1-7.67,2.81,0,5.45.76,7.72,2.08Z"/>
      <g>
        <path d="M87.2.67c1.35,2.32,3.29,4.25,5.62,5.59-2.27,1.32-4.91,2.07-7.72,2.08.02-2.8.78-5.42,2.1-7.67Z"/>
        <path d="M92.82,10.65c-2.33,1.34-4.26,3.27-5.62,5.59-1.32-2.25-2.09-4.87-2.1-7.67,2.81,0,5.45.76,7.72,2.08Z"/>
        <path d="M82.96.67c1.32,2.25,2.09,4.87,2.1,7.67-2.81,0-5.45-.76-7.72-2.08,2.33-1.34,4.26-3.27,5.62-5.59Z"/>
        <path d="M85.06,8.57c-.02,2.79-.78,5.41-2.1,7.67-1.35-2.32-3.29-4.25-5.62-5.59,2.27-1.32,4.91-2.07,7.72-2.08Z"/>
        <path d="M98.48.67c1.32,2.25,2.09,4.87,2.1,7.67-2.81,0-5.45-.76-7.72-2.08,2.33-1.34,4.26-3.27,5.62-5.59Z"/>
        <path d="M100.59,8.57c-.02,2.79-.78,5.41-2.1,7.67-1.35-2.32-3.29-4.25-5.62-5.59,2.27-1.32,4.91-2.07,7.72-2.08Z"/>
        <path d="M71.73.67c1.35,2.32,3.29,4.25,5.62,5.59-2.27,1.32-4.91,2.07-7.72,2.08.02-2.8.78-5.42,2.1-7.67Z"/>
        <path d="M77.34,10.65c-2.33,1.34-4.26,3.27-5.62,5.59-1.32-2.25-2.09-4.87-2.1-7.67,2.81,0,5.45.76,7.72,2.08Z"/>
        <path d="M67.48.67c1.32,2.25,2.09,4.87,2.1,7.67-2.81,0-5.45-.76-7.72-2.08,2.33-1.34,4.27-3.27,5.62-5.59Z"/>
        <path d="M69.59,8.57c-.02,2.79-.78,5.41-2.1,7.67-1.35-2.32-3.29-4.25-5.62-5.59,2.27-1.32,4.91-2.07,7.72-2.08Z"/>
        <path d="M56.26.67c1.35,2.32,3.29,4.25,5.61,5.59-2.26,1.32-4.9,2.07-7.71,2.08.02-2.8.78-5.42,2.1-7.67Z"/>
        <path d="M61.87,10.65c-2.32,1.34-4.26,3.27-5.61,5.59-1.32-2.25-2.09-4.87-2.1-7.67,2.81,0,5.45.76,7.71,2.08Z"/>
        <path d="M52.01.67c1.32,2.25,2.09,4.87,2.1,7.67-2.82,0-5.45-.76-7.72-2.08,2.32-1.34,4.26-3.27,5.62-5.59Z"/>
        <path d="M54.12,8.57c-.02,2.79-.78,5.41-2.1,7.67-1.35-2.32-3.29-4.25-5.62-5.59,2.27-1.32,4.9-2.07,7.72-2.08Z"/>
        <path d="M56.26,16.25c1.35,2.32,3.29,4.25,5.61,5.59-2.26,1.32-4.9,2.07-7.71,2.08.02-2.8.78-5.42,2.1-7.67Z"/>
        <path d="M61.87,26.23c-2.32,1.34-4.26,3.27-5.61,5.59-1.32-2.25-2.09-4.87-2.1-7.67,2.81,0,5.45.76,7.71,2.08Z"/>
        <path d="M52.01,16.25c1.32,2.25,2.09,4.87,2.1,7.67-2.82,0-5.45-.76-7.72-2.08,2.32-1.34,4.26-3.27,5.62-5.59Z"/>
        <path d="M54.12,24.15c-.02,2.79-.78,5.41-2.1,7.67-1.35-2.32-3.29-4.25-5.62-5.59,2.27-1.32,4.9-2.07,7.72-2.08Z"/>
        <path d="M56.26,31.83c1.35,2.32,3.29,4.25,5.61,5.59-2.26,1.32-4.9,2.07-7.71,2.08.02-2.8.78-5.42,2.1-7.67Z"/>
        <path d="M61.87,41.81c-2.32,1.34-4.26,3.27-5.61,5.59-1.32-2.25-2.09-4.87-2.1-7.67,2.81,0,5.45.76,7.71,2.08Z"/>
        <path d="M52.01,31.83c1.32,2.25,2.09,4.87,2.1,7.67-2.82,0-5.45-.76-7.72-2.08,2.32-1.34,4.26-3.27,5.62-5.59Z"/>
        <path d="M54.12,39.73c-.02,2.79-.78,5.41-2.1,7.67-1.35-2.32-3.29-4.25-5.62-5.59,2.27-1.32,4.9-2.07,7.72-2.08Z"/>
        <path d="M56.26,47.41c1.35,2.32,3.29,4.25,5.61,5.59-2.26,1.32-4.9,2.07-7.71,2.08.02-2.8.78-5.42,2.1-7.67Z"/>
        <path d="M61.87,57.39c-2.32,1.34-4.26,3.27-5.61,5.59-1.32-2.25-2.09-4.87-2.1-7.67,2.81,0,5.45.76,7.71,2.08Z"/>
        <path d="M52.01,47.41c1.32,2.25,2.09,4.87,2.1,7.67-2.82,0-5.45-.76-7.72-2.08,2.32-1.34,4.26-3.27,5.62-5.59Z"/>
        <path d="M54.12,55.32c-.02,2.79-.78,5.41-2.1,7.67-1.35-2.32-3.29-4.25-5.62-5.59,2.27-1.32,4.9-2.07,7.72-2.08Z"/>
        <path d="M56.26,62.97c1.35,2.32,3.29,4.25,5.61,5.59-2.26,1.32-4.9,2.07-7.71,2.08.02-2.8.78-5.42,2.1-7.67Z"/>
        <path d="M61.87,72.95c-2.32,1.34-4.26,3.27-5.61,5.59-1.32-2.25-2.09-4.87-2.1-7.67,2.81,0,5.45.76,7.71,2.08Z"/>
        <path d="M52.01,62.97c1.32,2.25,2.09,4.87,2.1,7.67-2.82,0-5.45-.76-7.72-2.08,2.32-1.34,4.26-3.27,5.62-5.59Z"/>
        <path d="M54.12,70.87c-.02,2.79-.78,5.41-2.1,7.67-1.35-2.32-3.29-4.25-5.62-5.59,2.27-1.32,4.9-2.07,7.72-2.08Z"/>
        <path d="M56.26,78.54c1.35,2.32,3.29,4.25,5.61,5.59-2.26,1.32-4.9,2.07-7.71,2.08.02-2.8.78-5.42,2.1-7.67Z"/>
        <path d="M61.87,88.53c-2.32,1.34-4.26,3.27-5.61,5.59-1.32-2.25-2.09-4.87-2.1-7.67,2.81,0,5.45.76,7.71,2.08Z"/>
        <path d="M52.01,78.54c1.32,2.25,2.09,4.87,2.1,7.67-2.82,0-5.45-.76-7.72-2.08,2.32-1.34,4.26-3.27,5.62-5.59Z"/>
        <path d="M54.12,86.45c-.02,2.79-.78,5.41-2.1,7.67-1.35-2.32-3.29-4.25-5.62-5.59,2.27-1.32,4.9-2.07,7.72-2.08Z"/>
        <path d="M56.26,94.14c1.35,2.32,3.29,4.25,5.61,5.59-2.26,1.32-4.9,2.07-7.71,2.08.02-2.8.78-5.42,2.1-7.67Z"/>
        <path d="M61.87,104.13c-2.32,1.34-4.26,3.27-5.61,5.59-1.32-2.25-2.09-4.87-2.1-7.67,2.81,0,5.45.76,7.71,2.08Z"/>
        <path d="M52.01,94.14c1.32,2.25,2.09,4.87,2.1,7.67-2.82,0-5.45-.76-7.72-2.08,2.32-1.34,4.26-3.27,5.62-5.59Z"/>
        <path d="M54.12,102.05c-.02,2.79-.78,5.41-2.1,7.67-1.35-2.32-3.29-4.25-5.62-5.59,2.27-1.32,4.9-2.07,7.72-2.08Z"/>
        <path d="M40.78.67c1.35,2.32,3.29,4.25,5.62,5.59-2.27,1.32-4.9,2.07-7.72,2.08.02-2.8.78-5.42,2.1-7.67Z"/>
        <path d="M46.4,10.65c-2.32,1.34-4.26,3.27-5.62,5.59-1.32-2.25-2.09-4.87-2.1-7.67,2.82,0,5.45.76,7.72,2.08Z"/>
        <path d="M36.54.67c1.32,2.25,2.09,4.87,2.1,7.67-2.81,0-5.45-.76-7.71-2.08,2.32-1.34,4.26-3.27,5.61-5.59Z"/>
        <path d="M38.64,8.57c-.02,2.79-.78,5.41-2.1,7.67-1.35-2.32-3.29-4.25-5.61-5.59,2.26-1.32,4.9-2.07,7.71-2.08Z"/>
        <path d="M25.31.67c1.35,2.32,3.29,4.25,5.62,5.59-2.27,1.32-4.91,2.07-7.72,2.08.02-2.8.78-5.42,2.1-7.67Z"/>
        <path d="M30.93,10.65c-2.33,1.34-4.26,3.27-5.62,5.59-1.32-2.25-2.09-4.87-2.1-7.67,2.81,0,5.45.76,7.72,2.08Z"/>
        <path d="M21.08.67c1.32,2.25,2.09,4.87,2.1,7.67-2.81,0-5.45-.75-7.72-2.07,2.33-1.34,4.27-3.28,5.62-5.6Z"/>
        <path d="M23.19,8.57c-.02,2.79-.78,5.41-2.1,7.67-1.35-2.32-3.29-4.25-5.62-5.59,2.28-1.32,4.91-2.07,7.72-2.07Z"/>
        <path d="M9.84.67c1.35,2.32,3.29,4.26,5.62,5.6-2.27,1.32-4.91,2.07-7.72,2.07.02-2.8.78-5.42,2.1-7.67Z"/>
        <path d="M15.46,10.65c-2.33,1.34-4.27,3.27-5.62,5.59-1.32-2.25-2.09-4.87-2.1-7.67,2.82,0,5.45.75,7.72,2.07Z"/>
        <path d="M5.61.67c1.32,2.25,2.09,4.87,2.1,7.67-2.81,0-5.45-.76-7.71-2.08C2.32,4.92,4.26,2.99,5.61.67Z"/>
        <path d="M7.71,8.57c-.02,2.79-.78,5.41-2.1,7.67-1.35-2.32-3.29-4.25-5.61-5.59,2.26-1.32,4.9-2.07,7.71-2.08Z"/>
      </g>
    </g>
  </g>
</svg>