<?xml version="1.0" encoding="UTF-8"?>
<svg id="_레이어_2" data-name="레이어 2" xmlns="http://www.w3.org/2000/svg" viewBox="0 0 108.39 109.11">
  <g id="_레이어_1-2" data-name="레이어 1">
    <g>
      <path d="M10.01,93.53c1.35,2.32,3.29,4.25,5.62,5.59-2.27,1.32-4.91,2.07-7.72,2.08.02-2.8.78-5.42,2.1-7.67Z"/>
      <path d="M15.63,103.52c-2.33,1.34-4.26,3.27-5.62,5.59-1.32-2.25-2.09-4.87-2.1-7.67,2.81,0,5.45.76,7.72,2.08Z"/>
      <path d="M5.77,93.53c1.32,2.25,2.09,4.87,2.1,7.67-2.81,0-5.45-.76-7.72-2.08,2.33-1.34,4.26-3.27,5.62-5.59Z"/>
      <path d="M7.87,101.44c-.02,2.79-.78,5.41-2.1,7.67-1.35-2.32-3.29-4.25-5.62-5.59,2.27-1.32,4.91-2.07,7.72-2.08Z"/>
      <path d="M25.4,77.97c1.35,2.32,3.29,4.25,5.62,5.59-2.27,1.32-4.91,2.07-7.72,2.08.02-2.8.78-5.42,2.1-7.67Z"/>
      <path d="M31.01,87.96c-2.33,1.34-4.26,3.27-5.62,5.59-1.32-2.25-2.09-4.87-2.1-7.67,2.81,0,5.45.76,7.72,2.08Z"/>
      <path d="M21.15,77.97c1.32,2.25,2.09,4.87,2.1,7.67-2.81,0-5.45-.76-7.72-2.08,2.33-1.34,4.26-3.27,5.62-5.59Z"/>
      <path d="M23.26,85.88c-.02,2.79-.78,5.41-2.1,7.67-1.35-2.32-3.29-4.25-5.62-5.59,2.27-1.32,4.91-2.07,7.72-2.08Z"/>
      <path d="M40.97,62.38c1.35,2.32,3.29,4.25,5.62,5.59-2.27,1.32-4.91,2.07-7.72,2.08.02-2.8.78-5.42,2.1-7.67Z"/>
      <path d="M46.59,72.36c-2.33,1.34-4.26,3.27-5.62,5.59-1.32-2.25-2.09-4.87-2.1-7.67,2.81,0,5.45.76,7.72,2.08Z"/>
      <path d="M36.73,62.38c1.32,2.25,2.09,4.87,2.1,7.67-2.81,0-5.45-.76-7.72-2.08,2.33-1.34,4.26-3.27,5.62-5.59Z"/>
      <path d="M38.83,70.28c-.02,2.79-.78,5.41-2.1,7.67-1.35-2.32-3.29-4.25-5.62-5.59,2.27-1.32,4.91-2.07,7.72-2.08Z"/>
      <path d="M56.37,46.8c1.35,2.32,3.29,4.25,5.62,5.59-2.27,1.32-4.91,2.07-7.72,2.08.02-2.8.78-5.42,2.1-7.67Z"/>
      <path d="M61.99,56.79c-2.33,1.34-4.26,3.27-5.62,5.59-1.32-2.25-2.09-4.87-2.1-7.67,2.81,0,5.45.76,7.72,2.08Z"/>
      <path d="M52.13,46.8c1.32,2.25,2.09,4.87,2.1,7.67-2.81,0-5.45-.76-7.72-2.08,2.33-1.34,4.26-3.27,5.62-5.59Z"/>
      <path d="M54.23,54.71c-.02,2.79-.78,5.41-2.1,7.67-1.35-2.32-3.29-4.25-5.62-5.59,2.27-1.32,4.91-2.07,7.72-2.08Z"/>
      <path d="M71.92,31.11c1.35,2.32,3.29,4.25,5.62,5.59-2.27,1.32-4.91,2.07-7.72,2.08.02-2.8.78-5.42,2.1-7.67Z"/>
      <path d="M77.53,41.09c-2.33,1.34-4.26,3.27-5.62,5.59-1.32-2.25-2.09-4.87-2.1-7.67,2.81,0,5.45.76,7.72,2.08Z"/>
      <path d="M67.67,31.11c1.32,2.25,2.09,4.87,2.1,7.67-2.81,0-5.45-.76-7.72-2.08,2.33-1.34,4.26-3.27,5.62-5.59Z"/>
      <path d="M69.78,39.02c-.02,2.79-.78,5.41-2.1,7.67-1.35-2.32-3.29-4.25-5.62-5.59,2.27-1.32,4.91-2.07,7.72-2.08Z"/>
      <path d="M87.34,15.53c1.35,2.32,3.29,4.25,5.62,5.59-2.27,1.32-4.91,2.07-7.72,2.08.02-2.8.78-5.42,2.1-7.67Z"/>
      <path d="M92.96,25.52c-2.33,1.34-4.26,3.27-5.62,5.59-1.32-2.25-2.09-4.87-2.1-7.67,2.81,0,5.45.76,7.72,2.08Z"/>
      <path d="M83.1,15.53c1.32,2.25,2.09,4.87,2.1,7.67-2.81,0-5.45-.76-7.72-2.08,2.33-1.34,4.26-3.27,5.62-5.59Z"/>
      <path d="M85.2,23.44c-.02,2.79-.78,5.41-2.1,7.67-1.35-2.32-3.29-4.25-5.62-5.59,2.27-1.32,4.91-2.07,7.72-2.08Z"/>
      <path d="M102.77.08c1.35,2.32,3.29,4.25,5.62,5.59-2.27,1.32-4.91,2.07-7.72,2.08.02-2.8.78-5.42,2.1-7.67Z"/>
      <path d="M108.39,10.06c-2.33,1.34-4.26,3.27-5.62,5.59-1.32-2.25-2.09-4.87-2.1-7.67,2.81,0,5.45.76,7.72,2.08Z"/>
      <path d="M98.53.08c1.32,2.25,2.09,4.87,2.1,7.67-2.81,0-5.45-.76-7.72-2.08,2.33-1.34,4.26-3.27,5.62-5.59Z"/>
      <path d="M100.63,7.98c-.02,2.79-.78,5.41-2.1,7.67-1.35-2.32-3.29-4.25-5.62-5.59,2.27-1.32,4.91-2.07,7.72-2.08Z"/>
      <path d="M15.57,9.86c-2.32,1.35-4.25,3.29-5.59,5.62-1.32-2.27-2.07-4.91-2.08-7.72,2.8.02,5.42.78,7.67,2.1Z"/>
      <path d="M5.59,15.47c-1.34-2.33-3.27-4.26-5.59-5.62,2.25-1.32,4.87-2.09,7.67-2.1,0,2.81-.76,5.45-2.08,7.72Z"/>
      <path d="M15.57,5.62c-2.25,1.32-4.87,2.09-7.67,2.1,0-2.81.76-5.45,2.08-7.72,1.34,2.33,3.27,4.26,5.59,5.62Z"/>
      <path d="M7.67,7.72c-2.79-.02-5.41-.78-7.67-2.1C2.32,4.26,4.25,2.33,5.59,0c1.32,2.27,2.07,4.91,2.08,7.72Z"/>
      <path d="M31.1,25.56c-2.32,1.35-4.25,3.29-5.59,5.62-1.32-2.27-2.07-4.91-2.08-7.72,2.8.02,5.42.78,7.67,2.1Z"/>
      <path d="M21.12,31.18c-1.34-2.33-3.27-4.26-5.59-5.62,2.25-1.32,4.87-2.09,7.67-2.1,0,2.81-.76,5.45-2.08,7.72Z"/>
      <path d="M31.1,21.32c-2.25,1.32-4.87,2.09-7.67,2.1,0-2.81.76-5.45,2.08-7.72,1.34,2.33,3.27,4.26,5.59,5.62Z"/>
      <path d="M23.19,23.42c-2.79-.02-5.41-.78-7.67-2.1,2.32-1.35,4.25-3.29,5.59-5.62,1.32,2.27,2.07,4.91,2.08,7.72Z"/>
      <path d="M46.54,41.02c-2.32,1.35-4.25,3.29-5.59,5.62-1.32-2.27-2.07-4.91-2.08-7.72,2.8.02,5.42.78,7.67,2.1Z"/>
      <path d="M36.56,46.63c-1.34-2.33-3.27-4.26-5.59-5.62,2.25-1.32,4.87-2.09,7.67-2.1,0,2.81-.76,5.45-2.08,7.72Z"/>
      <path d="M46.54,36.77c-2.25,1.32-4.87,2.09-7.67,2.1,0-2.81.76-5.45,2.08-7.72,1.34,2.33,3.27,4.26,5.59,5.62Z"/>
      <path d="M38.64,38.88c-2.79-.02-5.41-.78-7.67-2.1,2.32-1.35,4.25-3.29,5.59-5.62,1.32,2.27,2.07,4.91,2.08,7.72Z"/>
      <path d="M77.49,72.05c-2.32,1.35-4.25,3.29-5.59,5.62-1.32-2.27-2.07-4.91-2.08-7.72,2.8.02,5.42.78,7.67,2.1Z"/>
      <path d="M67.5,77.67c-1.34-2.33-3.27-4.26-5.59-5.62,2.25-1.32,4.87-2.09,7.67-2.1,0,2.81-.76,5.45-2.08,7.72Z"/>
      <path d="M77.49,67.81c-2.25,1.32-4.87,2.09-7.67,2.1,0-2.81.76-5.45,2.08-7.72,1.34,2.33,3.27,4.26,5.59,5.62Z"/>
      <path d="M69.58,69.91c-2.79-.02-5.41-.78-7.67-2.1,2.32-1.35,4.25-3.29,5.59-5.62,1.32,2.27,2.07,4.91,2.08,7.72Z"/>
      <path d="M92.96,87.74c-2.32,1.35-4.25,3.29-5.59,5.62-1.32-2.27-2.07-4.91-2.08-7.72,2.8.02,5.42.78,7.67,2.1Z"/>
      <path d="M82.98,93.36c-1.34-2.33-3.27-4.26-5.59-5.62,2.25-1.32,4.87-2.09,7.67-2.1,0,2.81-.76,5.45-2.08,7.72Z"/>
      <path d="M92.96,83.5c-2.25,1.32-4.87,2.09-7.67,2.1,0-2.81.76-5.45,2.08-7.72,1.34,2.33,3.27,4.26,5.59,5.62Z"/>
      <path d="M85.05,85.6c-2.79-.02-5.41-.78-7.67-2.1,2.32-1.35,4.25-3.29,5.59-5.62,1.32,2.27,2.07,4.91,2.08,7.72Z"/>
      <path d="M108.38,103.28c-2.32,1.35-4.25,3.29-5.59,5.62-1.32-2.27-2.07-4.91-2.08-7.72,2.8.02,5.42.78,7.67,2.1Z"/>
      <path d="M98.4,108.89c-1.34-2.33-3.27-4.26-5.59-5.62,2.25-1.32,4.87-2.09,7.67-2.1,0,2.81-.76,5.45-2.08,7.72Z"/>
      <path d="M108.38,99.03c-2.25,1.32-4.87,2.09-7.67,2.1,0-2.81.76-5.45,2.08-7.72,1.34,2.33,3.27,4.26,5.59,5.62Z"/>
      <path d="M100.48,101.14c-2.79-.02-5.41-.78-7.67-2.1,2.32-1.35,4.25-3.29,5.59-5.62,1.32,2.27,2.07,4.91,2.08,7.72Z"/>
    </g>
  </g>
</svg>