<?xml version="1.0" encoding="UTF-8"?>
<svg id="_레이어_2" data-name="레이어 2" xmlns="http://www.w3.org/2000/svg" viewBox="0 0 119.53 120.25">
  <g id="_레이어_1-2" data-name="레이어 1">
    <g>
      <path d="M113.88,0c2.34,1.34,4.29,3.28,5.65,5.61-1.36,2.33-3.31,4.28-5.65,5.62-2.34-1.34-4.3-3.28-5.66-5.62,1.36-2.33,3.31-4.27,5.66-5.61Z"/>
      <path d="M113.88,15.57c2.34,1.34,4.29,3.28,5.65,5.61-1.36,2.33-3.31,4.28-5.65,5.62-2.34-1.34-4.3-3.28-5.66-5.62,1.36-2.33,3.31-4.27,5.66-5.61Z"/>
      <path d="M113.88,93.45c2.34,1.34,4.29,3.28,5.65,5.61-1.36,2.33-3.31,4.28-5.65,5.62-2.34-1.34-4.3-3.28-5.66-5.62,1.36-2.33,3.31-4.27,5.66-5.61Z"/>
      <path d="M113.88,109.02c2.34,1.34,4.29,3.28,5.65,5.61-1.36,2.33-3.31,4.28-5.65,5.62-2.34-1.34-4.3-3.28-5.66-5.62,1.36-2.33,3.31-4.27,5.66-5.61Z"/>
      <path d="M98.44.02c2.33,1.34,4.26,3.27,5.62,5.59-1.35,2.32-3.29,4.25-5.62,5.59-2.33-1.34-4.26-3.27-5.62-5.59,1.35-2.32,3.29-4.25,5.62-5.59Z"/>
      <path d="M98.44,15.59c2.33,1.34,4.26,3.27,5.62,5.59-1.35,2.32-3.29,4.25-5.62,5.59-2.33-1.34-4.26-3.27-5.62-5.59,1.35-2.32,3.29-4.25,5.62-5.59Z"/>
      <path d="M98.44,93.47c2.33,1.34,4.26,3.27,5.62,5.59-1.35,2.32-3.29,4.25-5.62,5.59-2.33-1.34-4.26-3.27-5.62-5.59,1.35-2.32,3.29-4.25,5.62-5.59Z"/>
      <path d="M98.44,109.05c2.33,1.34,4.26,3.27,5.62,5.59-1.35,2.32-3.29,4.25-5.62,5.59-2.33-1.34-4.26-3.27-5.62-5.59,1.35-2.32,3.29-4.25,5.62-5.59Z"/>
      <path d="M82.97.02c2.33,1.34,4.26,3.27,5.62,5.59-1.35,2.32-3.29,4.25-5.62,5.59-2.32-1.34-4.26-3.27-5.61-5.59,1.35-2.32,3.29-4.25,5.61-5.59Z"/>
      <path d="M82.97,15.59c2.33,1.34,4.26,3.27,5.62,5.59-1.35,2.32-3.29,4.25-5.62,5.59-2.32-1.34-4.26-3.27-5.61-5.59,1.35-2.32,3.29-4.25,5.61-5.59Z"/>
      <path d="M82.97,93.47c2.33,1.34,4.26,3.27,5.62,5.59-1.35,2.32-3.29,4.25-5.62,5.59-2.32-1.34-4.26-3.27-5.61-5.59,1.35-2.32,3.29-4.25,5.61-5.59Z"/>
      <path d="M82.97,109.05c2.33,1.34,4.26,3.27,5.62,5.59-1.35,2.32-3.29,4.25-5.62,5.59-2.32-1.34-4.26-3.27-5.61-5.59,1.35-2.32,3.29-4.25,5.61-5.59Z"/>
      <path d="M67.5.02c2.32,1.34,4.26,3.27,5.62,5.59-1.35,2.32-3.29,4.25-5.62,5.59-2.32-1.34-4.26-3.27-5.62-5.59,1.35-2.32,3.29-4.25,5.62-5.59Z"/>
      <path d="M67.5,15.59c2.32,1.34,4.26,3.27,5.62,5.59-1.35,2.32-3.29,4.25-5.62,5.59-2.32-1.34-4.26-3.27-5.62-5.59,1.35-2.32,3.29-4.25,5.62-5.59Z"/>
      <path d="M67.5,31.17c2.32,1.34,4.26,3.27,5.62,5.59-1.35,2.32-3.29,4.25-5.62,5.59-2.32-1.34-4.26-3.27-5.62-5.59,1.35-2.32,3.29-4.25,5.62-5.59Z"/>
      <path d="M67.5,46.75c2.33,1.34,4.27,3.27,5.62,5.59-1.36,2.32-3.3,4.25-5.62,5.59-2.32-1.34-4.26-3.27-5.62-5.59,1.35-2.32,3.29-4.25,5.62-5.59Z"/>
      <path d="M67.5,62.32c2.32,1.34,4.26,3.27,5.62,5.59-1.35,2.32-3.29,4.25-5.62,5.59-2.32-1.34-4.26-3.27-5.62-5.59,1.35-2.32,3.29-4.25,5.62-5.59Z"/>
      <path d="M67.5,77.89c2.32,1.34,4.26,3.28,5.62,5.59-1.36,2.32-3.3,4.25-5.62,5.59-2.32-1.34-4.26-3.28-5.62-5.59,1.36-2.32,3.3-4.25,5.62-5.59Z"/>
      <path d="M67.5,93.47c2.32,1.34,4.26,3.27,5.62,5.59-1.35,2.32-3.29,4.25-5.62,5.59-2.32-1.34-4.26-3.27-5.62-5.59,1.35-2.32,3.29-4.25,5.62-5.59Z"/>
      <path d="M67.5,109.05c2.32,1.34,4.26,3.27,5.62,5.59-1.35,2.32-3.29,4.25-5.62,5.59-2.32-1.34-4.26-3.27-5.62-5.59,1.35-2.32,3.29-4.25,5.62-5.59Z"/>
      <path d="M52.03.02c2.32,1.34,4.26,3.27,5.61,5.59-1.35,2.32-3.29,4.25-5.61,5.59-2.33-1.34-4.27-3.27-5.62-5.59,1.35-2.32,3.29-4.25,5.62-5.59Z"/>
      <path d="M52.03,15.59c2.32,1.34,4.26,3.27,5.61,5.59-1.35,2.32-3.29,4.25-5.61,5.59-2.33-1.34-4.27-3.27-5.62-5.59,1.35-2.32,3.29-4.25,5.62-5.59Z"/>
      <path d="M52.03,31.17c2.32,1.34,4.26,3.28,5.61,5.59-1.35,2.32-3.29,4.25-5.61,5.59-2.33-1.34-4.26-3.27-5.62-5.59,1.35-2.32,3.29-4.25,5.62-5.59Z"/>
      <path d="M52.03,46.75c2.32,1.34,4.26,3.28,5.62,5.59-1.36,2.32-3.29,4.25-5.62,5.59-2.33-1.34-4.26-3.27-5.62-5.59,1.35-2.32,3.29-4.25,5.62-5.59Z"/>
      <path d="M52.03,62.32c2.32,1.34,4.26,3.27,5.61,5.59-1.35,2.32-3.29,4.25-5.61,5.59-2.33-1.34-4.26-3.27-5.62-5.59,1.35-2.32,3.29-4.25,5.62-5.59Z"/>
      <path d="M52.03,77.89c2.32,1.34,4.26,3.28,5.62,5.59-1.35,2.32-3.29,4.25-5.62,5.59-2.33-1.34-4.27-3.28-5.62-5.59,1.35-2.32,3.29-4.25,5.62-5.59Z"/>
      <path d="M52.03,93.47c2.32,1.34,4.26,3.27,5.61,5.59-1.35,2.32-3.29,4.25-5.61,5.59-2.33-1.34-4.27-3.27-5.62-5.59,1.35-2.32,3.29-4.25,5.62-5.59Z"/>
      <path d="M52.03,109.05c2.32,1.34,4.26,3.27,5.61,5.59-1.35,2.32-3.29,4.25-5.61,5.59-2.33-1.34-4.27-3.27-5.62-5.59,1.35-2.32,3.29-4.25,5.62-5.59Z"/>
      <path d="M36.55.02c2.33,1.34,4.26,3.27,5.62,5.59-1.35,2.32-3.29,4.25-5.62,5.59-2.33-1.34-4.26-3.27-5.62-5.59,1.35-2.32,3.29-4.25,5.62-5.59Z"/>
      <path d="M36.55,15.59c2.33,1.34,4.26,3.27,5.62,5.59-1.35,2.32-3.29,4.25-5.62,5.59-2.33-1.34-4.26-3.27-5.62-5.59,1.35-2.32,3.29-4.25,5.62-5.59Z"/>
      <path d="M36.55,93.47c2.33,1.34,4.26,3.27,5.62,5.59-1.35,2.32-3.29,4.25-5.62,5.59-2.33-1.34-4.26-3.27-5.62-5.59,1.35-2.32,3.29-4.25,5.62-5.59Z"/>
      <path d="M36.55,109.05c2.33,1.34,4.26,3.27,5.62,5.59-1.35,2.32-3.29,4.25-5.62,5.59-2.33-1.34-4.26-3.27-5.62-5.59,1.35-2.32,3.29-4.25,5.62-5.59Z"/>
      <path d="M21.08.02c2.33,1.34,4.26,3.27,5.62,5.59-1.35,2.32-3.29,4.25-5.62,5.59-2.32-1.34-4.26-3.27-5.61-5.59C16.82,3.29,18.76,1.36,21.08.02Z"/>
      <path d="M21.08,15.59c2.33,1.34,4.26,3.27,5.62,5.59-1.35,2.32-3.29,4.25-5.62,5.59-2.32-1.34-4.26-3.27-5.61-5.59,1.35-2.32,3.29-4.25,5.61-5.59Z"/>
      <path d="M21.08,93.47c2.33,1.34,4.26,3.27,5.62,5.59-1.35,2.32-3.29,4.25-5.62,5.59-2.32-1.34-4.26-3.27-5.61-5.59,1.35-2.32,3.29-4.25,5.61-5.59Z"/>
      <path d="M21.08,109.05c2.33,1.34,4.26,3.27,5.62,5.59-1.35,2.32-3.29,4.25-5.62,5.59-2.32-1.34-4.26-3.27-5.61-5.59,1.35-2.32,3.29-4.25,5.61-5.59Z"/>
      <path d="M5.61.02c2.32,1.34,4.26,3.27,5.62,5.59-1.35,2.32-3.29,4.25-5.62,5.59C3.29,9.86,1.35,7.93,0,5.61,1.35,3.29,3.29,1.36,5.61.02Z"/>
      <path d="M5.61,15.59c2.32,1.34,4.26,3.27,5.62,5.59-1.35,2.32-3.29,4.25-5.62,5.59-2.32-1.34-4.26-3.27-5.61-5.59,1.35-2.32,3.29-4.25,5.61-5.59Z"/>
      <path d="M5.61,93.47c2.32,1.34,4.26,3.27,5.62,5.59-1.35,2.32-3.29,4.25-5.62,5.59-2.32-1.34-4.26-3.27-5.61-5.59,1.35-2.32,3.29-4.25,5.61-5.59Z"/>
      <path d="M5.61,109.05c2.32,1.34,4.26,3.27,5.62,5.59-1.35,2.32-3.29,4.25-5.62,5.59-2.32-1.34-4.26-3.27-5.61-5.59,1.35-2.32,3.29-4.25,5.61-5.59Z"/>
    </g>
  </g>
</svg>