<?xml version="1.0" encoding="UTF-8"?>
<svg id="_레이어_2" data-name="레이어 2" xmlns="http://www.w3.org/2000/svg" viewBox="0 0 104.06 120.25">
  <g id="_레이어_1-2" data-name="레이어 1">
    <g>
      <path d="M98.45,93.47c2.32,1.34,4.26,3.27,5.61,5.59-1.35,2.32-3.29,4.25-5.61,5.59-2.33-1.34-4.27-3.27-5.62-5.59,1.35-2.32,3.29-4.25,5.62-5.59Z"/>
      <path d="M98.45,109.05c2.32,1.34,4.26,3.27,5.61,5.59-1.35,2.32-3.29,4.25-5.61,5.59-2.33-1.34-4.27-3.27-5.62-5.59,1.35-2.32,3.29-4.25,5.62-5.59Z"/>
      <path d="M82.98,93.47c2.32,1.34,4.26,3.27,5.61,5.59-1.35,2.32-3.29,4.25-5.61,5.59-2.33-1.34-4.26-3.27-5.62-5.59,1.35-2.32,3.29-4.25,5.62-5.59Z"/>
      <path d="M82.98,109.05c2.32,1.34,4.26,3.27,5.61,5.59-1.35,2.32-3.29,4.25-5.61,5.59-2.33-1.34-4.26-3.27-5.62-5.59,1.35-2.32,3.29-4.25,5.62-5.59Z"/>
      <path d="M67.5,93.47c2.33,1.34,4.26,3.27,5.62,5.59-1.35,2.32-3.29,4.25-5.62,5.59-2.32-1.34-4.26-3.27-5.61-5.59,1.35-2.32,3.29-4.25,5.61-5.59Z"/>
      <path d="M67.5,109.05c2.33,1.34,4.26,3.27,5.62,5.59-1.35,2.32-3.29,4.25-5.62,5.59-2.32-1.34-4.26-3.27-5.61-5.59,1.35-2.32,3.29-4.25,5.61-5.59Z"/>
      <path d="M52.03,93.47c2.32,1.34,4.26,3.27,5.62,5.59-1.35,2.32-3.29,4.25-5.62,5.59-2.32-1.34-4.26-3.27-5.62-5.59,1.35-2.32,3.29-4.25,5.62-5.59Z"/>
      <path d="M52.03,109.05c2.32,1.34,4.26,3.27,5.62,5.59-1.35,2.32-3.29,4.25-5.62,5.59-2.32-1.34-4.26-3.27-5.62-5.59,1.35-2.32,3.29-4.25,5.62-5.59Z"/>
      <path d="M36.56,93.47c2.32,1.34,4.26,3.27,5.61,5.59-1.35,2.32-3.29,4.25-5.61,5.59-2.33-1.34-4.27-3.27-5.62-5.59,1.35-2.32,3.29-4.25,5.62-5.59Z"/>
      <path d="M36.56,109.05c2.32,1.34,4.26,3.27,5.61,5.59-1.35,2.32-3.29,4.25-5.61,5.59-2.33-1.34-4.27-3.27-5.62-5.59,1.35-2.32,3.29-4.25,5.62-5.59Z"/>
      <path d="M21.09.02c2.33,1.34,4.26,3.27,5.62,5.59-1.35,2.32-3.29,4.25-5.62,5.59-2.33-1.34-4.26-3.27-5.62-5.59C16.83,3.29,18.76,1.36,21.09.02Z"/>
      <path d="M21.09,15.59c2.33,1.34,4.26,3.27,5.62,5.59-1.35,2.32-3.29,4.25-5.62,5.59-2.33-1.34-4.26-3.27-5.62-5.59,1.35-2.32,3.29-4.25,5.62-5.59Z"/>
      <path d="M21.09,31.17c2.33,1.34,4.26,3.28,5.62,5.59-1.35,2.32-3.29,4.25-5.62,5.59-2.33-1.34-4.26-3.28-5.62-5.59,1.35-2.32,3.29-4.25,5.62-5.59Z"/>
      <path d="M21.09,46.75c2.33,1.34,4.27,3.28,5.62,5.59-1.36,2.32-3.29,4.25-5.62,5.59-2.33-1.34-4.26-3.27-5.62-5.59,1.35-2.32,3.29-4.25,5.62-5.59Z"/>
      <path d="M21.09,62.32c2.33,1.34,4.26,3.27,5.62,5.59-1.35,2.32-3.29,4.25-5.62,5.59-2.33-1.34-4.26-3.27-5.62-5.59,1.35-2.32,3.29-4.25,5.62-5.59Z"/>
      <path d="M21.09,77.89c2.33,1.34,4.26,3.28,5.62,5.59-1.36,2.32-3.29,4.25-5.62,5.59-2.33-1.34-4.26-3.28-5.62-5.59,1.36-2.32,3.29-4.25,5.62-5.59Z"/>
      <path d="M21.09,93.47c2.33,1.34,4.26,3.27,5.62,5.59-1.35,2.32-3.29,4.25-5.62,5.59-2.33-1.34-4.26-3.27-5.62-5.59,1.35-2.32,3.29-4.25,5.62-5.59Z"/>
      <path d="M21.09,109.05c2.33,1.34,4.26,3.27,5.62,5.59-1.35,2.32-3.29,4.25-5.62,5.59-2.33-1.34-4.26-3.27-5.62-5.59,1.35-2.32,3.29-4.25,5.62-5.59Z"/>
      <path d="M5.66,0c2.34,1.34,4.29,3.28,5.65,5.61-1.36,2.33-3.31,4.28-5.65,5.62C3.31,9.89,1.36,7.94,0,5.61,1.36,3.28,3.31,1.34,5.66,0Z"/>
      <path d="M5.66,15.57c2.34,1.34,4.29,3.28,5.65,5.61-1.36,2.33-3.31,4.28-5.65,5.62C3.31,25.46,1.36,23.52,0,21.18c1.36-2.33,3.31-4.27,5.65-5.61Z"/>
      <path d="M5.66,31.15c2.34,1.35,4.29,3.28,5.65,5.62-1.36,2.33-3.31,4.27-5.65,5.62-2.34-1.34-4.3-3.28-5.65-5.62,1.36-2.33,3.31-4.28,5.65-5.62Z"/>
      <path d="M5.66,46.73c2.34,1.34,4.3,3.28,5.65,5.62-1.36,2.33-3.31,4.27-5.65,5.61-2.34-1.34-4.3-3.28-5.66-5.61,1.36-2.33,3.31-4.28,5.66-5.62Z"/>
      <path d="M5.66,62.3c2.34,1.34,4.29,3.28,5.65,5.62-1.36,2.33-3.31,4.27-5.65,5.61-2.34-1.34-4.3-3.28-5.65-5.61,1.36-2.33,3.31-4.28,5.65-5.62Z"/>
      <path d="M5.66,77.87c2.34,1.35,4.29,3.28,5.65,5.62-1.36,2.33-3.31,4.27-5.65,5.62-2.34-1.34-4.3-3.28-5.66-5.62,1.36-2.33,3.31-4.28,5.66-5.62Z"/>
      <path d="M5.66,93.45c2.34,1.34,4.29,3.28,5.65,5.61-1.36,2.33-3.31,4.28-5.65,5.62-2.34-1.34-4.3-3.28-5.65-5.62,1.36-2.33,3.31-4.27,5.65-5.61Z"/>
      <path d="M5.66,109.02c2.34,1.34,4.29,3.28,5.65,5.61-1.36,2.33-3.31,4.28-5.65,5.62-2.34-1.34-4.3-3.28-5.65-5.62,1.36-2.33,3.31-4.27,5.65-5.61Z"/>
    </g>
  </g>
</svg>