<?xml version="1.0" encoding="UTF-8"?>
<svg id="_레이어_2" data-name="레이어 2" xmlns="http://www.w3.org/2000/svg" viewBox="0 0 104.05 120.22">
  <g id="_레이어_1-2" data-name="레이어 1">
    <g>
      <path d="M98.44,0c2.32,1.34,4.26,3.28,5.62,5.59-1.36,2.32-3.29,4.25-5.62,5.59-2.33-1.34-4.26-3.27-5.62-5.59,1.35-2.32,3.29-4.25,5.62-5.59Z"/>
      <path d="M98.44,15.58c2.32,1.35,4.26,3.28,5.62,5.6-1.36,2.32-3.29,4.25-5.62,5.59-2.33-1.34-4.26-3.27-5.62-5.59,1.35-2.32,3.29-4.26,5.62-5.6Z"/>
      <path d="M98.44,31.16c2.32,1.34,4.26,3.27,5.61,5.59-1.35,2.32-3.29,4.25-5.61,5.59-2.33-1.34-4.26-3.27-5.62-5.59,1.35-2.32,3.29-4.25,5.62-5.59Z"/>
      <path d="M98.44,46.73c2.32,1.34,4.26,3.27,5.62,5.59-1.35,2.32-3.29,4.25-5.62,5.59-2.33-1.34-4.27-3.28-5.62-5.59,1.35-2.32,3.29-4.25,5.62-5.59Z"/>
      <path d="M98.44,62.3c2.32,1.34,4.26,3.28,5.62,5.59-1.35,2.32-3.29,4.25-5.62,5.59-2.33-1.34-4.27-3.27-5.62-5.59,1.35-2.32,3.29-4.25,5.62-5.59Z"/>
      <path d="M82.96,0c2.33,1.34,4.27,3.28,5.62,5.59-1.36,2.32-3.29,4.25-5.62,5.59-2.33-1.34-4.26-3.28-5.62-5.59,1.35-2.32,3.29-4.25,5.62-5.59Z"/>
      <path d="M82.96,15.58c2.33,1.35,4.27,3.28,5.62,5.6-1.36,2.32-3.29,4.25-5.62,5.59-2.33-1.34-4.26-3.27-5.62-5.59,1.35-2.32,3.29-4.25,5.62-5.6Z"/>
      <path d="M82.96,31.16c2.33,1.34,4.26,3.27,5.62,5.59-1.35,2.32-3.29,4.25-5.62,5.59-2.33-1.34-4.26-3.27-5.62-5.59,1.35-2.32,3.29-4.25,5.62-5.59Z"/>
      <path d="M82.96,46.73c2.33,1.34,4.26,3.27,5.62,5.59-1.36,2.32-3.29,4.25-5.62,5.59-2.33-1.34-4.26-3.28-5.62-5.59,1.36-2.32,3.29-4.25,5.62-5.59Z"/>
      <path d="M82.96,62.3c2.33,1.34,4.26,3.28,5.62,5.59-1.36,2.32-3.29,4.25-5.62,5.59-2.33-1.34-4.26-3.27-5.62-5.59,1.36-2.32,3.29-4.25,5.62-5.59Z"/>
      <path d="M67.49,0c2.33,1.34,4.27,3.28,5.62,5.59-1.36,2.32-3.29,4.25-5.62,5.59-2.32-1.34-4.26-3.28-5.62-5.59,1.35-2.32,3.29-4.25,5.62-5.59Z"/>
      <path d="M67.49,15.58c2.33,1.34,4.27,3.28,5.62,5.6-1.36,2.32-3.29,4.25-5.62,5.59-2.32-1.34-4.26-3.27-5.62-5.59,1.35-2.32,3.29-4.25,5.62-5.6Z"/>
      <path d="M67.49,46.73c2.33,1.34,4.27,3.27,5.62,5.59-1.35,2.32-3.29,4.25-5.62,5.59-2.32-1.34-4.26-3.28-5.62-5.59,1.35-2.32,3.29-4.25,5.62-5.59Z"/>
      <path d="M67.49,62.3c2.33,1.34,4.27,3.28,5.62,5.59-1.35,2.32-3.29,4.25-5.62,5.59-2.32-1.34-4.26-3.27-5.62-5.59,1.35-2.32,3.29-4.25,5.62-5.59Z"/>
      <path d="M52.02,0c2.33,1.34,4.27,3.28,5.62,5.59-1.36,2.32-3.3,4.25-5.62,5.59-2.32-1.34-4.26-3.27-5.62-5.59,1.35-2.32,3.29-4.25,5.62-5.59Z"/>
      <path d="M52.02,15.58c2.33,1.34,4.27,3.28,5.62,5.6-1.36,2.32-3.3,4.25-5.62,5.59-2.32-1.34-4.26-3.27-5.62-5.59,1.35-2.32,3.29-4.26,5.62-5.6Z"/>
      <path d="M52.02,46.73c2.32,1.34,4.26,3.27,5.62,5.59-1.36,2.32-3.3,4.25-5.62,5.59-2.32-1.34-4.26-3.28-5.62-5.59,1.36-2.32,3.3-4.25,5.62-5.59Z"/>
      <path d="M52.02,62.3c2.32,1.34,4.26,3.28,5.62,5.59-1.36,2.32-3.3,4.25-5.62,5.59-2.32-1.34-4.26-3.27-5.62-5.59,1.36-2.32,3.3-4.25,5.62-5.59Z"/>
      <path d="M36.55,0c2.32,1.34,4.26,3.28,5.62,5.59-1.36,2.32-3.29,4.25-5.62,5.59-2.33-1.34-4.26-3.27-5.62-5.59,1.35-2.32,3.29-4.25,5.62-5.59Z"/>
      <path d="M36.55,15.58c2.32,1.35,4.26,3.28,5.62,5.6-1.36,2.32-3.29,4.25-5.62,5.59-2.33-1.34-4.26-3.27-5.62-5.59,1.35-2.32,3.29-4.26,5.62-5.6Z"/>
      <path d="M36.55,46.73c2.32,1.34,4.26,3.27,5.62,5.59-1.35,2.32-3.29,4.25-5.62,5.59-2.33-1.34-4.27-3.28-5.62-5.59,1.35-2.32,3.29-4.25,5.62-5.59Z"/>
      <path d="M36.55,62.3c2.32,1.34,4.26,3.28,5.62,5.59-1.35,2.32-3.29,4.25-5.62,5.59-2.33-1.34-4.27-3.27-5.62-5.59,1.35-2.32,3.29-4.25,5.62-5.59Z"/>
      <path d="M21.08,0c2.33,1.34,4.27,3.28,5.63,5.6-1.36,2.32-3.3,4.25-5.63,5.6-2.33-1.34-4.27-3.28-5.63-5.6,1.35-2.32,3.3-4.26,5.63-5.6Z"/>
      <path d="M21.08,15.57c2.33,1.35,4.27,3.28,5.63,5.6-1.36,2.32-3.3,4.25-5.63,5.59-2.33-1.34-4.27-3.27-5.63-5.59,1.35-2.33,3.3-4.26,5.63-5.6Z"/>
      <path d="M21.08,31.15c2.33,1.34,4.27,3.28,5.62,5.6-1.35,2.32-3.29,4.25-5.62,5.59-2.33-1.34-4.27-3.27-5.62-5.59,1.35-2.32,3.29-4.26,5.62-5.6Z"/>
      <path d="M21.08,46.73c2.33,1.34,4.27,3.28,5.63,5.6-1.36,2.32-3.3,4.25-5.63,5.6-2.33-1.34-4.27-3.28-5.63-5.6,1.36-2.32,3.3-4.26,5.63-5.6Z"/>
      <path d="M21.08,62.3c2.33,1.35,4.27,3.28,5.63,5.6-1.36,2.32-3.3,4.26-5.63,5.6-2.33-1.34-4.27-3.28-5.63-5.6,1.36-2.32,3.3-4.26,5.63-5.6Z"/>
      <path d="M21.08,77.88c2.33,1.34,4.27,3.28,5.62,5.59-1.35,2.32-3.29,4.26-5.62,5.6-2.33-1.34-4.27-3.28-5.62-5.6,1.35-2.32,3.29-4.25,5.62-5.59Z"/>
      <path d="M21.08,93.45c2.33,1.34,4.27,3.28,5.63,5.6-1.36,2.32-3.3,4.25-5.63,5.6-2.33-1.34-4.27-3.28-5.63-5.6,1.35-2.32,3.3-4.26,5.63-5.6Z"/>
      <path d="M21.08,109.02c2.33,1.35,4.27,3.28,5.63,5.6-1.36,2.32-3.3,4.25-5.63,5.59-2.33-1.34-4.27-3.27-5.63-5.59,1.35-2.33,3.3-4.26,5.63-5.6Z"/>
      <path d="M5.62,0c2.32,1.34,4.26,3.28,5.62,5.59-1.36,2.32-3.29,4.25-5.62,5.59C3.29,9.85,1.36,7.92,0,5.6,1.35,3.28,3.29,1.35,5.62,0Z"/>
      <path d="M5.62,15.58c2.32,1.35,4.26,3.28,5.62,5.6-1.36,2.32-3.29,4.25-5.62,5.59-2.33-1.34-4.26-3.27-5.62-5.59,1.35-2.32,3.29-4.26,5.62-5.6Z"/>
      <path d="M5.62,31.16c2.32,1.34,4.26,3.27,5.61,5.59-1.35,2.32-3.29,4.25-5.61,5.59-2.33-1.34-4.26-3.27-5.62-5.59,1.35-2.32,3.29-4.25,5.62-5.59Z"/>
      <path d="M5.62,46.73c2.32,1.34,4.26,3.27,5.62,5.59-1.35,2.32-3.29,4.25-5.62,5.59-2.33-1.34-4.27-3.28-5.62-5.59,1.35-2.32,3.29-4.25,5.62-5.59Z"/>
      <path d="M5.62,62.3c2.32,1.34,4.26,3.28,5.62,5.59-1.35,2.32-3.29,4.25-5.62,5.59-2.33-1.34-4.27-3.27-5.62-5.59,1.35-2.32,3.29-4.25,5.62-5.59Z"/>
      <path d="M5.62,77.88c2.32,1.34,4.26,3.27,5.61,5.59-1.35,2.32-3.29,4.25-5.61,5.59-2.33-1.34-4.27-3.27-5.62-5.59,1.35-2.32,3.29-4.25,5.62-5.59Z"/>
      <path d="M5.62,93.46c2.32,1.34,4.26,3.28,5.62,5.59-1.36,2.32-3.29,4.25-5.62,5.59-2.33-1.34-4.26-3.27-5.62-5.59,1.35-2.32,3.29-4.25,5.62-5.59Z"/>
      <path d="M5.62,109.03c2.32,1.35,4.26,3.28,5.62,5.6-1.36,2.32-3.29,4.25-5.62,5.59-2.33-1.34-4.26-3.27-5.62-5.59,1.35-2.32,3.29-4.26,5.62-5.6Z"/>
    </g>
  </g>
</svg>