<?xml version="1.0" encoding="UTF-8"?>
<svg id="_레이어_2" data-name="레이어 2" xmlns="http://www.w3.org/2000/svg" viewBox="0 0 119.47 120.26">
  <g id="_레이어_1-2" data-name="레이어 1">
    <g>
      <path d="M113.85.02c2.32,1.34,4.26,3.28,5.62,5.59-1.36,2.32-3.29,4.25-5.62,5.59-2.33-1.34-4.26-3.27-5.62-5.59,1.35-2.32,3.29-4.25,5.62-5.59Z"/>
      <path d="M113.85,15.59c2.32,1.35,4.26,3.28,5.62,5.6-1.36,2.32-3.29,4.25-5.62,5.59-2.33-1.34-4.26-3.27-5.62-5.59,1.35-2.32,3.29-4.26,5.62-5.6Z"/>
      <path d="M113.85,31.17c2.32,1.34,4.26,3.27,5.61,5.59-1.35,2.32-3.29,4.25-5.61,5.59-2.33-1.34-4.26-3.27-5.62-5.59,1.35-2.32,3.29-4.25,5.62-5.59Z"/>
      <path d="M113.85,46.75c2.32,1.34,4.26,3.27,5.62,5.59-1.35,2.32-3.29,4.25-5.62,5.59-2.33-1.34-4.27-3.27-5.62-5.59,1.35-2.32,3.29-4.25,5.62-5.59Z"/>
      <path d="M113.85,62.32c2.32,1.34,4.26,3.28,5.62,5.59-1.35,2.32-3.29,4.25-5.62,5.59-2.33-1.34-4.27-3.27-5.62-5.59,1.35-2.32,3.29-4.25,5.62-5.59Z"/>
      <path d="M113.85,77.9c2.32,1.34,4.26,3.27,5.61,5.59-1.35,2.32-3.29,4.25-5.61,5.59-2.33-1.34-4.27-3.27-5.62-5.59,1.35-2.32,3.29-4.25,5.62-5.59Z"/>
      <path d="M113.85,93.47c2.32,1.34,4.26,3.28,5.62,5.59-1.36,2.32-3.29,4.25-5.62,5.59-2.33-1.34-4.26-3.27-5.62-5.59,1.35-2.32,3.29-4.25,5.62-5.59Z"/>
      <path d="M113.85,109.05c2.32,1.35,4.26,3.28,5.62,5.6-1.36,2.32-3.29,4.25-5.62,5.59-2.33-1.34-4.26-3.27-5.62-5.59,1.35-2.32,3.29-4.26,5.62-5.6Z"/>
      <path d="M98.41,0c2.34,1.34,4.3,3.28,5.66,5.62-1.36,2.33-3.31,4.27-5.66,5.62-2.34-1.34-4.3-3.28-5.66-5.62,1.36-2.33,3.31-4.28,5.66-5.62Z"/>
      <path d="M98.41,15.57c2.34,1.35,4.3,3.29,5.66,5.62-1.36,2.33-3.31,4.27-5.66,5.61-2.34-1.34-4.3-3.28-5.66-5.61,1.36-2.34,3.31-4.28,5.66-5.62Z"/>
      <path d="M98.41,31.15c2.34,1.34,4.3,3.28,5.65,5.62-1.36,2.33-3.31,4.27-5.65,5.61-2.34-1.34-4.3-3.28-5.65-5.61,1.36-2.33,3.31-4.28,5.65-5.62Z"/>
      <path d="M98.41,46.73c2.34,1.34,4.3,3.28,5.66,5.62-1.36,2.33-3.31,4.27-5.66,5.62-2.34-1.34-4.3-3.28-5.66-5.62,1.36-2.33,3.31-4.28,5.66-5.62Z"/>
      <path d="M98.41,62.3c2.34,1.35,4.3,3.28,5.66,5.62-1.36,2.33-3.31,4.28-5.66,5.62-2.34-1.34-4.3-3.28-5.66-5.62,1.36-2.33,3.31-4.28,5.66-5.62Z"/>
      <path d="M98.41,77.88c2.34,1.34,4.3,3.28,5.65,5.61-1.36,2.33-3.31,4.28-5.65,5.62-2.34-1.34-4.3-3.28-5.65-5.62,1.36-2.33,3.31-4.27,5.65-5.61Z"/>
      <path d="M98.41,93.45c2.34,1.34,4.3,3.28,5.66,5.62-1.36,2.33-3.31,4.27-5.66,5.62-2.34-1.34-4.3-3.28-5.66-5.62,1.36-2.33,3.31-4.28,5.66-5.62Z"/>
      <path d="M98.41,109.02c2.34,1.35,4.3,3.29,5.66,5.62-1.36,2.33-3.31,4.27-5.66,5.61-2.34-1.34-4.3-3.28-5.66-5.61,1.36-2.34,3.31-4.28,5.66-5.62Z"/>
      <path d="M82.97,93.47c2.33,1.34,4.27,3.28,5.62,5.59-1.36,2.32-3.29,4.25-5.62,5.59-2.32-1.34-4.26-3.28-5.62-5.59,1.35-2.32,3.29-4.25,5.62-5.59Z"/>
      <path d="M82.97,109.05c2.33,1.34,4.27,3.28,5.62,5.6-1.36,2.32-3.29,4.25-5.62,5.59-2.32-1.34-4.26-3.27-5.62-5.59,1.35-2.32,3.29-4.25,5.62-5.6Z"/>
      <path d="M67.5,46.75c2.33,1.34,4.27,3.27,5.62,5.59-1.35,2.32-3.29,4.25-5.62,5.59-2.32-1.34-4.26-3.28-5.62-5.59,1.35-2.32,3.29-4.25,5.62-5.59Z"/>
      <path d="M67.5,62.32c2.33,1.34,4.27,3.28,5.62,5.59-1.35,2.32-3.29,4.25-5.62,5.59-2.32-1.34-4.26-3.27-5.62-5.59,1.35-2.32,3.29-4.25,5.62-5.59Z"/>
      <path d="M67.5,77.9c2.33,1.34,4.26,3.27,5.62,5.59-1.35,2.32-3.29,4.25-5.62,5.59-2.32-1.34-4.26-3.27-5.61-5.59,1.35-2.32,3.29-4.25,5.61-5.59Z"/>
      <path d="M52.03,46.75c2.32,1.34,4.26,3.27,5.62,5.59-1.35,2.32-3.29,4.25-5.62,5.59-2.33-1.34-4.27-3.28-5.62-5.59,1.35-2.32,3.29-4.25,5.62-5.59Z"/>
      <path d="M52.03,62.32c2.32,1.34,4.26,3.28,5.62,5.59-1.35,2.32-3.29,4.25-5.62,5.59-2.33-1.34-4.27-3.27-5.62-5.59,1.35-2.32,3.29-4.25,5.62-5.59Z"/>
      <path d="M52.03,77.9c2.32,1.34,4.26,3.27,5.61,5.59-1.35,2.32-3.29,4.25-5.61,5.59-2.33-1.34-4.27-3.27-5.62-5.59,1.35-2.32,3.29-4.25,5.62-5.59Z"/>
      <path d="M36.56,93.47c2.32,1.34,4.26,3.28,5.62,5.59-1.36,2.32-3.29,4.25-5.62,5.59-2.33-1.34-4.26-3.27-5.62-5.59,1.35-2.32,3.29-4.25,5.62-5.59Z"/>
      <path d="M36.56,109.05c2.32,1.35,4.26,3.28,5.62,5.6-1.36,2.32-3.29,4.25-5.62,5.59-2.33-1.34-4.26-3.27-5.62-5.59,1.35-2.32,3.29-4.26,5.62-5.6Z"/>
      <path d="M21.09.02c2.33,1.34,4.26,3.28,5.62,5.59-1.35,2.32-3.29,4.25-5.62,5.59-2.33-1.34-4.26-3.28-5.62-5.59C16.82,3.3,18.76,1.36,21.09.02Z"/>
      <path d="M21.09,15.59c2.33,1.35,4.26,3.28,5.62,5.6-1.35,2.32-3.29,4.25-5.62,5.59-2.33-1.34-4.26-3.27-5.62-5.59,1.35-2.32,3.29-4.25,5.62-5.6Z"/>
      <path d="M21.09,31.17c2.32,1.34,4.26,3.27,5.61,5.59-1.35,2.32-3.29,4.25-5.61,5.59-2.33-1.34-4.26-3.27-5.62-5.59,1.35-2.32,3.29-4.25,5.62-5.59Z"/>
      <path d="M21.09,46.75c2.32,1.34,4.26,3.27,5.62,5.59-1.35,2.32-3.29,4.25-5.62,5.59-2.33-1.34-4.26-3.28-5.62-5.59,1.36-2.32,3.29-4.25,5.62-5.59Z"/>
      <path d="M21.09,62.32c2.32,1.34,4.26,3.28,5.62,5.59-1.35,2.32-3.29,4.25-5.62,5.59-2.33-1.34-4.26-3.27-5.62-5.59,1.36-2.32,3.29-4.25,5.62-5.59Z"/>
      <path d="M21.09,77.9c2.32,1.34,4.26,3.27,5.61,5.59-1.35,2.32-3.29,4.25-5.61,5.59-2.33-1.34-4.26-3.27-5.62-5.59,1.35-2.32,3.29-4.25,5.62-5.59Z"/>
      <path d="M21.09,93.47c2.33,1.34,4.26,3.28,5.62,5.59-1.35,2.32-3.29,4.25-5.62,5.59-2.33-1.34-4.26-3.28-5.62-5.59,1.35-2.32,3.29-4.25,5.62-5.59Z"/>
      <path d="M21.09,109.05c2.33,1.35,4.26,3.28,5.62,5.6-1.35,2.32-3.29,4.25-5.62,5.59-2.33-1.34-4.26-3.27-5.62-5.59,1.35-2.32,3.29-4.25,5.62-5.6Z"/>
      <path d="M5.62.02c2.33,1.34,4.27,3.28,5.62,5.59-1.36,2.32-3.29,4.25-5.62,5.59C3.29,9.87,1.36,7.93,0,5.62,1.35,3.3,3.29,1.36,5.62.02Z"/>
      <path d="M5.62,15.59c2.33,1.34,4.27,3.28,5.62,5.6-1.36,2.32-3.29,4.25-5.62,5.59-2.32-1.34-4.26-3.27-5.62-5.59,1.35-2.32,3.29-4.25,5.62-5.6Z"/>
      <path d="M5.62,31.17c2.33,1.34,4.27,3.27,5.62,5.59-1.35,2.32-3.29,4.25-5.62,5.59-2.32-1.34-4.26-3.27-5.61-5.59,1.35-2.32,3.29-4.25,5.61-5.59Z"/>
      <path d="M5.62,46.75c2.33,1.34,4.27,3.27,5.62,5.59-1.35,2.32-3.29,4.25-5.62,5.59-2.32-1.34-4.26-3.28-5.62-5.59,1.35-2.32,3.29-4.25,5.62-5.59Z"/>
      <path d="M5.62,62.32c2.33,1.34,4.27,3.28,5.62,5.59-1.35,2.32-3.29,4.25-5.62,5.59-2.32-1.34-4.26-3.27-5.62-5.59,1.35-2.32,3.29-4.25,5.62-5.59Z"/>
      <path d="M5.62,77.9c2.33,1.34,4.26,3.27,5.62,5.59-1.35,2.32-3.29,4.25-5.62,5.59-2.32-1.34-4.26-3.27-5.61-5.59,1.35-2.32,3.29-4.25,5.61-5.59Z"/>
      <path d="M5.62,93.47c2.33,1.34,4.27,3.28,5.62,5.59-1.36,2.32-3.29,4.25-5.62,5.59-2.32-1.34-4.26-3.28-5.62-5.59,1.35-2.32,3.29-4.25,5.62-5.59Z"/>
      <path d="M5.62,109.05c2.33,1.34,4.27,3.28,5.62,5.6-1.36,2.32-3.29,4.25-5.62,5.59-2.32-1.34-4.26-3.27-5.62-5.59,1.35-2.32,3.29-4.25,5.62-5.6Z"/>
    </g>
  </g>
</svg>