<?xml version="1.0" encoding="UTF-8"?>
<svg id="_레이어_2" data-name="레이어 2" xmlns="http://www.w3.org/2000/svg" viewBox="0 0 121.33 122.14">
  <g id="_레이어_1-2" data-name="레이어 1">
    <g>
      <path d="M115.63.02c2.36,1.36,4.34,3.33,5.71,5.68-1.38,2.35-3.34,4.32-5.71,5.68-2.36-1.36-4.33-3.33-5.71-5.68,1.37-2.35,3.34-4.32,5.71-5.68Z"/>
      <path d="M115.63,15.84c2.36,1.37,4.34,3.33,5.71,5.69-1.38,2.35-3.34,4.32-5.71,5.68-2.36-1.36-4.33-3.32-5.71-5.68,1.37-2.36,3.34-4.32,5.71-5.69Z"/>
      <path d="M115.63,94.93c2.36,1.36,4.34,3.33,5.71,5.68-1.38,2.35-3.34,4.32-5.71,5.68-2.36-1.36-4.33-3.33-5.71-5.68,1.37-2.35,3.34-4.32,5.71-5.68Z"/>
      <path d="M115.63,110.75c2.36,1.37,4.34,3.33,5.71,5.69-1.38,2.35-3.34,4.32-5.71,5.68-2.36-1.36-4.33-3.32-5.71-5.68,1.37-2.36,3.34-4.32,5.71-5.69Z"/>
      <path d="M99.95,0c2.38,1.36,4.36,3.33,5.74,5.7-1.38,2.37-3.37,4.34-5.74,5.7-2.38-1.36-4.36-3.33-5.75-5.7,1.38-2.37,3.37-4.34,5.75-5.7Z"/>
      <path d="M99.95,15.82c2.38,1.37,4.36,3.34,5.74,5.71-1.38,2.36-3.37,4.34-5.74,5.7-2.38-1.36-4.36-3.33-5.75-5.7,1.38-2.37,3.37-4.35,5.75-5.71Z"/>
      <path d="M99.95,31.64c2.37,1.36,4.36,3.33,5.73,5.7-1.38,2.36-3.36,4.34-5.73,5.7-2.38-1.36-4.36-3.33-5.74-5.7,1.38-2.37,3.36-4.34,5.74-5.7Z"/>
      <path d="M99.95,79.1c2.37,1.36,4.36,3.33,5.73,5.7-1.38,2.37-3.36,4.34-5.73,5.7-2.38-1.36-4.36-3.33-5.74-5.7,1.38-2.37,3.36-4.34,5.74-5.7Z"/>
      <path d="M99.95,94.91c2.38,1.36,4.36,3.33,5.74,5.7-1.38,2.37-3.37,4.34-5.74,5.7-2.38-1.36-4.36-3.33-5.75-5.7,1.38-2.37,3.37-4.34,5.75-5.7Z"/>
      <path d="M99.95,110.73c2.38,1.37,4.36,3.34,5.74,5.71-1.38,2.36-3.37,4.34-5.74,5.7-2.38-1.36-4.36-3.33-5.75-5.7,1.38-2.37,3.37-4.35,5.75-5.71Z"/>
      <path d="M84.27,15.84c2.36,1.36,4.34,3.33,5.71,5.69-1.38,2.35-3.34,4.32-5.71,5.68-2.36-1.36-4.33-3.32-5.7-5.68,1.37-2.36,3.34-4.32,5.7-5.69Z"/>
      <path d="M84.27,31.66c2.36,1.36,4.34,3.32,5.7,5.68-1.37,2.35-3.34,4.32-5.7,5.68-2.36-1.36-4.33-3.32-5.7-5.68,1.37-2.36,3.34-4.32,5.7-5.68Z"/>
      <path d="M84.27,47.48c2.36,1.36,4.34,3.32,5.71,5.68-1.37,2.35-3.34,4.32-5.71,5.68-2.36-1.36-4.33-3.33-5.7-5.68,1.37-2.36,3.34-4.32,5.7-5.68Z"/>
      <path d="M84.27,63.29c2.36,1.36,4.34,3.33,5.71,5.68-1.37,2.36-3.34,4.32-5.71,5.68-2.36-1.36-4.33-3.32-5.7-5.68,1.37-2.35,3.34-4.32,5.7-5.68Z"/>
      <path d="M84.27,79.12c2.36,1.36,4.33,3.32,5.7,5.68-1.37,2.36-3.34,4.32-5.7,5.68-2.36-1.36-4.33-3.32-5.7-5.68,1.37-2.35,3.34-4.32,5.7-5.68Z"/>
      <path d="M84.27,94.93c2.36,1.36,4.34,3.33,5.71,5.68-1.38,2.36-3.34,4.32-5.71,5.68-2.36-1.36-4.33-3.33-5.7-5.68,1.37-2.35,3.34-4.32,5.7-5.68Z"/>
      <path d="M68.56,31.66c2.36,1.36,4.33,3.32,5.7,5.68-1.37,2.35-3.34,4.32-5.7,5.68-2.36-1.36-4.33-3.32-5.7-5.68,1.37-2.36,3.34-4.32,5.7-5.68Z"/>
      <path d="M68.56,47.48c2.36,1.36,4.33,3.32,5.71,5.68-1.38,2.35-3.35,4.32-5.71,5.68-2.36-1.36-4.33-3.33-5.71-5.68,1.38-2.36,3.35-4.32,5.71-5.68Z"/>
      <path d="M68.56,63.29c2.36,1.36,4.33,3.33,5.71,5.68-1.38,2.36-3.35,4.32-5.71,5.68-2.36-1.36-4.33-3.32-5.71-5.68,1.38-2.35,3.35-4.32,5.71-5.68Z"/>
      <path d="M68.56,79.12c2.36,1.36,4.33,3.32,5.7,5.68-1.37,2.36-3.34,4.32-5.7,5.68-2.36-1.36-4.33-3.32-5.7-5.68,1.37-2.35,3.34-4.32,5.7-5.68Z"/>
      <path d="M52.85,31.66c2.36,1.36,4.33,3.32,5.7,5.68-1.37,2.35-3.34,4.32-5.7,5.68-2.36-1.36-4.33-3.32-5.7-5.68,1.37-2.36,3.34-4.32,5.7-5.68Z"/>
      <path d="M52.85,47.48c2.36,1.36,4.33,3.32,5.7,5.68-1.37,2.35-3.34,4.32-5.7,5.68-2.36-1.36-4.34-3.33-5.71-5.68,1.37-2.36,3.34-4.32,5.71-5.68Z"/>
      <path d="M52.85,63.29c2.36,1.36,4.33,3.33,5.7,5.68-1.37,2.36-3.34,4.32-5.7,5.68-2.36-1.36-4.34-3.32-5.71-5.68,1.37-2.35,3.34-4.32,5.71-5.68Z"/>
      <path d="M52.85,79.12c2.36,1.36,4.33,3.32,5.7,5.68-1.37,2.36-3.34,4.32-5.7,5.68-2.36-1.36-4.34-3.32-5.7-5.68,1.37-2.35,3.34-4.32,5.7-5.68Z"/>
      <path d="M37.13,15.84c2.36,1.37,4.34,3.33,5.71,5.69-1.38,2.35-3.34,4.32-5.71,5.68-2.36-1.36-4.33-3.32-5.71-5.68,1.37-2.36,3.34-4.32,5.71-5.69Z"/>
      <path d="M37.13,31.66c2.36,1.36,4.33,3.32,5.7,5.68-1.37,2.35-3.34,4.32-5.7,5.68-2.36-1.36-4.33-3.32-5.7-5.68,1.37-2.36,3.34-4.32,5.7-5.68Z"/>
      <path d="M37.13,47.48c2.36,1.36,4.33,3.32,5.71,5.68-1.38,2.35-3.34,4.32-5.71,5.68-2.36-1.36-4.33-3.33-5.71-5.68,1.38-2.36,3.34-4.32,5.71-5.68Z"/>
      <path d="M37.13,63.29c2.36,1.36,4.33,3.33,5.71,5.68-1.38,2.36-3.34,4.32-5.71,5.68-2.36-1.36-4.33-3.32-5.71-5.68,1.38-2.35,3.34-4.32,5.71-5.68Z"/>
      <path d="M37.13,79.12c2.36,1.36,4.33,3.32,5.7,5.68-1.37,2.36-3.34,4.32-5.7,5.68-2.36-1.36-4.33-3.32-5.7-5.68,1.37-2.35,3.34-4.32,5.7-5.68Z"/>
      <path d="M37.13,94.93c2.36,1.36,4.34,3.33,5.71,5.68-1.38,2.35-3.34,4.32-5.71,5.68-2.36-1.36-4.33-3.33-5.71-5.68,1.37-2.35,3.34-4.32,5.71-5.68Z"/>
      <path d="M21.41.02c2.36,1.36,4.34,3.33,5.71,5.68-1.38,2.36-3.34,4.32-5.71,5.68-2.36-1.36-4.33-3.33-5.7-5.68C17.08,3.35,19.06,1.38,21.41.02Z"/>
      <path d="M21.41,15.84c2.36,1.36,4.34,3.33,5.71,5.69-1.38,2.35-3.34,4.32-5.71,5.68-2.36-1.36-4.33-3.32-5.7-5.68,1.37-2.36,3.34-4.32,5.7-5.69Z"/>
      <path d="M21.41,31.66c2.36,1.36,4.34,3.32,5.7,5.68-1.37,2.35-3.34,4.32-5.7,5.68-2.36-1.36-4.33-3.32-5.7-5.68,1.37-2.36,3.34-4.32,5.7-5.68Z"/>
      <path d="M21.41,79.12c2.36,1.36,4.33,3.32,5.7,5.68-1.37,2.36-3.34,4.32-5.7,5.68-2.36-1.36-4.33-3.32-5.7-5.68,1.37-2.35,3.34-4.32,5.7-5.68Z"/>
      <path d="M21.41,94.93c2.36,1.36,4.34,3.33,5.71,5.68-1.38,2.36-3.34,4.32-5.71,5.68-2.36-1.36-4.33-3.33-5.7-5.68,1.37-2.35,3.34-4.32,5.7-5.68Z"/>
      <path d="M21.41,110.75c2.36,1.36,4.34,3.33,5.71,5.69-1.38,2.35-3.34,4.32-5.71,5.68-2.36-1.36-4.33-3.32-5.7-5.68,1.37-2.36,3.34-4.32,5.7-5.69Z"/>
      <path d="M5.7.02c2.36,1.36,4.34,3.33,5.71,5.68-1.38,2.36-3.35,4.32-5.71,5.68-2.36-1.36-4.33-3.33-5.7-5.68C1.37,3.35,3.34,1.38,5.7.02Z"/>
      <path d="M5.7,15.84c2.36,1.36,4.34,3.33,5.71,5.69-1.38,2.35-3.35,4.32-5.71,5.68-2.36-1.36-4.33-3.32-5.7-5.68,1.37-2.36,3.34-4.32,5.7-5.69Z"/>
      <path d="M5.7,94.93c2.36,1.36,4.34,3.33,5.71,5.68-1.38,2.36-3.35,4.32-5.71,5.68-2.36-1.36-4.33-3.33-5.7-5.68,1.37-2.35,3.34-4.32,5.7-5.68Z"/>
      <path d="M5.7,110.75c2.36,1.36,4.34,3.33,5.71,5.69-1.38,2.35-3.35,4.32-5.71,5.68-2.36-1.36-4.33-3.32-5.7-5.68,1.37-2.36,3.34-4.32,5.7-5.69Z"/>
    </g>
  </g>
</svg>