<?xml version="1.0" encoding="UTF-8"?>
<svg id="_레이어_2" data-name="레이어 2" xmlns="http://www.w3.org/2000/svg" viewBox="0 0 121.75 122.26">
  <g id="_레이어_1-2" data-name="레이어 1">
    <g>
      <path d="M116,0c2.36,1.36,4.34,3.34,5.72,5.7-1.37,2.36-3.35,4.33-5.72,5.7-2.37-1.36-4.35-3.34-5.72-5.7,1.37-2.36,3.35-4.33,5.72-5.7Z"/>
      <path d="M116,15.86c2.36,1.36,4.34,3.33,5.71,5.69-1.37,2.36-3.35,4.33-5.71,5.7-2.37-1.36-4.35-3.33-5.72-5.7,1.37-2.36,3.35-4.33,5.72-5.69Z"/>
      <path d="M116,95.01c2.38,1.37,4.37,3.36,5.75,5.75-1.37,2.38-3.36,4.37-5.75,5.75-2.39-1.37-4.38-3.37-5.75-5.75,1.37-2.39,3.36-4.38,5.75-5.75Z"/>
      <path d="M116,110.87c2.36,1.36,4.34,3.33,5.72,5.7-1.37,2.36-3.35,4.33-5.72,5.7-2.37-1.36-4.35-3.34-5.72-5.7,1.37-2.36,3.35-4.33,5.72-5.7Z"/>
      <path d="M100.25,0c2.37,1.36,4.34,3.34,5.72,5.7-1.38,2.36-3.35,4.33-5.72,5.7-2.37-1.36-4.34-3.34-5.72-5.7,1.38-2.36,3.35-4.33,5.72-5.7Z"/>
      <path d="M100.25,15.86c2.37,1.36,4.34,3.33,5.72,5.69-1.37,2.36-3.35,4.33-5.72,5.7-2.37-1.36-4.34-3.33-5.72-5.7,1.37-2.36,3.35-4.33,5.72-5.69Z"/>
      <path d="M100.25,31.71c2.37,1.36,4.34,3.33,5.72,5.69-1.37,2.36-3.35,4.33-5.72,5.7-2.37-1.36-4.34-3.33-5.72-5.7,1.37-2.36,3.35-4.33,5.72-5.69Z"/>
      <path d="M100.25,95.01c2.38,1.37,4.37,3.36,5.75,5.75-1.38,2.38-3.37,4.37-5.75,5.75-2.38-1.38-4.37-3.37-5.75-5.75,1.38-2.39,3.37-4.38,5.75-5.75Z"/>
      <path d="M100.25,110.87c2.37,1.36,4.34,3.33,5.72,5.7-1.38,2.36-3.35,4.33-5.72,5.7-2.37-1.36-4.34-3.34-5.72-5.7,1.38-2.36,3.35-4.33,5.72-5.7Z"/>
      <path d="M84.5,0c2.37,1.36,4.35,3.34,5.72,5.7-1.37,2.36-3.35,4.33-5.72,5.7-2.36-1.36-4.34-3.34-5.72-5.7,1.37-2.36,3.35-4.33,5.72-5.7Z"/>
      <path d="M84.5,15.86c2.37,1.36,4.34,3.33,5.72,5.69-1.37,2.36-3.35,4.33-5.72,5.7-2.36-1.36-4.34-3.33-5.71-5.7,1.37-2.36,3.35-4.33,5.71-5.69Z"/>
      <path d="M84.5,31.71c2.37,1.36,4.34,3.33,5.72,5.69-1.37,2.36-3.35,4.33-5.72,5.7-2.36-1.36-4.34-3.33-5.71-5.7,1.37-2.36,3.35-4.33,5.71-5.69Z"/>
      <path d="M84.5,47.57c2.37,1.36,4.34,3.33,5.72,5.7-1.37,2.36-3.35,4.33-5.72,5.7-2.36-1.36-4.34-3.34-5.71-5.7,1.37-2.36,3.35-4.33,5.71-5.7Z"/>
      <path d="M84.5,95.01c2.39,1.37,4.38,3.36,5.75,5.75-1.37,2.38-3.36,4.38-5.75,5.75-2.38-1.38-4.37-3.37-5.75-5.75,1.37-2.39,3.36-4.38,5.75-5.75Z"/>
      <path d="M84.5,110.87c2.37,1.36,4.35,3.33,5.72,5.7-1.37,2.36-3.35,4.33-5.72,5.7-2.36-1.36-4.34-3.34-5.72-5.7,1.37-2.36,3.35-4.33,5.72-5.7Z"/>
      <path d="M68.75,0c2.36,1.36,4.34,3.34,5.72,5.7-1.38,2.36-3.36,4.33-5.72,5.7-2.36-1.36-4.34-3.34-5.72-5.7,1.37-2.36,3.35-4.33,5.72-5.7Z"/>
      <path d="M68.75,15.86c2.36,1.36,4.34,3.33,5.72,5.69-1.37,2.36-3.35,4.33-5.72,5.7-2.36-1.36-4.34-3.33-5.71-5.7,1.37-2.36,3.35-4.33,5.71-5.69Z"/>
      <path d="M68.75,31.71c2.36,1.36,4.34,3.33,5.72,5.69-1.37,2.36-3.35,4.33-5.72,5.7-2.36-1.36-4.34-3.33-5.71-5.7,1.37-2.36,3.35-4.33,5.71-5.69Z"/>
      <path d="M68.75,47.57c2.36,1.36,4.34,3.33,5.72,5.7-1.37,2.36-3.35,4.33-5.72,5.7-2.36-1.36-4.34-3.34-5.71-5.7,1.37-2.36,3.35-4.33,5.71-5.7Z"/>
      <path d="M68.75,63.42c2.37,1.36,4.35,3.33,5.72,5.7-1.38,2.36-3.36,4.33-5.72,5.69-2.36-1.36-4.34-3.33-5.72-5.69,1.37-2.36,3.35-4.33,5.72-5.7Z"/>
      <path d="M68.75,95.01c2.38,1.37,4.37,3.36,5.75,5.75-1.38,2.38-3.37,4.38-5.75,5.75-2.38-1.38-4.37-3.37-5.75-5.75,1.37-2.39,3.36-4.38,5.75-5.75Z"/>
      <path d="M68.75,110.87c2.36,1.36,4.34,3.33,5.72,5.7-1.38,2.36-3.36,4.33-5.72,5.7-2.36-1.36-4.34-3.34-5.72-5.7,1.37-2.36,3.35-4.33,5.72-5.7Z"/>
      <path d="M53,0c2.36,1.36,4.34,3.34,5.72,5.7-1.37,2.36-3.35,4.33-5.72,5.7-2.37-1.36-4.35-3.34-5.72-5.7,1.37-2.36,3.35-4.33,5.72-5.7Z"/>
      <path d="M53,15.86c2.36,1.36,4.34,3.33,5.71,5.69-1.37,2.36-3.35,4.33-5.71,5.7-2.37-1.36-4.35-3.33-5.72-5.7,1.37-2.36,3.35-4.33,5.72-5.69Z"/>
      <path d="M53,47.57c2.36,1.36,4.34,3.34,5.71,5.7-1.37,2.36-3.35,4.33-5.71,5.7-2.37-1.36-4.34-3.33-5.72-5.7,1.37-2.36,3.35-4.33,5.72-5.7Z"/>
      <path d="M53,63.42c2.37,1.36,4.34,3.34,5.72,5.7-1.37,2.36-3.35,4.33-5.72,5.69-2.37-1.36-4.34-3.33-5.72-5.69,1.37-2.36,3.35-4.33,5.72-5.7Z"/>
      <path d="M53,79.28c2.36,1.36,4.34,3.33,5.71,5.7-1.37,2.36-3.35,4.33-5.71,5.69-2.37-1.36-4.34-3.33-5.72-5.69,1.37-2.36,3.35-4.33,5.72-5.7Z"/>
      <path d="M53,95.01c2.38,1.37,4.37,3.36,5.75,5.75-1.37,2.38-3.36,4.37-5.75,5.75-2.39-1.37-4.38-3.37-5.75-5.75,1.37-2.39,3.36-4.38,5.75-5.75Z"/>
      <path d="M53,110.87c2.36,1.36,4.34,3.33,5.72,5.7-1.37,2.36-3.35,4.33-5.72,5.7-2.37-1.36-4.35-3.34-5.72-5.7,1.37-2.36,3.35-4.33,5.72-5.7Z"/>
      <path d="M37.25,0c2.36,1.36,4.34,3.34,5.72,5.7-1.37,2.36-3.35,4.33-5.72,5.7-2.37-1.36-4.35-3.34-5.72-5.7,1.37-2.36,3.35-4.33,5.72-5.7Z"/>
      <path d="M37.25,15.86c2.36,1.36,4.34,3.33,5.71,5.69-1.37,2.36-3.35,4.33-5.71,5.7-2.37-1.36-4.35-3.33-5.72-5.7,1.37-2.36,3.35-4.33,5.72-5.69Z"/>
      <path d="M37.25,63.42c2.36,1.36,4.34,3.34,5.72,5.7-1.38,2.36-3.35,4.33-5.72,5.69-2.37-1.36-4.34-3.33-5.72-5.69,1.37-2.36,3.35-4.33,5.72-5.7Z"/>
      <path d="M37.25,79.28c2.36,1.36,4.34,3.33,5.71,5.7-1.37,2.36-3.35,4.33-5.71,5.69-2.37-1.36-4.34-3.33-5.72-5.69,1.37-2.36,3.35-4.33,5.72-5.7Z"/>
      <path d="M37.25,95.01c2.38,1.37,4.37,3.36,5.75,5.75-1.37,2.38-3.36,4.37-5.75,5.75-2.39-1.37-4.38-3.37-5.75-5.75,1.37-2.39,3.36-4.38,5.75-5.75Z"/>
      <path d="M37.25,110.87c2.36,1.36,4.34,3.33,5.72,5.7-1.37,2.36-3.35,4.33-5.72,5.7-2.37-1.36-4.35-3.34-5.72-5.7,1.37-2.36,3.35-4.33,5.72-5.7Z"/>
      <path d="M21.5,0c2.36,1.36,4.34,3.34,5.72,5.7-1.37,2.36-3.35,4.33-5.72,5.7-2.37-1.36-4.34-3.34-5.72-5.7,1.38-2.36,3.35-4.33,5.72-5.7Z"/>
      <path d="M21.5,15.86c2.36,1.36,4.34,3.33,5.71,5.69-1.37,2.36-3.35,4.33-5.71,5.7-2.37-1.36-4.34-3.33-5.72-5.7,1.37-2.36,3.35-4.33,5.72-5.69Z"/>
      <path d="M21.5,79.28c2.36,1.36,4.34,3.33,5.71,5.7-1.37,2.36-3.35,4.33-5.71,5.69-2.37-1.36-4.34-3.33-5.72-5.69,1.37-2.36,3.35-4.33,5.72-5.7Z"/>
      <path d="M21.5,95.01c2.38,1.37,4.37,3.36,5.75,5.75-1.37,2.38-3.36,4.37-5.75,5.75-2.38-1.38-4.37-3.37-5.75-5.75,1.38-2.39,3.37-4.38,5.75-5.75Z"/>
      <path d="M21.5,110.87c2.36,1.36,4.34,3.33,5.72,5.7-1.37,2.36-3.35,4.33-5.72,5.7-2.37-1.36-4.34-3.34-5.72-5.7,1.38-2.36,3.35-4.33,5.72-5.7Z"/>
      <path d="M5.75,0c2.37,1.36,4.35,3.34,5.72,5.7-1.37,2.36-3.35,4.33-5.72,5.7C3.38,10.03,1.41,8.05.03,5.7,1.41,3.34,3.38,1.36,5.75,0Z"/>
      <path d="M5.75,15.86c2.37,1.36,4.34,3.33,5.72,5.69-1.37,2.36-3.35,4.33-5.72,5.7-2.36-1.36-4.34-3.33-5.71-5.7,1.37-2.36,3.35-4.33,5.71-5.69Z"/>
      <path d="M5.75,95.01c2.39,1.37,4.38,3.36,5.75,5.75-1.37,2.38-3.36,4.38-5.75,5.75-2.38-1.38-4.37-3.37-5.75-5.75,1.37-2.39,3.36-4.38,5.75-5.75Z"/>
      <path d="M5.75,110.87c2.37,1.36,4.35,3.33,5.72,5.7-1.37,2.36-3.35,4.33-5.72,5.7-2.36-1.36-4.34-3.34-5.72-5.7,1.37-2.36,3.35-4.33,5.72-5.7Z"/>
    </g>
  </g>
</svg>