<?xml version="1.0" encoding="UTF-8"?>
<svg id="_레이어_2" data-name="레이어 2" xmlns="http://www.w3.org/2000/svg" viewBox="0 0 61.87 108.89">
  <g id="_레이어_1-2" data-name="레이어 1">
    <g>
      <g>
        <path d="M52.01,46.7c-1.35,2.32-3.29,4.25-5.62,5.59,2.27,1.32,4.91,2.07,7.72,2.08-.02-2.8-.78-5.42-2.1-7.67Z"/>
        <path d="M46.4,56.69c2.33,1.34,4.26,3.27,5.62,5.59,1.32-2.25,2.09-4.87,2.1-7.67-2.81,0-5.45.76-7.72,2.08Z"/>
        <path d="M56.26,46.7c-1.32,2.25-2.09,4.87-2.1,7.67,2.81,0,5.45-.76,7.72-2.08-2.33-1.34-4.27-3.27-5.62-5.59Z"/>
        <path d="M54.15,54.61c.02,2.79.78,5.41,2.1,7.67,1.35-2.32,3.29-4.25,5.62-5.59-2.27-1.32-4.91-2.07-7.72-2.08Z"/>
      </g>
      <g>
        <path d="M36.53,46.7c-1.35,2.32-3.29,4.25-5.62,5.59,2.27,1.32,4.91,2.07,7.72,2.08-.02-2.8-.78-5.42-2.1-7.67Z"/>
        <path d="M30.91,56.69c2.33,1.34,4.26,3.27,5.62,5.59,1.32-2.25,2.09-4.87,2.1-7.67-2.81,0-5.45.76-7.72,2.08Z"/>
        <path d="M40.77,46.7c-1.32,2.25-2.09,4.87-2.1,7.67,2.81,0,5.45-.76,7.72-2.08-2.33-1.34-4.27-3.27-5.62-5.59Z"/>
        <path d="M38.67,54.61c.02,2.79.78,5.41,2.1,7.67,1.35-2.32,3.29-4.25,5.62-5.59-2.27-1.32-4.91-2.07-7.72-2.08Z"/>
      </g>
      <g>
        <path d="M21.1,46.7c-1.35,2.32-3.29,4.25-5.62,5.59,2.27,1.32,4.91,2.07,7.72,2.08-.02-2.8-.78-5.42-2.1-7.67Z"/>
        <path d="M15.49,56.69c2.33,1.34,4.26,3.27,5.62,5.59,1.32-2.25,2.09-4.87,2.1-7.67-2.81,0-5.45.76-7.72,2.08Z"/>
        <path d="M25.35,46.7c-1.32,2.25-2.09,4.87-2.1,7.67,2.81,0,5.45-.76,7.72-2.08-2.33-1.34-4.27-3.27-5.62-5.59Z"/>
        <path d="M23.24,54.61c.02,2.79.78,5.41,2.1,7.67,1.35-2.32,3.29-4.25,5.62-5.59-2.27-1.32-4.91-2.07-7.72-2.08Z"/>
      </g>
      <g>
        <path d="M36.53,93.3c-1.35,2.32-3.29,4.25-5.62,5.59,2.27,1.32,4.91,2.07,7.72,2.08-.02-2.8-.78-5.42-2.1-7.67Z"/>
        <path d="M30.91,103.28c2.33,1.34,4.26,3.27,5.62,5.59,1.32-2.25,2.09-4.87,2.1-7.67-2.81,0-5.45.76-7.72,2.08Z"/>
        <path d="M40.77,93.3c-1.32,2.25-2.09,4.87-2.1,7.67,2.81,0,5.45-.76,7.72-2.08-2.33-1.34-4.27-3.27-5.62-5.59Z"/>
        <path d="M38.67,101.21c.02,2.79.78,5.41,2.1,7.67,1.35-2.32,3.29-4.25,5.62-5.59-2.27-1.32-4.91-2.07-7.72-2.08Z"/>
      </g>
      <g>
        <path d="M21.1,93.3c-1.35,2.32-3.29,4.25-5.62,5.59,2.27,1.32,4.91,2.07,7.72,2.08-.02-2.8-.78-5.42-2.1-7.67Z"/>
        <path d="M15.49,103.28c2.33,1.34,4.26,3.27,5.62,5.59,1.32-2.25,2.09-4.87,2.1-7.67-2.81,0-5.45.76-7.72,2.08Z"/>
        <path d="M25.35,93.3c-1.32,2.25-2.09,4.87-2.1,7.67,2.81,0,5.45-.76,7.72-2.08-2.33-1.34-4.27-3.27-5.62-5.59Z"/>
        <path d="M23.24,101.21c.02,2.79.78,5.41,2.1,7.67,1.35-2.32,3.29-4.25,5.62-5.59-2.27-1.32-4.91-2.07-7.72-2.08Z"/>
      </g>
      <g>
        <path d="M52.01,62.16c-1.35,2.32-3.29,4.25-5.62,5.59,2.27,1.32,4.91,2.07,7.72,2.08-.02-2.8-.78-5.42-2.1-7.67Z"/>
        <path d="M46.4,72.15c2.33,1.34,4.26,3.27,5.62,5.59,1.32-2.25,2.09-4.87,2.1-7.67-2.81,0-5.45.76-7.72,2.08Z"/>
        <path d="M56.26,62.16c-1.32,2.25-2.09,4.87-2.1,7.67,2.81,0,5.45-.76,7.72-2.08-2.33-1.34-4.27-3.27-5.62-5.59Z"/>
        <path d="M54.15,70.07c.02,2.79.78,5.41,2.1,7.67,1.35-2.32,3.29-4.25,5.62-5.59-2.27-1.32-4.91-2.07-7.72-2.08Z"/>
      </g>
      <g>
        <path d="M52.01,77.81c-1.35,2.32-3.29,4.25-5.62,5.59,2.27,1.32,4.91,2.07,7.72,2.08-.02-2.8-.78-5.42-2.1-7.67Z"/>
        <path d="M46.4,87.8c2.33,1.34,4.26,3.27,5.62,5.59,1.32-2.25,2.09-4.87,2.1-7.67-2.81,0-5.45.76-7.72,2.08Z"/>
        <path d="M56.26,77.81c-1.32,2.25-2.09,4.87-2.1,7.67,2.81,0,5.45-.76,7.72-2.08-2.33-1.34-4.27-3.27-5.62-5.59Z"/>
        <path d="M54.15,85.72c.02,2.79.78,5.41,2.1,7.67,1.35-2.32,3.29-4.25,5.62-5.59-2.27-1.32-4.91-2.07-7.72-2.08Z"/>
      </g>
      <g>
        <path d="M52.01,0c-1.35,2.32-3.29,4.25-5.62,5.59,2.27,1.32,4.91,2.07,7.72,2.08-.02-2.8-.78-5.42-2.1-7.67Z"/>
        <path d="M46.4,9.98c2.33,1.34,4.26,3.27,5.62,5.59,1.32-2.25,2.09-4.87,2.1-7.67-2.81,0-5.45.76-7.72,2.08Z"/>
        <path d="M56.26,0c-1.32,2.25-2.09,4.87-2.1,7.67,2.81,0,5.45-.76,7.72-2.08C59.54,4.25,57.6,2.32,56.26,0Z"/>
        <path d="M54.15,7.91c.02,2.79.78,5.41,2.1,7.67,1.35-2.32,3.29-4.25,5.62-5.59-2.27-1.32-4.91-2.07-7.72-2.08Z"/>
      </g>
      <g>
        <path d="M52.01,15.46c-1.35,2.32-3.29,4.25-5.62,5.59,2.27,1.32,4.91,2.07,7.72,2.08-.02-2.8-.78-5.42-2.1-7.67Z"/>
        <path d="M46.4,25.44c2.33,1.34,4.26,3.27,5.62,5.59,1.32-2.25,2.09-4.87,2.1-7.67-2.81,0-5.45.76-7.72,2.08Z"/>
        <path d="M56.26,15.46c-1.32,2.25-2.09,4.87-2.1,7.67,2.81,0,5.45-.76,7.72-2.08-2.33-1.34-4.27-3.27-5.62-5.59Z"/>
        <path d="M54.15,23.36c.02,2.79.78,5.41,2.1,7.67,1.35-2.32,3.29-4.25,5.62-5.59-2.27-1.32-4.91-2.07-7.72-2.08Z"/>
      </g>
      <g>
        <path d="M52.01,31.11c-1.35,2.32-3.29,4.25-5.62,5.59,2.27,1.32,4.91,2.07,7.72,2.08-.02-2.8-.78-5.42-2.1-7.67Z"/>
        <path d="M46.4,41.09c2.33,1.34,4.26,3.27,5.62,5.59,1.32-2.25,2.09-4.87,2.1-7.67-2.81,0-5.45.76-7.72,2.08Z"/>
        <path d="M56.26,31.11c-1.32,2.25-2.09,4.87-2.1,7.67,2.81,0,5.45-.76,7.72-2.08-2.33-1.34-4.27-3.27-5.62-5.59Z"/>
        <path d="M54.15,39.01c.02,2.79.78,5.41,2.1,7.67,1.35-2.32,3.29-4.25,5.62-5.59-2.27-1.32-4.91-2.07-7.72-2.08Z"/>
      </g>
      <g>
        <path d="M52.01,93.31c-1.35,2.32-3.29,4.25-5.62,5.59,2.27,1.32,4.91,2.07,7.72,2.08-.02-2.8-.78-5.42-2.1-7.67Z"/>
        <path d="M46.4,103.3c2.33,1.34,4.26,3.27,5.62,5.59,1.32-2.25,2.09-4.87,2.1-7.67-2.81,0-5.45.76-7.72,2.08Z"/>
        <path d="M56.26,93.31c-1.32,2.25-2.09,4.87-2.1,7.67,2.81,0,5.45-.76,7.72-2.08-2.33-1.34-4.27-3.27-5.62-5.59Z"/>
        <path d="M54.15,101.22c.02,2.79.78,5.41,2.1,7.67,1.35-2.32,3.29-4.25,5.62-5.59-2.27-1.32-4.91-2.07-7.72-2.08Z"/>
      </g>
      <g>
        <path d="M5.62,46.7C4.26,49.03,2.33,50.96,0,52.3c2.27,1.32,4.91,2.07,7.72,2.08-.02-2.8-.78-5.42-2.1-7.67Z"/>
        <path d="M0,56.69c2.33,1.34,4.26,3.27,5.62,5.59,1.32-2.25,2.09-4.87,2.1-7.67C4.91,54.62,2.27,55.37,0,56.69Z"/>
        <path d="M9.86,46.7c-1.32,2.25-2.09,4.87-2.1,7.67,2.81,0,5.45-.76,7.72-2.08-2.33-1.34-4.27-3.27-5.62-5.59Z"/>
        <path d="M7.76,54.61c.02,2.79.78,5.41,2.1,7.67,1.35-2.32,3.29-4.25,5.62-5.59-2.27-1.32-4.91-2.07-7.72-2.08Z"/>
      </g>
      <g>
        <path d="M5.62,62.16C4.26,64.48,2.33,66.42,0,67.76c2.27,1.32,4.91,2.07,7.72,2.08-.02-2.8-.78-5.42-2.1-7.67Z"/>
        <path d="M0,72.15c2.33,1.34,4.26,3.27,5.62,5.59,1.32-2.25,2.09-4.87,2.1-7.67C4.91,70.07,2.27,70.83,0,72.15Z"/>
        <path d="M9.86,62.16c-1.32,2.25-2.09,4.87-2.1,7.67,2.81,0,5.45-.76,7.72-2.08-2.33-1.34-4.27-3.27-5.62-5.59Z"/>
        <path d="M7.76,70.07c.02,2.79.78,5.41,2.1,7.67,1.35-2.32,3.29-4.25,5.62-5.59-2.27-1.32-4.91-2.07-7.72-2.08Z"/>
      </g>
      <g>
        <path d="M5.62,77.81C4.26,80.13,2.33,82.07,0,83.41c2.27,1.32,4.91,2.07,7.72,2.08-.02-2.8-.78-5.42-2.1-7.67Z"/>
        <path d="M0,87.8c2.33,1.34,4.26,3.27,5.62,5.59,1.32-2.25,2.09-4.87,2.1-7.67C4.91,85.72,2.27,86.48,0,87.8Z"/>
        <path d="M9.86,77.81c-1.32,2.25-2.09,4.87-2.1,7.67,2.81,0,5.45-.76,7.72-2.08-2.33-1.34-4.27-3.27-5.62-5.59Z"/>
        <path d="M7.76,85.72c.02,2.79.78,5.41,2.1,7.67,1.35-2.32,3.29-4.25,5.62-5.59-2.27-1.32-4.91-2.07-7.72-2.08Z"/>
      </g>
      <g>
        <path d="M5.62,93.31C4.26,95.63,2.33,97.57,0,98.91c2.27,1.32,4.91,2.07,7.72,2.08-.02-2.8-.78-5.42-2.1-7.67Z"/>
        <path d="M0,103.3c2.33,1.34,4.26,3.27,5.62,5.59,1.32-2.25,2.09-4.87,2.1-7.67-2.81,0-5.45.76-7.72,2.08Z"/>
        <path d="M9.86,93.31c-1.32,2.25-2.09,4.87-2.1,7.67,2.81,0,5.45-.76,7.72-2.08-2.33-1.34-4.27-3.27-5.62-5.59Z"/>
        <path d="M7.76,101.22c.02,2.79.78,5.41,2.1,7.67,1.35-2.32,3.29-4.25,5.62-5.59-2.27-1.32-4.91-2.07-7.72-2.08Z"/>
      </g>
    </g>
  </g>
</svg>