<?xml version="1.0" encoding="UTF-8"?>
<svg id="_레이어_2" data-name="레이어 2" xmlns="http://www.w3.org/2000/svg" viewBox="0 0 61.87 77.77">
  <g id="_레이어_1-2" data-name="레이어 1">
    <g>
      <g>
        <path d="M9.86,15.58c1.35,2.32,3.29,4.25,5.62,5.59-2.27,1.32-4.91,2.07-7.72,2.08.02-2.8.78-5.42,2.1-7.67Z"/>
        <path d="M15.47,25.57c-2.33,1.34-4.26,3.27-5.62,5.59-1.32-2.25-2.09-4.87-2.1-7.67,2.81,0,5.45.76,7.72,2.08Z"/>
        <path d="M5.62,15.58c1.32,2.25,2.09,4.87,2.1,7.67-2.81,0-5.45-.76-7.72-2.08,2.33-1.34,4.27-3.27,5.62-5.59Z"/>
        <path d="M7.72,23.49c-.02,2.79-.78,5.41-2.1,7.67-1.35-2.32-3.29-4.25-5.62-5.59,2.27-1.32,4.91-2.07,7.72-2.08Z"/>
      </g>
      <g>
        <path d="M25.34,15.58c1.35,2.32,3.29,4.25,5.62,5.59-2.27,1.32-4.91,2.07-7.72,2.08.02-2.8.78-5.42,2.1-7.67Z"/>
        <path d="M30.96,25.57c-2.33,1.34-4.26,3.27-5.62,5.59-1.32-2.25-2.09-4.87-2.1-7.67,2.81,0,5.45.76,7.72,2.08Z"/>
        <path d="M21.1,15.58c1.32,2.25,2.09,4.87,2.1,7.67-2.81,0-5.45-.76-7.72-2.08,2.33-1.34,4.27-3.27,5.62-5.59Z"/>
        <path d="M23.2,23.49c-.02,2.79-.78,5.41-2.1,7.67-1.35-2.32-3.29-4.25-5.62-5.59,2.27-1.32,4.91-2.07,7.72-2.08Z"/>
      </g>
      <g>
        <path d="M40.77,15.58c1.35,2.32,3.29,4.25,5.62,5.59-2.27,1.32-4.91,2.07-7.72,2.08.02-2.8.78-5.42,2.1-7.67Z"/>
        <path d="M46.39,25.57c-2.33,1.34-4.26,3.27-5.62,5.59-1.32-2.25-2.09-4.87-2.1-7.67,2.81,0,5.45.76,7.72,2.08Z"/>
        <path d="M36.53,15.58c1.32,2.25,2.09,4.87,2.1,7.67-2.81,0-5.45-.76-7.72-2.08,2.33-1.34,4.27-3.27,5.62-5.59Z"/>
        <path d="M38.63,23.49c-.02,2.79-.78,5.41-2.1,7.67-1.35-2.32-3.29-4.25-5.62-5.59,2.27-1.32,4.91-2.07,7.72-2.08Z"/>
      </g>
      <g>
        <path d="M25.34,62.18c1.35,2.32,3.29,4.25,5.62,5.59-2.27,1.32-4.91,2.07-7.72,2.08.02-2.8.78-5.42,2.1-7.67Z"/>
        <path d="M30.96,72.16c-2.33,1.34-4.26,3.27-5.62,5.59-1.32-2.25-2.09-4.87-2.1-7.67,2.81,0,5.45.76,7.72,2.08Z"/>
        <path d="M21.1,62.18c1.32,2.25,2.09,4.87,2.1,7.67-2.81,0-5.45-.76-7.72-2.08,2.33-1.34,4.27-3.27,5.62-5.59Z"/>
        <path d="M23.2,70.09c-.02,2.79-.78,5.41-2.1,7.67-1.35-2.32-3.29-4.25-5.62-5.59,2.27-1.32,4.91-2.07,7.72-2.08Z"/>
      </g>
      <g>
        <path d="M40.77,62.18c1.35,2.32,3.29,4.25,5.62,5.59-2.27,1.32-4.91,2.07-7.72,2.08.02-2.8.78-5.42,2.1-7.67Z"/>
        <path d="M46.39,72.16c-2.33,1.34-4.26,3.27-5.62,5.59-1.32-2.25-2.09-4.87-2.1-7.67,2.81,0,5.45.76,7.72,2.08Z"/>
        <path d="M36.53,62.18c1.32,2.25,2.09,4.87,2.1,7.67-2.81,0-5.45-.76-7.72-2.08,2.33-1.34,4.27-3.27,5.62-5.59Z"/>
        <path d="M38.63,70.09c-.02,2.79-.78,5.41-2.1,7.67-1.35-2.32-3.29-4.25-5.62-5.59,2.27-1.32,4.91-2.07,7.72-2.08Z"/>
      </g>
      <g>
        <path d="M9.86,31.04c1.35,2.32,3.29,4.25,5.62,5.59-2.27,1.32-4.91,2.07-7.72,2.08.02-2.8.78-5.42,2.1-7.67Z"/>
        <path d="M15.47,41.03c-2.33,1.34-4.26,3.27-5.62,5.59-1.32-2.25-2.09-4.87-2.1-7.67,2.81,0,5.45.76,7.72,2.08Z"/>
        <path d="M5.62,31.04c1.32,2.25,2.09,4.87,2.1,7.67-2.81,0-5.45-.76-7.72-2.08,2.33-1.34,4.27-3.27,5.62-5.59Z"/>
        <path d="M7.72,38.95c-.02,2.79-.78,5.41-2.1,7.67-1.35-2.32-3.29-4.25-5.62-5.59,2.27-1.32,4.91-2.07,7.72-2.08Z"/>
      </g>
      <g>
        <path d="M9.86,46.69c1.35,2.32,3.29,4.25,5.62,5.59-2.27,1.32-4.91,2.07-7.72,2.08.02-2.8.78-5.42,2.1-7.67Z"/>
        <path d="M15.47,56.68c-2.33,1.34-4.26,3.27-5.62,5.59-1.32-2.25-2.09-4.87-2.1-7.67,2.81,0,5.45.76,7.72,2.08Z"/>
        <path d="M5.62,46.69c1.32,2.25,2.09,4.87,2.1,7.67-2.81,0-5.45-.76-7.72-2.08,2.33-1.34,4.27-3.27,5.62-5.59Z"/>
        <path d="M7.72,54.6c-.02,2.79-.78,5.41-2.1,7.67-1.35-2.32-3.29-4.25-5.62-5.59,2.27-1.32,4.91-2.07,7.72-2.08Z"/>
      </g>
      <g>
        <path d="M9.86,62.19c1.35,2.32,3.29,4.25,5.62,5.59-2.27,1.32-4.91,2.07-7.72,2.08.02-2.8.78-5.42,2.1-7.67Z"/>
        <path d="M15.47,72.18c-2.33,1.34-4.26,3.27-5.62,5.59-1.32-2.25-2.09-4.87-2.1-7.67,2.81,0,5.45.76,7.72,2.08Z"/>
        <path d="M5.62,62.19c1.32,2.25,2.09,4.87,2.1,7.67-2.81,0-5.45-.76-7.72-2.08,2.33-1.34,4.27-3.27,5.62-5.59Z"/>
        <path d="M7.72,70.1c-.02,2.79-.78,5.41-2.1,7.67-1.35-2.32-3.29-4.25-5.62-5.59,2.27-1.32,4.91-2.07,7.72-2.08Z"/>
      </g>
      <g>
        <path d="M56.26,15.58c1.35,2.32,3.29,4.25,5.62,5.59-2.27,1.32-4.91,2.07-7.72,2.08.02-2.8.78-5.42,2.1-7.67Z"/>
        <path d="M61.87,25.57c-2.33,1.34-4.26,3.27-5.62,5.59-1.32-2.25-2.09-4.87-2.1-7.67,2.81,0,5.45.76,7.72,2.08Z"/>
        <path d="M52.01,15.58c1.32,2.25,2.09,4.87,2.1,7.67-2.81,0-5.45-.76-7.72-2.08,2.33-1.34,4.27-3.27,5.62-5.59Z"/>
        <path d="M54.12,23.49c-.02,2.79-.78,5.41-2.1,7.67-1.35-2.32-3.29-4.25-5.62-5.59,2.27-1.32,4.91-2.07,7.72-2.08Z"/>
      </g>
      <g>
        <path d="M56.26,62.19c1.35,2.32,3.29,4.25,5.62,5.59-2.27,1.32-4.91,2.07-7.72,2.08.02-2.8.78-5.42,2.1-7.67Z"/>
        <path d="M61.87,72.18c-2.33,1.34-4.26,3.27-5.62,5.59-1.32-2.25-2.09-4.87-2.1-7.67,2.81,0,5.45.76,7.72,2.08Z"/>
        <path d="M52.01,62.19c1.32,2.25,2.09,4.87,2.1,7.67-2.81,0-5.45-.76-7.72-2.08,2.33-1.34,4.27-3.27,5.62-5.59Z"/>
        <path d="M54.12,70.1c-.02,2.79-.78,5.41-2.1,7.67-1.35-2.32-3.29-4.25-5.62-5.59,2.27-1.32,4.91-2.07,7.72-2.08Z"/>
      </g>
      <g>
        <path d="M25.34,31.14c1.35,2.32,3.29,4.25,5.62,5.59-2.27,1.32-4.91,2.07-7.72,2.08.02-2.8.78-5.42,2.1-7.67Z"/>
        <path d="M30.96,41.12c-2.33,1.34-4.26,3.27-5.62,5.59-1.32-2.25-2.09-4.87-2.1-7.67,2.81,0,5.45.76,7.72,2.08Z"/>
        <path d="M21.1,31.14c1.32,2.25,2.09,4.87,2.1,7.67-2.81,0-5.45-.76-7.72-2.08,2.33-1.34,4.27-3.27,5.62-5.59Z"/>
        <path d="M23.2,39.04c-.02,2.79-.78,5.41-2.1,7.67-1.35-2.32-3.29-4.25-5.62-5.59,2.27-1.32,4.91-2.07,7.72-2.08Z"/>
      </g>
      <g>
        <path d="M40.77,31.14c1.35,2.32,3.29,4.25,5.62,5.59-2.27,1.32-4.91,2.07-7.72,2.08.02-2.8.78-5.42,2.1-7.67Z"/>
        <path d="M46.39,41.12c-2.33,1.34-4.26,3.27-5.62,5.59-1.32-2.25-2.09-4.87-2.1-7.67,2.81,0,5.45.76,7.72,2.08Z"/>
        <path d="M36.53,31.14c1.32,2.25,2.09,4.87,2.1,7.67-2.81,0-5.45-.76-7.72-2.08,2.33-1.34,4.27-3.27,5.62-5.59Z"/>
        <path d="M38.63,39.04c-.02,2.79-.78,5.41-2.1,7.67-1.35-2.32-3.29-4.25-5.62-5.59,2.27-1.32,4.91-2.07,7.72-2.08Z"/>
      </g>
      <g>
        <path d="M56.26,31.15c1.35,2.32,3.29,4.25,5.62,5.59-2.27,1.32-4.91,2.07-7.72,2.08.02-2.8.78-5.42,2.1-7.67Z"/>
        <path d="M61.87,41.13c-2.33,1.34-4.26,3.27-5.62,5.59-1.32-2.25-2.09-4.87-2.1-7.67,2.81,0,5.45.76,7.72,2.08Z"/>
        <path d="M52.01,31.15c1.32,2.25,2.09,4.87,2.1,7.67-2.81,0-5.45-.76-7.72-2.08,2.33-1.34,4.27-3.27,5.62-5.59Z"/>
        <path d="M54.12,39.06c-.02,2.79-.78,5.41-2.1,7.67-1.35-2.32-3.29-4.25-5.62-5.59,2.27-1.32,4.91-2.07,7.72-2.08Z"/>
      </g>
      <g>
        <path d="M9.86,0c1.35,2.32,3.29,4.25,5.62,5.59-2.27,1.32-4.91,2.07-7.72,2.08.02-2.8.78-5.42,2.1-7.67Z"/>
        <path d="M15.47,9.98c-2.33,1.34-4.26,3.27-5.62,5.59-1.32-2.25-2.09-4.87-2.1-7.67,2.81,0,5.45.76,7.72,2.08Z"/>
        <path d="M5.62,0c1.32,2.25,2.09,4.87,2.1,7.67-2.81,0-5.45-.76-7.72-2.08C2.33,4.25,4.27,2.32,5.62,0Z"/>
        <path d="M7.72,7.91c-.02,2.79-.78,5.41-2.1,7.67-1.35-2.32-3.29-4.25-5.62-5.59,2.27-1.32,4.91-2.07,7.72-2.08Z"/>
      </g>
      <g>
        <path d="M25.34.09c1.35,2.32,3.29,4.25,5.62,5.59-2.27,1.32-4.91,2.07-7.72,2.08.02-2.8.78-5.42,2.1-7.67Z"/>
        <path d="M30.96,10.08c-2.33,1.34-4.26,3.27-5.62,5.59-1.32-2.25-2.09-4.87-2.1-7.67,2.81,0,5.45.76,7.72,2.08Z"/>
        <path d="M21.1.09c1.32,2.25,2.09,4.87,2.1,7.67-2.81,0-5.45-.76-7.72-2.08,2.33-1.34,4.27-3.27,5.62-5.59Z"/>
        <path d="M23.2,8c-.02,2.79-.78,5.41-2.1,7.67-1.35-2.32-3.29-4.25-5.62-5.59,2.27-1.32,4.91-2.07,7.72-2.08Z"/>
      </g>
      <g>
        <path d="M40.77.09c1.35,2.32,3.29,4.25,5.62,5.59-2.27,1.32-4.91,2.07-7.72,2.08.02-2.8.78-5.42,2.1-7.67Z"/>
        <path d="M46.39,10.08c-2.33,1.34-4.26,3.27-5.62,5.59-1.32-2.25-2.09-4.87-2.1-7.67,2.81,0,5.45.76,7.72,2.08Z"/>
        <path d="M36.53.09c1.32,2.25,2.09,4.87,2.1,7.67-2.81,0-5.45-.76-7.72-2.08,2.33-1.34,4.27-3.27,5.62-5.59Z"/>
        <path d="M38.63,8c-.02,2.79-.78,5.41-2.1,7.67-1.35-2.32-3.29-4.25-5.62-5.59,2.27-1.32,4.91-2.07,7.72-2.08Z"/>
      </g>
      <g>
        <path d="M56.26.11c1.35,2.32,3.29,4.25,5.62,5.59-2.27,1.32-4.91,2.07-7.72,2.08.02-2.8.78-5.42,2.1-7.67Z"/>
        <path d="M61.87,10.09c-2.33,1.34-4.26,3.27-5.62,5.59-1.32-2.25-2.09-4.87-2.1-7.67,2.81,0,5.45.76,7.72,2.08Z"/>
        <path d="M52.01.11c1.32,2.25,2.09,4.87,2.1,7.67-2.81,0-5.45-.76-7.72-2.08,2.33-1.34,4.27-3.27,5.62-5.59Z"/>
        <path d="M54.12,8.01c-.02,2.79-.78,5.41-2.1,7.67-1.35-2.32-3.29-4.25-5.62-5.59,2.27-1.32,4.91-2.07,7.72-2.08Z"/>
      </g>
    </g>
  </g>
</svg>