<?xml version="1.0" encoding="UTF-8"?>
<svg id="_레이어_2" data-name="레이어 2" xmlns="http://www.w3.org/2000/svg" viewBox="0 0 61.88 108.89">
  <g id="_레이어_1-2" data-name="레이어 1">
    <g>
      <g>
        <path d="M9.86,46.7c1.35,2.32,3.29,4.25,5.62,5.59-2.27,1.32-4.91,2.07-7.72,2.08.02-2.8.78-5.42,2.1-7.67Z"/>
        <path d="M15.47,56.69c-2.33,1.34-4.26,3.27-5.62,5.59-1.32-2.25-2.09-4.87-2.1-7.67,2.81,0,5.45.76,7.72,2.08Z"/>
        <path d="M5.62,46.7c1.32,2.25,2.09,4.87,2.1,7.67-2.81,0-5.45-.76-7.72-2.08,2.33-1.34,4.27-3.27,5.62-5.59Z"/>
        <path d="M7.72,54.61c-.02,2.79-.78,5.41-2.1,7.67-1.35-2.32-3.29-4.25-5.62-5.59,2.27-1.32,4.91-2.07,7.72-2.08Z"/>
      </g>
      <g>
        <path d="M25.34,46.7c1.35,2.32,3.29,4.25,5.62,5.59-2.27,1.32-4.91,2.07-7.72,2.08.02-2.8.78-5.42,2.1-7.67Z"/>
        <path d="M30.96,56.69c-2.33,1.34-4.26,3.27-5.62,5.59-1.32-2.25-2.09-4.87-2.1-7.67,2.81,0,5.45.76,7.72,2.08Z"/>
        <path d="M21.1,46.7c1.32,2.25,2.09,4.87,2.1,7.67-2.81,0-5.45-.76-7.72-2.08,2.33-1.34,4.27-3.27,5.62-5.59Z"/>
        <path d="M23.2,54.61c-.02,2.79-.78,5.41-2.1,7.67-1.35-2.32-3.29-4.25-5.62-5.59,2.27-1.32,4.91-2.07,7.72-2.08Z"/>
      </g>
      <g>
        <path d="M40.77,46.7c1.35,2.32,3.29,4.25,5.62,5.59-2.27,1.32-4.91,2.07-7.72,2.08.02-2.8.78-5.42,2.1-7.67Z"/>
        <path d="M46.39,56.69c-2.33,1.34-4.26,3.27-5.62,5.59-1.32-2.25-2.09-4.87-2.1-7.67,2.81,0,5.45.76,7.72,2.08Z"/>
        <path d="M36.53,46.7c1.32,2.25,2.09,4.87,2.1,7.67-2.81,0-5.45-.76-7.72-2.08,2.33-1.34,4.27-3.27,5.62-5.59Z"/>
        <path d="M38.63,54.61c-.02,2.79-.78,5.41-2.1,7.67-1.35-2.32-3.29-4.25-5.62-5.59,2.27-1.32,4.91-2.07,7.72-2.08Z"/>
      </g>
      <g>
        <path d="M9.86,62.16c1.35,2.32,3.29,4.25,5.62,5.59-2.27,1.32-4.91,2.07-7.72,2.08.02-2.8.78-5.42,2.1-7.67Z"/>
        <path d="M15.47,72.15c-2.33,1.34-4.26,3.27-5.62,5.59-1.32-2.25-2.09-4.87-2.1-7.67,2.81,0,5.45.76,7.72,2.08Z"/>
        <path d="M5.62,62.16c1.32,2.25,2.09,4.87,2.1,7.67-2.81,0-5.45-.76-7.72-2.08,2.33-1.34,4.27-3.27,5.62-5.59Z"/>
        <path d="M7.72,70.07c-.02,2.79-.78,5.41-2.1,7.67-1.35-2.32-3.29-4.25-5.62-5.59,2.27-1.32,4.91-2.07,7.72-2.08Z"/>
      </g>
      <g>
        <path d="M9.86,77.81c1.35,2.32,3.29,4.25,5.62,5.59-2.27,1.32-4.91,2.07-7.72,2.08.02-2.8.78-5.42,2.1-7.67Z"/>
        <path d="M15.47,87.8c-2.33,1.34-4.26,3.27-5.62,5.59-1.32-2.25-2.09-4.87-2.1-7.67,2.81,0,5.45.76,7.72,2.08Z"/>
        <path d="M5.62,77.81c1.32,2.25,2.09,4.87,2.1,7.67-2.81,0-5.45-.76-7.72-2.08,2.33-1.34,4.27-3.27,5.62-5.59Z"/>
        <path d="M7.72,85.72c-.02,2.79-.78,5.41-2.1,7.67-1.35-2.32-3.29-4.25-5.62-5.59,2.27-1.32,4.91-2.07,7.72-2.08Z"/>
      </g>
      <g>
        <path d="M25.28,0c1.35,2.32,3.29,4.25,5.62,5.59-2.27,1.32-4.91,2.07-7.72,2.08.02-2.8.78-5.42,2.1-7.67Z"/>
        <path d="M30.9,9.98c-2.33,1.34-4.26,3.27-5.62,5.59-1.32-2.25-2.09-4.87-2.1-7.67,2.81,0,5.45.76,7.72,2.08Z"/>
        <path d="M21.04,0c1.32,2.25,2.09,4.87,2.1,7.67-2.81,0-5.45-.76-7.72-2.08,2.33-1.34,4.27-3.27,5.62-5.59Z"/>
        <path d="M23.14,7.91c-.02,2.79-.78,5.41-2.1,7.67-1.35-2.32-3.29-4.25-5.62-5.59,2.27-1.32,4.91-2.07,7.72-2.08Z"/>
      </g>
      <g>
        <path d="M40.81,0c1.35,2.32,3.29,4.25,5.62,5.59-2.27,1.32-4.91,2.07-7.72,2.08.02-2.8.78-5.42,2.1-7.67Z"/>
        <path d="M46.43,9.98c-2.33,1.34-4.26,3.27-5.62,5.59-1.32-2.25-2.09-4.87-2.1-7.67,2.81,0,5.45.76,7.72,2.08Z"/>
        <path d="M36.57,0c1.32,2.25,2.09,4.87,2.1,7.67-2.81,0-5.45-.76-7.72-2.08,2.33-1.34,4.27-3.27,5.62-5.59Z"/>
        <path d="M38.67,7.91c-.02,2.79-.78,5.41-2.1,7.67-1.35-2.32-3.29-4.25-5.62-5.59,2.27-1.32,4.91-2.07,7.72-2.08Z"/>
      </g>
      <g>
        <path d="M56.27,0c1.35,2.32,3.29,4.25,5.62,5.59-2.27,1.32-4.91,2.07-7.72,2.08.02-2.8.78-5.42,2.1-7.67Z"/>
        <path d="M61.88,9.98c-2.33,1.34-4.26,3.27-5.62,5.59-1.32-2.25-2.09-4.87-2.1-7.67,2.81,0,5.45.76,7.72,2.08Z"/>
        <path d="M52.02,0c1.32,2.25,2.09,4.87,2.1,7.67-2.81,0-5.45-.76-7.72-2.08,2.33-1.34,4.27-3.27,5.62-5.59Z"/>
        <path d="M54.13,7.91c-.02,2.79-.78,5.41-2.1,7.67-1.35-2.32-3.29-4.25-5.62-5.59,2.27-1.32,4.91-2.07,7.72-2.08Z"/>
      </g>
      <g>
        <path d="M9.86,15.46c1.35,2.32,3.29,4.25,5.62,5.59-2.27,1.32-4.91,2.07-7.72,2.08.02-2.8.78-5.42,2.1-7.67Z"/>
        <path d="M15.47,25.44c-2.33,1.34-4.26,3.27-5.62,5.59-1.32-2.25-2.09-4.87-2.1-7.67,2.81,0,5.45.76,7.72,2.08Z"/>
        <path d="M5.62,15.46c1.32,2.25,2.09,4.87,2.1,7.67-2.81,0-5.45-.76-7.72-2.08,2.33-1.34,4.27-3.27,5.62-5.59Z"/>
        <path d="M7.72,23.36c-.02,2.79-.78,5.41-2.1,7.67-1.35-2.32-3.29-4.25-5.62-5.59,2.27-1.32,4.91-2.07,7.72-2.08Z"/>
      </g>
      <g>
        <path d="M9.86,31.11c1.35,2.32,3.29,4.25,5.62,5.59-2.27,1.32-4.91,2.07-7.72,2.08.02-2.8.78-5.42,2.1-7.67Z"/>
        <path d="M15.47,41.09c-2.33,1.34-4.26,3.27-5.62,5.59-1.32-2.25-2.09-4.87-2.1-7.67,2.81,0,5.45.76,7.72,2.08Z"/>
        <path d="M5.62,31.11c1.32,2.25,2.09,4.87,2.1,7.67-2.81,0-5.45-.76-7.72-2.08,2.33-1.34,4.27-3.27,5.62-5.59Z"/>
        <path d="M7.72,39.01c-.02,2.79-.78,5.41-2.1,7.67-1.35-2.32-3.29-4.25-5.62-5.59,2.27-1.32,4.91-2.07,7.72-2.08Z"/>
      </g>
      <g>
        <path d="M9.86,93.31c1.35,2.32,3.29,4.25,5.62,5.59-2.27,1.32-4.91,2.07-7.72,2.08.02-2.8.78-5.42,2.1-7.67Z"/>
        <path d="M15.47,103.3c-2.33,1.34-4.26,3.27-5.62,5.59-1.32-2.25-2.09-4.87-2.1-7.67,2.81,0,5.45.76,7.72,2.08Z"/>
        <path d="M5.62,93.31c1.32,2.25,2.09,4.87,2.1,7.67-2.81,0-5.45-.76-7.72-2.08,2.33-1.34,4.27-3.27,5.62-5.59Z"/>
        <path d="M7.72,101.22c-.02,2.79-.78,5.41-2.1,7.67-1.35-2.32-3.29-4.25-5.62-5.59,2.27-1.32,4.91-2.07,7.72-2.08Z"/>
      </g>
      <g>
        <path d="M56.26,46.7c1.35,2.32,3.29,4.25,5.62,5.59-2.27,1.32-4.91,2.07-7.72,2.08.02-2.8.78-5.42,2.1-7.67Z"/>
        <path d="M61.87,56.69c-2.33,1.34-4.26,3.27-5.62,5.59-1.32-2.25-2.09-4.87-2.1-7.67,2.81,0,5.45.76,7.72,2.08Z"/>
        <path d="M52.01,46.7c1.32,2.25,2.09,4.87,2.1,7.67-2.81,0-5.45-.76-7.72-2.08,2.33-1.34,4.27-3.27,5.62-5.59Z"/>
        <path d="M54.12,54.61c-.02,2.79-.78,5.41-2.1,7.67-1.35-2.32-3.29-4.25-5.62-5.59,2.27-1.32,4.91-2.07,7.72-2.08Z"/>
      </g>
    </g>
  </g>
</svg>