<?xml version="1.0" encoding="UTF-8"?>
<svg id="_레이어_2" data-name="레이어 2" xmlns="http://www.w3.org/2000/svg" viewBox="0 0 77.27 62.18">
  <g id="_레이어_1-2" data-name="레이어 1">
    <g>
      <g>
        <path d="M9.86,0c1.35,2.32,3.29,4.25,5.62,5.59-2.27,1.32-4.91,2.07-7.72,2.08.02-2.8.78-5.42,2.1-7.67Z"/>
        <path d="M15.47,9.98c-2.33,1.34-4.26,3.27-5.62,5.59-1.32-2.25-2.09-4.87-2.1-7.67,2.81,0,5.45.76,7.72,2.08Z"/>
        <path d="M5.62,0c1.32,2.25,2.09,4.87,2.1,7.67-2.81,0-5.45-.76-7.72-2.08C2.33,4.25,4.27,2.32,5.62,0Z"/>
        <path d="M7.72,7.91c-.02,2.79-.78,5.41-2.1,7.67-1.35-2.32-3.29-4.25-5.62-5.59,2.27-1.32,4.91-2.07,7.72-2.08Z"/>
      </g>
      <g>
        <path d="M9.86,15.46c1.35,2.32,3.29,4.25,5.62,5.59-2.27,1.32-4.91,2.07-7.72,2.08.02-2.8.78-5.42,2.1-7.67Z"/>
        <path d="M15.47,25.44c-2.33,1.34-4.26,3.27-5.62,5.59-1.32-2.25-2.09-4.87-2.1-7.67,2.81,0,5.45.76,7.72,2.08Z"/>
        <path d="M5.62,15.46c1.32,2.25,2.09,4.87,2.1,7.67-2.81,0-5.45-.76-7.72-2.08,2.33-1.34,4.27-3.27,5.62-5.59Z"/>
        <path d="M7.72,23.36c-.02,2.79-.78,5.41-2.1,7.67-1.35-2.32-3.29-4.25-5.62-5.59,2.27-1.32,4.91-2.07,7.72-2.08Z"/>
      </g>
      <g>
        <path d="M9.86,31.11c1.35,2.32,3.29,4.25,5.62,5.59-2.27,1.32-4.91,2.07-7.72,2.08.02-2.8.78-5.42,2.1-7.67Z"/>
        <path d="M15.47,41.09c-2.33,1.34-4.26,3.27-5.62,5.59-1.32-2.25-2.09-4.87-2.1-7.67,2.81,0,5.45.76,7.72,2.08Z"/>
        <path d="M5.62,31.11c1.32,2.25,2.09,4.87,2.1,7.67-2.81,0-5.45-.76-7.72-2.08,2.33-1.34,4.27-3.27,5.62-5.59Z"/>
        <path d="M7.72,39.01c-.02,2.79-.78,5.41-2.1,7.67-1.35-2.32-3.29-4.25-5.62-5.59,2.27-1.32,4.91-2.07,7.72-2.08Z"/>
      </g>
      <g>
        <path d="M9.86,46.61c1.35,2.32,3.29,4.25,5.62,5.59-2.27,1.32-4.91,2.07-7.72,2.08.02-2.8.78-5.42,2.1-7.67Z"/>
        <path d="M15.47,56.59c-2.33,1.34-4.26,3.27-5.62,5.59-1.32-2.25-2.09-4.87-2.1-7.67,2.81,0,5.45.76,7.72,2.08Z"/>
        <path d="M5.62,46.61c1.32,2.25,2.09,4.87,2.1,7.67-2.81,0-5.45-.76-7.72-2.08,2.33-1.34,4.27-3.27,5.62-5.59Z"/>
        <path d="M7.72,54.51c-.02,2.79-.78,5.41-2.1,7.67-1.35-2.32-3.29-4.25-5.62-5.59,2.27-1.32,4.91-2.07,7.72-2.08Z"/>
      </g>
      <g>
        <path d="M71.66,0c1.35,2.32,3.29,4.25,5.62,5.59-2.27,1.32-4.91,2.07-7.72,2.08.02-2.8.78-5.42,2.1-7.67Z"/>
        <path d="M77.27,9.98c-2.33,1.34-4.26,3.27-5.62,5.59-1.32-2.25-2.09-4.87-2.1-7.67,2.81,0,5.45.76,7.72,2.08Z"/>
        <path d="M67.41,0c1.32,2.25,2.09,4.87,2.1,7.67-2.81,0-5.45-.76-7.72-2.08,2.33-1.34,4.27-3.27,5.62-5.59Z"/>
        <path d="M69.52,7.91c-.02,2.79-.78,5.41-2.1,7.67-1.35-2.32-3.29-4.25-5.62-5.59,2.27-1.32,4.91-2.07,7.72-2.08Z"/>
      </g>
      <g>
        <path d="M71.66,15.46c1.35,2.32,3.29,4.25,5.62,5.59-2.27,1.32-4.91,2.07-7.72,2.08.02-2.8.78-5.42,2.1-7.67Z"/>
        <path d="M77.27,25.44c-2.33,1.34-4.26,3.27-5.62,5.59-1.32-2.25-2.09-4.87-2.1-7.67,2.81,0,5.45.76,7.72,2.08Z"/>
        <path d="M67.41,15.46c1.32,2.25,2.09,4.87,2.1,7.67-2.81,0-5.45-.76-7.72-2.08,2.33-1.34,4.27-3.27,5.62-5.59Z"/>
        <path d="M69.52,23.36c-.02,2.79-.78,5.41-2.1,7.67-1.35-2.32-3.29-4.25-5.62-5.59,2.27-1.32,4.91-2.07,7.72-2.08Z"/>
      </g>
      <g>
        <path d="M71.66,31.11c1.35,2.32,3.29,4.25,5.62,5.59-2.27,1.32-4.91,2.07-7.72,2.08.02-2.8.78-5.42,2.1-7.67Z"/>
        <path d="M77.27,41.09c-2.33,1.34-4.26,3.27-5.62,5.59-1.32-2.25-2.09-4.87-2.1-7.67,2.81,0,5.45.76,7.72,2.08Z"/>
        <path d="M67.41,31.11c1.32,2.25,2.09,4.87,2.1,7.67-2.81,0-5.45-.76-7.72-2.08,2.33-1.34,4.27-3.27,5.62-5.59Z"/>
        <path d="M69.52,39.01c-.02,2.79-.78,5.41-2.1,7.67-1.35-2.32-3.29-4.25-5.62-5.59,2.27-1.32,4.91-2.07,7.72-2.08Z"/>
      </g>
      <g>
        <path d="M40.75,0c1.35,2.32,3.29,4.25,5.62,5.59-2.27,1.32-4.91,2.07-7.72,2.08.02-2.8.78-5.42,2.1-7.67Z"/>
        <path d="M46.37,9.98c-2.33,1.34-4.26,3.27-5.62,5.59-1.32-2.25-2.09-4.87-2.1-7.67,2.81,0,5.45.76,7.72,2.08Z"/>
        <path d="M36.51,0c1.32,2.25,2.09,4.87,2.1,7.67-2.81,0-5.45-.76-7.72-2.08,2.33-1.34,4.27-3.27,5.62-5.59Z"/>
        <path d="M38.61,7.91c-.02,2.79-.78,5.41-2.1,7.67-1.35-2.32-3.29-4.25-5.62-5.59,2.27-1.32,4.91-2.07,7.72-2.08Z"/>
      </g>
      <g>
        <path d="M25.29,0c1.35,2.32,3.29,4.25,5.62,5.59-2.27,1.32-4.91,2.07-7.72,2.08.02-2.8.78-5.42,2.1-7.67Z"/>
        <path d="M30.91,9.98c-2.33,1.34-4.26,3.27-5.62,5.59-1.32-2.25-2.09-4.87-2.1-7.67,2.81,0,5.45.76,7.72,2.08Z"/>
        <path d="M21.05,0c1.32,2.25,2.09,4.87,2.1,7.67-2.81,0-5.45-.76-7.72-2.08,2.33-1.34,4.27-3.27,5.62-5.59Z"/>
        <path d="M23.15,7.91c-.02,2.79-.78,5.41-2.1,7.67-1.35-2.32-3.29-4.25-5.62-5.59,2.27-1.32,4.91-2.07,7.72-2.08Z"/>
      </g>
      <g>
        <path d="M56.34,0c1.35,2.32,3.29,4.25,5.62,5.59-2.27,1.32-4.91,2.07-7.72,2.08.02-2.8.78-5.42,2.1-7.67Z"/>
        <path d="M61.96,9.98c-2.33,1.34-4.26,3.27-5.62,5.59-1.32-2.25-2.09-4.87-2.1-7.67,2.81,0,5.45.76,7.72,2.08Z"/>
        <path d="M52.1,0c1.32,2.25,2.09,4.87,2.1,7.67-2.81,0-5.45-.76-7.72-2.08,2.33-1.34,4.27-3.27,5.62-5.59Z"/>
        <path d="M54.2,7.91c-.02,2.79-.78,5.41-2.1,7.67-1.35-2.32-3.29-4.25-5.62-5.59,2.27-1.32,4.91-2.07,7.72-2.08Z"/>
      </g>
      <g>
        <path d="M40.75,15.46c1.35,2.32,3.29,4.25,5.62,5.59-2.27,1.32-4.91,2.07-7.72,2.08.02-2.8.78-5.42,2.1-7.67Z"/>
        <path d="M46.37,25.44c-2.33,1.34-4.26,3.27-5.62,5.59-1.32-2.25-2.09-4.87-2.1-7.67,2.81,0,5.45.76,7.72,2.08Z"/>
        <path d="M36.51,15.46c1.32,2.25,2.09,4.87,2.1,7.67-2.81,0-5.45-.76-7.72-2.08,2.33-1.34,4.27-3.27,5.62-5.59Z"/>
        <path d="M38.61,23.36c-.02,2.79-.78,5.41-2.1,7.67-1.35-2.32-3.29-4.25-5.62-5.59,2.27-1.32,4.91-2.07,7.72-2.08Z"/>
      </g>
      <g>
        <path d="M40.75,31.11c1.35,2.32,3.29,4.25,5.62,5.59-2.27,1.32-4.91,2.07-7.72,2.08.02-2.8.78-5.42,2.1-7.67Z"/>
        <path d="M46.37,41.09c-2.33,1.34-4.26,3.27-5.62,5.59-1.32-2.25-2.09-4.87-2.1-7.67,2.81,0,5.45.76,7.72,2.08Z"/>
        <path d="M36.51,31.11c1.32,2.25,2.09,4.87,2.1,7.67-2.81,0-5.45-.76-7.72-2.08,2.33-1.34,4.27-3.27,5.62-5.59Z"/>
        <path d="M38.61,39.01c-.02,2.79-.78,5.41-2.1,7.67-1.35-2.32-3.29-4.25-5.62-5.59,2.27-1.32,4.91-2.07,7.72-2.08Z"/>
      </g>
      <g>
        <path d="M71.66,46.61c1.35,2.32,3.29,4.25,5.62,5.59-2.27,1.32-4.91,2.07-7.72,2.08.02-2.8.78-5.42,2.1-7.67Z"/>
        <path d="M77.27,56.59c-2.33,1.34-4.26,3.27-5.62,5.59-1.32-2.25-2.09-4.87-2.1-7.67,2.81,0,5.45.76,7.72,2.08Z"/>
        <path d="M67.41,46.61c1.32,2.25,2.09,4.87,2.1,7.67-2.81,0-5.45-.76-7.72-2.08,2.33-1.34,4.27-3.27,5.62-5.59Z"/>
        <path d="M69.52,54.51c-.02,2.79-.78,5.41-2.1,7.67-1.35-2.32-3.29-4.25-5.62-5.59,2.27-1.32,4.91-2.07,7.72-2.08Z"/>
      </g>
    </g>
  </g>
</svg>