<?xml version="1.0" encoding="UTF-8"?>
<svg id="_레이어_2" data-name="레이어 2" xmlns="http://www.w3.org/2000/svg" viewBox="0 0 61.87 93.57">
  <g id="_레이어_1-2" data-name="레이어 1">
    <g>
      <g>
        <path d="M52.01,46.89c-1.35,2.32-3.29,4.25-5.62,5.59,2.27,1.32,4.91,2.07,7.72,2.08-.02-2.8-.78-5.42-2.1-7.67Z"/>
        <path d="M46.4,56.87c2.33,1.34,4.26,3.27,5.62,5.59,1.32-2.25,2.09-4.87,2.1-7.67-2.81,0-5.45.76-7.72,2.08Z"/>
        <path d="M56.25,46.89c-1.32,2.25-2.09,4.87-2.1,7.67,2.81,0,5.45-.76,7.72-2.08-2.33-1.34-4.27-3.27-5.62-5.59Z"/>
        <path d="M54.15,54.8c.02,2.79.78,5.41,2.1,7.67,1.35-2.32,3.29-4.25,5.62-5.59-2.27-1.32-4.91-2.07-7.72-2.08Z"/>
      </g>
      <g>
        <path d="M52.01,62.35c-1.35,2.32-3.29,4.25-5.62,5.59,2.27,1.32,4.91,2.07,7.72,2.08-.02-2.8-.78-5.42-2.1-7.67Z"/>
        <path d="M46.4,72.33c2.33,1.34,4.26,3.27,5.62,5.59,1.32-2.25,2.09-4.87,2.1-7.67-2.81,0-5.45.76-7.72,2.08Z"/>
        <path d="M56.25,62.35c-1.32,2.25-2.09,4.87-2.1,7.67,2.81,0,5.45-.76,7.72-2.08-2.33-1.34-4.27-3.27-5.62-5.59Z"/>
        <path d="M54.15,70.25c.02,2.79.78,5.41,2.1,7.67,1.35-2.32,3.29-4.25,5.62-5.59-2.27-1.32-4.91-2.07-7.72-2.08Z"/>
      </g>
      <g>
        <path d="M52.01,78c-1.35,2.32-3.29,4.25-5.62,5.59,2.27,1.32,4.91,2.07,7.72,2.08-.02-2.8-.78-5.42-2.1-7.67Z"/>
        <path d="M46.4,87.98c2.33,1.34,4.26,3.27,5.62,5.59,1.32-2.25,2.09-4.87,2.1-7.67-2.81,0-5.45.76-7.72,2.08Z"/>
        <path d="M56.25,78c-1.32,2.25-2.09,4.87-2.1,7.67,2.81,0,5.45-.76,7.72-2.08-2.33-1.34-4.27-3.27-5.62-5.59Z"/>
        <path d="M54.15,85.9c.02,2.79.78,5.41,2.1,7.67,1.35-2.32,3.29-4.25,5.62-5.59-2.27-1.32-4.91-2.07-7.72-2.08Z"/>
      </g>
      <g>
        <path d="M52.01.19c-1.35,2.32-3.29,4.25-5.62,5.59,2.27,1.32,4.91,2.07,7.72,2.08-.02-2.8-.78-5.42-2.1-7.67Z"/>
        <path d="M46.4,10.17c2.33,1.34,4.26,3.27,5.62,5.59,1.32-2.25,2.09-4.87,2.1-7.67-2.81,0-5.45.76-7.72,2.08Z"/>
        <path d="M56.25.19c-1.32,2.25-2.09,4.87-2.1,7.67,2.81,0,5.45-.76,7.72-2.08-2.33-1.34-4.27-3.27-5.62-5.59Z"/>
        <path d="M54.15,8.09c.02,2.79.78,5.41,2.1,7.67,1.35-2.32,3.29-4.25,5.62-5.59-2.27-1.32-4.91-2.07-7.72-2.08Z"/>
      </g>
      <g>
        <path d="M52.01,15.64c-1.35,2.32-3.29,4.25-5.62,5.59,2.27,1.32,4.91,2.07,7.72,2.08-.02-2.8-.78-5.42-2.1-7.67Z"/>
        <path d="M46.4,25.63c2.33,1.34,4.26,3.27,5.62,5.59,1.32-2.25,2.09-4.87,2.1-7.67-2.81,0-5.45.76-7.72,2.08Z"/>
        <path d="M56.25,15.64c-1.32,2.25-2.09,4.87-2.1,7.67,2.81,0,5.45-.76,7.72-2.08-2.33-1.34-4.27-3.27-5.62-5.59Z"/>
        <path d="M54.15,23.55c.02,2.79.78,5.41,2.1,7.67,1.35-2.32,3.29-4.25,5.62-5.59-2.27-1.32-4.91-2.07-7.72-2.08Z"/>
      </g>
      <g>
        <path d="M52.01,31.29c-1.35,2.32-3.29,4.25-5.62,5.59,2.27,1.32,4.91,2.07,7.72,2.08-.02-2.8-.78-5.42-2.1-7.67Z"/>
        <path d="M46.4,41.28c2.33,1.34,4.26,3.27,5.62,5.59,1.32-2.25,2.09-4.87,2.1-7.67-2.81,0-5.45.76-7.72,2.08Z"/>
        <path d="M56.25,31.29c-1.32,2.25-2.09,4.87-2.1,7.67,2.81,0,5.45-.76,7.72-2.08-2.33-1.34-4.27-3.27-5.62-5.59Z"/>
        <path d="M54.15,39.2c.02,2.79.78,5.41,2.1,7.67,1.35-2.32,3.29-4.25,5.62-5.59-2.27-1.32-4.91-2.07-7.72-2.08Z"/>
      </g>
      <g>
        <path d="M36.53,31.14c-1.35,2.32-3.29,4.25-5.62,5.59,2.27,1.32,4.91,2.07,7.72,2.08-.02-2.8-.78-5.42-2.1-7.67Z"/>
        <path d="M30.91,41.12c2.33,1.34,4.26,3.27,5.62,5.59,1.32-2.25,2.09-4.87,2.1-7.67-2.81,0-5.45.76-7.72,2.08Z"/>
        <path d="M40.77,31.14c-1.32,2.25-2.09,4.87-2.1,7.67,2.81,0,5.45-.76,7.72-2.08-2.33-1.34-4.27-3.27-5.62-5.59Z"/>
        <path d="M38.67,39.04c.02,2.79.78,5.41,2.1,7.67,1.35-2.32,3.29-4.25,5.62-5.59-2.27-1.32-4.91-2.07-7.72-2.08Z"/>
      </g>
      <g>
        <path d="M21.1,31.14c-1.35,2.32-3.29,4.25-5.62,5.59,2.27,1.32,4.91,2.07,7.72,2.08-.02-2.8-.78-5.42-2.1-7.67Z"/>
        <path d="M15.49,41.12c2.33,1.34,4.26,3.27,5.62,5.59,1.32-2.25,2.09-4.87,2.1-7.67-2.81,0-5.45.76-7.72,2.08Z"/>
        <path d="M25.35,31.14c-1.32,2.25-2.09,4.87-2.1,7.67,2.81,0,5.45-.76,7.72-2.08-2.33-1.34-4.27-3.27-5.62-5.59Z"/>
        <path d="M23.24,39.04c.02,2.79.78,5.41,2.1,7.67,1.35-2.32,3.29-4.25,5.62-5.59-2.27-1.32-4.91-2.07-7.72-2.08Z"/>
      </g>
      <g>
        <path d="M36.53.1c-1.35,2.32-3.29,4.25-5.62,5.59,2.27,1.32,4.91,2.07,7.72,2.08-.02-2.8-.78-5.42-2.1-7.67Z"/>
        <path d="M30.91,10.08c2.33,1.34,4.26,3.27,5.62,5.59,1.32-2.25,2.09-4.87,2.1-7.67-2.81,0-5.45.76-7.72,2.08Z"/>
        <path d="M40.77.1c-1.32,2.25-2.09,4.87-2.1,7.67,2.81,0,5.45-.76,7.72-2.08-2.33-1.34-4.27-3.27-5.62-5.59Z"/>
        <path d="M38.67,8.01c.02,2.79.78,5.41,2.1,7.67,1.35-2.32,3.29-4.25,5.62-5.59-2.27-1.32-4.91-2.07-7.72-2.08Z"/>
      </g>
      <g>
        <path d="M21.1.1c-1.35,2.32-3.29,4.25-5.62,5.59,2.27,1.32,4.91,2.07,7.72,2.08-.02-2.8-.78-5.42-2.1-7.67Z"/>
        <path d="M15.49,10.08c2.33,1.34,4.26,3.27,5.62,5.59,1.32-2.25,2.09-4.87,2.1-7.67-2.81,0-5.45.76-7.72,2.08Z"/>
        <path d="M25.35.1c-1.32,2.25-2.09,4.87-2.1,7.67,2.81,0,5.45-.76,7.72-2.08-2.33-1.34-4.27-3.27-5.62-5.59Z"/>
        <path d="M23.24,8.01c.02,2.79.78,5.41,2.1,7.67,1.35-2.32,3.29-4.25,5.62-5.59-2.27-1.32-4.91-2.07-7.72-2.08Z"/>
      </g>
      <g>
        <path d="M5.62,0C4.26,2.32,2.33,4.25,0,5.59c2.27,1.32,4.91,2.07,7.72,2.08-.02-2.8-.78-5.42-2.1-7.67Z"/>
        <path d="M0,9.98c2.33,1.34,4.26,3.27,5.62,5.59,1.32-2.25,2.09-4.87,2.1-7.67C4.91,7.91,2.27,8.66,0,9.98Z"/>
        <path d="M9.86,0c-1.32,2.25-2.09,4.87-2.1,7.67,2.81,0,5.45-.76,7.72-2.08C13.15,4.25,11.2,2.32,9.86,0Z"/>
        <path d="M7.76,7.91c.02,2.79.78,5.41,2.1,7.67,1.35-2.32,3.29-4.25,5.62-5.59-2.27-1.32-4.91-2.07-7.72-2.08Z"/>
      </g>
      <g>
        <path d="M5.62,15.65C4.26,17.97,2.33,19.9,0,21.24c2.27,1.32,4.91,2.07,7.72,2.08-.02-2.8-.78-5.42-2.1-7.67Z"/>
        <path d="M0,25.63c2.33,1.34,4.26,3.27,5.62,5.59,1.32-2.25,2.09-4.87,2.1-7.67C4.91,23.56,2.27,24.31,0,25.63Z"/>
        <path d="M9.86,15.65c-1.32,2.25-2.09,4.87-2.1,7.67,2.81,0,5.45-.76,7.72-2.08-2.33-1.34-4.27-3.27-5.62-5.59Z"/>
        <path d="M7.76,23.56c.02,2.79.78,5.41,2.1,7.67,1.35-2.32,3.29-4.25,5.62-5.59-2.27-1.32-4.91-2.07-7.72-2.08Z"/>
      </g>
      <g>
        <path d="M5.62,31.15C4.26,33.47,2.33,35.4,0,36.74c2.27,1.32,4.91,2.07,7.72,2.08-.02-2.8-.78-5.42-2.1-7.67Z"/>
        <path d="M0,41.13c2.33,1.34,4.26,3.27,5.62,5.59,1.32-2.25,2.09-4.87,2.1-7.67-2.81,0-5.45.76-7.72,2.08Z"/>
        <path d="M9.86,31.15c-1.32,2.25-2.09,4.87-2.1,7.67,2.81,0,5.45-.76,7.72-2.08-2.33-1.34-4.27-3.27-5.62-5.59Z"/>
        <path d="M7.76,39.06c.02,2.79.78,5.41,2.1,7.67,1.35-2.32,3.29-4.25,5.62-5.59-2.27-1.32-4.91-2.07-7.72-2.08Z"/>
      </g>
    </g>
  </g>
</svg>