<?xml version="1.0" encoding="UTF-8"?>
<svg id="_레이어_2" data-name="레이어 2" xmlns="http://www.w3.org/2000/svg" viewBox="0 0 61.99 62.28">
  <g id="_레이어_1-2" data-name="레이어 1">
    <g>
      <g>
        <path d="M5.62,31.25C4.26,33.57,2.33,35.5,0,36.84c2.27,1.32,4.91,2.07,7.72,2.08-.02-2.8-.78-5.42-2.1-7.67Z"/>
        <path d="M0,41.23c2.33,1.34,4.26,3.27,5.62,5.59,1.32-2.25,2.09-4.87,2.1-7.67C4.91,39.16,2.27,39.91,0,41.23Z"/>
        <path d="M9.86,31.25c-1.32,2.25-2.09,4.87-2.1,7.67,2.81,0,5.45-.76,7.72-2.08-2.33-1.34-4.27-3.27-5.62-5.59Z"/>
        <path d="M7.76,39.15c.02,2.79.78,5.41,2.1,7.67,1.35-2.32,3.29-4.25,5.62-5.59-2.27-1.32-4.91-2.07-7.72-2.08Z"/>
      </g>
      <g>
        <path d="M5.62,46.7C4.26,49.03,2.33,50.96,0,52.3c2.27,1.32,4.91,2.07,7.72,2.08-.02-2.8-.78-5.42-2.1-7.67Z"/>
        <path d="M0,56.69c2.33,1.34,4.26,3.27,5.62,5.59,1.32-2.25,2.09-4.87,2.1-7.67-2.81,0-5.45.76-7.72,2.08Z"/>
        <path d="M9.86,46.7c-1.32,2.25-2.09,4.87-2.1,7.67,2.81,0,5.45-.76,7.72-2.08-2.33-1.34-4.27-3.27-5.62-5.59Z"/>
        <path d="M7.76,54.61c.02,2.79.78,5.41,2.1,7.67,1.35-2.32,3.29-4.25,5.62-5.59-2.27-1.32-4.91-2.07-7.72-2.08Z"/>
      </g>
      <g>
        <path d="M21.03,15.77c-1.35,2.32-3.29,4.25-5.62,5.59,2.27,1.32,4.91,2.07,7.72,2.08-.02-2.8-.78-5.42-2.1-7.67Z"/>
        <path d="M15.41,25.75c2.33,1.34,4.26,3.27,5.62,5.59,1.32-2.25,2.09-4.87,2.1-7.67-2.81,0-5.45.76-7.72,2.08Z"/>
        <path d="M25.27,15.77c-1.32,2.25-2.09,4.87-2.1,7.67,2.81,0,5.45-.76,7.72-2.08-2.33-1.34-4.27-3.27-5.62-5.59Z"/>
        <path d="M23.17,23.67c.02,2.79.78,5.41,2.1,7.67,1.35-2.32,3.29-4.25,5.62-5.59-2.27-1.32-4.91-2.07-7.72-2.08Z"/>
      </g>
      <g>
        <path d="M36.5.14c-1.35,2.32-3.29,4.25-5.62,5.59,2.27,1.32,4.91,2.07,7.72,2.08-.02-2.8-.78-5.42-2.1-7.67Z"/>
        <path d="M30.88,10.12c2.33,1.34,4.26,3.27,5.62,5.59,1.32-2.25,2.09-4.87,2.1-7.67-2.81,0-5.45.76-7.72,2.08Z"/>
        <path d="M40.74.14c-1.32,2.25-2.09,4.87-2.1,7.67,2.81,0,5.45-.76,7.72-2.08-2.33-1.34-4.27-3.27-5.62-5.59Z"/>
        <path d="M38.64,8.04c.02,2.79.78,5.41,2.1,7.67,1.35-2.32,3.29-4.25,5.62-5.59-2.27-1.32-4.91-2.07-7.72-2.08Z"/>
      </g>
      <g>
        <path d="M52.13.06c-1.35,2.32-3.29,4.25-5.62,5.59,2.27,1.32,4.91,2.07,7.72,2.08-.02-2.8-.78-5.42-2.1-7.67Z"/>
        <path d="M46.51,10.04c2.33,1.34,4.26,3.27,5.62,5.59,1.32-2.25,2.09-4.87,2.1-7.67-2.81,0-5.45.76-7.72,2.08Z"/>
        <path d="M56.37.06c-1.32,2.25-2.09,4.87-2.1,7.67,2.81,0,5.45-.76,7.72-2.08-2.33-1.34-4.27-3.27-5.62-5.59Z"/>
        <path d="M54.27,7.97c.02,2.79.78,5.41,2.1,7.67,1.35-2.32,3.29-4.25,5.62-5.59-2.27-1.32-4.91-2.07-7.72-2.08Z"/>
      </g>
      <g>
        <path d="M5.62,0C4.26,2.32,2.33,4.25,0,5.59c2.27,1.32,4.91,2.07,7.72,2.08-.02-2.8-.78-5.42-2.1-7.67Z"/>
        <path d="M0,9.98c2.33,1.34,4.26,3.27,5.62,5.59,1.32-2.25,2.09-4.87,2.1-7.67C4.91,7.91,2.27,8.66,0,9.98Z"/>
        <path d="M9.86,0c-1.32,2.25-2.09,4.87-2.1,7.67,2.81,0,5.45-.76,7.72-2.08C13.15,4.25,11.2,2.32,9.86,0Z"/>
        <path d="M7.76,7.91c.02,2.79.78,5.41,2.1,7.67,1.35-2.32,3.29-4.25,5.62-5.59-2.27-1.32-4.91-2.07-7.72-2.08Z"/>
      </g>
      <g>
        <path d="M5.62,15.65C4.26,17.97,2.33,19.9,0,21.24c2.27,1.32,4.91,2.07,7.72,2.08-.02-2.8-.78-5.42-2.1-7.67Z"/>
        <path d="M0,25.63c2.33,1.34,4.26,3.27,5.62,5.59,1.32-2.25,2.09-4.87,2.1-7.67C4.91,23.56,2.27,24.31,0,25.63Z"/>
        <path d="M9.86,15.65c-1.32,2.25-2.09,4.87-2.1,7.67,2.81,0,5.45-.76,7.72-2.08-2.33-1.34-4.27-3.27-5.62-5.59Z"/>
        <path d="M7.76,23.56c.02,2.79.78,5.41,2.1,7.67,1.35-2.32,3.29-4.25,5.62-5.59-2.27-1.32-4.91-2.07-7.72-2.08Z"/>
      </g>
    </g>
  </g>
</svg>