<?xml version="1.0" encoding="UTF-8"?>
<svg id="_레이어_2" data-name="레이어 2" xmlns="http://www.w3.org/2000/svg" viewBox="0 0 61.99 77.93">
  <g id="_레이어_1-2" data-name="레이어 1">
    <g>
      <g>
        <path d="M5.62,0C4.26,2.32,2.33,4.25,0,5.59c2.27,1.32,4.91,2.07,7.72,2.08-.02-2.8-.78-5.42-2.1-7.67Z"/>
        <path d="M0,9.98c2.33,1.34,4.26,3.27,5.62,5.59,1.32-2.25,2.09-4.87,2.1-7.67-2.81,0-5.45.76-7.72,2.08Z"/>
        <path d="M9.86,0c-1.32,2.25-2.09,4.87-2.1,7.67,2.81,0,5.45-.76,7.72-2.08C13.15,4.25,11.2,2.32,9.86,0Z"/>
        <path d="M7.76,7.91c.02,2.79.78,5.41,2.1,7.67,1.35-2.32,3.29-4.25,5.62-5.59-2.27-1.32-4.91-2.07-7.72-2.08Z"/>
      </g>
      <g>
        <path d="M21.25.12c-1.35,2.32-3.29,4.25-5.62,5.59,2.27,1.32,4.91,2.07,7.72,2.08-.02-2.8-.78-5.42-2.1-7.67Z"/>
        <path d="M15.63,10.1c2.33,1.34,4.26,3.27,5.62,5.59,1.32-2.25,2.09-4.87,2.1-7.67-2.81,0-5.45.76-7.72,2.08Z"/>
        <path d="M25.49.12c-1.32,2.25-2.09,4.87-2.1,7.67,2.81,0,5.45-.76,7.72-2.08-2.33-1.34-4.27-3.27-5.62-5.59Z"/>
        <path d="M23.39,8.02c.02,2.79.78,5.41,2.1,7.67,1.35-2.32,3.29-4.25,5.62-5.59-2.27-1.32-4.91-2.07-7.72-2.08Z"/>
      </g>
      <g>
        <path d="M36.68.12c-1.35,2.32-3.29,4.25-5.62,5.59,2.27,1.32,4.91,2.07,7.72,2.08-.02-2.8-.78-5.42-2.1-7.67Z"/>
        <path d="M31.07,10.1c2.33,1.34,4.26,3.27,5.62,5.59,1.32-2.25,2.09-4.87,2.1-7.67-2.81,0-5.45.76-7.72,2.08Z"/>
        <path d="M40.93.12c-1.32,2.25-2.09,4.87-2.1,7.67,2.81,0,5.45-.76,7.72-2.08-2.33-1.34-4.27-3.27-5.62-5.59Z"/>
        <path d="M38.82,8.02c.02,2.79.78,5.41,2.1,7.67,1.35-2.32,3.29-4.25,5.62-5.59-2.27-1.32-4.91-2.07-7.72-2.08Z"/>
      </g>
      <g>
        <path d="M52.13.12c-1.35,2.32-3.29,4.25-5.62,5.59,2.27,1.32,4.91,2.07,7.72,2.08-.02-2.8-.78-5.42-2.1-7.67Z"/>
        <path d="M46.51,10.1c2.33,1.34,4.26,3.27,5.62,5.59,1.32-2.25,2.09-4.87,2.1-7.67-2.81,0-5.45.76-7.72,2.08Z"/>
        <path d="M56.37.12c-1.32,2.25-2.09,4.87-2.1,7.67,2.81,0,5.45-.76,7.72-2.08-2.33-1.34-4.27-3.27-5.62-5.59Z"/>
        <path d="M54.27,8.03c.02,2.79.78,5.41,2.1,7.67,1.35-2.32,3.29-4.25,5.62-5.59-2.27-1.32-4.91-2.07-7.72-2.08Z"/>
      </g>
      <g>
        <path d="M5.62,62.24C4.26,64.56,2.33,66.5,0,67.84c2.27,1.32,4.91,2.07,7.72,2.08-.02-2.8-.78-5.42-2.1-7.67Z"/>
        <path d="M0,72.22c2.33,1.34,4.26,3.27,5.62,5.59,1.32-2.25,2.09-4.87,2.1-7.67-2.81,0-5.45.76-7.72,2.08Z"/>
        <path d="M9.86,62.24c-1.32,2.25-2.09,4.87-2.1,7.67,2.81,0,5.45-.76,7.72-2.08-2.33-1.34-4.27-3.27-5.62-5.59Z"/>
        <path d="M7.76,70.15c.02,2.79.78,5.41,2.1,7.67,1.35-2.32,3.29-4.25,5.62-5.59-2.27-1.32-4.91-2.07-7.72-2.08Z"/>
      </g>
      <g>
        <path d="M21.25,62.36c-1.35,2.32-3.29,4.25-5.62,5.59,2.27,1.32,4.91,2.07,7.72,2.08-.02-2.8-.78-5.42-2.1-7.67Z"/>
        <path d="M15.63,72.34c2.33,1.34,4.26,3.27,5.62,5.59,1.32-2.25,2.09-4.87,2.1-7.67-2.81,0-5.45.76-7.72,2.08Z"/>
        <path d="M25.49,62.36c-1.32,2.25-2.09,4.87-2.1,7.67,2.81,0,5.45-.76,7.72-2.08-2.33-1.34-4.27-3.27-5.62-5.59Z"/>
        <path d="M23.39,70.26c.02,2.79.78,5.41,2.1,7.67,1.35-2.32,3.29-4.25,5.62-5.59-2.27-1.32-4.91-2.07-7.72-2.08Z"/>
      </g>
      <g>
        <path d="M36.68,62.36c-1.35,2.32-3.29,4.25-5.62,5.59,2.27,1.32,4.91,2.07,7.72,2.08-.02-2.8-.78-5.42-2.1-7.67Z"/>
        <path d="M31.07,72.34c2.33,1.34,4.26,3.27,5.62,5.59,1.32-2.25,2.09-4.87,2.1-7.67-2.81,0-5.45.76-7.72,2.08Z"/>
        <path d="M40.93,62.36c-1.32,2.25-2.09,4.87-2.1,7.67,2.81,0,5.45-.76,7.72-2.08-2.33-1.34-4.27-3.27-5.62-5.59Z"/>
        <path d="M38.82,70.26c.02,2.79.78,5.41,2.1,7.67,1.35-2.32,3.29-4.25,5.62-5.59-2.27-1.32-4.91-2.07-7.72-2.08Z"/>
      </g>
      <g>
        <path d="M5.62,31.09C4.26,33.42,2.33,35.35,0,36.69c2.27,1.32,4.91,2.07,7.72,2.08-.02-2.8-.78-5.42-2.1-7.67Z"/>
        <path d="M0,41.08c2.33,1.34,4.26,3.27,5.62,5.59,1.32-2.25,2.09-4.87,2.1-7.67-2.81,0-5.45.76-7.72,2.08Z"/>
        <path d="M9.86,31.09c-1.32,2.25-2.09,4.87-2.1,7.67,2.81,0,5.45-.76,7.72-2.08-2.33-1.34-4.27-3.27-5.62-5.59Z"/>
        <path d="M7.76,39c.02,2.79.78,5.41,2.1,7.67,1.35-2.32,3.29-4.25,5.62-5.59-2.27-1.32-4.91-2.07-7.72-2.08Z"/>
      </g>
      <g>
        <path d="M5.62,15.52C4.26,17.84,2.33,19.78,0,21.12c2.27,1.32,4.91,2.07,7.72,2.08-.02-2.8-.78-5.42-2.1-7.67Z"/>
        <path d="M0,25.5c2.33,1.34,4.26,3.27,5.62,5.59,1.32-2.25,2.09-4.87,2.1-7.67-2.81,0-5.45.76-7.72,2.08Z"/>
        <path d="M9.86,15.52c-1.32,2.25-2.09,4.87-2.1,7.67,2.81,0,5.45-.76,7.72-2.08-2.33-1.34-4.27-3.27-5.62-5.59Z"/>
        <path d="M7.76,23.43c.02,2.79.78,5.41,2.1,7.67,1.35-2.32,3.29-4.25,5.62-5.59-2.27-1.32-4.91-2.07-7.72-2.08Z"/>
      </g>
      <g>
        <path d="M21.25,31.21c-1.35,2.32-3.29,4.25-5.62,5.59,2.27,1.32,4.91,2.07,7.72,2.08-.02-2.8-.78-5.42-2.1-7.67Z"/>
        <path d="M15.63,41.2c2.33,1.34,4.26,3.27,5.62,5.59,1.32-2.25,2.09-4.87,2.1-7.67-2.81,0-5.45.76-7.72,2.08Z"/>
        <path d="M25.49,31.21c-1.32,2.25-2.09,4.87-2.1,7.67,2.81,0,5.45-.76,7.72-2.08-2.33-1.34-4.27-3.27-5.62-5.59Z"/>
        <path d="M23.39,39.12c.02,2.79.78,5.41,2.1,7.67,1.35-2.32,3.29-4.25,5.62-5.59-2.27-1.32-4.91-2.07-7.72-2.08Z"/>
      </g>
      <g>
        <path d="M36.68,31.21c-1.35,2.32-3.29,4.25-5.62,5.59,2.27,1.32,4.91,2.07,7.72,2.08-.02-2.8-.78-5.42-2.1-7.67Z"/>
        <path d="M31.07,41.2c2.33,1.34,4.26,3.27,5.62,5.59,1.32-2.25,2.09-4.87,2.1-7.67-2.81,0-5.45.76-7.72,2.08Z"/>
        <path d="M40.93,31.21c-1.32,2.25-2.09,4.87-2.1,7.67,2.81,0,5.45-.76,7.72-2.08-2.33-1.34-4.27-3.27-5.62-5.59Z"/>
        <path d="M38.82,39.12c.02,2.79.78,5.41,2.1,7.67,1.35-2.32,3.29-4.25,5.62-5.59-2.27-1.32-4.91-2.07-7.72-2.08Z"/>
      </g>
      <g>
        <path d="M52.13,62.36c-1.35,2.32-3.29,4.25-5.62,5.59,2.27,1.32,4.91,2.07,7.72,2.08-.02-2.8-.78-5.42-2.1-7.67Z"/>
        <path d="M46.51,72.34c2.33,1.34,4.26,3.27,5.62,5.59,1.32-2.25,2.09-4.87,2.1-7.67-2.81,0-5.45.76-7.72,2.08Z"/>
        <path d="M56.37,62.36c-1.32,2.25-2.09,4.87-2.1,7.67,2.81,0,5.45-.76,7.72-2.08-2.33-1.34-4.27-3.27-5.62-5.59Z"/>
        <path d="M54.27,70.27c.02,2.79.78,5.41,2.1,7.67,1.35-2.32,3.29-4.25,5.62-5.59-2.27-1.32-4.91-2.07-7.72-2.08Z"/>
      </g>
      <g>
        <path d="M52.13,46.88c-1.35,2.32-3.29,4.25-5.62,5.59,2.27,1.32,4.91,2.07,7.72,2.08-.02-2.8-.78-5.42-2.1-7.67Z"/>
        <path d="M46.51,56.87c2.33,1.34,4.26,3.27,5.62,5.59,1.32-2.25,2.09-4.87,2.1-7.67-2.81,0-5.45.76-7.72,2.08Z"/>
        <path d="M56.37,46.88c-1.32,2.25-2.09,4.87-2.1,7.67,2.81,0,5.45-.76,7.72-2.08-2.33-1.34-4.27-3.27-5.62-5.59Z"/>
        <path d="M54.27,54.79c.02,2.79.78,5.41,2.1,7.67,1.35-2.32,3.29-4.25,5.62-5.59-2.27-1.32-4.91-2.07-7.72-2.08Z"/>
      </g>
      <g>
        <path d="M52.13,31.31c-1.35,2.32-3.29,4.25-5.62,5.59,2.27,1.32,4.91,2.07,7.72,2.08-.02-2.8-.78-5.42-2.1-7.67Z"/>
        <path d="M46.51,41.3c2.33,1.34,4.26,3.27,5.62,5.59,1.32-2.25,2.09-4.87,2.1-7.67-2.81,0-5.45.76-7.72,2.08Z"/>
        <path d="M56.37,31.31c-1.32,2.25-2.09,4.87-2.1,7.67,2.81,0,5.45-.76,7.72-2.08-2.33-1.34-4.27-3.27-5.62-5.59Z"/>
        <path d="M54.27,39.22c.02,2.79.78,5.41,2.1,7.67,1.35-2.32,3.29-4.25,5.62-5.59-2.27-1.32-4.91-2.07-7.72-2.08Z"/>
      </g>
    </g>
  </g>
</svg>