<?xml version="1.0" encoding="UTF-8"?>
<svg id="_레이어_2" data-name="레이어 2" xmlns="http://www.w3.org/2000/svg" viewBox="0 0 46.55 92.9">
  <g id="_레이어_1-2" data-name="레이어 1">
    <g>
      <g>
        <path d="M21.08,46.22c-1.35,2.32-3.29,4.25-5.62,5.59,2.27,1.32,4.91,2.07,7.72,2.08-.02-2.8-.78-5.42-2.1-7.67Z"/>
        <path d="M15.46,56.2c2.33,1.34,4.26,3.27,5.62,5.59,1.32-2.25,2.09-4.87,2.1-7.67-2.81,0-5.45.76-7.72,2.08Z"/>
        <path d="M25.32,46.22c-1.32,2.25-2.09,4.87-2.1,7.67,2.81,0,5.45-.76,7.72-2.08-2.33-1.34-4.27-3.27-5.62-5.59Z"/>
        <path d="M23.22,54.12c.02,2.79.78,5.41,2.1,7.67,1.35-2.32,3.29-4.25,5.62-5.59-2.27-1.32-4.91-2.07-7.72-2.08Z"/>
      </g>
      <g>
        <path d="M21.08,61.67c-1.35,2.32-3.29,4.25-5.62,5.59,2.27,1.32,4.91,2.07,7.72,2.08-.02-2.8-.78-5.42-2.1-7.67Z"/>
        <path d="M15.46,71.66c2.33,1.34,4.26,3.27,5.62,5.59,1.32-2.25,2.09-4.87,2.1-7.67-2.81,0-5.45.76-7.72,2.08Z"/>
        <path d="M25.32,61.67c-1.32,2.25-2.09,4.87-2.1,7.67,2.81,0,5.45-.76,7.72-2.08-2.33-1.34-4.27-3.27-5.62-5.59Z"/>
        <path d="M23.22,69.58c.02,2.79.78,5.41,2.1,7.67,1.35-2.32,3.29-4.25,5.62-5.59-2.27-1.32-4.91-2.07-7.72-2.08Z"/>
      </g>
      <g>
        <path d="M21.08,77.32c-1.35,2.32-3.29,4.25-5.62,5.59,2.27,1.32,4.91,2.07,7.72,2.08-.02-2.8-.78-5.42-2.1-7.67Z"/>
        <path d="M15.46,87.31c2.33,1.34,4.26,3.27,5.62,5.59,1.32-2.25,2.09-4.87,2.1-7.67-2.81,0-5.45.76-7.72,2.08Z"/>
        <path d="M25.32,77.32c-1.32,2.25-2.09,4.87-2.1,7.67,2.81,0,5.45-.76,7.72-2.08-2.33-1.34-4.27-3.27-5.62-5.59Z"/>
        <path d="M23.22,85.23c.02,2.79.78,5.41,2.1,7.67,1.35-2.32,3.29-4.25,5.62-5.59-2.27-1.32-4.91-2.07-7.72-2.08Z"/>
      </g>
      <g>
        <path d="M21.43,0c-1.35,2.32-3.29,4.25-5.62,5.59,2.27,1.32,4.91,2.07,7.72,2.08-.02-2.8-.78-5.42-2.1-7.67Z"/>
        <path d="M15.82,9.98c2.33,1.34,4.26,3.27,5.62,5.59,1.32-2.25,2.09-4.87,2.1-7.67-2.81,0-5.45.76-7.72,2.08Z"/>
        <path d="M25.68,0c-1.32,2.25-2.09,4.87-2.1,7.67,2.81,0,5.45-.76,7.72-2.08C28.96,4.25,27.02,2.32,25.68,0Z"/>
        <path d="M23.57,7.91c.02,2.79.78,5.41,2.1,7.67,1.35-2.32,3.29-4.25,5.62-5.59-2.27-1.32-4.91-2.07-7.72-2.08Z"/>
      </g>
      <g>
        <path d="M21.08,14.97c-1.35,2.32-3.29,4.25-5.62,5.59,2.27,1.32,4.91,2.07,7.72,2.08-.02-2.8-.78-5.42-2.1-7.67Z"/>
        <path d="M15.46,24.95c2.33,1.34,4.26,3.27,5.62,5.59,1.32-2.25,2.09-4.87,2.1-7.67-2.81,0-5.45.76-7.72,2.08Z"/>
        <path d="M25.32,14.97c-1.32,2.25-2.09,4.87-2.1,7.67,2.81,0,5.45-.76,7.72-2.08-2.33-1.34-4.27-3.27-5.62-5.59Z"/>
        <path d="M23.22,22.88c.02,2.79.78,5.41,2.1,7.67,1.35-2.32,3.29-4.25,5.62-5.59-2.27-1.32-4.91-2.07-7.72-2.08Z"/>
      </g>
      <g>
        <path d="M21.08,30.62c-1.35,2.32-3.29,4.25-5.62,5.59,2.27,1.32,4.91,2.07,7.72,2.08-.02-2.8-.78-5.42-2.1-7.67Z"/>
        <path d="M15.46,40.6c2.33,1.34,4.26,3.27,5.62,5.59,1.32-2.25,2.09-4.87,2.1-7.67-2.81,0-5.45.76-7.72,2.08Z"/>
        <path d="M25.32,30.62c-1.32,2.25-2.09,4.87-2.1,7.67,2.81,0,5.45-.76,7.72-2.08-2.33-1.34-4.27-3.27-5.62-5.59Z"/>
        <path d="M23.22,38.53c.02,2.79.78,5.41,2.1,7.67,1.35-2.32,3.29-4.25,5.62-5.59-2.27-1.32-4.91-2.07-7.72-2.08Z"/>
      </g>
      <g>
        <path d="M5.62,30.62C4.26,32.94,2.33,34.87,0,36.21c2.27,1.32,4.91,2.07,7.72,2.08-.02-2.8-.78-5.42-2.1-7.67Z"/>
        <path d="M0,40.6c2.33,1.34,4.26,3.27,5.62,5.59,1.32-2.25,2.09-4.87,2.1-7.67-2.81,0-5.45.76-7.72,2.08Z"/>
        <path d="M9.86,30.62c-1.32,2.25-2.09,4.87-2.1,7.67,2.81,0,5.45-.76,7.72-2.08-2.33-1.34-4.27-3.27-5.62-5.59Z"/>
        <path d="M7.76,38.53c.02,2.79.78,5.41,2.1,7.67,1.35-2.32,3.29-4.25,5.62-5.59-2.27-1.32-4.91-2.07-7.72-2.08Z"/>
      </g>
      <g>
        <path d="M36.69,30.62c-1.35,2.32-3.29,4.25-5.62,5.59,2.27,1.32,4.91,2.07,7.72,2.08-.02-2.8-.78-5.42-2.1-7.67Z"/>
        <path d="M31.07,40.6c2.33,1.34,4.26,3.27,5.62,5.59,1.32-2.25,2.09-4.87,2.1-7.67-2.81,0-5.45.76-7.72,2.08Z"/>
        <path d="M40.93,30.62c-1.32,2.25-2.09,4.87-2.1,7.67,2.81,0,5.45-.76,7.72-2.08-2.33-1.34-4.27-3.27-5.62-5.59Z"/>
        <path d="M38.83,38.53c.02,2.79.78,5.41,2.1,7.67,1.35-2.32,3.29-4.25,5.62-5.59-2.27-1.32-4.91-2.07-7.72-2.08Z"/>
      </g>
    </g>
  </g>
</svg>