<?xml version="1.0" encoding="UTF-8"?>
<svg id="_레이어_2" data-name="레이어 2" xmlns="http://www.w3.org/2000/svg" viewBox="0 0 61.86 62.18">
  <g id="_레이어_1-2" data-name="레이어 1">
    <g>
      <g>
        <path d="M5.62,62.18c-1.35-2.32-3.29-4.25-5.62-5.59,2.27-1.32,4.91-2.07,7.72-2.08-.02,2.8-.78,5.42-2.1,7.67Z"/>
        <path d="M0,52.2c2.33-1.34,4.26-3.27,5.62-5.59,1.32,2.25,2.09,4.87,2.1,7.67-2.81,0-5.45-.76-7.72-2.08Z"/>
        <path d="M9.86,62.18c-1.32-2.25-2.09-4.87-2.1-7.67,2.81,0,5.45.76,7.72,2.08-2.33,1.34-4.27,3.27-5.62,5.59Z"/>
        <path d="M7.76,54.28c.02-2.79.78-5.41,2.1-7.67,1.35,2.32,3.29,4.25,5.62,5.59-2.27,1.32-4.91,2.07-7.72,2.08Z"/>
      </g>
      <g>
        <path d="M5.62,46.72c-1.35-2.32-3.29-4.25-5.62-5.59,2.27-1.32,4.91-2.07,7.72-2.08-.02,2.8-.78,5.42-2.1,7.67Z"/>
        <path d="M0,36.74c2.33-1.34,4.26-3.27,5.62-5.59,1.32,2.25,2.09,4.87,2.1,7.67-2.81,0-5.45-.76-7.72-2.08Z"/>
        <path d="M9.86,46.72c-1.32-2.25-2.09-4.87-2.1-7.67,2.81,0,5.45.76,7.72,2.08-2.33,1.34-4.27,3.27-5.62,5.59Z"/>
        <path d="M7.76,38.82c.02-2.79.78-5.41,2.1-7.67,1.35,2.32,3.29,4.25,5.62,5.59-2.27,1.32-4.91,2.07-7.72,2.08Z"/>
      </g>
      <g>
        <path d="M5.62,31.07c-1.35-2.32-3.29-4.25-5.62-5.59,2.27-1.32,4.91-2.07,7.72-2.08-.02,2.8-.78,5.42-2.1,7.67Z"/>
        <path d="M0,21.09c2.33-1.34,4.26-3.27,5.62-5.59,1.32,2.25,2.09,4.87,2.1,7.67-2.81,0-5.45-.76-7.72-2.08Z"/>
        <path d="M9.86,31.07c-1.32-2.25-2.09-4.87-2.1-7.67,2.81,0,5.45.76,7.72,2.08-2.33,1.34-4.27,3.27-5.62,5.59Z"/>
        <path d="M7.76,23.17c.02-2.79.78-5.41,2.1-7.67,1.35,2.32,3.29,4.25,5.62,5.59-2.27,1.32-4.91,2.07-7.72,2.08Z"/>
      </g>
      <g>
        <path d="M20.93,62.18c-1.35-2.32-3.29-4.25-5.62-5.59,2.27-1.32,4.91-2.07,7.72-2.08-.02,2.8-.78,5.42-2.1,7.67Z"/>
        <path d="M15.32,52.2c2.33-1.34,4.26-3.27,5.62-5.59,1.32,2.25,2.09,4.87,2.1,7.67-2.81,0-5.45-.76-7.72-2.08Z"/>
        <path d="M25.17,62.18c-1.32-2.25-2.09-4.87-2.1-7.67,2.81,0,5.45.76,7.72,2.08-2.33,1.34-4.27,3.27-5.62,5.59Z"/>
        <path d="M23.07,54.28c.02-2.79.78-5.41,2.1-7.67,1.35,2.32,3.29,4.25,5.62,5.59-2.27,1.32-4.91,2.07-7.72,2.08Z"/>
      </g>
      <g>
        <path d="M5.62,15.57c-1.35-2.32-3.29-4.25-5.62-5.59,2.27-1.32,4.91-2.07,7.72-2.08-.02,2.8-.78,5.42-2.1,7.67Z"/>
        <path d="M0,5.59C2.33,4.25,4.26,2.32,5.62,0c1.32,2.25,2.09,4.87,2.1,7.67-2.81,0-5.45-.76-7.72-2.08Z"/>
        <path d="M9.86,15.57c-1.32-2.25-2.09-4.87-2.1-7.67,2.81,0,5.45.76,7.72,2.08-2.33,1.34-4.27,3.27-5.62,5.59Z"/>
        <path d="M7.76,7.67c.02-2.79.78-5.41,2.1-7.67,1.35,2.32,3.29,4.25,5.62,5.59-2.27,1.32-4.91,2.07-7.72,2.08Z"/>
      </g>
      <g>
        <path d="M52,62.18c-1.35-2.32-3.29-4.25-5.62-5.59,2.27-1.32,4.91-2.07,7.72-2.08-.02,2.8-.78,5.42-2.1,7.67Z"/>
        <path d="M46.39,52.2c2.33-1.34,4.26-3.27,5.62-5.59,1.32,2.25,2.09,4.87,2.1,7.67-2.81,0-5.45-.76-7.72-2.08Z"/>
        <path d="M56.25,62.18c-1.32-2.25-2.09-4.87-2.1-7.67,2.81,0,5.45.76,7.72,2.08-2.33,1.34-4.27,3.27-5.62,5.59Z"/>
        <path d="M54.14,54.28c.02-2.79.78-5.41,2.1-7.67,1.35,2.32,3.29,4.25,5.62,5.59-2.27,1.32-4.91,2.07-7.72,2.08Z"/>
      </g>
      <g>
        <path d="M52,46.72c-1.35-2.32-3.29-4.25-5.62-5.59,2.27-1.32,4.91-2.07,7.72-2.08-.02,2.8-.78,5.42-2.1,7.67Z"/>
        <path d="M46.39,36.74c2.33-1.34,4.26-3.27,5.62-5.59,1.32,2.25,2.09,4.87,2.1,7.67-2.81,0-5.45-.76-7.72-2.08Z"/>
        <path d="M56.25,46.72c-1.32-2.25-2.09-4.87-2.1-7.67,2.81,0,5.45.76,7.72,2.08-2.33,1.34-4.27,3.27-5.62,5.59Z"/>
        <path d="M54.14,38.82c.02-2.79.78-5.41,2.1-7.67,1.35,2.32,3.29,4.25,5.62,5.59-2.27,1.32-4.91,2.07-7.72,2.08Z"/>
      </g>
      <g>
        <path d="M52,31.07c-1.35-2.32-3.29-4.25-5.62-5.59,2.27-1.32,4.91-2.07,7.72-2.08-.02,2.8-.78,5.42-2.1,7.67Z"/>
        <path d="M46.39,21.09c2.33-1.34,4.26-3.27,5.62-5.59,1.32,2.25,2.09,4.87,2.1,7.67-2.81,0-5.45-.76-7.72-2.08Z"/>
        <path d="M56.25,31.07c-1.32-2.25-2.09-4.87-2.1-7.67,2.81,0,5.45.76,7.72,2.08-2.33,1.34-4.27,3.27-5.62,5.59Z"/>
        <path d="M54.14,23.17c.02-2.79.78-5.41,2.1-7.67,1.35,2.32,3.29,4.25,5.62,5.59-2.27,1.32-4.91,2.07-7.72,2.08Z"/>
      </g>
      <g>
        <path d="M52,15.57c-1.35-2.32-3.29-4.25-5.62-5.59,2.27-1.32,4.91-2.07,7.72-2.08-.02,2.8-.78,5.42-2.1,7.67Z"/>
        <path d="M46.39,5.59c2.33-1.34,4.26-3.27,5.62-5.59,1.32,2.25,2.09,4.87,2.1,7.67-2.81,0-5.45-.76-7.72-2.08Z"/>
        <path d="M56.25,15.57c-1.32-2.25-2.09-4.87-2.1-7.67,2.81,0,5.45.76,7.72,2.08-2.33,1.34-4.27,3.27-5.62,5.59Z"/>
        <path d="M54.14,7.67c.02-2.79.78-5.41,2.1-7.67,1.35,2.32,3.29,4.25,5.62,5.59-2.27,1.32-4.91,2.07-7.72,2.08Z"/>
      </g>
    </g>
  </g>
</svg>