<?xml version="1.0" encoding="UTF-8"?>
<svg id="_레이어_2" data-name="레이어 2" xmlns="http://www.w3.org/2000/svg" viewBox="0 0 77.53 62.19">
  <g id="_레이어_1-2" data-name="레이어 1">
    <g>
      <g>
        <path d="M5.74,62.19c-1.35-2.32-3.29-4.25-5.62-5.59,2.27-1.32,4.91-2.07,7.72-2.08-.02,2.8-.78,5.42-2.1,7.67Z"/>
        <path d="M.12,52.2c2.33-1.34,4.26-3.27,5.62-5.59,1.32,2.25,2.09,4.87,2.1,7.67-2.81,0-5.45-.76-7.72-2.08Z"/>
        <path d="M9.98,62.19c-1.32-2.25-2.09-4.87-2.1-7.67,2.81,0,5.45.76,7.72,2.08-2.33,1.34-4.27,3.27-5.62,5.59Z"/>
        <path d="M7.88,54.28c.02-2.79.78-5.41,2.1-7.67,1.35,2.32,3.29,4.25,5.62,5.59-2.27,1.32-4.91,2.07-7.72,2.08Z"/>
      </g>
      <g>
        <path d="M21.21,46.55c-1.35-2.32-3.29-4.25-5.62-5.59,2.27-1.32,4.91-2.07,7.72-2.08-.02,2.8-.78,5.42-2.1,7.67Z"/>
        <path d="M15.59,36.56c2.33-1.34,4.26-3.27,5.62-5.59,1.32,2.25,2.09,4.87,2.1,7.67-2.81,0-5.45-.76-7.72-2.08Z"/>
        <path d="M25.45,46.55c-1.32-2.25-2.09-4.87-2.1-7.67,2.81,0,5.45.76,7.72,2.08-2.33,1.34-4.27,3.27-5.62,5.59Z"/>
        <path d="M23.35,38.64c.02-2.79.78-5.41,2.1-7.67,1.35,2.32,3.29,4.25,5.62,5.59-2.27,1.32-4.91,2.07-7.72,2.08Z"/>
      </g>
      <g>
        <path d="M71.86,62.19c1.35-2.32,3.29-4.25,5.62-5.59-2.27-1.32-4.91-2.07-7.72-2.08.02,2.8.78,5.42,2.1,7.67Z"/>
        <path d="M77.48,52.2c-2.33-1.34-4.26-3.27-5.62-5.59-1.32,2.25-2.09,4.87-2.1,7.67,2.81,0,5.45-.76,7.72-2.08Z"/>
        <path d="M67.62,62.19c1.32-2.25,2.09-4.87,2.1-7.67-2.81,0-5.45.76-7.72,2.08,2.33,1.34,4.27,3.27,5.62,5.59Z"/>
        <path d="M69.72,54.28c-.02-2.79-.78-5.41-2.1-7.67-1.35,2.32-3.29,4.25-5.62,5.59,2.27,1.32,4.91,2.07,7.72,2.08Z"/>
      </g>
      <g>
        <path d="M56.39,46.55c1.35-2.32,3.29-4.25,5.62-5.59-2.27-1.32-4.91-2.07-7.72-2.08.02,2.8.78,5.42,2.1,7.67Z"/>
        <path d="M62.01,36.56c-2.33-1.34-4.26-3.27-5.62-5.59-1.32,2.25-2.09,4.87-2.1,7.67,2.81,0,5.45-.76,7.72-2.08Z"/>
        <path d="M52.15,46.55c1.32-2.25,2.09-4.87,2.1-7.67-2.81,0-5.45.76-7.72,2.08,2.33,1.34,4.27,3.27,5.62,5.59Z"/>
        <path d="M54.25,38.64c-.02-2.79-.78-5.41-2.1-7.67-1.35,2.32-3.29,4.25-5.62,5.59,2.27,1.32,4.91,2.07,7.72,2.08Z"/>
      </g>
      <g>
        <path d="M36.68,31.2c-1.35-2.32-3.29-4.25-5.62-5.59,2.27-1.32,4.91-2.07,7.72-2.08-.02,2.8-.78,5.42-2.1,7.67Z"/>
        <path d="M31.06,21.22c2.33-1.34,4.26-3.27,5.62-5.59,1.32,2.25,2.09,4.87,2.1,7.67-2.81,0-5.45-.76-7.72-2.08Z"/>
        <path d="M40.92,31.2c-1.32-2.25-2.09-4.87-2.1-7.67,2.81,0,5.45.76,7.72,2.08-2.33,1.34-4.27,3.27-5.62,5.59Z"/>
        <path d="M38.82,23.3c.02-2.79.78-5.41,2.1-7.67,1.35,2.32,3.29,4.25,5.62,5.59-2.27,1.32-4.91,2.07-7.72,2.08Z"/>
      </g>
      <g>
        <path d="M36.68,15.57c-1.35-2.32-3.29-4.25-5.62-5.59,2.27-1.32,4.91-2.07,7.72-2.08-.02,2.8-.78,5.42-2.1,7.67Z"/>
        <path d="M31.06,5.59c2.33-1.34,4.26-3.27,5.62-5.59,1.32,2.25,2.09,4.87,2.1,7.67-2.81,0-5.45-.76-7.72-2.08Z"/>
        <path d="M40.92,15.57c-1.32-2.25-2.09-4.87-2.1-7.67,2.81,0,5.45.76,7.72,2.08-2.33,1.34-4.27,3.27-5.62,5.59Z"/>
        <path d="M38.82,7.67c.02-2.79.78-5.41,2.1-7.67,1.35,2.32,3.29,4.25,5.62,5.59-2.27,1.32-4.91,2.07-7.72,2.08Z"/>
      </g>
      <g>
        <path d="M21.34,15.57c-1.35-2.32-3.29-4.25-5.62-5.59,2.27-1.32,4.91-2.07,7.72-2.08-.02,2.8-.78,5.42-2.1,7.67Z"/>
        <path d="M15.73,5.59c2.33-1.34,4.26-3.27,5.62-5.59,1.32,2.25,2.09,4.87,2.1,7.67-2.81,0-5.45-.76-7.72-2.08Z"/>
        <path d="M25.59,15.57c-1.32-2.25-2.09-4.87-2.1-7.67,2.81,0,5.45.76,7.72,2.08-2.33,1.34-4.27,3.27-5.62,5.59Z"/>
        <path d="M23.48,7.67c.02-2.79.78-5.41,2.1-7.67,1.35,2.32,3.29,4.25,5.62,5.59-2.27,1.32-4.91,2.07-7.72,2.08Z"/>
      </g>
      <g>
        <path d="M5.62,15.57c-1.35-2.32-3.29-4.25-5.62-5.59,2.27-1.32,4.91-2.07,7.72-2.08-.02,2.8-.78,5.42-2.1,7.67Z"/>
        <path d="M0,5.59C2.33,4.25,4.26,2.32,5.62,0c1.32,2.25,2.09,4.87,2.1,7.67-2.81,0-5.45-.76-7.72-2.08Z"/>
        <path d="M9.86,15.57c-1.32-2.25-2.09-4.87-2.1-7.67,2.81,0,5.45.76,7.72,2.08-2.33,1.34-4.27,3.27-5.62,5.59Z"/>
        <path d="M7.76,7.67c.02-2.79.78-5.41,2.1-7.67,1.35,2.32,3.29,4.25,5.62,5.59-2.27,1.32-4.91,2.07-7.72,2.08Z"/>
      </g>
      <g>
        <path d="M67.67,15.57c-1.35-2.32-3.29-4.25-5.62-5.59,2.27-1.32,4.91-2.07,7.72-2.08-.02,2.8-.78,5.42-2.1,7.67Z"/>
        <path d="M62.06,5.59c2.33-1.34,4.26-3.27,5.62-5.59,1.32,2.25,2.09,4.87,2.1,7.67-2.81,0-5.45-.76-7.72-2.08Z"/>
        <path d="M71.92,15.57c-1.32-2.25-2.09-4.87-2.1-7.67,2.81,0,5.45.76,7.72,2.08-2.33,1.34-4.27,3.27-5.62,5.59Z"/>
        <path d="M69.81,7.67c.02-2.79.78-5.41,2.1-7.67,1.35,2.32,3.29,4.25,5.62,5.59-2.27,1.32-4.91,2.07-7.72,2.08Z"/>
      </g>
      <g>
        <path d="M52.25,15.57c-1.35-2.32-3.29-4.25-5.62-5.59,2.27-1.32,4.91-2.07,7.72-2.08-.02,2.8-.78,5.42-2.1,7.67Z"/>
        <path d="M46.64,5.59c2.33-1.34,4.26-3.27,5.62-5.59,1.32,2.25,2.09,4.87,2.1,7.67-2.81,0-5.45-.76-7.72-2.08Z"/>
        <path d="M56.49,15.57c-1.32-2.25-2.09-4.87-2.1-7.67,2.81,0,5.45.76,7.72,2.08-2.33,1.34-4.27,3.27-5.62,5.59Z"/>
        <path d="M54.39,7.67c.02-2.79.78-5.41,2.1-7.67,1.35,2.32,3.29,4.25,5.62,5.59-2.27,1.32-4.91,2.07-7.72,2.08Z"/>
      </g>
    </g>
  </g>
</svg>