<?xml version="1.0" encoding="UTF-8"?>
<svg id="_레이어_2" data-name="레이어 2" xmlns="http://www.w3.org/2000/svg" viewBox="0 0 62.01 77.8">
  <g id="_레이어_1-2" data-name="레이어 1">
    <g>
      <g>
        <path d="M5.62,15.57c-1.35-2.32-3.29-4.25-5.62-5.59,2.27-1.32,4.91-2.07,7.72-2.08-.02,2.8-.78,5.42-2.1,7.67Z"/>
        <path d="M0,5.59C2.33,4.25,4.26,2.32,5.62,0c1.32,2.25,2.09,4.87,2.1,7.67-2.81,0-5.45-.76-7.72-2.08Z"/>
        <path d="M9.86,15.57c-1.32-2.25-2.09-4.87-2.1-7.67,2.81,0,5.45.76,7.72,2.08-2.33,1.34-4.27,3.27-5.62,5.59Z"/>
        <path d="M7.76,7.67c.02-2.79.78-5.41,2.1-7.67,1.35,2.32,3.29,4.25,5.62,5.59-2.27,1.32-4.91,2.07-7.72,2.08Z"/>
      </g>
      <g>
        <path d="M21.04,15.57c-1.35-2.32-3.29-4.25-5.62-5.59,2.27-1.32,4.91-2.07,7.72-2.08-.02,2.8-.78,5.42-2.1,7.67Z"/>
        <path d="M15.43,5.59c2.33-1.34,4.26-3.27,5.62-5.59,1.32,2.25,2.09,4.87,2.1,7.67-2.81,0-5.45-.76-7.72-2.08Z"/>
        <path d="M25.29,15.57c-1.32-2.25-2.09-4.87-2.1-7.67,2.81,0,5.45.76,7.72,2.08-2.33,1.34-4.27,3.27-5.62,5.59Z"/>
        <path d="M23.18,7.67c.02-2.79.78-5.41,2.1-7.67,1.35,2.32,3.29,4.25,5.62,5.59-2.27,1.32-4.91,2.07-7.72,2.08Z"/>
      </g>
      <g>
        <path d="M36.63,15.57c-1.35-2.32-3.29-4.25-5.62-5.59,2.27-1.32,4.91-2.07,7.72-2.08-.02,2.8-.78,5.42-2.1,7.67Z"/>
        <path d="M31.02,5.59c2.33-1.34,4.26-3.27,5.62-5.59,1.32,2.25,2.09,4.87,2.1,7.67-2.81,0-5.45-.76-7.72-2.08Z"/>
        <path d="M40.87,15.57c-1.32-2.25-2.09-4.87-2.1-7.67,2.81,0,5.45.76,7.72,2.08-2.33,1.34-4.27,3.27-5.62,5.59Z"/>
        <path d="M38.77,7.67c.02-2.79.78-5.41,2.1-7.67,1.35,2.32,3.29,4.25,5.62,5.59-2.27,1.32-4.91,2.07-7.72,2.08Z"/>
      </g>
      <g>
        <path d="M52.15,15.57c-1.35-2.32-3.29-4.25-5.62-5.59,2.27-1.32,4.91-2.07,7.72-2.08-.02,2.8-.78,5.42-2.1,7.67Z"/>
        <path d="M46.54,5.59c2.33-1.34,4.26-3.27,5.62-5.59,1.32,2.25,2.09,4.87,2.1,7.67-2.81,0-5.45-.76-7.72-2.08Z"/>
        <path d="M56.4,15.57c-1.32-2.25-2.09-4.87-2.1-7.67,2.81,0,5.45.76,7.72,2.08-2.33,1.34-4.27,3.27-5.62,5.59Z"/>
        <path d="M54.29,7.67c.02-2.79.78-5.41,2.1-7.67,1.35,2.32,3.29,4.25,5.62,5.59-2.27,1.32-4.91,2.07-7.72,2.08Z"/>
      </g>
      <g>
        <path d="M5.62,77.8c-1.35-2.32-3.29-4.25-5.62-5.59,2.27-1.32,4.91-2.07,7.72-2.08-.02,2.8-.78,5.42-2.1,7.67Z"/>
        <path d="M0,67.81c2.33-1.34,4.26-3.27,5.62-5.59,1.32,2.25,2.09,4.87,2.1,7.67-2.81,0-5.45-.76-7.72-2.08Z"/>
        <path d="M9.86,77.8c-1.32-2.25-2.09-4.87-2.1-7.67,2.81,0,5.45.76,7.72,2.08-2.33,1.34-4.27,3.27-5.62,5.59Z"/>
        <path d="M7.76,69.89c.02-2.79.78-5.41,2.1-7.67,1.35,2.32,3.29,4.25,5.62,5.59-2.27,1.32-4.91,2.07-7.72,2.08Z"/>
      </g>
      <g>
        <path d="M5.62,62.48c-1.35-2.32-3.29-4.25-5.62-5.59,2.27-1.32,4.91-2.07,7.72-2.08-.02,2.8-.78,5.42-2.1,7.67Z"/>
        <path d="M0,52.5c2.33-1.34,4.26-3.27,5.62-5.59,1.32,2.25,2.09,4.87,2.1,7.67-2.81,0-5.45-.76-7.72-2.08Z"/>
        <path d="M9.86,62.48c-1.32-2.25-2.09-4.87-2.1-7.67,2.81,0,5.45.76,7.72,2.08-2.33,1.34-4.27,3.27-5.62,5.59Z"/>
        <path d="M7.76,54.57c.02-2.79.78-5.41,2.1-7.67,1.35,2.32,3.29,4.25,5.62,5.59-2.27,1.32-4.91,2.07-7.72,2.08Z"/>
      </g>
      <g>
        <path d="M21.18,46.76c-1.35-2.32-3.29-4.25-5.62-5.59,2.27-1.32,4.91-2.07,7.72-2.08-.02,2.8-.78,5.42-2.1,7.67Z"/>
        <path d="M15.57,36.78c2.33-1.34,4.26-3.27,5.62-5.59,1.32,2.25,2.09,4.87,2.1,7.67-2.81,0-5.45-.76-7.72-2.08Z"/>
        <path d="M25.43,46.76c-1.32-2.25-2.09-4.87-2.1-7.67,2.81,0,5.45.76,7.72,2.08-2.33,1.34-4.27,3.27-5.62,5.59Z"/>
        <path d="M23.32,38.86c.02-2.79.78-5.41,2.1-7.67,1.35,2.32,3.29,4.25,5.62,5.59-2.27,1.32-4.91,2.07-7.72,2.08Z"/>
      </g>
      <g>
        <path d="M36.58,31.19c-1.35-2.32-3.29-4.25-5.62-5.59,2.27-1.32,4.91-2.07,7.72-2.08-.02,2.8-.78,5.42-2.1,7.67Z"/>
        <path d="M30.97,21.2c2.33-1.34,4.26-3.27,5.62-5.59,1.32,2.25,2.09,4.87,2.1,7.67-2.81,0-5.45-.76-7.72-2.08Z"/>
        <path d="M40.83,31.19c-1.32-2.25-2.09-4.87-2.1-7.67,2.81,0,5.45.76,7.72,2.08-2.33,1.34-4.27,3.27-5.62,5.59Z"/>
        <path d="M38.72,23.28c.02-2.79.78-5.41,2.1-7.67,1.35,2.32,3.29,4.25,5.62,5.59-2.27,1.32-4.91,2.07-7.72,2.08Z"/>
      </g>
      <g>
        <path d="M21.04,77.8c-1.35-2.32-3.29-4.25-5.62-5.59,2.27-1.32,4.91-2.07,7.72-2.08-.02,2.8-.78,5.42-2.1,7.67Z"/>
        <path d="M15.43,67.81c2.33-1.34,4.26-3.27,5.62-5.59,1.32,2.25,2.09,4.87,2.1,7.67-2.81,0-5.45-.76-7.72-2.08Z"/>
        <path d="M25.29,77.8c-1.32-2.25-2.09-4.87-2.1-7.67,2.81,0,5.45.76,7.72,2.08-2.33,1.34-4.27,3.27-5.62,5.59Z"/>
        <path d="M23.18,69.89c.02-2.79.78-5.41,2.1-7.67,1.35,2.32,3.29,4.25,5.62,5.59-2.27,1.32-4.91,2.07-7.72,2.08Z"/>
      </g>
      <g>
        <path d="M36.63,77.8c-1.35-2.32-3.29-4.25-5.62-5.59,2.27-1.32,4.91-2.07,7.72-2.08-.02,2.8-.78,5.42-2.1,7.67Z"/>
        <path d="M31.02,67.81c2.33-1.34,4.26-3.27,5.62-5.59,1.32,2.25,2.09,4.87,2.1,7.67-2.81,0-5.45-.76-7.72-2.08Z"/>
        <path d="M40.87,77.8c-1.32-2.25-2.09-4.87-2.1-7.67,2.81,0,5.45.76,7.72,2.08-2.33,1.34-4.27,3.27-5.62,5.59Z"/>
        <path d="M38.77,69.89c.02-2.79.78-5.41,2.1-7.67,1.35,2.32,3.29,4.25,5.62,5.59-2.27,1.32-4.91,2.07-7.72,2.08Z"/>
      </g>
      <g>
        <path d="M52.15,77.8c-1.35-2.32-3.29-4.25-5.62-5.59,2.27-1.32,4.91-2.07,7.72-2.08-.02,2.8-.78,5.42-2.1,7.67Z"/>
        <path d="M46.54,67.81c2.33-1.34,4.26-3.27,5.62-5.59,1.32,2.25,2.09,4.87,2.1,7.67-2.81,0-5.45-.76-7.72-2.08Z"/>
        <path d="M56.4,77.8c-1.32-2.25-2.09-4.87-2.1-7.67,2.81,0,5.45.76,7.72,2.08-2.33,1.34-4.27,3.27-5.62,5.59Z"/>
        <path d="M54.29,69.89c.02-2.79.78-5.41,2.1-7.67,1.35,2.32,3.29,4.25,5.62,5.59-2.27,1.32-4.91,2.07-7.72,2.08Z"/>
      </g>
    </g>
  </g>
</svg>