<?xml version="1.0" encoding="UTF-8"?>
<svg id="_레이어_2" data-name="레이어 2" xmlns="http://www.w3.org/2000/svg" viewBox="0 0 78.79 79.08">
  <g id="_레이어_1-2" data-name="레이어 1">
    <g>
      <path d="M31.49,5c5.92,0,10.74,4.82,10.74,10.74s-4.82,10.74-10.73,10.74c-2.76,0-5,2.24-5,5,0,1.89-.5,3.75-1.44,5.38-.9,1.55-.9,3.46,0,5.01.94,1.63,1.43,3.48,1.43,5.34v.08s0,.19,0,.19c-.03,1.35.48,2.65,1.42,3.61.94.96,2.23,1.5,3.58,1.5.01,0,.03,0,.04,0,5.91.02,10.71,4.83,10.71,10.74s-4.82,10.74-10.74,10.74c-1.97,0-3.9-.54-5.57-1.56-.8-.49-1.7-.73-2.6-.73-.83,0-1.65.2-2.4.62-1.59.87-3.32,1.31-5.15,1.31-5.92,0-10.74-4.82-10.74-10.74,0-1.88.5-3.73,1.43-5.36.9-1.55.89-3.46,0-5.01-.94-1.63-1.44-3.49-1.44-5.38s.5-3.75,1.44-5.38c.9-1.55.9-3.46,0-5.01-.94-1.62-1.43-3.48-1.43-5.36s.5-3.73,1.43-5.36c.9-1.55.89-3.46,0-5.01-.94-1.63-1.44-3.49-1.44-5.38,0-5.92,4.82-10.74,10.74-10.74,1.88,0,3.74.5,5.37,1.44.77.45,1.64.67,2.5.67s1.73-.22,2.5-.67c1.63-.94,3.48-1.44,5.37-1.44M31.49,0c-2.87,0-5.56.77-7.87,2.11-2.32-1.34-5-2.11-7.87-2.11C7.05,0,0,7.05,0,15.74c0,2.87.77,5.56,2.12,7.88C.78,25.94.01,28.62.01,31.49s.77,5.55,2.1,7.86c-1.34,2.32-2.12,5.01-2.12,7.88s.77,5.56,2.12,7.88C.78,57.43.01,60.11.01,62.98c0,8.7,7.05,15.74,15.74,15.74,2.74,0,5.31-.7,7.56-1.93,2.38,1.45,5.18,2.29,8.17,2.29,8.7,0,15.74-7.05,15.74-15.74s-7.05-15.74-15.74-15.74c0,0,0,0,0,0,0-.12,0-.24,0-.36,0-2.86-.77-5.55-2.1-7.86,1.34-2.32,2.12-5.01,2.12-7.88h0c8.69,0,15.73-7.05,15.73-15.74S40.18,0,31.49,0h0Z"/>
      <path d="M63.04,5c5.92,0,10.74,4.82,10.74,10.74,0,1.88-.5,3.73-1.43,5.36-.9,1.55-.89,3.46,0,5.01.94,1.63,1.44,3.49,1.44,5.38s-.5,3.75-1.44,5.38c-.9,1.55-.9,3.46,0,5.01.94,1.62,1.43,3.48,1.43,5.36s-.5,3.73-1.43,5.36c-.9,1.55-.89,3.46,0,5.01.94,1.63,1.44,3.49,1.44,5.38,0,5.92-4.82,10.74-10.74,10.74s-10.74-4.82-10.74-10.74c0-1.88.5-3.73,1.43-5.36.9-1.55.89-3.46,0-5.01-.94-1.63-1.44-3.49-1.44-5.38s.5-3.75,1.44-5.38c.9-1.55.9-3.46,0-5.01-.94-1.63-1.43-3.48-1.43-5.36s.5-3.73,1.43-5.36c.89-1.55.89-3.46,0-5.01-.94-1.63-1.44-3.49-1.44-5.38,0-5.92,4.82-10.74,10.74-10.74M63.04,0c-8.7,0-15.74,7.05-15.74,15.74,0,2.87.77,5.56,2.12,7.88-1.34,2.31-2.1,5-2.1,7.86s.77,5.55,2.1,7.86c-1.34,2.32-2.12,5.01-2.12,7.88s.77,5.56,2.12,7.88c-1.34,2.31-2.1,5-2.1,7.86,0,8.7,7.05,15.74,15.74,15.74s15.74-7.05,15.74-15.74c0-2.87-.77-5.56-2.12-7.88,1.34-2.31,2.1-5,2.1-7.86s-.77-5.55-2.1-7.86c1.34-2.32,2.12-5.01,2.12-7.88s-.77-5.56-2.12-7.88c1.34-2.31,2.1-5,2.1-7.86,0-8.7-7.05-15.74-15.74-15.74h0Z"/>
    </g>
  </g>
</svg>