<?xml version="1.0" encoding="UTF-8"?>
<svg id="_레이어_2" data-name="레이어 2" xmlns="http://www.w3.org/2000/svg" viewBox="0 0 83.73 131.78">
  <g id="_레이어_1-2" data-name="레이어 1">
    <path d="M18.37,7.5c5.92,0,10.74,4.82,10.74,10.74,0,1.88-.5,3.73-1.43,5.36-.9,1.55-.89,3.46,0,5.01.94,1.63,1.44,3.49,1.44,5.38s-.5,3.75-1.44,5.38c-.9,1.55-.9,3.46,0,5.01.94,1.62,1.43,3.48,1.43,5.36v-.04s0,.2,0,.2c-.02,1.35.5,2.64,1.45,3.6.94.95,2.22,1.48,3.55,1.48.01,0,.03,0,.04,0,.05,0,.1,0,.16,0,1.89.01,3.74.52,5.36,1.47.78.46,1.65.69,2.53.69.82,0,1.65-.2,2.4-.61,1.59-.87,3.32-1.31,5.14-1.31s3.74.5,5.37,1.44c.77.45,1.64.67,2.5.67s1.73-.22,2.5-.67c1.63-.94,3.48-1.44,5.37-1.44,5.92,0,10.74,4.82,10.74,10.74,0,1.88-.5,3.74-1.44,5.36-.9,1.55-.9,3.46,0,5.01.94,1.63,1.44,3.49,1.44,5.37s-.5,3.75-1.44,5.38c-.9,1.55-.9,3.46,0,5.01.94,1.62,1.43,3.48,1.43,5.36s-.52,3.83-1.51,5.49c-.94,1.58-.94,3.54,0,5.12.99,1.66,1.51,3.56,1.51,5.49,0,5.92-4.82,10.74-10.74,10.74-1.88,0-3.74-.5-5.37-1.44-.77-.45-1.64-.67-2.5-.67s-1.73.22-2.5.67c-1.63.94-3.48,1.44-5.37,1.44s-3.74-.5-5.37-1.44c-.77-.45-1.64-.67-2.5-.67s-1.73.22-2.5.67c-1.63.94-3.48,1.44-5.37,1.44s-3.9-.54-5.57-1.56c-.8-.49-1.7-.73-2.6-.73-.83,0-1.65.2-2.4.62-1.59.87-3.32,1.31-5.15,1.31-5.92,0-10.74-4.82-10.74-10.74,0-1.88.5-3.73,1.43-5.36.9-1.55.89-3.46,0-5.01-.94-1.63-1.44-3.49-1.44-5.38s.5-3.75,1.44-5.38c.9-1.55.9-3.46,0-5.01-.94-1.62-1.43-3.48-1.43-5.36s.5-3.73,1.43-5.36c.9-1.55.89-3.46,0-5.01-.94-1.63-1.44-3.49-1.44-5.38,0-1.98.54-3.92,1.57-5.6.97-1.58.98-3.56.04-5.16-.98-1.65-1.49-3.54-1.49-5.46s.5-3.75,1.44-5.38c.9-1.55.9-3.46,0-5.01-.94-1.62-1.43-3.48-1.43-5.36s.5-3.73,1.43-5.36c.9-1.55.89-3.46,0-5.01-.94-1.63-1.44-3.49-1.44-5.38,0-5.92,4.82-10.74,10.74-10.74M34.24,76.46h.03s-.2,0-.2,0c-.03,0-.05,0-.08,0-1.32,0-2.6.53-3.53,1.46-.96.96-1.49,2.26-1.47,3.61v.2c0,1.88-.5,3.72-1.44,5.34-.9,1.55-.9,3.46,0,5.01.94,1.62,1.43,3.48,1.43,5.34v.08s0,.18,0,.18c-.03,1.35.48,2.65,1.42,3.61.94.96,2.23,1.5,3.58,1.5.01,0,.03,0,.04,0,1.87,0,3.72.5,5.34,1.44.77.45,1.64.67,2.5.67s1.73-.22,2.5-.67c1.63-.94,3.48-1.44,5.37-1.44,1.35,0,2.63-.54,3.58-1.5.94-.96,1.45-2.26,1.42-3.61v-.19s0-.06,0-.06c0-1.89.5-3.75,1.44-5.38.9-1.55.9-3.46,0-5.01-.94-1.62-1.43-3.48-1.43-5.36,0-2.76-2.24-5-5-5,0,0-.02,0-.03,0-1.9,0-3.77-.51-5.4-1.47-.78-.46-1.65-.69-2.53-.69-.82,0-1.65.2-2.4.61-1.59.87-3.32,1.31-5.14,1.31M18.37,2.5c-8.7,0-15.74,7.05-15.74,15.74,0,2.87.77,5.56,2.12,7.88-1.34,2.31-2.1,5-2.1,7.86s.77,5.55,2.1,7.86c-1.34,2.32-2.12,5.01-2.12,7.88s.8,5.66,2.19,8.01c-1.47,2.39-2.31,5.2-2.31,8.21s.77,5.56,2.12,7.88c-1.34,2.31-2.1,5-2.1,7.86s.77,5.55,2.1,7.86c-1.34,2.32-2.12,5.01-2.12,7.88s.77,5.56,2.12,7.88c-1.34,2.31-2.1,5-2.1,7.86,0,8.7,7.05,15.74,15.74,15.74,2.74,0,5.31-.7,7.56-1.93,2.38,1.45,5.18,2.29,8.17,2.29s5.56-.77,7.87-2.11c2.32,1.34,5,2.11,7.87,2.11s5.56-.77,7.87-2.11c2.32,1.34,5,2.11,7.87,2.11,8.7,0,15.74-7.05,15.74-15.74,0-2.94-.81-5.7-2.22-8.06,1.4-2.35,2.21-5.1,2.21-8.04s-.77-5.55-2.1-7.86c1.34-2.32,2.12-5.01,2.12-7.88s-.77-5.56-2.12-7.88c1.34-2.31,2.11-5,2.11-7.87,0-8.7-7.05-15.74-15.74-15.74-2.87,0-5.56.77-7.87,2.11-2.32-1.34-5-2.11-7.87-2.11s-5.3.7-7.54,1.92c-2.33-1.37-5.05-2.16-7.95-2.16-.05,0-.09,0-.14,0,0-.08,0-.16,0-.24,0-2.86-.77-5.55-2.1-7.86,1.34-2.32,2.12-5.01,2.12-7.88s-.77-5.56-2.12-7.88c1.34-2.31,2.1-5,2.1-7.86,0-8.7-7.05-15.74-15.74-15.74h0ZM34.24,81.46c2.73,0,5.3-.7,7.54-1.92,2.33,1.37,5.05,2.16,7.95,2.16,0,0,0,0,0,0h0c0,2.86.77,5.55,2.1,7.86-1.34,2.32-2.12,5.01-2.12,7.88,0,.12,0,.24,0,.36h0c-2.87,0-5.56.77-7.87,2.11-2.32-1.34-5-2.11-7.87-2.11,0,0,0,0,0,0,0-.12,0-.24,0-.36,0-2.86-.77-5.55-2.1-7.86,1.34-2.32,2.12-5.01,2.12-7.88,0-.08,0-.16,0-.24.08,0,.17,0,.25,0h0Z"/>
  </g>
</svg>