<?xml version="1.0" encoding="UTF-8"?>
<svg id="_레이어_2" data-name="레이어 2" xmlns="http://www.w3.org/2000/svg" viewBox="0 0 78.72 79.31">
  <g id="_레이어_1-2" data-name="레이어 1">
    <path d="M31.74,5c1.91,0,3.78.51,5.42,1.47.78.46,1.65.69,2.53.69.82,0,1.65-.2,2.4-.61,1.59-.87,3.32-1.31,5.14-1.31s3.74.5,5.37,1.44c.77.45,1.64.67,2.5.67s1.73-.22,2.5-.67c1.63-.94,3.48-1.44,5.37-1.44,5.92,0,10.74,4.82,10.74,10.74s-4.82,10.74-10.74,10.74c-1.88,0-3.74-.5-5.37-1.44-.77-.45-1.64-.67-2.5-.67s-1.73.22-2.5.67c-1.63.94-3.48,1.44-5.37,1.44s-3.78-.51-5.42-1.47c-.78-.46-1.65-.69-2.53-.69-.82,0-1.65.2-2.4.61-1.59.87-3.32,1.31-5.14,1.31h.03s-.2,0-.2,0c-.03,0-.05,0-.08,0-1.33,0-2.6.53-3.54,1.47-.96.96-1.49,2.27-1.46,3.62v.19c0,1.88-.5,3.72-1.44,5.34-.9,1.55-.9,3.46,0,5.01.94,1.62,1.43,3.48,1.43,5.34v.08s0,.18,0,.18c-.03,1.35.48,2.65,1.42,3.61.94.96,2.23,1.51,3.58,1.51.01,0,.03,0,.04,0,1.87,0,3.72.5,5.33,1.44.77.45,1.64.67,2.5.67s1.73-.22,2.5-.67c1.63-.94,3.48-1.44,5.37-1.44s3.74.5,5.37,1.44c.77.45,1.64.67,2.5.67s1.73-.22,2.5-.67c1.63-.94,3.48-1.44,5.37-1.44,5.92,0,10.74,4.82,10.74,10.74s-4.82,10.74-10.74,10.74c-1.88,0-3.74-.5-5.37-1.44-.77-.45-1.64-.67-2.5-.67s-1.73.22-2.5.67c-1.63.94-3.48,1.44-5.37,1.44s-3.74-.5-5.37-1.44c-.77-.45-1.64-.67-2.5-.67s-1.73.22-2.5.67c-1.63.94-3.48,1.44-5.37,1.44s-3.9-.54-5.57-1.56c-.8-.49-1.7-.73-2.6-.73-.83,0-1.65.2-2.4.62-1.59.87-3.32,1.31-5.15,1.31-5.92,0-10.74-4.82-10.74-10.74,0-1.88.5-3.73,1.43-5.36.9-1.55.89-3.46,0-5.01-.94-1.63-1.44-3.49-1.44-5.38s.5-3.75,1.44-5.38c.9-1.55.9-3.46,0-5.01-.94-1.62-1.43-3.48-1.43-5.36s.5-3.73,1.43-5.36c.9-1.55.89-3.46,0-5.01-.94-1.63-1.44-3.49-1.44-5.38,0-5.92,4.82-10.74,10.74-10.74,1.86,0,3.7.49,5.32,1.41.77.44,1.62.66,2.48.66.91,0,1.81-.25,2.61-.74,1.68-1.03,3.61-1.57,5.59-1.57M31.74,0c-3.01,0-5.81.84-8.2,2.31C21.24.99,18.58.24,15.74.24,7.05.24,0,7.29,0,15.98c0,2.87.77,5.56,2.12,7.88C.78,26.18.01,28.86.01,31.73s.77,5.55,2.1,7.86c-1.34,2.32-2.12,5.01-2.12,7.88s.77,5.56,2.12,7.88C.78,57.67.01,60.35.01,63.21c0,8.7,7.05,15.74,15.74,15.74,2.74,0,5.31-.7,7.56-1.93,2.38,1.45,5.18,2.29,8.17,2.29s5.56-.77,7.87-2.11c2.32,1.34,5,2.11,7.87,2.11s5.56-.77,7.87-2.11c2.32,1.34,5,2.11,7.87,2.11,8.7,0,15.74-7.05,15.74-15.74s-7.05-15.74-15.74-15.74c-2.87,0-5.56.77-7.87,2.11-2.32-1.34-5-2.11-7.87-2.11s-5.56.77-7.87,2.11c-2.32-1.34-5-2.11-7.87-2.11,0,0,0,0,0,0,0-.12,0-.24,0-.36,0-2.86-.77-5.55-2.1-7.86,1.34-2.32,2.12-5.01,2.12-7.88,0-.08,0-.16,0-.24.08,0,.17,0,.25,0,2.73,0,5.3-.7,7.54-1.92,2.33,1.37,5.05,2.16,7.95,2.16s5.56-.77,7.87-2.11c2.32,1.34,5,2.11,7.87,2.11,8.7,0,15.74-7.05,15.74-15.74S71.67.24,62.98.24c-2.87,0-5.56.77-7.87,2.11-2.32-1.34-5-2.11-7.87-2.11s-5.3.7-7.54,1.92c-2.33-1.37-5.05-2.16-7.95-2.16h0Z"/>
  </g>
</svg>