<?xml version="1.0" encoding="UTF-8"?>
<svg id="_레이어_2" data-name="레이어 2" xmlns="http://www.w3.org/2000/svg" viewBox="0 0 83.73 131.78">
  <g id="_레이어_1-2" data-name="레이어 1">
    <path d="M65.36,7.5c5.92,0,10.74,4.82,10.74,10.74,0,1.89-.5,3.75-1.44,5.38-.9,1.55-.9,3.46,0,5.01.94,1.62,1.43,3.48,1.43,5.36s-.5,3.73-1.43,5.36c-.9,1.55-.89,3.46,0,5.01.94,1.63,1.44,3.49,1.44,5.38s-.52,3.81-1.49,5.46c-.94,1.59-.93,3.58.04,5.16,1.03,1.68,1.57,3.62,1.57,5.6s-.5,3.75-1.44,5.38c-.9,1.55-.9,3.46,0,5.01.94,1.62,1.43,3.48,1.43,5.36s-.5,3.73-1.43,5.36c-.9,1.55-.89,3.46,0,5.01.94,1.63,1.44,3.49,1.44,5.38s-.5,3.75-1.44,5.38c-.9,1.55-.9,3.46,0,5.01.94,1.62,1.43,3.48,1.43,5.36,0,5.92-4.82,10.74-10.74,10.74-1.83,0-3.56-.44-5.15-1.31-.75-.41-1.58-.62-2.4-.62-.9,0-1.8.24-2.6.73-1.67,1.02-3.6,1.56-5.57,1.56s-3.74-.5-5.37-1.44c-.77-.45-1.64-.67-2.5-.67s-1.73.22-2.5.67c-1.63.94-3.48,1.44-5.37,1.44s-3.74-.5-5.37-1.44c-.77-.45-1.64-.67-2.5-.67s-1.73.22-2.5.67c-1.63.94-3.48,1.44-5.37,1.44-5.92,0-10.74-4.82-10.74-10.74,0-1.94.52-3.84,1.51-5.49.94-1.58.94-3.54,0-5.12-.99-1.65-1.51-3.55-1.51-5.49s.5-3.73,1.43-5.36c.9-1.55.89-3.46,0-5.01-.94-1.63-1.44-3.49-1.44-5.38s.5-3.74,1.44-5.37c.9-1.55.9-3.46,0-5.01-.94-1.63-1.44-3.48-1.44-5.36,0-5.92,4.82-10.74,10.74-10.74,1.88,0,3.74.5,5.37,1.44.77.45,1.64.67,2.5.67s1.73-.22,2.5-.67c1.63-.94,3.48-1.44,5.37-1.44s3.55.44,5.14,1.31c.75.41,1.57.61,2.4.61.88,0,1.75-.23,2.53-.69,1.62-.95,3.48-1.46,5.37-1.47.05,0,.1,0,.16,0,.01,0,.03,0,.04,0,1.33,0,2.61-.53,3.55-1.48.95-.96,1.47-2.25,1.45-3.6v-.2c0-1.87.5-3.71,1.43-5.33.9-1.55.89-3.46,0-5.01-.94-1.63-1.44-3.49-1.44-5.38s.5-3.75,1.44-5.38c.9-1.55.9-3.46,0-5.01-.94-1.62-1.43-3.48-1.43-5.36,0-5.92,4.82-10.74,10.74-10.74M34.01,76.69h-.01c-.09,0-.17,0-.26,0-2.66.13-4.75,2.33-4.75,4.99,0,1.88-.5,3.73-1.43,5.36-.9,1.55-.89,3.46,0,5.01.94,1.63,1.44,3.49,1.44,5.35v.07s0,.21,0,.21c-.03,1.34.49,2.64,1.43,3.6.94.96,2.23,1.5,3.57,1.5,1.88,0,3.74.5,5.37,1.44.77.45,1.64.67,2.5.67s1.73-.22,2.5-.67c1.62-.94,3.46-1.43,5.34-1.44.01,0,.03,0,.04,0,1.35,0,2.63-.54,3.58-1.5.94-.96,1.45-2.26,1.42-3.61v-.19s0-.06,0-.06c0-1.88.5-3.73,1.43-5.36.9-1.55.89-3.46,0-5.01-.94-1.63-1.44-3.49-1.44-5.38v.03s0-.2,0-.2c.02-1.35-.51-2.66-1.47-3.61-.94-.94-2.21-1.46-3.53-1.46-.03,0-.05,0-.08,0h-.2c-1.81,0-3.53-.44-5.11-1.3-.75-.41-1.57-.61-2.4-.61-.88,0-1.75.23-2.53.69-1.64.96-3.51,1.47-5.41,1.47M65.36,2.5c-8.7,0-15.74,7.05-15.74,15.74,0,2.86.77,5.55,2.1,7.86-1.34,2.32-2.12,5.01-2.12,7.88s.77,5.56,2.12,7.88c-1.34,2.31-2.1,5-2.1,7.86,0,.08,0,.16,0,.24-.05,0-.09,0-.14,0-2.9,0-5.62.79-7.95,2.16-2.24-1.22-4.81-1.92-7.54-1.92-2.87,0-5.56.77-7.87,2.11-2.32-1.34-5-2.11-7.87-2.11-8.7,0-15.74,7.05-15.74,15.74,0,2.87.77,5.55,2.11,7.87-1.34,2.32-2.11,5.01-2.11,7.88s.77,5.56,2.12,7.88c-1.34,2.31-2.1,5-2.1,7.86s.81,5.69,2.21,8.04c-1.41,2.36-2.22,5.11-2.22,8.06,0,8.7,7.05,15.74,15.74,15.74,2.87,0,5.56-.77,7.87-2.11,2.32,1.34,5,2.11,7.87,2.11s5.56-.77,7.87-2.11c2.32,1.34,5,2.11,7.87,2.11s5.79-.84,8.17-2.29c2.24,1.23,4.82,1.93,7.56,1.93,8.7,0,15.74-7.05,15.74-15.74,0-2.86-.77-5.55-2.1-7.86,1.34-2.32,2.12-5.01,2.12-7.88s-.77-5.56-2.12-7.88c1.34-2.31,2.1-5,2.1-7.86s-.77-5.55-2.1-7.86c1.34-2.32,2.12-5.01,2.12-7.88s-.85-5.82-2.31-8.21c1.39-2.35,2.19-5.08,2.19-8.01s-.77-5.56-2.12-7.88c1.34-2.31,2.1-5,2.1-7.86s-.77-5.55-2.1-7.86c1.34-2.32,2.12-5.01,2.12-7.88,0-8.7-7.05-15.74-15.74-15.74h0ZM33.99,81.69c2.9,0,5.62-.79,7.95-2.16,2.24,1.22,4.81,1.92,7.54,1.92.08,0,.17,0,.25,0,0,.08,0,.16,0,.24,0,2.87.77,5.56,2.12,7.88-1.34,2.31-2.1,5-2.1,7.86,0,.12,0,.24,0,.36,0,0,0,0,0,0-2.87,0-5.56.77-7.87,2.11-2.32-1.34-5-2.11-7.87-2.11h0c0-.12,0-.24,0-.36,0-2.87-.77-5.56-2.12-7.88,1.34-2.31,2.1-5,2.1-7.86h0s0,0,0,0h0Z"/>
  </g>
</svg>