<?xml version="1.0" encoding="UTF-8"?>
<svg id="_레이어_2" data-name="레이어 2" xmlns="http://www.w3.org/2000/svg" viewBox="0 0 83.96 100">
  <g id="_레이어_1-2" data-name="레이어 1">
    <path d="M65.72,7.5c5.92,0,10.74,4.82,10.74,10.74,0,1.93-.52,3.83-1.51,5.49-.93,1.56-.94,3.5-.03,5.07.94,1.63,1.44,3.49,1.44,5.37s-.49,3.71-1.42,5.33c-.88,1.54-.88,3.44,0,4.98.93,1.62,1.42,3.46,1.42,5.33,0,5.92-4.82,10.74-10.74,10.74-1.82,0-3.62-.47-5.21-1.35-.76-.42-1.59-.63-2.43-.63-.88,0-1.77.23-2.55.7-1.65.98-3.54,1.5-5.47,1.5s-3.86-.53-5.52-1.52c-.79-.47-1.68-.71-2.57-.71s-1.7.22-2.46.65c-1.59.9-3.41,1.38-5.25,1.39-.01,0-.03,0-.04,0-1.33,0-2.61.53-3.55,1.48-.94.95-1.46,2.23-1.45,3.56v.05s0,.05,0,.05v.19c-.03,1.34.48,2.64,1.42,3.6.94.96,2.23,1.5,3.57,1.5.01,0,.03,0,.04,0,1.87,0,3.72.5,5.33,1.44.77.45,1.64.67,2.5.67s1.73-.22,2.5-.67c1.63-.94,3.48-1.44,5.37-1.44s3.74.5,5.37,1.44c.77.45,1.64.67,2.5.67s1.73-.22,2.5-.67c1.63-.94,3.48-1.44,5.37-1.44,5.92,0,10.74,4.82,10.74,10.74s-4.82,10.74-10.74,10.74c-1.88,0-3.74-.5-5.37-1.44-.77-.45-1.64-.67-2.5-.67s-1.73.22-2.5.67c-1.63.94-3.48,1.44-5.37,1.44s-3.74-.5-5.37-1.44c-.77-.45-1.64-.67-2.5-.67s-1.73.22-2.5.67c-1.63.94-3.48,1.44-5.37,1.44s-3.74-.5-5.37-1.44c-.77-.45-1.64-.67-2.5-.67s-1.73.22-2.5.67c-1.63.94-3.48,1.44-5.37,1.44-5.92,0-10.74-4.82-10.74-10.74,0-1.94.52-3.84,1.51-5.49.94-1.58.94-3.54,0-5.12-.99-1.65-1.51-3.55-1.51-5.49s.5-3.75,1.44-5.38c.9-1.55.9-3.46,0-5.01-.94-1.62-1.43-3.48-1.43-5.36s.5-3.73,1.43-5.36c.9-1.55.89-3.46,0-5.01-.94-1.63-1.44-3.49-1.44-5.38s.49-3.72,1.42-5.34c.9-1.57.89-3.51-.04-5.06-.99-1.66-1.52-3.56-1.52-5.5,0-5.92,4.82-10.74,10.74-10.74,1.93,0,3.82.52,5.47,1.5.79.47,1.67.7,2.55.7s1.75-.23,2.53-.69c1.64-.96,3.51-1.47,5.42-1.47s3.74.5,5.37,1.44c.77.45,1.64.67,2.5.67s1.73-.22,2.5-.67c1.63-.94,3.48-1.44,5.37-1.44s3.72.49,5.33,1.42c.77.44,1.63.66,2.49.66s1.74-.23,2.52-.68c1.64-.96,3.51-1.46,5.41-1.46M34.28,29.05s-.08,0-.12,0c-.01,0-.02,0-.04,0-1.33,0-2.61.53-3.55,1.48-.95.96-1.47,2.26-1.45,3.6,0,.01,0,.03,0,.05.05,2.72,2.27,4.91,5,4.91.01,0,.03,0,.04,0,1.94,0,3.83.53,5.48,1.52.79.47,1.68.71,2.57.71s1.7-.22,2.46-.65c1.59-.9,3.39-1.38,5.23-1.39,1.33,0,2.6-.54,3.53-1.48s1.45-2.22,1.44-3.55c0-.03,0-.06,0-.09,0-.03,0-.06,0-.09,0-1.33-.51-2.6-1.44-3.55-.93-.94-2.2-1.48-3.53-1.48-1.87,0-3.71-.51-5.31-1.44-.77-.45-1.64-.67-2.5-.67s-1.73.22-2.5.67c-1.61.93-3.44,1.43-5.31,1.44M65.72,2.5c-2.89,0-5.6.78-7.93,2.15-2.31-1.32-4.97-2.08-7.82-2.08s-5.56.77-7.87,2.11c-2.32-1.34-5-2.11-7.87-2.11s-5.62.79-7.95,2.16c-2.35-1.4-5.09-2.2-8.02-2.2-8.69,0-15.74,7.05-15.74,15.74,0,2.95.81,5.71,2.23,8.07-1.33,2.31-2.09,4.98-2.09,7.83s.77,5.56,2.12,7.88c-1.34,2.31-2.1,5-2.1,7.86s.77,5.55,2.1,7.86c-1.34,2.32-2.12,5.01-2.12,7.88s.81,5.69,2.21,8.05c-1.41,2.36-2.22,5.11-2.22,8.05,0,8.7,7.05,15.74,15.74,15.74,2.87,0,5.56-.77,7.87-2.11,2.32,1.34,5,2.11,7.87,2.11s5.56-.77,7.87-2.11c2.32,1.34,5,2.11,7.87,2.11s5.56-.77,7.87-2.11c2.32,1.34,5,2.11,7.87,2.11,8.7,0,15.74-7.05,15.74-15.74s-7.05-15.74-15.74-15.74c-2.87,0-5.56.77-7.87,2.11-2.32-1.34-5-2.11-7.87-2.11s-5.56.77-7.87,2.11c-2.32-1.34-5-2.11-7.87-2.11,0,0,0,0,0,0,0-.12,0-.24,0-.36,0-.03,0-.05,0-.08,0,0,0,0,0,0,2.82,0,5.46-.74,7.74-2.04,2.36,1.42,5.13,2.24,8.09,2.24s5.67-.8,8.02-2.2c2.26,1.26,4.87,1.98,7.64,1.98,8.7,0,15.74-7.05,15.74-15.74,0-2.85-.76-5.52-2.08-7.82,1.32-2.3,2.08-4.97,2.08-7.82s-.77-5.56-2.12-7.88c1.4-2.35,2.21-5.11,2.21-8.05,0-8.7-7.05-15.74-15.74-15.74h0ZM34.22,34.05c2.87,0,5.56-.77,7.87-2.11,2.29,1.33,4.95,2.1,7.79,2.11,0,.04,0,.08,0,.12s0,.08,0,.12c-2.79.01-5.4.75-7.66,2.04-2.36-1.42-5.13-2.24-8.09-2.24,0,0,0,0,0,0,0-.01,0-.03,0-.04.03,0,.07,0,.1,0h0Z"/>
  </g>
</svg>