<?xml version="1.0" encoding="UTF-8"?>
<svg id="_레이어_2" data-name="레이어 2" xmlns="http://www.w3.org/2000/svg" viewBox="0 0 78.72 126.78">
  <g id="_레이어_1-2" data-name="레이어 1">
    <path d="M47.19,5c1.94,0,3.85.52,5.51,1.52.79.47,1.68.71,2.57.71.84,0,1.68-.21,2.44-.63,1.59-.89,3.4-1.36,5.22-1.36,5.92,0,10.74,4.82,10.74,10.74s-4.82,10.74-10.74,10.74c-1.94,0-3.85-.52-5.51-1.52-.79-.47-1.68-.71-2.57-.71-.84,0-1.68.21-2.44.63-1.59.89-3.4,1.36-5.22,1.36s-3.74-.5-5.37-1.44c-.77-.45-1.64-.67-2.5-.67s-1.73.22-2.5.67c-1.62.94-3.47,1.43-5.34,1.44-1.34,0-2.63.55-3.57,1.51-.94.96-1.45,2.26-1.42,3.6v.19s0,.06,0,.06c0,1.88-.5,3.73-1.43,5.36-.9,1.55-.89,3.46,0,5.01.94,1.61,1.43,3.45,1.44,5.32,0,.04,0,.07,0,.1-.01,1.34.52,2.63,1.47,3.58.94.94,2.21,1.46,3.53,1.46.02,0,.04,0,.05,0h.15c1.85,0,3.67.49,5.27,1.4.77.44,1.62.66,2.48.66s1.71-.22,2.48-.66c1.61-.92,3.45-1.4,5.3-1.4s3.74.5,5.37,1.44c.77.45,1.64.67,2.5.67s1.73-.22,2.5-.67c1.63-.94,3.48-1.44,5.37-1.44,5.92,0,10.74,4.82,10.74,10.74s-4.82,10.74-10.74,10.74c-1.88,0-3.74-.5-5.37-1.44-.77-.45-1.64-.67-2.5-.67s-1.73.22-2.5.67c-1.63.94-3.48,1.44-5.37,1.44s-3.69-.49-5.3-1.4c-.77-.44-1.62-.66-2.48-.66s-1.71.22-2.48.66c-1.6.91-3.41,1.39-5.25,1.4-.06,0-.12,0-.18,0-.02,0-.03,0-.05,0-1.32,0-2.58.52-3.52,1.45-.95.94-1.48,2.22-1.48,3.55,0,.03,0,.06,0,.09,0,1.84-.5,3.66-1.41,5.26-.89,1.56-.88,3.48.04,5.02.98,1.65,1.49,3.54,1.49,5.46s-.52,3.82-1.5,5.48c-.94,1.57-.94,3.54,0,5.11.98,1.65,1.5,3.55,1.5,5.48,0,5.92-4.82,10.74-10.74,10.74s-10.74-4.82-10.74-10.74c0-1.93.52-3.82,1.5-5.48.94-1.57.94-3.54,0-5.11-.98-1.65-1.5-3.55-1.5-5.48s.49-3.7,1.41-5.31c.89-1.56.88-3.48-.04-5.02-.98-1.65-1.49-3.54-1.49-5.46s.49-3.73,1.43-5.35c.89-1.55.89-3.45,0-4.99-.94-1.62-1.43-3.47-1.43-5.35s.51-3.79,1.47-5.43c.92-1.56.92-3.5,0-5.06-.96-1.64-1.47-3.51-1.47-5.41s.5-3.73,1.43-5.36c.9-1.55.89-3.46,0-5.01-.94-1.63-1.44-3.49-1.44-5.38,0-5.91,4.81-10.73,10.72-10.74,1.34,0,2.63-.55,3.57-1.51.94-.96,1.45-2.26,1.42-3.6v-.19s0-.06,0-.06c0-5.92,4.82-10.74,10.74-10.74,1.88,0,3.74.5,5.37,1.44.77.45,1.64.67,2.5.67s1.73-.22,2.5-.67c1.63-.94,3.48-1.44,5.37-1.44M47.19,0c-2.87,0-5.56.77-7.87,2.11-2.32-1.34-5-2.11-7.87-2.11-8.7,0-15.74,7.05-15.74,15.74,0,.12,0,.24,0,.36-8.68.02-15.71,7.06-15.71,15.74,0,2.87.77,5.56,2.12,7.88C.78,42.04.01,44.72.01,47.59s.79,5.61,2.15,7.94c-1.37,2.34-2.16,5.06-2.16,7.96s.77,5.54,2.1,7.85c-1.33,2.31-2.1,4.99-2.1,7.85s.8,5.66,2.19,8c-1.31,2.3-2.06,4.96-2.06,7.79s.81,5.68,2.2,8.03c-1.4,2.35-2.2,5.1-2.2,8.03,0,8.7,7.05,15.74,15.74,15.74s15.74-7.05,15.74-15.74c0-2.93-.81-5.68-2.2-8.03,1.4-2.35,2.2-5.1,2.2-8.03s-.8-5.66-2.19-8c1.31-2.3,2.06-4.96,2.06-7.79,0-.01,0-.02,0-.03.06,0,.12,0,.18,0,2.83,0,5.48-.75,7.78-2.06,2.3,1.31,4.95,2.06,7.78,2.06s5.56-.77,7.87-2.11c2.32,1.34,5,2.11,7.87,2.11,8.7,0,15.74-7.05,15.74-15.74s-7.05-15.74-15.74-15.74c-2.87,0-5.56.77-7.87,2.11-2.32-1.34-5-2.11-7.87-2.11s-5.48.75-7.78,2.06c-2.3-1.31-4.95-2.06-7.78-2.06-.06,0-.11,0-.17,0,0-.03,0-.06,0-.08,0-2.87-.77-5.56-2.12-7.88,1.34-2.31,2.1-5,2.1-7.86,0-.12,0-.24,0-.36,2.86,0,5.53-.78,7.84-2.11,2.32,1.34,5,2.11,7.87,2.11s5.39-.72,7.66-1.99c2.36,1.41,5.12,2.23,8.07,2.23,8.7,0,15.74-7.05,15.74-15.74S71.62.24,62.93.24c-2.78,0-5.39.72-7.66,1.99-2.36-1.41-5.12-2.23-8.07-2.23h0Z"/>
  </g>
</svg>