<?xml version="1.0" encoding="UTF-8"?>
<svg id="_레이어_2" data-name="레이어 2" xmlns="http://www.w3.org/2000/svg" viewBox="0 0 83.86 115.8">
  <g id="_레이어_1-2" data-name="레이어 1">
    <path d="M65.54,7.5c5.92,0,10.74,4.82,10.74,10.74,0,1.89-.5,3.76-1.45,5.39-.91,1.57-.9,3.51.02,5.07.98,1.65,1.5,3.55,1.5,5.48s-.51,3.77-1.46,5.41c-.91,1.56-.91,3.49,0,5.05.96,1.64,1.46,3.51,1.46,5.41s-.51,3.79-1.47,5.43c-.91,1.55-.92,3.46-.02,5.02.93,1.62,1.42,3.46,1.42,5.34s-.49,3.73-1.43,5.35c-.9,1.56-.89,3.48.02,5.03.97,1.64,1.48,3.53,1.48,5.44s-.52,3.82-1.5,5.47c-.92,1.56-.93,3.49-.02,5.06.94,1.63,1.44,3.49,1.44,5.38,0,5.92-4.82,10.74-10.74,10.74-1.88,0-3.74-.5-5.37-1.44-.77-.45-1.64-.67-2.5-.67s-1.73.22-2.5.67c-1.63.94-3.48,1.44-5.37,1.44s-3.74-.5-5.36-1.44c-.77-.45-1.64-.67-2.5-.67s-1.73.22-2.5.67c-1.63.94-3.48,1.44-5.36,1.44s-3.74-.5-5.36-1.44c-.77-.45-1.64-.67-2.5-.67s-1.73.22-2.5.67c-1.63.94-3.48,1.44-5.36,1.44-5.92,0-10.74-4.82-10.74-10.74s4.82-10.74,10.74-10.74c1.88,0,3.74.5,5.36,1.44.77.45,1.64.67,2.5.67s1.73-.22,2.5-.67c1.63-.94,3.48-1.44,5.36-1.44s3.74.5,5.36,1.44c.77.45,1.64.67,2.5.67s1.73-.22,2.5-.67c1.61-.93,3.45-1.43,5.31-1.44.04,0,.08,0,.11,0h.02c1.33,0,2.61-.53,3.54-1.47.94-.95,1.47-2.23,1.46-3.57,0-.04,0-.08,0-.13,0-.03,0-.05,0-.07,0-1.33-.53-2.61-1.47-3.54-.94-.93-2.21-1.46-3.53-1.46h-.02s-.08,0-.11,0c-1.84-.01-3.66-.5-5.26-1.41-.77-.44-1.62-.66-2.48-.66s-1.75.23-2.53.68c-1.64.96-3.51,1.46-5.41,1.46s-3.73-.5-5.36-1.43c-.77-.45-1.64-.67-2.5-.67s-1.73.22-2.5.67c-1.62.94-3.48,1.43-5.36,1.43-5.92,0-10.74-4.82-10.74-10.74,0-1.94.53-3.85,1.52-5.51.95-1.58.95-3.56,0-5.15-1-1.66-1.53-3.57-1.53-5.53s.5-3.73,1.43-5.36c.9-1.55.89-3.46,0-5.01-.94-1.63-1.44-3.49-1.44-5.38s.49-3.71,1.42-5.33c.89-1.55.88-3.46-.02-5.01-.96-1.64-1.46-3.51-1.46-5.41,0-5.92,4.82-10.74,10.74-10.74,1.89,0,3.76.5,5.39,1.45.78.45,1.65.68,2.52.68s1.74-.23,2.52-.68c1.63-.95,3.5-1.45,5.39-1.45s3.74.5,5.36,1.44c.77.45,1.64.67,2.5.67s1.73-.22,2.5-.67c1.63-.94,3.48-1.44,5.36-1.44s3.74.5,5.37,1.44c.77.45,1.64.67,2.5.67s1.73-.22,2.5-.67c1.63-.94,3.48-1.44,5.37-1.44M41.86,57.24c.87,0,1.75-.23,2.53-.68,1.62-.95,3.47-1.45,5.35-1.46.04,0,.08,0,.12,0h.02c1.32,0,2.59-.52,3.53-1.46.94-.94,1.47-2.21,1.47-3.54,0-.03,0-.06,0-.09,0-1.88.51-3.74,1.46-5.36.91-1.56.91-3.49,0-5.05-.95-1.62-1.45-3.48-1.46-5.37v-.17c.02-1.34-.5-2.64-1.44-3.59-.94-.95-2.22-1.48-3.55-1.48h-.02s-.08,0-.12,0c-1.86-.01-3.7-.51-5.3-1.44-.77-.45-1.64-.67-2.5-.67s-1.73.22-2.5.67c-1.63.94-3.48,1.44-5.36,1.44-2.76,0-5,2.24-5,5,0,1.88-.5,3.73-1.43,5.36-.9,1.55-.89,3.46,0,5.01.94,1.63,1.44,3.49,1.44,5.37v.13s0,.18,0,.18c-.04,1.35.47,2.65,1.42,3.62.94.97,2.23,1.51,3.58,1.51,1.86,0,3.7.49,5.32,1.41.77.44,1.62.66,2.48.66M65.54,2.5c-2.87,0-5.56.77-7.87,2.11-2.32-1.34-5-2.11-7.87-2.11s-5.55.77-7.87,2.11c-2.32-1.34-5-2.11-7.87-2.11s-5.58.78-7.91,2.13c-2.32-1.35-5.02-2.13-7.91-2.13-8.7,0-15.74,7.05-15.74,15.74,0,2.89.78,5.6,2.15,7.93-1.32,2.3-2.08,4.97-2.08,7.81s.77,5.56,2.12,7.88c-1.34,2.31-2.1,5-2.1,7.86s.82,5.74,2.24,8.1c-1.42,2.36-2.23,5.12-2.23,8.08,0,8.7,7.05,15.74,15.74,15.74,2.86,0,5.54-.77,7.86-2.1,2.31,1.34,5,2.1,7.86,2.1s5.61-.79,7.94-2.15c2.3,1.31,4.96,2.07,7.8,2.07.03,0,.05,0,.08,0,0,.03,0,.05,0,.08,0,.05,0,.11,0,.16-.03,0-.05,0-.08,0-2.87,0-5.55.77-7.87,2.11-2.32-1.34-5-2.11-7.87-2.11s-5.55.77-7.86,2.11c-2.31-1.34-5-2.11-7.86-2.11-8.7,0-15.74,7.05-15.74,15.74s7.05,15.74,15.74,15.74c2.87,0,5.55-.77,7.86-2.11,2.31,1.34,5,2.11,7.86,2.11s5.55-.77,7.87-2.11c2.32,1.34,5,2.11,7.87,2.11s5.56-.77,7.87-2.11c2.32,1.34,5,2.11,7.87,2.11,8.7,0,15.74-7.05,15.74-15.74,0-2.87-.77-5.56-2.12-7.88,1.39-2.35,2.2-5.09,2.2-8.02s-.79-5.64-2.17-7.98c1.33-2.31,2.1-4.99,2.1-7.85s-.76-5.52-2.08-7.82c1.37-2.34,2.16-5.05,2.16-7.96s-.78-5.6-2.15-7.93c1.36-2.33,2.15-5.04,2.15-7.93s-.81-5.69-2.21-8.04c1.35-2.32,2.13-5.02,2.13-7.91,0-8.7-7.05-15.74-15.74-15.74h0ZM41.86,52.24c-2.3-1.31-4.96-2.07-7.8-2.07,0-.15.01-.29.01-.44,0-2.87-.77-5.56-2.12-7.88,1.34-2.31,2.1-5,2.1-7.86,2.87,0,5.55-.77,7.87-2.11,2.32,1.34,5,2.11,7.87,2.11.03,0,.05,0,.08,0,0,.07,0,.13,0,.2,0,2.89.78,5.6,2.15,7.93-1.36,2.33-2.15,5.04-2.15,7.93,0,.01,0,.03,0,.04-.03,0-.05,0-.08,0-2.9,0-5.61.79-7.94,2.15h0Z"/>
  </g>
</svg>