<?xml version="1.0" encoding="UTF-8"?>
<svg id="_레이어_2" data-name="레이어 2" xmlns="http://www.w3.org/2000/svg" viewBox="0 0 78.88 126.43">
  <g id="_레이어_1-2" data-name="레이어 1">
    <path d="M15.87,5c5.92,0,10.74,4.82,10.74,10.74,0,1.88-.5,3.73-1.43,5.36-.9,1.55-.89,3.46,0,5.01.94,1.63,1.44,3.49,1.44,5.38s-.5,3.75-1.44,5.38c-.9,1.55-.9,3.46,0,5.01.94,1.62,1.43,3.48,1.43,5.36v-.04s0,.2,0,.2c-.02,1.35.5,2.65,1.46,3.6.94.94,2.21,1.47,3.54,1.47.02,0,.03,0,.05,0h.13c1.81,0,3.59.47,5.16,1.34.75.42,1.59.63,2.43.63s1.73-.22,2.5-.67c1.63-.94,3.48-1.44,5.36-1.44s3.78.51,5.42,1.47c.78.46,1.66.69,2.53.69s1.75-.23,2.53-.69c1.64-.96,3.51-1.47,5.42-1.47,5.92,0,10.74,4.82,10.74,10.74,0,1.98-.54,3.91-1.56,5.58-.96,1.57-.98,3.54-.05,5.13.96,1.64,1.46,3.51,1.46,5.41s-.5,3.75-1.44,5.38c-.9,1.55-.9,3.46,0,5.01.94,1.62,1.43,3.48,1.43,5.36s-.5,3.73-1.43,5.36c-.9,1.55-.89,3.46,0,5.01.94,1.63,1.44,3.49,1.44,5.38,0,5.92-4.82,10.74-10.74,10.74s-10.74-4.82-10.74-10.74c0-1.88.5-3.73,1.43-5.36.9-1.55.89-3.46,0-5.01-.94-1.63-1.44-3.49-1.44-5.38s.5-3.75,1.44-5.38c.9-1.55.9-3.46,0-5.01-.94-1.62-1.43-3.48-1.43-5.35v-.09s0-.18,0-.18c.03-1.35-.48-2.65-1.42-3.61-.94-.96-2.23-1.51-3.58-1.51-.02,0-.03,0-.05,0-1.81,0-3.59-.47-5.16-1.34-.75-.42-1.59-.63-2.43-.63s-1.73.22-2.5.67c-1.63.94-3.48,1.44-5.36,1.44h.03s-.21,0-.21,0c-.02,0-.05,0-.07,0-1.32,0-2.6.53-3.54,1.46-.96.96-1.48,2.26-1.46,3.61v.2c0,1.88-.5,3.72-1.44,5.34-.9,1.55-.9,3.46,0,5.01.94,1.62,1.43,3.48,1.43,5.36s-.5,3.73-1.43,5.36c-.9,1.55-.89,3.46,0,5.01.94,1.63,1.44,3.49,1.44,5.38,0,5.92-4.82,10.74-10.74,10.74s-10.74-4.82-10.74-10.74c0-1.88.5-3.73,1.43-5.36.9-1.55.89-3.46,0-5.01-.94-1.63-1.44-3.49-1.44-5.38s.5-3.75,1.44-5.38c.9-1.55.9-3.46,0-5.01-.94-1.62-1.43-3.48-1.43-5.36,0-1.98.54-3.91,1.56-5.59.95-1.55.98-3.5.08-5.08-.92-1.61-1.4-3.44-1.4-5.3s.5-3.75,1.44-5.38c.92-1.58.9-3.53-.04-5.09-1-1.66-1.53-3.58-1.53-5.54s.5-3.75,1.44-5.38c.9-1.55.9-3.46,0-5.01-.94-1.62-1.43-3.48-1.43-5.36s.5-3.73,1.43-5.36c.9-1.55.89-3.46,0-5.01-.94-1.63-1.44-3.49-1.44-5.38,0-5.92,4.82-10.74,10.74-10.74M15.87,0C7.17,0,.12,7.05.12,15.74c0,2.87.77,5.56,2.12,7.88C.91,25.94.14,28.62.14,31.49s.77,5.55,2.1,7.86C.9,41.67.12,44.36.12,47.23s.82,5.75,2.25,8.12c-1.35,2.32-2.12,5.01-2.12,7.89s.75,5.48,2.05,7.77C.85,73.39.01,76.19.01,79.2s.77,5.55,2.1,7.86c-1.34,2.32-2.12,5.01-2.12,7.88s.77,5.56,2.12,7.88C.78,105.14.01,107.82.01,110.68c0,8.7,7.05,15.74,15.74,15.74s15.74-7.05,15.74-15.74c0-2.87-.77-5.56-2.12-7.88,1.34-2.31,2.1-5,2.1-7.86s-.77-5.55-2.1-7.86c1.34-2.32,2.12-5.01,2.12-7.88,0-.08,0-.16,0-.24.08,0,.17,0,.25,0,2.86,0,5.55-.77,7.86-2.11,2.26,1.25,4.86,1.97,7.62,1.97,0,0,.01,0,.02,0,0,.13,0,.25,0,.38,0,2.86.77,5.55,2.1,7.86-1.34,2.32-2.12,5.01-2.12,7.88s.77,5.56,2.12,7.88c-1.34,2.31-2.1,5-2.1,7.86,0,8.7,7.05,15.74,15.74,15.74s15.74-7.05,15.74-15.74c0-2.87-.77-5.56-2.12-7.88,1.34-2.31,2.1-5,2.1-7.86s-.77-5.55-2.1-7.86c1.34-2.32,2.12-5.01,2.12-7.88s-.78-5.6-2.14-7.93c1.46-2.39,2.3-5.19,2.3-8.19,0-8.7-7.05-15.74-15.74-15.74-2.9,0-5.62.79-7.95,2.16-2.33-1.37-5.05-2.16-7.95-2.16s-5.55.77-7.86,2.11c-2.26-1.25-4.86-1.97-7.62-1.97-.05,0-.09,0-.14,0,0-.08,0-.16,0-.24,0-2.86-.77-5.55-2.1-7.86,1.34-2.32,2.12-5.01,2.12-7.88s-.77-5.56-2.12-7.88c1.34-2.31,2.1-5,2.1-7.86C31.61,7.05,24.56,0,15.87,0h0Z"/>
  </g>
</svg>