<?xml version="1.0" encoding="UTF-8"?>
<svg id="_레이어_2" data-name="레이어 2" xmlns="http://www.w3.org/2000/svg" viewBox="0 0 31.63 126.65">
  <g id="_레이어_1-2" data-name="레이어 1">
    <path d="M15.74,5c5.92,0,10.74,4.82,10.74,10.74s-4.71,10.6-10.49,10.74c-.08,0-.17,0-.25.01-.08,0-.17-.01-.25-.01-5.79-.13-10.49-4.95-10.49-10.74S9.82,5,15.74,5M15.74,36.47c.08,0,.17.01.25.01,5.79.13,10.49,4.95,10.49,10.74,0,1.9-.5,3.77-1.46,5.4-.93,1.59-.91,3.55.05,5.12,1.02,1.67,1.56,3.6,1.56,5.57,0,1.87-.49,3.71-1.42,5.33-.88,1.54-.88,3.43,0,4.97.93,1.62,1.42,3.46,1.42,5.33s-.51,3.81-1.49,5.45c-.93,1.57-.93,3.52,0,5.09.97,1.65,1.49,3.53,1.49,5.45s-.51,3.8-1.48,5.44c-.92,1.57-.92,3.51,0,5.08.97,1.64,1.48,3.53,1.48,5.44,0,5.92-4.82,10.74-10.74,10.74s-10.74-4.82-10.74-10.74c0-1.92.51-3.8,1.48-5.44.92-1.57.92-3.51,0-5.08-.97-1.64-1.48-3.53-1.48-5.44s.51-3.81,1.49-5.46c.93-1.57.93-3.52,0-5.09-.97-1.65-1.49-3.53-1.49-5.46s.49-3.71,1.42-5.33c.88-1.54.88-3.43,0-4.97-.93-1.62-1.42-3.46-1.42-5.33s.5-3.77,1.46-5.4c.93-1.59.91-3.55-.05-5.12-1.02-1.67-1.56-3.6-1.56-5.58,0-5.79,4.71-10.6,10.49-10.74.08,0,.17,0,.25-.01M15.74,0C7.05,0,0,7.05,0,15.74s6.85,15.54,15.38,15.73c-8.53.19-15.38,7.16-15.38,15.73,0,2.99.84,5.79,2.29,8.17-1.36,2.33-2.14,5.03-2.14,7.93s.76,5.51,2.08,7.81c-1.32,2.3-2.08,4.97-2.08,7.81s.8,5.66,2.19,8c-1.39,2.34-2.19,5.08-2.19,8s.79,5.64,2.17,7.98c-1.38,2.34-2.17,5.07-2.17,7.98,0,8.7,7.05,15.74,15.74,15.74s15.74-7.05,15.74-15.74c0-2.91-.79-5.64-2.17-7.98,1.38-2.34,2.17-5.07,2.17-7.98s-.8-5.66-2.19-8c1.39-2.34,2.19-5.08,2.19-8s-.76-5.51-2.08-7.81c1.32-2.3,2.08-4.97,2.08-7.81,0-2.99-.84-5.79-2.29-8.17,1.36-2.33,2.14-5.03,2.14-7.93,0-8.57-6.85-15.54-15.38-15.73,8.53-.19,15.38-7.16,15.38-15.73S24.44,0,15.74,0h0Z"/>
  </g>
</svg>