<?xml version="1.0" encoding="UTF-8"?>
<svg id="_레이어_2" data-name="레이어 2" xmlns="http://www.w3.org/2000/svg" viewBox="0 0 63.02 110.55">
  <g id="_레이어_1-2" data-name="레이어 1">
    <g>
      <path d="M47.27,5c5.92,0,10.74,4.82,10.74,10.74s-4.82,10.74-10.74,10.74-10.74-4.82-10.74-10.74,4.82-10.74,10.74-10.74M47.27,0c-8.7,0-15.74,7.05-15.74,15.74s7.05,15.74,15.74,15.74,15.74-7.05,15.74-15.74S55.97,0,47.27,0h0Z"/>
      <path d="M47.27,36.71c5.92,0,10.74,4.82,10.74,10.74,0,1.92-.51,3.8-1.49,5.45-.93,1.57-.93,3.52,0,5.08.97,1.65,1.49,3.53,1.49,5.45s-.49,3.71-1.42,5.33c-.88,1.54-.88,3.43,0,4.97.93,1.62,1.42,3.46,1.42,5.33s-.5,3.74-1.44,5.37c-.9,1.55-.9,3.46,0,5.01.94,1.63,1.44,3.48,1.44,5.37,0,5.92-4.82,10.74-10.74,10.74-1.89,0-3.75-.5-5.38-1.44-.78-.45-1.64-.67-2.51-.67s-1.73.22-2.51.67c-1.63.94-3.49,1.44-5.38,1.44s-3.74-.5-5.37-1.44c-.78-.45-1.64-.67-2.51-.67s-1.73.22-2.51.67c-1.63.94-3.49,1.44-5.37,1.44-5.92,0-10.74-4.82-10.74-10.74s4.82-10.74,10.74-10.74c1.89,0,3.74.5,5.37,1.44.78.45,1.64.67,2.51.67s1.73-.22,2.51-.67c1.62-.94,3.47-1.44,5.35-1.44.01,0,.02,0,.03,0,.12,0,.24,0,.35-.01,2.63-.17,4.67-2.36,4.67-4.99,0-1.87.49-3.71,1.42-5.33.88-1.54.88-3.43,0-4.97-.93-1.62-1.42-3.46-1.42-5.33s.51-3.8,1.49-5.45c.93-1.57.93-3.52,0-5.08-.97-1.65-1.49-3.53-1.49-5.45,0-5.92,4.82-10.74,10.74-10.74M47.27,31.71c-8.7,0-15.74,7.05-15.74,15.74,0,2.92.8,5.65,2.18,7.99-1.38,2.34-2.18,5.07-2.18,7.99s.76,5.51,2.08,7.81c-1.32,2.3-2.08,4.97-2.08,7.81h0s-.02,0-.03,0c-2.87,0-5.56.77-7.88,2.12-2.32-1.34-5.01-2.12-7.88-2.12-8.7,0-15.74,7.05-15.74,15.74s7.05,15.74,15.74,15.74c2.87,0,5.56-.77,7.88-2.12,2.32,1.34,5.01,2.12,7.88,2.12s5.57-.77,7.89-2.12c2.32,1.35,5.01,2.12,7.89,2.12,8.7,0,15.74-7.05,15.74-15.74,0-2.87-.77-5.56-2.11-7.87,1.34-2.32,2.11-5,2.11-7.87s-.76-5.51-2.08-7.81c1.32-2.3,2.08-4.97,2.08-7.81s-.8-5.65-2.18-7.99c1.38-2.34,2.18-5.07,2.18-7.99,0-8.7-7.05-15.74-15.74-15.74h0Z"/>
    </g>
  </g>
</svg>