<?xml version="1.0" encoding="UTF-8"?>
<svg id="_레이어_2" data-name="레이어 2" xmlns="http://www.w3.org/2000/svg" viewBox="0 0 78.92 126.66">
  <g id="_레이어_1-2" data-name="레이어 1">
    <path d="M15.88,5c5.92,0,10.74,4.82,10.74,10.74,0,1.88-.49,3.73-1.43,5.35-.89,1.55-.89,3.46,0,5.01.95,1.63,1.45,3.49,1.45,5.38s-.51,3.77-1.46,5.41c-.91,1.56-.91,3.49,0,5.05.96,1.64,1.46,3.51,1.46,5.41s-.52,3.82-1.49,5.47c-.92,1.56-.93,3.5-.02,5.06.94,1.62,1.45,3.47,1.45,5.35v.19c-.02,1.33.49,2.62,1.43,3.57.92.94,2.17,1.47,3.48,1.49.04,0,.1,0,.12,0,.02,0,.05,0,.07,0,1.33,0,2.62-.53,3.56-1.48.96-.97,1.48-2.28,1.44-3.64v-.17s0-.1,0-.1c0-5.91,4.8-10.72,10.71-10.74.02,0,.04,0,.05,0,1.33,0,2.61-.53,3.55-1.47.94-.94,1.46-2.22,1.45-3.55,0-.05,0-.1,0-.15.03-5.9,4.84-10.69,10.74-10.69s10.74,4.82,10.74,10.74-4.8,10.72-10.7,10.74c-.02,0-.04,0-.06,0-1.33,0-2.61.53-3.55,1.48-.94.94-1.46,2.22-1.45,3.56,0,.05,0,.1,0,.15-.03,5.88-4.82,10.66-10.7,10.69h-.18s-.04,0-.06,0c-1.34,0-2.62.54-3.56,1.49-.96.97-1.48,2.28-1.44,3.64v.16s0,.09,0,.09c0,1.33.54,2.61,1.49,3.55.94.92,2.2,1.44,3.51,1.44.02,0,.04,0,.06,0,.06,0,.12,0,.18,0,5.9.03,10.69,4.84,10.69,10.74,0,2.76,2.24,5,5,5,.02,0,.04,0,.05,0,5.91.02,10.7,4.83,10.7,10.74s-4.82,10.74-10.74,10.74-10.74-4.82-10.74-10.74c0-2.76-2.24-5-5-5-.02,0-.03,0-.05,0-5.89-.02-10.69-4.82-10.7-10.72,0-1.33-.54-2.61-1.49-3.55-.94-.92-2.2-1.44-3.51-1.44-.02,0-.04,0-.06,0-.06,0-.13,0-.2,0-2.73.04-4.93,2.26-4.93,5,0,1.89-.5,3.75-1.44,5.38-.91,1.57-.9,3.51.03,5.07.99,1.66,1.51,3.56,1.51,5.49,0,5.92-4.82,10.74-10.74,10.74s-10.74-4.82-10.74-10.74c0-1.89.5-3.75,1.44-5.38.91-1.57.9-3.51-.03-5.07-.99-1.66-1.51-3.56-1.51-5.49s.51-3.79,1.47-5.43c.91-1.54.92-3.45.03-5.01-.92-1.61-1.41-3.45-1.41-5.31s.51-3.8,1.48-5.44c.92-1.57.92-3.51,0-5.08-.97-1.64-1.48-3.53-1.48-5.44s.52-3.82,1.49-5.47c.92-1.56.93-3.5.02-5.07-.95-1.63-1.45-3.5-1.45-5.39s.51-3.77,1.46-5.41c.91-1.56.91-3.49,0-5.05-.96-1.64-1.46-3.51-1.46-5.41s.49-3.73,1.43-5.35c.89-1.55.89-3.46,0-5.01-.95-1.63-1.45-3.49-1.45-5.38,0-5.92,4.82-10.74,10.74-10.74M15.88,0C7.18,0,.13,7.05.13,15.74c0,2.88.78,5.57,2.13,7.9C.93,25.95.16,28.63.16,31.49s.78,5.6,2.15,7.93c-1.36,2.33-2.15,5.04-2.15,7.93s.78,5.58,2.13,7.91C.9,57.6.1,60.34.1,63.27s.79,5.64,2.17,7.98c-1.38,2.34-2.17,5.07-2.17,7.98s.75,5.49,2.06,7.79c-1.37,2.34-2.16,5.05-2.16,7.96s.81,5.7,2.22,8.06c-1.35,2.32-2.12,5.01-2.12,7.89,0,8.7,7.05,15.74,15.74,15.74s15.74-7.05,15.74-15.74c0-2.95-.81-5.7-2.22-8.06,1.35-2.32,2.12-5.01,2.12-7.89.06,0,.13,0,.19,0,.02,8.68,7.06,15.71,15.74,15.71,0,0,0,0,.01,0h0c0,8.7,7.05,15.74,15.74,15.74s15.74-7.05,15.74-15.74-7.05-15.74-15.74-15.74c0,0,0,0-.01,0h0c0-8.7-7.05-15.74-15.74-15.74-.06,0-.13,0-.19,0,0-.12,0-.24,0-.37.07,0,.13,0,.2,0,8.7,0,15.74-7.05,15.74-15.74,0-.04,0-.08,0-.12,0,0,.01,0,.02,0,8.7,0,15.74-7.05,15.74-15.74s-7.05-15.74-15.74-15.74-15.74,7.05-15.74,15.74c0,.04,0,.08,0,.12,0,0-.01,0-.02,0-8.7,0-15.74,7.05-15.74,15.74,0,.13,0,.27.01.4-.04,0-.07,0-.11,0,0-.07,0-.15,0-.22,0-2.88-.78-5.58-2.13-7.91,1.39-2.35,2.19-5.09,2.19-8.02s-.78-5.6-2.15-7.93c1.36-2.33,2.15-5.04,2.15-7.93s-.78-5.57-2.13-7.9c1.33-2.31,2.1-4.99,2.1-7.85C31.62,7.05,24.57,0,15.88,0h0Z"/>
  </g>
</svg>