<?xml version="1.0" encoding="UTF-8"?>
<svg id="_레이어_2" data-name="레이어 2" xmlns="http://www.w3.org/2000/svg" viewBox="0 0 78.88 79.09">
  <g id="_레이어_1-2" data-name="레이어 1">
    <path d="M63.12,5c5.92,0,10.74,4.82,10.74,10.74,0,1.88-.5,3.73-1.43,5.36-.9,1.55-.89,3.46,0,5.01.94,1.63,1.44,3.49,1.44,5.38s-.51,3.79-1.48,5.44c-.92,1.56-.92,3.49,0,5.06.96,1.64,1.46,3.51,1.46,5.41s-.51,3.79-1.47,5.43c-.92,1.57-.92,3.51,0,5.08.98,1.65,1.49,3.54,1.49,5.46,0,5.92-4.82,10.74-10.74,10.74s-10.74-4.82-10.74-10.74c0-1.91.51-3.79,1.47-5.43.92-1.57.92-3.51,0-5.08-.98-1.65-1.49-3.54-1.49-5.46s.51-3.79,1.48-5.44c.92-1.56.92-3.5,0-5.06-.96-1.64-1.46-3.5-1.46-5.41,0-1.34-.53-2.62-1.48-3.55-.94-.93-2.2-1.45-3.52-1.45-.02,0-.04,0-.05,0-.06,0-.11,0-.17,0-5.35-.03-9.9-4.03-10.59-9.33-.06-.48-.19-.93-.38-1.35.18-.42.3-.88.36-1.36.65-5.38,5.23-9.44,10.66-9.44,1.91,0,3.78.51,5.42,1.47.78.46,1.66.69,2.53.69s1.75-.23,2.53-.69c1.64-.96,3.51-1.47,5.42-1.47M15.99,5.16c5.38,0,9.95,4.01,10.65,9.33.06.48.19.93.38,1.35-.18.42-.3.88-.36,1.36-.17,1.44-.63,2.81-1.36,4.06-.9,1.55-.9,3.46,0,5.01.94,1.63,1.44,3.48,1.44,5.37s-.5,3.73-1.43,5.35c-.89,1.55-.89,3.45,0,5,.94,1.62,1.43,3.48,1.43,5.35,0,1.98-.54,3.92-1.57,5.6-.95,1.56-.98,3.51-.08,5.09.92,1.61,1.41,3.45,1.41,5.31,0,5.92-4.82,10.74-10.74,10.74s-10.74-4.82-10.74-10.74c0-1.98.54-3.92,1.57-5.6.95-1.56.98-3.51.08-5.09-.92-1.61-1.41-3.45-1.41-5.31s.5-3.73,1.43-5.35c.89-1.55.89-3.45,0-5-.94-1.62-1.43-3.47-1.43-5.35s.5-3.74,1.44-5.37c.9-1.55.9-3.46,0-5.01-.94-1.63-1.44-3.48-1.44-5.37,0-5.92,4.82-10.74,10.74-10.74M63.12,0c-2.9,0-5.62.79-7.95,2.16-2.33-1.37-5.05-2.16-7.95-2.16-8.05,0-14.69,6.05-15.63,13.84C30.58,6.12,23.98.16,15.99.16,7.29.16.24,7.21.24,15.9c0,2.87.77,5.56,2.11,7.87C1.01,26.09.24,28.78.24,31.64s.77,5.54,2.1,7.85c-1.33,2.31-2.1,4.99-2.1,7.85s.75,5.49,2.07,7.79c-1.46,2.39-2.31,5.2-2.31,8.21,0,8.7,7.05,15.74,15.74,15.74s15.74-7.05,15.74-15.74c0-2.84-.75-5.49-2.07-7.79,1.46-2.39,2.31-5.2,2.31-8.21s-.77-5.54-2.1-7.85c1.33-2.31,2.1-4.99,2.1-7.85s-.77-5.56-2.11-7.87c1.04-1.8,1.73-3.82,1.99-5.97,1.01,7.72,7.61,13.69,15.61,13.69.06,0,.11,0,.17,0h0c0,2.9.78,5.6,2.14,7.93-1.38,2.34-2.17,5.06-2.17,7.97s.8,5.66,2.19,8.01c-1.37,2.34-2.16,5.05-2.16,7.96,0,8.7,7.05,15.74,15.74,15.74s15.74-7.05,15.74-15.74c0-2.92-.8-5.66-2.19-8,1.37-2.34,2.16-5.05,2.16-7.96s-.78-5.6-2.14-7.93c1.38-2.34,2.17-5.06,2.17-7.97s-.77-5.56-2.12-7.88c1.34-2.31,2.1-5,2.1-7.86,0-8.7-7.05-15.74-15.74-15.74h0Z"/>
  </g>
</svg>