<?xml version="1.0" encoding="UTF-8"?>
<svg id="_레이어_2" data-name="레이어 2" xmlns="http://www.w3.org/2000/svg" viewBox="0 0 83.82 84.31">
  <g id="_레이어_1-2" data-name="레이어 1">
    <path d="M34.24,7.5c1.91,0,3.78.51,5.42,1.47.78.46,1.65.69,2.53.69.82,0,1.65-.2,2.4-.61,1.59-.87,3.32-1.31,5.14-1.31s3.74.5,5.37,1.44c.77.45,1.64.67,2.5.67s1.73-.22,2.5-.67c1.63-.94,3.48-1.44,5.37-1.44,5.92,0,10.74,4.82,10.74,10.74,0,1.86-.49,3.7-1.41,5.31-.89,1.55-.88,3.47.03,5.01.96,1.64,1.47,3.52,1.47,5.43s-.5,3.75-1.44,5.38c-.9,1.55-.9,3.46,0,5.01.94,1.62,1.43,3.48,1.43,5.36s-.53,3.87-1.54,5.54c-.95,1.57-.96,3.54-.03,5.12.97,1.64,1.48,3.52,1.48,5.44,0,5.92-4.82,10.74-10.74,10.74-1.88,0-3.74-.5-5.37-1.44-.77-.45-1.64-.67-2.5-.67s-1.73.22-2.5.67c-1.63.94-3.48,1.44-5.37,1.44s-3.74-.5-5.37-1.44c-.77-.45-1.64-.67-2.5-.67s-1.73.22-2.5.67c-1.63.94-3.48,1.44-5.37,1.44s-3.9-.54-5.57-1.56c-.8-.49-1.7-.73-2.6-.73-.83,0-1.65.2-2.4.62-1.59.87-3.32,1.31-5.15,1.31-5.92,0-10.74-4.82-10.74-10.74,0-1.88.5-3.73,1.43-5.36.9-1.55.89-3.46,0-5.01-.94-1.63-1.44-3.49-1.44-5.38s.5-3.75,1.44-5.38c.9-1.55.9-3.46,0-5.01-.94-1.62-1.43-3.48-1.43-5.36s.5-3.73,1.43-5.36c.9-1.55.89-3.46,0-5.01-.94-1.63-1.44-3.49-1.44-5.38,0-5.92,4.82-10.74,10.74-10.74,1.86,0,3.7.49,5.32,1.41.77.44,1.62.66,2.48.66.91,0,1.81-.25,2.61-.74,1.68-1.03,3.61-1.57,5.59-1.57M34.24,28.99h.03s-.2,0-.2,0c-.03,0-.05,0-.08,0-1.32,0-2.59.53-3.53,1.46-.96.96-1.49,2.26-1.47,3.61v.2c0,1.88-.5,3.72-1.44,5.34-.9,1.55-.9,3.46,0,5.01.94,1.62,1.43,3.48,1.43,5.34v.07s0,.21,0,.21c-.03,1.34.49,2.64,1.43,3.6s2.23,1.5,3.57,1.5c.01,0,.03,0,.04,0,1.87,0,3.72.5,5.33,1.44.77.45,1.64.67,2.5.67s1.73-.22,2.5-.67c1.61-.93,3.45-1.43,5.31-1.44.04,0,.08,0,.11,0,.01,0,.03,0,.04,0,1.34,0,2.62-.54,3.56-1.49.95-.96,1.47-2.27,1.44-3.62v-.19s0-.06,0-.06c0-1.89.5-3.75,1.44-5.38.9-1.55.9-3.46,0-5.01-.94-1.62-1.43-3.48-1.43-5.36,0-1.33-.53-2.61-1.48-3.55-.94-.93-2.2-1.45-3.52-1.45-.01,0-.03,0-.04,0-.03,0-.07,0-.11,0-1.89,0-3.74-.52-5.37-1.47-.78-.46-1.65-.69-2.53-.69-.82,0-1.65.2-2.4.61-1.59.87-3.32,1.31-5.14,1.31M34.24,2.5c-3.01,0-5.82.84-8.2,2.31-2.3-1.31-4.96-2.07-7.8-2.07-8.7,0-15.74,7.05-15.74,15.74,0,2.87.77,5.56,2.12,7.88-1.34,2.31-2.1,5-2.1,7.86s.77,5.55,2.1,7.86c-1.34,2.32-2.12,5.01-2.12,7.88s.77,5.56,2.12,7.88c-1.34,2.31-2.1,5-2.1,7.86,0,8.7,7.05,15.74,15.74,15.74,2.74,0,5.31-.7,7.56-1.93,2.38,1.45,5.18,2.29,8.17,2.29s5.56-.77,7.87-2.11c2.32,1.34,5,2.11,7.87,2.11s5.56-.77,7.87-2.11c2.32,1.34,5,2.11,7.87,2.11,8.7,0,15.74-7.05,15.74-15.74,0-2.91-.79-5.64-2.17-7.98,1.43-2.37,2.26-5.15,2.26-8.12s-.77-5.55-2.1-7.86c1.34-2.32,2.12-5.01,2.12-7.88s-.79-5.62-2.16-7.96c1.31-2.3,2.06-4.95,2.06-7.79,0-8.7-7.05-15.74-15.74-15.74-2.87,0-5.56.77-7.87,2.11-2.32-1.34-5-2.11-7.87-2.11s-5.3.7-7.54,1.92c-2.33-1.37-5.05-2.16-7.95-2.16h0ZM34.24,33.99c2.73,0,5.3-.7,7.54-1.92,2.33,1.37,5.05,2.16,7.95,2.16.03,0,.07,0,.1,0h0c0,2.87.77,5.55,2.1,7.86-1.34,2.32-2.12,5.01-2.12,7.88,0,.12,0,.24,0,.36-.03,0-.06,0-.09,0-2.87,0-5.56.77-7.87,2.11-2.32-1.34-5-2.11-7.87-2.11,0,0,0,0,0,0,0-.12,0-.24,0-.36,0-2.86-.77-5.55-2.1-7.86,1.34-2.32,2.12-5.01,2.12-7.88,0-.08,0-.16,0-.24.08,0,.17,0,.25,0h0Z"/>
  </g>
</svg>