<?xml version="1.0" encoding="UTF-8"?>
<svg id="_레이어_2" data-name="레이어 2" xmlns="http://www.w3.org/2000/svg" viewBox="0 0 83.89 115.8">
  <g id="_레이어_1-2" data-name="레이어 1">
    <path d="M49.73,7.5c1.97,0,3.9.54,5.57,1.56.8.49,1.7.73,2.6.73.83,0,1.65-.2,2.4-.62,1.59-.87,3.32-1.31,5.15-1.31,5.92,0,10.74,4.82,10.74,10.74,0,1.84-.45,3.58-1.33,5.18-.85,1.54-.83,3.41.06,4.93.95,1.63,1.45,3.5,1.45,5.39s-.5,3.75-1.44,5.38c-.9,1.55-.9,3.46,0,5.01.94,1.62,1.43,3.48,1.43,5.36s-.52,3.84-1.52,5.5c-.95,1.58-.95,3.56,0,5.14,1,1.66,1.52,3.57,1.52,5.52s-.52,3.81-1.49,5.46c-.92,1.55-.93,3.47-.04,5.03.92,1.61,1.41,3.45,1.41,5.31s-.5,3.75-1.44,5.38c-.9,1.55-.9,3.46,0,5.01.94,1.62,1.43,3.48,1.43,5.36,0,5.92-4.82,10.74-10.74,10.74s-10.74-4.82-10.74-10.74c0-1.89.5-3.75,1.44-5.38.9-1.55.9-3.46,0-5.01-.94-1.62-1.43-3.48-1.43-5.36s.52-3.81,1.49-5.46c.92-1.55.93-3.47.04-5.03-.91-1.6-1.4-3.41-1.41-5.26,0-.05,0-.11,0-.16,0-1.35-.53-2.65-1.5-3.6-.94-.92-2.19-1.43-3.5-1.43-.04,0-.08,0-.12,0h-.18s-.09,0-.09,0c-1.84,0-3.65-.47-5.24-1.37-.76-.43-1.6-.64-2.45-.64s-1.71.22-2.48.66c-1.61.92-3.45,1.41-5.31,1.41s-3.66-.48-5.26-1.38c-.76-.43-1.61-.64-2.45-.64s-1.77.23-2.55.7c-1.65.98-3.54,1.5-5.47,1.5-5.92,0-10.74-4.82-10.74-10.74,0-1.99.55-3.94,1.59-5.63.98-1.58.99-3.58.04-5.18-.98-1.65-1.5-3.54-1.5-5.47s.49-3.69,1.4-5.3c.89-1.57.87-3.5-.06-5.05-1-1.66-1.52-3.57-1.52-5.51,0-5.92,4.82-10.74,10.74-10.74,1.88,0,3.74.5,5.37,1.44.77.45,1.64.67,2.5.67s1.73-.22,2.5-.67c1.63-.94,3.48-1.44,5.37-1.44s3.74.5,5.37,1.44c.77.45,1.64.67,2.5.67s1.73-.22,2.5-.67c1.63-.94,3.48-1.44,5.37-1.44M29.16,34.12v.05s0,.19,0,.19c-.03,1.34.48,2.63,1.41,3.59.93.96,2.21,1.51,3.55,1.52,1.81.01,3.59.49,5.16,1.36.76.43,1.6.64,2.45.64s1.71-.22,2.48-.66c1.61-.92,3.45-1.41,5.31-1.41h.1s.18,0,.18,0c.04,0,.08,0,.12,0,1.32,0,2.59-.52,3.53-1.46.97-.96,1.5-2.28,1.47-3.65v-.18s0-.07,0-.11c0-1.34-.52-2.63-1.47-3.57-.94-.93-2.21-1.46-3.53-1.46-.02,0-.04,0-.05,0h-.16c-1.87,0-3.71-.5-5.33-1.43-.77-.45-1.64-.67-2.5-.67s-1.73.22-2.5.67c-1.59.92-3.4,1.42-5.25,1.43-1.33.01-2.59.56-3.52,1.5-.93.95-1.44,2.23-1.43,3.55v.08M49.73,2.5c-2.87,0-5.56.77-7.87,2.11-2.32-1.34-5-2.11-7.87-2.11s-5.56.77-7.87,2.11c-2.32-1.34-5-2.11-7.87-2.11-8.7,0-15.74,7.05-15.74,15.74,0,2.96.82,5.72,2.23,8.08-1.31,2.3-2.06,4.95-2.06,7.78s.8,5.68,2.2,8.03c-1.48,2.4-2.33,5.22-2.33,8.25,0,8.7,7.05,15.74,15.74,15.74,2.93,0,5.68-.8,8.03-2.2,2.28,1.29,4.91,2.02,7.72,2.02s5.49-.75,7.79-2.07c2.27,1.28,4.9,2.01,7.69,2.01.13,0,.26,0,.39,0,0,.04,0,.09,0,.13,0,2.84.75,5.5,2.07,7.79-1.39,2.35-2.19,5.08-2.19,8.01s.77,5.55,2.1,7.86c-1.34,2.32-2.12,5.01-2.12,7.88,0,8.69,7.05,15.74,15.74,15.74,0,0,0,0,0,0,8.7,0,15.74-7.05,15.74-15.74,0-2.86-.77-5.55-2.1-7.86,1.34-2.32,2.12-5.01,2.12-7.88s-.75-5.5-2.07-7.79c1.39-2.35,2.19-5.08,2.19-8.01s-.82-5.73-2.24-8.09c1.41-2.36,2.22-5.12,2.22-8.07s-.77-5.55-2.1-7.86c1.34-2.32,2.12-5.01,2.12-7.88s-.78-5.59-2.13-7.91c1.24-2.25,1.95-4.84,1.95-7.6,0-8.7-7.05-15.74-15.74-15.74-2.74,0-5.31.7-7.56,1.93-2.38-1.45-5.18-2.29-8.17-2.29h0ZM41.72,36.47c-2.24-1.26-4.82-1.98-7.56-2,0-.12,0-.24,0-.36,0-.04,0-.08,0-.12,2.8-.03,5.43-.79,7.7-2.11,2.32,1.34,5,2.11,7.87,2.11.06,0,.11,0,.17,0,0,.04,0,.08,0,.12,0,.1,0,.2,0,.31-.13,0-.26-.01-.4-.01-2.84,0-5.49.75-7.79,2.07h0Z"/>
  </g>
</svg>