<?xml version="1.0" encoding="UTF-8"?>
<svg id="_레이어_2" data-name="레이어 2" xmlns="http://www.w3.org/2000/svg" viewBox="0 0 78.86 79.09">
  <g id="_레이어_1-2" data-name="레이어 1">
    <path d="M63.12,5c5.92,0,10.74,4.82,10.74,10.74s-4.82,10.74-10.74,10.74c-1.91,0-3.78-.51-5.42-1.47-.78-.46-1.66-.69-2.53-.69s-1.75.23-2.53.69c-1.6.94-3.43,1.44-5.3,1.47-1.33.02-2.6.56-3.53,1.52-.93.96-1.44,2.24-1.41,3.57v.19c-.01,5.88-4.81,10.68-10.69,10.71-2.74.01-4.96,2.22-4.98,4.96-.01,1.96-.56,3.86-1.57,5.52-.95,1.56-.98,3.51-.08,5.09.92,1.61,1.41,3.45,1.41,5.31,0,5.92-4.82,10.74-10.74,10.74s-10.74-4.82-10.74-10.74c0-1.98.54-3.92,1.57-5.6.95-1.56.98-3.51.08-5.09-.92-1.61-1.41-3.45-1.41-5.31s.5-3.73,1.43-5.35c.89-1.55.89-3.45,0-5-.94-1.62-1.43-3.48-1.43-5.35s.5-3.74,1.44-5.37c.9-1.55.9-3.46,0-5.01-.94-1.63-1.44-3.48-1.44-5.37,0-5.92,4.82-10.74,10.74-10.74,5.38,0,9.95,4.01,10.65,9.33.33,2.49,2.45,4.35,4.96,4.35,0,0,.02,0,.03,0,2.52-.01,4.64-1.9,4.94-4.4.65-5.38,5.23-9.44,10.66-9.44,1.91,0,3.78.51,5.42,1.47.78.46,1.66.69,2.53.69s1.75-.23,2.53-.69c1.64-.96,3.51-1.47,5.42-1.47M63.12,0c-2.9,0-5.62.79-7.95,2.16-2.33-1.37-5.05-2.16-7.95-2.16-8.05,0-14.69,6.05-15.63,13.84C30.58,6.12,23.98.16,15.99.16,7.29.16.24,7.21.24,15.9c0,2.87.77,5.56,2.11,7.87C1.01,26.09.24,28.78.24,31.64s.77,5.54,2.1,7.85c-1.33,2.31-2.1,4.99-2.1,7.85s.75,5.49,2.07,7.79c-1.46,2.39-2.31,5.2-2.31,8.21,0,8.7,7.05,15.74,15.74,15.74s15.74-7.05,15.74-15.74c0-2.84-.75-5.49-2.07-7.79,1.44-2.36,2.28-5.13,2.3-8.09,8.67-.04,15.68-7.07,15.68-15.74,0-.08,0-.16,0-.24,2.83-.03,5.48-.81,7.77-2.15,2.33,1.37,5.05,2.16,7.95,2.16,8.7,0,15.74-7.05,15.74-15.74S71.81,0,63.12,0h0Z"/>
  </g>
</svg>