<?xml version="1.0" encoding="UTF-8"?>
<svg id="_레이어_2" data-name="레이어 2" xmlns="http://www.w3.org/2000/svg" viewBox="0 0 78.96 95">
  <g id="_레이어_1-2" data-name="레이어 1">
    <path d="M63.22,5c5.92,0,10.74,4.82,10.74,10.74s-4.82,10.74-10.74,10.74c-1.87,0-3.72-.49-5.33-1.42-.77-.44-1.63-.66-2.49-.66s-1.74.23-2.52.68c-1.64.96-3.51,1.46-5.41,1.46s-3.74-.5-5.37-1.44c-.77-.45-1.64-.67-2.5-.67s-1.73.22-2.5.67c-1.61.93-3.44,1.43-5.31,1.44-.04,0-.08,0-.12,0-.01,0-.02,0-.04,0-1.34,0-2.62.53-3.56,1.49-.95.96-1.47,2.26-1.44,3.61,0,.02,0,.06,0,.08.07,2.7,2.29,4.86,5,4.86.01,0,.03,0,.04,0,1.94,0,3.83.53,5.48,1.52.79.47,1.68.71,2.57.71s1.7-.22,2.46-.65c1.6-.91,3.43-1.39,5.28-1.39s3.62.47,5.21,1.35c.76.42,1.59.63,2.43.63.88,0,1.77-.23,2.55-.7,1.65-.98,3.54-1.5,5.47-1.5,5.92,0,10.74,4.82,10.74,10.74,0,1.92-.51,3.81-1.49,5.45-.92,1.55-.93,3.48-.03,5.04.93,1.62,1.43,3.47,1.43,5.35s-.51,3.8-1.48,5.44c-.93,1.58-.92,3.55.02,5.12,1,1.66,1.53,3.58,1.53,5.53,0,5.92-4.82,10.74-10.74,10.74-1.88,0-3.74-.5-5.37-1.44-.77-.45-1.64-.67-2.5-.67s-1.73.22-2.5.67c-1.63.94-3.48,1.44-5.37,1.44s-3.74-.5-5.37-1.44c-.77-.45-1.64-.67-2.5-.67s-1.73.22-2.5.67c-1.63.94-3.48,1.44-5.37,1.44s-3.74-.5-5.37-1.44c-.77-.45-1.64-.67-2.5-.67s-1.73.22-2.5.67c-1.63.94-3.48,1.44-5.37,1.44-5.92,0-10.74-4.82-10.74-10.74s4.82-10.74,10.74-10.74c1.89,0,3.74.5,5.37,1.44.77.45,1.64.67,2.5.67s1.73-.22,2.5-.67c1.63-.94,3.48-1.44,5.37-1.44s3.74.5,5.37,1.44c.77.45,1.64.67,2.5.67s1.73-.22,2.5-.67c1.61-.93,3.45-1.43,5.32-1.44,1.34,0,2.62-.55,3.56-1.51.94-.96,1.45-2.26,1.42-3.6v-.18c-.03-2.72-2.23-4.93-4.95-4.95-1.91-.02-3.78-.55-5.4-1.52-.79-.47-1.68-.71-2.57-.71s-1.7.22-2.46.65c-1.6.91-3.43,1.39-5.28,1.39s-3.7-.49-5.32-1.41c-.77-.44-1.62-.66-2.48-.66s-1.75.23-2.53.68c-1.64.96-3.51,1.46-5.41,1.46-5.92,0-10.74-4.82-10.74-10.74,0-1.88.5-3.73,1.43-5.36.9-1.55.89-3.46,0-5.01-.94-1.63-1.44-3.49-1.44-5.38s.49-3.72,1.42-5.34c.9-1.57.89-3.51-.04-5.06-.99-1.66-1.52-3.56-1.52-5.5,0-5.92,4.82-10.74,10.74-10.74,1.93,0,3.82.52,5.47,1.5.79.47,1.67.7,2.55.7s1.75-.23,2.53-.69c1.64-.96,3.51-1.47,5.42-1.47s3.74.5,5.37,1.44c.77.45,1.64.67,2.5.67s1.73-.22,2.5-.67c1.63-.94,3.48-1.44,5.37-1.44s3.72.49,5.33,1.42c.77.44,1.63.66,2.49.66s1.74-.23,2.52-.68c1.64-.96,3.51-1.46,5.41-1.46M63.22,0c-2.89,0-5.6.78-7.93,2.15C52.98.82,50.31.06,47.46.06s-5.56.77-7.87,2.11C37.27.83,34.59.06,31.72.06s-5.62.79-7.95,2.16C21.42.83,18.68.02,15.74.02,7.05.02,0,7.07,0,15.77c0,2.95.81,5.71,2.23,8.07C.9,26.14.14,28.82.14,31.67s.77,5.56,2.12,7.88c-1.34,2.31-2.1,5-2.1,7.86,0,8.7,7.05,15.74,15.74,15.74,2.9,0,5.61-.79,7.94-2.15,2.3,1.31,4.96,2.07,7.8,2.07s5.46-.74,7.74-2.04c2.32,1.39,5.03,2.2,7.92,2.23,0,.08,0,.16,0,.24-2.84.01-5.51.78-7.81,2.11-2.32-1.34-5-2.11-7.87-2.11s-5.56.77-7.87,2.11c-2.32-1.34-5-2.11-7.87-2.11-8.7,0-15.74,7.05-15.74,15.74s7.05,15.74,15.74,15.74c2.87,0,5.56-.77,7.87-2.11,2.32,1.34,5,2.11,7.87,2.11s5.56-.77,7.87-2.11c2.32,1.34,5,2.11,7.87,2.11s5.56-.77,7.87-2.11c2.32,1.34,5,2.11,7.87,2.11,8.7,0,15.74-7.05,15.74-15.74,0-2.97-.82-5.75-2.25-8.12,1.38-2.34,2.18-5.07,2.18-7.99s-.77-5.54-2.1-7.85c1.39-2.34,2.19-5.08,2.19-8,0-8.7-7.05-15.74-15.74-15.74-2.93,0-5.67.8-8.02,2.2-2.26-1.26-4.87-1.98-7.64-1.98s-5.46.74-7.74,2.04c-2.36-1.42-5.13-2.24-8.09-2.24,0,0,0,0,0,0,0-.01,0-.03,0-.04.03,0,.07,0,.1,0,2.87,0,5.56-.77,7.87-2.11,2.32,1.34,5,2.11,7.87,2.11s5.6-.78,7.93-2.15c2.31,1.32,4.97,2.08,7.82,2.08,8.7,0,15.74-7.05,15.74-15.74S71.92,0,63.22,0h0Z"/>
  </g>
</svg>