<?xml version="1.0" encoding="UTF-8"?>
<svg id="_레이어_2" data-name="레이어 2" xmlns="http://www.w3.org/2000/svg" viewBox="0 0 62.98 110.68">
  <g id="_레이어_1-2" data-name="레이어 1">
    <path d="M31.49,5c5.92,0,10.74,4.82,10.74,10.74,0,1.88-.5,3.73-1.43,5.36-.9,1.55-.89,3.46,0,5.01.93,1.6,1.43,3.43,1.44,5.29.02,2.75,2.25,4.96,5,4.96,5.92,0,10.74,4.82,10.74,10.74s-4.81,10.73-10.72,10.74c-.01,0-.02,0-.03,0-1.34,0-2.62.54-3.56,1.49s-1.46,2.25-1.44,3.59v.18c0,1.85-.49,3.67-1.4,5.27-.89,1.56-.88,3.48.04,5.03.97,1.65,1.49,3.53,1.49,5.46s-.52,3.82-1.5,5.48c-.94,1.57-.94,3.53,0,5.11.98,1.65,1.5,3.55,1.5,5.48,0,5.92-4.82,10.74-10.74,10.74s-10.74-4.82-10.74-10.74c0-1.93.52-3.82,1.5-5.48.94-1.57.94-3.54,0-5.11-.98-1.65-1.5-3.55-1.5-5.48s.49-3.7,1.41-5.31c.89-1.56.88-3.48-.04-5.02-.97-1.64-1.48-3.51-1.49-5.42v-.2c.02-1.34-.5-2.63-1.44-3.58s-2.22-1.49-3.56-1.49c-.01,0-.02,0-.03,0-5.91-.01-10.72-4.83-10.72-10.74s4.8-10.72,10.71-10.74c.02,0,.04,0,.05,0,2.75,0,4.98-2.22,5-4.96.01-1.86.51-3.68,1.43-5.28.9-1.55.89-3.46,0-5.01-.94-1.63-1.44-3.49-1.44-5.38,0-5.92,4.82-10.74,10.74-10.74M31.49,0c-8.7,0-15.74,7.05-15.74,15.74,0,2.87.77,5.56,2.12,7.88-1.32,2.28-2.08,4.92-2.1,7.74,0,0-.01,0-.02,0-8.7,0-15.74,7.05-15.74,15.74s7.05,15.74,15.74,15.74c0,0,0,0,0,0,0,.08,0,.15,0,.23,0,2.92.8,5.66,2.19,8-1.31,2.3-2.06,4.96-2.06,7.79s.81,5.68,2.2,8.03c-1.4,2.35-2.2,5.1-2.2,8.03,0,8.7,7.05,15.74,15.74,15.74s15.74-7.05,15.74-15.74c0-2.93-.81-5.68-2.2-8.03,1.4-2.35,2.2-5.1,2.2-8.03s-.8-5.66-2.19-8c1.31-2.3,2.06-4.96,2.06-7.79,0-.08,0-.15,0-.23,0,0,0,0,0,0,8.7,0,15.74-7.05,15.74-15.74s-7.04-15.74-15.73-15.74c-.02-2.83-.79-5.48-2.12-7.77,1.34-2.31,2.1-5,2.1-7.86,0-8.7-7.05-15.74-15.74-15.74h0Z"/>
  </g>
</svg>