<?xml version="1.0" encoding="UTF-8"?>
<svg id="_레이어_2" data-name="레이어 2" xmlns="http://www.w3.org/2000/svg" viewBox="0 0 78.92 79.23">
  <g id="_레이어_1-2" data-name="레이어 1">
    <path d="M63.18,5c5.92,0,10.74,4.82,10.74,10.74s-4.8,10.72-10.7,10.74c-.02,0-.04,0-.06,0-1.33,0-2.61.53-3.55,1.48-.94.94-1.46,2.22-1.45,3.55,0,.05,0,.1,0,.15-.03,5.88-4.82,10.66-10.7,10.68h-.18s-.04,0-.06,0c-1.33,0-2.61.53-3.55,1.48-.95.97-1.48,2.28-1.44,3.63v.19s0,.09,0,.09c0,5.92-4.82,10.74-10.74,10.74-2.76,0-5,2.24-5,5,0,5.92-4.82,10.74-10.74,10.74s-10.74-4.82-10.74-10.74c0-1.91.51-3.79,1.47-5.43.91-1.54.92-3.45.03-5.01-.92-1.61-1.41-3.45-1.41-5.31s.51-3.8,1.48-5.44c.92-1.57.92-3.51,0-5.08-.97-1.64-1.48-3.53-1.48-5.44s.52-3.82,1.49-5.47c.92-1.56.93-3.5.02-5.06-.95-1.63-1.45-3.5-1.45-5.39,0-5.92,4.82-10.74,10.74-10.74s10.74,4.82,10.74,10.74c0,1.93-.52,3.82-1.49,5.47-.92,1.56-.93,3.5-.02,5.07.94,1.62,1.44,3.47,1.45,5.35v.18c-.03,1.34.49,2.63,1.42,3.58.92.94,2.17,1.48,3.48,1.5.04,0,.1,0,.13,0,.02,0,.05,0,.07,0,1.33,0,2.61-.53,3.55-1.48.96-.97,1.48-2.28,1.44-3.64v-.19s0-.09,0-.09c0-5.91,4.8-10.72,10.7-10.74.02,0,.04,0,.06,0,1.33,0,2.61-.53,3.55-1.48.94-.94,1.46-2.22,1.45-3.55,0-.05,0-.1,0-.15.03-5.9,4.84-10.69,10.74-10.69M63.18,0c-8.7,0-15.74,7.05-15.74,15.74,0,.04,0,.08,0,.12,0,0-.01,0-.02,0-8.69,0-15.74,7.05-15.74,15.74,0,.13,0,.27.01.4-.04,0-.07,0-.11,0,0-.07,0-.15,0-.22,0-2.88-.78-5.58-2.13-7.91,1.39-2.35,2.19-5.09,2.19-8.02C31.65,7.17,24.6.12,15.91.12S.16,7.17.16,15.86c0,2.88.78,5.58,2.13,7.91C.9,26.12.1,28.86.1,31.78s.79,5.64,2.17,7.98C.89,42.11.1,44.83.1,47.75s.75,5.49,2.06,7.79c-1.37,2.34-2.16,5.05-2.16,7.96,0,8.7,7.05,15.74,15.74,15.74s15.74-7.05,15.74-15.74c8.7,0,15.74-7.05,15.74-15.74,0-.13,0-.27-.01-.4.07,0,.13,0,.2,0,8.7,0,15.74-7.05,15.74-15.74,0-.04,0-.08,0-.12,0,0,.01,0,.02,0,8.7,0,15.74-7.05,15.74-15.74S71.87,0,63.18,0h0Z"/>
  </g>
</svg>