<?xml version="1.0" encoding="UTF-8"?>
<svg id="_레이어_2" data-name="레이어 2" xmlns="http://www.w3.org/2000/svg" viewBox="0 0 94.74 79.09">
  <defs>
    <style>
      .cls-1 {
        fill: none;
        stroke: #000;
        stroke-linejoin: round;
        stroke-width: 5px;
      }
    </style>
  </defs>
  <g id="_레이어_1-2" data-name="레이어 1">
    <g>
      <path class="cls-1" d="M31.62,32.39s0-.06,0-.09c-.13,2.59-.89,5.01-2.12,7.12,1.32,2.3,2.08,4.97,2.08,7.81,0,.09,0,.17,0,.26.02,0,.04,0,.06,0,0-.04,0-.08,0-.12,0-2.88.78-5.58,2.13-7.91-1.23-2.1-1.99-4.5-2.13-7.07"/>
      <path d="M78.98,5c5.92,0,10.74,4.82,10.74,10.74,0,1.88-.5,3.73-1.43,5.36-.9,1.55-.89,3.46,0,5.01.94,1.63,1.44,3.49,1.44,5.38s-.5,3.75-1.44,5.38c-.9,1.55-.9,3.46,0,5.01.94,1.62,1.43,3.48,1.43,5.36,0,1.98-.54,3.91-1.56,5.59-.95,1.55-.98,3.5-.08,5.08.92,1.61,1.4,3.44,1.4,5.3,0,5.92-4.82,10.74-10.74,10.74-1.88,0-3.73-.5-5.36-1.43-.77-.45-1.64-.67-2.5-.67s-1.73.23-2.51.68c-1.63.95-3.49,1.45-5.38,1.45-5.57,0-10.16-4.17-10.69-9.7-.24-2.57-2.4-4.52-4.98-4.52h0c-2.58,0-4.73,1.96-4.98,4.53-.52,5.54-5.12,9.72-10.69,9.72-1.88,0-3.73-.49-5.35-1.43-.77-.45-1.64-.67-2.5-.67s-1.77.24-2.56.71c-1.66.99-3.56,1.51-5.49,1.51-5.92,0-10.74-4.82-10.74-10.74,0-1.96.53-3.88,1.54-5.55.95-1.57.96-3.54.03-5.13-.97-1.65-1.48-3.53-1.48-5.45s.51-3.77,1.46-5.41c.9-1.55.91-3.46.02-5.01-.93-1.62-1.42-3.46-1.42-5.33s.5-3.74,1.44-5.37c.9-1.55.9-3.46,0-5.01-.94-1.63-1.44-3.48-1.44-5.37,0-5.92,4.82-10.74,10.74-10.74s10.74,4.82,10.74,10.74c0,1.88-.5,3.74-1.44,5.37-.9,1.55-.9,3.46,0,5.01.84,1.46,1.32,3.04,1.42,4.72,0,.29,0,1.03,0,1.31-.1,1.69-.59,3.28-1.44,4.75-.9,1.55-.91,3.46-.02,5.01.93,1.62,1.42,3.46,1.42,5.33v-.02s0,.2,0,.2c-.02,1.35.5,2.64,1.45,3.6.94.95,2.22,1.48,3.55,1.48.01,0,.02,0,.03,0h.1s.08,0,.08,0c1.33,0,2.6-.54,3.53-1.48s1.45-2.22,1.44-3.55c0-.05,0-.1,0-.15,0-2.03.46-3.83,1.34-5.33.91-1.56.91-3.49,0-5.05-.76-1.3-1.21-2.88-1.33-4.69v-1.48c.38-5.62,5.07-10,10.72-10s10.63,4.82,10.63,10.74c0,2.06-.45,3.87-1.33,5.39-.91,1.56-.91,3.49,0,5.05.95,1.62,1.46,3.47,1.47,5.36,0,.12,0,.25,0,.37.03.78.24,1.51.59,2.16.22.42.51.81.85,1.15.53.54,1.17.94,1.86,1.19.51.19,1.06.29,1.64.3.02,0,.05,0,.07,0,1.31,0,2.57-.52,3.51-1.44.95-.94,1.49-2.22,1.49-3.56,0-.02,0-.05,0-.07h0v-.2c0-1.88.5-3.73,1.44-5.34.9-1.55.9-3.46,0-5.01-.94-1.62-1.43-3.48-1.43-5.36s.5-3.73,1.43-5.36c.9-1.55.89-3.46,0-5.01-.94-1.63-1.44-3.49-1.44-5.38,0-5.92,4.82-10.74,10.74-10.74M78.98,0c-8.7,0-15.74,7.05-15.74,15.74,0,2.87.77,5.56,2.12,7.88-1.34,2.31-2.1,5-2.1,7.86s.77,5.55,2.1,7.86c-1.34,2.32-2.12,5.01-2.12,7.88,0,.08,0,.16,0,.24,0,0,0,0,0,0h0s0,0,0,0h0s0,0-.01,0c0-.03,0-.07,0-.1,0-2.9-.79-5.62-2.16-7.96,1.35-2.32,2.01-5.02,2.01-7.91,0-8.7-6.93-15.74-15.63-15.74s-15.25,6.57-15.72,14.84v1.79c.14,2.57.78,4.97,2.01,7.07-1.35,2.32-2.01,5.02-2.01,7.91,0,.04,0,.08,0,.12-.02,0-.16,0-.18,0,0-.09,0-.17,0-.26,0-2.84-.76-5.51-2.08-7.81,1.23-2.11,1.99-4.53,2.12-7.12h0s0-1.61,0-1.61h0c-.13-2.57-.88-4.97-2.09-7.07,1.34-2.32,2.11-5,2.11-7.87C31.64,7.05,24.59,0,15.89,0S.15,7.05.15,15.74c0,2.87.77,5.56,2.11,7.87C.92,25.93.15,28.62.15,31.49s.76,5.51,2.08,7.81C.87,41.63.08,44.34.08,47.23s.8,5.65,2.18,7.99c-1.43,2.37-2.26,5.16-2.26,8.13,0,8.7,7.05,15.74,15.74,15.74,2.95,0,5.7-.81,8.06-2.22,2.31,1.33,4.99,2.1,7.85,2.1,8.19,0,14.92-6.25,15.67-14.25.76,7.98,7.49,14.23,15.67,14.23,2.88,0,5.57-.77,7.89-2.12,2.31,1.33,4.99,2.1,7.85,2.1,8.7,0,15.74-7.05,15.74-15.74,0-2.83-.75-5.48-2.05-7.77,1.46-2.39,2.3-5.19,2.3-8.19s-.77-5.55-2.1-7.86c1.34-2.32,2.12-5.01,2.12-7.88s-.77-5.56-2.12-7.88c1.34-2.31,2.1-5,2.1-7.86,0-8.7-7.05-15.74-15.74-15.74h0Z"/>
    </g>
  </g>
</svg>