<?xml version="1.0" encoding="UTF-8"?>
<svg id="_레이어_2" data-name="레이어 2" xmlns="http://www.w3.org/2000/svg" viewBox="0 0 101.02 84.34">
  <g id="_레이어_1-2" data-name="레이어 1">
    <path d="M84.11,5c6.5,0,11.79,5.29,11.79,11.79s-5.29,11.79-11.79,11.79c-2.06,0-4.09-.54-5.87-1.57-.77-.44-1.63-.67-2.49-.67s-1.72.22-2.49.67c-1.77,1.02-3.79,1.56-5.84,1.57-.02,0-.04,0-.05,0-1.34,0-2.63.54-3.57,1.5-.94.96-1.46,2.25-1.43,3.59v.15s0,.08,0,.12c0,1.33.51,2.6,1.45,3.54s2.2,1.48,3.53,1.48c6.47.03,11.73,5.32,11.73,11.79,0,1.34.53,2.62,1.49,3.56.94.93,2.2,1.44,3.51,1.44.02,0,.04,0,.06,0h.14c6.48.02,11.75,5.3,11.75,11.79s-5.29,11.79-11.79,11.79-11.79-5.29-11.79-11.8c0-1.33-.53-2.61-1.48-3.55-.94-.93-2.2-1.45-3.52-1.45-.02,0-.03,0-.05,0h-.15c-6.27-.02-11.42-4.92-11.74-11.18-.13-2.66-2.33-4.75-4.99-4.75s-4.86,2.09-4.99,4.75c-.31,6.27-5.48,11.18-11.77,11.19-2.76,0-5,2.24-5,5,0,6.5-5.29,11.79-11.79,11.79s-11.79-5.29-11.79-11.79,5.28-11.79,11.78-11.79c2.76,0,5-2.24,5-5,0-6.48,5.26-11.76,11.73-11.79.01,0,.02,0,.03,0,.03,0,.05,0,.08,0,1.32,0,2.59-.52,3.53-1.46.96-.95,1.49-2.25,1.47-3.6,0-.03,0-.06,0-.09v-.16c.03-1.34-.49-2.63-1.43-3.59-.94-.96-2.22-1.49-3.57-1.49,0,0-.02,0-.03,0-2.03,0-4.03-.53-5.79-1.53-.77-.44-1.62-.65-2.47-.65-.9,0-1.8.24-2.6.73-1.84,1.12-3.95,1.71-6.12,1.71-6.5,0-11.79-5.29-11.79-11.79s5.29-11.79,11.79-11.79c2.04,0,4.04.53,5.81,1.53.77.44,1.62.65,2.47.65.9,0,1.8-.24,2.6-.73,1.84-1.12,3.95-1.71,6.12-1.71,6.5,0,11.79,5.29,11.79,11.79v-.03s0,.21,0,.21c-.02,1.34.5,2.63,1.44,3.58.93.94,2.19,1.48,3.51,1.49.03,0,.05,0,.08,0,1.34,0,2.63-.54,3.57-1.5.94-.96,1.46-2.25,1.43-3.59v-.2c.01-6.49,5.29-11.76,11.79-11.76,2.06,0,4.09.54,5.87,1.57.77.44,1.63.67,2.49.67s1.72-.22,2.49-.67c1.78-1.02,3.81-1.57,5.87-1.57M84.11,0c-3.05,0-5.9.81-8.36,2.23C73.28.81,70.43,0,67.38,0,58.11,0,50.59,7.52,50.59,16.79c0,.09,0,.17,0,.25,0,0-.01,0-.02,0,0,0,0,0,0,0,0-.08,0-.17,0-.25C50.58,7.52,43.06,0,33.79,0c-3.19,0-6.18.89-8.72,2.44-2.44-1.39-5.27-2.18-8.28-2.18C7.52.25,0,7.77,0,17.04s7.52,16.79,16.79,16.79c3.19,0,6.18-.89,8.72-2.44,2.44,1.39,5.27,2.18,8.28,2.18,0,0,0,0,0,0,0,.08,0,.17,0,.25,0,.04,0,.09,0,.13-.02,0-.03,0-.05,0-9.27,0-16.79,7.52-16.79,16.79h0c-9.27,0-16.78,7.52-16.78,16.79s7.52,16.79,16.79,16.79,16.79-7.52,16.79-16.79h0c8.98,0,16.31-7.06,16.75-15.94.45,8.88,7.78,15.94,16.77,15.94.05,0,.11,0,.16,0h0c0,9.28,7.52,16.8,16.79,16.8s16.79-7.52,16.79-16.79-7.52-16.79-16.79-16.79c-.05,0-.11,0-.16,0h0c0-9.25-7.47-16.75-16.71-16.79,0-.04,0-.09,0-.13,0-.09,0-.17,0-.25,0,0,.01,0,.02,0,3.05,0,5.9-.81,8.36-2.23,2.46,1.42,5.32,2.23,8.36,2.23,9.27,0,16.79-7.52,16.79-16.79S93.38,0,84.11,0h0Z"/>
  </g>
</svg>