<?xml version="1.0" encoding="UTF-8"?>
<svg id="_레이어_2" data-name="레이어 2" xmlns="http://www.w3.org/2000/svg" viewBox="0 0 78.83 110.73">
  <g id="_레이어_1-2" data-name="레이어 1">
    <path d="M63.06,5c5.92,0,10.74,4.82,10.74,10.74,0,1.87-.49,3.71-1.41,5.33-.88,1.54-.88,3.44,0,4.98.94,1.62,1.43,3.48,1.43,5.36s-.52,3.83-1.51,5.49c-.94,1.58-.94,3.54,0,5.12.99,1.66,1.51,3.55,1.51,5.49s-.51,3.78-1.47,5.42c-.91,1.56-.92,3.49,0,5.05.95,1.63,1.45,3.5,1.45,5.39s-.49,3.71-1.42,5.33c-.88,1.54-.88,3.43,0,4.97.93,1.62,1.42,3.46,1.42,5.33,0,5.92-4.81,10.73-10.72,10.74,0,0-.02,0-.03,0-1.34,0-2.62.54-3.56,1.49-.94.95-1.46,2.25-1.44,3.59v.2c-.01,5.91-4.83,10.71-10.74,10.71-1.89,0-3.74-.5-5.37-1.44-.78-.45-1.64-.67-2.51-.67s-1.73.22-2.51.67c-1.63.94-3.49,1.44-5.37,1.44-5.92,0-10.74-4.82-10.74-10.74s4.82-10.74,10.74-10.74c1.89,0,3.74.5,5.37,1.44.78.45,1.64.67,2.51.67s1.73-.22,2.51-.67c1.62-.94,3.47-1.44,5.35-1.44.01,0,.02,0,.03,0,1.34,0,2.62-.54,3.56-1.49s1.46-2.24,1.44-3.58v-.21c0-1.86.49-3.69,1.41-5.29.88-1.54.88-3.43,0-4.97-.93-1.62-1.42-3.46-1.41-5.34v-.21c.03-1.34-.49-2.63-1.43-3.59s-2.22-1.49-3.56-1.49c-.01,0-.02,0-.03,0-1.86,0-3.69-.49-5.3-1.41-.77-.44-1.63-.66-2.48-.66s-1.74.23-2.52.68c-1.64.96-3.51,1.46-5.41,1.46s-3.67-.48-5.27-1.38c-.76-.43-1.61-.65-2.46-.65s-1.77.23-2.55.7c-1.65.98-3.54,1.5-5.47,1.5-5.92,0-10.74-4.82-10.74-10.74,0-1.94.52-3.84,1.51-5.5.94-1.58.94-3.55,0-5.13-.99-1.66-1.51-3.56-1.51-5.5s.48-3.67,1.38-5.27c.87-1.54.86-3.43-.02-4.96-.94-1.62-1.43-3.48-1.43-5.36,0-5.92,4.82-10.74,10.74-10.74s10.74,4.82,10.74,10.74c0,1.85-.48,3.67-1.38,5.27-.87,1.54-.86,3.43.02,4.96.93,1.61,1.43,3.45,1.43,5.31,0,.07,0,.14,0,.21-.01,1.34.51,2.62,1.45,3.57.94.95,2.22,1.48,3.55,1.48.02,0,.04,0,.06,0,1.85,0,3.68.5,5.28,1.41.77.44,1.63.66,2.48.66s1.74-.23,2.52-.68c1.62-.95,3.47-1.45,5.36-1.46,0,0,.02,0,.02,0,.02,0,.04,0,.06,0,1.32,0,2.59-.52,3.53-1.46.95-.95,1.48-2.24,1.47-3.58,0-.06,0-.11,0-.18,0-1.85.5-3.67,1.41-5.27.88-1.54.88-3.44,0-4.98-.94-1.62-1.43-3.48-1.43-5.36,0-5.92,4.82-10.74,10.74-10.74M63.06,0c-8.7,0-15.74,7.05-15.74,15.74,0,2.86.77,5.54,2.1,7.86-1.32,2.3-2.08,4.97-2.08,7.81,0,.06,0,.11,0,.17-.01,0-.02,0-.03,0-2.89,0-5.6.78-7.93,2.15-2.3-1.32-4.97-2.08-7.81-2.08,0,0-.01,0-.02,0,0-.07,0-.14,0-.21,0-2.86-.77-5.54-2.1-7.86,1.29-2.28,2.03-4.92,2.03-7.73C31.49,7.16,24.44.11,15.74.11S0,7.16,0,15.85c0,2.86.77,5.54,2.1,7.86C.81,25.99.07,28.63.07,31.44s.81,5.7,2.22,8.06C.89,41.86.07,44.61.07,47.56c0,8.7,7.05,15.74,15.74,15.74,2.93,0,5.67-.8,8.02-2.2,2.28,1.29,4.92,2.03,7.73,2.03s5.6-.78,7.93-2.15c2.3,1.32,4.97,2.08,7.81,2.08,0,0,0,0,0,0,0,.1,0,.21,0,.31,0,2.84.76,5.51,2.08,7.81-1.32,2.3-2.08,4.97-2.08,7.81,0,.08,0,.16,0,.24,0,0,0,0,0,0-2.87,0-5.56.77-7.88,2.11-2.32-1.34-5.01-2.11-7.88-2.11-8.69,0-15.74,7.05-15.74,15.74s7.05,15.74,15.74,15.74c2.87,0,5.56-.77,7.88-2.11,2.32,1.34,5.01,2.11,7.88,2.11,8.69,0,15.74-7.05,15.74-15.74,0-.08,0-.16,0-.24,0,0,0,0,0,0,8.7,0,15.74-7.05,15.74-15.74,0-2.84-.76-5.51-2.08-7.81,1.32-2.3,2.08-4.97,2.08-7.81s-.78-5.58-2.13-7.91c1.37-2.33,2.16-5.05,2.16-7.96s-.81-5.69-2.21-8.05c1.4-2.36,2.21-5.11,2.21-8.05s-.77-5.54-2.1-7.86c1.32-2.3,2.08-4.97,2.08-7.81,0-8.7-7.05-15.74-15.74-15.74h0Z"/>
  </g>
</svg>