<?xml version="1.0" encoding="UTF-8"?>
<svg id="_레이어_2" data-name="레이어 2" xmlns="http://www.w3.org/2000/svg" viewBox="0 0 78.69 94.94">
  <g id="_레이어_1-2" data-name="레이어 1">
    <path d="M62.95,5c5.92,0,10.74,4.82,10.74,10.74s-4.8,10.72-10.7,10.74c-.02,0-.04,0-.06,0-1.33,0-2.61.53-3.55,1.47-.94.94-1.46,2.22-1.45,3.55,0,.05,0,.1,0,.15-.03,5.85-4.8,10.64-10.67,10.68-1.33,0-2.61.55-3.54,1.5-.93.95-1.45,2.24-1.43,3.57v.17c-.02,5.91-4.83,10.71-10.74,10.71-2.76,0-5,2.24-5,5s2.24,5,5,5c1.91,0,3.78.51,5.42,1.47.78.46,1.66.69,2.53.69s1.68-.21,2.44-.64c1.59-.89,3.4-1.36,5.24-1.36s3.74.5,5.37,1.44c.77.45,1.64.67,2.5.67s1.73-.22,2.5-.67c1.63-.94,3.48-1.44,5.37-1.44,5.92,0,10.74,4.82,10.74,10.74s-4.82,10.74-10.74,10.74c-1.89,0-3.74-.5-5.37-1.44-.77-.45-1.64-.67-2.5-.67s-1.73.22-2.5.67c-1.63.94-3.48,1.44-5.37,1.44s-3.78-.51-5.42-1.47c-.78-.46-1.66-.69-2.53-.69s-1.68.21-2.44.64c-1.59.89-3.4,1.36-5.24,1.36s-3.7-.49-5.31-1.41c-.77-.44-1.62-.66-2.48-.66s-1.76.23-2.54.7c-1.65.97-3.53,1.49-5.45,1.49-5.92,0-10.74-4.82-10.74-10.74,0-1.91.51-3.79,1.48-5.44.92-1.56.92-3.48.02-5.05-.95-1.63-1.45-3.49-1.45-5.38,0-5.92,4.82-10.74,10.74-10.74,2.76,0,5-2.24,5-5,0-5.88,4.78-10.7,10.67-10.74,1.33,0,2.6-.55,3.53-1.5s1.45-2.23,1.43-3.56v-.13s0-.07,0-.11c.02-2.76-2.21-5.01-4.96-5.03-1.82-.01-3.62-.49-5.2-1.38-.76-.43-1.61-.65-2.46-.65-.89,0-1.78.24-2.57.71-1.66,1-3.57,1.52-5.51,1.52-5.92,0-10.74-4.82-10.74-10.74S9.82,5.2,15.74,5.2c1.85,0,3.67.48,5.28,1.39.76.43,1.61.65,2.46.65.89,0,1.78-.24,2.57-.71,1.66-1,3.57-1.52,5.51-1.52s3.83.52,5.49,1.51c.79.47,1.67.7,2.56.7s1.69-.21,2.45-.64c1.6-.9,3.41-1.37,5.25-1.37s3.63.47,5.21,1.35c.76.42,1.59.63,2.43.63.88,0,1.76-.23,2.54-.69,1.65-.97,3.53-1.49,5.45-1.49M62.95,0c-2.92,0-5.65.8-7.99,2.18-2.26-1.26-4.87-1.98-7.65-1.98s-5.42.73-7.7,2.01c-2.35-1.4-5.11-2.21-8.05-2.21s-5.72.82-8.08,2.23C21.19.94,18.56.2,15.74.2,7.05.2,0,7.25,0,15.94s7.05,15.74,15.74,15.74c2.96,0,5.72-.82,8.08-2.23,2.25,1.27,4.85,2.01,7.62,2.03,0,.04,0,.08,0,.12,0,.07,0,.13,0,.2-8.64.06-15.63,7.08-15.63,15.74C7.12,47.55.07,54.6.07,63.29c0,2.88.78,5.57,2.12,7.89C.82,73.52.03,76.25.03,79.16c0,8.7,7.05,15.74,15.74,15.74,2.92,0,5.65-.8,8-2.18,2.3,1.31,4.96,2.07,7.79,2.07s5.41-.73,7.68-2c2.33,1.37,5.05,2.16,7.96,2.16s5.56-.77,7.87-2.11c2.32,1.34,5,2.11,7.87,2.11,8.7,0,15.74-7.05,15.74-15.74s-7.05-15.74-15.74-15.74c-2.87,0-5.56.77-7.87,2.11-2.32-1.34-5-2.11-7.87-2.11s-5.41.73-7.68,2c-2.33-1.37-5.05-2.16-7.96-2.16,8.7,0,15.74-7.05,15.74-15.74,0-.07,0-.13,0-.2,8.64-.06,15.63-7.08,15.63-15.74,0-.04,0-.08,0-.12,0,0,.01,0,.02,0,8.7,0,15.74-7.05,15.74-15.74S71.64,0,62.95,0h0Z"/>
  </g>
</svg>