<?xml version="1.0" encoding="UTF-8"?>
<svg id="_레이어_2" data-name="레이어 2" xmlns="http://www.w3.org/2000/svg" viewBox="0 0 77.39 124.49">
  <g id="_레이어_1-2" data-name="레이어 1">
    <g>
      <g>
        <path d="M46.48,62.13s0,.08,0,.11c0,.04,0,.08,0,.12,2.82,0,5.45.76,7.72,2.08,2.27-1.32,4.9-2.07,7.72-2.08,0-.04,0-.08,0-.12,0-.04,0-.08,0-.11-2.82,0-5.45-.76-7.72-2.08-2.27,1.32-4.9,2.07-7.72,2.08Z"/>
        <path d="M61.95,62.13s0,.08,0,.11c0,.04,0,.08,0,.12,2.81,0,5.45.76,7.71,2.08,2.27-1.32,4.91-2.07,7.72-2.08,0-.04,0-.08,0-.12,0-.04,0-.08,0-.11-2.81,0-5.45-.76-7.72-2.08-2.26,1.32-4.9,2.07-7.71,2.08Z"/>
        <path d="M61.92,62.36c-.02,2.79-.78,5.42-2.1,7.67,1.32,2.25,2.09,4.87,2.1,7.67h.04c.02-2.79.78-5.41,2.1-7.67-1.32-2.25-2.09-4.88-2.1-7.67h-.04Z"/>
        <path d="M61.92,46.78c-.02,2.79-.78,5.42-2.1,7.67,1.32,2.25,2.09,4.88,2.1,7.67h.04c.02-2.79.78-5.42,2.1-7.67-1.32-2.25-2.09-4.88-2.1-7.67h-.04Z"/>
      </g>
      <g>
        <path d="M46.48,77.83s0,.08,0,.11c0,.04,0,.08,0,.12,2.82,0,5.45.76,7.72,2.08,2.27-1.32,4.9-2.07,7.72-2.08,0-.04,0-.08,0-.12,0-.04,0-.08,0-.11-2.82,0-5.45-.76-7.72-2.08-2.27,1.32-4.9,2.07-7.72,2.08Z"/>
        <path d="M61.95,77.83s0,.08,0,.11c0,.04,0,.08,0,.12,2.81,0,5.45.76,7.71,2.08,2.27-1.32,4.91-2.07,7.72-2.08,0-.04,0-.08,0-.12,0-.04,0-.08,0-.11-2.81,0-5.45-.76-7.72-2.08-2.26,1.32-4.9,2.07-7.71,2.08Z"/>
        <path d="M61.92,78.06c-.02,2.79-.78,5.42-2.1,7.67,1.32,2.25,2.09,4.87,2.1,7.67h.04c.02-2.79.78-5.41,2.1-7.67-1.32-2.25-2.09-4.88-2.1-7.67h-.04Z"/>
        <path d="M61.92,62.49c-.02,2.79-.78,5.42-2.1,7.67,1.32,2.25,2.09,4.88,2.1,7.67h.04c.02-2.79.78-5.42,2.1-7.67-1.32-2.25-2.09-4.88-2.1-7.67h-.04Z"/>
      </g>
      <g>
        <path d="M46.43,93.14s0,.08,0,.11c0,.04,0,.08,0,.12,2.82,0,5.45.76,7.72,2.08,2.27-1.32,4.9-2.07,7.72-2.08,0-.04,0-.08,0-.12,0-.04,0-.08,0-.11-2.82,0-5.45-.76-7.72-2.08-2.27,1.32-4.9,2.07-7.72,2.08Z"/>
        <path d="M61.91,93.14s0,.08,0,.11c0,.04,0,.08,0,.12,2.81,0,5.45.76,7.71,2.08,2.27-1.32,4.91-2.07,7.72-2.08,0-.04,0-.08,0-.12,0-.04,0-.08,0-.11-2.81,0-5.45-.76-7.72-2.08-2.26,1.32-4.9,2.07-7.71,2.08Z"/>
        <path d="M61.87,93.38c-.02,2.79-.78,5.42-2.1,7.67,1.32,2.25,2.09,4.87,2.1,7.67h.04c.02-2.79.78-5.41,2.1-7.67-1.32-2.25-2.09-4.88-2.1-7.67h-.04Z"/>
        <path d="M61.87,77.8c-.02,2.79-.78,5.42-2.1,7.67,1.32,2.25,2.09,4.88,2.1,7.67h.04c.02-2.79.78-5.42,2.1-7.67-1.32-2.25-2.09-4.88-2.1-7.67h-.04Z"/>
      </g>
      <g>
        <path d="M46.48,15.34s0,.08,0,.11c0,.04,0,.08,0,.12,2.82,0,5.45.76,7.72,2.08,2.27-1.32,4.9-2.07,7.72-2.08,0-.04,0-.08,0-.12,0-.04,0-.08,0-.11-2.82,0-5.45-.76-7.72-2.08-2.27,1.32-4.9,2.07-7.72,2.08Z"/>
        <path d="M61.95,15.34s0,.08,0,.11c0,.04,0,.08,0,.12,2.81,0,5.45.76,7.71,2.08,2.27-1.32,4.91-2.07,7.72-2.08,0-.04,0-.08,0-.12,0-.04,0-.08,0-.11-2.81,0-5.45-.76-7.72-2.08-2.26,1.32-4.9,2.07-7.71,2.08Z"/>
        <path d="M61.92,15.58c-.02,2.79-.78,5.42-2.1,7.67,1.32,2.25,2.09,4.87,2.1,7.67h.04c.02-2.79.78-5.41,2.1-7.67-1.32-2.25-2.09-4.88-2.1-7.67h-.04Z"/>
        <path d="M61.92,0c-.02,2.79-.78,5.42-2.1,7.67,1.32,2.25,2.09,4.88,2.1,7.67h.04c.02-2.79.78-5.42,2.1-7.67-1.32-2.25-2.09-4.88-2.1-7.67h-.04Z"/>
      </g>
      <g>
        <path d="M46.48,31.05s0,.08,0,.11c0,.04,0,.08,0,.12,2.82,0,5.45.76,7.72,2.08,2.27-1.32,4.9-2.07,7.72-2.08,0-.04,0-.08,0-.12,0-.04,0-.08,0-.11-2.82,0-5.45-.76-7.72-2.08-2.27,1.32-4.9,2.07-7.72,2.08Z"/>
        <path d="M61.95,31.05s0,.08,0,.11c0,.04,0,.08,0,.12,2.81,0,5.45.76,7.71,2.08,2.27-1.32,4.91-2.07,7.72-2.08,0-.04,0-.08,0-.12,0-.04,0-.08,0-.11-2.81,0-5.45-.76-7.72-2.08-2.26,1.32-4.9,2.07-7.71,2.08Z"/>
        <path d="M61.92,31.28c-.02,2.79-.78,5.42-2.1,7.67,1.32,2.25,2.09,4.87,2.1,7.67h.04c.02-2.79.78-5.41,2.1-7.67-1.32-2.25-2.09-4.88-2.1-7.67h-.04Z"/>
        <path d="M61.92,15.7c-.02,2.79-.78,5.42-2.1,7.67,1.32,2.25,2.09,4.88,2.1,7.67h.04c.02-2.79.78-5.42,2.1-7.67-1.32-2.25-2.09-4.88-2.1-7.67h-.04Z"/>
      </g>
      <g>
        <path d="M46.43,46.36s0,.08,0,.11c0,.04,0,.08,0,.12,2.82,0,5.45.76,7.72,2.08,2.27-1.32,4.9-2.07,7.72-2.08,0-.04,0-.08,0-.12,0-.04,0-.08,0-.11-2.82,0-5.45-.76-7.72-2.08-2.27,1.32-4.9,2.07-7.72,2.08Z"/>
        <path d="M61.91,46.36s0,.08,0,.11c0,.04,0,.08,0,.12,2.81,0,5.45.76,7.71,2.08,2.27-1.32,4.91-2.07,7.72-2.08,0-.04,0-.08,0-.12,0-.04,0-.08,0-.11-2.81,0-5.45-.76-7.72-2.08-2.26,1.32-4.9,2.07-7.71,2.08Z"/>
        <path d="M61.87,46.59c-.02,2.79-.78,5.42-2.1,7.67,1.32,2.25,2.09,4.87,2.1,7.67h.04c.02-2.79.78-5.41,2.1-7.67-1.32-2.25-2.09-4.88-2.1-7.67h-.04Z"/>
        <path d="M61.87,31.01c-.02,2.79-.78,5.42-2.1,7.67,1.32,2.25,2.09,4.88,2.1,7.67h.04c.02-2.79.78-5.42,2.1-7.67-1.32-2.25-2.09-4.88-2.1-7.67h-.04Z"/>
      </g>
      <g>
        <path d="M46.48,108.92s0,.08,0,.11c0,.04,0,.08,0,.12,2.82,0,5.45.76,7.72,2.08,2.27-1.32,4.9-2.07,7.72-2.08,0-.04,0-.08,0-.12,0-.04,0-.08,0-.11-2.82,0-5.45-.76-7.72-2.08-2.27,1.32-4.9,2.07-7.72,2.08Z"/>
        <path d="M61.95,108.92s0,.08,0,.11c0,.04,0,.08,0,.12,2.81,0,5.45.76,7.71,2.08,2.27-1.32,4.91-2.07,7.72-2.08,0-.04,0-.08,0-.12,0-.04,0-.08,0-.11-2.81,0-5.45-.76-7.72-2.08-2.26,1.32-4.9,2.07-7.71,2.08Z"/>
        <path d="M61.92,109.15c-.02,2.79-.78,5.42-2.1,7.67,1.32,2.25,2.09,4.87,2.1,7.67h.04c.02-2.79.78-5.41,2.1-7.67-1.32-2.25-2.09-4.88-2.1-7.67h-.04Z"/>
        <path d="M61.92,93.58c-.02,2.79-.78,5.42-2.1,7.67,1.32,2.25,2.09,4.88,2.1,7.67h.04c.02-2.79.78-5.42,2.1-7.67-1.32-2.25-2.09-4.88-2.1-7.67h-.04Z"/>
      </g>
      <g>
        <path d="M.05,62.13s0,.08,0,.11c0,.04,0,.08,0,.12,2.82,0,5.45.76,7.72,2.08,2.27-1.32,4.9-2.07,7.72-2.08,0-.04,0-.08,0-.12,0-.04,0-.08,0-.11-2.82,0-5.45-.76-7.72-2.08-2.27,1.32-4.9,2.07-7.72,2.08Z"/>
        <path d="M15.53,62.13s0,.08,0,.11c0,.04,0,.08,0,.12,2.81,0,5.45.76,7.71,2.08,2.27-1.32,4.91-2.07,7.72-2.08,0-.04,0-.08,0-.12,0-.04,0-.08,0-.11-2.81,0-5.45-.76-7.72-2.08-2.26,1.32-4.9,2.07-7.71,2.08Z"/>
        <path d="M15.49,62.36c-.02,2.79-.78,5.42-2.1,7.67,1.32,2.25,2.09,4.87,2.1,7.67h.04c.02-2.79.78-5.41,2.1-7.67-1.32-2.25-2.09-4.88-2.1-7.67h-.04Z"/>
        <path d="M15.49,46.78c-.02,2.79-.78,5.42-2.1,7.67,1.32,2.25,2.09,4.88,2.1,7.67h.04c.02-2.79.78-5.42,2.1-7.67-1.32-2.25-2.09-4.88-2.1-7.67h-.04Z"/>
      </g>
      <g>
        <path d="M31.1,62.13s0,.08,0,.11c0,.04,0,.08,0,.12,2.82,0,5.45.76,7.72,2.08,2.27-1.32,4.9-2.07,7.72-2.08,0-.04,0-.08,0-.12,0-.04,0-.08,0-.11-2.82,0-5.45-.76-7.72-2.08-2.27,1.32-4.9,2.07-7.72,2.08Z"/>
        <path d="M46.57,62.13s0,.08,0,.11c0,.04,0,.08,0,.12,2.81,0,5.45.76,7.71,2.08,2.27-1.32,4.91-2.07,7.72-2.08,0-.04,0-.08,0-.12,0-.04,0-.08,0-.11-2.81,0-5.45-.76-7.72-2.08-2.26,1.32-4.9,2.07-7.71,2.08Z"/>
        <path d="M46.53,62.36c-.02,2.79-.78,5.42-2.1,7.67,1.32,2.25,2.09,4.87,2.1,7.67h.04c.02-2.79.78-5.41,2.1-7.67-1.32-2.25-2.09-4.88-2.1-7.67h-.04Z"/>
        <path d="M46.53,46.78c-.02,2.79-.78,5.42-2.1,7.67,1.32,2.25,2.09,4.88,2.1,7.67h.04c.02-2.79.78-5.42,2.1-7.67-1.32-2.25-2.09-4.88-2.1-7.67h-.04Z"/>
      </g>
      <g>
        <path d="M31.1,108.92s0,.08,0,.11c0,.04,0,.08,0,.12,2.82,0,5.45.76,7.72,2.08,2.27-1.32,4.9-2.07,7.72-2.08,0-.04,0-.08,0-.12,0-.04,0-.08,0-.11-2.82,0-5.45-.76-7.72-2.08-2.27,1.32-4.9,2.07-7.72,2.08Z"/>
        <path d="M46.57,108.92s0,.08,0,.11c0,.04,0,.08,0,.12,2.81,0,5.45.76,7.71,2.08,2.27-1.32,4.91-2.07,7.72-2.08,0-.04,0-.08,0-.12,0-.04,0-.08,0-.11-2.81,0-5.45-.76-7.72-2.08-2.26,1.32-4.9,2.07-7.71,2.08Z"/>
        <path d="M46.53,109.15c-.02,2.79-.78,5.42-2.1,7.67,1.32,2.25,2.09,4.87,2.1,7.67h.04c.02-2.79.78-5.41,2.1-7.67-1.32-2.25-2.09-4.88-2.1-7.67h-.04Z"/>
        <path d="M46.53,93.58c-.02,2.79-.78,5.42-2.1,7.67,1.32,2.25,2.09,4.88,2.1,7.67h.04c.02-2.79.78-5.42,2.1-7.67-1.32-2.25-2.09-4.88-2.1-7.67h-.04Z"/>
      </g>
      <g>
        <path d="M.05,77.83s0,.08,0,.11c0,.04,0,.08,0,.12,2.82,0,5.45.76,7.72,2.08,2.27-1.32,4.9-2.07,7.72-2.08,0-.04,0-.08,0-.12,0-.04,0-.08,0-.11-2.82,0-5.45-.76-7.72-2.08-2.27,1.32-4.9,2.07-7.72,2.08Z"/>
        <path d="M15.53,77.83s0,.08,0,.11c0,.04,0,.08,0,.12,2.81,0,5.45.76,7.71,2.08,2.27-1.32,4.91-2.07,7.72-2.08,0-.04,0-.08,0-.12,0-.04,0-.08,0-.11-2.81,0-5.45-.76-7.72-2.08-2.26,1.32-4.9,2.07-7.71,2.08Z"/>
        <path d="M15.49,78.06c-.02,2.79-.78,5.42-2.1,7.67,1.32,2.25,2.09,4.87,2.1,7.67h.04c.02-2.79.78-5.41,2.1-7.67-1.32-2.25-2.09-4.88-2.1-7.67h-.04Z"/>
        <path d="M15.49,62.49c-.02,2.79-.78,5.42-2.1,7.67,1.32,2.25,2.09,4.88,2.1,7.67h.04c.02-2.79.78-5.42,2.1-7.67-1.32-2.25-2.09-4.88-2.1-7.67h-.04Z"/>
      </g>
      <g>
        <path d="M0,93.14s0,.08,0,.11c0,.04,0,.08,0,.12,2.82,0,5.45.76,7.72,2.08,2.27-1.32,4.9-2.07,7.72-2.08,0-.04,0-.08,0-.12,0-.04,0-.08,0-.11-2.82,0-5.45-.76-7.72-2.08-2.27,1.32-4.9,2.07-7.72,2.08Z"/>
        <path d="M15.48,93.14s0,.08,0,.11c0,.04,0,.08,0,.12,2.81,0,5.45.76,7.71,2.08,2.27-1.32,4.91-2.07,7.72-2.08,0-.04,0-.08,0-.12,0-.04,0-.08,0-.11-2.81,0-5.45-.76-7.72-2.08-2.26,1.32-4.9,2.07-7.71,2.08Z"/>
        <path d="M15.44,93.38c-.02,2.79-.78,5.42-2.1,7.67,1.32,2.25,2.09,4.87,2.1,7.67h.04c.02-2.79.78-5.41,2.1-7.67-1.32-2.25-2.09-4.88-2.1-7.67h-.04Z"/>
        <path d="M15.44,77.8c-.02,2.79-.78,5.42-2.1,7.67,1.32,2.25,2.09,4.88,2.1,7.67h.04c.02-2.79.78-5.42,2.1-7.67-1.32-2.25-2.09-4.88-2.1-7.67h-.04Z"/>
      </g>
      <g>
        <path d="M.05,108.92s0,.08,0,.11c0,.04,0,.08,0,.12,2.82,0,5.45.76,7.72,2.08,2.27-1.32,4.9-2.07,7.72-2.08,0-.04,0-.08,0-.12,0-.04,0-.08,0-.11-2.82,0-5.45-.76-7.72-2.08-2.27,1.32-4.9,2.07-7.72,2.08Z"/>
        <path d="M15.53,108.92s0,.08,0,.11c0,.04,0,.08,0,.12,2.81,0,5.45.76,7.71,2.08,2.27-1.32,4.91-2.07,7.72-2.08,0-.04,0-.08,0-.12,0-.04,0-.08,0-.11-2.81,0-5.45-.76-7.72-2.08-2.26,1.32-4.9,2.07-7.71,2.08Z"/>
        <path d="M15.49,109.15c-.02,2.79-.78,5.42-2.1,7.67,1.32,2.25,2.09,4.87,2.1,7.67h.04c.02-2.79.78-5.41,2.1-7.67-1.32-2.25-2.09-4.88-2.1-7.67h-.04Z"/>
        <path d="M15.49,93.58c-.02,2.79-.78,5.42-2.1,7.67,1.32,2.25,2.09,4.88,2.1,7.67h.04c.02-2.79.78-5.42,2.1-7.67-1.32-2.25-2.09-4.88-2.1-7.67h-.04Z"/>
      </g>
    </g>
  </g>
</svg>