<?xml version="1.0" encoding="UTF-8"?>
<svg id="_레이어_2" data-name="레이어 2" xmlns="http://www.w3.org/2000/svg" viewBox="0 0 30.93 124.4">
  <g id="_레이어_1-2" data-name="레이어 1">
    <g>
      <g>
        <path d="M0,46.43S0,46.51,0,46.54C0,46.58,0,46.62,0,46.66c2.82,0,5.45.76,7.72,2.08,2.27-1.32,4.9-2.07,7.72-2.08,0-.04,0-.08,0-.12,0-.04,0-.08,0-.11-2.82,0-5.45-.76-7.72-2.08-2.27,1.32-4.9,2.07-7.72,2.08Z"/>
        <path d="M15.48,46.43s0,.08,0,.11c0,.04,0,.08,0,.12,2.81,0,5.45.76,7.71,2.08,2.27-1.32,4.91-2.07,7.72-2.08,0-.04,0-.08,0-.12,0-.04,0-.08,0-.11-2.81,0-5.45-.76-7.72-2.08-2.26,1.32-4.9,2.07-7.71,2.08Z"/>
        <path d="M15.44,46.66c-.02,2.79-.78,5.42-2.1,7.67,1.32,2.25,2.09,4.87,2.1,7.67h.04c.02-2.79.78-5.41,2.1-7.67-1.32-2.25-2.09-4.88-2.1-7.67h-.04Z"/>
        <path d="M15.44,31.08c-.02,2.79-.78,5.42-2.1,7.67,1.32,2.25,2.09,4.88,2.1,7.67h.04c.02-2.79.78-5.42,2.1-7.67-1.32-2.25-2.09-4.88-2.1-7.67h-.04Z"/>
      </g>
      <g>
        <path d="M0,62.13S0,62.21,0,62.24c0,.04,0,.08,0,.12,2.82,0,5.45.76,7.72,2.08,2.27-1.32,4.9-2.07,7.72-2.08,0-.04,0-.08,0-.12,0-.04,0-.08,0-.11-2.82,0-5.45-.76-7.72-2.08-2.27,1.32-4.9,2.07-7.72,2.08Z"/>
        <path d="M15.48,62.13s0,.08,0,.11c0,.04,0,.08,0,.12,2.81,0,5.45.76,7.71,2.08,2.27-1.32,4.91-2.07,7.72-2.08,0-.04,0-.08,0-.12,0-.04,0-.08,0-.11-2.81,0-5.45-.76-7.72-2.08-2.26,1.32-4.9,2.07-7.71,2.08Z"/>
        <path d="M15.44,62.36c-.02,2.79-.78,5.42-2.1,7.67,1.32,2.25,2.09,4.87,2.1,7.67h.04c.02-2.79.78-5.41,2.1-7.67-1.32-2.25-2.09-4.88-2.1-7.67h-.04Z"/>
        <path d="M15.44,46.78c-.02,2.79-.78,5.42-2.1,7.67,1.32,2.25,2.09,4.88,2.1,7.67h.04c.02-2.79.78-5.42,2.1-7.67-1.32-2.25-2.09-4.88-2.1-7.67h-.04Z"/>
      </g>
      <g>
        <path d="M.02,77.75s0,.08,0,.11c0,.04,0,.08,0,.12,2.82,0,5.45.76,7.72,2.08,2.27-1.32,4.9-2.07,7.72-2.08,0-.04,0-.08,0-.12,0-.04,0-.08,0-.11-2.82,0-5.45-.76-7.72-2.08-2.27,1.32-4.9,2.07-7.72,2.08Z"/>
        <path d="M15.5,77.75s0,.08,0,.11c0,.04,0,.08,0,.12,2.81,0,5.45.76,7.71,2.08,2.27-1.32,4.91-2.07,7.72-2.08,0-.04,0-.08,0-.12,0-.04,0-.08,0-.11-2.81,0-5.45-.76-7.72-2.08-2.26,1.32-4.9,2.07-7.71,2.08Z"/>
        <path d="M15.46,77.98c-.02,2.79-.78,5.42-2.1,7.67,1.32,2.25,2.09,4.87,2.1,7.67h.04c.02-2.79.78-5.41,2.1-7.67-1.32-2.25-2.09-4.88-2.1-7.67h-.04Z"/>
        <path d="M15.46,62.4c-.02,2.79-.78,5.42-2.1,7.67,1.32,2.25,2.09,4.88,2.1,7.67h.04c.02-2.79.78-5.42,2.1-7.67-1.32-2.25-2.09-4.88-2.1-7.67h-.04Z"/>
      </g>
      <g>
        <path d="M0,15.34S0,15.42,0,15.46c0,.04,0,.08,0,.12,2.82,0,5.45.76,7.72,2.08,2.27-1.32,4.9-2.07,7.72-2.08,0-.04,0-.08,0-.12,0-.04,0-.08,0-.11-2.82,0-5.45-.76-7.72-2.08C5.45,14.59,2.82,15.34,0,15.34Z"/>
        <path d="M15.48,15.34s0,.08,0,.11c0,.04,0,.08,0,.12,2.81,0,5.45.76,7.71,2.08,2.27-1.32,4.91-2.07,7.72-2.08,0-.04,0-.08,0-.12,0-.04,0-.08,0-.11-2.81,0-5.45-.76-7.72-2.08-2.26,1.32-4.9,2.07-7.71,2.08Z"/>
        <path d="M15.44,15.58c-.02,2.79-.78,5.42-2.1,7.67,1.32,2.25,2.09,4.87,2.1,7.67h.04c.02-2.79.78-5.41,2.1-7.67-1.32-2.25-2.09-4.88-2.1-7.67h-.04Z"/>
        <path d="M15.44,0c-.02,2.79-.78,5.42-2.1,7.67,1.32,2.25,2.09,4.88,2.1,7.67h.04c.02-2.79.78-5.42,2.1-7.67-1.32-2.25-2.09-4.88-2.1-7.67h-.04Z"/>
      </g>
      <g>
        <path d="M0,93.22s0,.08,0,.11c0,.04,0,.08,0,.12,2.82,0,5.45.76,7.72,2.08,2.27-1.32,4.9-2.07,7.72-2.08,0-.04,0-.08,0-.12,0-.04,0-.08,0-.11-2.82,0-5.45-.76-7.72-2.08-2.27,1.32-4.9,2.07-7.72,2.08Z"/>
        <path d="M15.48,93.22s0,.08,0,.11c0,.04,0,.08,0,.12,2.81,0,5.45.76,7.71,2.08,2.27-1.32,4.91-2.07,7.72-2.08,0-.04,0-.08,0-.12,0-.04,0-.08,0-.11-2.81,0-5.45-.76-7.72-2.08-2.26,1.32-4.9,2.07-7.71,2.08Z"/>
        <path d="M15.44,93.45c-.02,2.79-.78,5.42-2.1,7.67,1.32,2.25,2.09,4.87,2.1,7.67h.04c.02-2.79.78-5.41,2.1-7.67-1.32-2.25-2.09-4.88-2.1-7.67h-.04Z"/>
        <path d="M15.44,77.87c-.02,2.79-.78,5.42-2.1,7.67,1.32,2.25,2.09,4.88,2.1,7.67h.04c.02-2.79.78-5.42,2.1-7.67-1.32-2.25-2.09-4.88-2.1-7.67h-.04Z"/>
      </g>
      <g>
        <path d="M0,108.83s0,.08,0,.11c0,.04,0,.08,0,.12,2.82,0,5.45.76,7.72,2.08,2.27-1.32,4.9-2.07,7.72-2.08,0-.04,0-.08,0-.12,0-.04,0-.08,0-.11-2.82,0-5.45-.76-7.72-2.08-2.27,1.32-4.9,2.07-7.72,2.08Z"/>
        <path d="M15.48,108.83s0,.08,0,.11c0,.04,0,.08,0,.12,2.81,0,5.45.76,7.71,2.08,2.27-1.32,4.91-2.07,7.72-2.08,0-.04,0-.08,0-.12,0-.04,0-.08,0-.11-2.81,0-5.45-.76-7.72-2.08-2.26,1.32-4.9,2.07-7.71,2.08Z"/>
        <path d="M15.44,109.06c-.02,2.79-.78,5.42-2.1,7.67,1.32,2.25,2.09,4.87,2.1,7.67h.04c.02-2.79.78-5.41,2.1-7.67-1.32-2.25-2.09-4.88-2.1-7.67h-.04Z"/>
        <path d="M15.44,93.48c-.02,2.79-.78,5.42-2.1,7.67,1.32,2.25,2.09,4.88,2.1,7.67h.04c.02-2.79.78-5.42,2.1-7.67-1.32-2.25-2.09-4.88-2.1-7.67h-.04Z"/>
      </g>
    </g>
  </g>
</svg>