<?xml version="1.0" encoding="UTF-8"?>
<svg id="_레이어_2" data-name="레이어 2" xmlns="http://www.w3.org/2000/svg" viewBox="0 0 61.79 108.79">
  <g id="_레이어_1-2" data-name="레이어 1">
    <g>
      <g>
        <path d="M30.86,46.43s0,.08,0,.11c0,.04,0,.08,0,.12,2.82,0,5.45.76,7.72,2.08,2.27-1.32,4.9-2.07,7.72-2.08,0-.04,0-.08,0-.12,0-.04,0-.08,0-.11-2.82,0-5.45-.76-7.72-2.08-2.27,1.32-4.9,2.07-7.72,2.08Z"/>
        <path d="M46.34,46.43s0,.08,0,.11c0,.04,0,.08,0,.12,2.81,0,5.45.76,7.71,2.08,2.27-1.32,4.91-2.07,7.72-2.08,0-.04,0-.08,0-.12,0-.04,0-.08,0-.11-2.81,0-5.45-.76-7.72-2.08-2.26,1.32-4.9,2.07-7.71,2.08Z"/>
        <path d="M46.3,46.66c-.02,2.79-.78,5.42-2.1,7.67,1.32,2.25,2.09,4.87,2.1,7.67h.04c.02-2.79.78-5.41,2.1-7.67-1.32-2.25-2.09-4.88-2.1-7.67h-.04Z"/>
        <path d="M46.3,31.08c-.02,2.79-.78,5.42-2.1,7.67,1.32,2.25,2.09,4.88,2.1,7.67h.04c.02-2.79.78-5.42,2.1-7.67-1.32-2.25-2.09-4.88-2.1-7.67h-.04Z"/>
      </g>
      <g>
        <path d="M30.86,62.13s0,.08,0,.11c0,.04,0,.08,0,.12,2.82,0,5.45.76,7.72,2.08,2.27-1.32,4.9-2.07,7.72-2.08,0-.04,0-.08,0-.12,0-.04,0-.08,0-.11-2.82,0-5.45-.76-7.72-2.08-2.27,1.32-4.9,2.07-7.72,2.08Z"/>
        <path d="M46.34,62.13s0,.08,0,.11c0,.04,0,.08,0,.12,2.81,0,5.45.76,7.71,2.08,2.27-1.32,4.91-2.07,7.72-2.08,0-.04,0-.08,0-.12,0-.04,0-.08,0-.11-2.81,0-5.45-.76-7.72-2.08-2.26,1.32-4.9,2.07-7.71,2.08Z"/>
        <path d="M46.3,62.36c-.02,2.79-.78,5.42-2.1,7.67,1.32,2.25,2.09,4.87,2.1,7.67h.04c.02-2.79.78-5.41,2.1-7.67-1.32-2.25-2.09-4.88-2.1-7.67h-.04Z"/>
        <path d="M46.3,46.78c-.02,2.79-.78,5.42-2.1,7.67,1.32,2.25,2.09,4.88,2.1,7.67h.04c.02-2.79.78-5.42,2.1-7.67-1.32-2.25-2.09-4.88-2.1-7.67h-.04Z"/>
      </g>
      <g>
        <path d="M30.88,77.75s0,.08,0,.11c0,.04,0,.08,0,.12,2.82,0,5.45.76,7.72,2.08,2.27-1.32,4.9-2.07,7.72-2.08,0-.04,0-.08,0-.12,0-.04,0-.08,0-.11-2.82,0-5.45-.76-7.72-2.08-2.27,1.32-4.9,2.07-7.72,2.08Z"/>
        <path d="M46.35,77.75s0,.08,0,.11c0,.04,0,.08,0,.12,2.81,0,5.45.76,7.71,2.08,2.27-1.32,4.91-2.07,7.72-2.08,0-.04,0-.08,0-.12,0-.04,0-.08,0-.11-2.81,0-5.45-.76-7.72-2.08-2.26,1.32-4.9,2.07-7.71,2.08Z"/>
        <path d="M46.32,77.98c-.02,2.79-.78,5.42-2.1,7.67,1.32,2.25,2.09,4.87,2.1,7.67h.04c.02-2.79.78-5.41,2.1-7.67-1.32-2.25-2.09-4.88-2.1-7.67h-.04Z"/>
        <path d="M46.32,62.4c-.02,2.79-.78,5.42-2.1,7.67,1.32,2.25,2.09,4.88,2.1,7.67h.04c.02-2.79.78-5.42,2.1-7.67-1.32-2.25-2.09-4.88-2.1-7.67h-.04Z"/>
      </g>
      <g>
        <path d="M30.86,15.34s0,.08,0,.11c0,.04,0,.08,0,.12,2.82,0,5.45.76,7.72,2.08,2.27-1.32,4.9-2.07,7.72-2.08,0-.04,0-.08,0-.12,0-.04,0-.08,0-.11-2.82,0-5.45-.76-7.72-2.08-2.27,1.32-4.9,2.07-7.72,2.08Z"/>
        <path d="M46.34,15.34s0,.08,0,.11c0,.04,0,.08,0,.12,2.81,0,5.45.76,7.71,2.08,2.27-1.32,4.91-2.07,7.72-2.08,0-.04,0-.08,0-.12,0-.04,0-.08,0-.11-2.81,0-5.45-.76-7.72-2.08-2.26,1.32-4.9,2.07-7.71,2.08Z"/>
        <path d="M46.3,15.58c-.02,2.79-.78,5.42-2.1,7.67,1.32,2.25,2.09,4.87,2.1,7.67h.04c.02-2.79.78-5.41,2.1-7.67-1.32-2.25-2.09-4.88-2.1-7.67h-.04Z"/>
        <path d="M46.3,0c-.02,2.79-.78,5.42-2.1,7.67,1.32,2.25,2.09,4.88,2.1,7.67h.04c.02-2.79.78-5.42,2.1-7.67-1.32-2.25-2.09-4.88-2.1-7.67h-.04Z"/>
      </g>
      <g>
        <path d="M30.86,93.22s0,.08,0,.11c0,.04,0,.08,0,.12,2.82,0,5.45.76,7.72,2.08,2.27-1.32,4.9-2.07,7.72-2.08,0-.04,0-.08,0-.12,0-.04,0-.08,0-.11-2.82,0-5.45-.76-7.72-2.08-2.27,1.32-4.9,2.07-7.72,2.08Z"/>
        <path d="M46.34,93.22s0,.08,0,.11c0,.04,0,.08,0,.12,2.81,0,5.45.76,7.71,2.08,2.27-1.32,4.91-2.07,7.72-2.08,0-.04,0-.08,0-.12,0-.04,0-.08,0-.11-2.81,0-5.45-.76-7.72-2.08-2.26,1.32-4.9,2.07-7.71,2.08Z"/>
        <path d="M46.3,93.45c-.02,2.79-.78,5.42-2.1,7.67,1.32,2.25,2.09,4.87,2.1,7.67h.04c.02-2.79.78-5.41,2.1-7.67-1.32-2.25-2.09-4.88-2.1-7.67h-.04Z"/>
        <path d="M46.3,77.87c-.02,2.79-.78,5.42-2.1,7.67,1.32,2.25,2.09,4.88,2.1,7.67h.04c.02-2.79.78-5.42,2.1-7.67-1.32-2.25-2.09-4.88-2.1-7.67h-.04Z"/>
      </g>
      <g>
        <path d="M15.48,93.12s0,.08,0,.11c0,.04,0,.08,0,.12,2.82,0,5.45.76,7.72,2.08,2.27-1.32,4.9-2.07,7.72-2.08,0-.04,0-.08,0-.12,0-.04,0-.08,0-.11-2.82,0-5.45-.76-7.72-2.08-2.27,1.32-4.9,2.07-7.72,2.08Z"/>
        <path d="M30.95,93.12s0,.08,0,.11c0,.04,0,.08,0,.12,2.81,0,5.45.76,7.71,2.08,2.27-1.32,4.91-2.07,7.72-2.08,0-.04,0-.08,0-.12,0-.04,0-.08,0-.11-2.81,0-5.45-.76-7.72-2.08-2.26,1.32-4.9,2.07-7.71,2.08Z"/>
        <path d="M30.92,93.35c-.02,2.79-.78,5.42-2.1,7.67,1.32,2.25,2.09,4.87,2.1,7.67h.04c.02-2.79.78-5.41,2.1-7.67-1.32-2.25-2.09-4.88-2.1-7.67h-.04Z"/>
        <path d="M30.92,77.77c-.02,2.79-.78,5.42-2.1,7.67,1.32,2.25,2.09,4.88,2.1,7.67h.04c.02-2.79.78-5.42,2.1-7.67-1.32-2.25-2.09-4.88-2.1-7.67h-.04Z"/>
      </g>
      <g>
        <path d="M0,93.12s0,.08,0,.11c0,.04,0,.08,0,.12,2.82,0,5.45.76,7.72,2.08,2.27-1.32,4.9-2.07,7.72-2.08,0-.04,0-.08,0-.12,0-.04,0-.08,0-.11-2.82,0-5.45-.76-7.72-2.08-2.27,1.32-4.9,2.07-7.72,2.08Z"/>
        <path d="M15.48,93.12s0,.08,0,.11c0,.04,0,.08,0,.12,2.81,0,5.45.76,7.71,2.08,2.27-1.32,4.91-2.07,7.72-2.08,0-.04,0-.08,0-.12,0-.04,0-.08,0-.11-2.81,0-5.45-.76-7.72-2.08-2.26,1.32-4.9,2.07-7.71,2.08Z"/>
        <path d="M15.44,93.35c-.02,2.79-.78,5.42-2.1,7.67,1.32,2.25,2.09,4.87,2.1,7.67h.04c.02-2.79.78-5.41,2.1-7.67-1.32-2.25-2.09-4.88-2.1-7.67h-.04Z"/>
        <path d="M15.44,77.77c-.02,2.79-.78,5.42-2.1,7.67,1.32,2.25,2.09,4.88,2.1,7.67h.04c.02-2.79.78-5.42,2.1-7.67-1.32-2.25-2.09-4.88-2.1-7.67h-.04Z"/>
      </g>
    </g>
  </g>
</svg>