<?xml version="1.0" encoding="UTF-8"?>
<svg id="_레이어_2" data-name="레이어 2" xmlns="http://www.w3.org/2000/svg" viewBox="0 0 77.25 77.62">
  <g id="_레이어_1-2" data-name="레이어 1">
    <g>
      <g>
        <path d="M0,15.34S0,15.42,0,15.46C0,15.5,0,15.54,0,15.58c2.82,0,5.45.76,7.72,2.08,2.27-1.32,4.9-2.07,7.72-2.08,0-.04,0-.08,0-.12,0-.04,0-.08,0-.11-2.82,0-5.45-.76-7.72-2.08C5.45,14.59,2.82,15.34,0,15.34Z"/>
        <path d="M15.48,15.34s0,.08,0,.11c0,.04,0,.08,0,.12,2.81,0,5.45.76,7.71,2.08,2.27-1.32,4.91-2.07,7.72-2.08,0-.04,0-.08,0-.12,0-.04,0-.08,0-.11-2.81,0-5.45-.76-7.72-2.08-2.26,1.32-4.9,2.07-7.71,2.08Z"/>
        <path d="M15.44,15.58c-.02,2.79-.78,5.42-2.1,7.67,1.32,2.25,2.09,4.87,2.1,7.67h.04c.02-2.79.78-5.41,2.1-7.67-1.32-2.25-2.09-4.88-2.1-7.67h-.04Z"/>
        <path d="M15.44,0c-.02,2.79-.78,5.42-2.1,7.67,1.32,2.25,2.09,4.88,2.1,7.67h.04c.02-2.79.78-5.42,2.1-7.67-1.32-2.25-2.09-4.88-2.1-7.67h-.04Z"/>
      </g>
      <g>
        <path d="M.02,30.96s0,.08,0,.11c0,.04,0,.08,0,.12,2.82,0,5.45.76,7.72,2.08,2.27-1.32,4.9-2.07,7.72-2.08,0-.04,0-.08,0-.12,0-.04,0-.08,0-.11-2.82,0-5.45-.76-7.72-2.08-2.27,1.32-4.9,2.07-7.72,2.08Z"/>
        <path d="M15.5,30.96s0,.08,0,.11c0,.04,0,.08,0,.12,2.81,0,5.45.76,7.71,2.08,2.27-1.32,4.91-2.07,7.72-2.08,0-.04,0-.08,0-.12,0-.04,0-.08,0-.11-2.81,0-5.45-.76-7.72-2.08-2.26,1.32-4.9,2.07-7.71,2.08Z"/>
        <path d="M15.46,31.2c-.02,2.79-.78,5.42-2.1,7.67,1.32,2.25,2.09,4.87,2.1,7.67h.04c.02-2.79.78-5.41,2.1-7.67-1.32-2.25-2.09-4.88-2.1-7.67h-.04Z"/>
        <path d="M15.46,15.62c-.02,2.79-.78,5.42-2.1,7.67,1.32,2.25,2.09,4.88,2.1,7.67h.04c.02-2.79.78-5.42,2.1-7.67-1.32-2.25-2.09-4.88-2.1-7.67h-.04Z"/>
      </g>
      <g>
        <path d="M0,46.43s0,.08,0,.11c0,.04,0,.08,0,.12,2.82,0,5.45.76,7.72,2.08,2.27-1.32,4.9-2.07,7.72-2.08,0-.04,0-.08,0-.12,0-.04,0-.08,0-.11-2.82,0-5.45-.76-7.72-2.08-2.27,1.32-4.9,2.07-7.72,2.08Z"/>
        <path d="M15.48,46.43s0,.08,0,.11c0,.04,0,.08,0,.12,2.81,0,5.45.76,7.71,2.08,2.27-1.32,4.91-2.07,7.72-2.08,0-.04,0-.08,0-.12,0-.04,0-.08,0-.11-2.81,0-5.45-.76-7.72-2.08-2.26,1.32-4.9,2.07-7.71,2.08Z"/>
        <path d="M15.44,46.67c-.02,2.79-.78,5.42-2.1,7.67,1.32,2.25,2.09,4.87,2.1,7.67h.04c.02-2.79.78-5.41,2.1-7.67-1.32-2.25-2.09-4.88-2.1-7.67h-.04Z"/>
        <path d="M15.44,31.09c-.02,2.79-.78,5.42-2.1,7.67,1.32,2.25,2.09,4.88,2.1,7.67h.04c.02-2.79.78-5.42,2.1-7.67-1.32-2.25-2.09-4.88-2.1-7.67h-.04Z"/>
      </g>
      <g>
        <path d="M0,62.04s0,.08,0,.11c0,.04,0,.08,0,.12,2.82,0,5.45.76,7.72,2.08,2.27-1.32,4.9-2.07,7.72-2.08,0-.04,0-.08,0-.12,0-.04,0-.08,0-.11-2.82,0-5.45-.76-7.72-2.08-2.27,1.32-4.9,2.07-7.72,2.08Z"/>
        <path d="M15.48,62.04s0,.08,0,.11c0,.04,0,.08,0,.12,2.81,0,5.45.76,7.71,2.08,2.27-1.32,4.91-2.07,7.72-2.08,0-.04,0-.08,0-.12,0-.04,0-.08,0-.11-2.81,0-5.45-.76-7.72-2.08-2.26,1.32-4.9,2.07-7.71,2.08Z"/>
        <path d="M15.44,62.28c-.02,2.79-.78,5.42-2.1,7.67,1.32,2.25,2.09,4.87,2.1,7.67h.04c.02-2.79.78-5.41,2.1-7.67-1.32-2.25-2.09-4.88-2.1-7.67h-.04Z"/>
        <path d="M15.44,46.7c-.02,2.79-.78,5.42-2.1,7.67,1.32,2.25,2.09,4.88,2.1,7.67h.04c.02-2.79.78-5.42,2.1-7.67-1.32-2.25-2.09-4.88-2.1-7.67h-.04Z"/>
      </g>
      <g>
        <path d="M46.32,15.34s0,.08,0,.11c0,.04,0,.08,0,.12,2.82,0,5.45.76,7.72,2.08,2.27-1.32,4.9-2.07,7.72-2.08,0-.04,0-.08,0-.12,0-.04,0-.08,0-.11-2.82,0-5.45-.76-7.72-2.08-2.27,1.32-4.9,2.07-7.72,2.08Z"/>
        <path d="M61.8,15.34s0,.08,0,.11c0,.04,0,.08,0,.12,2.81,0,5.45.76,7.71,2.08,2.27-1.32,4.91-2.07,7.72-2.08,0-.04,0-.08,0-.12,0-.04,0-.08,0-.11-2.81,0-5.45-.76-7.72-2.08-2.26,1.32-4.9,2.07-7.71,2.08Z"/>
        <path d="M61.76,15.58c-.02,2.79-.78,5.42-2.1,7.67,1.32,2.25,2.09,4.87,2.1,7.67h.04c.02-2.79.78-5.41,2.1-7.67-1.32-2.25-2.09-4.88-2.1-7.67h-.04Z"/>
        <path d="M61.76,0c-.02,2.79-.78,5.42-2.1,7.67,1.32,2.25,2.09,4.88,2.1,7.67h.04c.02-2.79.78-5.42,2.1-7.67-1.32-2.25-2.09-4.88-2.1-7.67h-.04Z"/>
      </g>
      <g>
        <path d="M30.95,15.34s0,.08,0,.11c0,.04,0,.08,0,.12,2.82,0,5.45.76,7.72,2.08,2.27-1.32,4.9-2.07,7.72-2.08,0-.04,0-.08,0-.12,0-.04,0-.08,0-.11-2.82,0-5.45-.76-7.72-2.08-2.27,1.32-4.9,2.07-7.72,2.08Z"/>
        <path d="M46.43,15.34s0,.08,0,.11c0,.04,0,.08,0,.12,2.81,0,5.45.76,7.71,2.08,2.27-1.32,4.91-2.07,7.72-2.08,0-.04,0-.08,0-.12,0-.04,0-.08,0-.11-2.81,0-5.45-.76-7.72-2.08-2.26,1.32-4.9,2.07-7.71,2.08Z"/>
        <path d="M46.39,15.58c-.02,2.79-.78,5.42-2.1,7.67,1.32,2.25,2.09,4.87,2.1,7.67h.04c.02-2.79.78-5.41,2.1-7.67-1.32-2.25-2.09-4.88-2.1-7.67h-.04Z"/>
        <path d="M46.39,0c-.02,2.79-.78,5.42-2.1,7.67,1.32,2.25,2.09,4.88,2.1,7.67h.04c.02-2.79.78-5.42,2.1-7.67-1.32-2.25-2.09-4.88-2.1-7.67h-.04Z"/>
      </g>
      <g>
        <path d="M46.34,30.96s0,.08,0,.11c0,.04,0,.08,0,.12,2.82,0,5.45.76,7.72,2.08,2.27-1.32,4.9-2.07,7.72-2.08,0-.04,0-.08,0-.12,0-.04,0-.08,0-.11-2.82,0-5.45-.76-7.72-2.08-2.27,1.32-4.9,2.07-7.72,2.08Z"/>
        <path d="M61.81,30.96s0,.08,0,.11c0,.04,0,.08,0,.12,2.81,0,5.45.76,7.71,2.08,2.27-1.32,4.91-2.07,7.72-2.08,0-.04,0-.08,0-.12,0-.04,0-.08,0-.11-2.81,0-5.45-.76-7.72-2.08-2.26,1.32-4.9,2.07-7.71,2.08Z"/>
        <path d="M61.78,31.2c-.02,2.79-.78,5.42-2.1,7.67,1.32,2.25,2.09,4.87,2.1,7.67h.04c.02-2.79.78-5.41,2.1-7.67-1.32-2.25-2.09-4.88-2.1-7.67h-.04Z"/>
        <path d="M61.78,15.62c-.02,2.79-.78,5.42-2.1,7.67,1.32,2.25,2.09,4.88,2.1,7.67h.04c.02-2.79.78-5.42,2.1-7.67-1.32-2.25-2.09-4.88-2.1-7.67h-.04Z"/>
      </g>
      <g>
        <path d="M46.32,46.43s0,.08,0,.11c0,.04,0,.08,0,.12,2.82,0,5.45.76,7.72,2.08,2.27-1.32,4.9-2.07,7.72-2.08,0-.04,0-.08,0-.12,0-.04,0-.08,0-.11-2.82,0-5.45-.76-7.72-2.08-2.27,1.32-4.9,2.07-7.72,2.08Z"/>
        <path d="M61.8,46.43s0,.08,0,.11c0,.04,0,.08,0,.12,2.81,0,5.45.76,7.71,2.08,2.27-1.32,4.91-2.07,7.72-2.08,0-.04,0-.08,0-.12,0-.04,0-.08,0-.11-2.81,0-5.45-.76-7.72-2.08-2.26,1.32-4.9,2.07-7.71,2.08Z"/>
        <path d="M61.76,46.67c-.02,2.79-.78,5.42-2.1,7.67,1.32,2.25,2.09,4.87,2.1,7.67h.04c.02-2.79.78-5.41,2.1-7.67-1.32-2.25-2.09-4.88-2.1-7.67h-.04Z"/>
        <path d="M61.76,31.09c-.02,2.79-.78,5.42-2.1,7.67,1.32,2.25,2.09,4.88,2.1,7.67h.04c.02-2.79.78-5.42,2.1-7.67-1.32-2.25-2.09-4.88-2.1-7.67h-.04Z"/>
      </g>
      <g>
        <path d="M46.32,62.04s0,.08,0,.11c0,.04,0,.08,0,.12,2.82,0,5.45.76,7.72,2.08,2.27-1.32,4.9-2.07,7.72-2.08,0-.04,0-.08,0-.12,0-.04,0-.08,0-.11-2.82,0-5.45-.76-7.72-2.08-2.27,1.32-4.9,2.07-7.72,2.08Z"/>
        <path d="M61.8,62.04s0,.08,0,.11c0,.04,0,.08,0,.12,2.81,0,5.45.76,7.71,2.08,2.27-1.32,4.91-2.07,7.72-2.08,0-.04,0-.08,0-.12,0-.04,0-.08,0-.11-2.81,0-5.45-.76-7.72-2.08-2.26,1.32-4.9,2.07-7.71,2.08Z"/>
        <path d="M61.76,62.28c-.02,2.79-.78,5.42-2.1,7.67,1.32,2.25,2.09,4.87,2.1,7.67h.04c.02-2.79.78-5.41,2.1-7.67-1.32-2.25-2.09-4.88-2.1-7.67h-.04Z"/>
        <path d="M61.76,46.7c-.02,2.79-.78,5.42-2.1,7.67,1.32,2.25,2.09,4.88,2.1,7.67h.04c.02-2.79.78-5.42,2.1-7.67-1.32-2.25-2.09-4.88-2.1-7.67h-.04Z"/>
      </g>
    </g>
  </g>
</svg>