<?xml version="1.0" encoding="UTF-8"?>
<svg id="_레이어_2" data-name="레이어 2" xmlns="http://www.w3.org/2000/svg" viewBox="0 0 77.39 108.79">
  <g id="_레이어_1-2" data-name="레이어 1">
    <g>
      <g>
        <path d="M30.91,62.36s0-.08,0-.11c0-.04,0-.08,0-.12-2.82,0-5.45-.76-7.72-2.08-2.27,1.32-4.9,2.07-7.72,2.08,0,.04,0,.08,0,.12,0,.04,0,.08,0,.11,2.82,0,5.45.76,7.72,2.08,2.27-1.32,4.9-2.07,7.72-2.08Z"/>
        <path d="M15.44,62.36s0-.08,0-.11c0-.04,0-.08,0-.12-2.81,0-5.45-.76-7.71-2.08-2.27,1.32-4.91,2.07-7.72,2.08,0,.04,0,.08,0,.12,0,.04,0,.08,0,.11,2.81,0,5.45.76,7.72,2.08,2.26-1.32,4.9-2.07,7.71-2.08Z"/>
        <path d="M15.47,62.13c.02-2.79.78-5.42,2.1-7.67-1.32-2.25-2.09-4.87-2.1-7.67h-.04c-.02,2.79-.78,5.41-2.1,7.67,1.32,2.25,2.09,4.88,2.1,7.67h.04Z"/>
        <path d="M15.47,77.71c.02-2.79.78-5.42,2.1-7.67-1.32-2.25-2.09-4.88-2.1-7.67h-.04c-.02,2.79-.78,5.42-2.1,7.67,1.32,2.25,2.09,4.88,2.1,7.67h.04Z"/>
      </g>
      <g>
        <path d="M30.91,46.66s0-.08,0-.11c0-.04,0-.08,0-.12-2.82,0-5.45-.76-7.72-2.08-2.27,1.32-4.9,2.07-7.72,2.08,0,.04,0,.08,0,.12,0,.04,0,.08,0,.11,2.82,0,5.45.76,7.72,2.08,2.27-1.32,4.9-2.07,7.72-2.08Z"/>
        <path d="M15.44,46.66s0-.08,0-.11c0-.04,0-.08,0-.12-2.81,0-5.45-.76-7.71-2.08-2.27,1.32-4.91,2.07-7.72,2.08,0,.04,0,.08,0,.12,0,.04,0,.08,0,.11,2.81,0,5.45.76,7.72,2.08,2.26-1.32,4.9-2.07,7.71-2.08Z"/>
        <path d="M15.47,46.43c.02-2.79.78-5.42,2.1-7.67-1.32-2.25-2.09-4.87-2.1-7.67h-.04c-.02,2.79-.78,5.41-2.1,7.67,1.32,2.25,2.09,4.88,2.1,7.67h.04Z"/>
        <path d="M15.47,62.01c.02-2.79.78-5.42,2.1-7.67-1.32-2.25-2.09-4.88-2.1-7.67h-.04c-.02,2.79-.78,5.42-2.1,7.67,1.32,2.25,2.09,4.88,2.1,7.67h.04Z"/>
      </g>
      <g>
        <path d="M30.96,31.35s0-.08,0-.11c0-.04,0-.08,0-.12-2.82,0-5.45-.76-7.72-2.08-2.27,1.32-4.9,2.07-7.72,2.08,0,.04,0,.08,0,.12,0,.04,0,.08,0,.11,2.82,0,5.45.76,7.72,2.08,2.27-1.32,4.9-2.07,7.72-2.08Z"/>
        <path d="M15.49,31.35s0-.08,0-.11c0-.04,0-.08,0-.12-2.81,0-5.45-.76-7.71-2.08-2.27,1.32-4.91,2.07-7.72,2.08,0,.04,0,.08,0,.12,0,.04,0,.08,0,.11,2.81,0,5.45.76,7.72,2.08,2.26-1.32,4.9-2.07,7.71-2.08Z"/>
        <path d="M15.52,31.12c.02-2.79.78-5.42,2.1-7.67-1.32-2.25-2.09-4.87-2.1-7.67h-.04c-.02,2.79-.78,5.41-2.1,7.67,1.32,2.25,2.09,4.88,2.1,7.67h.04Z"/>
        <path d="M15.52,46.69c.02-2.79.78-5.42,2.1-7.67-1.32-2.25-2.09-4.88-2.1-7.67h-.04c-.02,2.79-.78,5.42-2.1,7.67,1.32,2.25,2.09,4.88,2.1,7.67h.04Z"/>
      </g>
      <g>
        <path d="M30.91,93.45s0-.08,0-.11c0-.04,0-.08,0-.12-2.82,0-5.45-.76-7.72-2.08-2.27,1.32-4.9,2.07-7.72,2.08,0,.04,0,.08,0,.12,0,.04,0,.08,0,.11,2.82,0,5.45.76,7.72,2.08,2.27-1.32,4.9-2.07,7.72-2.08Z"/>
        <path d="M15.44,93.45s0-.08,0-.11c0-.04,0-.08,0-.12-2.81,0-5.45-.76-7.71-2.08-2.27,1.32-4.91,2.07-7.72,2.08,0,.04,0,.08,0,.12,0,.04,0,.08,0,.11,2.81,0,5.45.76,7.72,2.08,2.26-1.32,4.9-2.07,7.71-2.08Z"/>
        <path d="M15.47,93.21c.02-2.79.78-5.42,2.1-7.67-1.32-2.25-2.09-4.87-2.1-7.67h-.04c-.02,2.79-.78,5.41-2.1,7.67,1.32,2.25,2.09,4.88,2.1,7.67h.04Z"/>
        <path d="M15.47,108.79c.02-2.79.78-5.42,2.1-7.67-1.32-2.25-2.09-4.88-2.1-7.67h-.04c-.02,2.79-.78,5.42-2.1,7.67,1.32,2.25,2.09,4.88,2.1,7.67h.04Z"/>
      </g>
      <g>
        <path d="M30.96,78.13s0-.08,0-.11c0-.04,0-.08,0-.12-2.82,0-5.45-.76-7.72-2.08-2.27,1.32-4.9,2.07-7.72,2.08,0,.04,0,.08,0,.12,0,.04,0,.08,0,.11,2.82,0,5.45.76,7.72,2.08,2.27-1.32,4.9-2.07,7.72-2.08Z"/>
        <path d="M15.49,78.13s0-.08,0-.11c0-.04,0-.08,0-.12-2.81,0-5.45-.76-7.71-2.08-2.27,1.32-4.91,2.07-7.72,2.08,0,.04,0,.08,0,.12,0,.04,0,.08,0,.11,2.81,0,5.45.76,7.72,2.08,2.26-1.32,4.9-2.07,7.71-2.08Z"/>
        <path d="M15.52,77.9c.02-2.79.78-5.42,2.1-7.67-1.32-2.25-2.09-4.87-2.1-7.67h-.04c-.02,2.79-.78,5.41-2.1,7.67,1.32,2.25,2.09,4.88,2.1,7.67h.04Z"/>
        <path d="M15.52,93.48c.02-2.79.78-5.42,2.1-7.67-1.32-2.25-2.09-4.88-2.1-7.67h-.04c-.02,2.79-.78,5.42-2.1,7.67,1.32,2.25,2.09,4.88,2.1,7.67h.04Z"/>
      </g>
      <g>
        <path d="M30.91,15.57s0-.08,0-.11c0-.04,0-.08,0-.12-2.82,0-5.45-.76-7.72-2.08-2.27,1.32-4.9,2.07-7.72,2.08,0,.04,0,.08,0,.12,0,.04,0,.08,0,.11,2.82,0,5.45.76,7.72,2.08,2.27-1.32,4.9-2.07,7.72-2.08Z"/>
        <path d="M15.44,15.57s0-.08,0-.11c0-.04,0-.08,0-.12-2.81,0-5.45-.76-7.71-2.08C5.45,14.58,2.82,15.33,0,15.34c0,.04,0,.08,0,.12,0,.04,0,.08,0,.11,2.81,0,5.45.76,7.72,2.08,2.26-1.32,4.9-2.07,7.71-2.08Z"/>
        <path d="M15.47,15.34c.02-2.79.78-5.42,2.1-7.67-1.32-2.25-2.09-4.87-2.1-7.67h-.04c-.02,2.79-.78,5.41-2.1,7.67,1.32,2.25,2.09,4.88,2.1,7.67h.04Z"/>
        <path d="M15.47,30.92c.02-2.79.78-5.42,2.1-7.67-1.32-2.25-2.09-4.88-2.1-7.67h-.04c-.02,2.79-.78,5.42-2.1,7.67,1.32,2.25,2.09,4.88,2.1,7.67h.04Z"/>
      </g>
      <g>
        <path d="M46.3,15.57s0-.08,0-.11c0-.04,0-.08,0-.12-2.82,0-5.45-.76-7.72-2.08-2.27,1.32-4.9,2.07-7.72,2.08,0,.04,0,.08,0,.12,0,.04,0,.08,0,.11,2.82,0,5.45.76,7.72,2.08,2.27-1.32,4.9-2.07,7.72-2.08Z"/>
        <path d="M30.82,15.57s0-.08,0-.11c0-.04,0-.08,0-.12-2.81,0-5.45-.76-7.71-2.08-2.27,1.32-4.91,2.07-7.72,2.08,0,.04,0,.08,0,.12,0,.04,0,.08,0,.11,2.81,0,5.45.76,7.72,2.08,2.26-1.32,4.9-2.07,7.71-2.08Z"/>
        <path d="M30.86,15.34c.02-2.79.78-5.42,2.1-7.67-1.32-2.25-2.09-4.87-2.1-7.67h-.04c-.02,2.79-.78,5.41-2.1,7.67,1.32,2.25,2.09,4.88,2.1,7.67h.04Z"/>
        <path d="M30.86,30.92c.02-2.79.78-5.42,2.1-7.67-1.32-2.25-2.09-4.88-2.1-7.67h-.04c-.02,2.79-.78,5.42-2.1,7.67,1.32,2.25,2.09,4.88,2.1,7.67h.04Z"/>
      </g>
      <g>
        <path d="M61.93,15.57s0-.08,0-.11c0-.04,0-.08,0-.12-2.82,0-5.45-.76-7.72-2.08-2.27,1.32-4.9,2.07-7.72,2.08,0,.04,0,.08,0,.12,0,.04,0,.08,0,.11,2.82,0,5.45.76,7.72,2.08,2.27-1.32,4.9-2.07,7.72-2.08Z"/>
        <path d="M46.46,15.57s0-.08,0-.11c0-.04,0-.08,0-.12-2.81,0-5.45-.76-7.71-2.08-2.27,1.32-4.91,2.07-7.72,2.08,0,.04,0,.08,0,.12,0,.04,0,.08,0,.11,2.81,0,5.45.76,7.72,2.08,2.26-1.32,4.9-2.07,7.71-2.08Z"/>
        <path d="M46.49,15.34c.02-2.79.78-5.42,2.1-7.67-1.32-2.25-2.09-4.87-2.1-7.67h-.04c-.02,2.79-.78,5.41-2.1,7.67,1.32,2.25,2.09,4.88,2.1,7.67h.04Z"/>
        <path d="M46.49,30.92c.02-2.79.78-5.42,2.1-7.67-1.32-2.25-2.09-4.88-2.1-7.67h-.04c-.02,2.79-.78,5.42-2.1,7.67,1.32,2.25,2.09,4.88,2.1,7.67h.04Z"/>
      </g>
      <g>
        <path d="M46.38,46.78s0-.08,0-.11c0-.04,0-.08,0-.12-2.82,0-5.45-.76-7.72-2.08-2.27,1.32-4.9,2.07-7.72,2.08,0,.04,0,.08,0,.12,0,.04,0,.08,0,.11,2.82,0,5.45.76,7.72,2.08,2.27-1.32,4.9-2.07,7.72-2.08Z"/>
        <path d="M30.9,46.78s0-.08,0-.11c0-.04,0-.08,0-.12-2.81,0-5.45-.76-7.71-2.08-2.27,1.32-4.91,2.07-7.72,2.08,0,.04,0,.08,0,.12,0,.04,0,.08,0,.11,2.81,0,5.45.76,7.72,2.08,2.26-1.32,4.9-2.07,7.71-2.08Z"/>
        <path d="M30.94,46.54c.02-2.79.78-5.42,2.1-7.67-1.32-2.25-2.09-4.87-2.1-7.67h-.04c-.02,2.79-.78,5.41-2.1,7.67,1.32,2.25,2.09,4.88,2.1,7.67h.04Z"/>
        <path d="M30.94,62.12c.02-2.79.78-5.42,2.1-7.67-1.32-2.25-2.09-4.88-2.1-7.67h-.04c-.02,2.79-.78,5.42-2.1,7.67,1.32,2.25,2.09,4.88,2.1,7.67h.04Z"/>
      </g>
      <g>
        <path d="M62.01,46.78s0-.08,0-.11c0-.04,0-.08,0-.12-2.82,0-5.45-.76-7.72-2.08-2.27,1.32-4.9,2.07-7.72,2.08,0,.04,0,.08,0,.12,0,.04,0,.08,0,.11,2.82,0,5.45.76,7.72,2.08,2.27-1.32,4.9-2.07,7.72-2.08Z"/>
        <path d="M46.54,46.78s0-.08,0-.11c0-.04,0-.08,0-.12-2.81,0-5.45-.76-7.71-2.08-2.27,1.32-4.91,2.07-7.72,2.08,0,.04,0,.08,0,.12,0,.04,0,.08,0,.11,2.81,0,5.45.76,7.72,2.08,2.26-1.32,4.9-2.07,7.71-2.08Z"/>
        <path d="M46.57,46.54c.02-2.79.78-5.42,2.1-7.67-1.32-2.25-2.09-4.87-2.1-7.67h-.04c-.02,2.79-.78,5.41-2.1,7.67,1.32,2.25,2.09,4.88,2.1,7.67h.04Z"/>
        <path d="M46.57,62.12c.02-2.79.78-5.42,2.1-7.67-1.32-2.25-2.09-4.88-2.1-7.67h-.04c-.02,2.79-.78,5.42-2.1,7.67,1.32,2.25,2.09,4.88,2.1,7.67h.04Z"/>
      </g>
      <g>
        <path d="M77.34,46.66s0-.08,0-.11c0-.04,0-.08,0-.12-2.82,0-5.45-.76-7.72-2.08-2.27,1.32-4.9,2.07-7.72,2.08,0,.04,0,.08,0,.12,0,.04,0,.08,0,.11,2.82,0,5.45.76,7.72,2.08,2.27-1.32,4.9-2.07,7.72-2.08Z"/>
        <path d="M61.87,46.66s0-.08,0-.11c0-.04,0-.08,0-.12-2.81,0-5.45-.76-7.71-2.08-2.27,1.32-4.91,2.07-7.72,2.08,0,.04,0,.08,0,.12,0,.04,0,.08,0,.11,2.81,0,5.45.76,7.72,2.08,2.26-1.32,4.9-2.07,7.71-2.08Z"/>
        <path d="M61.9,46.43c.02-2.79.78-5.42,2.1-7.67-1.32-2.25-2.09-4.87-2.1-7.67h-.04c-.02,2.79-.78,5.41-2.1,7.67,1.32,2.25,2.09,4.88,2.1,7.67h.04Z"/>
        <path d="M61.9,62.01c.02-2.79.78-5.42,2.1-7.67-1.32-2.25-2.09-4.88-2.1-7.67h-.04c-.02,2.79-.78,5.42-2.1,7.67,1.32,2.25,2.09,4.88,2.1,7.67h.04Z"/>
      </g>
      <g>
        <path d="M77.39,31.35s0-.08,0-.11c0-.04,0-.08,0-.12-2.82,0-5.45-.76-7.72-2.08-2.27,1.32-4.9,2.07-7.72,2.08,0,.04,0,.08,0,.12,0,.04,0,.08,0,.11,2.82,0,5.45.76,7.72,2.08,2.27-1.32,4.9-2.07,7.72-2.08Z"/>
        <path d="M61.91,31.35s0-.08,0-.11c0-.04,0-.08,0-.12-2.81,0-5.45-.76-7.71-2.08-2.27,1.32-4.91,2.07-7.72,2.08,0,.04,0,.08,0,.12,0,.04,0,.08,0,.11,2.81,0,5.45.76,7.72,2.08,2.26-1.32,4.9-2.07,7.71-2.08Z"/>
        <path d="M61.95,31.12c.02-2.79.78-5.42,2.1-7.67-1.32-2.25-2.09-4.87-2.1-7.67h-.04c-.02,2.79-.78,5.41-2.1,7.67,1.32,2.25,2.09,4.88,2.1,7.67h.04Z"/>
        <path d="M61.95,46.69c.02-2.79.78-5.42,2.1-7.67-1.32-2.25-2.09-4.88-2.1-7.67h-.04c-.02,2.79-.78,5.42-2.1,7.67,1.32,2.25,2.09,4.88,2.1,7.67h.04Z"/>
      </g>
      <g>
        <path d="M77.34,15.57s0-.08,0-.11c0-.04,0-.08,0-.12-2.82,0-5.45-.76-7.72-2.08-2.27,1.32-4.9,2.07-7.72,2.08,0,.04,0,.08,0,.12,0,.04,0,.08,0,.11,2.82,0,5.45.76,7.72,2.08,2.27-1.32,4.9-2.07,7.72-2.08Z"/>
        <path d="M61.87,15.57s0-.08,0-.11c0-.04,0-.08,0-.12-2.81,0-5.45-.76-7.71-2.08-2.27,1.32-4.91,2.07-7.72,2.08,0,.04,0,.08,0,.12,0,.04,0,.08,0,.11,2.81,0,5.45.76,7.72,2.08,2.26-1.32,4.9-2.07,7.71-2.08Z"/>
        <path d="M61.9,15.34c.02-2.79.78-5.42,2.1-7.67-1.32-2.25-2.09-4.87-2.1-7.67h-.04c-.02,2.79-.78,5.41-2.1,7.67,1.32,2.25,2.09,4.88,2.1,7.67h.04Z"/>
        <path d="M61.9,30.92c.02-2.79.78-5.42,2.1-7.67-1.32-2.25-2.09-4.88-2.1-7.67h-.04c-.02,2.79-.78,5.42-2.1,7.67,1.32,2.25,2.09,4.88,2.1,7.67h.04Z"/>
      </g>
    </g>
  </g>
</svg>