<?xml version="1.0" encoding="UTF-8"?>
<svg id="_레이어_2" data-name="레이어 2" xmlns="http://www.w3.org/2000/svg" viewBox="0 0 77.39 108.79">
  <g id="_레이어_1-2" data-name="레이어 1">
    <g>
      <g>
        <path d="M46.48,62.36s0-.08,0-.11c0-.04,0-.08,0-.12,2.82,0,5.45-.76,7.72-2.08,2.27,1.32,4.9,2.07,7.72,2.08,0,.04,0,.08,0,.12,0,.04,0,.08,0,.11-2.82,0-5.45.76-7.72,2.08-2.27-1.32-4.9-2.07-7.72-2.08Z"/>
        <path d="M61.95,62.36s0-.08,0-.11c0-.04,0-.08,0-.12,2.81,0,5.45-.76,7.71-2.08,2.27,1.32,4.91,2.07,7.72,2.08,0,.04,0,.08,0,.12,0,.04,0,.08,0,.11-2.81,0-5.45.76-7.72,2.08-2.26-1.32-4.9-2.07-7.71-2.08Z"/>
        <path d="M61.92,62.13c-.02-2.79-.78-5.42-2.1-7.67,1.32-2.25,2.09-4.87,2.1-7.67h.04c.02,2.79.78,5.41,2.1,7.67-1.32,2.25-2.09,4.88-2.1,7.67h-.04Z"/>
        <path d="M61.92,77.71c-.02-2.79-.78-5.42-2.1-7.67,1.32-2.25,2.09-4.88,2.1-7.67h.04c.02,2.79.78,5.42,2.1,7.67-1.32,2.25-2.09,4.88-2.1,7.67h-.04Z"/>
      </g>
      <g>
        <path d="M46.48,46.66s0-.08,0-.11c0-.04,0-.08,0-.12,2.82,0,5.45-.76,7.72-2.08,2.27,1.32,4.9,2.07,7.72,2.08,0,.04,0,.08,0,.12,0,.04,0,.08,0,.11-2.82,0-5.45.76-7.72,2.08-2.27-1.32-4.9-2.07-7.72-2.08Z"/>
        <path d="M61.95,46.66s0-.08,0-.11c0-.04,0-.08,0-.12,2.81,0,5.45-.76,7.71-2.08,2.27,1.32,4.91,2.07,7.72,2.08,0,.04,0,.08,0,.12,0,.04,0,.08,0,.11-2.81,0-5.45.76-7.72,2.08-2.26-1.32-4.9-2.07-7.71-2.08Z"/>
        <path d="M61.92,46.43c-.02-2.79-.78-5.42-2.1-7.67,1.32-2.25,2.09-4.87,2.1-7.67h.04c.02,2.79.78,5.41,2.1,7.67-1.32,2.25-2.09,4.88-2.1,7.67h-.04Z"/>
        <path d="M61.92,62.01c-.02-2.79-.78-5.42-2.1-7.67,1.32-2.25,2.09-4.88,2.1-7.67h.04c.02,2.79.78,5.42,2.1,7.67-1.32,2.25-2.09,4.88-2.1,7.67h-.04Z"/>
      </g>
      <g>
        <path d="M46.43,31.35s0-.08,0-.11c0-.04,0-.08,0-.12,2.82,0,5.45-.76,7.72-2.08,2.27,1.32,4.9,2.07,7.72,2.08,0,.04,0,.08,0,.12,0,.04,0,.08,0,.11-2.82,0-5.45.76-7.72,2.08-2.27-1.32-4.9-2.07-7.72-2.08Z"/>
        <path d="M61.91,31.35s0-.08,0-.11c0-.04,0-.08,0-.12,2.81,0,5.45-.76,7.71-2.08,2.27,1.32,4.91,2.07,7.72,2.08,0,.04,0,.08,0,.12,0,.04,0,.08,0,.11-2.81,0-5.45.76-7.72,2.08-2.26-1.32-4.9-2.07-7.71-2.08Z"/>
        <path d="M61.87,31.12c-.02-2.79-.78-5.42-2.1-7.67,1.32-2.25,2.09-4.87,2.1-7.67h.04c.02,2.79.78,5.41,2.1,7.67-1.32,2.25-2.09,4.88-2.1,7.67h-.04Z"/>
        <path d="M61.87,46.69c-.02-2.79-.78-5.42-2.1-7.67,1.32-2.25,2.09-4.88,2.1-7.67h.04c.02,2.79.78,5.42,2.1,7.67-1.32,2.25-2.09,4.88-2.1,7.67h-.04Z"/>
      </g>
      <g>
        <path d="M46.48,93.45s0-.08,0-.11c0-.04,0-.08,0-.12,2.82,0,5.45-.76,7.72-2.08,2.27,1.32,4.9,2.07,7.72,2.08,0,.04,0,.08,0,.12,0,.04,0,.08,0,.11-2.82,0-5.45.76-7.72,2.08-2.27-1.32-4.9-2.07-7.72-2.08Z"/>
        <path d="M61.95,93.45s0-.08,0-.11c0-.04,0-.08,0-.12,2.81,0,5.45-.76,7.71-2.08,2.27,1.32,4.91,2.07,7.72,2.08,0,.04,0,.08,0,.12,0,.04,0,.08,0,.11-2.81,0-5.45.76-7.72,2.08-2.26-1.32-4.9-2.07-7.71-2.08Z"/>
        <path d="M61.92,93.21c-.02-2.79-.78-5.42-2.1-7.67,1.32-2.25,2.09-4.87,2.1-7.67h.04c.02,2.79.78,5.41,2.1,7.67-1.32,2.25-2.09,4.88-2.1,7.67h-.04Z"/>
        <path d="M61.92,108.79c-.02-2.79-.78-5.42-2.1-7.67,1.32-2.25,2.09-4.88,2.1-7.67h.04c.02,2.79.78,5.42,2.1,7.67-1.32,2.25-2.09,4.88-2.1,7.67h-.04Z"/>
      </g>
      <g>
        <path d="M46.43,78.13s0-.08,0-.11c0-.04,0-.08,0-.12,2.82,0,5.45-.76,7.72-2.08,2.27,1.32,4.9,2.07,7.72,2.08,0,.04,0,.08,0,.12,0,.04,0,.08,0,.11-2.82,0-5.45.76-7.72,2.08-2.27-1.32-4.9-2.07-7.72-2.08Z"/>
        <path d="M61.91,78.13s0-.08,0-.11c0-.04,0-.08,0-.12,2.81,0,5.45-.76,7.71-2.08,2.27,1.32,4.91,2.07,7.72,2.08,0,.04,0,.08,0,.12,0,.04,0,.08,0,.11-2.81,0-5.45.76-7.72,2.08-2.26-1.32-4.9-2.07-7.71-2.08Z"/>
        <path d="M61.87,77.9c-.02-2.79-.78-5.42-2.1-7.67,1.32-2.25,2.09-4.87,2.1-7.67h.04c.02,2.79.78,5.41,2.1,7.67-1.32,2.25-2.09,4.88-2.1,7.67h-.04Z"/>
        <path d="M61.87,93.48c-.02-2.79-.78-5.42-2.1-7.67,1.32-2.25,2.09-4.88,2.1-7.67h.04c.02,2.79.78,5.42,2.1,7.67-1.32,2.25-2.09,4.88-2.1,7.67h-.04Z"/>
      </g>
      <g>
        <path d="M46.48,15.57s0-.08,0-.11c0-.04,0-.08,0-.12,2.82,0,5.45-.76,7.72-2.08,2.27,1.32,4.9,2.07,7.72,2.08,0,.04,0,.08,0,.12,0,.04,0,.08,0,.11-2.82,0-5.45.76-7.72,2.08-2.27-1.32-4.9-2.07-7.72-2.08Z"/>
        <path d="M61.95,15.57s0-.08,0-.11c0-.04,0-.08,0-.12,2.81,0,5.45-.76,7.71-2.08,2.27,1.32,4.91,2.07,7.72,2.08,0,.04,0,.08,0,.12,0,.04,0,.08,0,.11-2.81,0-5.45.76-7.72,2.08-2.26-1.32-4.9-2.07-7.71-2.08Z"/>
        <path d="M61.92,15.34c-.02-2.79-.78-5.42-2.1-7.67C61.14,5.41,61.9,2.79,61.92,0h.04c.02,2.79.78,5.41,2.1,7.67-1.32,2.25-2.09,4.88-2.1,7.67h-.04Z"/>
        <path d="M61.92,30.92c-.02-2.79-.78-5.42-2.1-7.67,1.32-2.25,2.09-4.88,2.1-7.67h.04c.02,2.79.78,5.42,2.1,7.67-1.32,2.25-2.09,4.88-2.1,7.67h-.04Z"/>
      </g>
      <g>
        <path d="M31.1,15.57s0-.08,0-.11c0-.04,0-.08,0-.12,2.82,0,5.45-.76,7.72-2.08,2.27,1.32,4.9,2.07,7.72,2.08,0,.04,0,.08,0,.12,0,.04,0,.08,0,.11-2.82,0-5.45.76-7.72,2.08-2.27-1.32-4.9-2.07-7.72-2.08Z"/>
        <path d="M46.57,15.57s0-.08,0-.11c0-.04,0-.08,0-.12,2.81,0,5.45-.76,7.71-2.08,2.27,1.32,4.91,2.07,7.72,2.08,0,.04,0,.08,0,.12,0,.04,0,.08,0,.11-2.81,0-5.45.76-7.72,2.08-2.26-1.32-4.9-2.07-7.71-2.08Z"/>
        <path d="M46.53,15.34c-.02-2.79-.78-5.42-2.1-7.67C45.76,5.41,46.52,2.79,46.53,0h.04c.02,2.79.78,5.41,2.1,7.67-1.32,2.25-2.09,4.88-2.1,7.67h-.04Z"/>
        <path d="M46.53,30.92c-.02-2.79-.78-5.42-2.1-7.67,1.32-2.25,2.09-4.88,2.1-7.67h.04c.02,2.79.78,5.42,2.1,7.67-1.32,2.25-2.09,4.88-2.1,7.67h-.04Z"/>
      </g>
      <g>
        <path d="M15.46,15.57s0-.08,0-.11c0-.04,0-.08,0-.12,2.82,0,5.45-.76,7.72-2.08,2.27,1.32,4.9,2.07,7.72,2.08,0,.04,0,.08,0,.12,0,.04,0,.08,0,.11-2.82,0-5.45.76-7.72,2.08-2.27-1.32-4.9-2.07-7.72-2.08Z"/>
        <path d="M30.94,15.57s0-.08,0-.11c0-.04,0-.08,0-.12,2.81,0,5.45-.76,7.71-2.08,2.27,1.32,4.91,2.07,7.72,2.08,0,.04,0,.08,0,.12,0,.04,0,.08,0,.11-2.81,0-5.45.76-7.72,2.08-2.26-1.32-4.9-2.07-7.71-2.08Z"/>
        <path d="M30.9,15.34c-.02-2.79-.78-5.42-2.1-7.67C30.12,5.41,30.88,2.79,30.9,0h.04c.02,2.79.78,5.41,2.1,7.67-1.32,2.25-2.09,4.88-2.1,7.67h-.04Z"/>
        <path d="M30.9,30.92c-.02-2.79-.78-5.42-2.1-7.67,1.32-2.25,2.09-4.88,2.1-7.67h.04c.02,2.79.78,5.42,2.1,7.67-1.32,2.25-2.09,4.88-2.1,7.67h-.04Z"/>
      </g>
      <g>
        <path d="M31.02,46.78s0-.08,0-.11c0-.04,0-.08,0-.12,2.82,0,5.45-.76,7.72-2.08,2.27,1.32,4.9,2.07,7.72,2.08,0,.04,0,.08,0,.12,0,.04,0,.08,0,.11-2.82,0-5.45.76-7.72,2.08-2.27-1.32-4.9-2.07-7.72-2.08Z"/>
        <path d="M46.49,46.78s0-.08,0-.11c0-.04,0-.08,0-.12,2.81,0,5.45-.76,7.71-2.08,2.27,1.32,4.91,2.07,7.72,2.08,0,.04,0,.08,0,.12,0,.04,0,.08,0,.11-2.81,0-5.45.76-7.72,2.08-2.26-1.32-4.9-2.07-7.71-2.08Z"/>
        <path d="M46.45,46.54c-.02-2.79-.78-5.42-2.1-7.67,1.32-2.25,2.09-4.87,2.1-7.67h.04c.02,2.79.78,5.41,2.1,7.67-1.32,2.25-2.09,4.88-2.1,7.67h-.04Z"/>
        <path d="M46.45,62.12c-.02-2.79-.78-5.42-2.1-7.67,1.32-2.25,2.09-4.88,2.1-7.67h.04c.02,2.79.78,5.42,2.1,7.67-1.32,2.25-2.09,4.88-2.1,7.67h-.04Z"/>
      </g>
      <g>
        <path d="M15.38,46.78s0-.08,0-.11c0-.04,0-.08,0-.12,2.82,0,5.45-.76,7.72-2.08,2.27,1.32,4.9,2.07,7.72,2.08,0,.04,0,.08,0,.12,0,.04,0,.08,0,.11-2.82,0-5.45.76-7.72,2.08-2.27-1.32-4.9-2.07-7.72-2.08Z"/>
        <path d="M30.86,46.78s0-.08,0-.11c0-.04,0-.08,0-.12,2.81,0,5.45-.76,7.71-2.08,2.27,1.32,4.91,2.07,7.72,2.08,0,.04,0,.08,0,.12,0,.04,0,.08,0,.11-2.81,0-5.45.76-7.72,2.08-2.26-1.32-4.9-2.07-7.71-2.08Z"/>
        <path d="M30.82,46.54c-.02-2.79-.78-5.42-2.1-7.67,1.32-2.25,2.09-4.87,2.1-7.67h.04c.02,2.79.78,5.41,2.1,7.67-1.32,2.25-2.09,4.88-2.1,7.67h-.04Z"/>
        <path d="M30.82,62.12c-.02-2.79-.78-5.42-2.1-7.67,1.32-2.25,2.09-4.88,2.1-7.67h.04c.02,2.79.78,5.42,2.1,7.67-1.32,2.25-2.09,4.88-2.1,7.67h-.04Z"/>
      </g>
      <g>
        <path d="M.05,46.66s0-.08,0-.11c0-.04,0-.08,0-.12,2.82,0,5.45-.76,7.72-2.08,2.27,1.32,4.9,2.07,7.72,2.08,0,.04,0,.08,0,.12,0,.04,0,.08,0,.11-2.82,0-5.45.76-7.72,2.08-2.27-1.32-4.9-2.07-7.72-2.08Z"/>
        <path d="M15.53,46.66s0-.08,0-.11c0-.04,0-.08,0-.12,2.81,0,5.45-.76,7.71-2.08,2.27,1.32,4.91,2.07,7.72,2.08,0,.04,0,.08,0,.12,0,.04,0,.08,0,.11-2.81,0-5.45.76-7.72,2.08-2.26-1.32-4.9-2.07-7.71-2.08Z"/>
        <path d="M15.49,46.43c-.02-2.79-.78-5.42-2.1-7.67,1.32-2.25,2.09-4.87,2.1-7.67h.04c.02,2.79.78,5.41,2.1,7.67-1.32,2.25-2.09,4.88-2.1,7.67h-.04Z"/>
        <path d="M15.49,62.01c-.02-2.79-.78-5.42-2.1-7.67,1.32-2.25,2.09-4.88,2.1-7.67h.04c.02,2.79.78,5.42,2.1,7.67-1.32,2.25-2.09,4.88-2.1,7.67h-.04Z"/>
      </g>
      <g>
        <path d="M0,31.35s0-.08,0-.11c0-.04,0-.08,0-.12,2.82,0,5.45-.76,7.72-2.08,2.27,1.32,4.9,2.07,7.72,2.08,0,.04,0,.08,0,.12,0,.04,0,.08,0,.11-2.82,0-5.45.76-7.72,2.08-2.27-1.32-4.9-2.07-7.72-2.08Z"/>
        <path d="M15.48,31.35s0-.08,0-.11c0-.04,0-.08,0-.12,2.81,0,5.45-.76,7.71-2.08,2.27,1.32,4.91,2.07,7.72,2.08,0,.04,0,.08,0,.12,0,.04,0,.08,0,.11-2.81,0-5.45.76-7.72,2.08-2.26-1.32-4.9-2.07-7.71-2.08Z"/>
        <path d="M15.44,31.12c-.02-2.79-.78-5.42-2.1-7.67,1.32-2.25,2.09-4.87,2.1-7.67h.04c.02,2.79.78,5.41,2.1,7.67-1.32,2.25-2.09,4.88-2.1,7.67h-.04Z"/>
        <path d="M15.44,46.69c-.02-2.79-.78-5.42-2.1-7.67,1.32-2.25,2.09-4.88,2.1-7.67h.04c.02,2.79.78,5.42,2.1,7.67-1.32,2.25-2.09,4.88-2.1,7.67h-.04Z"/>
      </g>
      <g>
        <path d="M.05,15.57s0-.08,0-.11c0-.04,0-.08,0-.12,2.82,0,5.45-.76,7.72-2.08,2.27,1.32,4.9,2.07,7.72,2.08,0,.04,0,.08,0,.12,0,.04,0,.08,0,.11-2.82,0-5.45.76-7.72,2.08-2.27-1.32-4.9-2.07-7.72-2.08Z"/>
        <path d="M15.53,15.57s0-.08,0-.11c0-.04,0-.08,0-.12,2.81,0,5.45-.76,7.71-2.08,2.27,1.32,4.91,2.07,7.72,2.08,0,.04,0,.08,0,.12,0,.04,0,.08,0,.11-2.81,0-5.45.76-7.72,2.08-2.26-1.32-4.9-2.07-7.71-2.08Z"/>
        <path d="M15.49,15.34c-.02-2.79-.78-5.42-2.1-7.67,1.32-2.25,2.09-4.87,2.1-7.67h.04c.02,2.79.78,5.41,2.1,7.67-1.32,2.25-2.09,4.88-2.1,7.67h-.04Z"/>
        <path d="M15.49,30.92c-.02-2.79-.78-5.42-2.1-7.67,1.32-2.25,2.09-4.88,2.1-7.67h.04c.02,2.79.78,5.42,2.1,7.67-1.32,2.25-2.09,4.88-2.1,7.67h-.04Z"/>
      </g>
    </g>
  </g>
</svg>