<?xml version="1.0" encoding="UTF-8"?>
<svg id="_레이어_2" data-name="레이어 2" xmlns="http://www.w3.org/2000/svg" viewBox="0 0 77.47 77.7">
  <g id="_레이어_1-2" data-name="레이어 1">
    <g>
      <g>
        <path d="M.05,46.59s0-.08,0-.11c0-.04,0-.08,0-.12,2.82,0,5.45-.76,7.72-2.08,2.27,1.32,4.9,2.07,7.72,2.08,0,.04,0,.08,0,.12,0,.04,0,.08,0,.11-2.82,0-5.45.76-7.72,2.08-2.27-1.32-4.9-2.07-7.72-2.08Z"/>
        <path d="M15.53,46.59s0-.08,0-.11c0-.04,0-.08,0-.12,2.81,0,5.45-.76,7.71-2.08,2.27,1.32,4.91,2.07,7.72,2.08,0,.04,0,.08,0,.12,0,.04,0,.08,0,.11-2.81,0-5.45.76-7.72,2.08-2.26-1.32-4.9-2.07-7.71-2.08Z"/>
        <path d="M15.49,46.35c-.02-2.79-.78-5.42-2.1-7.67,1.32-2.25,2.09-4.87,2.1-7.67h.04c.02,2.79.78,5.41,2.1,7.67-1.32,2.25-2.09,4.88-2.1,7.67h-.04Z"/>
        <path d="M15.49,61.93c-.02-2.79-.78-5.42-2.1-7.67,1.32-2.25,2.09-4.88,2.1-7.67h.04c.02,2.79.78,5.42,2.1,7.67-1.32,2.25-2.09,4.88-2.1,7.67h-.04Z"/>
      </g>
      <g>
        <path d="M.05,31.15s0-.08,0-.11c0-.04,0-.08,0-.12,2.82,0,5.45-.76,7.72-2.08,2.27,1.32,4.9,2.07,7.72,2.08,0,.04,0,.08,0,.12,0,.04,0,.08,0,.11-2.82,0-5.45.76-7.72,2.08-2.27-1.32-4.9-2.07-7.72-2.08Z"/>
        <path d="M15.53,31.15s0-.08,0-.11c0-.04,0-.08,0-.12,2.81,0,5.45-.76,7.71-2.08,2.27,1.32,4.91,2.07,7.72,2.08,0,.04,0,.08,0,.12,0,.04,0,.08,0,.11-2.81,0-5.45.76-7.72,2.08-2.26-1.32-4.9-2.07-7.71-2.08Z"/>
        <path d="M15.49,30.92c-.02-2.79-.78-5.42-2.1-7.67,1.32-2.25,2.09-4.87,2.1-7.67h.04c.02,2.79.78,5.41,2.1,7.67-1.32,2.25-2.09,4.88-2.1,7.67h-.04Z"/>
        <path d="M15.49,46.5c-.02-2.79-.78-5.42-2.1-7.67,1.32-2.25,2.09-4.88,2.1-7.67h.04c.02,2.79.78,5.42,2.1,7.67-1.32,2.25-2.09,4.88-2.1,7.67h-.04Z"/>
      </g>
      <g>
        <path d="M0,15.57S0,15.5,0,15.46c0-.04,0-.08,0-.12,2.82,0,5.45-.76,7.72-2.08,2.27,1.32,4.9,2.07,7.72,2.08,0,.04,0,.08,0,.12,0,.04,0,.08,0,.11-2.82,0-5.45.76-7.72,2.08C5.45,16.33,2.82,15.58,0,15.57Z"/>
        <path d="M15.48,15.57s0-.08,0-.11c0-.04,0-.08,0-.12,2.81,0,5.45-.76,7.71-2.08,2.27,1.32,4.91,2.07,7.72,2.08,0,.04,0,.08,0,.12,0,.04,0,.08,0,.11-2.81,0-5.45.76-7.72,2.08-2.26-1.32-4.9-2.07-7.71-2.08Z"/>
        <path d="M15.44,15.34c-.02-2.79-.78-5.42-2.1-7.67,1.32-2.25,2.09-4.87,2.1-7.67h.04c.02,2.79.78,5.41,2.1,7.67-1.32,2.25-2.09,4.88-2.1,7.67h-.04Z"/>
        <path d="M15.44,30.92c-.02-2.79-.78-5.42-2.1-7.67,1.32-2.25,2.09-4.88,2.1-7.67h.04c.02,2.79.78,5.42,2.1,7.67-1.32,2.25-2.09,4.88-2.1,7.67h-.04Z"/>
      </g>
      <g>
        <path d="M31.1,15.57s0-.08,0-.11c0-.04,0-.08,0-.12,2.82,0,5.45-.76,7.72-2.08,2.27,1.32,4.9,2.07,7.72,2.08,0,.04,0,.08,0,.12,0,.04,0,.08,0,.11-2.82,0-5.45.76-7.72,2.08-2.27-1.32-4.9-2.07-7.72-2.08Z"/>
        <path d="M46.57,15.57s0-.08,0-.11c0-.04,0-.08,0-.12,2.81,0,5.45-.76,7.71-2.08,2.27,1.32,4.91,2.07,7.72,2.08,0,.04,0,.08,0,.12,0,.04,0,.08,0,.11-2.81,0-5.45.76-7.72,2.08-2.26-1.32-4.9-2.07-7.71-2.08Z"/>
        <path d="M46.53,15.34c-.02-2.79-.78-5.42-2.1-7.67,1.32-2.25,2.09-4.87,2.1-7.67h.04c.02,2.79.78,5.41,2.1,7.67-1.32,2.25-2.09,4.88-2.1,7.67h-.04Z"/>
        <path d="M46.53,30.92c-.02-2.79-.78-5.42-2.1-7.67,1.32-2.25,2.09-4.88,2.1-7.67h.04c.02,2.79.78,5.42,2.1,7.67-1.32,2.25-2.09,4.88-2.1,7.67h-.04Z"/>
      </g>
      <g>
        <path d="M15.46,31.27s0-.08,0-.11c0-.04,0-.08,0-.12,2.82,0,5.45-.76,7.72-2.08,2.27,1.32,4.9,2.07,7.72,2.08,0,.04,0,.08,0,.12,0,.04,0,.08,0,.11-2.82,0-5.45.76-7.72,2.08-2.27-1.32-4.9-2.07-7.72-2.08Z"/>
        <path d="M30.94,31.27s0-.08,0-.11c0-.04,0-.08,0-.12,2.81,0,5.45-.76,7.71-2.08,2.27,1.32,4.91,2.07,7.72,2.08,0,.04,0,.08,0,.12,0,.04,0,.08,0,.11-2.81,0-5.45.76-7.72,2.08-2.26-1.32-4.9-2.07-7.71-2.08Z"/>
        <path d="M30.9,31.04c-.02-2.79-.78-5.42-2.1-7.67,1.32-2.25,2.09-4.87,2.1-7.67h.04c.02,2.79.78,5.41,2.1,7.67-1.32,2.25-2.09,4.88-2.1,7.67h-.04Z"/>
        <path d="M30.9,46.62c-.02-2.79-.78-5.42-2.1-7.67,1.32-2.25,2.09-4.88,2.1-7.67h.04c.02,2.79.78,5.42,2.1,7.67-1.32,2.25-2.09,4.88-2.1,7.67h-.04Z"/>
      </g>
      <g>
        <path d="M46.56,15.57s0-.08,0-.11c0-.04,0-.08,0-.12,2.82,0,5.45-.76,7.72-2.08,2.27,1.32,4.9,2.07,7.72,2.08,0,.04,0,.08,0,.12,0,.04,0,.08,0,.11-2.82,0-5.45.76-7.72,2.08-2.27-1.32-4.9-2.07-7.72-2.08Z"/>
        <path d="M62.03,15.57s0-.08,0-.11c0-.04,0-.08,0-.12,2.81,0,5.45-.76,7.71-2.08,2.27,1.32,4.91,2.07,7.72,2.08,0,.04,0,.08,0,.12,0,.04,0,.08,0,.11-2.81,0-5.45.76-7.72,2.08-2.26-1.32-4.9-2.07-7.71-2.08Z"/>
        <path d="M61.99,15.34c-.02-2.79-.78-5.42-2.1-7.67,1.32-2.25,2.09-4.87,2.1-7.67h.04c.02,2.79.78,5.41,2.1,7.67-1.32,2.25-2.09,4.88-2.1,7.67h-.04Z"/>
        <path d="M61.99,30.92c-.02-2.79-.78-5.42-2.1-7.67,1.32-2.25,2.09-4.88,2.1-7.67h.04c.02,2.79.78,5.42,2.1,7.67-1.32,2.25-2.09,4.88-2.1,7.67h-.04Z"/>
      </g>
      <g>
        <path d="M0,62.36s0-.08,0-.11c0-.04,0-.08,0-.12,2.82,0,5.45-.76,7.72-2.08,2.27,1.32,4.9,2.07,7.72,2.08,0,.04,0,.08,0,.12,0,.04,0,.08,0,.11-2.82,0-5.45.76-7.72,2.08-2.27-1.32-4.9-2.07-7.72-2.08Z"/>
        <path d="M15.48,62.36s0-.08,0-.11c0-.04,0-.08,0-.12,2.81,0,5.45-.76,7.71-2.08,2.27,1.32,4.91,2.07,7.72,2.08,0,.04,0,.08,0,.12,0,.04,0,.08,0,.11-2.81,0-5.45.76-7.72,2.08-2.26-1.32-4.9-2.07-7.71-2.08Z"/>
        <path d="M15.44,62.12c-.02-2.79-.78-5.42-2.1-7.67,1.32-2.25,2.09-4.87,2.1-7.67h.04c.02,2.79.78,5.41,2.1,7.67-1.32,2.25-2.09,4.88-2.1,7.67h-.04Z"/>
        <path d="M15.44,77.7c-.02-2.79-.78-5.42-2.1-7.67,1.32-2.25,2.09-4.88,2.1-7.67h.04c.02,2.79.78,5.42,2.1,7.67-1.32,2.25-2.09,4.88-2.1,7.67h-.04Z"/>
      </g>
    </g>
  </g>
</svg>