<?xml version="1.0" encoding="UTF-8"?>
<svg id="_레이어_2" data-name="레이어 2" xmlns="http://www.w3.org/2000/svg" viewBox="0 0 77.25 77.62">
  <g id="_레이어_1-2" data-name="레이어 1">
    <g>
      <g>
        <path d="M77.25,62.27s0-.08,0-.11c0-.04,0-.08,0-.12-2.82,0-5.45-.76-7.72-2.08-2.27,1.32-4.9,2.07-7.72,2.08,0,.04,0,.08,0,.12,0,.04,0,.08,0,.11,2.82,0,5.45.76,7.72,2.08,2.27-1.32,4.9-2.07,7.72-2.08Z"/>
        <path d="M61.77,62.27s0-.08,0-.11c0-.04,0-.08,0-.12-2.81,0-5.45-.76-7.71-2.08-2.27,1.32-4.91,2.07-7.72,2.08,0,.04,0,.08,0,.12,0,.04,0,.08,0,.11,2.81,0,5.45.76,7.72,2.08,2.26-1.32,4.9-2.07,7.71-2.08Z"/>
        <path d="M61.81,62.04c.02-2.79.78-5.42,2.1-7.67-1.32-2.25-2.09-4.87-2.1-7.67h-.02s-.02,0-.02,0c-.02,2.79-.78,5.41-2.1,7.67,1.32,2.25,2.09,4.88,2.1,7.67h.02s.01,0,.02,0Z"/>
        <path d="M61.81,77.62c.02-2.79.78-5.42,2.1-7.67-1.32-2.25-2.09-4.88-2.1-7.67h-.02s-.02,0-.02,0c-.02,2.79-.78,5.42-2.1,7.67,1.32,2.25,2.09,4.88,2.1,7.67h.02s.01,0,.02,0Z"/>
      </g>
      <g>
        <path d="M77.23,46.65s0-.08,0-.11c0-.04,0-.08,0-.12-2.82,0-5.45-.76-7.72-2.08-2.27,1.32-4.9,2.07-7.72,2.08,0,.04,0,.08,0,.12,0,.04,0,.08,0,.11,2.82,0,5.45.76,7.72,2.08,2.27-1.32,4.9-2.07,7.72-2.08Z"/>
        <path d="M61.76,46.65s0-.08,0-.11c0-.04,0-.08,0-.12-2.81,0-5.45-.76-7.71-2.08-2.27,1.32-4.91,2.07-7.72,2.08,0,.04,0,.08,0,.12,0,.04,0,.08,0,.11,2.81,0,5.45.76,7.72,2.08,2.26-1.32,4.9-2.07,7.71-2.08Z"/>
        <path d="M61.79,46.42c.02-2.79.78-5.42,2.1-7.67-1.32-2.25-2.09-4.87-2.1-7.67h-.02s-.02,0-.02,0c-.02,2.79-.78,5.41-2.1,7.67,1.32,2.25,2.09,4.88,2.1,7.67h.02s.01,0,.02,0Z"/>
        <path d="M61.79,62c.02-2.79.78-5.42,2.1-7.67-1.32-2.25-2.09-4.88-2.1-7.67h-.02s-.02,0-.02,0c-.02,2.79-.78,5.42-2.1,7.67,1.32,2.25,2.09,4.88,2.1,7.67h.02s.01,0,.02,0Z"/>
      </g>
      <g>
        <path d="M77.25,31.18s0-.08,0-.11c0-.04,0-.08,0-.12-2.82,0-5.45-.76-7.72-2.08-2.27,1.32-4.9,2.07-7.72,2.08,0,.04,0,.08,0,.12,0,.04,0,.08,0,.11,2.82,0,5.45.76,7.72,2.08,2.27-1.32,4.9-2.07,7.72-2.08Z"/>
        <path d="M61.77,31.18s0-.08,0-.11c0-.04,0-.08,0-.12-2.81,0-5.45-.76-7.71-2.08-2.27,1.32-4.91,2.07-7.72,2.08,0,.04,0,.08,0,.12,0,.04,0,.08,0,.11,2.81,0,5.45.76,7.72,2.08,2.26-1.32,4.9-2.07,7.71-2.08Z"/>
        <path d="M61.81,30.95c.02-2.79.78-5.42,2.1-7.67-1.32-2.25-2.09-4.87-2.1-7.67h-.02s-.02,0-.02,0c-.02,2.79-.78,5.41-2.1,7.67,1.32,2.25,2.09,4.88,2.1,7.67h.02s.01,0,.02,0Z"/>
        <path d="M61.81,46.53c.02-2.79.78-5.42,2.1-7.67-1.32-2.25-2.09-4.88-2.1-7.67h-.02s-.02,0-.02,0c-.02,2.79-.78,5.42-2.1,7.67,1.32,2.25,2.09,4.88,2.1,7.67h.02s.01,0,.02,0Z"/>
      </g>
      <g>
        <path d="M77.25,15.57s0-.08,0-.11c0-.04,0-.08,0-.12-2.82,0-5.45-.76-7.72-2.08-2.27,1.32-4.9,2.07-7.72,2.08,0,.04,0,.08,0,.12,0,.04,0,.08,0,.11,2.82,0,5.45.76,7.72,2.08,2.27-1.32,4.9-2.07,7.72-2.08Z"/>
        <path d="M61.77,15.57s0-.08,0-.11c0-.04,0-.08,0-.12-2.81,0-5.45-.76-7.71-2.08-2.27,1.32-4.91,2.07-7.72,2.08,0,.04,0,.08,0,.12,0,.04,0,.08,0,.11,2.81,0,5.45.76,7.72,2.08,2.26-1.32,4.9-2.07,7.71-2.08Z"/>
        <path d="M61.81,15.34c.02-2.79.78-5.42,2.1-7.67C62.59,5.41,61.83,2.79,61.81,0h-.02s-.02,0-.02,0c-.02,2.79-.78,5.41-2.1,7.67,1.32,2.25,2.09,4.88,2.1,7.67h.02s.01,0,.02,0Z"/>
        <path d="M61.81,30.92c.02-2.79.78-5.42,2.1-7.67-1.32-2.25-2.09-4.88-2.1-7.67h-.02s-.02,0-.02,0c-.02,2.79-.78,5.42-2.1,7.67,1.32,2.25,2.09,4.88,2.1,7.67h.02s.01,0,.02,0Z"/>
      </g>
      <g>
        <path d="M30.93,62.27s0-.08,0-.11c0-.04,0-.08,0-.12-2.82,0-5.45-.76-7.72-2.08-2.27,1.32-4.9,2.07-7.72,2.08,0,.04,0,.08,0,.12,0,.04,0,.08,0,.11,2.82,0,5.45.76,7.72,2.08,2.27-1.32,4.9-2.07,7.72-2.08Z"/>
        <path d="M15.45,62.27s0-.08,0-.11c0-.04,0-.08,0-.12-2.81,0-5.45-.76-7.71-2.08-2.27,1.32-4.91,2.07-7.72,2.08,0,.04,0,.08,0,.12,0,.04,0,.08,0,.11,2.81,0,5.45.76,7.72,2.08,2.26-1.32,4.9-2.07,7.71-2.08Z"/>
        <path d="M15.49,62.04c.02-2.79.78-5.42,2.1-7.67-1.32-2.25-2.09-4.87-2.1-7.67h-.02s-.02,0-.02,0c-.02,2.79-.78,5.41-2.1,7.67,1.32,2.25,2.09,4.88,2.1,7.67h.02s.01,0,.02,0Z"/>
        <path d="M15.49,77.62c.02-2.79.78-5.42,2.1-7.67-1.32-2.25-2.09-4.88-2.1-7.67h-.02s-.02,0-.02,0c-.02,2.79-.78,5.42-2.1,7.67,1.32,2.25,2.09,4.88,2.1,7.67h.02s.01,0,.02,0Z"/>
      </g>
      <g>
        <path d="M46.3,62.27s0-.08,0-.11c0-.04,0-.08,0-.12-2.82,0-5.45-.76-7.72-2.08-2.27,1.32-4.9,2.07-7.72,2.08,0,.04,0,.08,0,.12,0,.04,0,.08,0,.11,2.82,0,5.45.76,7.72,2.08,2.27-1.32,4.9-2.07,7.72-2.08Z"/>
        <path d="M30.82,62.27s0-.08,0-.11c0-.04,0-.08,0-.12-2.81,0-5.45-.76-7.71-2.08-2.27,1.32-4.91,2.07-7.72,2.08,0,.04,0,.08,0,.12,0,.04,0,.08,0,.11,2.81,0,5.45.76,7.72,2.08,2.26-1.32,4.9-2.07,7.71-2.08Z"/>
        <path d="M30.86,62.04c.02-2.79.78-5.42,2.1-7.67-1.32-2.25-2.09-4.87-2.1-7.67h-.02s-.02,0-.02,0c-.02,2.79-.78,5.41-2.1,7.67,1.32,2.25,2.09,4.88,2.1,7.67h.02s.01,0,.02,0Z"/>
        <path d="M30.86,77.62c.02-2.79.78-5.42,2.1-7.67-1.32-2.25-2.09-4.88-2.1-7.67h-.02s-.02,0-.02,0c-.02,2.79-.78,5.42-2.1,7.67,1.32,2.25,2.09,4.88,2.1,7.67h.02s.01,0,.02,0Z"/>
      </g>
      <g>
        <path d="M30.91,46.65s0-.08,0-.11c0-.04,0-.08,0-.12-2.82,0-5.45-.76-7.72-2.08-2.27,1.32-4.9,2.07-7.72,2.08,0,.04,0,.08,0,.12,0,.04,0,.08,0,.11,2.82,0,5.45.76,7.72,2.08,2.27-1.32,4.9-2.07,7.72-2.08Z"/>
        <path d="M15.44,46.65s0-.08,0-.11c0-.04,0-.08,0-.12-2.81,0-5.45-.76-7.71-2.08-2.27,1.32-4.91,2.07-7.72,2.08C0,46.46,0,46.5,0,46.54c0,.04,0,.08,0,.11,2.81,0,5.45.76,7.72,2.08,2.26-1.32,4.9-2.07,7.71-2.08Z"/>
        <path d="M15.47,46.42c.02-2.79.78-5.42,2.1-7.67-1.32-2.25-2.09-4.87-2.1-7.67h-.02s-.02,0-.02,0c-.02,2.79-.78,5.41-2.1,7.67,1.32,2.25,2.09,4.88,2.1,7.67h.02s.01,0,.02,0Z"/>
        <path d="M15.47,62c.02-2.79.78-5.42,2.1-7.67-1.32-2.25-2.09-4.88-2.1-7.67h-.02s-.02,0-.02,0c-.02,2.79-.78,5.42-2.1,7.67,1.32,2.25,2.09,4.88,2.1,7.67h.02s.01,0,.02,0Z"/>
      </g>
      <g>
        <path d="M30.93,31.18s0-.08,0-.11c0-.04,0-.08,0-.12-2.82,0-5.45-.76-7.72-2.08-2.27,1.32-4.9,2.07-7.72,2.08,0,.04,0,.08,0,.12,0,.04,0,.08,0,.11,2.82,0,5.45.76,7.72,2.08,2.27-1.32,4.9-2.07,7.72-2.08Z"/>
        <path d="M15.45,31.18s0-.08,0-.11c0-.04,0-.08,0-.12-2.81,0-5.45-.76-7.71-2.08-2.27,1.32-4.91,2.07-7.72,2.08,0,.04,0,.08,0,.12,0,.04,0,.08,0,.11,2.81,0,5.45.76,7.72,2.08,2.26-1.32,4.9-2.07,7.71-2.08Z"/>
        <path d="M15.49,30.95c.02-2.79.78-5.42,2.1-7.67-1.32-2.25-2.09-4.87-2.1-7.67h-.02s-.02,0-.02,0c-.02,2.79-.78,5.41-2.1,7.67,1.32,2.25,2.09,4.88,2.1,7.67h.02s.01,0,.02,0Z"/>
        <path d="M15.49,46.53c.02-2.79.78-5.42,2.1-7.67-1.32-2.25-2.09-4.88-2.1-7.67h-.02s-.02,0-.02,0c-.02,2.79-.78,5.42-2.1,7.67,1.32,2.25,2.09,4.88,2.1,7.67h.02s.01,0,.02,0Z"/>
      </g>
      <g>
        <path d="M30.93,15.57s0-.08,0-.11c0-.04,0-.08,0-.12-2.82,0-5.45-.76-7.72-2.08-2.27,1.32-4.9,2.07-7.72,2.08,0,.04,0,.08,0,.12,0,.04,0,.08,0,.11,2.82,0,5.45.76,7.72,2.08,2.27-1.32,4.9-2.07,7.72-2.08Z"/>
        <path d="M15.45,15.57s0-.08,0-.11c0-.04,0-.08,0-.12-2.81,0-5.45-.76-7.71-2.08C5.47,14.58,2.83,15.33.02,15.34c0,.04,0,.08,0,.12,0,.04,0,.08,0,.11,2.81,0,5.45.76,7.72,2.08,2.26-1.32,4.9-2.07,7.71-2.08Z"/>
        <path d="M15.49,15.34c.02-2.79.78-5.42,2.1-7.67C16.27,5.41,15.51,2.79,15.49,0h-.02s-.02,0-.02,0c-.02,2.79-.78,5.41-2.1,7.67,1.32,2.25,2.09,4.88,2.1,7.67h.02s.01,0,.02,0Z"/>
        <path d="M15.49,30.92c.02-2.79.78-5.42,2.1-7.67-1.32-2.25-2.09-4.88-2.1-7.67h-.02s-.02,0-.02,0c-.02,2.79-.78,5.42-2.1,7.67,1.32,2.25,2.09,4.88,2.1,7.67h.02s.01,0,.02,0Z"/>
      </g>
    </g>
  </g>
</svg>