<?xml version="1.0" encoding="UTF-8"?>
<svg id="_레이어_2" data-name="레이어 2" xmlns="http://www.w3.org/2000/svg" viewBox="0 0 92.74 77.62">
  <g id="_레이어_1-2" data-name="레이어 1">
    <g>
      <g>
        <path d="M0,15.34S0,15.42,0,15.46c0,.04,0,.08,0,.12,2.82,0,5.45.76,7.72,2.08,2.27-1.32,4.9-2.07,7.72-2.08,0-.04,0-.08,0-.12,0-.04,0-.08,0-.11-2.82,0-5.45-.76-7.72-2.08C5.45,14.59,2.82,15.34,0,15.34Z"/>
        <path d="M15.48,15.34s0,.08,0,.11c0,.04,0,.08,0,.12,2.81,0,5.45.76,7.71,2.08,2.27-1.32,4.91-2.07,7.72-2.08,0-.04,0-.08,0-.12,0-.04,0-.08,0-.11-2.81,0-5.45-.76-7.72-2.08-2.26,1.32-4.9,2.07-7.71,2.08Z"/>
        <path d="M15.44,15.58c-.02,2.79-.78,5.42-2.1,7.67,1.32,2.25,2.09,4.87,2.1,7.67h.04c.02-2.79.78-5.41,2.1-7.67-1.32-2.25-2.09-4.88-2.1-7.67h-.04Z"/>
        <path d="M15.44,0c-.02,2.79-.78,5.42-2.1,7.67,1.32,2.25,2.09,4.88,2.1,7.67h.04c.02-2.79.78-5.42,2.1-7.67-1.32-2.25-2.09-4.88-2.1-7.67h-.04Z"/>
      </g>
      <g>
        <path d="M.02,30.96s0,.08,0,.11c0,.04,0,.08,0,.12,2.82,0,5.45.76,7.72,2.08,2.27-1.32,4.9-2.07,7.72-2.08,0-.04,0-.08,0-.12,0-.04,0-.08,0-.11-2.82,0-5.45-.76-7.72-2.08-2.27,1.32-4.9,2.07-7.72,2.08Z"/>
        <path d="M15.5,30.96s0,.08,0,.11c0,.04,0,.08,0,.12,2.81,0,5.45.76,7.71,2.08,2.27-1.32,4.91-2.07,7.72-2.08,0-.04,0-.08,0-.12,0-.04,0-.08,0-.11-2.81,0-5.45-.76-7.72-2.08-2.26,1.32-4.9,2.07-7.71,2.08Z"/>
        <path d="M15.46,31.2c-.02,2.79-.78,5.42-2.1,7.67,1.32,2.25,2.09,4.87,2.1,7.67h.04c.02-2.79.78-5.41,2.1-7.67-1.32-2.25-2.09-4.88-2.1-7.67h-.04Z"/>
        <path d="M15.46,15.62c-.02,2.79-.78,5.42-2.1,7.67,1.32,2.25,2.09,4.88,2.1,7.67h.04c.02-2.79.78-5.42,2.1-7.67-1.32-2.25-2.09-4.88-2.1-7.67h-.04Z"/>
      </g>
      <g>
        <path d="M0,46.43s0,.08,0,.11c0,.04,0,.08,0,.12,2.82,0,5.45.76,7.72,2.08,2.27-1.32,4.9-2.07,7.72-2.08,0-.04,0-.08,0-.12,0-.04,0-.08,0-.11-2.82,0-5.45-.76-7.72-2.08-2.27,1.32-4.9,2.07-7.72,2.08Z"/>
        <path d="M15.48,46.43s0,.08,0,.11c0,.04,0,.08,0,.12,2.81,0,5.45.76,7.71,2.08,2.27-1.32,4.91-2.07,7.72-2.08,0-.04,0-.08,0-.12,0-.04,0-.08,0-.11-2.81,0-5.45-.76-7.72-2.08-2.26,1.32-4.9,2.07-7.71,2.08Z"/>
        <path d="M15.44,46.67c-.02,2.79-.78,5.42-2.1,7.67,1.32,2.25,2.09,4.87,2.1,7.67h.04c.02-2.79.78-5.41,2.1-7.67-1.32-2.25-2.09-4.88-2.1-7.67h-.04Z"/>
        <path d="M15.44,31.09c-.02,2.79-.78,5.42-2.1,7.67,1.32,2.25,2.09,4.88,2.1,7.67h.04c.02-2.79.78-5.42,2.1-7.67-1.32-2.25-2.09-4.88-2.1-7.67h-.04Z"/>
      </g>
      <g>
        <path d="M0,62.04s0,.08,0,.11c0,.04,0,.08,0,.12,2.82,0,5.45.76,7.72,2.08,2.27-1.32,4.9-2.07,7.72-2.08,0-.04,0-.08,0-.12,0-.04,0-.08,0-.11-2.82,0-5.45-.76-7.72-2.08-2.27,1.32-4.9,2.07-7.72,2.08Z"/>
        <path d="M15.48,62.04s0,.08,0,.11c0,.04,0,.08,0,.12,2.81,0,5.45.76,7.71,2.08,2.27-1.32,4.91-2.07,7.72-2.08,0-.04,0-.08,0-.12,0-.04,0-.08,0-.11-2.81,0-5.45-.76-7.72-2.08-2.26,1.32-4.9,2.07-7.71,2.08Z"/>
        <path d="M15.44,62.28c-.02,2.79-.78,5.42-2.1,7.67,1.32,2.25,2.09,4.87,2.1,7.67h.04c.02-2.79.78-5.41,2.1-7.67-1.32-2.25-2.09-4.88-2.1-7.67h-.04Z"/>
        <path d="M15.44,46.7c-.02,2.79-.78,5.42-2.1,7.67,1.32,2.25,2.09,4.88,2.1,7.67h.04c.02-2.79.78-5.42,2.1-7.67-1.32-2.25-2.09-4.88-2.1-7.67h-.04Z"/>
      </g>
      <g>
        <path d="M61.81,15.34s0,.08,0,.11c0,.04,0,.08,0,.12,2.82,0,5.45.76,7.72,2.08,2.27-1.32,4.9-2.07,7.72-2.08,0-.04,0-.08,0-.12,0-.04,0-.08,0-.11-2.82,0-5.45-.76-7.72-2.08-2.27,1.32-4.9,2.07-7.72,2.08Z"/>
        <path d="M77.28,15.34s0,.08,0,.11c0,.04,0,.08,0,.12,2.81,0,5.45.76,7.71,2.08,2.27-1.32,4.91-2.07,7.72-2.08,0-.04,0-.08,0-.12,0-.04,0-.08,0-.11-2.81,0-5.45-.76-7.72-2.08-2.26,1.32-4.9,2.07-7.71,2.08Z"/>
        <path d="M77.25,15.58c-.02,2.79-.78,5.42-2.1,7.67,1.32,2.25,2.09,4.87,2.1,7.67h.04c.02-2.79.78-5.41,2.1-7.67-1.32-2.25-2.09-4.88-2.1-7.67h-.04Z"/>
        <path d="M77.25,0c-.02,2.79-.78,5.42-2.1,7.67,1.32,2.25,2.09,4.88,2.1,7.67h.04c.02-2.79.78-5.42,2.1-7.67-1.32-2.25-2.09-4.88-2.1-7.67h-.04Z"/>
      </g>
      <g>
        <path d="M61.82,30.96s0,.08,0,.11c0,.04,0,.08,0,.12,2.82,0,5.45.76,7.72,2.08,2.27-1.32,4.9-2.07,7.72-2.08,0-.04,0-.08,0-.12,0-.04,0-.08,0-.11-2.82,0-5.45-.76-7.72-2.08-2.27,1.32-4.9,2.07-7.72,2.08Z"/>
        <path d="M77.3,30.96s0,.08,0,.11c0,.04,0,.08,0,.12,2.81,0,5.45.76,7.71,2.08,2.27-1.32,4.91-2.07,7.72-2.08,0-.04,0-.08,0-.12,0-.04,0-.08,0-.11-2.81,0-5.45-.76-7.72-2.08-2.26,1.32-4.9,2.07-7.71,2.08Z"/>
        <path d="M77.26,31.2c-.02,2.79-.78,5.42-2.1,7.67,1.32,2.25,2.09,4.87,2.1,7.67h.04c.02-2.79.78-5.41,2.1-7.67-1.32-2.25-2.09-4.88-2.1-7.67h-.04Z"/>
        <path d="M77.26,15.62c-.02,2.79-.78,5.42-2.1,7.67,1.32,2.25,2.09,4.88,2.1,7.67h.04c.02-2.79.78-5.42,2.1-7.67-1.32-2.25-2.09-4.88-2.1-7.67h-.04Z"/>
      </g>
      <g>
        <path d="M61.81,46.43s0,.08,0,.11c0,.04,0,.08,0,.12,2.82,0,5.45.76,7.72,2.08,2.27-1.32,4.9-2.07,7.72-2.08,0-.04,0-.08,0-.12,0-.04,0-.08,0-.11-2.82,0-5.45-.76-7.72-2.08-2.27,1.32-4.9,2.07-7.72,2.08Z"/>
        <path d="M77.28,46.43s0,.08,0,.11c0,.04,0,.08,0,.12,2.81,0,5.45.76,7.71,2.08,2.27-1.32,4.91-2.07,7.72-2.08,0-.04,0-.08,0-.12,0-.04,0-.08,0-.11-2.81,0-5.45-.76-7.72-2.08-2.26,1.32-4.9,2.07-7.71,2.08Z"/>
        <path d="M77.25,46.67c-.02,2.79-.78,5.42-2.1,7.67,1.32,2.25,2.09,4.87,2.1,7.67h.04c.02-2.79.78-5.41,2.1-7.67-1.32-2.25-2.09-4.88-2.1-7.67h-.04Z"/>
        <path d="M77.25,31.09c-.02,2.79-.78,5.42-2.1,7.67,1.32,2.25,2.09,4.88,2.1,7.67h.04c.02-2.79.78-5.42,2.1-7.67-1.32-2.25-2.09-4.88-2.1-7.67h-.04Z"/>
      </g>
      <g>
        <path d="M30.86,30.96s0,.08,0,.11c0,.04,0,.08,0,.12,2.82,0,5.45.76,7.72,2.08,2.27-1.32,4.9-2.07,7.72-2.08,0-.04,0-.08,0-.12,0-.04,0-.08,0-.11-2.82,0-5.45-.76-7.72-2.08-2.27,1.32-4.9,2.07-7.72,2.08Z"/>
        <path d="M46.33,30.96s0,.08,0,.11c0,.04,0,.08,0,.12,2.81,0,5.45.76,7.71,2.08,2.27-1.32,4.91-2.07,7.72-2.08,0-.04,0-.08,0-.12,0-.04,0-.08,0-.11-2.81,0-5.45-.76-7.72-2.08-2.26,1.32-4.9,2.07-7.71,2.08Z"/>
        <path d="M46.29,31.2c-.02,2.79-.78,5.42-2.1,7.67,1.32,2.25,2.09,4.87,2.1,7.67h.04c.02-2.79.78-5.41,2.1-7.67-1.32-2.25-2.09-4.88-2.1-7.67h-.04Z"/>
        <path d="M46.29,15.62c-.02,2.79-.78,5.42-2.1,7.67,1.32,2.25,2.09,4.88,2.1,7.67h.04c.02-2.79.78-5.42,2.1-7.67-1.32-2.25-2.09-4.88-2.1-7.67h-.04Z"/>
      </g>
      <g>
        <path d="M30.84,46.43s0,.08,0,.11c0,.04,0,.08,0,.12,2.82,0,5.45.76,7.72,2.08,2.27-1.32,4.9-2.07,7.72-2.08,0-.04,0-.08,0-.12,0-.04,0-.08,0-.11-2.82,0-5.45-.76-7.72-2.08-2.27,1.32-4.9,2.07-7.72,2.08Z"/>
        <path d="M46.32,46.43s0,.08,0,.11c0,.04,0,.08,0,.12,2.81,0,5.45.76,7.71,2.08,2.27-1.32,4.91-2.07,7.72-2.08,0-.04,0-.08,0-.12,0-.04,0-.08,0-.11-2.81,0-5.45-.76-7.72-2.08-2.26,1.32-4.9,2.07-7.71,2.08Z"/>
        <path d="M46.28,46.67c-.02,2.79-.78,5.42-2.1,7.67,1.32,2.25,2.09,4.87,2.1,7.67h.04c.02-2.79.78-5.41,2.1-7.67-1.32-2.25-2.09-4.88-2.1-7.67h-.04Z"/>
        <path d="M46.28,31.09c-.02,2.79-.78,5.42-2.1,7.67,1.32,2.25,2.09,4.88,2.1,7.67h.04c.02-2.79.78-5.42,2.1-7.67-1.32-2.25-2.09-4.88-2.1-7.67h-.04Z"/>
      </g>
      <g>
        <path d="M61.81,62.04s0,.08,0,.11c0,.04,0,.08,0,.12,2.82,0,5.45.76,7.72,2.08,2.27-1.32,4.9-2.07,7.72-2.08,0-.04,0-.08,0-.12,0-.04,0-.08,0-.11-2.82,0-5.45-.76-7.72-2.08-2.27,1.32-4.9,2.07-7.72,2.08Z"/>
        <path d="M77.28,62.04s0,.08,0,.11c0,.04,0,.08,0,.12,2.81,0,5.45.76,7.71,2.08,2.27-1.32,4.91-2.07,7.72-2.08,0-.04,0-.08,0-.12,0-.04,0-.08,0-.11-2.81,0-5.45-.76-7.72-2.08-2.26,1.32-4.9,2.07-7.71,2.08Z"/>
        <path d="M77.25,62.28c-.02,2.79-.78,5.42-2.1,7.67,1.32,2.25,2.09,4.87,2.1,7.67h.04c.02-2.79.78-5.41,2.1-7.67-1.32-2.25-2.09-4.88-2.1-7.67h-.04Z"/>
        <path d="M77.25,46.7c-.02,2.79-.78,5.42-2.1,7.67,1.32,2.25,2.09,4.88,2.1,7.67h.04c.02-2.79.78-5.42,2.1-7.67-1.32-2.25-2.09-4.88-2.1-7.67h-.04Z"/>
      </g>
    </g>
  </g>
</svg>