<?xml version="1.0" encoding="UTF-8"?>
<svg id="_레이어_2" data-name="레이어 2" xmlns="http://www.w3.org/2000/svg" viewBox="0 0 92.84 77.79">
  <g id="_레이어_1-2" data-name="레이어 1">
    <g>
      <g>
        <path d="M30.94,15.57s0-.08,0-.11c0-.04,0-.08,0-.12-2.82,0-5.45-.76-7.72-2.08-2.27,1.32-4.9,2.07-7.72,2.08,0,.04,0,.08,0,.12,0,.04,0,.08,0,.11,2.82,0,5.45.76,7.72,2.08,2.27-1.32,4.9-2.07,7.72-2.08Z"/>
        <path d="M15.46,15.57s0-.08,0-.11c0-.04,0-.08,0-.12-2.81,0-5.45-.76-7.71-2.08C5.48,14.58,2.84,15.33.03,15.34c0,.04,0,.08,0,.12,0,.04,0,.08,0,.11,2.81,0,5.45.76,7.72,2.08,2.26-1.32,4.9-2.07,7.71-2.08Z"/>
        <path d="M15.5,15.34c.02-2.79.78-5.42,2.1-7.67C16.28,5.41,15.51,2.79,15.5,0h-.02s-.02,0-.02,0c-.02,2.79-.78,5.41-2.1,7.67,1.32,2.25,2.09,4.88,2.1,7.67h.02s.01,0,.02,0Z"/>
        <path d="M15.5,30.92c.02-2.79.78-5.42,2.1-7.67-1.32-2.25-2.09-4.88-2.1-7.67h-.02s-.02,0-.02,0c-.02,2.79-.78,5.42-2.1,7.67,1.32,2.25,2.09,4.88,2.1,7.67h.02s.01,0,.02,0Z"/>
      </g>
      <g>
        <path d="M46.51,15.57s0-.08,0-.11c0-.04,0-.08,0-.12-2.82,0-5.45-.76-7.72-2.08-2.27,1.32-4.9,2.07-7.72,2.08,0,.04,0,.08,0,.12,0,.04,0,.08,0,.11,2.82,0,5.45.76,7.72,2.08,2.27-1.32,4.9-2.07,7.72-2.08Z"/>
        <path d="M31.04,15.57s0-.08,0-.11c0-.04,0-.08,0-.12-2.81,0-5.45-.76-7.71-2.08-2.27,1.32-4.91,2.07-7.72,2.08,0,.04,0,.08,0,.12,0,.04,0,.08,0,.11,2.81,0,5.45.76,7.72,2.08,2.26-1.32,4.9-2.07,7.71-2.08Z"/>
        <path d="M31.07,15.34c.02-2.79.78-5.42,2.1-7.67C31.85,5.41,31.09,2.79,31.07,0h-.02s-.02,0-.02,0c-.02,2.79-.78,5.41-2.1,7.67,1.32,2.25,2.09,4.88,2.1,7.67h.02s.01,0,.02,0Z"/>
        <path d="M31.07,30.92c.02-2.79.78-5.42,2.1-7.67-1.32-2.25-2.09-4.88-2.1-7.67h-.02s-.02,0-.02,0c-.02,2.79-.78,5.42-2.1,7.67,1.32,2.25,2.09,4.88,2.1,7.67h.02s.01,0,.02,0Z"/>
      </g>
      <g>
        <path d="M77.37,15.57s0-.08,0-.11c0-.04,0-.08,0-.12-2.82,0-5.45-.76-7.72-2.08-2.27,1.32-4.9,2.07-7.72,2.08,0,.04,0,.08,0,.12,0,.04,0,.08,0,.11,2.82,0,5.45.76,7.72,2.08,2.27-1.32,4.9-2.07,7.72-2.08Z"/>
        <path d="M61.9,15.57s0-.08,0-.11c0-.04,0-.08,0-.12-2.81,0-5.45-.76-7.71-2.08-2.27,1.32-4.91,2.07-7.72,2.08,0,.04,0,.08,0,.12,0,.04,0,.08,0,.11,2.81,0,5.45.76,7.72,2.08,2.26-1.32,4.9-2.07,7.71-2.08Z"/>
        <path d="M61.93,15.34c.02-2.79.78-5.42,2.1-7.67C62.71,5.41,61.95,2.79,61.93,0h-.02s-.02,0-.02,0c-.02,2.79-.78,5.41-2.1,7.67,1.32,2.25,2.09,4.88,2.1,7.67h.02s.01,0,.02,0Z"/>
        <path d="M61.93,30.92c.02-2.79.78-5.42,2.1-7.67-1.32-2.25-2.09-4.88-2.1-7.67h-.02s-.02,0-.02,0c-.02,2.79-.78,5.42-2.1,7.67,1.32,2.25,2.09,4.88,2.1,7.67h.02s.01,0,.02,0Z"/>
      </g>
      <g>
        <path d="M92.83,15.57s0-.08,0-.11c0-.04,0-.08,0-.12-2.82,0-5.45-.76-7.72-2.08-2.27,1.32-4.9,2.07-7.72,2.08,0,.04,0,.08,0,.12,0,.04,0,.08,0,.11,2.82,0,5.45.76,7.72,2.08,2.27-1.32,4.9-2.07,7.72-2.08Z"/>
        <path d="M77.36,15.57s0-.08,0-.11c0-.04,0-.08,0-.12-2.81,0-5.45-.76-7.71-2.08-2.27,1.32-4.91,2.07-7.72,2.08,0,.04,0,.08,0,.12,0,.04,0,.08,0,.11,2.81,0,5.45.76,7.72,2.08,2.26-1.32,4.9-2.07,7.71-2.08Z"/>
        <path d="M77.39,15.34c.02-2.79.78-5.42,2.1-7.67C78.17,5.41,77.41,2.79,77.39,0h-.02s-.02,0-.02,0c-.02,2.79-.78,5.41-2.1,7.67,1.32,2.25,2.09,4.88,2.1,7.67h.02s.01,0,.02,0Z"/>
        <path d="M77.39,30.92c.02-2.79.78-5.42,2.1-7.67-1.32-2.25-2.09-4.88-2.1-7.67h-.02s-.02,0-.02,0c-.02,2.79-.78,5.42-2.1,7.67,1.32,2.25,2.09,4.88,2.1,7.67h.02s.01,0,.02,0Z"/>
      </g>
      <g>
        <path d="M61.77,31.3s0-.08,0-.11c0-.04,0-.08,0-.12-2.82,0-5.45-.76-7.72-2.08-2.27,1.32-4.9,2.07-7.72,2.08,0,.04,0,.08,0,.12,0,.04,0,.08,0,.11,2.82,0,5.45.76,7.72,2.08,2.27-1.32,4.9-2.07,7.72-2.08Z"/>
        <path d="M46.29,31.3s0-.08,0-.11c0-.04,0-.08,0-.12-2.81,0-5.45-.76-7.71-2.08-2.27,1.32-4.91,2.07-7.72,2.08,0,.04,0,.08,0,.12,0,.04,0,.08,0,.11,2.81,0,5.45.76,7.72,2.08,2.26-1.32,4.9-2.07,7.71-2.08Z"/>
        <path d="M46.33,31.06c.02-2.79.78-5.42,2.1-7.67-1.32-2.25-2.09-4.87-2.1-7.67h-.02s-.02,0-.02,0c-.02,2.79-.78,5.41-2.1,7.67,1.32,2.25,2.09,4.88,2.1,7.67h.02s.01,0,.02,0Z"/>
        <path d="M46.33,46.64c.02-2.79.78-5.42,2.1-7.67-1.32-2.25-2.09-4.88-2.1-7.67h-.02s-.02,0-.02,0c-.02,2.79-.78,5.42-2.1,7.67,1.32,2.25,2.09,4.88,2.1,7.67h.02s.01,0,.02,0Z"/>
      </g>
      <g>
        <path d="M77.26,46.87s0-.08,0-.11c0-.04,0-.08,0-.12-2.82,0-5.45-.76-7.72-2.08-2.27,1.32-4.9,2.07-7.72,2.08,0,.04,0,.08,0,.12,0,.04,0,.08,0,.11,2.82,0,5.45.76,7.72,2.08,2.27-1.32,4.9-2.07,7.72-2.08Z"/>
        <path d="M61.78,46.87s0-.08,0-.11c0-.04,0-.08,0-.12-2.81,0-5.45-.76-7.71-2.08-2.27,1.32-4.91,2.07-7.72,2.08,0,.04,0,.08,0,.12,0,.04,0,.08,0,.11,2.81,0,5.45.76,7.72,2.08,2.26-1.32,4.9-2.07,7.71-2.08Z"/>
        <path d="M61.82,46.64c.02-2.79.78-5.42,2.1-7.67-1.32-2.25-2.09-4.87-2.1-7.67h-.02s-.02,0-.02,0c-.02,2.79-.78,5.41-2.1,7.67,1.32,2.25,2.09,4.88,2.1,7.67h.02s.01,0,.02,0Z"/>
        <path d="M61.82,62.21c.02-2.79.78-5.42,2.1-7.67-1.32-2.25-2.09-4.88-2.1-7.67h-.02s-.02,0-.02,0c-.02,2.79-.78,5.42-2.1,7.67,1.32,2.25,2.09,4.88,2.1,7.67h.02s.01,0,.02,0Z"/>
      </g>
      <g>
        <path d="M46.34,46.87s0-.08,0-.11c0-.04,0-.08,0-.12-2.82,0-5.45-.76-7.72-2.08-2.27,1.32-4.9,2.07-7.72,2.08,0,.04,0,.08,0,.12,0,.04,0,.08,0,.11,2.82,0,5.45.76,7.72,2.08,2.27-1.32,4.9-2.07,7.72-2.08Z"/>
        <path d="M30.87,46.87s0-.08,0-.11c0-.04,0-.08,0-.12-2.81,0-5.45-.76-7.71-2.08-2.27,1.32-4.91,2.07-7.72,2.08,0,.04,0,.08,0,.12,0,.04,0,.08,0,.11,2.81,0,5.45.76,7.72,2.08,2.26-1.32,4.9-2.07,7.71-2.08Z"/>
        <path d="M30.91,46.64c.02-2.79.78-5.42,2.1-7.67-1.32-2.25-2.09-4.87-2.1-7.67h-.02s-.02,0-.02,0c-.02,2.79-.78,5.41-2.1,7.67,1.32,2.25,2.09,4.88,2.1,7.67h.02s.01,0,.02,0Z"/>
        <path d="M30.91,62.21c.02-2.79.78-5.42,2.1-7.67-1.32-2.25-2.09-4.88-2.1-7.67h-.02s-.02,0-.02,0c-.02,2.79-.78,5.42-2.1,7.67,1.32,2.25,2.09,4.88,2.1,7.67h.02s.01,0,.02,0Z"/>
      </g>
      <g>
        <path d="M92.79,62.44s0-.08,0-.11c0-.04,0-.08,0-.12-2.82,0-5.45-.76-7.72-2.08-2.27,1.32-4.9,2.07-7.72,2.08,0,.04,0,.08,0,.12,0,.04,0,.08,0,.11,2.82,0,5.45.76,7.72,2.08,2.27-1.32,4.9-2.07,7.72-2.08Z"/>
        <path d="M77.31,62.44s0-.08,0-.11c0-.04,0-.08,0-.12-2.81,0-5.45-.76-7.71-2.08-2.27,1.32-4.91,2.07-7.72,2.08,0,.04,0,.08,0,.12,0,.04,0,.08,0,.11,2.81,0,5.45.76,7.72,2.08,2.26-1.32,4.9-2.07,7.71-2.08Z"/>
        <path d="M77.35,62.21c.02-2.79.78-5.42,2.1-7.67-1.32-2.25-2.09-4.87-2.1-7.67h-.02s-.02,0-.02,0c-.02,2.79-.78,5.41-2.1,7.67,1.32,2.25,2.09,4.88,2.1,7.67h.02s.01,0,.02,0Z"/>
        <path d="M77.35,77.79c.02-2.79.78-5.42,2.1-7.67-1.32-2.25-2.09-4.88-2.1-7.67h-.02s-.02,0-.02,0c-.02,2.79-.78,5.42-2.1,7.67,1.32,2.25,2.09,4.88,2.1,7.67h.02s.01,0,.02,0Z"/>
      </g>
      <g>
        <path d="M30.91,62.44s0-.08,0-.11c0-.04,0-.08,0-.12-2.82,0-5.45-.76-7.72-2.08-2.27,1.32-4.9,2.07-7.72,2.08,0,.04,0,.08,0,.12,0,.04,0,.08,0,.11,2.82,0,5.45.76,7.72,2.08,2.27-1.32,4.9-2.07,7.72-2.08Z"/>
        <path d="M15.44,62.44s0-.08,0-.11c0-.04,0-.08,0-.12-2.81,0-5.45-.76-7.71-2.08-2.27,1.32-4.91,2.07-7.72,2.08C0,62.25,0,62.29,0,62.33c0,.04,0,.08,0,.11,2.81,0,5.45.76,7.72,2.08,2.26-1.32,4.9-2.07,7.71-2.08Z"/>
        <path d="M15.47,62.21c.02-2.79.78-5.42,2.1-7.67-1.32-2.25-2.09-4.87-2.1-7.67h-.02s-.02,0-.02,0c-.02,2.79-.78,5.41-2.1,7.67,1.32,2.25,2.09,4.88,2.1,7.67h.02s.01,0,.02,0Z"/>
        <path d="M15.47,77.79c.02-2.79.78-5.42,2.1-7.67-1.32-2.25-2.09-4.88-2.1-7.67h-.02s-.02,0-.02,0c-.02,2.79-.78,5.42-2.1,7.67,1.32,2.25,2.09,4.88,2.1,7.67h.02s.01,0,.02,0Z"/>
      </g>
    </g>
  </g>
</svg>