<?xml version="1.0" encoding="UTF-8"?>
<svg id="_레이어_2" data-name="레이어 2" xmlns="http://www.w3.org/2000/svg" viewBox="0 0 77.26 93.36">
  <g id="_레이어_1-2" data-name="레이어 1">
    <g>
      <g>
        <path d="M30.95,15.57s0-.08,0-.11c0-.04,0-.08,0-.12-2.82,0-5.45-.76-7.72-2.08-2.27,1.32-4.9,2.07-7.72,2.08,0,.04,0,.08,0,.12,0,.04,0,.08,0,.11,2.82,0,5.45.76,7.72,2.08,2.27-1.32,4.9-2.07,7.72-2.08Z"/>
        <path d="M15.47,15.57s0-.08,0-.11c0-.04,0-.08,0-.12-2.81,0-5.45-.76-7.71-2.08-2.27,1.32-4.91,2.07-7.72,2.08,0,.04,0,.08,0,.12,0,.04,0,.08,0,.11,2.81,0,5.45.76,7.72,2.08,2.26-1.32,4.9-2.07,7.71-2.08Z"/>
        <path d="M15.51,15.34c.02-2.79.78-5.42,2.1-7.67C16.29,5.41,15.53,2.79,15.51,0h-.02s-.02,0-.02,0c-.02,2.79-.78,5.41-2.1,7.67,1.32,2.25,2.09,4.88,2.1,7.67h.02s.01,0,.02,0Z"/>
        <path d="M15.51,30.92c.02-2.79.78-5.42,2.1-7.67-1.32-2.25-2.09-4.88-2.1-7.67h-.02s-.02,0-.02,0c-.02,2.79-.78,5.42-2.1,7.67,1.32,2.25,2.09,4.88,2.1,7.67h.02s.01,0,.02,0Z"/>
      </g>
      <g>
        <path d="M46.52,15.57s0-.08,0-.11c0-.04,0-.08,0-.12-2.82,0-5.45-.76-7.72-2.08-2.27,1.32-4.9,2.07-7.72,2.08,0,.04,0,.08,0,.12,0,.04,0,.08,0,.11,2.82,0,5.45.76,7.72,2.08,2.27-1.32,4.9-2.07,7.72-2.08Z"/>
        <path d="M31.05,15.57s0-.08,0-.11c0-.04,0-.08,0-.12-2.81,0-5.45-.76-7.71-2.08-2.27,1.32-4.91,2.07-7.72,2.08,0,.04,0,.08,0,.12,0,.04,0,.08,0,.11,2.81,0,5.45.76,7.72,2.08,2.26-1.32,4.9-2.07,7.71-2.08Z"/>
        <path d="M31.09,15.34c.02-2.79.78-5.42,2.1-7.67C31.86,5.41,31.1,2.79,31.09,0h-.02s-.02,0-.02,0c-.02,2.79-.78,5.41-2.1,7.67,1.32,2.25,2.09,4.88,2.1,7.67h.02s.01,0,.02,0Z"/>
        <path d="M31.09,30.92c.02-2.79.78-5.42,2.1-7.67-1.32-2.25-2.09-4.88-2.1-7.67h-.02s-.02,0-.02,0c-.02,2.79-.78,5.42-2.1,7.67,1.32,2.25,2.09,4.88,2.1,7.67h.02s.01,0,.02,0Z"/>
      </g>
      <g>
        <path d="M77.25,15.57s0-.08,0-.11c0-.04,0-.08,0-.12-2.82,0-5.45-.76-7.72-2.08-2.27,1.32-4.9,2.07-7.72,2.08,0,.04,0,.08,0,.12,0,.04,0,.08,0,.11,2.82,0,5.45.76,7.72,2.08,2.27-1.32,4.9-2.07,7.72-2.08Z"/>
        <path d="M61.78,15.57s0-.08,0-.11c0-.04,0-.08,0-.12-2.81,0-5.45-.76-7.71-2.08-2.27,1.32-4.91,2.07-7.72,2.08,0,.04,0,.08,0,.12,0,.04,0,.08,0,.11,2.81,0,5.45.76,7.72,2.08,2.26-1.32,4.9-2.07,7.71-2.08Z"/>
        <path d="M61.82,15.34c.02-2.79.78-5.42,2.1-7.67C62.6,5.41,61.83,2.79,61.82,0h-.02s-.02,0-.02,0c-.02,2.79-.78,5.41-2.1,7.67,1.32,2.25,2.09,4.88,2.1,7.67h.02s.01,0,.02,0Z"/>
        <path d="M61.82,30.92c.02-2.79.78-5.42,2.1-7.67-1.32-2.25-2.09-4.88-2.1-7.67h-.02s-.02,0-.02,0c-.02,2.79-.78,5.42-2.1,7.67,1.32,2.25,2.09,4.88,2.1,7.67h.02s.01,0,.02,0Z"/>
      </g>
      <g>
        <path d="M30.91,78.02s0-.08,0-.11c0-.04,0-.08,0-.12-2.82,0-5.45-.76-7.72-2.08-2.27,1.32-4.9,2.07-7.72,2.08,0,.04,0,.08,0,.12,0,.04,0,.08,0,.11,2.82,0,5.45.76,7.72,2.08,2.27-1.32,4.9-2.07,7.72-2.08Z"/>
        <path d="M15.44,78.02s0-.08,0-.11c0-.04,0-.08,0-.12-2.81,0-5.45-.76-7.71-2.08-2.27,1.32-4.91,2.07-7.72,2.08C0,77.83,0,77.86,0,77.9c0,.04,0,.08,0,.11,2.81,0,5.45.76,7.72,2.08,2.26-1.32,4.9-2.07,7.71-2.08Z"/>
        <path d="M15.47,77.78c.02-2.79.78-5.42,2.1-7.67-1.32-2.25-2.09-4.87-2.1-7.67h-.02s-.02,0-.02,0c-.02,2.79-.78,5.41-2.1,7.67,1.32,2.25,2.09,4.88,2.1,7.67h.02s.01,0,.02,0Z"/>
        <path d="M15.47,93.36c.02-2.79.78-5.42,2.1-7.67-1.32-2.25-2.09-4.88-2.1-7.67h-.02s-.02,0-.02,0c-.02,2.79-.78,5.42-2.1,7.67,1.32,2.25,2.09,4.88,2.1,7.67h.02s.01,0,.02,0Z"/>
      </g>
      <g>
        <path d="M30.91,62.34s0-.08,0-.11c0-.04,0-.08,0-.12-2.82,0-5.45-.76-7.72-2.08-2.27,1.32-4.9,2.07-7.72,2.08,0,.04,0,.08,0,.12,0,.04,0,.08,0,.11,2.82,0,5.45.76,7.72,2.08,2.27-1.32,4.9-2.07,7.72-2.08Z"/>
        <path d="M15.44,62.34s0-.08,0-.11c0-.04,0-.08,0-.12-2.81,0-5.45-.76-7.71-2.08-2.27,1.32-4.91,2.07-7.72,2.08C0,62.15,0,62.18,0,62.22c0,.04,0,.08,0,.11,2.81,0,5.45.76,7.72,2.08,2.26-1.32,4.9-2.07,7.71-2.08Z"/>
        <path d="M15.47,62.1c.02-2.79.78-5.42,2.1-7.67-1.32-2.25-2.09-4.87-2.1-7.67h-.02s-.02,0-.02,0c-.02,2.79-.78,5.41-2.1,7.67,1.32,2.25,2.09,4.88,2.1,7.67h.02s.01,0,.02,0Z"/>
        <path d="M15.47,77.68c.02-2.79.78-5.42,2.1-7.67-1.32-2.25-2.09-4.88-2.1-7.67h-.02s-.02,0-.02,0c-.02,2.79-.78,5.42-2.1,7.67,1.32,2.25,2.09,4.88,2.1,7.67h.02s.01,0,.02,0Z"/>
      </g>
      <g>
        <path d="M46.36,46.87s0-.08,0-.11c0-.04,0-.08,0-.12-2.82,0-5.45-.76-7.72-2.08-2.27,1.32-4.9,2.07-7.72,2.08,0,.04,0,.08,0,.12,0,.04,0,.08,0,.11,2.82,0,5.45.76,7.72,2.08,2.27-1.32,4.9-2.07,7.72-2.08Z"/>
        <path d="M30.88,46.87s0-.08,0-.11c0-.04,0-.08,0-.12-2.81,0-5.45-.76-7.71-2.08-2.27,1.32-4.91,2.07-7.72,2.08,0,.04,0,.08,0,.12,0,.04,0,.08,0,.11,2.81,0,5.45.76,7.72,2.08,2.26-1.32,4.9-2.07,7.71-2.08Z"/>
        <path d="M30.92,46.64c.02-2.79.78-5.42,2.1-7.67-1.32-2.25-2.09-4.87-2.1-7.67h-.02s-.02,0-.02,0c-.02,2.79-.78,5.41-2.1,7.67,1.32,2.25,2.09,4.88,2.1,7.67h.02s.01,0,.02,0Z"/>
        <path d="M30.92,62.21c.02-2.79.78-5.42,2.1-7.67-1.32-2.25-2.09-4.88-2.1-7.67h-.02s-.02,0-.02,0c-.02,2.79-.78,5.42-2.1,7.67,1.32,2.25,2.09,4.88,2.1,7.67h.02s.01,0,.02,0Z"/>
      </g>
      <g>
        <path d="M61.77,31.03s0-.08,0-.11c0-.04,0-.08,0-.12-2.82,0-5.45-.76-7.72-2.08-2.27,1.32-4.9,2.07-7.72,2.08,0,.04,0,.08,0,.12,0,.04,0,.08,0,.11,2.82,0,5.45.76,7.72,2.08,2.27-1.32,4.9-2.07,7.72-2.08Z"/>
        <path d="M46.29,31.03s0-.08,0-.11c0-.04,0-.08,0-.12-2.81,0-5.45-.76-7.71-2.08-2.27,1.32-4.91,2.07-7.72,2.08,0,.04,0,.08,0,.12,0,.04,0,.08,0,.11,2.81,0,5.45.76,7.72,2.08,2.26-1.32,4.9-2.07,7.71-2.08Z"/>
        <path d="M46.33,30.8c.02-2.79.78-5.42,2.1-7.67-1.32-2.25-2.09-4.87-2.1-7.67h-.02s-.02,0-.02,0c-.02,2.79-.78,5.41-2.1,7.67,1.32,2.25,2.09,4.88,2.1,7.67h.02s.01,0,.02,0Z"/>
        <path d="M46.33,46.38c.02-2.79.78-5.42,2.1-7.67-1.32-2.25-2.09-4.88-2.1-7.67h-.02s-.02,0-.02,0c-.02,2.79-.78,5.42-2.1,7.67,1.32,2.25,2.09,4.88,2.1,7.67h.02s.01,0,.02,0Z"/>
      </g>
      <g>
        <path d="M46.2,77.9s0-.08,0-.11c0-.04,0-.08,0-.12-2.82,0-5.45-.76-7.72-2.08-2.27,1.32-4.9,2.07-7.72,2.08,0,.04,0,.08,0,.12,0,.04,0,.08,0,.11,2.82,0,5.45.76,7.72,2.08,2.27-1.32,4.9-2.07,7.72-2.08Z"/>
        <path d="M30.72,77.9s0-.08,0-.11c0-.04,0-.08,0-.12-2.81,0-5.45-.76-7.71-2.08-2.27,1.32-4.91,2.07-7.72,2.08,0,.04,0,.08,0,.12,0,.04,0,.08,0,.11,2.81,0,5.45.76,7.72,2.08,2.26-1.32,4.9-2.07,7.71-2.08Z"/>
        <path d="M30.76,77.67c.02-2.79.78-5.42,2.1-7.67-1.32-2.25-2.09-4.87-2.1-7.67h-.02s-.02,0-.02,0c-.02,2.79-.78,5.41-2.1,7.67,1.32,2.25,2.09,4.88,2.1,7.67h.02s.01,0,.02,0Z"/>
        <path d="M30.76,93.25c.02-2.79.78-5.42,2.1-7.67-1.32-2.25-2.09-4.88-2.1-7.67h-.02s-.02,0-.02,0c-.02,2.79-.78,5.42-2.1,7.67,1.32,2.25,2.09,4.88,2.1,7.67h.02s.01,0,.02,0Z"/>
      </g>
      <g>
        <path d="M77.25,77.9s0-.08,0-.11c0-.04,0-.08,0-.12-2.82,0-5.45-.76-7.72-2.08-2.27,1.32-4.9,2.07-7.72,2.08,0,.04,0,.08,0,.12,0,.04,0,.08,0,.11,2.82,0,5.45.76,7.72,2.08,2.27-1.32,4.9-2.07,7.72-2.08Z"/>
        <path d="M61.78,77.9s0-.08,0-.11c0-.04,0-.08,0-.12-2.81,0-5.45-.76-7.71-2.08-2.27,1.32-4.91,2.07-7.72,2.08,0,.04,0,.08,0,.12,0,.04,0,.08,0,.11,2.81,0,5.45.76,7.72,2.08,2.26-1.32,4.9-2.07,7.71-2.08Z"/>
        <path d="M61.82,77.67c.02-2.79.78-5.42,2.1-7.67-1.32-2.25-2.09-4.87-2.1-7.67h-.02s-.02,0-.02,0c-.02,2.79-.78,5.41-2.1,7.67,1.32,2.25,2.09,4.88,2.1,7.67h.02s.01,0,.02,0Z"/>
        <path d="M61.82,93.25c.02-2.79.78-5.42,2.1-7.67-1.32-2.25-2.09-4.88-2.1-7.67h-.02s-.02,0-.02,0c-.02,2.79-.78,5.42-2.1,7.67,1.32,2.25,2.09,4.88,2.1,7.67h.02s.01,0,.02,0Z"/>
      </g>
    </g>
  </g>
</svg>