<?xml version="1.0" encoding="UTF-8"?>
<svg id="_레이어_2" data-name="레이어 2" xmlns="http://www.w3.org/2000/svg" viewBox="0 0 115.16 131.57">
  <g id="_레이어_1-2" data-name="레이어 1">
    <path d="M96.91,7.5c5.92,0,10.74,4.82,10.74,10.74,0,1.93-.52,3.82-1.5,5.47-.93,1.57-.93,3.53,0,5.1.98,1.65,1.5,3.54,1.5,5.47s-.5,3.75-1.45,5.38c-.9,1.55-.9,3.47,0,5.02.95,1.63,1.45,3.49,1.45,5.38s-.5,3.74-1.44,5.37c-.9,1.55-.9,3.46,0,5.01.94,1.63,1.44,3.48,1.44,5.37s-.52,3.82-1.5,5.47c-.93,1.57-.93,3.53,0,5.1.98,1.65,1.5,3.54,1.5,5.47s-.5,3.74-1.44,5.37c-.9,1.55-.9,3.46,0,5.01.94,1.63,1.44,3.48,1.44,5.37s-.5,3.74-1.44,5.37c-.9,1.55-.9,3.46,0,5.01.94,1.63,1.44,3.48,1.44,5.37,0,5.92-4.82,10.74-10.74,10.74s-10.74-4.82-10.74-10.74c0-1.88.5-3.74,1.44-5.37.9-1.55.9-3.46,0-5.01-.94-1.63-1.44-3.48-1.44-5.37s.5-3.74,1.44-5.37c.9-1.55.9-3.46,0-5.01-.93-1.61-1.43-3.44-1.44-5.31,0-.05,0-.11,0-.16.01-1.33-.51-2.61-1.44-3.56-.94-.95-2.21-1.48-3.54-1.49-1.87,0-3.71-.5-5.33-1.44-.77-.45-1.64-.67-2.5-.67s-1.73.22-2.5.67c-1.63.94-3.48,1.44-5.37,1.44s-3.71-.49-5.33-1.42c-.77-.44-1.63-.66-2.49-.66s-1.72.22-2.49.66c-1.62.93-3.46,1.42-5.33,1.42s-3.77-.51-5.41-1.46c-.78-.46-1.65-.68-2.52-.68s-1.74.23-2.52.68c-1.64.96-3.51,1.46-5.41,1.46-1.33,0-2.61.53-3.55,1.48s-1.46,2.23-1.45,3.57c0,.05,0,.1,0,.16-.01,1.86-.51,3.7-1.44,5.31-.9,1.55-.9,3.46,0,5.01.94,1.63,1.44,3.48,1.44,5.37s-.5,3.74-1.44,5.37c-.9,1.55-.9,3.46,0,5.01.94,1.63,1.44,3.48,1.44,5.37,0,5.92-4.82,10.74-10.74,10.74s-10.74-4.82-10.74-10.74c0-1.88.5-3.74,1.44-5.37.9-1.55.9-3.46,0-5.01-.94-1.63-1.44-3.48-1.44-5.37s.5-3.74,1.44-5.37c.9-1.55.9-3.46,0-5.01-.94-1.63-1.44-3.48-1.44-5.37s.52-3.82,1.5-5.47c.93-1.57.93-3.53,0-5.1-.98-1.65-1.5-3.54-1.5-5.47s.5-3.74,1.44-5.37c.9-1.55.9-3.46,0-5.01-.94-1.63-1.44-3.48-1.44-5.37s.5-3.75,1.45-5.38c.9-1.55.9-3.47,0-5.02-.95-1.63-1.45-3.49-1.45-5.38s.52-3.82,1.5-5.47c.93-1.57.93-3.53,0-5.1-.98-1.65-1.5-3.54-1.5-5.47,0-5.92,4.82-10.74,10.74-10.74,1.88,0,3.74.5,5.37,1.44.77.45,1.64.67,2.5.67s1.73-.22,2.5-.67c1.63-.94,3.48-1.44,5.37-1.44s3.77.51,5.41,1.46c.78.46,1.65.68,2.52.68s1.74-.23,2.52-.68c1.64-.96,3.51-1.46,5.41-1.46s3.71.49,5.33,1.42c.77.44,1.63.66,2.49.66s1.72-.22,2.49-.66c1.62-.93,3.46-1.42,5.33-1.42s3.74.5,5.37,1.44c.77.45,1.64.67,2.5.67s1.73-.22,2.5-.67c1.63-.94,3.48-1.44,5.37-1.44s3.73.49,5.35,1.43c.77.44,1.63.67,2.49.67s1.72-.22,2.49-.67c1.62-.93,3.47-1.43,5.35-1.43M34.01,28.99s-.02,0-.03,0c-1.34,0-2.63.54-3.57,1.5-.94.96-1.45,2.26-1.43,3.6v.19c0,1.89-.49,3.75-1.44,5.38-.9,1.55-.9,3.47,0,5.02.94,1.61,1.44,3.45,1.45,5.32,0,.07,0,.13,0,.2,0,2.76,2.24,5,5,5,1.9,0,3.77.51,5.41,1.46.78.46,1.65.68,2.52.68s1.74-.23,2.52-.68c1.64-.96,3.51-1.46,5.41-1.46s3.71.49,5.33,1.42c.77.44,1.63.66,2.49.66s1.72-.22,2.49-.66c1.62-.93,3.46-1.42,5.33-1.42s3.74.5,5.37,1.44c.77.45,1.64.67,2.5.67s1.73-.22,2.5-.67c1.61-.93,3.46-1.43,5.33-1.44,1.33,0,2.61-.54,3.54-1.49.94-.95,1.45-2.23,1.44-3.56v-.13c0-1.88.5-3.73,1.45-5.35.9-1.55.9-3.47,0-5.02-.95-1.63-1.45-3.49-1.45-5.38v-.22c.03-1.34-.49-2.62-1.43-3.58-.94-.95-2.21-1.49-3.55-1.5-1.87,0-3.72-.5-5.33-1.44-.77-.45-1.64-.67-2.5-.67s-1.73.22-2.5.67c-1.63.94-3.48,1.44-5.37,1.44s-3.71-.49-5.33-1.42c-.77-.44-1.63-.66-2.49-.66s-1.72.22-2.49.66c-1.62.93-3.46,1.42-5.33,1.42s-3.77-.51-5.41-1.46c-.78-.46-1.65-.68-2.52-.68s-1.74.23-2.52.68c-1.63.95-3.49,1.46-5.39,1.46M96.91,2.5c-2.86,0-5.53.76-7.84,2.09-2.31-1.33-4.98-2.09-7.84-2.09s-5.56.77-7.87,2.11c-2.32-1.34-5-2.11-7.87-2.11s-5.51.76-7.82,2.08c-2.3-1.32-4.97-2.08-7.82-2.08s-5.6.78-7.94,2.15c-2.33-1.36-5.04-2.15-7.94-2.15s-5.55.77-7.87,2.11c-2.32-1.34-5-2.11-7.87-2.11-8.7,0-15.74,7.05-15.74,15.74,0,2.93.8,5.67,2.19,8.02-1.39,2.35-2.19,5.09-2.19,8.02s.78,5.57,2.12,7.9c-1.35,2.32-2.12,5.02-2.12,7.9s.77,5.56,2.11,7.87c-1.34,2.32-2.11,5-2.11,7.87s.8,5.67,2.19,8.02c-1.39,2.35-2.19,5.09-2.19,8.02s.77,5.55,2.11,7.87c-1.34,2.32-2.11,5-2.11,7.87s.77,5.56,2.11,7.87c-1.34,2.32-2.11,5-2.11,7.87,0,8.7,7.05,15.74,15.74,15.74s15.74-7.05,15.74-15.74c0-2.87-.77-5.56-2.11-7.87,1.34-2.32,2.11-5,2.11-7.87s-.77-5.55-2.11-7.87c1.34-2.32,2.11-5,2.11-7.87,0-.05,0-.1,0-.15h0c2.9,0,5.6-.78,7.94-2.15,2.33,1.36,5.04,2.15,7.94,2.15s5.51-.76,7.82-2.08c2.3,1.32,4.97,2.08,7.82,2.08s5.56-.77,7.87-2.11c2.3,1.33,4.97,2.1,7.81,2.11,0,.05,0,.1,0,.15,0,2.87.77,5.55,2.11,7.87-1.34,2.32-2.11,5-2.11,7.87s.77,5.56,2.11,7.87c-1.34,2.32-2.11,5-2.11,7.87,0,8.7,7.05,15.74,15.74,15.74s15.74-7.05,15.74-15.74c0-2.87-.77-5.56-2.11-7.87,1.34-2.32,2.11-5,2.11-7.87s-.77-5.55-2.11-7.87c1.34-2.32,2.11-5,2.11-7.87s-.8-5.67-2.19-8.02c1.39-2.35,2.19-5.09,2.19-8.02s-.77-5.56-2.11-7.87c1.34-2.32,2.11-5,2.11-7.87s-.78-5.57-2.12-7.9c1.35-2.32,2.12-5.02,2.12-7.9s-.8-5.67-2.19-8.02c1.39-2.35,2.19-5.09,2.19-8.02,0-8.7-7.05-15.74-15.74-15.74h0ZM33.98,33.99c2.9,0,5.6-.78,7.94-2.15,2.33,1.36,5.04,2.15,7.94,2.15s5.51-.76,7.82-2.08c2.3,1.32,4.97,2.08,7.82,2.08s5.56-.77,7.87-2.11c2.3,1.33,4.97,2.1,7.82,2.11,0,.1,0,.19,0,.29,0,2.88.78,5.57,2.12,7.9-1.35,2.32-2.12,5.02-2.12,7.9,0,.05,0,.09,0,.14-2.85.01-5.51.78-7.81,2.11-2.32-1.34-5-2.11-7.87-2.11s-5.51.76-7.82,2.08c-2.3-1.32-4.97-2.08-7.82-2.08s-5.6.78-7.94,2.15c-2.33-1.36-5.04-2.15-7.94-2.15,0-.05,0-.09,0-.14,0-2.88-.78-5.57-2.12-7.9,1.35-2.32,2.12-5.02,2.12-7.9,0-.1,0-.19,0-.29,0,0,0,0,0,0h0Z"/>
  </g>
</svg>