<?xml version="1.0" encoding="UTF-8"?>
<svg id="_레이어_2" data-name="레이어 2" xmlns="http://www.w3.org/2000/svg" viewBox="0 0 115.28 131.99">
  <g id="_레이어_1-2" data-name="레이어 1">
    <path d="M97.03,7.5c5.92,0,10.74,4.82,10.74,10.74,0,1.93-.52,3.83-1.51,5.49-.94,1.58-.94,3.54,0,5.12.99,1.66,1.51,3.55,1.51,5.49s-.51,3.77-1.46,5.41c-.91,1.56-.91,3.49,0,5.05.96,1.64,1.46,3.51,1.46,5.41s-.5,3.74-1.44,5.37c-.9,1.55-.9,3.46,0,5.01.94,1.63,1.44,3.48,1.44,5.37s-.52,3.82-1.5,5.47c-.93,1.57-.93,3.53,0,5.1.98,1.65,1.5,3.54,1.5,5.47s-.51,3.77-1.46,5.41c-.91,1.56-.91,3.49,0,5.05.96,1.64,1.46,3.51,1.46,5.41s-.5,3.74-1.44,5.37c-.9,1.55-.9,3.46,0,5.01.94,1.63,1.44,3.48,1.44,5.37,0,5.92-4.82,10.74-10.74,10.74-1.88,0-3.72-.49-5.35-1.43-.77-.44-1.63-.67-2.49-.67s-1.72.22-2.49.67c-1.62.93-3.47,1.43-5.35,1.43s-3.74-.5-5.37-1.44c-.77-.45-1.64-.67-2.5-.67s-1.73.22-2.5.67c-1.63.94-3.48,1.44-5.37,1.44s-3.71-.49-5.33-1.42c-.77-.44-1.63-.66-2.49-.66s-1.72.22-2.49.66c-1.62.93-3.46,1.42-5.33,1.42s-3.77-.51-5.41-1.46c-.78-.46-1.65-.68-2.52-.68s-1.74.23-2.52.68c-1.64.96-3.51,1.46-5.41,1.46s-3.71-.49-5.33-1.42c-.77-.44-1.63-.66-2.49-.66s-1.77.24-2.56.7c-1.65.99-3.55,1.51-5.48,1.51-5.92,0-10.74-4.82-10.74-10.74,0-1.95.53-3.85,1.52-5.51.95-1.58.95-3.56,0-5.14-1-1.66-1.52-3.57-1.52-5.51s.5-3.74,1.44-5.37c.9-1.55.9-3.46,0-5.01-.94-1.63-1.44-3.48-1.44-5.37s.52-3.82,1.5-5.47c.93-1.57.93-3.53,0-5.1-.98-1.65-1.49-3.54-1.49-5.47s.5-3.74,1.44-5.37c.9-1.55.9-3.46,0-5.01-.94-1.63-1.44-3.48-1.44-5.37s.5-3.75,1.45-5.38c.9-1.55.9-3.47,0-5.02-.95-1.63-1.45-3.49-1.45-5.38s.53-3.87,1.54-5.54c.94-1.57.96-3.52.04-5.1-.95-1.63-1.45-3.5-1.45-5.39,0-5.92,4.82-10.74,10.74-10.74,1.88,0,3.74.5,5.37,1.44.77.45,1.64.67,2.5.67s1.73-.22,2.5-.67c1.63-.94,3.48-1.44,5.37-1.44s3.77.51,5.41,1.46c.78.46,1.65.68,2.52.68s1.75-.23,2.52-.68c1.64-.96,3.51-1.46,5.41-1.46s3.71.49,5.33,1.42c.77.44,1.63.66,2.49.66s1.72-.22,2.49-.66c1.62-.93,3.46-1.42,5.33-1.42s3.74.5,5.37,1.44c.77.45,1.64.67,2.5.67s1.73-.22,2.5-.67c1.63-.94,3.48-1.44,5.37-1.44s3.72.49,5.35,1.43c.77.44,1.63.67,2.49.67s1.72-.22,2.49-.67c1.62-.93,3.47-1.43,5.35-1.43M34.16,28.99c-.05,0-.1,0-.15,0-.01,0-.02,0-.03,0-1.34,0-2.62.54-3.56,1.49-.95.96-1.47,2.26-1.44,3.61v.19c0,1.89-.49,3.75-1.44,5.38-.9,1.55-.9,3.47,0,5.02.94,1.61,1.44,3.45,1.45,5.32,0,.05,0,.1,0,.16-.01,1.34.51,2.63,1.46,3.58.94.94,2.21,1.47,3.54,1.47,0,0,.02,0,.03,0,.05,0,.1,0,.15,0,1.88.01,3.73.52,5.35,1.46.78.46,1.65.68,2.52.68s1.75-.23,2.52-.68c1.64-.96,3.51-1.46,5.41-1.46s3.71.49,5.33,1.42c.77.44,1.63.66,2.49.66s1.72-.22,2.49-.66c1.62-.93,3.46-1.42,5.33-1.42s3.74.5,5.37,1.44c.77.45,1.64.67,2.5.67s1.73-.22,2.5-.67c1.61-.93,3.45-1.43,5.32-1.44,2.75-.01,4.98-2.25,4.98-5,0-1.9.51-3.77,1.46-5.41.91-1.56.91-3.49,0-5.05-.96-1.64-1.46-3.51-1.46-5.39v-.07s0-.17,0-.17c.03-1.34-.48-2.65-1.41-3.61-.94-.96-2.22-1.51-3.57-1.52-1.87,0-3.72-.5-5.33-1.44-.77-.45-1.64-.67-2.5-.67s-1.73.22-2.5.67c-1.63.94-3.48,1.44-5.37,1.44s-3.71-.49-5.33-1.42c-.77-.44-1.63-.66-2.49-.66s-1.72.22-2.49.66c-1.62.93-3.46,1.42-5.33,1.42s-3.77-.51-5.41-1.46c-.78-.46-1.65-.68-2.52-.68s-1.74.23-2.52.68c-1.62.95-3.47,1.45-5.35,1.46M34.16,76.69s-.1,0-.15,0c-.01,0-.02,0-.03,0-1.33,0-2.6.53-3.54,1.47-.95.95-1.47,2.24-1.46,3.58,0,.05,0,.1,0,.16-.01,1.86-.51,3.7-1.44,5.31-.9,1.55-.9,3.46,0,5.01.94,1.63,1.44,3.48,1.44,5.37v.2c-.03,1.35.49,2.65,1.44,3.61.94.95,2.22,1.48,3.55,1.48.01,0,.03,0,.04,0,.05,0,.09,0,.14,0,1.88.01,3.73.52,5.35,1.46.78.46,1.65.68,2.52.68s1.75-.23,2.52-.68c1.64-.96,3.51-1.46,5.41-1.46s3.71.49,5.33,1.42c.77.44,1.63.66,2.49.66s1.72-.22,2.49-.66c1.62-.93,3.46-1.42,5.33-1.42s3.74.5,5.37,1.44c.77.45,1.64.67,2.5.67s1.73-.22,2.5-.67c1.61-.93,3.45-1.43,5.32-1.44,2.75-.01,4.98-2.25,4.98-5,0-.02,0-.04,0-.06,0-1.89.51-3.74,1.46-5.36.91-1.56.91-3.49,0-5.05-.96-1.64-1.46-3.51-1.46-5.41v-.2c.03-1.34-.48-2.63-1.42-3.59s-2.22-1.5-3.56-1.51c-1.87,0-3.72-.5-5.33-1.44-.77-.45-1.64-.67-2.5-.67s-1.73.22-2.5.67c-1.63.94-3.48,1.44-5.37,1.44s-3.71-.49-5.33-1.42c-.77-.44-1.63-.66-2.49-.66s-1.72.22-2.49.66c-1.62.93-3.46,1.42-5.33,1.42s-3.77-.51-5.41-1.46c-.78-.46-1.65-.68-2.52-.68s-1.74.23-2.52.68c-1.62.95-3.47,1.45-5.35,1.46M97.03,2.5c-2.86,0-5.53.76-7.84,2.09-2.31-1.33-4.98-2.09-7.84-2.09s-5.56.77-7.87,2.11c-2.32-1.34-5-2.11-7.87-2.11s-5.51.76-7.82,2.08c-2.3-1.32-4.97-2.08-7.82-2.08s-5.6.78-7.93,2.15c-2.33-1.36-5.04-2.15-7.94-2.15s-5.55.77-7.87,2.11c-2.32-1.34-5-2.11-7.87-2.11-8.7,0-15.74,7.05-15.74,15.74,0,2.89.78,5.59,2.13,7.91-1.43,2.37-2.25,5.15-2.25,8.12s.78,5.57,2.12,7.9c-1.35,2.32-2.12,5.02-2.12,7.9s.77,5.56,2.11,7.87c-1.34,2.32-2.11,5-2.11,7.87s.8,5.67,2.19,8.02c-1.39,2.35-2.19,5.09-2.19,8.02s.77,5.55,2.11,7.87c-1.34,2.32-2.11,5-2.11,7.87s.82,5.72,2.23,8.08c-1.42,2.36-2.23,5.13-2.23,8.08,0,8.7,7.05,15.74,15.74,15.74,2.94,0,5.69-.81,8.04-2.21,2.3,1.32,4.97,2.08,7.82,2.08s5.6-.78,7.94-2.15c2.33,1.36,5.04,2.15,7.93,2.15s5.51-.76,7.82-2.08c2.3,1.32,4.97,2.08,7.82,2.08s5.56-.77,7.87-2.11c2.32,1.34,5,2.11,7.87,2.11s5.53-.76,7.84-2.09c2.31,1.33,4.98,2.09,7.84,2.09,8.69,0,15.74-7.05,15.74-15.74,0-2.87-.77-5.56-2.11-7.88,1.34-2.32,2.11-5.01,2.11-7.88s-.78-5.6-2.15-7.94c1.36-2.33,2.15-5.04,2.15-7.94s-.8-5.67-2.2-8.02c1.39-2.35,2.2-5.09,2.2-8.02s-.77-5.56-2.11-7.87c1.34-2.32,2.11-5,2.11-7.87s-.78-5.6-2.15-7.94c1.36-2.33,2.15-5.04,2.15-7.94s-.81-5.69-2.21-8.05c1.4-2.35,2.21-5.11,2.21-8.05,0-8.7-7.05-15.74-15.74-15.74h0ZM34.1,33.99c2.89,0,5.6-.78,7.94-2.15,2.33,1.36,5.04,2.15,7.93,2.15s5.51-.76,7.82-2.08c2.3,1.32,4.97,2.08,7.82,2.08s5.56-.77,7.87-2.11c2.3,1.33,4.97,2.1,7.82,2.11,0,.12,0,.23,0,.35,0,2.89.78,5.6,2.15,7.94-1.36,2.33-2.15,5.04-2.15,7.94,0,0,0,0,0,0-2.85.01-5.51.78-7.81,2.11-2.32-1.34-5-2.11-7.87-2.11s-5.51.76-7.82,2.08c-2.3-1.32-4.97-2.08-7.82-2.08s-5.6.78-7.93,2.15c-2.33-1.36-5.04-2.15-7.94-2.15-.04,0-.08,0-.12,0,0-.05,0-.09,0-.14,0-2.88-.78-5.57-2.13-7.9,1.35-2.32,2.13-5.02,2.13-7.9,0-.1,0-.19,0-.29.04,0,.08,0,.12,0h0ZM34.1,81.69c2.89,0,5.6-.78,7.94-2.15,2.33,1.36,5.04,2.15,7.93,2.15s5.51-.76,7.82-2.08c2.3,1.32,4.97,2.08,7.82,2.08s5.56-.77,7.87-2.11c2.3,1.33,4.97,2.1,7.82,2.11,0,.1,0,.2,0,.3,0,2.89.78,5.6,2.15,7.94-1.36,2.33-2.15,5.04-2.15,7.94,0,0,0,0,0,.01-2.85.01-5.51.78-7.81,2.11-2.32-1.34-5-2.11-7.87-2.11s-5.51.76-7.82,2.08c-2.3-1.32-4.97-2.08-7.82-2.08s-5.6.78-7.93,2.15c-2.33-1.36-5.04-2.15-7.94-2.15-.04,0-.08,0-.12,0,0-.1,0-.2,0-.3,0-2.87-.77-5.55-2.11-7.87,1.34-2.32,2.11-5,2.11-7.87,0-.05,0-.1,0-.15.04,0,.08,0,.12,0h0Z"/>
  </g>
</svg>