<?xml version="1.0" encoding="UTF-8"?>
<svg id="_레이어_2" data-name="레이어 2" xmlns="http://www.w3.org/2000/svg" viewBox="0 0 110.28 126.99">
  <g id="_레이어_1-2" data-name="레이어 1">
    <path d="M94.53,5c5.92,0,10.74,4.82,10.74,10.74s-4.82,10.74-10.74,10.74c-1.88,0-3.72-.49-5.35-1.43-.77-.44-1.63-.67-2.49-.67s-1.72.22-2.49.67c-1.62.93-3.47,1.43-5.35,1.43s-3.74-.5-5.37-1.44c-.77-.45-1.64-.67-2.5-.67s-1.73.22-2.5.67c-1.63.94-3.48,1.44-5.37,1.44s-3.71-.49-5.33-1.42c-.77-.44-1.63-.66-2.49-.66s-1.72.22-2.49.66c-1.62.93-3.46,1.42-5.33,1.42s-3.77-.51-5.41-1.46c-.78-.46-1.65-.68-2.52-.68s-1.74.23-2.52.68c-1.62.95-3.47,1.45-5.35,1.46-.05,0-.1,0-.15,0-.01,0-.02,0-.03,0-1.33,0-2.61.53-3.55,1.48-.95.95-1.47,2.25-1.45,3.59v.22c0,1.89-.49,3.75-1.44,5.38-.9,1.55-.9,3.47,0,5.02.94,1.62,1.44,3.46,1.45,5.34v.17c-.02,1.34.5,2.64,1.44,3.59.94.95,2.22,1.48,3.55,1.48,0,0,.02,0,.03,0,.05,0,.1,0,.15,0,1.88.01,3.73.52,5.35,1.46.78.46,1.65.68,2.52.68s1.74-.23,2.52-.68c1.64-.96,3.51-1.46,5.41-1.46s3.68.48,5.28,1.39c.76.43,1.61.65,2.46.65s1.7-.22,2.46-.65c1.6-.91,3.43-1.39,5.28-1.39s3.78.51,5.42,1.47c.78.46,1.65.69,2.53.69s1.75-.23,2.53-.69c1.64-.96,3.51-1.47,5.42-1.47s3.72.49,5.35,1.43c.77.44,1.63.67,2.49.67s1.72-.22,2.49-.67c1.62-.93,3.47-1.43,5.35-1.43,5.92,0,10.74,4.82,10.74,10.74s-4.82,10.74-10.74,10.74c-1.88,0-3.72-.49-5.35-1.43-.77-.44-1.63-.67-2.49-.67s-1.72.22-2.49.67c-1.62.93-3.47,1.43-5.35,1.43s-3.78-.51-5.42-1.47c-.78-.46-1.65-.69-2.53-.69s-1.75.23-2.53.69c-1.64.96-3.51,1.47-5.42,1.47s-3.68-.48-5.28-1.39c-.76-.43-1.61-.65-2.46-.65s-1.7.22-2.46.65c-1.6.91-3.43,1.39-5.28,1.39s-3.77-.51-5.41-1.46c-.78-.46-1.65-.68-2.52-.68s-1.74.23-2.52.68c-1.62.95-3.47,1.45-5.35,1.46-.05,0-.1,0-.15,0-.01,0-.02,0-.03,0-1.32,0-2.59.52-3.52,1.45-.94.94-1.48,2.22-1.48,3.55,0,.05,0,.11,0,.16-.01,1.86-.51,3.69-1.44,5.3-.9,1.55-.9,3.46,0,5.01.94,1.63,1.44,3.48,1.44,5.37v.2c-.03,1.35.49,2.65,1.44,3.61.94.95,2.22,1.48,3.55,1.48.01,0,.03,0,.04,0,.05,0,.09,0,.14,0,1.88.01,3.73.52,5.35,1.46.78.46,1.65.68,2.52.68s1.74-.23,2.52-.68c1.64-.96,3.51-1.46,5.41-1.46s3.71.49,5.33,1.42c.77.44,1.63.66,2.49.66s1.72-.22,2.49-.66c1.62-.93,3.46-1.42,5.33-1.42s3.74.5,5.37,1.44c.77.45,1.64.67,2.5.67s1.73-.22,2.5-.67c1.63-.94,3.48-1.44,5.37-1.44s3.72.49,5.35,1.43c.77.44,1.63.67,2.49.67s1.72-.22,2.49-.67c1.62-.93,3.47-1.43,5.35-1.43,5.92,0,10.74,4.82,10.74,10.74s-4.82,10.74-10.74,10.74c-1.88,0-3.72-.49-5.35-1.43-.77-.44-1.63-.67-2.49-.67s-1.72.22-2.49.67c-1.62.93-3.47,1.43-5.35,1.43s-3.74-.5-5.37-1.44c-.77-.45-1.64-.67-2.5-.67s-1.73.22-2.5.67c-1.63.94-3.48,1.44-5.37,1.44s-3.71-.49-5.33-1.42c-.77-.44-1.63-.66-2.49-.66s-1.72.22-2.49.66c-1.62.93-3.46,1.42-5.33,1.42s-3.77-.51-5.41-1.46c-.78-.46-1.65-.68-2.52-.68s-1.74.23-2.52.68c-1.64.96-3.51,1.46-5.41,1.46s-3.71-.49-5.33-1.42c-.77-.44-1.63-.66-2.49-.66s-1.77.23-2.56.7c-1.65.99-3.55,1.51-5.49,1.51-5.92,0-10.74-4.82-10.74-10.74,0-1.95.53-3.85,1.52-5.51.95-1.58.95-3.56,0-5.14-1-1.66-1.52-3.57-1.52-5.51s.5-3.74,1.44-5.37c.9-1.55.9-3.46,0-5.01-.94-1.63-1.44-3.48-1.44-5.37s.52-3.82,1.5-5.47c.93-1.57.93-3.53,0-5.1-.98-1.65-1.5-3.54-1.5-5.47s.5-3.74,1.44-5.37c.9-1.55.9-3.46,0-5.01-.94-1.63-1.44-3.48-1.44-5.37s.5-3.75,1.45-5.38c.9-1.55.9-3.47,0-5.02-.95-1.63-1.45-3.49-1.45-5.38s.53-3.87,1.54-5.54c.94-1.56.96-3.52.04-5.1-.95-1.63-1.45-3.5-1.45-5.4,0-5.92,4.82-10.74,10.74-10.74,1.88,0,3.74.5,5.37,1.44.77.45,1.64.67,2.5.67s1.73-.22,2.5-.67c1.63-.94,3.48-1.44,5.37-1.44s3.77.51,5.41,1.46c.78.46,1.65.68,2.52.68s1.74-.23,2.52-.68c1.64-.96,3.51-1.46,5.41-1.46s3.71.49,5.33,1.42c.77.44,1.63.66,2.49.66s1.72-.22,2.49-.66c1.62-.93,3.46-1.42,5.33-1.42s3.74.5,5.37,1.44c.77.45,1.64.67,2.5.67s1.73-.22,2.5-.67c1.63-.94,3.48-1.44,5.37-1.44s3.72.49,5.35,1.43c.77.44,1.63.67,2.49.67s1.72-.22,2.49-.67c1.62-.93,3.47-1.43,5.35-1.43M94.53,0c-2.86,0-5.53.76-7.84,2.09-2.31-1.33-4.99-2.09-7.84-2.09s-5.56.77-7.87,2.11c-2.32-1.34-5-2.11-7.87-2.11s-5.51.76-7.82,2.08c-2.3-1.32-4.97-2.08-7.82-2.08s-5.6.78-7.94,2.15c-2.33-1.36-5.04-2.15-7.94-2.15s-5.55.77-7.87,2.11c-2.32-1.34-5-2.11-7.87-2.11C7.17,0,.12,7.05.12,15.74c0,2.89.78,5.59,2.13,7.91-1.43,2.37-2.25,5.15-2.25,8.12s.78,5.57,2.12,7.9c-1.35,2.32-2.12,5.02-2.12,7.9s.77,5.56,2.11,7.87c-1.34,2.32-2.11,5-2.11,7.87s.8,5.67,2.19,8.02c-1.39,2.35-2.19,5.09-2.19,8.02s.77,5.55,2.11,7.87c-1.34,2.32-2.11,5-2.11,7.87s.82,5.72,2.23,8.08c-1.42,2.36-2.23,5.13-2.23,8.08,0,8.7,7.05,15.74,15.74,15.74,2.94,0,5.69-.81,8.04-2.21,2.3,1.32,4.97,2.08,7.82,2.08s5.6-.78,7.94-2.15c2.33,1.36,5.04,2.15,7.94,2.15s5.51-.76,7.82-2.08c2.3,1.32,4.97,2.08,7.82,2.08s5.56-.77,7.87-2.11c2.32,1.34,5,2.11,7.87,2.11s5.53-.76,7.84-2.09c2.31,1.33,4.98,2.09,7.84,2.09,8.7,0,15.74-7.05,15.74-15.74s-7.05-15.74-15.74-15.74c-2.86,0-5.53.76-7.84,2.09-2.31-1.33-4.99-2.09-7.84-2.09s-5.56.77-7.87,2.11c-2.32-1.34-5-2.11-7.87-2.11s-5.51.76-7.82,2.08c-2.3-1.32-4.97-2.08-7.82-2.08s-5.6.78-7.94,2.15c-2.33-1.36-5.04-2.15-7.94-2.15-.04,0-.08,0-.12,0,0-.1,0-.2,0-.3,0-2.87-.77-5.55-2.11-7.87,1.34-2.32,2.11-5,2.11-7.87,0-.03,0-.06,0-.1.04,0,.08,0,.12,0,2.89,0,5.6-.78,7.94-2.15,2.33,1.36,5.04,2.15,7.94,2.15s5.46-.74,7.74-2.04c2.29,1.3,4.93,2.04,7.74,2.04s5.61-.79,7.94-2.15c2.33,1.37,5.05,2.15,7.95,2.15s5.53-.76,7.84-2.09c2.31,1.33,4.98,2.09,7.84,2.09,8.7,0,15.74-7.05,15.74-15.74s-7.05-15.74-15.74-15.74c-2.86,0-5.53.76-7.84,2.09-2.31-1.33-4.99-2.09-7.84-2.09s-5.61.79-7.95,2.15c-2.33-1.37-5.05-2.15-7.94-2.15s-5.46.74-7.74,2.04c-2.29-1.3-4.93-2.04-7.74-2.04s-5.6.78-7.94,2.15c-2.33-1.36-5.04-2.15-7.94-2.15-.04,0-.08,0-.12,0,0-.07,0-.13,0-.2,0-2.88-.78-5.57-2.13-7.9,1.35-2.32,2.13-5.02,2.13-7.9,0-.1,0-.19,0-.29.04,0,.08,0,.12,0,2.89,0,5.6-.78,7.94-2.15,2.33,1.36,5.04,2.15,7.94,2.15s5.51-.76,7.82-2.08c2.3,1.32,4.97,2.08,7.82,2.08s5.56-.77,7.87-2.11c2.32,1.34,5,2.11,7.87,2.11s5.53-.76,7.84-2.09c2.31,1.33,4.98,2.09,7.84,2.09,8.7,0,15.74-7.05,15.74-15.74S103.23,0,94.53,0h0Z"/>
  </g>
</svg>