<?xml version="1.0" encoding="UTF-8"?>
<svg id="_레이어_2" data-name="레이어 2" xmlns="http://www.w3.org/2000/svg" viewBox="0 0 110.34 126.99">
  <g id="_레이어_1-2" data-name="레이어 1">
    <path d="M94.59,5c5.92,0,10.74,4.82,10.74,10.74,0,1.96-.53,3.87-1.54,5.54-.94,1.57-.96,3.52-.04,5.1.95,1.63,1.45,3.5,1.45,5.39s-.5,3.75-1.45,5.38c-.9,1.55-.9,3.47,0,5.02.95,1.63,1.45,3.49,1.45,5.38s-.49,3.71-1.42,5.33c-.89,1.55-.88,3.46.02,5.01.95,1.64,1.46,3.5,1.46,5.4s-.52,3.84-1.52,5.5c-.94,1.57-.95,3.52-.02,5.1.96,1.64,1.47,3.52,1.47,5.43s-.5,3.74-1.44,5.36c-.9,1.55-.9,3.46,0,5.01.94,1.63,1.44,3.48,1.44,5.37s-.53,3.85-1.52,5.51c-.95,1.58-.95,3.56,0,5.14,1,1.66,1.52,3.57,1.52,5.51,0,5.92-4.82,10.74-10.74,10.74s-10.74-4.82-10.74-10.74c0-1.95.53-3.85,1.52-5.51.95-1.58.95-3.56,0-5.14-1-1.66-1.52-3.57-1.52-5.51s.5-3.74,1.44-5.37c.9-1.55.9-3.46,0-5.01-.94-1.63-1.44-3.48-1.44-5.37v-.18c.03-1.34-.48-2.63-1.41-3.59-.93-.96-2.21-1.5-3.55-1.51-1.86-.01-3.69-.51-5.29-1.44-.77-.45-1.64-.67-2.5-.67s-1.73.22-2.5.67c-1.63.94-3.48,1.44-5.37,1.44s-3.71-.49-5.33-1.42c-.77-.44-1.63-.66-2.49-.66s-1.72.22-2.49.66c-1.62.93-3.46,1.42-5.33,1.42s-3.77-.51-5.41-1.46c-.78-.46-1.65-.68-2.52-.68s-1.75.23-2.52.68c-1.62.95-3.47,1.45-5.35,1.46-.05,0-.09,0-.14,0-.01,0-.03,0-.04,0-1.34,0-2.62.53-3.56,1.48-.95.96-1.47,2.27-1.44,3.62v.19c0,1.88-.49,3.74-1.43,5.37-.9,1.55-.9,3.46,0,5.01.94,1.63,1.44,3.48,1.44,5.37s-.53,3.85-1.52,5.51c-.95,1.58-.95,3.56,0,5.14,1,1.66,1.52,3.57,1.52,5.51,0,5.92-4.82,10.74-10.74,10.74s-10.74-4.82-10.74-10.74c0-1.95.53-3.85,1.52-5.51.95-1.58.95-3.56,0-5.14-1-1.66-1.52-3.57-1.52-5.51s.5-3.74,1.44-5.37c.9-1.55.9-3.46,0-5.01-.94-1.63-1.44-3.48-1.44-5.37s.52-3.82,1.5-5.47c.93-1.57.93-3.53,0-5.1-.98-1.65-1.5-3.54-1.5-5.47s.5-3.74,1.44-5.37c.9-1.55.9-3.46,0-5.01-.94-1.63-1.44-3.48-1.44-5.37s.5-3.75,1.45-5.38c.9-1.55.9-3.47,0-5.02-.95-1.63-1.45-3.49-1.45-5.38s.53-3.87,1.54-5.54c.94-1.57.96-3.52.04-5.1-.95-1.63-1.45-3.5-1.45-5.39,0-5.92,4.82-10.74,10.74-10.74s10.74,4.82,10.74,10.74c0,1.96-.53,3.87-1.54,5.54-.94,1.56-.96,3.52-.04,5.1.95,1.63,1.45,3.5,1.45,5.4s-.5,3.75-1.45,5.38c-.9,1.55-.9,3.47,0,5.02.95,1.63,1.45,3.49,1.45,5.39,0,1.33.53,2.61,1.48,3.55.94.93,2.2,1.45,3.52,1.45.01,0,.02,0,.03,0,.05,0,.1,0,.14,0,1.88.01,3.73.52,5.35,1.46.78.46,1.65.68,2.52.68s1.74-.23,2.52-.68c1.64-.96,3.51-1.46,5.41-1.46s3.71.49,5.33,1.42c.77.44,1.63.66,2.49.66s1.72-.22,2.49-.66c1.62-.93,3.46-1.42,5.33-1.42s3.74.5,5.37,1.44c.77.45,1.64.67,2.5.67s1.73-.22,2.5-.67c1.6-.93,3.43-1.42,5.28-1.44,2.75-.02,4.96-2.26,4.96-5,0-1.89.5-3.75,1.45-5.38.9-1.55.9-3.47,0-5.02-.95-1.63-1.45-3.49-1.45-5.38s.53-3.87,1.54-5.54c.94-1.56.96-3.52.04-5.1-.95-1.63-1.46-3.5-1.46-5.4,0-5.92,4.82-10.74,10.74-10.74M94.59,0c-8.7,0-15.74,7.05-15.74,15.74,0,2.89.78,5.59,2.13,7.91-1.43,2.37-2.25,5.15-2.25,8.12s.78,5.57,2.12,7.9c-1.35,2.32-2.12,5.02-2.12,7.9h0c-2.82.02-5.47.79-7.75,2.11-2.32-1.34-5-2.11-7.87-2.11s-5.51.76-7.82,2.08c-2.3-1.32-4.97-2.08-7.82-2.08s-5.6.78-7.94,2.15c-2.33-1.36-5.04-2.15-7.94-2.15-.04,0-.08,0-.12,0h0c0-2.88-.78-5.58-2.12-7.9,1.35-2.32,2.12-5.02,2.12-7.9s-.78-5.59-2.13-7.91c1.43-2.37,2.25-5.15,2.25-8.12C31.61,7.05,24.56,0,15.86,0S.12,7.05.12,15.74c0,2.89.78,5.59,2.13,7.91-1.43,2.37-2.25,5.15-2.25,8.12s.78,5.57,2.13,7.9c-1.35,2.32-2.13,5.02-2.13,7.9s.77,5.56,2.11,7.87c-1.34,2.32-2.11,5-2.11,7.87s.8,5.67,2.19,8.02c-1.39,2.35-2.19,5.09-2.19,8.02s.77,5.55,2.11,7.87c-1.34,2.32-2.11,5-2.11,7.87s.82,5.72,2.23,8.08c-1.42,2.36-2.23,5.13-2.23,8.08,0,8.7,7.05,15.74,15.74,15.74s15.74-7.05,15.74-15.74c0-2.96-.82-5.72-2.23-8.08,1.42-2.36,2.23-5.13,2.23-8.08s-.77-5.55-2.11-7.87c1.34-2.32,2.11-5,2.11-7.87,0-.1,0-.19,0-.29.04,0,.08,0,.12,0,2.9,0,5.6-.78,7.94-2.15,2.33,1.36,5.04,2.15,7.94,2.15s5.51-.76,7.82-2.08c2.3,1.32,4.97,2.08,7.82,2.08s5.56-.77,7.87-2.11c2.29,1.32,4.93,2.09,7.76,2.11,0,.1,0,.19,0,.29,0,2.87.77,5.55,2.11,7.87-1.34,2.32-2.11,5-2.11,7.87s.82,5.72,2.23,8.08c-1.42,2.36-2.23,5.13-2.23,8.08,0,8.7,7.05,15.74,15.74,15.74s15.74-7.05,15.74-15.74c0-2.96-.82-5.72-2.23-8.08,1.42-2.36,2.23-5.13,2.23-8.08s-.77-5.55-2.11-7.87c1.34-2.32,2.11-5,2.11-7.87s-.79-5.63-2.16-7.96c1.41-2.36,2.22-5.12,2.22-8.07s-.78-5.6-2.14-7.92c1.32-2.3,2.08-4.97,2.08-7.82s-.78-5.57-2.12-7.9c1.35-2.32,2.12-5.02,2.12-7.9s-.78-5.59-2.13-7.91c1.43-2.37,2.25-5.15,2.25-8.12,0-8.7-7.05-15.74-15.74-15.74h0Z"/>
  </g>
</svg>