<?xml version="1.0" encoding="UTF-8"?>
<svg id="_레이어_2" data-name="레이어 2" xmlns="http://www.w3.org/2000/svg" viewBox="0 0 126.03 126.9">
  <g id="_레이어_1-2" data-name="레이어 1">
    <path d="M94.55,5c1.91,0,3.79.51,5.44,1.48.78.46,1.66.69,2.54.69s1.71-.22,2.47-.65c1.61-.91,3.44-1.4,5.3-1.4,5.92,0,10.74,4.82,10.74,10.74s-4.82,10.74-10.74,10.74c-1.91,0-3.79-.51-5.44-1.48-.78-.46-1.66-.69-2.54-.69s-1.71.22-2.47.65c-1.61.91-3.44,1.4-5.3,1.4s-3.69-.48-5.3-1.4c-.77-.44-1.62-.65-2.47-.65s-1.75.23-2.54.69c-1.64.97-3.52,1.48-5.44,1.48-2.76,0-5,2.24-5,5,0,1.9-.51,3.77-1.46,5.41-.91,1.56-.91,3.49,0,5.05.96,1.64,1.46,3.51,1.46,5.41s-.53,3.85-1.52,5.51c-.94,1.58-.95,3.54-.01,5.12.98,1.65,1.49,3.54,1.49,5.47s-.51,3.78-1.47,5.42c-.92,1.57-.92,3.52.01,5.08.98,1.65,1.5,3.54,1.5,5.47s-.5,3.74-1.44,5.37c-.9,1.55-.9,3.46,0,5.01.93,1.61,1.43,3.44,1.44,5.31,0,.06,0,.12,0,.18,0,2.76,2.24,5,5,5,1.85,0,3.67.48,5.28,1.39.76.43,1.61.65,2.46.65s1.75-.23,2.53-.69c1.64-.96,3.51-1.47,5.42-1.47s3.67.48,5.27,1.38c.76.43,1.61.65,2.46.65s1.76-.23,2.55-.7c1.65-.98,3.54-1.49,5.46-1.49,5.92,0,10.74,4.82,10.74,10.74s-4.82,10.74-10.74,10.74c-1.85,0-3.67-.48-5.27-1.38-.76-.43-1.61-.65-2.46-.65s-1.76.23-2.55.7c-1.65.98-3.54,1.49-5.46,1.49s-3.67-.48-5.28-1.39c-.76-.43-1.61-.65-2.46-.65s-1.75.23-2.53.69c-1.64.96-3.51,1.47-5.42,1.47s-3.86-.53-5.52-1.52c-.79-.48-1.68-.71-2.57-.71-.84,0-1.68.21-2.44.64-1.59.89-3.4,1.36-5.24,1.36s-3.7-.49-5.31-1.4c-.77-.44-1.62-.66-2.48-.66s-1.76.23-2.54.69c-1.65.97-3.53,1.49-5.45,1.49s-3.69-.48-5.3-1.4c-.77-.44-1.62-.65-2.47-.65s-1.76.23-2.54.69c-1.64.97-3.53,1.48-5.44,1.48s-3.8-.51-5.44-1.48c-.78-.46-1.66-.69-2.54-.69s-1.71.22-2.47.65c-1.61.92-3.44,1.4-5.3,1.4-5.92,0-10.74-4.82-10.74-10.74s4.82-10.74,10.74-10.74c1.92,0,3.8.51,5.44,1.48.78.46,1.66.69,2.54.69s1.71-.22,2.47-.66c1.61-.92,3.44-1.4,5.3-1.4s3.69.48,5.3,1.4c.77.44,1.62.65,2.47.65s1.76-.23,2.54-.69c1.63-.96,3.49-1.47,5.39-1.48.03,0,.06,0,.08,0,0,0,.02,0,.03,0,1.32,0,2.59-.52,3.52-1.45.94-.94,1.48-2.22,1.48-3.55,0-1.88.5-3.74,1.44-5.37.9-1.55.9-3.46,0-5.01-.94-1.63-1.44-3.48-1.44-5.37s.51-3.78,1.47-5.42c.92-1.57.92-3.52-.01-5.08-.98-1.65-1.5-3.54-1.5-5.47s.53-3.85,1.52-5.51c.94-1.57.95-3.54.01-5.12-.98-1.65-1.49-3.54-1.49-5.47s.51-3.77,1.46-5.41c.91-1.56.91-3.49,0-5.05-.96-1.64-1.46-3.51-1.46-5.41,0-2.76-2.24-5-5-5-.02,0-.05,0-.07,0-1.87,0-3.71-.5-5.32-1.44-.77-.45-1.64-.67-2.5-.67s-1.73.22-2.5.67c-1.63.94-3.48,1.44-5.37,1.44s-3.69-.48-5.3-1.4c-.77-.44-1.62-.65-2.47-.65s-1.75.23-2.54.69c-1.64.97-3.52,1.48-5.44,1.48-5.92,0-10.74-4.82-10.74-10.74S9.88,5.24,15.81,5.24c1.86,0,3.69.48,5.3,1.4.77.44,1.62.65,2.47.65s1.75-.23,2.54-.69c1.64-.97,3.52-1.48,5.44-1.48s3.74.5,5.37,1.44c.77.45,1.64.67,2.5.67s1.73-.22,2.5-.67c1.63-.94,3.48-1.44,5.37-1.44s3.8.51,5.45,1.48c.78.46,1.66.69,2.54.69s1.71-.22,2.48-.66c1.61-.92,3.45-1.4,5.31-1.4s3.69.48,5.3,1.4c.77.44,1.62.65,2.47.65s1.75-.23,2.54-.69c1.64-.97,3.52-1.48,5.44-1.48s3.69.48,5.3,1.4c.77.44,1.62.65,2.47.65s1.75-.23,2.54-.69c1.64-.97,3.52-1.48,5.44-1.48M94.55,0c-2.91,0-5.64.79-7.98,2.17-2.29-1.3-4.94-2.05-7.77-2.05s-5.64.79-7.98,2.17c-2.29-1.3-4.94-2.05-7.77-2.05s-5.49.75-7.78,2.06C52.93.91,50.21.12,47.29.12s-5.55.77-7.87,2.11C37.1.89,34.42.12,31.55.12s-5.64.79-7.98,2.17C21.28.99,18.63.24,15.81.24,7.11.24.06,7.29.06,15.98s7.05,15.74,15.74,15.74c2.91,0,5.64-.79,7.98-2.17,2.29,1.3,4.94,2.05,7.77,2.05s5.55-.77,7.87-2.11c2.32,1.34,5,2.11,7.87,2.11,0,0,.02,0,.02,0h0c0,2.89.78,5.6,2.15,7.93-1.36,2.33-2.15,5.04-2.15,7.93s.8,5.67,2.19,8.01c-1.42,2.36-2.23,5.13-2.23,8.09s.8,5.68,2.2,8.03c-1.37,2.33-2.16,5.05-2.16,7.95s.77,5.56,2.11,7.87c-1.34,2.32-2.11,5-2.11,7.87h0s-.04,0-.06,0c-2.91,0-5.64.79-7.98,2.17-2.29-1.31-4.95-2.06-7.78-2.06s-5.48.75-7.78,2.06c-2.34-1.38-5.07-2.17-7.98-2.17-8.69,0-15.74,7.05-15.74,15.74s7.05,15.74,15.74,15.74c2.83,0,5.48-.75,7.78-2.06,2.34,1.38,5.07,2.17,7.98,2.17s5.64-.79,7.98-2.17c2.29,1.31,4.95,2.06,7.78,2.06s5.65-.8,7.99-2.18c2.3,1.31,4.95,2.06,7.78,2.06s5.41-.73,7.68-2c2.36,1.42,5.13,2.24,8.09,2.24s5.61-.79,7.94-2.15c2.29,1.29,4.92,2.03,7.74,2.03s5.67-.8,8.01-2.19c2.28,1.29,4.92,2.03,7.73,2.03,8.7,0,15.74-7.05,15.74-15.74s-7.05-15.74-15.74-15.74c-2.93,0-5.67.8-8.01,2.19-2.28-1.29-4.92-2.03-7.73-2.03s-5.61.79-7.94,2.15c-2.29-1.29-4.92-2.03-7.74-2.03h0s0-.08,0-.12c0-2.87-.77-5.56-2.11-7.87,1.34-2.32,2.11-5,2.11-7.87s-.8-5.68-2.2-8.03c1.37-2.33,2.16-5.05,2.16-7.95s-.8-5.67-2.19-8.01c1.42-2.36,2.23-5.13,2.23-8.09s-.78-5.6-2.15-7.93c1.36-2.33,2.15-5.04,2.15-7.93,2.91,0,5.64-.79,7.98-2.17,2.29,1.3,4.94,2.05,7.77,2.05s5.48-.75,7.77-2.05c2.34,1.38,5.06,2.17,7.98,2.17,8.69,0,15.74-7.05,15.74-15.74S118.98.12,110.29.12c-2.83,0-5.48.75-7.77,2.05-2.34-1.38-5.06-2.17-7.98-2.17h0Z"/>
  </g>
</svg>