<?xml version="1.0" encoding="UTF-8"?>
<svg id="_레이어_2" data-name="레이어 2" xmlns="http://www.w3.org/2000/svg" viewBox="0 0 110.31 126.78">
  <g id="_레이어_1-2" data-name="레이어 1">
    <path d="M94.57,5c5.92,0,10.74,4.82,10.74,10.74s-4.79,10.72-10.7,10.74c-.03,0-.07,0-.1,0-2.76,0-5,2.24-5,5,0,1.9-.51,3.77-1.46,5.41-.91,1.56-.91,3.49,0,5.05.96,1.64,1.46,3.51,1.46,5.41s-.52,3.81-1.49,5.46c-.93,1.57-.93,3.52,0,5.09.98,1.65,1.49,3.54,1.49,5.46s-.5,3.74-1.44,5.37c-.9,1.55-.9,3.46,0,5.01.94,1.63,1.44,3.48,1.44,5.37s-.52,3.83-1.5,5.48c-.94,1.58-.94,3.54,0,5.11.98,1.65,1.5,3.55,1.5,5.48s-.49,3.73-1.43,5.35c-.89,1.55-.89,3.46,0,5.01.95,1.63,1.45,3.49,1.45,5.38,0,5.92-4.82,10.74-10.74,10.74-1.9,0-3.77-.51-5.41-1.46-.78-.46-1.65-.68-2.52-.68s-1.75.23-2.53.68c-1.64.96-3.51,1.46-5.41,1.46s-3.72-.49-5.33-1.42c-.77-.44-1.63-.66-2.49-.66s-1.72.22-2.49.66c-1.62.93-3.46,1.42-5.33,1.42s-3.74-.5-5.37-1.44c-.78-.45-1.64-.67-2.51-.67s-1.73.22-2.51.67c-1.63.94-3.49,1.44-5.37,1.44s-3.69-.48-5.3-1.4c-.77-.44-1.62-.65-2.47-.65s-1.76.23-2.54.69c-1.65.97-3.53,1.48-5.44,1.48-5.92,0-10.74-4.82-10.74-10.74,0-1.9.51-3.77,1.46-5.41.91-1.56.91-3.49,0-5.05-.96-1.64-1.46-3.51-1.46-5.41s.5-3.76,1.45-5.39c.91-1.56.91-3.48,0-5.03-.95-1.63-1.45-3.5-1.45-5.39,0-5.92,4.82-10.74,10.74-10.74s10.74,4.82,10.74,10.74c0,1.89-.5,3.76-1.45,5.39-.91,1.56-.91,3.48,0,5.03.95,1.63,1.45,3.5,1.45,5.39,0,2.76,2.24,5,5,5,.01,0,.03,0,.04,0,1.88,0,3.72.5,5.34,1.44.77.45,1.64.67,2.51.67s1.73-.22,2.51-.67c1.63-.94,3.48-1.44,5.37-1.44s3.71.49,5.33,1.42c.77.44,1.63.66,2.49.66s1.72-.22,2.49-.66c1.6-.92,3.43-1.41,5.28-1.42.04,0,.09,0,.12,0,.01,0,.02,0,.04,0,1.32,0,2.59-.52,3.52-1.45.95-.94,1.48-2.22,1.48-3.55,0-1.93.52-3.83,1.5-5.48.94-1.58.94-3.54,0-5.11-.98-1.65-1.5-3.55-1.5-5.48s.5-3.74,1.44-5.37c.9-1.55.9-3.46,0-5.01-.94-1.63-1.44-3.48-1.44-5.37s.52-3.81,1.49-5.46c.93-1.57.93-3.52,0-5.09-.98-1.65-1.49-3.54-1.49-5.46s.51-3.77,1.46-5.41c.91-1.56.91-3.49,0-5.05-.96-1.64-1.46-3.51-1.46-5.41,0-2.76-2.24-5-5-5-1.89,0-3.75-.5-5.39-1.45-.78-.45-1.65-.68-2.51-.68s-1.74.23-2.51.68c-1.63.95-3.49,1.45-5.39,1.45s-3.74-.5-5.37-1.44c-.77-.45-1.64-.67-2.5-.67s-1.73.22-2.5.67c-1.63.94-3.48,1.44-5.37,1.44s-3.69-.48-5.3-1.4c-.77-.44-1.62-.65-2.47-.65s-1.75.23-2.54.69c-1.64.97-3.52,1.48-5.44,1.48-5.92,0-10.74-4.82-10.74-10.74S9.82,5.12,15.74,5.12c1.86,0,3.69.48,5.3,1.4.77.44,1.62.65,2.47.65s1.75-.23,2.54-.69c1.64-.97,3.52-1.48,5.44-1.48s3.74.5,5.37,1.44c.77.45,1.64.67,2.5.67s1.73-.22,2.5-.67c1.63-.94,3.48-1.44,5.37-1.44s3.75.5,5.39,1.45c.78.45,1.65.68,2.51.68s1.74-.23,2.51-.68c1.63-.95,3.49-1.45,5.39-1.45s3.74.5,5.37,1.44c.77.45,1.64.67,2.5.67s1.73-.22,2.5-.67c1.63-.94,3.48-1.44,5.37-1.44s3.75.5,5.38,1.45c.78.45,1.64.68,2.51.68s1.74-.23,2.51-.68c1.63-.95,3.49-1.45,5.38-1.45M94.57,0c-2.88,0-5.57.78-7.9,2.13-2.32-1.35-5.02-2.13-7.9-2.13s-5.56.77-7.87,2.11c-2.32-1.34-5-2.11-7.87-2.11s-5.58.78-7.9,2.13c-2.32-1.35-5.02-2.13-7.9-2.13s-5.56.77-7.87,2.11c-2.32-1.34-5-2.11-7.87-2.11s-5.64.79-7.98,2.17C21.22.87,18.57.12,15.74.12,7.05.12,0,7.17,0,15.86s7.05,15.74,15.74,15.74c2.91,0,5.64-.79,7.98-2.17,2.29,1.3,4.94,2.05,7.77,2.05s5.56-.77,7.87-2.11c2.32,1.34,5,2.11,7.87,2.11s5.58-.78,7.9-2.13c2.32,1.35,5.02,2.13,7.9,2.13,0,2.89.78,5.6,2.15,7.93-1.36,2.33-2.15,5.04-2.15,7.93s.8,5.66,2.19,8.01c-1.39,2.35-2.19,5.08-2.19,8.01s.77,5.56,2.11,7.87c-1.34,2.32-2.11,5-2.11,7.87s.81,5.68,2.21,8.03c-1.4,2.35-2.21,5.1-2.21,8.03h0s-.07,0-.1,0c-2.85,0-5.52.76-7.82,2.08-2.3-1.32-4.97-2.08-7.82-2.08s-5.56.77-7.88,2.12c-2.32-1.34-5.01-2.12-7.88-2.12,0,0,0,0-.01,0h0c0-2.88-.78-5.58-2.13-7.91,1.35-2.32,2.13-5.03,2.13-7.91,0-8.7-7.05-15.74-15.74-15.74S.03,70.66.03,79.36c0,2.88.78,5.58,2.13,7.91C.81,89.59.03,92.29.03,95.18s.78,5.6,2.15,7.93C.81,105.44.03,108.15.03,111.04c0,8.7,7.05,15.74,15.74,15.74,2.91,0,5.64-.79,7.98-2.17,2.29,1.31,4.95,2.06,7.78,2.06s5.56-.77,7.88-2.12c2.32,1.34,5.01,2.12,7.88,2.12s5.52-.76,7.82-2.08c2.3,1.32,4.97,2.08,7.82,2.08s5.61-.79,7.94-2.15c2.33,1.36,5.04,2.15,7.94,2.15,8.69,0,15.74-7.05,15.74-15.74,0-2.88-.78-5.57-2.12-7.9,1.33-2.31,2.1-4.99,2.1-7.85s-.81-5.68-2.21-8.03c1.4-2.35,2.21-5.1,2.21-8.03s-.77-5.56-2.11-7.87c1.34-2.32,2.11-5,2.11-7.87s-.8-5.66-2.19-8.01c1.39-2.35,2.19-5.08,2.19-8.01s-.78-5.6-2.15-7.93c1.36-2.33,2.15-5.04,2.15-7.93h0s.03,0,.05,0c8.69,0,15.74-7.05,15.74-15.74S103.26,0,94.57,0h0Z"/>
  </g>
</svg>