<?xml version="1.0" encoding="UTF-8"?>
<svg id="_레이어_2" data-name="레이어 2" xmlns="http://www.w3.org/2000/svg" viewBox="0 0 110.48 126.66">
  <g id="_레이어_1-2" data-name="레이어 1">
    <path d="M94.55,5c5.92,0,10.74,4.82,10.74,10.74s-4.79,10.71-10.69,10.74c-.06,0-.11,0-.17,0-.02,0-.03,0-.05,0-1.32,0-2.58.52-3.52,1.45-.95.94-1.48,2.22-1.48,3.55,0,5.89-4.79,10.7-10.67,10.74-1.33,0-2.6.55-3.53,1.49-.93.95-1.45,2.23-1.44,3.56,0,.04,0,.07,0,.11v.1c-.02,1.34.49,2.62,1.43,3.58.94.95,2.21,1.49,3.55,1.5,1.88,0,3.72.51,5.34,1.45.78.45,1.65.68,2.51.68s1.75-.23,2.53-.69c1.64-.96,3.52-1.47,5.43-1.47,5.92,0,10.74,4.82,10.74,10.74,0,1.89-.5,3.76-1.45,5.39-.93,1.6-.9,3.57.07,5.14,1.04,1.69,1.59,3.64,1.59,5.63,0,1.87-.49,3.71-1.42,5.33-.88,1.54-.88,3.43,0,4.97.93,1.62,1.42,3.46,1.42,5.33s-.5,3.74-1.44,5.37c-.9,1.55-.9,3.46,0,5.01.94,1.63,1.44,3.48,1.44,5.37,0,5.92-4.82,10.74-10.74,10.74s-10.74-4.82-10.74-10.74c0-1.88.5-3.74,1.44-5.37.9-1.55.9-3.46,0-5.01-.94-1.63-1.44-3.48-1.44-5.37s.49-3.71,1.42-5.33c.88-1.54.88-3.43,0-4.97-.93-1.62-1.42-3.46-1.42-5.32v-.1s0-.18,0-.18c.03-1.37-.49-2.69-1.45-3.66-.94-.94-2.21-1.47-3.54-1.47-.03,0-.07,0-.1,0h-.19s-.04,0-.04,0c-1.86,0-3.7-.49-5.31-1.41-.77-.44-1.62-.66-2.48-.66s-1.72.22-2.5.67c-1.62.93-3.47,1.43-5.35,1.43s-3.73-.49-5.35-1.43c-.77-.45-1.63-.67-2.5-.67s-1.74.23-2.51.68c-1.63.95-3.49,1.45-5.39,1.45s-3.8-.51-5.44-1.48c-.78-.46-1.66-.69-2.54-.69s-1.76.23-2.54.69c-1.61.95-3.45,1.46-5.33,1.48-2.74.03-4.95,2.26-4.95,5,0,1.93-.52,3.83-1.5,5.48-.94,1.58-.94,3.54,0,5.11.98,1.65,1.5,3.55,1.5,5.48s-.49,3.73-1.43,5.35c-.89,1.55-.89,3.46,0,5.01.95,1.63,1.45,3.49,1.45,5.38,0,5.92-4.82,10.74-10.74,10.74s-10.74-4.82-10.74-10.74c0-1.88.49-3.73,1.43-5.35.89-1.55.89-3.46,0-5.01-.95-1.63-1.45-3.49-1.45-5.38s.52-3.83,1.5-5.48c.94-1.58.94-3.54,0-5.11-.98-1.65-1.5-3.55-1.5-5.48s.5-3.74,1.44-5.37c.9-1.55.9-3.46,0-5.01-.94-1.63-1.44-3.48-1.44-5.37s.52-3.81,1.49-5.46c.93-1.57.93-3.52,0-5.09-.98-1.65-1.49-3.54-1.49-5.46s.51-3.77,1.46-5.41c.91-1.56.91-3.49,0-5.05-.96-1.64-1.46-3.51-1.46-5.41s.5-3.74,1.44-5.37c.9-1.55.9-3.46,0-5.01-.94-1.63-1.44-3.48-1.44-5.37,0-5.92,4.82-10.74,10.74-10.74s10.74,4.82,10.74,10.74c0,1.88-.5,3.74-1.44,5.37-.9,1.55-.9,3.46,0,5.01.94,1.63,1.44,3.48,1.44,5.37s-.51,3.77-1.46,5.41c-.91,1.56-.91,3.49,0,5.05.96,1.64,1.46,3.51,1.46,5.4v.2c-.03,1.33.48,2.62,1.41,3.57s2.2,1.5,3.53,1.51c1.88.02,3.72.53,5.33,1.48.78.46,1.66.69,2.54.69s1.76-.23,2.54-.69c1.64-.97,3.52-1.48,5.43-1.48,1.34,0,2.62-.54,3.56-1.5.94-.96,1.45-2.25,1.43-3.59v-.19c.01-5.87,4.79-10.67,10.67-10.71,1.33,0,2.6-.55,3.53-1.49.93-.95,1.45-2.23,1.44-3.56v-.13c.02-5.89,4.8-10.68,10.69-10.71.06,0,.11,0,.17,0,.02,0,.03,0,.04,0,1.32,0,2.58-.52,3.52-1.45.95-.94,1.48-2.22,1.48-3.55,0-5.92,4.82-10.74,10.74-10.74M94.55,0c-8.7,0-15.74,7.05-15.74,15.74h0c-.05,0-.11,0-.16,0-8.69,0-15.74,7.05-15.74,15.74,0,.05,0,.1,0,.15-8.65.05-15.64,7.08-15.64,15.74,0,.08,0,.16,0,.25-2.91,0-5.63.8-7.96,2.17-2.3-1.35-4.97-2.14-7.82-2.17,0-.09,0-.18,0-.27,0-2.89-.78-5.6-2.15-7.93,1.36-2.33,2.15-5.04,2.15-7.93s-.77-5.56-2.11-7.87c1.34-2.32,2.11-5,2.11-7.87C31.49,7.05,24.44,0,15.74,0S0,7.05,0,15.74c0,2.87.77,5.56,2.11,7.87-1.34,2.32-2.11,5-2.11,7.87s.78,5.6,2.15,7.93c-1.36,2.33-2.15,5.04-2.15,7.93s.8,5.66,2.19,8.01c-1.39,2.35-2.19,5.08-2.19,8.01s.77,5.56,2.11,7.87c-1.34,2.32-2.11,5-2.11,7.87s.81,5.68,2.21,8.03c-1.4,2.35-2.21,5.1-2.21,8.03s.78,5.57,2.13,7.9C.79,105.38.03,108.06.03,110.92c0,8.7,7.05,15.74,15.74,15.74s15.74-7.05,15.74-15.74c0-2.88-.78-5.57-2.12-7.9,1.33-2.31,2.1-4.99,2.1-7.85s-.81-5.68-2.21-8.03c1.4-2.35,2.21-5.1,2.21-8.03h0c2.85-.03,5.52-.82,7.82-2.18,2.34,1.38,5.07,2.18,7.98,2.18s5.58-.78,7.9-2.13c2.31,1.33,4.99,2.1,7.85,2.1s5.54-.77,7.85-2.1c2.3,1.31,4.96,2.07,7.79,2.07.11,0,.22,0,.34,0,0,.13-.01.27-.01.4,0,2.84.76,5.51,2.08,7.81-1.32,2.3-2.08,4.97-2.08,7.81s.77,5.56,2.11,7.87c-1.34,2.32-2.11,5-2.11,7.87,0,8.7,7.05,15.74,15.74,15.74s15.74-7.05,15.74-15.74c0-2.87-.77-5.56-2.11-7.87,1.34-2.32,2.11-5,2.11-7.87s-.76-5.51-2.08-7.81c1.32-2.3,2.08-4.97,2.08-7.81,0-3.03-.86-5.86-2.34-8.26,1.35-2.32,2.13-5.02,2.13-7.91,0-8.7-7.05-15.74-15.74-15.74-2.9,0-5.62.79-7.96,2.16-2.3-1.34-4.98-2.12-7.83-2.13,0-.06,0-.12,0-.18,0-.05,0-.1,0-.15,8.65-.05,15.64-7.08,15.64-15.74h0c.05,0,.11,0,.16,0,8.69,0,15.74-7.05,15.74-15.74S103.24,0,94.55,0h0Z"/>
  </g>
</svg>