<?xml version="1.0" encoding="UTF-8"?>
<svg id="_레이어_2" data-name="레이어 2" xmlns="http://www.w3.org/2000/svg" viewBox="0 0 110.35 126.71">
  <g id="_레이어_1-2" data-name="레이어 1">
    <path d="M94.48,5c5.92,0,10.74,4.82,10.74,10.74,0,1.88-.49,3.72-1.43,5.35-.9,1.57-.89,3.51.04,5.06.99,1.66,1.51,3.56,1.51,5.5s-.51,3.8-1.48,5.44c-.91,1.54-.93,3.45-.04,5.01.91,1.61,1.39,3.44,1.39,5.29s-.5,3.76-1.45,5.39c-.91,1.57-.9,3.5.02,5.06.98,1.65,1.49,3.54,1.49,5.46s-.5,3.73-1.43,5.36c-.89,1.55-.89,3.46,0,5.01.95,1.63,1.45,3.49,1.45,5.38s-.52,3.82-1.5,5.48c-.93,1.57-.94,3.53,0,5.1.97,1.65,1.49,3.53,1.49,5.45s-.49,3.71-1.41,5.32c-.88,1.54-.88,3.43,0,4.96.92,1.61,1.41,3.45,1.41,5.31,0,5.92-4.82,10.74-10.74,10.74s-10.74-4.82-10.74-10.74c0-1.87.49-3.71,1.41-5.32.88-1.54.88-3.43,0-4.96-.92-1.61-1.41-3.45-1.41-5.32s.52-3.82,1.5-5.48c.93-1.57.94-3.53,0-5.1-.97-1.65-1.49-3.53-1.49-5.45s.5-3.73,1.43-5.36c.89-1.55.89-3.46,0-5.01-.95-1.63-1.45-3.49-1.45-5.38,0-2.76-2.24-5-5-5-.04,0-.1,0-.14,0-1.31.03-2.55.57-3.47,1.5-.94.96-1.45,2.26-1.42,3.61v.02c-.03,5.88-4.82,10.66-10.71,10.68-.02,0-.04,0-.05,0-1.34,0-2.62.54-3.56,1.49s-1.46,2.24-1.44,3.58v.1c-.02,5.9-4.82,10.69-10.71,10.7-.01,0-.02,0-.03,0-2.76,0-5,2.24-5,5,0,.06,0,.12,0,.18-.03,5.88-4.81,10.65-10.69,10.68,0,0-.01,0-.02,0-.02,0-.05,0-.07,0-1.31,0-2.58.52-3.51,1.44-.95.94-1.49,2.22-1.49,3.56,0,.06,0,.12,0,.18-.03,5.9-4.84,10.68-10.74,10.68s-10.74-4.82-10.74-10.74c0-1.93.52-3.82,1.49-5.46.93-1.57.93-3.53,0-5.1-.98-1.65-1.49-3.54-1.49-5.46s.51-3.78,1.47-5.42c.91-1.54.92-3.45.03-5.01-.92-1.61-1.41-3.45-1.41-5.31s.51-3.78,1.47-5.42c.91-1.56.91-3.49,0-5.05-.96-1.64-1.47-3.51-1.47-5.42s.5-3.75,1.45-5.38c.91-1.57.9-3.52-.03-5.08-.99-1.66-1.51-3.56-1.51-5.5s.5-3.75,1.44-5.38c.9-1.55.9-3.46,0-5.01-.94-1.62-1.43-3.48-1.43-5.36s.5-3.74,1.44-5.37c.9-1.55.9-3.46,0-5.01-.94-1.63-1.44-3.48-1.44-5.37,0-5.92,4.82-10.74,10.74-10.74s10.74,4.82,10.74,10.74c0,1.89-.5,3.74-1.44,5.37-.9,1.55-.9,3.46,0,5.01.94,1.63,1.44,3.48,1.44,5.37s-.5,3.75-1.44,5.38c-.9,1.55-.9,3.46,0,5.01.94,1.63,1.43,3.48,1.43,5.36s-.5,3.75-1.45,5.38c-.91,1.57-.9,3.52.03,5.08.99,1.66,1.51,3.56,1.51,5.5s-.51,3.78-1.47,5.42c-.91,1.56-.91,3.49,0,5.05.86,1.46,1.34,3.06,1.44,4.75.16,2.64,2.34,4.7,4.98,4.7h0c2.64,0,4.82-2.05,4.99-4.68.36-5.62,5.04-10.03,10.67-10.05.02,0,.04,0,.06,0,2.76,0,5-2.24,5-5,0-.06,0-.12,0-.18.03-5.89,4.84-10.68,10.74-10.68,1.34,0,2.63-.54,3.57-1.51.94-.96,1.45-2.26,1.42-3.61v-.02c.03-5.88,4.81-10.65,10.68-10.68.05,0,.1,0,.15,0,.01,0,.02,0,.03,0,1.33,0,2.6-.53,3.54-1.47.95-.95,1.47-2.23,1.46-3.57,0-.06,0-.12,0-.19,0-1.86.5-3.69,1.43-5.29.9-1.57.89-3.51-.04-5.06-.99-1.66-1.52-3.56-1.52-5.5,0-5.92,4.82-10.74,10.74-10.74M94.48,0c-8.7,0-15.74,7.05-15.74,15.74,0,2.95.81,5.71,2.22,8.07-1.33,2.31-2.09,4.98-2.09,7.84,0,.06,0,.12,0,.17-.04,0-.08,0-.12,0-8.7,0-15.74,7.05-15.74,15.74,0,.02,0,.04,0,.07-8.69,0-15.73,7.05-15.73,15.74,0,.04,0,.08,0,.12,0,0-.01,0-.02,0-8.36,0-15.19,6.51-15.71,14.74-.15-2.54-.91-4.91-2.12-6.98,1.37-2.33,2.15-5.04,2.15-7.94s-.81-5.7-2.22-8.06c1.35-2.32,2.13-5.02,2.13-7.9s-.77-5.55-2.1-7.86c1.34-2.32,2.12-5.01,2.12-7.88s-.77-5.56-2.11-7.87c1.34-2.32,2.11-5,2.11-7.87C31.5,7.17,24.45.12,15.76.12S.01,7.17.01,15.86c0,2.87.77,5.56,2.11,7.87C.79,26.05.01,28.74.01,31.61s.77,5.55,2.1,7.86c-1.34,2.32-2.12,5.01-2.12,7.88s.81,5.7,2.22,8.06C.87,57.74.1,60.43.1,63.31s.79,5.61,2.15,7.94c-1.37,2.33-2.15,5.04-2.15,7.94s.75,5.49,2.06,7.79c-1.37,2.33-2.16,5.05-2.16,7.95s.8,5.67,2.19,8.01c-1.39,2.35-2.19,5.09-2.19,8.01,0,8.7,7.05,15.74,15.74,15.74s15.74-7.05,15.74-15.74c0-.04,0-.08,0-.12.01,0,.02,0,.03,0,8.7,0,15.74-7.05,15.74-15.74,0-.04,0-.08,0-.12,0,0,0,0,0,0,8.69,0,15.74-7.05,15.74-15.74,0-.04,0-.08,0-.12,0,0,.01,0,.02,0,8.69,0,15.74-7.05,15.74-15.74,0-.02,0-.04,0-.07.01,0,.02,0,.04,0h0c0,2.88.77,5.57,2.12,7.89-1.33,2.31-2.1,4.99-2.1,7.85s.8,5.65,2.18,8c-1.4,2.35-2.2,5.1-2.2,8.03s.75,5.5,2.07,7.8c-1.32,2.3-2.07,4.96-2.07,7.81,0,8.7,7.05,15.74,15.74,15.74s15.74-7.05,15.74-15.74c0-2.84-.75-5.5-2.07-7.79,1.32-2.3,2.07-4.96,2.07-7.81s-.8-5.65-2.18-7.99c1.4-2.35,2.2-5.1,2.2-8.03s-.77-5.57-2.12-7.89c1.33-2.31,2.1-4.99,2.1-7.85s-.8-5.66-2.19-8.01c1.35-2.32,2.13-5.02,2.13-7.9s-.75-5.47-2.05-7.76c1.38-2.34,2.18-5.07,2.18-7.99s-.81-5.71-2.22-8.07c1.33-2.31,2.09-4.98,2.09-7.84,0-8.7-7.05-15.74-15.74-15.74h0Z"/>
  </g>
</svg>