<?xml version="1.0" encoding="UTF-8"?>
<svg id="_레이어_2" data-name="레이어 2" xmlns="http://www.w3.org/2000/svg" viewBox="0 0 115.33 131.61">
  <g id="_레이어_1-2" data-name="레이어 1">
    <path d="M81.35,7.5c5.92,0,10.74,4.82,10.74,10.75v.18c-.03,1.34.48,2.64,1.42,3.6s2.23,1.5,3.57,1.5c5.92,0,10.74,4.82,10.74,10.74,0,1.89-.5,3.75-1.45,5.38-.9,1.55-.9,3.47,0,5.02.95,1.63,1.45,3.49,1.45,5.38s-.5,3.74-1.44,5.37c-.9,1.55-.9,3.46,0,5.01.94,1.63,1.44,3.48,1.44,5.37s-.52,3.82-1.5,5.47c-.93,1.57-.93,3.53,0,5.1.98,1.65,1.5,3.54,1.5,5.47s-.5,3.74-1.44,5.37c-.9,1.55-.9,3.46,0,5.01.94,1.63,1.44,3.48,1.44,5.37s-.51,3.8-1.48,5.44c-.91,1.55-.92,3.46-.03,5.02.92,1.61,1.41,3.45,1.41,5.32,0,5.92-4.82,10.74-10.74,10.74-1.87,0-3.71-.49-5.33-1.42-.77-.44-1.63-.66-2.49-.66s-1.72.22-2.49.66c-1.62.93-3.46,1.42-5.33,1.42s-3.76-.5-5.4-1.46c-.78-.45-1.65-.68-2.52-.68s-1.74.23-2.52.68c-1.63.95-3.5,1.46-5.4,1.46s-3.75-.5-5.38-1.44c-.78-.45-1.64-.67-2.51-.67s-1.73.22-2.51.67c-1.63.94-3.49,1.44-5.38,1.44s-3.74-.5-5.37-1.44c-.78-.45-1.64-.67-2.51-.67s-1.73.22-2.51.67c-1.63.94-3.48,1.44-5.37,1.44-5.92,0-10.73-4.81-10.74-10.72,0-.14,0-.3-.01-.44-.2-2.61-2.37-4.63-4.99-4.63-5.92,0-10.74-4.82-10.74-10.74,0-1.88.5-3.74,1.44-5.37.9-1.55.9-3.46,0-5.01-.94-1.63-1.44-3.48-1.44-5.37s.52-3.82,1.5-5.47c.93-1.57.93-3.53,0-5.1-.98-1.65-1.5-3.54-1.5-5.47s.5-3.74,1.44-5.37c.9-1.55.9-3.46,0-5.01-.94-1.63-1.44-3.48-1.44-5.37s.5-3.75,1.45-5.38c.9-1.55.9-3.47,0-5.02-.95-1.63-1.45-3.49-1.45-5.38,0-5.9,4.79-10.71,10.68-10.74.05,0,.09,0,.14,0,.01,0,.03,0,.04,0,1.33,0,2.62-.53,3.56-1.48.95-.96,1.47-2.26,1.44-3.62v-.19c0-5.92,4.81-10.74,10.74-10.74,1.9,0,3.77.51,5.41,1.46.78.46,1.65.68,2.52.68s1.74-.23,2.52-.68c1.64-.96,3.51-1.46,5.41-1.46s3.71.49,5.33,1.42c.77.44,1.63.66,2.49.66s1.72-.22,2.49-.66c1.62-.93,3.46-1.42,5.33-1.42s3.74.5,5.37,1.44c.77.45,1.64.67,2.5.67s1.73-.22,2.5-.67c1.63-.94,3.48-1.44,5.37-1.44M34.16,28.99s-.09,0-.14,0c-.01,0-.03,0-.04,0-1.33,0-2.62.53-3.56,1.48-.95.96-1.47,2.26-1.44,3.62v.19c0,1.89-.49,3.75-1.44,5.38-.9,1.55-.9,3.47,0,5.02.95,1.63,1.45,3.49,1.45,5.38s-.5,3.74-1.44,5.37c-.9,1.55-.9,3.46,0,5.01.94,1.63,1.44,3.48,1.44,5.37s-.52,3.82-1.5,5.47c-.93,1.57-.93,3.53,0,5.1.98,1.65,1.5,3.54,1.5,5.47s-.5,3.74-1.44,5.37c-.9,1.55-.9,3.46,0,5.01.94,1.62,1.43,3.46,1.44,5.34,0,.15,0,.3.01.44.2,2.61,2.37,4.62,4.99,4.62,1.89,0,3.74.5,5.37,1.44.78.45,1.64.67,2.51.67s1.73-.22,2.51-.67c1.63-.94,3.49-1.44,5.37-1.44s3.75.5,5.38,1.44c.78.45,1.64.67,2.51.67s1.73-.22,2.51-.67c1.63-.94,3.48-1.44,5.37-1.44,2.76,0,5-2.24,5-5,0-.02,0-.04,0-.06.02-5.89,4.8-10.68,10.69-10.71.05,0,.1,0,.13,0,.01,0,.02,0,.03,0,1.32,0,2.59-.52,3.52-1.45.94-.94,1.48-2.22,1.48-3.55,0-1.93.52-3.82,1.5-5.47.93-1.57.93-3.53,0-5.1-.98-1.65-1.5-3.54-1.5-5.47s.5-3.74,1.44-5.37c.9-1.55.9-3.46,0-5.01-.94-1.63-1.44-3.48-1.44-5.37s.5-3.75,1.45-5.38c.9-1.55.9-3.47,0-5.02-.95-1.63-1.45-3.49-1.45-5.39v-.18c.03-1.34-.48-2.64-1.42-3.6s-2.23-1.5-3.57-1.5c-1.88,0-3.74-.5-5.37-1.44-.77-.45-1.64-.67-2.5-.67s-1.73.22-2.5.67c-1.63.94-3.48,1.44-5.37,1.44s-3.71-.49-5.33-1.42c-.77-.44-1.63-.66-2.49-.66s-1.72.22-2.49.66c-1.62.93-3.46,1.42-5.33,1.42s-3.77-.51-5.41-1.46c-.78-.46-1.65-.68-2.52-.68s-1.74.23-2.52.68c-1.62.95-3.47,1.45-5.35,1.46M81.35,2.5c-2.87,0-5.56.77-7.87,2.11-2.32-1.34-5-2.11-7.87-2.11s-5.51.76-7.82,2.08c-2.3-1.32-4.97-2.08-7.82-2.08s-5.6.78-7.94,2.15c-2.33-1.36-5.04-2.15-7.94-2.15-8.69,0-15.74,7.05-15.74,15.74,0,.1,0,.19,0,.29-.04,0-.08,0-.12,0-8.7,0-15.74,7.05-15.74,15.74,0,2.88.78,5.57,2.12,7.9-1.35,2.32-2.12,5.02-2.12,7.9s.77,5.56,2.11,7.87c-1.34,2.32-2.11,5-2.11,7.87s.8,5.67,2.19,8.02c-1.39,2.35-2.19,5.09-2.19,8.02s.77,5.55,2.11,7.87c-1.34,2.32-2.11,5-2.11,7.87,0,8.7,7.05,15.74,15.74,15.74h0s0,.03,0,.04c0,8.7,7.05,15.74,15.74,15.74,2.87,0,5.56-.77,7.88-2.12,2.32,1.34,5.01,2.12,7.88,2.12s5.57-.77,7.89-2.12c2.32,1.35,5.01,2.12,7.89,2.12s5.59-.78,7.92-2.14c2.33,1.36,5.03,2.14,7.92,2.14s5.51-.76,7.82-2.08c2.3,1.32,4.97,2.08,7.82,2.08,8.69,0,15.74-7.05,15.74-15.74,0-2.84-.76-5.5-2.07-7.8,1.38-2.34,2.17-5.07,2.17-7.98s-.77-5.55-2.11-7.87c1.34-2.32,2.11-5,2.11-7.87s-.8-5.67-2.19-8.02c1.39-2.35,2.19-5.09,2.19-8.02s-.77-5.56-2.11-7.87c1.34-2.32,2.11-5,2.11-7.87s-.78-5.57-2.12-7.9c1.35-2.32,2.12-5.02,2.12-7.9,0-8.7-7.05-15.74-15.74-15.74h0c0-.1,0-.19,0-.29,0-8.7-7.05-15.74-15.74-15.74h0ZM34.1,33.99c2.9,0,5.6-.78,7.94-2.15,2.33,1.36,5.04,2.15,7.94,2.15s5.51-.76,7.82-2.08c2.3,1.32,4.97,2.08,7.82,2.08s5.56-.77,7.87-2.11c2.32,1.34,5,2.11,7.87,2.11h0c0,.1,0,.19,0,.29,0,2.88.78,5.57,2.12,7.9-1.35,2.32-2.12,5.02-2.12,7.9s.77,5.56,2.11,7.87c-1.34,2.32-2.11,5-2.11,7.87s.8,5.67,2.19,8.02c-1.39,2.35-2.19,5.09-2.19,8.02h0s-.07,0-.1,0c-8.7,0-15.74,7.05-15.74,15.74,0,.01,0,.02,0,.03-2.87,0-5.56.78-7.87,2.12-2.32-1.35-5.01-2.12-7.89-2.12s-5.56.77-7.88,2.12c-2.32-1.34-5.01-2.12-7.88-2.12,0,0,0,0,0,0,0-.01,0-.03,0-.04,0-2.87-.77-5.55-2.11-7.87,1.34-2.32,2.11-5,2.11-7.87s-.8-5.67-2.19-8.02c1.39-2.35,2.19-5.09,2.19-8.02s-.77-5.56-2.11-7.87c1.34-2.32,2.11-5,2.11-7.87s-.78-5.57-2.12-7.9c1.35-2.32,2.12-5.02,2.12-7.9,0-.1,0-.19,0-.29.04,0,.08,0,.12,0h0Z"/>
  </g>
</svg>