<?xml version="1.0" encoding="UTF-8"?>
<svg id="_레이어_2" data-name="레이어 2" xmlns="http://www.w3.org/2000/svg" viewBox="0 0 115.27 131.73">
  <g id="_레이어_1-2" data-name="레이어 1">
    <path d="M96.98,7.5c5.92,0,10.74,4.82,10.74,10.74,0,1.9-.5,3.77-1.46,5.4-.91,1.56-.91,3.49,0,5.05.96,1.64,1.47,3.51,1.47,5.42s-.5,3.77-1.46,5.4c-.91,1.56-.91,3.49,0,5.05.96,1.64,1.47,3.51,1.47,5.42s-.5,3.76-1.46,5.4c-.9,1.55-.91,3.46-.02,5.01.93,1.62,1.42,3.46,1.42,5.34,0,5.92-4.82,10.74-10.74,10.74-1.88,0-3.73-.49-5.35-1.43-.77-.44-1.63-.67-2.49-.67s-1.72.22-2.49.67c-1.61.92-3.43,1.42-5.29,1.43-.03,0-.06,0-.08,0-.01,0-.02,0-.03,0-1.32,0-2.59.52-3.52,1.45-.93.92-1.46,2.18-1.48,3.49,0,.08,0,.15,0,.23,0,1.33.51,2.61,1.45,3.56.94.95,2.22,1.48,3.55,1.48.01,0,.02,0,.03,0,5.89.01,10.68,4.79,10.72,10.68,0,.06,0,.12,0,.18,0,1.33.53,2.6,1.47,3.54.94.93,2.21,1.46,3.53,1.46,0,0,.01,0,.02,0,.04,0,.08,0,.12,0,5.9.03,10.68,4.84,10.68,10.74s-4.82,10.74-10.74,10.74-10.72-4.8-10.74-10.7v-.1c.02-1.34-.5-2.63-1.45-3.58-.94-.95-2.22-1.48-3.55-1.48h-.03s-.08,0-.12,0c-5.88-.03-10.66-4.82-10.68-10.7v-.17c.02-1.34-.49-2.63-1.43-3.58-.94-.95-2.22-1.49-3.56-1.49,0,0-.02,0-.03,0-5.9-.01-10.69-4.8-10.72-10.69,0-.02,0-.04,0-.06,0-2.74-2.21-4.97-4.95-5-1.86-.02-3.69-.52-5.29-1.46-.78-.46-1.65-.68-2.52-.68s-1.75.23-2.52.68c-1.62.95-3.47,1.45-5.35,1.46-.02,0-.04,0-.05,0-.02,0-.03,0-.05,0-1.33,0-2.62.53-3.55,1.48-.95.96-1.47,2.27-1.44,3.62v.2s0,.06,0,.06c0,1.88-.5,3.74-1.44,5.37-.9,1.55-.9,3.46,0,5.01.94,1.63,1.44,3.48,1.44,5.37s-.51,3.79-1.47,5.43c-.92,1.56-.92,3.5,0,5.07.96,1.64,1.47,3.52,1.47,5.43,0,5.92-4.82,10.74-10.74,10.74s-10.74-4.82-10.74-10.74c0-1.91.51-3.79,1.48-5.43.92-1.56.92-3.5,0-5.07-.96-1.64-1.48-3.52-1.48-5.43s.5-3.74,1.44-5.37c.9-1.55.9-3.46,0-5.01-.94-1.63-1.44-3.48-1.44-5.37s.51-3.8,1.49-5.45c.93-1.57.93-3.52,0-5.08-.97-1.65-1.49-3.53-1.49-5.45s.51-3.77,1.46-5.41c.91-1.56.91-3.49,0-5.05-.96-1.64-1.46-3.51-1.46-5.41s.5-3.76,1.45-5.39c.91-1.56.91-3.48,0-5.03-.95-1.63-1.45-3.5-1.45-5.39s.52-3.84,1.51-5.49c.93-1.56.94-3.49.04-5.06-.94-1.62-1.43-3.47-1.43-5.35,0-5.92,4.82-10.74,10.74-10.74,1.91,0,3.78.51,5.42,1.47.78.46,1.65.69,2.53.69s1.68-.21,2.44-.64c1.59-.89,3.4-1.36,5.23-1.36s3.75.5,5.38,1.44c.78.45,1.64.67,2.51.67s1.73-.22,2.51-.67c1.63-.94,3.49-1.44,5.38-1.44s3.67.48,5.27,1.38c.76.43,1.61.65,2.46.65s1.76-.23,2.55-.7c1.65-.97,3.54-1.49,5.46-1.49s3.74.5,5.37,1.44c.77.45,1.64.67,2.5.67s1.73-.22,2.5-.67c1.63-.94,3.48-1.44,5.37-1.44s3.74.5,5.37,1.44c.77.45,1.64.67,2.5.67s1.73-.22,2.5-.67c1.63-.94,3.48-1.44,5.37-1.44M65.49,28.99c-1.85,0-3.67-.48-5.27-1.38-.76-.43-1.61-.65-2.46-.65s-1.76.23-2.55.7c-1.65.97-3.54,1.49-5.46,1.49s-3.75-.5-5.38-1.44c-.78-.45-1.64-.67-2.51-.67s-1.73.23-2.51.68c-1.63.94-3.49,1.44-5.38,1.44-2.76,0-5,2.24-5,5,0,1.9-.5,3.76-1.45,5.39-.91,1.56-.91,3.48,0,5.03.95,1.63,1.45,3.5,1.45,5.4,0,1.34.54,2.62,1.49,3.56.94.93,2.2,1.44,3.51,1.44.02,0,.04,0,.06,0,0,0,.02,0,.03,0,1.88,0,3.73.52,5.36,1.46.78.46,1.65.68,2.52.68s1.74-.23,2.52-.68c1.64-.96,3.51-1.46,5.41-1.46s3.76.5,5.4,1.46c.78.45,1.65.68,2.52.68s1.74-.23,2.52-.68c1.63-.95,3.5-1.45,5.4-1.45s3.69.48,5.3,1.4c.77.44,1.62.66,2.47.66s1.71-.22,2.47-.65c1.61-.92,3.44-1.4,5.29-1.4,2.76,0,5-2.24,5-5,0-1.9.5-3.77,1.46-5.4.91-1.56.91-3.49,0-5.05-.95-1.62-1.46-3.47-1.47-5.36,0-.06,0-.12,0-.18,0-2.76-2.24-5-5-5-.02,0-.03,0-.05,0-1.87,0-3.72-.5-5.33-1.44-.77-.45-1.64-.67-2.5-.67s-1.73.22-2.5.67c-1.63.94-3.48,1.44-5.37,1.44M96.98,2.5c-2.87,0-5.56.77-7.87,2.11-2.32-1.34-5-2.11-7.87-2.11s-5.56.77-7.87,2.11c-2.32-1.34-5-2.11-7.87-2.11s-5.66.8-8,2.19c-2.28-1.29-4.92-2.03-7.73-2.03s-5.57.77-7.89,2.12c-2.32-1.35-5.01-2.12-7.89-2.12s-5.4.73-7.67,2c-2.33-1.37-5.05-2.16-7.95-2.16-8.7,0-15.74,7.05-15.74,15.74,0,2.86.77,5.54,2.1,7.85-1.41,2.36-2.22,5.11-2.22,8.06s.78,5.59,2.13,7.91c-1.35,2.33-2.13,5.03-2.13,7.91s.78,5.6,2.15,7.93c-1.36,2.33-2.15,5.04-2.15,7.93s.8,5.65,2.18,7.99c-1.38,2.34-2.18,5.07-2.18,7.99s.77,5.56,2.11,7.87c-1.34,2.32-2.11,5-2.11,7.87s.79,5.63,2.16,7.96c-1.37,2.34-2.16,5.06-2.16,7.96,0,8.7,7.05,15.74,15.74,15.74s15.74-7.05,15.74-15.74c0-2.91-.79-5.63-2.16-7.96,1.37-2.34,2.16-5.06,2.16-7.96s-.77-5.56-2.11-7.87c1.34-2.32,2.11-5,2.11-7.87,0-.12,0-.24,0-.36.01,0,.03,0,.04,0,2.9,0,5.6-.78,7.94-2.15,2.28,1.34,4.93,2.11,7.76,2.14,0,0,0,0,0,0,0,8.7,7.05,15.74,15.74,15.74,0,0,0,0,0,0,0,.07,0,.13,0,.2,0,8.7,7.05,15.74,15.74,15.74.03,0,.05,0,.08,0,0,.04,0,.08,0,.12,0,8.7,7.05,15.74,15.74,15.74s15.74-7.05,15.74-15.74-7.05-15.74-15.74-15.74c-.03,0-.05,0-.08,0,0-.04,0-.08,0-.12,0-8.7-7.05-15.74-15.74-15.74,0,0,0,0,0,0,0-.07,0-.13,0-.2h0s.04,0,.06,0c2.86,0,5.53-.76,7.84-2.09,2.31,1.33,4.98,2.09,7.84,2.09,8.69,0,15.74-7.05,15.74-15.74,0-2.85-.76-5.52-2.09-7.83,1.36-2.33,2.14-5.03,2.14-7.92s-.79-5.61-2.15-7.94c1.36-2.33,2.14-5.03,2.14-7.92s-.79-5.61-2.15-7.94c1.36-2.33,2.14-5.03,2.14-7.92,0-8.7-7.05-15.74-15.74-15.74h0ZM65.49,33.99c2.87,0,5.56-.77,7.87-2.11,2.32,1.34,5,2.11,7.87,2.11,0,0,.01,0,.02,0,0,.04,0,.08,0,.12,0,2.9.79,5.61,2.15,7.94-1.36,2.33-2.14,5.03-2.14,7.92h0c-2.82,0-5.47.75-7.76,2.06-2.29-1.31-4.95-2.06-7.78-2.06s-5.59.78-7.91,2.13c-2.33-1.35-5.03-2.13-7.91-2.13s-5.6.78-7.94,2.15c-2.33-1.36-5.04-2.15-7.94-2.15-.01,0-.02,0-.04,0h0c0-2.89-.78-5.59-2.13-7.91,1.35-2.33,2.13-5.03,2.13-7.91,2.87,0,5.57-.77,7.88-2.12,2.32,1.35,5.01,2.12,7.89,2.12s5.66-.8,8-2.19c2.28,1.29,4.92,2.03,7.73,2.03h0Z"/>
  </g>
</svg>