<?xml version="1.0" encoding="UTF-8"?>
<svg id="_레이어_2" data-name="레이어 2" xmlns="http://www.w3.org/2000/svg" viewBox="0 0 125.97 126.66">
  <g id="_레이어_1-2" data-name="레이어 1">
    <path d="M94.48,5c1.91,0,3.79.51,5.44,1.48.78.46,1.66.69,2.54.69s1.7-.22,2.47-.65c1.61-.91,3.44-1.4,5.3-1.4,5.92,0,10.74,4.82,10.74,10.74s-4.82,10.74-10.74,10.74c-1.91,0-3.79-.51-5.44-1.48-.78-.46-1.66-.69-2.54-.69s-1.7.22-2.47.65c-1.61.91-3.44,1.4-5.3,1.4s-3.69-.48-5.3-1.4c-.77-.44-1.62-.65-2.47-.65s-1.75.23-2.54.69c-1.64.97-3.52,1.48-5.44,1.48-2.76,0-5,2.24-5,5,0,1.9-.51,3.77-1.46,5.41-.91,1.56-.91,3.49,0,5.05.96,1.64,1.46,3.51,1.46,5.41s-.5,3.76-1.45,5.39c-.9,1.55-.91,3.46-.01,5.01.93,1.62,1.42,3.47,1.42,5.34s-.51,3.79-1.48,5.44c-.93,1.57-.92,3.53.01,5.09.98,1.65,1.51,3.55,1.51,5.48s-.5,3.76-1.45,5.39c-.9,1.55-.9,3.48,0,5.03.95,1.63,1.45,3.5,1.45,5.39s-.51,3.79-1.48,5.43c-.92,1.56-.92,3.49,0,5.05.95,1.64,1.46,3.5,1.46,5.4,0,5.92-4.82,10.74-10.74,10.74s-10.74-4.82-10.74-10.74c0-1.91.51-3.79,1.48-5.43.92-1.56.92-3.49,0-5.05-.95-1.63-1.46-3.5-1.46-5.4s.5-3.76,1.45-5.39c.9-1.55.9-3.47,0-5.03-.95-1.63-1.45-3.5-1.45-5.39s.51-3.79,1.48-5.44c.93-1.57.92-3.53-.01-5.09-.98-1.65-1.51-3.55-1.51-5.48s.5-3.76,1.45-5.39c.9-1.55.91-3.46.01-5.01-.93-1.62-1.42-3.47-1.42-5.34s.51-3.77,1.46-5.41c.91-1.56.91-3.49,0-5.05-.96-1.64-1.46-3.51-1.46-5.41,0-2.76-2.24-5-5-5-.02,0-.05,0-.07,0-1.87,0-3.71-.5-5.32-1.44-.77-.45-1.64-.67-2.5-.67s-1.73.22-2.5.67c-1.63.94-3.48,1.44-5.37,1.44s-3.69-.48-5.3-1.4c-.77-.44-1.62-.65-2.47-.65s-1.75.23-2.54.69c-1.64.97-3.52,1.48-5.44,1.48-5.92,0-10.74-4.82-10.74-10.74S9.82,5.24,15.74,5.24c1.86,0,3.69.48,5.3,1.4.77.44,1.62.65,2.47.65s1.75-.23,2.54-.69c1.64-.97,3.52-1.48,5.44-1.48s3.74.5,5.37,1.44c.77.45,1.64.67,2.5.67s1.73-.22,2.5-.67c1.63-.94,3.48-1.44,5.37-1.44s3.8.51,5.45,1.48c.78.46,1.66.69,2.54.69s1.71-.22,2.48-.66c1.61-.92,3.45-1.4,5.31-1.4s3.69.48,5.3,1.4c.77.44,1.62.65,2.47.65s1.75-.23,2.54-.69c1.64-.97,3.52-1.48,5.44-1.48s3.69.48,5.3,1.4c.77.44,1.62.65,2.47.65s1.75-.23,2.54-.69c1.64-.97,3.52-1.48,5.44-1.48M94.48,0c-2.91,0-5.64.79-7.98,2.17-2.29-1.3-4.94-2.05-7.77-2.05s-5.64.79-7.98,2.17c-2.29-1.3-4.94-2.05-7.77-2.05s-5.49.75-7.78,2.06C52.87.91,50.14.12,47.23.12s-5.55.77-7.87,2.11C37.04.89,34.36.12,31.49.12s-5.64.79-7.98,2.17C21.22.99,18.57.24,15.74.24,7.05.24,0,7.29,0,15.98s7.05,15.74,15.74,15.74c2.91,0,5.64-.79,7.98-2.17,2.29,1.3,4.94,2.05,7.77,2.05s5.55-.77,7.87-2.11c2.32,1.34,5,2.11,7.87,2.11,0,0,.02,0,.03,0h0c0,2.89.78,5.6,2.15,7.93-1.36,2.33-2.15,5.04-2.15,7.93s.76,5.53,2.09,7.84c-1.35,2.32-2.13,5.02-2.13,7.91s.81,5.69,2.21,8.04c-1.38,2.34-2.17,5.06-2.17,7.97s.78,5.58,2.13,7.9c-1.35,2.32-2.13,5.02-2.13,7.9s.78,5.59,2.14,7.92c-1.37,2.34-2.16,5.06-2.16,7.96,0,8.7,7.05,15.74,15.74,15.74s15.74-7.05,15.74-15.74c0-2.89-.78-5.59-2.14-7.92,1.37-2.34,2.16-5.06,2.16-7.96s-.78-5.58-2.13-7.9c1.35-2.32,2.13-5.02,2.13-7.9s-.81-5.69-2.21-8.04c1.38-2.34,2.17-5.06,2.17-7.97s-.76-5.53-2.09-7.84c1.35-2.32,2.13-5.02,2.13-7.91s-.78-5.6-2.15-7.93c1.36-2.33,2.15-5.04,2.15-7.93,2.91,0,5.64-.79,7.98-2.17,2.29,1.3,4.94,2.05,7.77,2.05s5.48-.75,7.77-2.05c2.34,1.38,5.06,2.17,7.98,2.17,8.7,0,15.74-7.05,15.74-15.74S118.92.12,110.23.12c-2.83,0-5.48.75-7.77,2.05-2.34-1.38-5.06-2.17-7.98-2.17h0Z"/>
  </g>
</svg>