<?xml version="1.0" encoding="UTF-8"?>
<svg id="_레이어_2" data-name="레이어 2" xmlns="http://www.w3.org/2000/svg" viewBox="0 0 110.42 126.86">
  <g id="_레이어_1-2" data-name="레이어 1">
    <path d="M94.68,5c5.92,0,10.74,4.82,10.74,10.74,0,1.96-.53,3.87-1.54,5.54-.94,1.56-.96,3.52-.04,5.1.95,1.63,1.45,3.5,1.45,5.4s-.5,3.75-1.45,5.38c-.9,1.55-.9,3.47,0,5.02.95,1.63,1.45,3.49,1.45,5.38s-.5,3.74-1.44,5.37c-.9,1.55-.9,3.46,0,5.01.94,1.63,1.44,3.48,1.44,5.37s-.52,3.82-1.5,5.47c-.93,1.57-.93,3.53,0,5.1.98,1.65,1.5,3.54,1.5,5.47s-.5,3.74-1.44,5.37c-.9,1.55-.9,3.46,0,5.01.94,1.63,1.44,3.48,1.44,5.37s-.52,3.83-1.5,5.48c-.93,1.57-.94,3.53,0,5.1.97,1.65,1.49,3.53,1.49,5.45,0,5.92-4.82,10.74-10.74,10.74-1.88,0-3.72-.49-5.35-1.43-.77-.44-1.63-.67-2.49-.67s-1.72.22-2.49.67c-1.62.93-3.47,1.43-5.35,1.43s-3.74-.5-5.37-1.44c-.77-.45-1.64-.67-2.5-.67s-1.73.22-2.5.67c-1.63.94-3.48,1.44-5.37,1.44s-3.87-.53-5.53-1.53c-.79-.48-1.69-.72-2.58-.72-.85,0-1.69.21-2.45.64-1.6.9-3.42,1.38-5.26,1.38s-3.63-.47-5.21-1.35c-.76-.42-1.59-.63-2.43-.63-.89,0-1.77.23-2.56.7-1.65.98-3.55,1.5-5.48,1.5s-3.88-.53-5.54-1.54c-.79-.48-1.69-.72-2.58-.72-.83,0-1.67.21-2.42.63-1.6.89-3.35,1.34-5.19,1.34-5.92,0-10.74-4.82-10.74-10.74,0-1.86.48-3.69,1.4-5.3.89-1.56.87-3.47-.04-5.01-.97-1.64-1.48-3.52-1.48-5.44s.5-3.74,1.44-5.37c.9-1.55.9-3.46,0-5.01-.94-1.63-1.44-3.48-1.44-5.37s.52-3.82,1.5-5.47c.93-1.57.93-3.53,0-5.1-.98-1.65-1.5-3.54-1.5-5.47s.5-3.74,1.44-5.37c.9-1.55.9-3.46,0-5.01-.94-1.63-1.44-3.48-1.44-5.37s.5-3.75,1.45-5.38c.9-1.55.9-3.47,0-5.02-.95-1.63-1.45-3.49-1.45-5.38s.53-3.87,1.54-5.54c.94-1.57.96-3.52.04-5.1-.95-1.63-1.45-3.5-1.45-5.39,0-5.92,4.82-10.74,10.74-10.74s10.74,4.82,10.74,10.74c0,1.96-.53,3.87-1.54,5.54-.94,1.56-.96,3.52-.04,5.1.95,1.63,1.45,3.5,1.45,5.4s-.5,3.75-1.45,5.38c-.9,1.55-.9,3.47,0,5.02.95,1.63,1.45,3.49,1.45,5.38s-.5,3.74-1.44,5.37c-.9,1.55-.9,3.46,0,5.01.94,1.63,1.44,3.48,1.44,5.37s-.52,3.82-1.49,5.47c-.93,1.57-.93,3.53,0,5.1.98,1.65,1.5,3.54,1.5,5.47s-.5,3.74-1.44,5.37c-.9,1.55-.9,3.46,0,5.01.94,1.63,1.44,3.48,1.44,5.38v.18c-.03,1.35.49,2.65,1.44,3.62.94.95,2.22,1.48,3.56,1.48.01,0,.03,0,.04,0,.05,0,.09,0,.14,0,1.8.01,3.58.48,5.15,1.35.76.42,1.59.63,2.43.63.89,0,1.77-.23,2.56-.7,1.65-.98,3.55-1.5,5.48-1.5s3.87.53,5.53,1.53c.79.48,1.69.72,2.58.72.85,0,1.69-.21,2.45-.64,1.6-.9,3.42-1.38,5.26-1.38s3.74.5,5.37,1.44c.77.45,1.64.67,2.5.67s1.73-.22,2.5-.67c1.62-.94,3.47-1.43,5.35-1.44,1.34,0,2.63-.54,3.56-1.5.94-.96,1.45-2.25,1.43-3.6v-.2c0-1.88.49-3.74,1.43-5.37.9-1.55.9-3.46,0-5.01-.94-1.63-1.44-3.48-1.44-5.36s.52-3.82,1.5-5.47c.93-1.57.93-3.53,0-5.1-.98-1.65-1.5-3.54-1.5-5.47s.5-3.74,1.44-5.37c.9-1.55.9-3.46,0-5.01-.94-1.63-1.44-3.48-1.44-5.37s.5-3.75,1.45-5.38c.9-1.55.9-3.47,0-5.02-.95-1.63-1.45-3.49-1.45-5.38s.53-3.87,1.54-5.54c.94-1.57.96-3.52.04-5.1-.95-1.63-1.46-3.5-1.46-5.39,0-5.92,4.82-10.74,10.74-10.74M94.68,0c-8.7,0-15.74,7.05-15.74,15.74,0,2.89.78,5.59,2.13,7.91-1.43,2.37-2.25,5.15-2.25,8.12s.78,5.57,2.12,7.9c-1.35,2.32-2.12,5.02-2.12,7.9s.77,5.56,2.11,7.87c-1.34,2.32-2.11,5-2.11,7.87s.8,5.67,2.19,8.02c-1.39,2.35-2.19,5.09-2.19,8.02s.77,5.55,2.11,7.87c-1.34,2.32-2.11,5-2.11,7.87,0,.1,0,.2,0,.29-2.86,0-5.53.78-7.84,2.11-2.32-1.34-5-2.11-7.87-2.11s-5.43.74-7.71,2.02c-2.37-1.43-5.14-2.25-8.11-2.25s-5.69.81-8.04,2.21c-2.26-1.26-4.87-1.98-7.64-1.98-.04,0-.08,0-.12,0,0-.1,0-.2,0-.3,0-2.87-.77-5.55-2.11-7.87,1.34-2.32,2.11-5,2.11-7.87s-.8-5.67-2.19-8.02c1.39-2.35,2.19-5.09,2.19-8.02s-.77-5.56-2.11-7.87c1.34-2.32,2.11-5,2.11-7.87s-.78-5.57-2.12-7.9c1.35-2.32,2.12-5.02,2.12-7.9s-.78-5.59-2.13-7.91c1.43-2.37,2.25-5.15,2.25-8.12C31.61,7.05,24.56,0,15.86,0S.12,7.05.12,15.74c0,2.89.78,5.59,2.13,7.91-1.43,2.37-2.25,5.15-2.25,8.12s.78,5.57,2.13,7.9c-1.35,2.32-2.13,5.02-2.13,7.9s.77,5.56,2.11,7.87c-1.34,2.32-2.11,5-2.11,7.87s.8,5.67,2.19,8.02c-1.39,2.35-2.19,5.09-2.19,8.02s.77,5.55,2.11,7.87c-1.34,2.32-2.11,5-2.11,7.87s.79,5.63,2.17,7.97c-1.3,2.29-2.05,4.94-2.05,7.77,0,8.7,7.05,15.74,15.74,15.74,2.76,0,5.36-.71,7.62-1.96,2.37,1.43,5.15,2.26,8.13,2.26s5.69-.81,8.04-2.21c2.26,1.26,4.87,1.98,7.64,1.98s5.43-.74,7.71-2.02c2.37,1.43,5.14,2.25,8.11,2.25s5.56-.77,7.87-2.11c2.32,1.34,5,2.11,7.87,2.11s5.53-.76,7.84-2.09c2.31,1.33,4.98,2.09,7.84,2.09,8.69,0,15.74-7.05,15.74-15.74,0-2.92-.8-5.65-2.18-8,1.4-2.35,2.21-5.1,2.21-8.04s-.77-5.55-2.11-7.87c1.34-2.32,2.11-5,2.11-7.87s-.8-5.67-2.19-8.02c1.39-2.35,2.19-5.09,2.19-8.02s-.77-5.56-2.11-7.87c1.34-2.32,2.11-5,2.11-7.87s-.78-5.57-2.12-7.9c1.35-2.32,2.12-5.02,2.12-7.9s-.78-5.59-2.13-7.91c1.43-2.37,2.25-5.15,2.25-8.12,0-8.7-7.05-15.74-15.74-15.74h0Z"/>
  </g>
</svg>