<?xml version="1.0" encoding="UTF-8"?>
<svg id="_레이어_2" data-name="레이어 2" xmlns="http://www.w3.org/2000/svg" viewBox="0 0 125.94 126.87">
  <g id="_레이어_1-2" data-name="레이어 1">
    <path d="M110.2,5c5.92,0,10.74,4.82,10.74,10.74s-4.78,10.7-10.66,10.74c-1.33.01-2.61.55-3.54,1.51-.93.95-1.44,2.24-1.42,3.57v.2c0,5.91-4.78,10.71-10.68,10.74-.05,0-.09,0-.13,0-1.33,0-2.61.53-3.55,1.48s-1.46,2.23-1.45,3.56c0,.06,0,.12,0,.19-.03,5.89-4.83,10.69-10.73,10.69-2.76,0-5,2.24-5,5,0,5.9-4.8,10.72-10.7,10.74-1.33,0-2.6.54-3.54,1.49-.93.95-1.45,2.23-1.44,3.56,0,.06,0,.12,0,.19-.03,5.89-4.82,10.67-10.71,10.69-.02,0-.04,0-.05,0-2.76,0-5,2.24-5,5,0,5.9-4.79,10.71-10.69,10.74-.04,0-.09,0-.12,0-.01,0-.02,0-.04,0-1.34,0-2.62.53-3.56,1.49-.95.96-1.47,2.26-1.44,3.61v.21c0,5.92-4.81,10.74-10.74,10.74s-10.74-4.82-10.74-10.74c0-1.92.51-3.8,1.48-5.44.92-1.57.92-3.52,0-5.08-.98-1.65-1.49-3.54-1.49-5.46s.5-3.73,1.43-5.36c.9-1.55.89-3.46,0-5.01-.94-1.63-1.44-3.49-1.44-5.38s.51-3.8,1.49-5.45c.93-1.57.93-3.52,0-5.08-.97-1.65-1.49-3.53-1.49-5.45s.51-3.78,1.47-5.42c.92-1.56.92-3.5,0-5.06-.96-1.64-1.47-3.51-1.47-5.42s.5-3.76,1.45-5.39c.91-1.56.91-3.48,0-5.03-.95-1.63-1.45-3.5-1.45-5.39s.52-3.83,1.5-5.48c.92-1.55.94-3.48.04-5.05-.93-1.62-1.42-3.46-1.42-5.33,0-5.92,4.82-10.74,10.74-10.74s10.74,4.82,10.74,10.74c0,1.93-.52,3.83-1.5,5.48-.92,1.55-.94,3.48-.04,5.05.93,1.62,1.42,3.46,1.42,5.33s-.5,3.76-1.45,5.39c-.91,1.56-.91,3.48,0,5.03.95,1.63,1.45,3.5,1.45,5.39s-.51,3.78-1.47,5.42c-.92,1.56-.92,3.5,0,5.06.96,1.64,1.47,3.51,1.47,5.42s-.51,3.8-1.49,5.45c-.93,1.57-.93,3.52,0,5.08.96,1.63,1.48,3.5,1.48,5.41,0,1.33.54,2.6,1.48,3.53.94.93,2.2,1.45,3.52,1.45,0,0,.02,0,.03,0,.05,0,.1,0,.15,0,2.74-.02,4.96-2.25,4.96-5,0-5.9,4.8-10.71,10.7-10.74,1.33,0,2.6-.54,3.54-1.49.93-.95,1.45-2.22,1.44-3.55,0-.06,0-.12,0-.19.03-5.9,4.83-10.69,10.73-10.69,2.76,0,5-2.24,5-5,0-5.91,4.79-10.71,10.69-10.74.05,0,.09,0,.13,0,1.33,0,2.61-.53,3.55-1.48s1.46-2.23,1.45-3.56c0-.06,0-.12,0-.18.03-5.85,4.8-10.64,10.66-10.69,1.33-.01,2.61-.55,3.54-1.51.93-.95,1.44-2.24,1.42-3.57v-.23c.01-5.91,4.82-10.71,10.74-10.71M110.2,0c-8.7,0-15.74,7.05-15.74,15.74,0,.09,0,.19,0,.28-8.64.07-15.62,7.09-15.62,15.74,0,.06,0,.12,0,.17-.02,0-.05,0-.07,0-8.69,0-15.74,7.05-15.74,15.74h0c-8.69,0-15.73,7.05-15.73,15.74,0,.06,0,.12,0,.18-8.66.04-15.67,7.07-15.68,15.74,0,0-.01,0-.02,0-.04,0-.08,0-.13,0-.01-2.89-.81-5.6-2.18-7.93,1.38-2.34,2.18-5.07,2.18-7.99s-.79-5.62-2.16-7.95c1.37-2.33,2.16-5.05,2.16-7.95s-.78-5.59-2.13-7.91c1.35-2.33,2.13-5.03,2.13-7.91s-.76-5.52-2.08-7.82c1.4-2.35,2.21-5.1,2.21-8.04C31.61,7.14,24.56.09,15.87.09S.12,7.14.12,15.83c0,2.85.76,5.52,2.08,7.82-1.4,2.35-2.21,5.1-2.21,8.04s.78,5.59,2.13,7.91c-1.35,2.33-2.13,5.03-2.13,7.91s.79,5.62,2.16,7.95c-1.37,2.33-2.16,5.05-2.16,7.95s.8,5.65,2.18,7.99c-1.38,2.34-2.18,5.07-2.18,7.99s.77,5.56,2.12,7.88C.78,89.6.01,92.28.01,95.15s.8,5.66,2.19,8C.82,105.49.03,108.22.03,111.13c0,8.7,7.05,15.74,15.74,15.74s15.74-7.05,15.74-15.74c0-.1,0-.2,0-.31.03,0,.07,0,.1,0,8.69,0,15.74-7.05,15.74-15.74,0,0,.01,0,.02,0,8.69,0,15.74-7.05,15.74-15.74,0-.06,0-.12,0-.18,8.66-.04,15.68-7.07,15.68-15.74h0c8.69,0,15.73-7.05,15.73-15.74,0-.06,0-.12,0-.17.02,0,.05,0,.07,0,8.69,0,15.74-7.05,15.74-15.74,0-.09,0-.19,0-.28,8.64-.07,15.62-7.09,15.62-15.74S118.9,0,110.2,0h0Z"/>
  </g>
</svg>