<?xml version="1.0" encoding="UTF-8"?>
<svg id="_레이어_2" data-name="레이어 2" xmlns="http://www.w3.org/2000/svg" viewBox="0 0 126.06 126.99">
  <g id="_레이어_1-2" data-name="레이어 1">
    <path d="M110.32,5c5.92,0,10.74,4.82,10.74,10.74,0,1.95-.53,3.85-1.52,5.51-.95,1.58-.95,3.56,0,5.14,1,1.66,1.52,3.57,1.52,5.51s-.5,3.74-1.44,5.36c-.9,1.55-.9,3.46,0,5.01.94,1.63,1.44,3.48,1.44,5.37s-.52,3.82-1.5,5.47c-.93,1.57-.93,3.53,0,5.1.98,1.65,1.5,3.54,1.5,5.47s-.5,3.74-1.44,5.37c-.9,1.55-.9,3.46,0,5.01.94,1.63,1.44,3.48,1.44,5.37s-.5,3.75-1.45,5.38c-.9,1.55-.9,3.47,0,5.02.95,1.63,1.45,3.49,1.45,5.38s-.53,3.87-1.54,5.54c-.94,1.57-.96,3.52-.04,5.1.95,1.63,1.46,3.5,1.46,5.39,0,5.92-4.82,10.74-10.74,10.74-1.88,0-3.74-.5-5.37-1.44-.77-.45-1.64-.67-2.5-.67s-1.73.22-2.5.67c-1.63.94-3.48,1.44-5.37,1.44s-3.8-.51-5.45-1.49c-.78-.46-1.66-.69-2.54-.69-.83,0-1.66.21-2.41.62-1.6.88-3.33,1.32-5.17,1.32-5.9,0-10.71-4.79-10.74-10.68,0-.06,0-.12,0-.18,0-1.33-.53-2.61-1.48-3.55-.94-.93-2.2-1.45-3.52-1.45-.01,0-.02,0-.03,0-.05,0-.09,0-.14,0-1.3.03-2.54.56-3.45,1.48-.94.95-1.46,2.24-1.44,3.57v.21c-.01,5.91-4.83,10.71-10.74,10.71-1.91,0-3.79-.51-5.43-1.48-.78-.46-1.66-.69-2.54-.69s-1.7.22-2.47.65c-1.61.91-3.44,1.4-5.29,1.4s-3.65-.47-5.25-1.37c-.76-.43-1.61-.64-2.45-.64-.89,0-1.79.24-2.58.72-1.66,1-3.58,1.53-5.53,1.53-5.92,0-10.74-4.82-10.74-10.74,0-1.91.51-3.79,1.47-5.43.93-1.58.92-3.53-.02-5.1-.99-1.66-1.52-3.56-1.52-5.5s.5-3.75,1.45-5.38c.9-1.55.9-3.47,0-5.02-.95-1.63-1.45-3.49-1.45-5.38s.5-3.74,1.44-5.37c.9-1.55.9-3.46,0-5.01-.94-1.63-1.44-3.48-1.44-5.37s.52-3.82,1.5-5.47c.93-1.57.93-3.53,0-5.1-.98-1.65-1.5-3.54-1.5-5.47s.5-3.74,1.44-5.37c.9-1.55.9-3.46,0-5.01-.94-1.63-1.44-3.48-1.44-5.37s.53-3.85,1.52-5.51c.95-1.58.95-3.56,0-5.14-1-1.66-1.52-3.57-1.52-5.51,0-5.92,4.82-10.74,10.74-10.74s10.74,4.82,10.74,10.74c0,1.95-.53,3.85-1.52,5.51-.95,1.58-.95,3.56,0,5.14,1,1.66,1.52,3.57,1.52,5.51s-.5,3.74-1.44,5.37c-.9,1.55-.9,3.46,0,5.01.94,1.63,1.44,3.48,1.44,5.37s-.52,3.82-1.5,5.47c-.93,1.57-.93,3.53,0,5.1.98,1.65,1.5,3.54,1.5,5.47s-.5,3.74-1.44,5.37c-.9,1.55-.9,3.46,0,5.01.94,1.63,1.44,3.48,1.44,5.37s-.5,3.75-1.45,5.38c-.9,1.55-.9,3.47,0,5.02.94,1.61,1.44,3.45,1.45,5.32-.03,1.35.48,2.65,1.43,3.61.94.96,2.23,1.5,3.57,1.5.01,0,.03,0,.04,0,.05,0,.1,0,.15,0,1.89.01,3.75.52,5.38,1.48.78.46,1.66.69,2.54.69s1.7-.22,2.47-.65c1.61-.91,3.44-1.4,5.29-1.4,1.34,0,2.63-.54,3.57-1.5.94-.96,1.46-2.25,1.43-3.59v-.18c0-1.89.5-3.75,1.45-5.37.89-1.53.91-3.42.04-4.97-.9-1.6-1.37-3.41-1.37-5.25s.5-3.77,1.46-5.4c.91-1.56.91-3.48,0-5.04-.96-1.64-1.46-3.5-1.46-5.4,0-5.92,4.82-10.74,10.74-10.74s10.74,4.82,10.74,10.74c0,1.9-.5,3.77-1.46,5.4-.91,1.56-.91,3.49,0,5.04.95,1.63,1.46,3.5,1.46,5.4s-.5,3.77-1.46,5.4c-.89,1.53-.91,3.42-.04,4.97.89,1.58,1.36,3.37,1.37,5.18,0,.04,0,.08,0,.12-.02,1.34.51,2.63,1.45,3.59.94.94,2.22,1.48,3.55,1.48.01,0,.02,0,.03,0,.03,0,.06,0,.1,0,1.9.01,3.76.52,5.39,1.48.78.46,1.66.69,2.54.69.83,0,1.66-.21,2.41-.62,1.58-.87,3.3-1.31,5.11-1.32.05,0,.09,0,.14,0,.01,0,.03,0,.04,0,1.33,0,2.62-.53,3.56-1.48.95-.96,1.47-2.26,1.44-3.62v-.19c0-1.89.49-3.75,1.44-5.38.9-1.55.9-3.47,0-5.02-.95-1.63-1.45-3.49-1.45-5.38s.5-3.74,1.44-5.37c.9-1.55.9-3.46,0-5.01-.94-1.63-1.44-3.48-1.44-5.37s.52-3.82,1.5-5.47c.93-1.57.93-3.53,0-5.1-.98-1.65-1.5-3.54-1.5-5.47s.5-3.74,1.44-5.37c.9-1.55.9-3.46,0-5.01-.94-1.63-1.44-3.48-1.44-5.37s.53-3.85,1.52-5.51c.95-1.58.95-3.56,0-5.14-1-1.66-1.52-3.57-1.52-5.51,0-5.92,4.82-10.74,10.74-10.74M110.32,0c-8.7,0-15.74,7.05-15.74,15.74,0,2.96.82,5.72,2.23,8.08-1.42,2.36-2.23,5.13-2.23,8.08s.77,5.55,2.11,7.87c-1.34,2.32-2.11,5-2.11,7.87s.8,5.67,2.19,8.02c-1.39,2.35-2.19,5.09-2.19,8.02s.77,5.56,2.11,7.87c-1.34,2.32-2.11,5-2.11,7.87s.78,5.57,2.12,7.9c-1.35,2.32-2.12,5.02-2.12,7.9,0,.1,0,.19,0,.29-.04,0-.08,0-.12,0-2.75,0-5.33.7-7.58,1.94-2.34-1.38-5.07-2.18-7.99-2.18-.02,0-.05,0-.07,0,0-.04,0-.08,0-.12,0-2.8-.73-5.42-2.01-7.7,1.36-2.33,2.14-5.03,2.14-7.92s-.78-5.6-2.14-7.93c1.36-2.33,2.14-5.03,2.14-7.93,0-8.7-7.05-15.74-15.74-15.74s-15.74,7.05-15.74,15.74c0,2.89.78,5.6,2.14,7.93-1.36,2.33-2.14,5.03-2.14,7.93s.73,5.42,2.01,7.7c-1.36,2.33-2.14,5.03-2.14,7.92,0,.08,0,.16,0,.24-2.82,0-5.47.75-7.76,2.05-2.34-1.38-5.06-2.17-7.97-2.17-.04,0-.09,0-.13,0,0-.02,0-.04,0-.05,0-2.88-.78-5.57-2.12-7.9,1.35-2.32,2.12-5.02,2.12-7.9s-.77-5.56-2.11-7.87c1.34-2.32,2.11-5,2.11-7.87s-.8-5.67-2.19-8.02c1.39-2.35,2.19-5.09,2.19-8.02s-.77-5.55-2.11-7.87c1.34-2.32,2.11-5,2.11-7.87s-.82-5.72-2.23-8.08c1.42-2.36,2.23-5.13,2.23-8.08C31.49,7.05,24.44,0,15.74,0S0,7.05,0,15.74c0,2.96.82,5.72,2.23,8.08-1.42,2.36-2.23,5.13-2.23,8.08s.77,5.55,2.11,7.87c-1.34,2.32-2.11,5-2.11,7.87s.8,5.67,2.19,8.02c-1.39,2.35-2.19,5.09-2.19,8.02s.77,5.56,2.11,7.87c-1.34,2.32-2.11,5-2.11,7.87s.78,5.57,2.13,7.9c-1.35,2.32-2.13,5.02-2.13,7.9s.81,5.71,2.23,8.07c-1.37,2.34-2.16,5.06-2.16,7.96,0,8.7,7.05,15.74,15.74,15.74,2.97,0,5.74-.82,8.11-2.25,2.28,1.28,4.9,2.01,7.7,2.01s5.47-.75,7.76-2.05c2.34,1.38,5.06,2.17,7.97,2.17,8.69,0,15.74-7.05,15.74-15.74,0-.08,0-.16,0-.24.02,0,.04,0,.06,0,0,.04,0,.08,0,.12,0,8.7,7.05,15.74,15.74,15.74,2.75,0,5.33-.7,7.58-1.94,2.34,1.38,5.07,2.18,7.99,2.18s5.55-.77,7.87-2.11c2.32,1.34,5,2.11,7.87,2.11,8.7,0,15.74-7.05,15.74-15.74,0-2.89-.78-5.59-2.13-7.91,1.43-2.37,2.25-5.15,2.25-8.12s-.78-5.57-2.13-7.9c1.35-2.32,2.13-5.02,2.13-7.9s-.77-5.56-2.11-7.87c1.34-2.32,2.11-5,2.11-7.87s-.8-5.67-2.19-8.02c1.39-2.35,2.19-5.09,2.19-8.02s-.77-5.55-2.11-7.87c1.34-2.32,2.11-5,2.11-7.87s-.82-5.72-2.23-8.08c1.42-2.36,2.23-5.13,2.23-8.08,0-8.7-7.05-15.74-15.74-15.74h0Z"/>
  </g>
</svg>