<?xml version="1.0" encoding="UTF-8"?>
<svg id="_레이어_2" data-name="레이어 2" xmlns="http://www.w3.org/2000/svg" viewBox="0 0 125.92 126.87">
  <g id="_레이어_1-2" data-name="레이어 1">
    <path d="M110.17,5c5.92,0,10.74,4.82,10.74,10.74s-4.78,10.7-10.66,10.74c-1.33.01-2.61.55-3.54,1.51-.93.95-1.44,2.24-1.42,3.57v.2c0,5.91-4.78,10.71-10.68,10.74-.05,0-.09,0-.13,0-1.33,0-2.61.53-3.55,1.48s-1.46,2.23-1.45,3.56c0,.06,0,.12,0,.19-.03,5.89-4.83,10.69-10.73,10.69-2.73,0-4.95,2.2-5,4.92,0,.07,0,.15,0,.22-.02,2.75,2.19,5.01,4.94,5.04,5.85.07,10.61,4.88,10.62,10.74,0,2.76,2.24,5,5,5,.02,0,.04,0,.06,0,5.9.02,10.7,4.83,10.7,10.76v.2c-.03,1.35.49,2.65,1.44,3.61.94.95,2.22,1.49,3.56,1.49.01,0,.02,0,.03,0,.03,0,.08,0,.12,0,5.9.03,10.69,4.84,10.69,10.74s-4.82,10.74-10.74,10.74-10.74-4.82-10.74-10.72v-.05s0-.19,0-.19c.03-1.35-.49-2.65-1.44-3.61-.94-.95-2.22-1.49-3.56-1.49-.01,0-.02,0-.04,0-.03,0-.08,0-.12,0-5.9-.03-10.69-4.84-10.69-10.74,0-2.76-2.24-5-5-5-.02,0-.04,0-.05,0-5.38-.02-9.94-4.04-10.62-9.37-.32-2.5-2.44-4.37-4.96-4.37s-4.64,1.87-4.96,4.37c-.68,5.33-5.24,9.35-10.62,9.37-.02,0-.04,0-.05,0-2.76,0-5,2.24-5,5,0,5.9-4.79,10.71-10.69,10.74-.04,0-.09,0-.12,0-.01,0-.02,0-.04,0-1.34,0-2.62.53-3.56,1.49-.95.96-1.47,2.26-1.44,3.61v.21c0,5.92-4.81,10.74-10.74,10.74s-10.74-4.82-10.74-10.74,4.79-10.71,10.69-10.74c.05,0,.1,0,.13,0,.01,0,.02,0,.03,0,1.34,0,2.62-.54,3.56-1.49.95-.96,1.47-2.26,1.44-3.61v-.18s0-.03,0-.03c0-5.91,4.8-10.72,10.7-10.74.02,0,.04,0,.06,0,2.76,0,5-2.24,5-5,0-5.9,4.8-10.71,10.7-10.74,1.34,0,2.62-.55,3.55-1.5.94-.95,1.45-2.24,1.43-3.58v-.15c-.02-1.32-.55-2.57-1.48-3.5-.94-.93-2.2-1.45-3.52-1.45-.01,0-.02,0-.04,0-.03,0-.08,0-.12,0-5.88-.03-10.67-4.81-10.69-10.7v-.13c.03-1.34-.49-2.63-1.43-3.59-.94-.96-2.22-1.49-3.56-1.49-.04,0-.09,0-.13,0-5.88-.03-10.66-4.82-10.68-10.7v-.16c.02-1.33-.48-2.61-1.41-3.56-.92-.95-2.19-1.5-3.52-1.52-5.84-.08-10.59-4.9-10.59-10.74S9.92,5.09,15.84,5.09s10.72,4.8,10.74,10.7v.16c-.02,1.33.48,2.61,1.41,3.56.92.95,2.19,1.5,3.52,1.52,5.82.08,10.56,4.87,10.59,10.68,0,.06,0,.12,0,.19-.01,1.33.51,2.62,1.45,3.56s2.22,1.48,3.55,1.48c.04,0,.09,0,.13,0,5.9.03,10.68,4.84,10.68,10.75,0,1.33.53,2.6,1.47,3.54.94.93,2.21,1.46,3.53,1.46h.02c.07,0,.13,0,.2,0,2.71-.07,4.87-2.28,4.87-5,0-5.91,4.79-10.71,10.69-10.74.05,0,.09,0,.13,0,1.33,0,2.61-.53,3.55-1.48s1.46-2.23,1.45-3.56c0-.06,0-.12,0-.19.03-5.85,4.8-10.64,10.66-10.69,1.33-.01,2.61-.55,3.54-1.51.93-.95,1.44-2.24,1.42-3.57v-.2c0-5.92,4.81-10.74,10.74-10.74M110.17,0c-8.69,0-15.74,7.05-15.74,15.74,0,.09,0,.19,0,.28-8.64.07-15.62,7.09-15.62,15.74,0,.06,0,.12,0,.17-.02,0-.05,0-.07,0-8.69,0-15.74,7.05-15.74,15.74h0s-.06,0-.09,0h0c0-8.7-7.05-15.75-15.74-15.75-.02,0-.05,0-.07,0,0-.06,0-.12,0-.17,0-8.62-6.93-15.62-15.52-15.74,0-.06,0-.13,0-.19C31.58,7.14,24.54.09,15.84.09S.1,7.14.1,15.83s6.93,15.62,15.52,15.74c0,.06,0,.13,0,.19,0,8.7,7.05,15.74,15.74,15.74.02,0,.05,0,.07,0,0,.06,0,.12,0,.17,0,8.7,7.05,15.74,15.74,15.74.03,0,.07,0,.1,0h0c0,.06,0,.12,0,.18-8.66.04-15.67,7.07-15.68,15.74,0,0-.01,0-.02,0-8.69,0-15.74,7.05-15.74,15.74,0,.1,0,.2,0,.31-.03,0-.07,0-.1,0-8.69,0-15.74,7.05-15.74,15.74s7.05,15.74,15.74,15.74,15.74-7.05,15.74-15.74c0-.1,0-.2,0-.31.03,0,.07,0,.1,0,8.69,0,15.74-7.05,15.74-15.74,0,0,.01,0,.02,0,8.02,0,14.63-5.99,15.61-13.74.98,7.75,7.6,13.74,15.61,13.74,0,0,.01,0,.02,0,0,8.69,7.05,15.74,15.74,15.74.04,0,.07,0,.1,0,0,.1,0,.2,0,.31,0,8.7,7.05,15.74,15.74,15.74s15.74-7.05,15.74-15.74-7.05-15.74-15.74-15.74c-.03,0-.07,0-.1,0,0-.1,0-.2,0-.31,0-8.7-7.05-15.74-15.74-15.74,0,0-.01,0-.02,0,0-8.63-6.95-15.63-15.56-15.73,0-.06,0-.12,0-.18h0c8.69,0,15.73-7.05,15.73-15.74,0-.06,0-.12,0-.17.02,0,.05,0,.07,0,8.69,0,15.74-7.05,15.74-15.74,0-.09,0-.19,0-.28,8.64-.07,15.62-7.09,15.62-15.74S118.87,0,110.17,0h0Z"/>
  </g>
</svg>