<?xml version="1.0" encoding="UTF-8"?>
<svg id="_레이어_2" data-name="레이어 2" xmlns="http://www.w3.org/2000/svg" viewBox="0 0 126.06 126.78">
  <g id="_레이어_1-2" data-name="레이어 1">
    <path d="M15.74,5c5.92,0,10.74,4.82,10.74,10.74,0,1.91-.51,3.79-1.48,5.43-.92,1.57-.92,3.52,0,5.09.98,1.65,1.5,3.54,1.5,5.47s-.5,3.75-1.45,5.38c-.9,1.55-.9,3.47,0,5.02.94,1.62,1.44,3.46,1.45,5.33,0,.07,0,.14,0,.21-.01,1.33.51,2.61,1.45,3.56.94.95,2.22,1.48,3.55,1.48,0,0,.02,0,.03,0,1.87,0,3.71.5,5.32,1.42.77.44,1.63.67,2.49.67s1.72-.22,2.49-.67c1.62-.93,3.47-1.42,5.34-1.42s3.77.51,5.41,1.46c.78.46,1.65.68,2.52.68s1.74-.23,2.52-.68c1.64-.96,3.51-1.46,5.41-1.46s3.68.48,5.29,1.4c.77.43,1.62.65,2.47.65s1.7-.22,2.47-.65c1.61-.91,3.44-1.4,5.29-1.4s3.78.51,5.42,1.47c.78.46,1.65.69,2.53.69s1.75-.23,2.53-.69c1.64-.96,3.51-1.47,5.42-1.48,1.34,0,2.62-.54,3.56-1.49.94-.95,1.45-2.25,1.43-3.58v-.15c0-1.91.52-3.78,1.49-5.41.91-1.55.93-3.47.04-5.03-.92-1.61-1.41-3.45-1.41-5.31s.48-3.69,1.4-5.3c.89-1.57.87-3.5-.06-5.05-1-1.66-1.52-3.57-1.52-5.52,0-5.92,4.82-10.74,10.74-10.74s10.74,4.82,10.74,10.74c0,1.86-.48,3.69-1.4,5.3-.89,1.57-.87,3.5.06,5.05,1,1.66,1.52,3.57,1.52,5.52s-.52,3.81-1.49,5.46c-.91,1.55-.93,3.46-.04,5.02.92,1.61,1.41,3.45,1.41,5.31s-.51,3.79-1.47,5.43c-.91,1.55-.92,3.47-.02,5.03.94,1.62,1.43,3.47,1.43,5.35,0,5.92-4.82,10.74-10.74,10.74-1.84,0-3.67-.48-5.27-1.38-.76-.43-1.61-.65-2.46-.65s-1.74.23-2.52.68c-1.64.96-3.51,1.46-5.41,1.46s-3.78-.51-5.42-1.47c-.78-.46-1.66-.69-2.53-.69s-1.75.23-2.53.69c-1.62.95-3.47,1.46-5.36,1.47-2.75.02-4.97,2.25-4.97,5,0,1.9-.5,3.77-1.46,5.41-.91,1.56-.91,3.49,0,5.04.96,1.64,1.46,3.51,1.46,5.41s-.5,3.75-1.45,5.38c-.91,1.57-.9,3.52.04,5.08,1,1.66,1.52,3.57,1.52,5.52,0,5.92-4.82,10.74-10.74,10.74s-10.74-4.82-10.74-10.74c0-1.89.5-3.75,1.45-5.38.91-1.57.9-3.52-.04-5.08-1-1.66-1.52-3.57-1.52-5.52s.5-3.77,1.46-5.4c.91-1.56.91-3.49,0-5.04-.96-1.64-1.46-3.5-1.46-5.4,0-2.76-2.24-5-5-5-1.87,0-3.72-.49-5.34-1.42-.77-.44-1.63-.67-2.49-.67s-1.72.22-2.49.67c-1.62.93-3.47,1.42-5.34,1.42s-3.83-.52-5.48-1.5c-.79-.47-1.67-.7-2.56-.7s-1.69.21-2.45.64c-1.6.9-3.41,1.37-5.25,1.37-5.92,0-10.74-4.82-10.74-10.74,0-1.88.5-3.74,1.44-5.37.9-1.55.9-3.46,0-5.01-.94-1.63-1.44-3.48-1.44-5.37s.5-3.75,1.45-5.38c.9-1.55.9-3.47,0-5.02-.95-1.63-1.45-3.49-1.45-5.38s.51-3.79,1.48-5.43c.92-1.57.92-3.52,0-5.09-.98-1.65-1.5-3.54-1.5-5.47,0-5.92,4.82-10.74,10.74-10.74M15.74,0C7.05,0,0,7.05,0,15.74c0,2.93.8,5.67,2.19,8.02C.82,26.1.03,28.82.03,31.73s.78,5.57,2.12,7.9C.8,41.95.03,44.64.03,47.52s.77,5.56,2.11,7.87C.8,57.71.03,60.4.03,63.27c0,8.7,7.05,15.74,15.74,15.74,2.8,0,5.43-.73,7.7-2.01,2.35,1.4,5.1,2.21,8.04,2.21s5.53-.76,7.83-2.09c2.31,1.33,4.98,2.09,7.84,2.09,0,2.89.78,5.6,2.14,7.93-1.36,2.33-2.14,5.04-2.14,7.93s.82,5.73,2.24,8.09c-1.35,2.32-2.12,5.01-2.12,7.89,0,8.7,7.05,15.74,15.74,15.74s15.74-7.05,15.74-15.74c0-2.96-.82-5.73-2.24-8.09,1.35-2.32,2.12-5.01,2.12-7.89s-.78-5.6-2.14-7.93c1.36-2.33,2.14-5.04,2.14-7.93h0c2.87-.02,5.55-.81,7.86-2.17,2.33,1.37,5.05,2.16,7.95,2.16s5.6-.78,7.93-2.14c2.28,1.29,4.92,2.03,7.72,2.03,8.7,0,15.74-7.05,15.74-15.74,0-2.86-.77-5.54-2.1-7.85,1.37-2.34,2.16-5.05,2.16-7.96s-.75-5.5-2.07-7.79c1.39-2.35,2.19-5.08,2.19-8s-.82-5.73-2.24-8.09c1.31-2.29,2.05-4.95,2.05-7.77C125.88,7.17,118.83.12,110.14.12s-15.74,7.05-15.74,15.74c0,2.96.82,5.73,2.24,8.09-1.31,2.29-2.05,4.95-2.05,7.77s.75,5.5,2.07,7.79c-1.39,2.35-2.19,5.08-2.19,8,0,.06,0,.12,0,.19-2.9,0-5.61.79-7.94,2.17-2.33-1.37-5.05-2.16-7.95-2.16s-5.47.75-7.76,2.05c-2.29-1.3-4.94-2.05-7.76-2.05s-5.6.78-7.93,2.14c-2.33-1.36-5.04-2.14-7.93-2.14s-5.53.76-7.84,2.09c-2.31-1.33-4.98-2.09-7.83-2.09,0,0,0,0,0,0,0-.07,0-.13,0-.19,0-2.88-.78-5.57-2.12-7.9,1.35-2.32,2.12-5.02,2.12-7.9s-.8-5.67-2.19-8.02c1.38-2.34,2.17-5.06,2.17-7.97C31.49,7.05,24.44,0,15.74,0h0Z"/>
  </g>
</svg>