<?xml version="1.0" encoding="UTF-8"?>
<svg id="_레이어_2" data-name="레이어 2" xmlns="http://www.w3.org/2000/svg" viewBox="0 0 126.08 126.8">
  <g id="_레이어_1-2" data-name="레이어 1">
    <path d="M110.33,5c5.92,0,10.74,4.82,10.74,10.74s-4.78,10.7-10.66,10.74c-1.34.01-2.62.56-3.55,1.52s-1.44,2.25-1.41,3.59v.17c0,5.91-4.78,10.71-10.68,10.74-.04,0-.08,0-.11,0h-.02c-1.34,0-2.62.54-3.56,1.49-.94.96-1.46,2.25-1.44,3.6v.13c-.02,5.9-4.83,10.7-10.73,10.7-2.76,0-5,2.24-5,5,0,5.91-4.8,10.72-10.7,10.74h-.14s-.04,0-.06,0c-1.33,0-2.6.53-3.54,1.46-.95.95-1.48,2.25-1.46,3.6v.21c-.01,5.89-4.79,10.68-10.68,10.71-.04,0-.08,0-.1,0-.01,0-.03,0-.04,0-1.33,0-2.6.53-3.54,1.47-.95.95-1.47,2.24-1.46,3.58,0,.07,0,.13,0,.2.04,2.72,2.27,4.92,5,4.92,1.89,0,3.75.5,5.38,1.45.78.45,1.64.68,2.51.68s1.73-.23,2.51-.68c1.63-.95,3.49-1.45,5.38-1.45s3.73.5,5.36,1.43c.77.45,1.64.67,2.5.67s1.73-.22,2.5-.67c1.62-.94,3.48-1.43,5.36-1.43s3.75.5,5.38,1.45c.78.45,1.64.68,2.51.68s1.73-.23,2.51-.68c1.63-.95,3.49-1.45,5.38-1.45s3.72.49,5.33,1.42c.77.44,1.63.66,2.49.66s1.76-.23,2.54-.69c1.64-.97,3.53-1.48,5.44-1.48,5.92,0,10.74,4.82,10.74,10.74s-4.82,10.74-10.74,10.74c-1.87,0-3.72-.49-5.33-1.42-.77-.44-1.63-.66-2.49-.66s-1.76.23-2.54.69c-1.64.97-3.53,1.48-5.44,1.48s-3.75-.5-5.38-1.45c-.78-.45-1.64-.68-2.51-.68s-1.73.23-2.51.68c-1.63.95-3.49,1.45-5.38,1.45s-3.73-.5-5.36-1.43c-.77-.45-1.64-.67-2.5-.67s-1.73.22-2.5.67c-1.62.94-3.48,1.43-5.36,1.43s-3.75-.5-5.38-1.45c-.78-.45-1.64-.68-2.51-.68s-1.73.23-2.51.68c-1.63.95-3.49,1.45-5.38,1.45s-3.73-.5-5.36-1.43c-.77-.45-1.64-.67-2.5-.67s-1.73.22-2.5.67c-1.62.94-3.48,1.43-5.36,1.43s-3.81-.52-5.46-1.49c-.78-.46-1.66-.7-2.54-.7s-1.69.21-2.45.64c-1.6.9-3.42,1.38-5.26,1.38-5.92,0-10.74-4.82-10.74-10.74s4.8-10.72,10.71-10.74c2.74,0,4.96-2.21,4.98-4.95.06-5.84,4.85-10.6,10.68-10.63.04,0,.09,0,.12,0h.02c1.33,0,2.61-.53,3.54-1.47.94-.95,1.47-2.23,1.46-3.57,0-.06,0-.12,0-.18.03-5.88,4.81-10.66,10.69-10.69.05,0,.11,0,.16,0,.02,0,.03,0,.05,0,1.33,0,2.61-.53,3.55-1.48.95-.96,1.47-2.26,1.45-3.61v-.19c.01-5.9,4.82-10.7,10.73-10.71,2.76,0,5-2.24,5-5,0-5.91,4.79-10.71,10.69-10.74.05,0,.09,0,.13,0,1.33,0,2.61-.53,3.55-1.48s1.46-2.23,1.45-3.56c0-.05,0-.09,0-.14v-.11c.02-1.35-.5-2.65-1.46-3.61-.94-.94-2.21-1.47-3.54-1.47-.02,0-.05,0-.07,0h-.2c-1.87,0-3.71-.5-5.32-1.43-.77-.45-1.64-.67-2.5-.67s-1.73.22-2.5.67c-1.62.94-3.48,1.43-5.36,1.43s-3.75-.5-5.38-1.45c-.78-.45-1.64-.68-2.51-.68s-1.73.23-2.51.68c-1.63.95-3.49,1.45-5.38,1.45s-3.73-.5-5.36-1.43c-.77-.45-1.64-.67-2.5-.67s-1.73.22-2.5.67c-1.62.94-3.48,1.43-5.36,1.43s-3.75-.5-5.38-1.45c-.78-.45-1.64-.68-2.51-.68s-1.73.23-2.51.68c-1.63.95-3.49,1.45-5.38,1.45-5.92,0-10.74-4.82-10.74-10.74S9.82,5.09,15.74,5.09c1.89,0,3.75.5,5.38,1.45.78.45,1.64.68,2.51.68s1.73-.23,2.51-.68c1.63-.95,3.49-1.45,5.38-1.45s3.73.5,5.36,1.43c.77.45,1.64.67,2.5.67s1.73-.22,2.5-.67c1.62-.94,3.48-1.43,5.36-1.43s3.75.5,5.38,1.45c.78.45,1.64.68,2.51.68s1.73-.23,2.51-.68c1.63-.95,3.49-1.45,5.38-1.45s3.73.5,5.36,1.43c.77.45,1.64.67,2.5.67s1.73-.22,2.5-.67c1.62-.94,3.48-1.43,5.36-1.43s3.75.5,5.38,1.45c.78.45,1.64.68,2.51.68s1.73-.23,2.51-.68c1.63-.95,3.49-1.45,5.38-1.45s3.72.49,5.33,1.42c.77.44,1.63.66,2.49.66s1.76-.23,2.54-.69c1.64-.97,3.52-1.48,5.44-1.48M110.33,0c-2.91,0-5.64.79-7.98,2.17-2.31-1.32-4.97-2.08-7.82-2.08s-5.57.78-7.89,2.12c-2.32-1.35-5.02-2.12-7.89-2.12s-5.55.77-7.86,2.1c-2.31-1.34-5-2.1-7.86-2.1s-5.57.78-7.89,2.12C52.82.87,50.12.09,47.25.09s-5.54.77-7.86,2.1C37.07.86,34.39.09,31.53.09s-5.57.78-7.89,2.12C21.32.87,18.62.09,15.74.09,7.05.09,0,7.14,0,15.83s7.05,15.74,15.74,15.74c2.88,0,5.57-.78,7.89-2.12,2.32,1.35,5.02,2.12,7.89,2.12s5.54-.77,7.86-2.1c2.31,1.34,5,2.1,7.86,2.1s5.57-.78,7.89-2.12c2.32,1.35,5.02,2.12,7.89,2.12s5.55-.77,7.86-2.1c2.31,1.34,5,2.1,7.86,2.1.08,0,.16,0,.23,0,0,.06,0,.13,0,.19,0,.06,0,.12,0,.17-.02,0-.05,0-.07,0-8.69,0-15.74,7.05-15.74,15.74h0c-8.69,0-15.73,7.05-15.73,15.74,0,.08,0,.16,0,.24-.05,0-.1,0-.15,0-8.7,0-15.74,7.05-15.74,15.74,0,.06,0,.11,0,.17-.03,0-.06,0-.09,0-8.64,0-15.65,6.96-15.74,15.58-8.67.03-15.69,7.06-15.69,15.74s7.05,15.74,15.74,15.74c2.8,0,5.44-.74,7.72-2.02,2.35,1.39,5.08,2.19,8,2.19s5.55-.77,7.86-2.1c2.31,1.34,5,2.1,7.86,2.1s5.57-.78,7.89-2.12c2.32,1.35,5.02,2.12,7.89,2.12s5.55-.77,7.86-2.1c2.31,1.34,5,2.1,7.86,2.1s5.57-.78,7.89-2.12c2.32,1.35,5.02,2.12,7.89,2.12s5.64-.79,7.98-2.17c2.31,1.32,4.97,2.08,7.82,2.08,8.7,0,15.74-7.05,15.74-15.74s-7.05-15.74-15.74-15.74c-2.91,0-5.64.79-7.98,2.17-2.31-1.32-4.97-2.08-7.82-2.08s-5.57.78-7.89,2.12c-2.32-1.35-5.02-2.12-7.89-2.12s-5.55.77-7.86,2.1c-2.31-1.34-5-2.1-7.86-2.1s-5.57.78-7.89,2.12c-2.32-1.35-5.02-2.12-7.89-2.12,0-.06,0-.11,0-.17.03,0,.06,0,.09,0,8.69,0,15.74-7.05,15.74-15.74,0-.08,0-.16,0-.24.05,0,.1,0,.15,0,8.69,0,15.74-7.05,15.74-15.74h0c8.69,0,15.73-7.05,15.73-15.74,0-.06,0-.12,0-.17.02,0,.05,0,.07,0,8.7,0,15.74-7.05,15.74-15.74,0-.09,0-.19,0-.28,8.64-.07,15.62-7.09,15.62-15.74S119.03,0,110.33,0h0Z"/>
  </g>
</svg>